<svg width="31" height="30" viewBox="0 0 31 30" fill="none" xmlns="http://www.w3.org/2000/svg">
<path d="M6.24233 13.0017C6.83831 10.192 8.74679 7.85271 11.3115 6.65989C11.5526 6.9846 13.1865 9.23107 14.7066 11.895C10.4209 13.0216 6.65081 13.0083 6.24233 13.0017ZM21.2691 8.08465C19.0191 6.10987 15.9588 5.36105 13.0593 6.05686C13.3138 6.39482 14.9745 8.63467 16.4745 11.3583C19.7289 10.1456 21.1017 8.31658 21.2691 8.08465ZM9.58385 22.0008C12.2959 24.0949 15.8316 24.4329 18.778 23.1937C18.6441 22.3984 18.1084 19.6285 16.8227 16.3283C13.133 17.5742 10.5414 20.0658 9.58385 22.0008ZM16.1999 14.8307C15.9722 14.3138 15.7178 13.8035 15.4566 13.2933C10.8896 14.6451 6.45661 14.5921 6.05483 14.5789C6.05483 14.6716 6.04813 14.7644 6.04813 14.8572C6.04813 17.1832 6.93876 19.3037 8.39858 20.914C9.88518 18.4025 12.8919 15.7518 16.1999 14.8307ZM18.537 15.9108C19.7356 19.1646 20.2178 21.8153 20.3115 22.3653C22.3673 20.9936 23.8271 18.8134 24.2356 16.2952C23.9276 16.1958 21.403 15.4536 18.537 15.9108ZM17.1776 12.7035C17.499 13.3529 17.7334 13.8831 17.9812 14.4795C21.028 14.1017 24.0548 14.7048 24.3562 14.771C24.3361 12.6306 23.566 10.6691 22.287 9.13167C22.0928 9.39012 20.5593 11.3318 17.1776 12.7035ZM30.2021 3.18084V26.507C30.2021 28.2631 28.7624 29.6879 26.9879 29.6879H3.41643C1.64188 29.6879 0.202148 28.2631 0.202148 26.507V3.18084C0.202148 1.42475 1.64188 0 3.41643 0H26.9879C28.7624 0 30.2021 1.42475 30.2021 3.18084ZM25.9164 14.8439C25.9164 8.99914 21.1084 4.24113 15.2021 4.24113C9.2959 4.24113 4.48786 8.99914 4.48786 14.8439C4.48786 20.6887 9.2959 25.4468 15.2021 25.4468C21.1084 25.4468 25.9164 20.6887 25.9164 14.8439Z" fill="#030303"/>
</svg>
