<svg width="31" height="30" viewBox="0 0 31 30" fill="none" xmlns="http://www.w3.org/2000/svg">
<path fill-rule="evenodd" clip-rule="evenodd" d="M0.601562 2.96879C0.601563 2.18142 0.917633 1.42629 1.48024 0.869538C2.04285 0.312782 2.80591 0 3.60156 0L27.6016 0C28.3972 0 29.1603 0.312782 29.7229 0.869538C30.2855 1.42629 30.6016 2.18142 30.6016 2.96879V26.7191C30.6016 27.5065 30.2855 28.2616 29.7229 28.8183C29.1603 29.3751 28.3972 29.6879 27.6016 29.6879H3.60156C2.80591 29.6879 2.04285 29.3751 1.48024 28.8183C0.917633 28.2616 0.601563 27.5065 0.601563 26.7191L0.601562 2.96879ZM10.6016 8.90636C10.6016 9.4529 10.1585 9.89596 9.61197 9.89596H9.59116C9.04462 9.89596 8.60156 9.4529 8.60156 8.90636C8.60156 8.35982 9.04462 7.91677 9.59116 7.91677H9.61197C10.1585 7.91677 10.6016 8.35982 10.6016 8.90636ZM9.60156 21.7711C9.04928 21.7711 8.60156 21.3234 8.60156 20.7711V12.8752C8.60156 12.3229 9.04928 11.8752 9.60156 11.8752C10.1538 11.8752 10.6016 12.3229 10.6016 12.8752V20.7711C10.6016 21.3234 10.1538 21.7711 9.60156 21.7711ZM17.6016 13.8543C16.8059 13.8543 16.0429 14.1671 15.4802 14.7239C14.9176 15.2806 14.6016 16.0358 14.6016 16.8231V20.7711C14.6016 21.3234 14.1538 21.7711 13.6016 21.7711C13.0493 21.7711 12.6016 21.3234 12.6016 20.7711V12.8752C12.6016 12.3229 13.0493 11.8752 13.6016 11.8752H14.2703C14.4533 11.8752 14.6016 12.0235 14.6016 12.2064C14.6016 12.4786 14.9165 12.6404 15.1545 12.5082C15.7672 12.1679 16.4478 11.958 17.1525 11.8951C18.0773 11.8126 19.0071 11.9866 19.8376 12.3975C20.6682 12.8085 21.3666 13.4402 21.8548 14.2218C22.343 15.0035 22.6016 15.9042 22.6016 16.8231V20.7711C22.6016 21.3234 22.1538 21.7711 21.6016 21.7711C21.0493 21.7711 20.6016 21.3234 20.6016 20.7711V16.8231C20.6016 16.0358 20.2855 15.2806 19.7229 14.7239C19.1603 14.1671 18.3972 13.8543 17.6016 13.8543Z" fill="#030303"/>
</svg>
