<svg width="1440" height="3287" viewBox="0 0 1440 3287" fill="none" xmlns="http://www.w3.org/2000/svg">
<g clip-path="url(#clip0_54_2)">
<rect width="1440" height="3287" fill="#030303"/>
<g filter="url(#filter0_d_54_2)">
<rect y="748" width="1440" height="832" fill="#030303"/>
</g>
<g filter="url(#filter1_d_54_2)">
<rect y="1470" width="1440" height="832" fill="#030303"/>
</g>
<rect y="2856" width="1440" height="431" fill="#090504"/>
<g clip-path="url(#clip1_54_2)">
<g filter="url(#filter2_f_54_2)">
<path d="M1195.87 1708C1196.35 1638.96 1252.7 1583.39 1321.74 1583.87C1390.77 1584.35 1446.34 1640.7 1445.86 1709.74C1445.38 1778.77 1389.03 1834.34 1320 1833.86C1250.96 1833.38 1195.39 1777.03 1195.87 1708Z" fill="#C27128" fill-opacity="0.5"/>
</g>
</g>
<g clip-path="url(#clip2_54_2)">
<g filter="url(#filter3_f_54_2)">
<path d="M238 1235C238 1301.83 184.946 1356 119.5 1356C54.0543 1356 1 1301.83 1 1235C1 1168.17 54.0543 1114 119.5 1114C184.946 1114 238 1168.17 238 1235Z" fill="#C27128" fill-opacity="0.5"/>
</g>
</g>
<g clip-path="url(#clip3_54_2)">
<g filter="url(#filter4_f_54_2)">
<path d="M237 2421C237 2487.83 183.946 2542 118.5 2542C53.0543 2542 0 2487.83 0 2421C0 2354.17 53.0543 2300 118.5 2300C183.946 2300 237 2354.17 237 2421Z" fill="#C27128" fill-opacity="0.5"/>
</g>
</g>
</g>
<defs>
<filter id="filter0_d_54_2" x="-4" y="748" width="1448" height="840" filterUnits="userSpaceOnUse" color-interpolation-filters="sRGB">
<feFlood flood-opacity="0" result="BackgroundImageFix"/>
<feColorMatrix in="SourceAlpha" type="matrix" values="0 0 0 0 0 0 0 0 0 0 0 0 0 0 0 0 0 0 127 0" result="hardAlpha"/>
<feOffset dy="4"/>
<feGaussianBlur stdDeviation="2"/>
<feComposite in2="hardAlpha" operator="out"/>
<feColorMatrix type="matrix" values="0 0 0 0 0 0 0 0 0 0 0 0 0 0 0 0 0 0 0.25 0"/>
<feBlend mode="normal" in2="BackgroundImageFix" result="effect1_dropShadow_54_2"/>
<feBlend mode="normal" in="SourceGraphic" in2="effect1_dropShadow_54_2" result="shape"/>
</filter>
<filter id="filter1_d_54_2" x="-4" y="1470" width="1448" height="840" filterUnits="userSpaceOnUse" color-interpolation-filters="sRGB">
<feFlood flood-opacity="0" result="BackgroundImageFix"/>
<feColorMatrix in="SourceAlpha" type="matrix" values="0 0 0 0 0 0 0 0 0 0 0 0 0 0 0 0 0 0 127 0" result="hardAlpha"/>
<feOffset dy="4"/>
<feGaussianBlur stdDeviation="2"/>
<feComposite in2="hardAlpha" operator="out"/>
<feColorMatrix type="matrix" values="0 0 0 0 0 0 0 0 0 0 0 0 0 0 0 0 0 0 0.25 0"/>
<feBlend mode="normal" in2="BackgroundImageFix" result="effect1_dropShadow_54_2"/>
<feBlend mode="normal" in="SourceGraphic" in2="effect1_dropShadow_54_2" result="shape"/>
</filter>
<filter id="filter2_f_54_2" x="795.867" y="1183.87" width="1050" height="1050" filterUnits="userSpaceOnUse" color-interpolation-filters="sRGB">
<feFlood flood-opacity="0" result="BackgroundImageFix"/>
<feBlend mode="normal" in="SourceGraphic" in2="BackgroundImageFix" result="shape"/>
<feGaussianBlur stdDeviation="200" result="effect1_foregroundBlur_54_2"/>
</filter>
<filter id="filter3_f_54_2" x="-399" y="714" width="1037" height="1042" filterUnits="userSpaceOnUse" color-interpolation-filters="sRGB">
<feFlood flood-opacity="0" result="BackgroundImageFix"/>
<feBlend mode="normal" in="SourceGraphic" in2="BackgroundImageFix" result="shape"/>
<feGaussianBlur stdDeviation="200" result="effect1_foregroundBlur_54_2"/>
</filter>
<filter id="filter4_f_54_2" x="-400" y="1900" width="1037" height="1042" filterUnits="userSpaceOnUse" color-interpolation-filters="sRGB">
<feFlood flood-opacity="0" result="BackgroundImageFix"/>
<feBlend mode="normal" in="SourceGraphic" in2="BackgroundImageFix" result="shape"/>
<feGaussianBlur stdDeviation="200" result="effect1_foregroundBlur_54_2"/>
</filter>
<clipPath id="clip0_54_2">
<rect width="1440" height="3287" fill="white"/>
</clipPath>
<clipPath id="clip1_54_2">
<rect width="605" height="961" fill="white" transform="translate(1439.99 2260.19) rotate(-179.601)"/>
</clipPath>
<clipPath id="clip2_54_2">
<rect width="972" height="1059" fill="white" transform="translate(1 827)"/>
</clipPath>
<clipPath id="clip3_54_2">
<rect width="972" height="1059" fill="white" transform="translate(0 2013)"/>
</clipPath>
</defs>
</svg>
