<svg width="46" height="38" viewBox="0 0 46 38" fill="none" xmlns="http://www.w3.org/2000/svg">
<path d="M10.6931 0.0630455C7.93226 0.328514 5.21122 1.6824 3.23349 3.75304C1.79996 5.25294 0.857553 6.99175 0.246977 9.22168C-0.111404 10.5092 -0.0715839 13.5621 0.313344 14.9956C0.817733 16.8671 1.7336 18.46 4.05644 21.4996C5.2245 23.026 7.8128 26.4373 9.81709 29.0654C14.33 35.0119 15.0203 35.7153 17.5289 36.8967C19.1217 37.6533 20.1438 37.9055 22.0551 37.9851C24.6435 38.1046 26.8734 37.5073 28.9706 36.1401C32.4482 33.8703 34.4525 30.1803 34.4525 26.0258C34.4525 24.4197 34.2268 23.1986 33.6561 21.7252C33.0853 20.2253 32.6871 19.6413 29.475 15.3938C27.1654 12.3542 26.5548 11.6109 26.4354 11.7569C25.1744 13.3895 23.1701 16.1106 23.1701 16.1902C23.1701 16.2566 23.6347 16.907 24.1922 17.637C28.36 23.1056 28.6255 23.5171 28.8909 25.2957C29.1564 27.1142 28.5326 29.0123 27.2052 30.4458C25.2806 32.5297 22.2012 33.0474 19.6128 31.7333C18.5377 31.1891 17.8475 30.4856 15.8963 27.8708C14.9008 26.5567 12.4187 23.2649 10.3613 20.5704C8.30392 17.8627 6.47219 15.3938 6.28637 15.062C4.9723 12.7922 5.3705 9.59333 7.22878 7.57578C8.27737 6.421 10.1755 5.63787 11.8877 5.63787C14.1309 5.63787 15.6839 6.48736 17.3431 8.63765C17.9271 9.39423 18.4581 10.0446 18.5112 10.0844C18.6173 10.1375 21.7764 6.10243 21.9224 5.70423C22.0153 5.46531 20.9004 4.03179 19.9447 3.16902C18.0864 1.49657 15.6839 0.368332 13.5204 0.129414C12.0072 -0.0298691 11.6754 -0.0298691 10.6931 0.0630455Z" fill="#C69C54"/>
<path d="M30.8023 0.262205C28.8113 0.686953 26.7008 1.80192 25.1346 3.23544C24.0727 4.2044 12.724 19.1104 12.1001 20.3581L11.755 21.035L13.9451 23.9552C15.153 25.5613 16.175 26.8753 16.2149 26.8753C16.2547 26.8753 16.2547 26.7028 16.2016 26.5037C16.0689 25.8798 16.3874 24.3401 16.852 23.3579C17.0909 22.8402 18.0333 21.4598 18.9359 20.2785C19.8385 19.1104 22.4268 15.7124 24.67 12.7525C29.0635 6.97854 29.3688 6.6467 30.9881 6.02285C32.1031 5.58483 33.9083 5.53174 35.0763 5.87684C36.0586 6.18213 37.3461 6.95199 37.9168 7.57584C39.9211 9.75267 40.1999 13.1507 38.554 15.5399C38.315 15.8982 37.2664 17.3052 36.2178 18.6724L34.333 21.1545L34.5985 21.8978C35.3418 24.0348 35.4878 27.4461 34.9038 29.3176C34.8507 29.4769 34.8772 29.53 34.9569 29.4769C35.1029 29.384 41.9785 20.3581 43.0271 18.898C44.2482 17.1725 45.0314 14.8895 45.1641 12.6463C45.5092 6.91217 41.6732 1.74882 36.0586 0.341845C34.7445 0.0100117 32.1164 -0.02981 30.8023 0.262205Z" fill="#C69C54"/>
</svg>
