<svg width="49" height="38" viewBox="0 0 49 38" fill="none" xmlns="http://www.w3.org/2000/svg">
<path d="M22.2757 0.112457C19.5621 0.578224 16.808 1.63126 14.8437 2.94756C13.6894 3.71709 11.3403 5.78266 11.3403 6.02567C11.3403 6.08642 11.5226 6.36993 11.7251 6.63319L12.1099 7.11921L13.5072 6.10667C15.2082 4.87138 16.241 4.32461 18.0838 3.69684C24.8881 1.38825 32.4821 4.0006 36.35 9.99481C36.6942 10.5618 37.2815 11.7364 37.6055 12.6274C38.2536 14.2677 38.8206 17.3256 38.5978 17.8926C38.5168 18.1154 38.1523 18.1964 36.998 18.1964C34.9122 18.1964 34.5679 18.7026 35.4995 20.3227C37.079 23.0363 40.6026 28.6862 40.9064 29.0102C41.6354 29.7595 42.1012 29.3343 43.944 26.2359C44.8755 24.6563 46.2323 22.4288 46.9209 21.315C47.6296 20.1809 48.1967 19.1076 48.1967 18.9456C48.1967 18.3179 47.3664 17.9939 45.8476 17.9939H44.3895L44.268 17.0218C43.053 8.53676 36.5322 1.73252 28.2092 0.274464C26.6094 -0.00904655 23.4503 -0.0900497 22.2757 0.112457Z" fill="#C69C54"/>
<path d="M5.91321 8.92156C5.81196 9.06331 5.16394 10.0961 4.51591 11.2099C3.84764 12.3237 2.55159 14.45 1.64031 15.9486C0.749277 17.4269 0 18.7634 0 18.9052C0 19.5127 0.729026 19.8165 2.26808 19.8165H3.78689L3.92864 20.8695C4.2729 23.5831 5.5082 26.9042 7.04725 29.2128C10.5506 34.5185 16.1601 37.6776 22.5796 37.9814C27.4195 38.2041 32.3202 36.422 35.9248 33.1009L36.9171 32.1896L36.5526 31.3594C36.3501 30.9139 36.1476 30.5493 36.0868 30.5493C36.0261 30.5493 35.621 30.8531 35.1553 31.2176C31.2266 34.3565 26.2247 35.5108 21.2025 34.397C16.7676 33.4249 12.4339 29.8406 10.7126 25.7297C10.0849 24.2109 9.51784 21.7403 9.51784 20.505V19.8165H10.9961C12.5352 19.8165 13.163 19.5127 13.163 18.7634C13.163 18.6014 12.2922 17.0219 11.2189 15.2398C10.1456 13.478 8.80907 11.2706 8.2623 10.3391C7.39152 8.90131 7.16876 8.67855 6.68274 8.67855C6.37898 8.67855 6.03472 8.80005 5.91321 8.92156Z" fill="#C69C54"/>
<path d="M22.8226 9.48856C22.0328 10.1163 19.3192 14.3285 18.2257 16.6371C17.0917 19.0266 16.7069 20.6872 16.8487 22.611C17.0309 25.1626 18.408 27.1877 20.7165 28.2407C21.8506 28.7673 22.1746 28.828 24.0984 28.828C26.0222 28.828 26.3463 28.7673 27.4803 28.2407C29.7889 27.1877 31.1052 25.2436 31.3279 22.6515C31.4899 20.7277 31.1254 19.0672 29.9711 16.6371C28.8776 14.3285 26.164 10.1163 25.3742 9.48856C25.0705 9.24555 24.5439 9.08354 24.0984 9.08354C23.6529 9.08354 23.1264 9.24555 22.8226 9.48856ZM25.2325 13.7817C27.379 17.0421 28.7561 20.2012 28.7561 21.8618C28.7561 23.7653 27.541 25.4866 25.84 25.9929C21.9113 27.1674 18.813 24.4943 19.6028 20.6467C19.7243 20.0189 20.2913 18.6014 20.8381 17.4876C21.9113 15.341 23.8149 12.3237 24.0984 12.3237C24.1794 12.3237 24.7059 12.9919 25.2325 13.7817Z" fill="#C69C54"/>
<path d="M22.0732 19.2495C21.4859 20.2012 21.2227 21.7403 21.4657 22.6313C21.7492 23.6844 22.2959 24.1096 23.4907 24.2311C24.7463 24.3526 24.9285 24.0489 24.3413 22.8136C24.1185 22.3276 23.835 21.396 23.6933 20.7278C23.5717 20.0595 23.43 19.3102 23.3692 19.047C23.2275 18.3787 22.539 18.4799 22.0732 19.2495Z" fill="#C69C54"/>
</svg>
