<svg width="32" height="38" viewBox="0 0 32 38" fill="none" xmlns="http://www.w3.org/2000/svg">
<path d="M13.7674 0.330345C12.6792 0.736401 11.7696 1.54851 11.1849 2.60425C10.7464 3.40012 10.6976 3.62751 10.6976 4.94312C10.6976 6.63231 11.055 7.57435 12.0782 8.59761L12.6792 9.19857L11.7696 9.49093C9.3008 10.2543 6.66957 11.8136 3.81094 14.2336C1.66698 16.0528 0.237666 17.6445 0.0590022 18.4241C-0.135904 19.2687 0.156455 20.1133 0.871111 20.7955C1.94309 21.8187 3.09629 21.7375 4.46063 20.5194C5.41892 19.6748 7.75779 18.0993 8.31003 17.9369L8.66735 17.8394V27.1299C8.66735 36.1606 8.68359 36.4367 8.9922 36.9402C9.86927 38.3533 12.5005 38.3533 13.3776 36.9402C13.6862 36.4529 13.7024 36.1443 13.7024 32.2949C13.7024 27.2111 13.6212 27.4385 15.554 27.4385C17.6493 27.4385 17.5031 27.1137 17.6005 32.2625C17.6655 36.1118 17.7142 36.6641 17.9741 37.0539C18.3802 37.6386 19.1923 37.9959 20.1506 37.9959C21.1413 37.9959 21.9534 37.5736 22.3433 36.8427C22.6194 36.3392 22.6356 35.6896 22.6356 27.065V17.8394L23.0092 17.9369C23.5127 18.083 25.9653 19.7397 26.8911 20.5681C27.7844 21.3477 28.5803 21.6401 29.3112 21.4289C30.578 21.0554 31.244 20.1783 31.244 18.8627C31.244 18.0506 31.1952 17.9693 30.2207 16.8486C29.0675 15.5168 26.3713 13.1941 24.6659 12.041C23.1229 11.0177 21.1576 10.0107 19.7608 9.5559L18.5913 9.18233L19.2085 8.59761C20.248 7.5906 20.6053 6.64855 20.6053 4.94312C20.6053 3.62751 20.5566 3.40012 20.1343 2.66922C19.8745 2.21444 19.3872 1.59724 19.0461 1.25615C17.7955 0.0542297 15.5215 -0.351826 13.7674 0.330345ZM18.5426 12.9343C18.9486 13.6977 19.4359 15.7929 19.2897 16.0365C19.0948 16.3451 16.8696 17.0598 16.3012 17.0111C15.9601 16.9623 15.8951 16.8811 15.8951 16.4751C15.8951 16.069 15.9763 15.9553 16.4311 15.8254C17.6655 15.468 16.1225 14.997 14.8069 15.3381C12.3543 15.9716 11.1686 18.5053 12.2894 20.7143C12.7604 21.6401 13.0365 21.9162 14.011 22.4035C15.6515 23.2318 17.8442 22.6146 18.7862 21.0716C19.0461 20.6493 19.3385 19.8859 19.4522 19.3662C19.6471 18.3754 19.9557 18.0993 20.4754 18.5216C20.6703 18.684 20.7028 18.9439 20.6378 19.6098C20.4592 21.2827 19.4034 22.777 17.8279 23.5567C17.1783 23.8815 16.7884 23.9465 15.6515 23.9465C14.0598 23.9465 13.0852 23.5729 12.0782 22.5659C11.0712 21.5589 10.6976 20.5843 10.6976 18.9926C10.6976 17.4009 11.0712 16.4263 12.0782 15.4193C13.0365 14.461 14.0598 14.0387 15.4891 14.0387C16.155 14.0387 16.9184 14.1037 17.162 14.1687C17.6168 14.2986 17.6168 14.2824 17.5031 13.7139C17.4544 13.4053 17.4381 13.0317 17.5031 12.9018C17.633 12.5607 18.3639 12.5932 18.5426 12.9343Z" fill="#C69C54"/>
</svg>
