<svg width="36" height="38" viewBox="0 0 36 38" fill="none" xmlns="http://www.w3.org/2000/svg">
<g clip-path="url(#clip0_7_312)">
<path d="M-0.362305 18.8892V38.3826H17.802C29.796 38.3826 35.9663 38.3584 35.9663 38.302C35.9663 38.2537 33.2114 38.2134 27.9756 38.2054C23.5775 38.1892 20.0332 38.157 20.0977 38.1329C20.1621 38.1006 20.4924 38.004 20.8226 37.8993C21.1529 37.8026 21.902 37.4885 22.4739 37.2146C24.9469 36.0144 28.9825 34.4597 30.6096 34.0731C30.9721 33.9845 31.6971 33.9523 33.4933 33.9523H35.8857V29.7233V25.4944H31.0526H26.2196L25.6799 25.8649C23.9722 27.0329 22.3128 27.4921 20.0896 27.4034L18.9297 27.3632L16.0701 28.2492C14.4994 28.7406 13.0978 29.2078 12.9528 29.2964C12.7917 29.3931 12.6145 29.6186 12.4775 29.8925C12.2117 30.4322 12.244 30.9235 12.5903 31.4149C13.0172 32.0351 12.9206 32.019 16.9562 32.019C20.2668 32.019 20.5891 32.0029 21.2173 31.8579C21.9423 31.6807 22.1356 31.6968 21.7007 31.8821C21.5476 31.9465 20.9354 32.2365 20.3393 32.5104L19.2519 33.0259L16.3601 33.0501C13.0172 33.0742 12.8803 33.0581 12.1956 32.4379C11.809 32.0915 11.3982 31.4391 11.3982 31.1732C11.3982 30.988 11.1726 30.9316 9.42466 30.706C8.5386 30.5852 6.46038 30.3113 4.80102 30.0858C1.56287 29.6508 1.51454 29.6508 0.9829 30.0214C0.233774 30.553 0.241829 31.9546 0.990955 32.4943C1.11984 32.5829 2.61809 33.1226 4.31772 33.6945C6.01735 34.2664 9.65826 35.4908 12.4051 36.4091C15.1518 37.3273 17.4314 38.1167 17.4717 38.149C17.5201 38.1892 13.5892 38.2215 8.67553 38.2215H-0.201202L-0.193147 26.6785C-0.185092 16.8351 -0.168982 15.2724 -0.0803757 16.0296C0.145168 17.9629 0.491538 19.4369 1.04734 20.903C2.26366 24.0928 4.59159 26.4449 7.54782 27.4598C9.00579 27.9592 10.939 28.1848 12.2762 27.9995C12.6467 27.9512 12.9689 27.8948 12.9931 27.8787C13.0575 27.8143 11.8734 25.8085 10.9712 24.4472C8.84469 21.2574 6.40399 18.5589 4.03579 16.7707C3.53637 16.3921 3.62498 16.3921 4.30161 16.7707C7.29811 18.43 10.3591 21.4104 13.2911 25.5105C13.7261 26.1227 14.1047 26.6221 14.145 26.6221C14.1772 26.6221 14.3061 26.1952 14.4349 25.6716C14.6363 24.8258 14.6605 24.5922 14.6605 23.3195C14.6605 21.7649 14.5638 21.2493 14.0402 20.0572C13.3153 18.4059 11.7929 16.9479 9.74686 15.9571C8.69164 15.4416 7.82975 15.1597 6.28317 14.8294C3.04501 14.1206 1.68369 13.6373 0.185443 12.6626L-0.201202 12.4048V6.02517V-0.362534L5.05879 -0.354481C9.40855 -0.346424 10.2382 -0.330315 9.90797 -0.249763C8.96552 -0.0161667 7.99891 0.73296 7.61226 1.52236C7.2095 2.35204 7.2095 2.38426 7.2095 8.01478V13.2909L7.97474 13.5003L8.73192 13.7098L8.75609 8.18394C8.78025 2.98839 8.78831 2.64202 8.9333 2.36009C9.11857 1.9815 9.49716 1.60291 9.8838 1.40154C10.1657 1.25654 10.4718 1.24849 18.092 1.24849H26.0101L26.4371 1.45792C26.9043 1.68346 27.2265 2.03789 27.3956 2.51314C27.4762 2.7548 27.5003 3.77779 27.5084 7.33815V11.8571L28.0561 11.9054C28.3542 11.9376 28.6925 11.9618 28.8214 11.9618H29.0389V7.29788C29.0389 2.88367 29.0308 2.6098 28.8778 2.1265C28.5072 0.926285 27.5245 0.0241089 26.3001 -0.249763C25.9296 -0.330315 26.727 -0.346424 30.9157 -0.354481C35.346 -0.362534 35.9663 -0.378647 35.9663 -0.48336C35.9663 -0.588078 33.8961 -0.604187 17.802 -0.604187H-0.362305V18.8892Z" fill="#C69C54"/>
<path d="M15.9249 4.64771C15.8524 4.72021 15.8282 5.3324 15.8282 6.90315V9.05386L13.6695 9.07803C11.9779 9.09414 11.4704 9.12636 11.3738 9.21496C11.2529 9.31162 11.2368 9.56939 11.2368 11.4382C11.2368 13.1056 11.261 13.5728 11.3415 13.6453C11.414 13.7017 12.1873 13.7419 13.6211 13.75L15.788 13.7742L15.8121 14.7086L15.8363 15.6429L16.4163 15.071C17.8501 13.6694 19.7672 12.727 22.1595 12.2598C22.9973 12.0906 24.5519 11.8812 24.9305 11.8812C24.9788 11.8812 25.0111 11.3657 25.0111 10.6004C25.0111 9.35996 25.003 9.31162 24.8338 9.18274C24.6727 9.07803 24.3425 9.06192 22.5543 9.06192L20.4599 9.06997L20.4358 6.91926C20.4277 5.4935 20.3874 4.72826 20.331 4.65577C20.2022 4.51078 16.0699 4.50272 15.9249 4.64771Z" fill="#C69C54"/>
<path d="M24.4073 13.5486C21.8619 13.7742 19.695 14.4991 18.2693 15.5946C17.6571 16.0699 16.8677 16.9318 16.5133 17.5118C16.2152 18.0112 15.6675 19.2919 15.6675 19.5094C15.6675 19.5658 15.7561 19.8719 15.8608 20.1941C16.0944 20.8949 16.3119 21.9099 16.3119 22.3126C16.3119 22.4657 16.3441 22.5945 16.3924 22.5945C16.4327 22.5945 16.6985 22.3932 16.9724 22.1435C18.9862 20.3472 21.8055 18.3575 23.924 17.2459C24.7295 16.8271 24.7698 16.7787 23.0862 18.1159C21.0161 19.7591 18.8815 21.8293 17.0852 23.9236C16.7066 24.3667 16.3924 24.7694 16.3924 24.8258C16.3924 24.9144 17.3671 25.3011 18.076 25.4944C18.817 25.6958 19.7756 25.8166 20.5811 25.8246C24.4476 25.8407 27.3716 23.0698 28.9826 17.842C29.4015 16.4888 29.9734 13.8225 29.8606 13.7259C29.6914 13.5648 25.6719 13.4359 24.4073 13.5486Z" fill="#C69C54"/>
</g>
<defs>
<clipPath id="clip0_7_312">
<rect width="35.9459" height="38" fill="white"/>
</clipPath>
</defs>
</svg>
