<svg width="39" height="38" viewBox="0 0 39 38" fill="none" xmlns="http://www.w3.org/2000/svg">
<path d="M21.8826 0.288658C21.5471 0.464355 21.02 1.0234 20.5888 1.6623C19.0075 3.96236 16.5956 5.52768 13.2094 6.43811C11.9795 6.77354 9.59962 7.17286 8.81696 7.17286C8.70515 7.17286 8.43362 7.34855 8.22598 7.57217C7.82666 7.95551 7.82666 8.00343 7.82666 10.607V13.2424H9.10447H10.3823V11.4056V9.58472L10.9892 9.48888C12.5386 9.24929 15.222 8.53053 16.356 8.03538C18.7839 6.99716 21.1957 5.17628 22.5374 3.38734L22.9208 2.87622L23.6715 3.8186C25.0451 5.52768 27.2014 7.07702 29.6453 8.11524C30.8911 8.64233 33.6544 9.40902 34.3252 9.40902C34.5488 9.40902 34.9002 9.45694 35.1079 9.52083L35.4912 9.61666L35.4114 14.9036C35.3475 20.7975 35.2996 21.1329 34.1815 23.5767C33.0634 26.0046 31.514 28.065 28.9425 30.5088C26.9139 32.4735 23.4319 35.1249 22.9208 35.1249C22.6492 35.1249 20.7964 33.8631 19.3749 32.7131C18.736 32.186 18.129 31.7707 18.0172 31.7707C17.9054 31.7707 17.4741 32.17 17.0588 32.6332L16.2921 33.4957L17.0588 34.1187C19.4068 36.0513 22.3458 38 22.9208 38C23.0965 38 24.0229 37.5048 24.9812 36.8819C30.6515 33.1763 34.9801 28.4484 36.8329 23.8642C37.8552 21.3406 38.0149 20.0308 38.0149 13.7536V8.16316L37.6156 7.68398C37.2642 7.25272 37.1045 7.2048 35.5871 7.0291C31.0029 6.51798 26.9778 4.42556 25.109 1.59841C24.0868 0.0650406 23.0645 -0.350246 21.8826 0.288658Z" fill="#C69C54"/>
<path d="M21.7228 7.42846C19.7102 9.13753 16.6116 10.623 13.8643 11.2299L12.6184 11.5015V13.1307C12.6184 14.0252 12.6823 14.8398 12.7462 14.9356C12.8101 15.0314 13.3372 15.0953 13.9921 15.0953C15.3178 15.0793 15.797 15.3349 17.2984 16.8363C18.3845 17.9544 18.8318 19.0246 18.5762 20.0468C18.4324 20.6538 18.4484 20.6857 19.0554 21.117C19.9978 21.8038 20.3332 22.7302 20.3492 24.5831C20.3492 26.4518 19.9978 27.3783 19.0234 28.0491C18.2408 28.5922 18.2727 28.8797 19.2311 29.7262C19.9658 30.4131 21.9145 31.9145 22.5374 32.3138C22.9367 32.5694 22.9687 32.5534 24.0548 31.7548C27.8243 28.9595 30.923 25.4615 32.1849 22.6024C33.0634 20.6059 33.2391 19.376 33.1911 15.303L33.1432 11.5973L31.4661 11.1501C28.4473 10.3674 26.3229 9.31323 24.0548 7.49235C23.3999 6.96526 22.8409 6.534 22.8249 6.534C22.793 6.54997 22.2978 6.94928 21.7228 7.42846Z" fill="#C69C54"/>
<path d="M7.50713 15.9578C7.07587 16.3891 7.10781 16.5169 7.66685 17.2356C8.01825 17.6829 8.14603 18.0023 8.14603 18.4975C8.14603 19.1524 8.13006 19.1843 7.26754 19.5517C5.87792 20.1746 5.65431 20.1906 5.22304 19.7593C4.98346 19.5197 4.80776 19.1044 4.74387 18.6093C4.61609 17.6988 4.40844 17.3954 3.92926 17.3954C3.57787 17.3954 2.45978 18.3537 1.99658 19.0405C1.50143 19.7913 2.04449 20.4302 3.17855 20.4302C3.70565 20.4302 4.47233 20.9732 4.47233 21.3566C4.47233 21.6281 3.86537 23.1934 3.62578 23.5768C3.54592 23.6886 3.2105 23.7844 2.87507 23.7844C2.41186 23.7844 2.10839 23.6566 1.70907 23.3052C0.622932 22.3629 0 22.842 0 24.615C0 25.4935 0.0638905 25.765 0.319452 26.0206C0.750713 26.4518 0.942384 26.4199 1.6931 25.8609C2.57159 25.206 3.83343 25.2699 3.83343 25.9886C3.83343 26.1484 3.97718 26.5317 4.15288 26.8671C4.32858 27.1866 4.47233 27.5859 4.47233 27.7456C4.47233 28.2088 3.81745 28.688 3.0348 28.7998C2.25214 28.9276 1.75699 29.263 1.75699 29.6943C1.75699 30.0936 3.498 31.7707 3.89732 31.7707C4.47233 31.7707 4.664 31.5152 4.74387 30.7165C4.8397 29.8221 5.28694 29.2151 5.84598 29.2151C6.37307 29.2151 7.8745 29.8221 8.11409 30.1255C8.43354 30.5568 8.3377 31.036 7.76269 31.8506C6.90017 33.0485 7.26754 33.5277 9.02453 33.5277C10.8454 33.5277 11.2926 32.9846 10.3822 31.8506C9.91899 31.2596 9.75927 30.4929 10.0308 30.0617C10.0947 29.9658 10.6378 29.6943 11.2287 29.4547L12.3309 29.0075L12.7461 29.3269C13.0656 29.5665 13.2253 29.886 13.3531 30.5728C13.6566 32.0742 14.2316 32.17 15.4455 30.8763C15.9087 30.3811 16.2921 29.886 16.2921 29.7422C16.2921 29.1832 15.9726 28.9276 15.142 28.8158C14.6309 28.7519 14.1517 28.5762 13.9441 28.3686C13.5767 28.0331 13.4489 27.3942 13.7205 27.2185C13.8003 27.1706 13.992 26.7873 14.1358 26.356C14.2795 25.9247 14.5031 25.5254 14.6309 25.4775C15.174 25.2699 15.765 25.3976 16.2921 25.8609C17.3942 26.7873 18.0491 26.3241 18.0491 24.583C18.0491 22.842 17.3782 22.3629 16.2921 23.3052C15.749 23.7525 14.9983 23.9282 14.599 23.6566C14.4073 23.5448 13.5767 21.5802 13.5767 21.2767C13.5767 20.9413 14.3274 20.4461 15.0143 20.3343C16.5796 20.0947 16.6754 19.4079 15.3497 18.1461C14.2955 17.1398 14.3913 17.1718 13.8323 17.3794C13.4969 17.5072 13.417 17.6829 13.3371 18.4336C13.2413 19.1364 13.1295 19.3919 12.7621 19.7114L12.2989 20.0947L11.2128 19.6954C10.1426 19.2801 9.91899 19.1204 9.88705 18.6732C9.83913 18.1141 9.96691 17.7627 10.3982 17.2197C10.9412 16.5169 10.9572 16.3731 10.5419 15.9578C10.2864 15.7023 10.0148 15.6384 9.02453 15.6384C8.03423 15.6384 7.76269 15.7023 7.50713 15.9578Z" fill="#C69C54"/>
</svg>
