<svg width="25" height="25" viewBox="0 0 25 25" fill="none" xmlns="http://www.w3.org/2000/svg">
<path d="M16.5 12.543C16.5 13.277 16.2654 13.9945 15.8259 14.6049C15.3864 15.2152 14.7616 15.6908 14.0307 15.9717C13.2998 16.2526 12.4956 16.3261 11.7196 16.1829C10.9437 16.0397 10.231 15.6863 9.67157 15.1672C9.11216 14.6482 8.7312 13.9869 8.57686 13.267C8.42252 12.5471 8.50173 11.8009 8.80448 11.1228C9.10723 10.4446 9.61992 9.86499 10.2777 9.45719C10.9355 9.04939 11.7089 8.83173 12.5 8.83173C13.5599 8.83479 14.5754 9.22678 15.3248 9.92211C16.0742 10.6174 16.4967 11.5596 16.5 12.543ZM25 7.44001V17.646C25 19.3685 24.2625 21.0204 22.9497 22.2384C21.637 23.4564 19.8565 24.1407 18 24.1407H7C5.14348 24.1407 3.36301 23.4564 2.05025 22.2384C0.737498 21.0204 0 19.3685 0 17.646V7.44001C0 5.71751 0.737498 4.06556 2.05025 2.84757C3.36301 1.62957 5.14348 0.945313 7 0.945312H18C19.8565 0.945313 21.637 1.62957 22.9497 2.84757C24.2625 4.06556 25 5.71751 25 7.44001ZM18.5 12.543C18.5 11.442 18.1481 10.3657 17.4888 9.45019C16.8295 8.53472 15.8925 7.8212 14.7961 7.39986C13.6997 6.97851 12.4933 6.86827 11.3295 7.08307C10.1656 7.29787 9.09647 7.82806 8.25736 8.60661C7.41824 9.38515 6.8468 10.3771 6.61529 11.4569C6.38378 12.5368 6.5026 13.6561 6.95672 14.6733C7.41085 15.6906 8.17988 16.56 9.16658 17.1717C10.1533 17.7834 11.3133 18.1099 12.5 18.1099C14.0913 18.1099 15.6174 17.5234 16.7426 16.4794C17.8679 15.4354 18.5 14.0194 18.5 12.543ZM20.5 6.5122C20.5 6.23694 20.412 5.96787 20.2472 5.739C20.0824 5.51013 19.8481 5.33175 19.574 5.22641C19.2999 5.12108 18.9983 5.09352 18.7074 5.14722C18.4164 5.20092 18.1491 5.33347 17.9393 5.5281C17.7296 5.72274 17.5867 5.97072 17.5288 6.24068C17.4709 6.51065 17.5006 6.79048 17.6142 7.04479C17.7277 7.29909 17.92 7.51645 18.1666 7.66937C18.4133 7.8223 18.7033 7.90392 19 7.90392C19.3978 7.90392 19.7794 7.75729 20.0607 7.49629C20.342 7.23529 20.5 6.8813 20.5 6.5122Z" fill="#C69C54"/>
</svg>
