<svg width="40" height="38" viewBox="0 0 40 38" fill="none" xmlns="http://www.w3.org/2000/svg">
<path d="M21.0417 0.413883C20.7627 0.710251 20.3792 1.93058 19.5773 5.20803C18.9671 7.61382 18.4093 9.65351 18.3047 9.74068C18.2175 9.81041 17.7642 9.98475 17.2761 10.0893C16.2127 10.3508 15.2713 10.8913 13.4931 12.2511C11.9764 13.4017 11.3314 14.099 10.9827 14.9184C10.6863 15.6157 10.0413 21.4907 10.0413 23.4084C10.0413 25.2214 10.3202 26.1802 11.4185 28.063C11.8892 28.865 12.2553 29.5623 12.2204 29.6146C12.1856 29.6495 9.77979 29.7889 6.88587 29.911C1.22006 30.1725 0.993427 30.2073 0.243796 31.201C-0.0525692 31.602 -0.0525692 31.7589 0.10433 32.5608C0.348396 33.6417 0.801661 34.0601 2.17889 34.4436C2.71932 34.6005 5.43891 35.4547 8.2108 36.3613C11.0001 37.2678 13.4582 38 13.6848 38C14.3299 38 15.0969 37.1806 15.0969 36.5007C15.0969 35.8208 14.6262 35.3153 13.7197 35.0189C12.7957 34.7225 12.726 34.6528 13.1967 34.461C13.4233 34.3739 15.3759 34.3216 17.5376 34.339L21.4426 34.3564L28.9564 35.9254C33.0706 36.7971 36.8711 37.5119 37.3766 37.5293C38.196 37.5642 38.3529 37.5119 38.7364 37.076C39.3292 36.3787 39.2943 35.7162 38.2134 28.1502C38.074 27.0868 37.7427 24.7333 37.4987 22.9202C36.5747 16.1213 36.3481 14.5348 36.2609 14.1513C36.1563 13.6457 35.3718 12.8961 34.9534 12.8961C34.6571 12.8961 34.6571 12.8612 34.9186 12.408C35.0929 12.1116 35.1626 11.7455 35.0929 11.484C34.9709 11.0307 30.5602 6.98623 24.9642 2.20951C22.1574 -0.178848 21.7739 -0.370613 21.0417 0.413883ZM26.7598 8.34602C28.7646 9.77555 31.1007 11.4143 31.9549 11.9721L33.5239 13.0181L33.1055 13.4888C32.7568 13.9072 32.7045 14.1339 32.7045 15.3891C32.7045 16.7489 33.0881 25.2737 33.3321 29.4054C33.4367 31.1662 33.4193 31.3754 33.1752 31.3754C32.9137 31.3754 31.5888 30.9047 26.2542 28.9347C25.5395 28.6732 24.6504 28.3594 24.2843 28.2374C23.9182 28.1328 23.2557 27.7144 22.8024 27.3308C22.3666 26.9473 21.3032 26.1105 20.4489 25.4829C19.1589 24.5415 18.8102 24.1754 18.479 23.4607C17.7294 21.8568 17.9386 20.9154 19.4378 18.9454C20.6233 17.359 21.1288 16.3305 21.2857 15.1624C21.4078 14.1862 22.0354 10.2637 22.5235 7.35232C22.6804 6.48066 22.8722 5.74846 22.9768 5.74846C23.0639 5.74846 24.7724 6.91649 26.7598 8.34602Z" fill="#C69C54"/>
<path d="M23.4475 7.50922C22.8722 7.71842 22.7851 8.03222 22.14 12.3557C21.7914 14.6394 21.7042 15.6331 21.8437 15.8423C21.9308 15.9992 22.4538 16.3479 22.9943 16.6268C25.3826 17.8471 28.3288 16.8709 29.5492 14.4477C29.985 13.576 30.0896 13.1402 30.0896 12.3034L30.0722 11.2399L27.3177 9.26998C25.801 8.20655 24.4064 7.31745 24.232 7.33489C24.0403 7.33489 23.6916 7.42205 23.4475 7.50922Z" fill="#C69C54"/>
</svg>
