<svg width="25" height="25" viewBox="0 0 25 25" fill="none" xmlns="http://www.w3.org/2000/svg">
<rect width="25" height="25" rx="10" fill="#C69C54"/>
<g clip-path="url(#clip0_287_448)">
<path d="M20.5135 8.05044C19.9475 8.30172 19.3392 8.47095 18.7007 8.54724C19.3526 8.15685 19.8533 7.53826 20.0885 6.80108C19.4789 7.16262 18.8033 7.42544 18.084 7.56711C17.509 6.95365 16.6879 6.57031 15.7802 6.57031C13.7424 6.57031 12.2449 8.47159 12.7052 10.4453C10.0828 10.3139 7.75711 9.05749 6.20006 7.14788C5.37314 8.56647 5.77121 10.4222 7.17634 11.362C6.65968 11.3453 6.1725 11.2036 5.7475 10.9671C5.71288 12.4293 6.76096 13.7972 8.27891 14.1017C7.83468 14.2222 7.34814 14.2504 6.85327 14.1556C7.25455 15.4094 8.41993 16.3216 9.80198 16.3472C8.47506 17.3876 6.80327 17.8524 5.12891 17.6549C6.5257 18.5504 8.18532 19.0729 9.96737 19.0729C15.8276 19.0729 19.1385 14.1235 18.9385 9.68441C19.5552 9.2389 20.0904 8.68313 20.5135 8.05044Z" fill="black"/>
</g>
<defs>
<clipPath id="clip0_287_448">
<rect width="15.3846" height="15.3846" fill="white" transform="translate(5.12891 5.12891)"/>
</clipPath>
</defs>
</svg>
