<svg width="90" height="67" viewBox="0 0 90 67" fill="none" xmlns="http://www.w3.org/2000/svg">
<path d="M9.504 63V59.448H8.544V62.024H1.808L9.04 52.76V51.8H1.84V51.24H0.816V52.76H7.792L0.56 62.024V63H9.504ZM13.7905 57.848C14.1105 57.848 14.3985 57.9333 14.6545 58.104C14.9105 58.264 15.1238 58.4827 15.2945 58.76C14.6865 58.984 14.0785 59.2133 13.4705 59.448C12.8732 59.6827 12.2705 59.9173 11.6625 60.152C11.6305 59.8533 11.6572 59.5707 11.7425 59.304C11.8278 59.0373 11.9505 58.8027 12.1105 58.6C12.3132 58.3653 12.5532 58.184 12.8305 58.056C13.1185 57.9173 13.4385 57.848 13.7905 57.848ZM15.8545 62.28L15.2305 61.56C15.0492 61.752 14.8358 61.9013 14.5905 62.008C14.3452 62.104 14.0785 62.152 13.7905 62.152C13.3745 62.152 13.0065 62.056 12.6865 61.864C12.3665 61.672 12.1158 61.416 11.9345 61.096C12.7132 60.7973 13.4865 60.504 14.2545 60.216C15.0225 59.9173 15.7958 59.6187 16.5745 59.32C16.4785 58.968 16.3398 58.6427 16.1585 58.344C15.9878 58.0453 15.7852 57.784 15.5505 57.56C15.3052 57.3467 15.0332 57.176 14.7345 57.048C14.4358 56.92 14.1212 56.856 13.7905 56.856C13.3532 56.856 12.9372 56.9413 12.5425 57.112C12.1585 57.272 11.8278 57.4907 11.5505 57.768C11.2625 58.056 11.0332 58.392 10.8625 58.776C10.7025 59.16 10.6225 59.5653 10.6225 59.992C10.6225 60.4293 10.7025 60.84 10.8625 61.224C11.0332 61.5973 11.2625 61.928 11.5505 62.216C11.8278 62.4933 12.1585 62.7173 12.5425 62.888C12.9372 63.048 13.3532 63.128 13.7905 63.128C14.2065 63.128 14.5852 63.0533 14.9265 62.904C15.2785 62.7547 15.5878 62.5467 15.8545 62.28ZM21.0911 63V62.04H20.0031V59.912C20.0031 59.6133 20.0618 59.3413 20.1791 59.096C20.3071 58.84 20.4778 58.6213 20.6911 58.44C20.8938 58.2587 21.1285 58.12 21.3951 58.024C21.6725 57.9173 21.9658 57.864 22.2751 57.864C22.7018 57.8853 23.0165 58.0133 23.2191 58.248C23.4325 58.472 23.5498 58.744 23.5711 59.064V62.04H22.3231V63H25.6511V62.04H24.5791V58.664C24.5578 58.1307 24.3711 57.6987 24.0191 57.368C23.6671 57.0373 23.1818 56.872 22.5631 56.872C21.9871 56.872 21.4591 57.0267 20.9791 57.336C20.5098 57.6347 20.1685 58.04 19.9551 58.552C19.9338 58.328 19.9178 58.1307 19.9071 57.96C19.8965 57.7787 19.8858 57.576 19.8751 57.352L19.8591 57H17.8911V57.96H18.9951V62.04H17.7631V63H21.0911ZM30.1068 63V62.04H29.0188V59.912C29.0188 59.6133 29.0774 59.3413 29.1948 59.096C29.3228 58.84 29.4934 58.6213 29.7068 58.44C29.9094 58.2587 30.1441 58.12 30.4108 58.024C30.6881 57.9173 30.9814 57.864 31.2908 57.864C31.7174 57.8853 32.0321 58.0133 32.2348 58.248C32.4481 58.472 32.5654 58.744 32.5868 59.064V62.04H31.3388V63H34.6667V62.04H33.5948V58.664C33.5734 58.1307 33.3868 57.6987 33.0348 57.368C32.6828 57.0373 32.1974 56.872 31.5788 56.872C30.9708 56.8933 30.4374 57.048 29.9788 57.336C29.5308 57.624 29.1948 58.0293 28.9708 58.552L29.0188 57.832V51H26.8108V51.96H28.0108V62.04H26.7788V63H30.1068ZM43.3624 63V62.04H42.1624V57H41.3304C41.3197 57.1813 41.3037 57.3627 41.2824 57.544C41.2717 57.7253 41.2664 57.9013 41.2664 58.072C41.1384 57.7733 40.877 57.496 40.4824 57.24C40.0877 56.984 39.5864 56.856 38.9784 56.856C38.5304 56.856 38.109 56.9413 37.7144 57.112C37.3304 57.2827 36.9997 57.512 36.7224 57.8C36.4344 58.0773 36.205 58.408 36.0344 58.792C35.8744 59.176 35.7944 59.5813 35.7944 60.008C35.7944 60.4347 35.8744 60.84 36.0344 61.224C36.205 61.5973 36.4344 61.9227 36.7224 62.2C36.9997 62.488 37.3304 62.7173 37.7144 62.888C38.109 63.048 38.5304 63.128 38.9784 63.128C39.2984 63.128 39.5864 63.0907 39.8424 63.016C40.109 62.9413 40.3437 62.84 40.5464 62.712C40.7384 62.6053 40.893 62.488 41.0104 62.36C41.1384 62.232 41.2237 62.1147 41.2664 62.008C41.2664 62.104 41.2664 62.1893 41.2664 62.264C41.2664 62.3387 41.2664 62.424 41.2664 62.52V63H43.3624ZM38.9784 57.848C39.277 57.848 39.5544 57.9013 39.8104 58.008C40.077 58.104 40.3064 58.248 40.4984 58.44C40.701 58.6213 40.861 58.8507 40.9784 59.128C41.0957 59.3947 41.1544 59.6827 41.1544 59.992C41.1544 60.3013 41.0957 60.5947 40.9784 60.872C40.861 61.1387 40.701 61.368 40.4984 61.56C40.3064 61.7413 40.077 61.8853 39.8104 61.992C39.5544 62.0987 39.277 62.152 38.9784 62.152C38.6904 62.152 38.4237 62.104 38.1784 62.008C37.9437 61.912 37.7357 61.784 37.5544 61.624C37.3197 61.432 37.1384 61.1973 37.0104 60.92C36.8824 60.632 36.8184 60.3227 36.8184 59.992C36.8184 59.6933 36.8664 59.4213 36.9624 59.176C37.0584 58.92 37.2024 58.696 37.3944 58.504C37.5757 58.2907 37.805 58.1307 38.0824 58.024C38.3597 57.9067 38.6584 57.848 38.9784 57.848ZM47.8099 63V62.04H46.7219V59.912C46.7219 59.5813 46.7912 59.2827 46.9299 59.016C47.0792 58.7387 47.2765 58.5093 47.5219 58.328C47.7139 58.1787 47.9379 58.0667 48.1939 57.992C48.4499 57.9067 48.7219 57.864 49.0099 57.864L49.0739 56.872C48.8712 56.872 48.6579 56.9093 48.4339 56.984C48.2205 57.0587 48.0019 57.1707 47.7779 57.32C47.5539 57.4587 47.3459 57.6347 47.1539 57.848C46.9619 58.0507 46.8019 58.2853 46.6739 58.552C46.6525 58.328 46.6419 58.2107 46.6419 58.2C46.6525 58.1787 46.6472 58.056 46.6259 57.832L46.5779 57H44.6099V57.96H45.7139V62.04H44.4819V63H47.8099ZM53.5286 63V62.04H52.4406V59.912C52.4406 59.6133 52.4993 59.3413 52.6166 59.096C52.7446 58.84 52.9153 58.6213 53.1286 58.44C53.3313 58.2587 53.566 58.12 53.8326 58.024C54.11 57.9173 54.4033 57.864 54.7126 57.864C55.1393 57.8853 55.454 58.0133 55.6566 58.248C55.87 58.472 55.9873 58.744 56.0086 59.064V62.04H54.7766V63H58.1046V62.04H57.0166V59.88C57.0166 59.592 57.0806 59.3253 57.2086 59.08C57.3366 58.8347 57.5073 58.6213 57.7206 58.44C57.9233 58.2587 58.158 58.12 58.4246 58.024C58.702 57.9173 58.99 57.864 59.2886 57.864C59.7046 57.8853 60.014 58.0133 60.2166 58.248C60.43 58.472 60.5473 58.744 60.5686 59.064V62.04H59.3526V63H62.6806V62.04H61.5766V58.664C61.5553 58.1307 61.3686 57.6987 61.0166 57.368C60.6646 57.0373 60.1846 56.872 59.5766 56.872C58.99 56.8827 58.4673 57.032 58.0086 57.32C57.5606 57.5973 57.2246 57.9813 57.0006 58.472C56.9366 57.992 56.7286 57.608 56.3766 57.32C56.0246 57.0213 55.566 56.872 55.0006 56.872C54.3926 56.8827 53.8593 57.0373 53.4006 57.336C52.9526 57.6347 52.6166 58.04 52.3926 58.552C52.3713 58.328 52.3553 58.1307 52.3446 57.96C52.334 57.7787 52.3233 57.576 52.3126 57.352L52.2966 57H50.3286V57.96H51.4326V62.04H50.2006V63H53.5286ZM69.2344 62.2C69.5224 61.9227 69.7464 61.5973 69.9064 61.224C70.077 60.84 70.1624 60.4293 70.1624 59.992C70.1624 59.5653 70.077 59.16 69.9064 58.776C69.7464 58.392 69.5277 58.056 69.2504 57.768C68.9517 57.4907 68.605 57.272 68.2104 57.112C67.8264 56.9413 67.4157 56.856 66.9784 56.856C66.5304 56.856 66.1144 56.9413 65.7304 57.112C65.3464 57.272 65.0104 57.4907 64.7224 57.768C64.4344 58.056 64.205 58.392 64.0344 58.776C63.8744 59.16 63.7944 59.5653 63.7944 59.992C63.7944 60.4293 63.8744 60.84 64.0344 61.224C64.205 61.5973 64.4344 61.9227 64.7224 62.2C65.0104 62.488 65.3464 62.7173 65.7304 62.888C66.1144 63.048 66.5304 63.128 66.9784 63.128C67.4157 63.128 67.8264 63.048 68.2104 62.888C68.605 62.7173 68.9464 62.488 69.2344 62.2ZM65.4424 61.512C65.2397 61.32 65.0797 61.096 64.9624 60.84C64.8557 60.584 64.8024 60.3013 64.8024 59.992C64.8024 59.704 64.8557 59.432 64.9624 59.176C65.0797 58.9093 65.2397 58.6747 65.4424 58.472C65.6344 58.28 65.8584 58.1307 66.1144 58.024C66.3704 57.9067 66.6477 57.848 66.9464 57.848C67.245 57.848 67.5224 57.9067 67.7784 58.024C68.045 58.1307 68.2797 58.28 68.4824 58.472C68.6744 58.6747 68.8237 58.9093 68.9304 59.176C69.0477 59.432 69.1064 59.7093 69.1064 60.008C69.1064 60.3067 69.0477 60.584 68.9304 60.84C68.8237 61.096 68.6744 61.32 68.4824 61.512C68.2797 61.7147 68.045 61.8747 67.7784 61.992C67.5224 62.0987 67.245 62.152 66.9464 62.152C66.6477 62.152 66.3704 62.0987 66.1144 61.992C65.8584 61.8747 65.6344 61.7147 65.4424 61.512ZM74.6068 63V62.04H73.5188V59.912C73.5188 59.6133 73.5774 59.3413 73.6948 59.096C73.8228 58.84 73.9934 58.6213 74.2068 58.44C74.4094 58.2587 74.6441 58.12 74.9108 58.024C75.1881 57.9173 75.4814 57.864 75.7908 57.864C76.2174 57.8853 76.5321 58.0133 76.7348 58.248C76.9481 58.472 77.0654 58.744 77.0868 59.064V62.04H75.8388V63H79.1667V62.04H78.0948V58.664C78.0734 58.1307 77.8868 57.6987 77.5348 57.368C77.1828 57.0373 76.6974 56.872 76.0788 56.872C75.5028 56.872 74.9748 57.0267 74.4948 57.336C74.0254 57.6347 73.6841 58.04 73.4708 58.552C73.4494 58.328 73.4334 58.1307 73.4228 57.96C73.4121 57.7787 73.4014 57.576 73.3908 57.352L73.3748 57H71.4068V57.96H72.5108V62.04H71.2788V63H74.6068ZM84.5344 67V66.04H83.6384C84.3104 64.6853 84.9824 63.3413 85.6544 62.008C86.3264 60.664 87.0037 59.3147 87.6864 57.96H88.9184V57H85.6704V57.96H86.6304C86.2784 58.6533 85.9264 59.3467 85.5744 60.04C85.2224 60.7333 84.913 61.416 84.6464 62.088C84.3584 61.3947 84.0384 60.7067 83.6864 60.024C83.3344 59.3413 82.9824 58.6533 82.6304 57.96H83.5584V57H80.2944V57.96H81.5904C82.017 58.8133 82.4384 59.6613 82.8544 60.504C83.2704 61.336 83.6917 62.1733 84.1184 63.016C83.8624 63.5173 83.6064 64.0187 83.3504 64.52C83.105 65.0213 82.8544 65.528 82.5984 66.04H81.2064V67H84.5344Z" fill="#E9D6A5"/>
<path d="M82.0594 37.5221C79.938 35.9097 77.5648 34.5675 75.0556 33.5406C77.0724 31.6905 78.8463 29.5957 80.2692 27.3846L81.2592 25.6324L79.3745 24.9265C76.8296 24.1369 74.1406 23.6874 71.4314 23.5806C72.6939 21.1522 73.6443 18.5772 74.2252 16.0127L74.5562 14.0276L72.5438 14.0088C69.8822 14.1373 67.2016 14.6346 64.6193 15.4608C64.9751 12.7471 64.9874 10.0022 64.6562 7.39376L64.2883 5.41518L62.3908 6.08584C59.9337 7.11684 57.5848 8.50099 55.4408 10.1605C54.847 7.48882 53.9198 4.90528 52.7165 2.5674L51.694 0.833984L50.1404 2.11316C48.184 3.92236 46.4502 6.0264 45.0031 8.31915C43.5314 6.01167 41.7765 3.90103 39.8461 2.11574L38.2924 0.836562L37.27 2.56998C36.0504 4.93917 35.1408 7.50932 34.5651 10.1587C32.3929 8.49379 30.022 7.11063 27.5973 6.09326L25.6999 5.42261L25.332 7.40118C24.9963 10.0446 25.0205 12.7709 25.3857 15.4574C22.7751 14.6358 20.0741 14.1469 17.4477 14.0202L15.4353 14.039L15.7663 16.0241C16.355 18.6229 17.3102 21.1764 18.5722 23.576C15.838 23.6969 13.1327 24.1613 10.6214 24.9405L8.73672 25.6464L9.72668 27.3986C11.1687 29.6393 12.9397 31.7122 14.9463 33.5354C12.4183 34.5841 10.035 35.9458 7.94164 37.5369L6.41211 38.8448L7.94164 40.1528C13.3144 44.2364 20.2978 46.595 27.0325 46.4557C33.5831 46.0332 40.0922 43.2159 45.0005 38.8448C39.958 42.6039 33.2693 45.0502 26.9597 44.7513C21.556 44.4954 16.0162 42.1962 11.687 38.845C13.4012 37.5193 15.2868 36.3778 17.2765 35.4597C19.7958 37.3467 22.5875 38.8549 25.5105 39.8508C31.8106 41.6943 38.8907 41.2731 44.998 38.8444C38.9738 40.6521 31.8519 40.6632 26.025 38.2243C23.8212 37.302 21.7292 35.9956 19.8279 34.4261C21.9002 33.7 24.049 33.2162 26.2066 33.0145C26.251 33.0507 26.2947 33.0879 26.3393 33.1237C31.6289 37.0108 38.4261 39.0365 44.9957 38.8431C39.3135 38.5158 33.2899 36.4983 28.7565 32.9425C31.354 33.0674 33.9595 33.5732 36.462 34.4064C39.0626 36.3235 41.9635 37.8381 44.9941 38.8411C42.8887 37.9346 40.8258 36.7504 38.9129 35.3409C41.0785 36.2742 43.1324 37.4531 44.9942 38.8402C44.9941 38.8405 44.9941 38.8408 44.9941 38.8411C44.9941 38.8409 44.9942 38.8406 44.9942 38.8403C44.9946 38.8405 44.9949 38.8407 44.9952 38.841C44.9954 38.8417 44.9956 38.8424 44.9957 38.8431C44.9956 38.8424 44.9955 38.8418 44.9954 38.8411C44.9957 38.8413 44.9959 38.8415 44.9961 38.8416C44.9967 38.8426 44.9974 38.8435 44.998 38.8444C44.9975 38.8436 44.9971 38.8428 44.9967 38.842C44.9979 38.843 44.9992 38.8439 45.0005 38.8448C44.9991 38.8435 44.9975 38.8423 44.9961 38.841C44.9958 38.8404 44.9954 38.8398 44.9951 38.8393C44.995 38.8386 44.9949 38.838 44.9948 38.8373C44.995 38.8367 44.9951 38.836 44.9952 38.8354C44.9955 38.8348 44.9959 38.8342 44.9962 38.8337C44.9967 38.8333 44.9972 38.8329 44.9977 38.8325C44.9984 38.8322 44.999 38.832 44.9996 38.8318C45.0003 38.8318 45.0009 38.8318 45.0016 38.8318C45.0022 38.8321 45.0028 38.8323 45.0034 38.8326C49.9154 43.2057 56.4308 46.0249 62.9863 46.441C69.643 46.7186 76.7735 44.1555 82.0594 40.1379L83.5889 38.83L82.0594 37.5221ZM76.3024 27.4364C75.1449 29.2684 73.7634 30.986 72.2078 32.5293C70.0944 31.8898 67.9189 31.4723 65.7425 31.3019C67.3177 29.7804 68.7268 28.0357 69.9394 26.1532C72.1152 26.3492 74.2681 26.7855 76.3024 27.4364ZM46.2879 37.7496C48.2907 35.9718 50.0717 33.9097 51.5576 31.6555C53.605 30.0259 55.8585 28.6692 58.2277 27.7172C56.8207 29.9042 55.0799 31.9077 53.1072 33.6584C50.6652 34.7254 48.3589 36.1068 46.2879 37.7496ZM51.0724 35.3136C49.1813 36.7225 47.1334 37.9117 45.0013 38.8305C45.0011 38.8304 45.0009 38.8303 45.0006 38.8301C45.0016 38.8294 45.0025 38.8286 45.0034 38.8279C46.8405 37.4588 48.8964 36.2651 51.0724 35.3136ZM45.4071 29.1209C45.928 26.5566 46.7822 24.0687 47.9852 21.8166C48.3131 24.3963 48.2675 27.05 47.8815 29.6592C46.6967 32.0462 45.818 34.587 45.2875 37.1766C45.679 34.5273 45.7177 31.8029 45.4071 29.1209ZM48.7058 29.846C50.0724 27.6144 51.726 25.5687 53.6266 23.8639C53.0525 26.4002 52.102 28.8783 50.8469 31.1981C48.9172 33.0359 47.2224 35.1229 45.8382 37.3749C47.1121 35.0193 48.0805 32.4724 48.7058 29.846ZM60.5783 27.0631C60.6142 27.0065 60.6484 26.9486 60.6839 26.8917C62.7458 26.3299 64.9232 26.0537 67.1193 26.0361C65.9986 27.9244 64.6636 29.6762 63.1403 31.2176C63.0831 31.2184 63.0257 31.218 62.9685 31.2192C60.5004 31.3783 58.0382 31.8778 55.6652 32.672C57.5416 31.0112 59.2066 29.1252 60.5783 27.0631ZM64.0971 18.3886C66.2088 17.8286 68.381 17.5022 70.5153 17.4181C70.0542 19.5355 69.3435 21.622 68.4095 23.6043C66.2048 23.7262 64.0177 24.0779 61.9143 24.6622C62.8742 22.6936 63.6015 20.5722 64.0971 18.3886ZM61.6507 9.98327C61.9417 12.1307 61.9874 14.3344 61.7877 16.5166C59.7577 17.3852 57.8228 18.4638 56.0461 19.7322C56.2748 17.5541 56.2327 15.3119 55.9516 13.0904C57.7443 11.8419 59.6739 10.7923 61.6507 9.98327ZM55.6118 22.4453C55.6262 22.3798 55.6385 22.3137 55.6524 22.2481C57.3978 21.0149 59.3494 20.0107 61.4071 19.243C60.9998 21.4008 60.3444 23.5035 59.4402 25.4729C59.3867 25.4933 59.3327 25.5125 59.2793 25.5332C57.0145 26.5269 54.8716 27.8384 52.9134 29.3963C54.1086 27.1939 55.0281 24.8521 55.6118 22.4453ZM53.9985 21.3402C53.9552 21.3777 53.9109 21.4142 53.8679 21.4519C52.0795 23.1603 50.5144 25.1256 49.2071 27.2593C49.577 24.7809 49.6401 22.2659 49.3654 19.8046C49.3565 19.7381 49.3455 19.6718 49.3361 19.6054C50.5545 17.8496 52.0449 16.2385 53.7159 14.8133C54.0712 16.9802 54.1745 19.1803 53.9985 21.3402ZM50.7778 6.02869C51.7857 7.94708 52.5825 10.0023 53.1412 12.1211C51.5307 13.6317 50.0814 15.3069 48.8456 17.1066C48.3155 14.9816 47.509 12.889 46.4851 10.8976C47.7428 9.1113 49.197 7.46503 50.7778 6.02869ZM47.4714 19.318C47.4435 19.3679 47.4145 19.4174 47.3869 19.4675C46.2907 21.6846 45.4922 24.0667 44.9935 26.5188C44.4934 24.0634 43.6925 21.6785 42.5926 19.4595C42.5615 19.4001 42.5285 19.3415 42.4969 19.2823C43.0413 17.2158 43.8908 15.192 44.9736 13.2813C46.0486 15.196 46.8981 17.2281 47.4714 19.318ZM44.994 38.8372C44.9938 38.8368 44.9935 38.8364 44.9933 38.836C44.9935 38.8359 44.9937 38.8357 44.9939 38.8356C44.994 38.836 44.9941 38.8363 44.9942 38.8367C44.9941 38.8369 44.994 38.837 44.994 38.8372ZM44.9942 38.837C44.9943 38.8373 44.9944 38.8375 44.9945 38.8378C44.9944 38.8379 44.9944 38.8379 44.9944 38.838C44.9943 38.8377 44.9942 38.8375 44.994 38.8373C44.9941 38.8372 44.9942 38.8371 44.9942 38.837ZM44.9933 38.836C44.9928 38.8349 44.9921 38.8339 44.9916 38.8328C43.9623 36.7859 43.1437 34.5539 42.5846 32.2459C43.6437 34.3528 44.4593 36.5762 44.9939 38.8355C44.9937 38.8357 44.9935 38.8358 44.9933 38.836ZM44.1527 37.3806C42.7497 35.0996 41.0282 32.9876 39.0663 31.1328C37.8171 28.8336 36.8722 26.3787 36.3461 23.8802C38.2556 25.6456 39.9263 27.7078 41.3079 29.9546C41.9346 32.5447 42.8945 35.0559 44.1527 37.3806ZM42.0593 29.5679C41.6718 26.98 41.6235 24.35 41.9837 21.8222C43.1742 24.1342 44.0389 26.6435 44.5687 29.2273C44.2717 31.8756 44.3149 34.5636 44.7021 37.1784C44.1639 34.5551 43.2685 31.9817 42.0593 29.5679ZM39.2082 6.03134C40.8114 7.48931 42.263 9.1481 43.5127 10.9481C42.516 12.9183 41.7271 14.9882 41.1813 17.102C39.9564 15.2865 38.4829 13.5959 36.8396 12.0748C37.4104 9.96611 38.2139 7.92174 39.2082 6.03134ZM36.2345 14.8317C37.8995 16.2633 39.3929 17.8823 40.6464 19.65C40.6372 19.7065 40.6269 19.7629 40.6181 19.8195C40.3463 22.2778 40.4106 24.7893 40.7807 27.2641C39.471 25.1278 37.9026 23.1606 36.1101 21.4517C36.0606 21.4065 36.0096 21.3627 35.9596 21.318C35.7644 19.1898 35.8705 16.9976 36.2345 14.8317ZM34.3779 22.4653C34.9632 24.8683 35.8827 27.2063 37.0768 29.4053C35.1155 27.8458 32.9689 26.5337 30.7 25.5409C30.6381 25.5154 30.5751 25.4917 30.5128 25.4667C29.6015 23.5336 28.9515 21.4373 28.5527 19.2776C30.607 20.0534 32.564 21.064 34.3465 22.2964C34.3572 22.3526 34.3667 22.4091 34.3779 22.4653ZM28.3371 9.99089C30.3424 10.8126 32.2737 11.8749 34.0637 13.1388C33.801 15.3312 33.7676 17.5461 33.9777 19.7191C32.2057 18.432 30.2428 17.3473 28.1784 16.48C27.9936 14.3032 28.0494 12.1073 28.3371 9.99089ZM25.9339 18.4293C26.4368 20.5793 27.1629 22.672 28.1036 24.6421C25.9982 24.0386 23.7828 23.6907 21.5463 23.5818C20.628 21.5995 19.9294 19.517 19.476 17.4297C21.6413 17.5161 23.8195 17.8537 25.9339 18.4293ZM17.743 32.5237C16.2022 30.975 14.8334 29.257 13.6934 27.4507C15.7577 26.7912 17.92 26.3635 20.1037 26.1812C21.3116 28.0295 22.7098 29.7477 24.2675 31.2772C22.0828 31.4303 19.8819 31.8611 17.743 32.5237ZM27.0148 31.2338C26.9478 31.231 26.8806 31.2303 26.8135 31.2281C25.296 29.7233 23.9682 27.9758 22.8548 26.0827C25.0505 26.1091 27.2351 26.3894 29.3316 26.9378C29.3609 26.987 29.3893 27.0368 29.4189 27.0858C30.7908 29.1437 32.4545 31.0262 34.3287 32.6842C31.9523 31.8896 29.4864 31.3907 27.0148 31.2338ZM36.7891 33.6271C34.8287 31.8938 33.1013 29.9101 31.7523 27.7422C34.1505 28.748 36.4258 30.1145 38.4925 31.7533C39.9672 33.9728 41.7281 36.0041 43.7055 37.7583C41.607 36.0948 39.2669 34.699 36.7891 33.6271ZM40.4759 33.4697C42.1917 35.0874 43.7185 36.8977 44.9936 38.8379C44.9935 38.8381 44.9934 38.8383 44.9933 38.8385C44.9924 38.8377 44.9914 38.837 44.9905 38.8361C43.3232 37.2648 41.7907 35.4473 40.4759 33.4697ZM44.9942 38.8394C44.994 38.8391 44.9936 38.8388 44.9933 38.8385C44.9934 38.8384 44.9935 38.8382 44.9936 38.838C44.9939 38.8383 44.9941 38.8386 44.9943 38.8389C44.9943 38.8391 44.9943 38.8392 44.9942 38.8394ZM44.995 38.8399C44.995 38.8399 44.995 38.84 44.995 38.84C44.9948 38.8399 44.9946 38.8397 44.9944 38.8395C44.9944 38.8394 44.9945 38.8393 44.9945 38.8392C44.9946 38.8394 44.9948 38.8396 44.995 38.8399ZM44.9945 38.8351C44.9946 38.835 44.9947 38.8349 44.9947 38.8349C44.9947 38.8352 44.9947 38.8354 44.9947 38.8357C44.9946 38.8358 44.9946 38.8358 44.9946 38.8359C44.9946 38.8356 44.9945 38.8353 44.9945 38.8351ZM44.9948 38.8346C44.9947 38.8347 44.9946 38.8348 44.9945 38.8349C44.9944 38.8345 44.9943 38.8341 44.9942 38.8337C44.9945 38.8336 44.9947 38.8335 44.9949 38.8334C44.9949 38.8338 44.9948 38.8342 44.9948 38.8346ZM44.9949 38.8333C44.9947 38.8334 44.9945 38.8336 44.9942 38.8337C44.9941 38.8324 44.9939 38.8312 44.9937 38.83C44.7265 36.5545 44.7208 34.1772 44.9847 31.8172C45.2593 34.1592 45.2653 36.5274 44.9949 38.8333ZM44.9956 38.8338C44.9956 38.8339 44.9955 38.8339 44.9955 38.8339C44.9955 38.8337 44.9956 38.8334 44.9956 38.8332C44.9957 38.8331 44.9959 38.8331 44.996 38.8331C44.9958 38.8333 44.9957 38.8336 44.9956 38.8338ZM44.9961 38.8328C44.9959 38.8329 44.9958 38.8329 44.9957 38.833C44.9957 38.8326 44.9958 38.8322 44.9959 38.8317C44.9962 38.8318 44.9964 38.8317 44.9966 38.8318C44.9964 38.8321 44.9962 38.8325 44.9961 38.8328ZM44.9959 38.8317C44.9962 38.8306 44.9964 38.8294 44.9966 38.8282C45.5238 36.5986 46.3315 34.3626 47.3867 32.2351C46.8437 34.5299 46.0394 36.7573 44.9967 38.8317C44.9964 38.8317 44.9962 38.8317 44.9959 38.8317ZM44.9971 38.8324C44.9971 38.8324 44.997 38.8324 44.997 38.8324C44.9971 38.8322 44.9972 38.832 44.9974 38.8318C44.9975 38.8318 44.9976 38.8318 44.9977 38.8318C44.9975 38.832 44.9973 38.8322 44.9971 38.8324ZM44.9979 38.8316C44.9978 38.8316 44.9976 38.8316 44.9975 38.8316C44.9977 38.8312 44.9979 38.8309 44.9982 38.8305C44.9984 38.8306 44.9986 38.8307 44.9988 38.8308C44.9985 38.831 44.9982 38.8313 44.9979 38.8316ZM44.9982 38.8305C44.9988 38.8295 44.9994 38.8285 45 38.8274C46.258 36.9126 47.7817 35.0877 49.501 33.4494C48.2058 35.4201 46.6882 37.2381 44.9989 38.8307C44.9986 38.8306 44.9984 38.8306 44.9982 38.8305ZM44.9991 38.8315C44.999 38.8315 44.9989 38.8315 44.9989 38.8315C44.9991 38.8314 44.9993 38.8312 44.9995 38.831C44.9996 38.8311 44.9997 38.8311 44.9999 38.8312C44.9996 38.8313 44.9993 38.8314 44.9991 38.8315ZM44.9996 38.8309C45 38.8307 45.0003 38.8304 45.0006 38.8301C45.0008 38.8303 45.001 38.8304 45.0012 38.8306C45.0008 38.8307 45.0004 38.8309 45.0001 38.8311C44.9999 38.831 44.9998 38.831 44.9996 38.8309ZM45.0011 38.8314C45.0011 38.8314 45.0011 38.8313 45.001 38.8313C45.0013 38.8312 45.0015 38.8312 45.0018 38.8311C45.0018 38.8312 45.0019 38.8312 45.002 38.8313C45.0017 38.8313 45.0014 38.8314 45.0011 38.8314ZM45.0019 38.831C48.0652 37.8162 50.9966 36.279 53.6185 34.3313C56.0998 33.5002 58.6814 32.9961 61.2333 32.9118C56.6253 36.4152 50.772 38.4976 45.0023 38.8313C45.0021 38.8312 45.0021 38.8311 45.0019 38.831ZM45.0032 38.832C45.0031 38.8319 45.0031 38.8319 45.0031 38.8319C51.5758 39.0237 58.3776 36.9954 63.6659 33.1011C63.719 33.0602 63.771 33.0175 63.8237 32.9761C65.9534 33.1534 68.094 33.6386 70.1637 34.3732C68.0168 36.1311 65.623 37.568 63.0826 38.5598C57.3585 40.5395 50.8084 40.5728 45.0032 38.832ZM62.0871 44.761C56.0309 44.6635 49.8644 42.4545 45.0046 38.833C51.1154 41.2613 58.2008 41.6817 64.5022 39.831C67.4267 38.9026 70.2389 37.3726 72.7736 35.4478C74.7512 36.3761 76.625 37.5224 78.314 38.8298C73.7077 42.3922 67.8648 44.6271 62.0871 44.761Z" fill="#C69C54"/>
</svg>
