<svg width="38" height="38" viewBox="0 0 38 38" fill="none" xmlns="http://www.w3.org/2000/svg">
<path d="M23.3697 0.097084C20.6011 0.612972 17.7637 2.26381 15.9581 4.41334C14.376 6.32212 13.2583 9.07352 13.0519 11.653L12.9316 12.9599L11.6246 13.0802C6.29382 13.5789 2.11514 16.8634 0.447102 21.9019C0.0687849 23.0369 0.0171962 23.5355 0 25.4615C0 27.7314 0.120374 28.4365 0.808223 30.1905C2.2699 33.9393 5.36522 36.6219 9.52671 37.7912C9.95662 37.8944 11.2635 37.9976 12.4501 37.9976C14.2213 38.0148 14.8231 37.946 15.8893 37.6193C20.8762 36.0716 24.2983 31.9273 24.8485 26.7512C24.9517 25.857 25.0377 25.1176 25.0549 25.0832C25.0893 25.066 25.8287 24.98 26.7229 24.8769C31.899 24.3266 36.0433 20.9045 37.591 15.9176C37.9177 14.8514 37.9865 14.2496 37.9693 12.4784C37.9693 9.58941 37.505 7.97296 35.9917 5.59988C34.3409 3.00325 31.727 1.14605 28.5285 0.269047C27.5827 0.0111046 24.4186 -0.0920715 23.3697 0.097084ZM22.9742 8.47165C23.3869 8.83277 23.3697 9.46903 22.9398 9.89894C22.4927 10.346 22.1487 10.3288 21.65 9.81296C21.1514 9.33146 21.117 9.09071 21.4953 8.55763C21.8048 8.11053 22.5271 8.05894 22.9742 8.47165ZM29.5087 8.47165C29.9214 8.83277 29.9042 9.46903 29.4743 9.89894C29.0272 10.346 28.6833 10.3288 28.1846 9.81296C27.6687 9.31426 27.6515 8.97034 28.0986 8.52324C28.5113 8.11053 29.0788 8.07614 29.5087 8.47165ZM22.1659 14.0776C22.8882 15.5909 23.9028 16.2615 25.4676 16.2615C26.7917 16.2615 27.6515 15.8832 28.4254 14.9374C28.7349 14.5763 29.0616 13.9916 29.1648 13.6305C29.354 12.9943 29.3712 12.9943 30.2654 12.9943C30.764 12.9943 31.2112 13.063 31.2627 13.149C31.4519 13.4414 30.7812 15.2126 30.1794 16.0208C29.4571 16.9838 28.1674 17.8952 27.1528 18.1703C26.0695 18.4627 24.0059 18.2907 23.0086 17.8092C21.4609 17.0526 19.8444 14.8858 19.8444 13.5445V12.9943H20.7558L21.65 13.0115L22.1659 14.0776ZM13.1551 15.2642C13.3099 15.3845 13.5162 15.8316 13.6366 16.2615C14.1181 17.9296 15.1843 19.6836 16.7147 21.2656L17.4714 22.0739L15.7345 23.226L14.0149 24.3954L14.2729 24.8597C14.4276 25.1004 14.6856 25.4959 14.8575 25.7023L15.1499 26.0978L17.2306 24.7049L19.3286 23.312L20.1368 23.7075C20.6011 23.9483 21.3577 24.2578 21.8392 24.4126C22.9054 24.7565 22.957 24.894 22.7506 26.6825C22.4583 29.3135 21.65 30.9815 19.7757 32.8559C18.1592 34.4551 16.9383 35.1602 14.8575 35.7105C10.5585 36.811 5.81232 34.8507 3.47364 30.9643C2.61383 29.5542 1.96037 27.2327 1.96037 25.6335C1.96037 22.9681 2.99214 20.423 4.86653 18.4455C6.70653 16.5023 8.52933 15.5737 11.1088 15.247C12.708 15.0406 12.88 15.0406 13.1551 15.2642Z" fill="#C69C54"/>
<path d="M6.43141 22.4865C6.15627 22.8821 5.91553 23.2948 5.91553 23.3979C5.91553 23.5011 6.74095 24.1374 7.77272 24.8252L9.61272 26.0634L9.99103 25.5991C10.4381 25.0488 10.8165 24.3609 10.7133 24.2921C10.6789 24.2578 9.81907 23.6731 8.80449 23.0024L6.9645 21.7815L6.43141 22.4865Z" fill="#C69C54"/>
<path d="M8.15112 30.5344V31.5662L12.4158 31.5318L16.6633 31.4802L16.7148 30.4828L16.7664 29.5026H12.4502H8.15112V30.5344Z" fill="#C69C54"/>
</svg>
