<svg width="38" height="38" viewBox="0 0 38 38" fill="none" xmlns="http://www.w3.org/2000/svg">
<path d="M28.27 0.077446C27.5787 2.55318 26.8875 3.90358 25.7461 4.98069C25.095 5.59962 23.4472 6.60439 20.6579 8.10751C16.0682 10.5752 13.8738 11.9417 12.1054 13.4207C10.2164 15.0042 9.62965 16.2099 7.07353 23.822C5.69902 27.9134 4.99166 29.7943 4.35665 31.0563C3.68145 32.4067 3.5448 32.5434 1.65585 33.6687L0 34.6574L0.225067 35.0432C0.683239 35.8711 0.490324 35.8872 2.20244 34.8664L3.70557 33.9661L4.36469 34.0626C5.77136 34.2715 6.02858 34.3278 6.02858 34.4323C6.02858 34.4886 5.79547 35.1959 5.5061 35.9997C5.21673 36.8035 4.98363 37.5029 4.98363 37.5591C4.98363 37.6476 6.08485 38.0575 6.14915 37.9932C6.17326 37.9771 6.49479 37.101 6.87258 36.048C7.25037 34.995 7.6362 34.0063 7.72462 33.8536C8.23906 33.0176 10.2968 31.635 14.8142 29.0709C18.8574 26.78 19.5326 26.3862 20.5775 25.727C23.3507 23.9667 24.1465 23.1548 25.2798 20.8881C26.1881 19.0795 27.5064 15.4222 28.897 10.8807C29.3793 9.31323 30.2554 7.11883 30.6413 6.52401C30.8422 6.22659 31.22 5.70412 31.4853 5.37456C32.072 4.65113 33.9047 2.85059 34.9899 1.92621C35.4641 1.52431 35.7455 1.22689 35.7133 1.17063C35.6811 1.11436 35.5204 0.881256 35.3435 0.648151C35.0703 0.286438 35.006 0.246246 34.8934 0.32663C33.6716 1.25905 31.6782 3.17212 30.5528 4.50644L29.8857 5.29417H28.6076C27.9083 5.29417 27.3296 5.2781 27.3296 5.27006C27.3296 5.25399 27.5305 4.9405 27.7717 4.57878C28.5192 3.46149 29.3391 1.51627 29.4677 0.567772L29.5159 0.173904L29.1703 0.125675C28.9774 0.101562 28.696 0.0533333 28.5594 0.0211792C28.3665 -0.0190086 28.2861 -0.0029335 28.27 0.077446ZM26.2926 8.51746C26.4213 8.79075 26.5177 9.05601 26.4936 9.11228C26.4775 9.16854 25.939 9.48203 25.2959 9.81963C22.9568 11.0495 20.6901 12.4401 19.613 13.3082C18.7851 13.9834 17.1694 15.6312 16.446 16.5314C16.1164 16.9494 15.827 17.287 15.8029 17.2951C15.7306 17.3192 14.7982 16.6761 14.7901 16.5958C14.7901 16.4511 15.9154 15.1007 16.872 14.112C18.4475 12.4883 19.4603 11.6925 21.5421 10.4386C22.7639 9.69906 25.8184 8.02713 25.939 8.02713C25.9952 8.02713 26.156 8.24416 26.2926 8.51746ZM25.6255 10.4868C25.9229 10.5591 26.1881 10.6476 26.2283 10.6717C26.2605 10.7038 26.156 11.1459 25.9952 11.6523C25.1593 14.2969 23.8008 17.0218 22.2173 19.2162C21.1161 20.7515 18.4073 23.4924 16.1164 25.4055C15.2081 26.1611 13.8014 27.2382 13.721 27.2382C13.6648 27.2382 13.0217 26.354 13.0217 26.2736C13.0217 26.2415 13.6085 25.7431 14.3319 25.1724C15.7386 24.039 16.1807 23.6612 17.6115 22.3189C18.6966 21.3141 20.5374 19.3367 21.1483 18.5169C22.5469 16.6761 24.0661 13.5815 24.8056 11.0977C24.9262 10.6958 25.0387 10.3582 25.0548 10.3582C25.0709 10.3582 25.3281 10.4144 25.6255 10.4868ZM21.7833 13.7744L22.2254 14.2165L21.2608 15.181L20.2962 16.1456L19.838 15.6874L19.3718 15.2212L20.3123 14.2808C20.8348 13.7583 21.2769 13.3323 21.301 13.3323C21.3251 13.3323 21.5421 13.5332 21.7833 13.7744ZM13.3834 17.0298C13.7612 17.4076 13.7773 17.4478 13.6648 17.6166C12.8449 18.9188 12.4028 19.8753 11.7999 21.6598C11.5668 22.3671 11.3659 22.9539 11.3498 22.978C11.3177 23.0262 10.2647 22.7449 10.1843 22.6645C10.0878 22.5681 10.8997 20.1727 11.4061 19.0393C11.9848 17.7532 12.6841 16.6279 12.8931 16.6279C12.9494 16.6279 13.1664 16.8128 13.3834 17.0298ZM16.3334 19.6261L16.7916 20.0441L15.6743 21.29C15.0634 21.9732 14.5168 22.544 14.4686 22.56C14.4123 22.5841 14.1792 22.4073 13.9461 22.1742L13.5201 21.7482L14.6535 20.4782C15.2804 19.7708 15.811 19.2001 15.8351 19.2081C15.8592 19.2081 16.0842 19.393 16.3334 19.6261ZM9.97529 24.7705C10.2164 24.875 10.4737 24.9795 10.546 25.0116C10.6666 25.0518 10.6023 25.2448 10.0798 26.4424C9.75022 27.2061 9.48496 27.8571 9.48496 27.8973C9.48496 27.9375 9.70199 27.8571 9.96725 27.7205L10.4495 27.4793L10.7309 28.0501C10.8916 28.3635 11.0122 28.6288 10.9961 28.6449C10.9801 28.6609 10.345 28.9825 9.57338 29.3603C8.60881 29.8425 8.12652 30.0435 8.00595 30.0033C7.78089 29.939 7.47544 29.5934 7.47544 29.4005C7.47544 29.1995 9.4287 24.5856 9.51712 24.5856C9.53319 24.5856 9.74218 24.674 9.97529 24.7705Z" fill="#C69C54"/>
<path d="M31.5093 15.0605V15.7437H33.2937H35.0862L32.1282 18.7017C30.5045 20.3254 29.1782 21.6919 29.1782 21.7321C29.1782 21.7803 29.3711 22.0054 29.6042 22.2385L30.0222 22.6565L32.9963 19.6824C34.6361 18.0426 35.9945 16.7083 36.0187 16.7083C36.0428 16.7083 36.0588 17.5041 36.0508 18.4767L36.0347 20.2451H36.7099H37.3771V17.5443V14.8435L37.144 14.6103L36.9109 14.3772H34.2101H31.5093V15.0605Z" fill="#C69C54"/>
<path d="M18.9459 31.9083C17.3222 33.5401 15.9718 34.8744 15.9557 34.8744C15.9316 34.8744 15.9155 34.0786 15.9155 33.106V31.3376H15.2724H14.6294V34.0384V36.7392L14.8625 36.9723L15.1036 37.2054L17.7803 37.1894L20.457 37.1653V36.5222V35.8792L18.6645 35.839L16.872 35.7988L19.3719 33.315C20.7464 31.9485 22.0968 30.5981 22.3621 30.3168L22.8604 29.8023L22.4264 29.3683C22.1852 29.1271 21.9682 28.9262 21.9441 28.9342C21.92 28.9342 20.5776 30.2686 18.9459 31.9083Z" fill="#C69C54"/>
</svg>
