<svg width="38" height="28" viewBox="0 0 38 28" fill="none" xmlns="http://www.w3.org/2000/svg">
<g clip-path="url(#clip0_265_324)">
<path d="M31.9115 0.2374C30.7041 0.562672 29.9373 1.49331 29.858 2.74018C29.7963 3.67082 29.9902 4.20391 30.6424 4.89059L31.1624 5.43271L30.5895 8.82999C30.2722 10.6913 29.9813 12.2725 29.9461 12.3357C29.858 12.4983 26.2885 13.7362 24.6845 14.1608C23.9617 14.3506 22.9923 14.5584 22.5516 14.6216L21.7319 14.7391V18.1093C21.7319 20.865 21.7055 21.5427 21.5997 21.8047C21.3353 22.4643 20.4187 22.5185 20.0486 21.8951C19.8899 21.624 19.8811 21.362 19.8811 14.965V8.32402L20.1896 8.17042C20.6831 7.92646 21.1855 7.40241 21.4323 6.86029C22.0404 5.54114 21.494 3.91478 20.1896 3.20099C19.8987 3.03835 19.6872 3.00221 18.9998 3.00221C18.0479 3.00221 17.6689 3.14677 17.096 3.74311C16.3469 4.50207 16.0913 5.83027 16.5055 6.76994C16.7523 7.32109 17.3164 7.94453 17.7659 8.15235L18.1184 8.31498V11.6581V14.9921L16.7788 14.9288C14.1171 14.8114 12.4249 14.5403 10.4948 13.9259C9.24324 13.5374 8.99646 13.4742 9.05816 13.5826C9.0846 13.6278 9.13748 15.0553 9.17273 16.7449L9.23442 19.835L8.97002 20.1332C8.74968 20.3862 8.64392 20.4404 8.33545 20.4404C8.03579 20.4404 7.92122 20.3862 7.72732 20.1603C7.42766 19.8169 7.48936 20.4133 6.96055 12.5887L6.54631 6.44467L6.75784 6.30914C8.30901 5.27008 8.61748 3.33652 7.44529 2.00832C6.8636 1.35778 6.29954 1.10479 5.427 1.11383C4.66023 1.11383 4.06973 1.37585 3.54092 1.92701C3.0033 2.4872 2.82703 2.98414 2.82703 3.86057C2.82703 4.51111 2.86228 4.70085 3.06499 5.08937C3.33821 5.62245 3.98159 6.24589 4.42227 6.39046C4.58972 6.44467 4.72192 6.49888 4.72192 6.50792C4.74836 6.59827 5.14497 12.4893 5.12734 12.5074C5.11853 12.5164 4.63379 12.4712 4.06091 12.3989C3.47922 12.3267 2.34229 12.2453 1.53145 12.2092L0.0507812 12.146V20.0157V27.8945H18.9998H37.9487V19.564V11.2424L36.4769 11.2966C35.2342 11.3508 33.824 11.4864 33.7535 11.5677C33.7447 11.5767 33.4715 13.1489 33.1454 15.0644C32.8193 16.9799 32.4932 18.6875 32.4139 18.8592C32.0701 19.5911 30.942 19.4375 30.7922 18.6333C30.7657 18.5339 31.1183 16.3383 31.559 13.7542C32.0084 11.1701 32.502 8.29691 32.6606 7.37531L32.9427 5.70377L33.3745 5.55017C34.062 5.29718 34.5203 4.88156 34.864 4.18584C35.1284 3.64372 35.1637 3.49012 35.1637 2.91186C35.1549 2.38781 35.1108 2.15289 34.9169 1.75533C34.6437 1.18611 34.1325 0.66206 33.5861 0.418106C33.1542 0.21933 32.3081 0.128975 31.9115 0.2374Z" fill="#C69C54"/>
</g>
<defs>
<clipPath id="clip0_265_324">
<rect width="38" height="28" fill="white"/>
</clipPath>
</defs>
</svg>
