<svg width="38" height="37" viewBox="0 0 38 37" fill="none" xmlns="http://www.w3.org/2000/svg">
<path d="M21.8712 2.04688C19.7423 4.41016 18.2579 7.71094 18.0822 10.4258C17.8478 13.6094 19.2345 17.1055 21.9884 20.4062C22.4181 20.9336 22.9259 21.3438 23.1212 21.3438C23.8634 21.3438 26.0314 18.5312 27.1251 16.168C28.9611 12.2227 28.6681 8.35547 26.2462 4.42969C25.172 2.69141 23.59 0.835938 23.1993 0.835938C23.0626 0.835938 22.4572 1.38281 21.8712 2.04688ZM23.0822 6.28516C23.3751 6.48047 23.3751 6.51953 22.6134 8.64844C21.9298 10.543 21.9884 12.418 22.8087 14.2539C23.3556 15.5039 23.3556 16.0703 22.8087 16.0703C22.3986 16.0703 21.7931 15.0352 21.3048 13.4531C20.6603 11.3242 21.0509 8.39453 22.2423 6.53906C22.5548 6.07031 22.672 6.03125 23.0822 6.28516Z" fill="#C69C54" fill-opacity="0.5"/>
<path d="M12.9844 2.43783C12.8672 2.57455 12.75 3.33627 12.7109 4.13705L12.6523 5.58236L14.2539 6.01205C15.1328 6.24642 16.207 6.59798 16.6563 6.7933C17.0859 6.98861 17.4766 7.1058 17.4961 7.06673C17.5352 7.02767 17.8867 6.30502 18.2773 5.4847L18.9805 3.96127L18.0625 3.55111C17.2813 3.19955 13.7852 2.20345 13.3359 2.20345C13.2578 2.20345 13.1016 2.32064 12.9844 2.43783Z" fill="#C69C54" fill-opacity="0.5"/>
<path d="M31.0117 2.69185C30.0547 2.92622 28.8437 3.31685 28.3359 3.55122L27.418 3.94185L28.1211 5.46528C28.5117 6.30513 28.8633 7.02778 28.8828 7.04732C28.9023 7.08638 29.4883 6.9106 30.1719 6.63716C30.8555 6.36372 31.9102 6.03169 32.5352 5.89497L33.6484 5.6606V4.15669C33.6484 2.73091 33.4531 2.18404 32.9844 2.20357C32.8672 2.2231 31.9883 2.43794 31.0117 2.69185Z" fill="#C69C54" fill-opacity="0.5"/>
<path d="M9.05737 6.7741C8.43237 7.51628 9.33081 12.0475 10.5808 14.6061C11.948 17.36 13.8425 19.0788 16.8308 20.2311C18.0222 20.6999 20.9519 21.4225 21.0886 21.2858C21.1081 21.2663 20.7175 20.7194 20.2488 20.0749C19.0183 18.4343 18.1394 16.7936 17.5144 14.9772C17.0652 13.7077 16.9675 13.0827 16.9675 11.3835C16.948 10.2507 17.0066 9.09831 17.0847 8.82488C17.2214 8.3366 17.1628 8.278 16.2449 7.88738C14.8191 7.26238 12.6511 6.75456 10.8738 6.59831C9.56518 6.48113 9.27221 6.50066 9.05737 6.7741ZM13.5496 11.2272C13.8035 12.0085 14.3894 13.2194 14.8581 13.903C15.7175 15.153 15.7956 15.6803 15.1121 15.6803C14.4089 15.6803 13.1199 13.6882 12.4558 11.5593C12.0652 10.3288 12.1433 9.82097 12.7292 9.82097C13.0417 9.82097 13.198 10.1139 13.5496 11.2272Z" fill="#C69C54" fill-opacity="0.5"/>
<path d="M34.3308 6.71541C31.8699 7.06697 29.0574 8.12166 29.2527 8.60994C29.5652 9.44978 29.5848 11.7935 29.2723 13.356C28.7644 15.7779 27.7293 17.9068 25.5223 20.8951C25.2098 21.3443 25.2098 21.3443 25.8543 21.2271C32.9637 19.9381 36.4988 16.2076 37.3777 9.07869C37.573 7.47712 37.573 7.04744 37.3582 6.79353C37.0848 6.4615 36.2058 6.44197 34.3308 6.71541ZM34.1746 10.1334C34.3699 10.6607 33.491 13.0435 32.6121 14.3521C31.9676 15.3092 31.6941 15.5826 31.3035 15.5826C30.5809 15.5826 30.6199 15.1138 31.4793 13.981C32.1238 13.1217 32.4558 12.3404 33.159 10.0553C33.2762 9.70369 34.0379 9.76228 34.1746 10.1334Z" fill="#C69C54" fill-opacity="0.5"/>
<path d="M1.49942 19.6641C0.464269 20.1328 0.425206 20.4062 0.4838 28.1602L0.542394 35.25L1.08927 35.7188C1.61661 36.168 1.77286 36.1875 4.21427 36.1875C7.0463 36.1875 7.43692 36.0703 7.84708 35.0547C8.00333 34.6641 8.06192 32.5547 8.02286 27.5352L7.96427 20.5625L7.41739 20.0352C6.89005 19.5078 6.81192 19.4883 4.48771 19.4297C2.76896 19.3906 1.92911 19.4688 1.49942 19.6641Z" fill="#C69C54" fill-opacity="0.5"/>
<path d="M9.23438 27.9062V33.375L9.74219 33.414C10.0156 33.4336 12.6133 34.2929 15.5234 35.3281C19.6836 36.8125 20.9531 37.1836 21.5195 37.1054C21.9687 37.0468 24.8984 35.4843 29.5469 32.8476C36.2852 29 36.9102 28.6094 37.2422 27.9258C37.5547 27.2812 37.5742 27.0469 37.3789 26.4219C37.0859 25.4648 36.3437 24.8594 35.4453 24.8594C35.0547 24.8594 32.9258 25.4258 30.6992 26.1289C28.4531 26.832 26.5977 27.3984 26.5391 27.3984C26.4805 27.3984 26.4219 27.125 26.4219 26.7929C26.4219 26.3633 26.2266 25.9922 25.7578 25.5234L25.0937 24.8594H22.0859H19.0977L16.0703 23.7656C13.375 22.789 12.8281 22.6523 11.1484 22.5547L9.23438 22.457V27.9062Z" fill="#C69C54" fill-opacity="0.5"/>
</svg>
