<svg width="47" height="46" viewBox="0 0 47 46" fill="none" xmlns="http://www.w3.org/2000/svg">
<path d="M15.0833 0.334038C14.7197 0.387672 13.8334 0.629036 13.1517 0.843578C9.40211 2.0772 5.99342 6.04624 4.90264 10.4712L4.56177 11.8389L7.22055 11.8121C9.74297 11.8121 9.92477 11.8389 11.4928 12.7239C12.379 13.2066 13.3562 13.9039 13.6289 14.2525C14.2879 15.0839 14.3788 15.057 15.4241 14.0916C15.9013 13.6357 16.9012 12.9384 17.6284 12.5362C18.8101 11.8925 19.1964 11.8121 21.4461 11.8121C23.7868 11.8121 24.0367 11.8657 25.4911 12.6702C27.5363 13.8234 29.3088 15.942 30.2406 18.302C31.6949 22.0029 31.2859 26.9105 29.3088 29.8605C28.8316 30.5577 26.7864 33.0786 24.7639 35.4386C22.7642 37.8254 21.1053 39.8635 21.1053 39.9976C21.1053 40.1317 22.0597 41.3653 23.2414 42.7599C24.8776 44.6639 25.4684 45.2271 25.8093 45.093C26.0365 45.0126 30.3769 40.0244 35.4445 33.9904C45.2842 22.3247 45.6478 21.7883 46.4432 18.2484C47.2158 14.7084 46.6477 10.0421 45.1024 7.14577C43.489 4.16899 40.8075 1.75538 38.0351 0.816761C34.1719 -0.524132 29.3997 0.870396 26.5137 4.11535L25.6729 5.05398L24.4685 3.84718C22.9005 2.29174 21.9006 1.6213 20.1508 1.00449C18.6283 0.441311 16.2195 0.119495 15.0833 0.334038Z" fill="#C69C54"/>
<path d="M4.9481 14.7084C3.5619 15.3252 2.47112 16.237 1.56214 17.6047C0.357735 19.4015 -0.0967571 21.1715 0.0168659 23.5583C0.175938 26.9641 0.425909 27.3664 7.78868 36.0822C11.4246 40.3731 14.4243 43.8594 14.5152 43.8594C14.5833 43.8594 17.583 40.3999 21.1507 36.1358C26.741 29.5386 27.7636 28.1978 28.2863 26.83C29.5816 23.5315 28.9225 19.3479 26.7183 16.827C25.0594 14.9497 24.0595 14.4938 21.4462 14.4938C18.7192 14.4938 17.8329 14.9229 15.8332 17.2293L14.5379 18.7311L13.129 17.2293C11.1065 15.057 10.0611 14.5207 7.69778 14.4402C6.49337 14.3866 5.44804 14.4938 4.9481 14.7084Z" fill="#C69C54"/>
</svg>
