<svg width="32" height="32" viewBox="0 0 32 32" fill="none" xmlns="http://www.w3.org/2000/svg">
<path d="M13.2367 14.8149L13.2367 14.8149L16.3808 17.754L19.5244 14.8151C19.5244 14.815 19.5244 14.815 19.5245 14.8149C19.9874 14.382 20.7218 14.3893 21.1755 14.8328L20.826 15.1903L21.1748 14.8321C21.6428 15.2878 21.6325 16.0286 21.1569 16.4731L13.2367 14.8149ZM13.2367 14.8149C12.7738 14.3823 12.0401 14.3891 11.5861 14.8324L13.2367 14.8149ZM17.1971 20.1752L21.1568 16.4732L11.5859 14.8326C11.3586 15.0544 11.2416 15.3479 11.2416 15.644C11.2416 15.9492 11.366 16.2503 11.6044 16.4731L15.5645 20.1752C15.5646 20.1752 15.5646 20.1752 15.5646 20.1753C16.0207 20.6017 16.7409 20.6017 17.197 20.1753C17.197 20.1752 17.197 20.1752 17.1971 20.1752Z" fill="#ECDAB1" stroke="#ECDAB1"/>
<circle cx="16" cy="16" r="14.5" transform="rotate(90 16 16)" stroke="#ECDAB1" stroke-width="3"/>
</svg>
