<svg width="32" height="32" viewBox="0 0 32 32" fill="none" xmlns="http://www.w3.org/2000/svg">
<path d="M18.7831 19.1803L18.783 19.1802L15.639 16.2411L12.4954 19.18C12.4954 19.1801 12.4953 19.1801 12.4953 19.1802C12.0324 19.6131 11.298 19.6059 10.8443 19.1624L11.1938 18.8048L10.8449 19.163C10.377 18.7073 10.3873 17.9665 10.8629 17.522L18.7831 19.1803ZM18.7831 19.1803C19.246 19.6128 19.9797 19.606 20.4336 19.1627L18.7831 19.1803ZM14.8227 13.8199L10.863 17.5219L20.4338 19.1625C20.6612 18.9407 20.7781 18.6472 20.7781 18.3511C20.7781 18.0459 20.6538 17.7448 20.4154 17.522L16.4553 13.8199C16.4552 13.8199 16.4552 13.8199 16.4552 13.8199C15.9991 13.3934 15.2789 13.3934 14.8228 13.8199C14.8228 13.8199 14.8227 13.8199 14.8227 13.8199Z" fill="#ECDAB1" stroke="#ECDAB1"/>
<circle cx="16" cy="16" r="14.5" transform="rotate(90 16 16)" stroke="#ECDAB1" stroke-width="3"/>
</svg>
