<svg width="51" height="38" viewBox="0 0 51 38" fill="none" xmlns="http://www.w3.org/2000/svg">
<path d="M31.1282 0.217956C28.3686 1.06322 27.946 4.94149 30.4569 6.48285C31.3022 7.02979 31.6502 7.05465 36.9207 7.12923C43.0862 7.22867 44.4784 7.10437 45.1745 6.40827C45.8706 5.71217 45.796 4.31997 45.0253 3.57415L44.4286 2.95263H38.4869C33.5397 2.95263 32.4955 2.90291 32.3961 2.60458C32.0977 1.8339 32.8933 1.7096 39.2079 1.65988L45.5225 1.58529L45.5971 0.988637C45.6468 0.665449 45.5474 0.292538 45.3485 0.193095C44.9259 -0.0803723 32.0729 -0.055512 31.1282 0.217956Z" fill="#C69C54"/>
<path d="M14.3472 3.12671C12.5323 5.31445 12.0849 8.72037 13.2782 11.1816C13.9245 12.4992 13.9743 12.9715 13.4273 12.8472C13.2284 12.7975 12.8058 12.1511 12.4826 11.3805C12.1594 10.5849 11.6622 9.64021 11.3639 9.2673C10.1706 7.7508 7.4359 6.43318 5.44705 6.43318C4.47748 6.43318 4.42776 6.75637 4.9747 8.86953C5.69566 11.5545 7.16244 13.245 9.62365 14.1649C11.2396 14.7864 18.4989 14.8361 20.4629 14.2643C22.3523 13.6925 23.844 12.4246 24.7638 10.5849C25.5345 9.01869 26.0068 6.60721 25.6091 6.3586C24.9378 5.96083 21.333 7.179 20.0154 8.22315C19.2447 8.86953 18.126 10.6595 17.8028 11.7782C17.5293 12.7975 17.0321 13.2202 16.7089 12.6981C16.6344 12.5738 16.8581 11.9274 17.1813 11.2562C18.0266 9.54077 18.2006 7.80052 17.7034 6.10999C17.3056 4.74265 15.9383 2.43061 15.4162 2.28145C15.2422 2.23172 14.7698 2.60464 14.3472 3.12671Z" fill="#C69C54"/>
<path d="M30.8298 8.2728C29.3631 8.91918 28.4681 10.7589 28.8658 12.3251C28.9404 12.698 29.4376 13.419 29.9597 13.941L30.9293 14.8857H37.7411C44.5529 14.8857 44.5778 14.8857 45.0999 14.3139C45.8457 13.5184 45.8208 12.3002 45.0253 11.5295L44.4286 10.908H38.6112C32.769 10.908 32.0729 10.8086 32.3961 10.013C32.4955 9.73958 33.6888 9.665 38.6858 9.665C42.0917 9.665 45.0253 9.59041 45.249 9.51583C45.7711 9.31695 45.7711 8.2728 45.249 8.07391C45.0253 7.99933 41.868 7.92475 38.2383 7.92475C33.2413 7.94961 31.4016 8.02419 30.8298 8.2728Z" fill="#C69C54"/>
<path d="M3.01073 16.3526C-0.246017 17.8193 -1.0167 21.9213 1.46937 24.4323C2.09089 25.0289 2.96101 25.6007 3.58253 25.7748L4.62668 26.0979V31.443C4.62668 36.788 4.62668 36.788 5.2482 37.3847C6.04374 38.2051 7.18733 38.2051 7.98287 37.3847C8.60439 36.788 8.60439 36.788 8.60439 31.4181V26.0731H24.7638H40.9233V31.3187V36.5643L41.6443 37.2853C42.5144 38.1305 43.3348 38.2051 44.2546 37.4841L44.901 36.9869V31.5424V26.1228L45.9949 25.9736C47.2876 25.7748 48.9284 24.656 49.6245 23.5373C51.141 21.0512 49.9975 17.5956 47.2628 16.3526C46.3181 15.9051 45.0502 15.8802 25.1368 15.8802C5.22334 15.8802 3.95544 15.9051 3.01073 16.3526ZM12.3832 21.275C12.9302 21.7722 12.955 22.1948 12.4329 22.692C11.8611 23.2638 6.34207 23.2638 5.77027 22.692C5.54653 22.4931 5.3725 22.1451 5.3725 21.9711C5.3725 21.0761 6.09346 20.8523 9.02702 20.8523C11.3639 20.8523 12.0103 20.9269 12.3832 21.275ZM23.123 21.2501C23.3468 21.449 23.5208 21.797 23.5208 21.9711C23.5208 22.8661 22.8247 23.0898 19.7917 23.0898C16.7587 23.0898 16.0626 22.8661 16.0626 21.9711C16.0626 21.797 16.2366 21.449 16.4604 21.2501C17.0322 20.6783 22.5512 20.6783 23.123 21.2501ZM33.8131 21.2501C34.0369 21.449 34.2109 21.797 34.2109 21.9711C34.2109 22.1451 34.0369 22.4931 33.8131 22.692C33.2413 23.2638 27.7223 23.2638 27.1505 22.692C26.6533 22.1948 26.6533 21.8716 27.1753 21.2998C27.5234 20.9269 27.9709 20.8523 30.5067 20.8523C32.8436 20.8523 33.5148 20.9269 33.8131 21.2501ZM44.5032 21.2501C45.0502 21.7722 45.0005 22.518 44.4287 22.8412C44.1552 22.9655 42.6884 23.0898 41.147 23.0898C38.8847 23.0898 38.2632 23.0152 37.8903 22.6672C37.3434 22.17 37.3185 21.8965 37.8654 21.2998C38.2135 20.9269 38.661 20.8523 41.1968 20.8523C43.5337 20.8523 44.2049 20.9269 44.5032 21.2501Z" fill="#C69C54"/>
</svg>
