<svg width="44" height="38" viewBox="0 0 44 38" fill="none" xmlns="http://www.w3.org/2000/svg">
<path d="M20.3426 0.99336C19.0342 2.44709 17.1686 5.40302 16.5628 6.97791C15.9329 8.6497 15.7148 11.1453 16.0783 12.5021C16.4175 13.762 17.8712 15.458 19.1069 16.0153C20.4152 16.5968 22.6928 16.5968 24.0011 16.0153C25.2368 15.458 26.6905 13.762 27.0297 12.5021C27.3932 11.1453 27.1751 8.6497 26.5452 6.97791C25.6245 4.57924 22.3536 -2.67029e-05 21.554 -2.67029e-05C21.3844 -2.67029e-05 20.8514 0.436094 20.3426 0.99336ZM23.0804 3.92506C26.1575 8.40741 26.5452 11.9691 24.2192 14.0285C22.9351 15.1431 20.7302 15.3369 19.3734 14.4404C16.5871 12.599 16.7567 8.86776 19.8095 4.31272C20.5848 3.12551 21.3602 2.18058 21.5298 2.18058C21.7236 2.18058 22.402 2.98013 23.0804 3.92506Z" fill="#C69C54"/>
<path d="M31.5121 21.2488L28.6047 22.5814L20.6091 21.4426C15.3757 20.6915 12.1775 20.3523 11.3779 20.425C10.7237 20.4977 8.03431 21.3215 5.44182 22.2422C1.10484 23.7928 0.717176 23.9866 0.717176 24.4954C0.717176 24.9073 0.86255 25.1012 1.22598 25.1496C1.4925 25.1981 3.67311 24.5197 6.07177 23.6717C8.4462 22.8237 10.7964 22.0483 11.281 21.9514C12.129 21.806 26.6906 23.7201 28.7743 24.2532C29.8646 24.5439 30.4218 25.4161 29.913 26.0461C29.6465 26.3611 28.6047 26.4095 22.7897 26.4095C19.0585 26.4095 15.836 26.5064 15.6664 26.6276C15.4726 26.7487 15.3757 27.0395 15.4241 27.2818C15.4968 27.6937 15.7633 27.7421 17.7986 27.8148L20.1003 27.8875L21.3118 29.0505C24.1708 31.8368 26.3756 31.8853 29.5011 29.2443C30.8337 28.1056 32.239 27.1849 37.2302 24.132C40.5495 22.121 41.3733 21.903 41.4945 23.0417C41.5672 23.5505 41.1795 23.9866 38.9504 25.8523C35.413 28.8082 34.032 29.8258 29.0166 33.2179C26.6421 34.817 24.3162 36.2222 23.8073 36.3434C22.814 36.6341 22.5959 36.5615 12.4682 33.0725C8.49466 31.7157 7.54973 31.4734 6.53212 31.5461C5.15107 31.6672 0.208369 33.5571 0.0145374 34.0416C-0.0339205 34.2112 0.0387663 34.5505 0.232598 34.7927C0.547574 35.2289 0.668719 35.2046 3.11584 34.2112C4.54535 33.6298 6.04754 33.0967 6.50789 33.024C7.13784 32.9271 8.95501 33.4602 14.3823 35.35C18.2831 36.6826 21.869 37.8698 22.3536 37.9425C23.9769 38.209 25.2611 37.6275 29.8161 34.5262C35.3161 30.795 36.3579 30.0439 39.8711 27.1122C42.8997 24.5681 43.3843 23.8655 42.9967 22.5087C42.6817 21.4668 42.3667 21.1276 41.3491 20.8369C40.6707 20.6673 40.283 20.6915 39.4592 21.0549C38.4416 21.5153 38.4174 21.5153 37.9813 21.0307C36.576 19.4801 35.2192 19.5285 31.5121 21.2488ZM36.4791 21.7818C36.9879 22.1937 37.0121 22.2906 36.6971 22.6056C36.1883 23.0659 32.1906 25.4404 31.9483 25.4404C31.8271 25.4161 31.5121 24.9316 31.2214 24.3501L30.7368 23.284L32.7963 22.3391C35.1949 21.2245 35.7037 21.1519 36.4791 21.7818ZM28.1686 28.154C27.9505 28.784 26.4483 29.5593 25.4307 29.5593C24.7765 29.5593 24.1223 29.3655 23.6135 29.002C22.1113 28.0086 22.3536 27.8633 25.4307 27.8633C27.5871 27.8633 28.2412 27.936 28.1686 28.154Z" fill="#C69C54"/>
</svg>
