<svg width="38" height="29" viewBox="0 0 38 29" fill="none" xmlns="http://www.w3.org/2000/svg">
<g clip-path="url(#clip0_265_338)">
<path d="M16.7681 2.20754C16.6826 2.22653 16.5544 2.30251 16.4831 2.36899C16.3787 2.4782 16.3597 2.53518 16.3597 2.77736C16.3597 3.2807 16.5734 3.38992 17.5373 3.39467C17.8412 3.39467 18.0929 3.40891 18.0929 3.42316C18.0929 3.4374 17.7415 3.936 17.3141 4.52481C16.3549 5.8544 16.3359 5.88764 16.3359 6.13456C16.3359 6.34349 16.4119 6.45746 16.6066 6.53344C16.6683 6.55718 17.4186 6.57617 18.2733 6.57617C19.7264 6.57617 19.8356 6.57142 19.978 6.4812C20.2725 6.30076 20.3057 5.81166 20.035 5.55049L19.8926 5.41279L19.0616 5.39854C18.3731 5.38429 18.2306 5.37005 18.2543 5.31782C18.2686 5.27983 18.6627 4.74324 19.1281 4.12119C19.5934 3.49913 20.0018 2.94356 20.0303 2.88657C20.187 2.59692 20.0493 2.30251 19.7121 2.20754C19.5127 2.15055 17.0055 2.15055 16.7681 2.20754Z" fill="#C69C54"/>
<path d="M11.7298 5.62623C11.5209 5.67847 11.4449 5.78768 11.4449 6.02986C11.4449 6.34326 11.5446 6.40499 12.1145 6.42398C12.3709 6.43823 12.5846 6.45722 12.5846 6.46672C12.5846 6.48097 12.3756 6.78487 12.1145 7.14101C11.312 8.25216 11.2977 8.28065 11.4924 8.47534C11.5826 8.56556 11.6491 8.57031 12.6985 8.57031C13.9426 8.57031 13.9854 8.56082 14.0376 8.23317C14.0614 8.09546 14.0424 8.03848 13.9474 7.92451C13.8287 7.79156 13.8144 7.78681 13.2541 7.76306L12.6843 7.73932L13.3253 6.88934C14.0186 5.95863 14.0709 5.83992 13.8334 5.68796C13.7242 5.61674 13.577 5.60249 12.7983 5.59299C12.3044 5.58824 11.8201 5.60249 11.7298 5.62623Z" fill="#C69C54"/>
<path d="M1.92327 10.3324C1.29172 10.4274 0.57944 10.926 0.275535 11.4958C-0.0141242 12.0324 0.000121382 11.6383 0.000121382 19.2786C0.000121382 26.8857 -0.0141242 26.5296 0.266038 27.0377C1.01156 28.4148 2.85398 28.6712 3.93189 27.5458C4.42099 27.0377 4.60618 26.5106 4.60618 25.6274V25.238H18.9942H33.3822V25.6274C33.3822 26.5106 33.5911 27.0899 34.0802 27.579C35.1629 28.6664 36.9863 28.3958 37.7223 27.0377C38.0025 26.5296 37.9883 26.8857 37.9883 19.2786C37.9883 13.1578 37.9788 12.2603 37.917 12.0134C37.5276 10.5271 35.7612 9.83383 34.4696 10.6648C33.933 11.0067 33.5341 11.6098 33.4297 12.2318C33.4059 12.398 33.3822 13.267 33.3822 14.1597V15.7885H32.6699H31.9576V18.139V20.4895H21.4872H11.0167V18.139V15.7885H7.81143H4.60618V14.1597C4.60618 13.267 4.58244 12.398 4.5587 12.2318C4.35451 11.002 3.17213 10.1472 1.92327 10.3324Z" fill="#C69C54"/>
<path d="M20.0143 10.3139C17.2079 10.3946 14.4491 10.7983 12.3882 11.4251L12.0605 11.5248V15.485V19.4453H21.4864H30.9122L30.9027 15.4945L30.8884 11.539L30.5798 11.4583C29.1837 11.0784 26.3441 10.6226 24.3355 10.4469C23.3858 10.3661 21.3486 10.2759 20.7978 10.2902C20.6031 10.2949 20.2517 10.3044 20.0143 10.3139Z" fill="#C69C54"/>
<path d="M8.15766 10.7027C7.75878 10.8309 7.50236 11.0018 7.20321 11.32C6.54791 12.0275 6.41495 12.9914 6.84232 13.8747C6.98952 14.1691 7.50711 14.6867 7.80152 14.8339C8.27637 15.0618 8.86519 15.1378 9.34954 15.0238C9.93835 14.8909 10.5699 14.3875 10.8358 13.8509C10.983 13.5518 10.9925 13.5043 11.0068 12.9155C11.021 12.3741 11.0115 12.2602 10.9213 12.0228C10.7171 11.4767 10.209 10.9686 9.65344 10.7501C9.26406 10.6029 8.53754 10.5792 8.15766 10.7027Z" fill="#C69C54"/>
</g>
<defs>
<clipPath id="clip0_265_338">
<rect width="38" height="28.2418" fill="white"/>
</clipPath>
</defs>
</svg>
