<svg width="34" height="38" viewBox="0 0 34 38" fill="none" xmlns="http://www.w3.org/2000/svg">
<path d="M15.1105 0.0914803C13.5398 0.496815 12.915 1.29059 12.6447 3.21592C12.3576 5.39459 12.9656 7.86037 14.0803 8.97504C14.3167 9.21148 14.5194 9.4817 14.5194 9.54926C14.5194 9.83637 13.9114 10.2079 13.2527 10.3261C11.7327 10.5964 9.63851 11.7617 9.21629 12.5724C9.08118 12.8257 8.86163 13.687 8.70963 14.4977C7.5274 20.7804 5.11229 25.2728 2.12296 26.7084C0.383404 27.5359 -0.207707 28.3128 0.0625148 29.3937C0.214515 30.0186 0.957626 30.8124 1.51496 30.9306L2.00474 31.0319L1.32918 31.6399C0.450959 32.4337 0.13007 33.0924 0.13007 34.055C0.13007 35.4737 1.04207 36.7404 2.61274 37.4666C3.79496 38.007 6.10874 37.9733 9.70607 37.3484C13.5905 36.6897 18.3532 36.5884 21.6972 37.095C27.3212 37.9395 27.8785 38.007 29.179 37.8213C32.8101 37.2977 34.3638 33.751 31.8981 31.623L31.2225 31.0488L31.7123 30.9306C32.6074 30.7448 33.3674 29.6301 33.1985 28.735C33.0296 27.8737 32.523 27.367 31.1718 26.7253C29.1114 25.7288 27.5576 23.719 26.1896 20.2906C25.6323 18.8381 25.2438 17.4701 24.2981 13.4506C23.9941 12.1164 22.7274 11.1368 20.515 10.495C18.4545 9.90393 18.387 9.7857 19.3327 8.67104C20.2616 7.59015 20.667 6.05326 20.5656 3.94215C20.4643 1.76348 20.059 0.952812 18.7585 0.277256C18.2687 0.0239258 15.8198 -0.0942993 15.1105 0.0914803ZM23.4705 24.2595C24.5345 26.3368 26.7301 28.9208 28.1994 29.8328L28.7905 30.1875L27.9461 30.0861C26.0883 29.8328 24.7372 29.4781 24.1123 29.0728C23.2847 28.5324 22.5247 27.3501 22.3052 26.2693C22.1025 25.3404 22.0518 22.7226 22.2376 22.0808C22.3221 21.743 22.3896 21.7937 22.7105 22.5875C22.9132 23.0941 23.251 23.8373 23.4705 24.2595ZM11.0065 25.4924C10.8038 26.8266 10.2296 28.2621 9.57096 28.9546C9.16563 29.3768 8.52385 29.5964 6.83496 29.8328C6.19318 29.9341 5.38251 30.0524 5.06163 30.103L4.47051 30.2044L5.14607 29.7484C7.03763 28.4817 9.16563 25.7795 10.2972 23.1617L10.8883 21.8275L11.0403 23.0097C11.1416 23.7866 11.1247 24.6141 11.0065 25.4924Z" fill="#C69C54"/>
</svg>
