<svg width="150" height="150" viewBox="0 0 150 150" fill="none" xmlns="http://www.w3.org/2000/svg">
<g clip-path="url(#clip0_1_421)">
<path d="M102.515 53.5735C91.6553 46.9115 74.1131 46.9115 63.318 53.5735C52.5228 60.2354 52.5871 71.0653 63.4465 77.7272C74.3059 84.3891 91.848 84.3891 102.643 77.7272C113.438 71.0311 113.374 60.2354 102.515 53.5735ZM97.5348 64.0617C96.603 64.3692 95.6713 64.7108 94.7396 65.0183C94.1613 65.1891 93.8079 65.2233 93.5508 65.0866C93.4223 64.9842 93.2938 64.8475 93.1653 64.6425C92.5548 63.5834 91.6231 62.661 90.3701 61.9094C90.2095 61.8069 90.0167 61.7044 89.8239 61.6019C89.4063 61.3628 89.0207 61.192 88.5067 61.0553C86.7075 60.6112 85.1011 61.3286 85.326 62.5244C85.4223 63.1393 85.7436 63.6859 86.1292 64.2667C86.7717 65.2233 87.4786 66.1799 87.9284 67.2048C89.4384 70.4162 86.1613 73.5934 80.8922 73.9009C78.9967 74.0034 77.1975 73.7642 75.5268 73.1834C74.7878 72.9443 74.2416 72.9443 73.6955 73.3543C73.1493 73.7301 72.5388 74.0717 71.9605 74.4133C71.4465 74.7208 70.9003 74.755 70.3862 74.4475C70.0007 74.2425 69.6473 74.0034 69.2617 73.7984C69.0047 73.6276 68.7477 73.4909 68.4906 73.3201C67.9445 72.9785 68.0087 72.6368 68.5228 72.2952C68.9405 72.0219 69.3581 71.7827 69.7437 71.5094C70.6754 70.9286 70.6754 70.8945 69.9043 70.2454C68.9405 69.4254 68.073 68.5713 67.5268 67.6148C67.1091 66.8632 67.2055 66.6923 68.33 66.2824C69.1654 66.0091 69.9686 65.7016 70.8039 65.4283C71.4143 65.2233 71.7677 65.1891 72.0248 65.3258C72.1854 65.4283 72.2818 65.5649 72.4103 65.8041C72.9565 66.8973 73.8882 67.8539 75.0127 68.7763C75.2055 68.9471 75.4304 69.0838 75.6232 69.2205C76.2336 69.5963 76.9404 69.8696 77.7436 70.0745C79.832 70.587 81.6954 69.6987 81.5027 68.298C81.4384 67.8197 81.2135 67.4098 80.9244 66.9657C80.2175 65.8382 79.2858 64.7792 78.8039 63.5834C78.0328 61.6703 78.3862 59.9279 80.8601 58.5614C83.6874 57.024 86.836 56.9215 90.1773 57.8781C91.5589 58.2881 91.5267 58.2881 92.587 57.639C92.9404 57.3998 93.2938 57.1948 93.6472 56.9898C94.4504 56.5116 94.7396 56.5116 95.5428 56.9898C95.7998 57.1265 96.0247 57.2973 96.2817 57.434C97.9846 58.4589 97.9846 58.4589 96.3139 59.518C95.1251 60.2354 95.1251 60.2354 96.1211 61.0895C96.8922 61.7386 97.5026 62.4219 97.9524 63.1735C98.3058 63.5493 98.1773 63.8568 97.5348 64.0617ZM117.005 86.5415C114.017 88.3863 109.165 88.3863 106.145 86.5415C103.157 84.6966 103.125 81.6902 106.113 79.8454C109.101 78.0005 113.952 78.0005 116.972 79.8454C119.993 81.6902 120.025 84.6966 117.005 86.5415ZM59.816 51.4212C56.828 53.266 51.9766 53.266 48.9566 51.4212C45.9365 49.5763 45.9365 46.5699 48.9244 44.7251C51.9124 42.8802 56.7638 42.8802 59.7838 44.7251C62.7718 46.5699 62.8039 49.5763 59.816 51.4212ZM157.647 72.2269L72.0248 19.6489C67.077 16.6083 59.0449 16.6083 54.1292 19.6489L8.21771 48.0048C3.30206 51.0454 3.33419 55.9991 8.28197 59.0397L93.9042 111.618C98.852 114.658 106.884 114.658 111.8 111.618L157.679 83.2617C162.627 80.2212 162.595 75.2674 157.647 72.2269ZM112.732 101.608C112.185 101.061 111.543 100.549 110.772 100.07C105.76 96.9956 97.6311 96.9956 92.6512 100.07C92.2657 100.309 91.9444 100.549 91.591 100.822L25.1173 59.9963C25.7598 59.7229 26.3703 59.4155 26.9486 59.0738C31.9285 55.9991 31.8964 51.0112 26.8843 47.9365C26.3381 47.5948 25.7598 47.2873 25.1494 47.0482L52.5549 30.103C52.9726 30.4788 53.4545 30.8204 54.0007 31.1621C59.0128 34.2368 67.1413 34.2368 72.1212 31.1621C72.6995 30.8204 73.1814 30.4446 73.6312 30.0347L140.33 70.9628C139.43 71.3044 138.627 71.6802 137.856 72.1585C132.876 75.2333 132.876 80.2553 137.92 83.3301C138.691 83.8084 139.559 84.1842 140.458 84.5258L112.732 101.608ZM6.03298 69.5621C8.21771 68.3664 11.5912 68.5372 13.6795 69.8354L103.189 124.771L151.575 94.8432C153.663 93.545 157.101 93.545 159.221 94.8432C161.342 96.1415 161.342 98.2596 159.253 99.5578L107.816 131.33C105.31 132.902 101.197 132.902 98.6592 131.33L96.8601 130.237L95.607 129.451L5.87233 74.3792C3.6876 73.0468 3.71973 70.8261 6.03298 69.5621ZM159.318 116.742L107.88 148.514C105.374 150.086 101.262 150.086 98.7235 148.514L96.9564 147.421L95.6713 146.635L5.93659 91.5635C3.75186 90.2311 3.81611 88.0105 6.12936 86.7464C8.28197 85.5507 11.6876 85.7215 13.7759 87.0198L103.254 141.955L151.639 112.062C153.76 110.764 157.165 110.764 159.286 112.062C161.406 113.326 161.438 115.444 159.318 116.742Z" fill="url(#paint0_linear_1_421)"/>
</g>
<defs>
<linearGradient id="paint0_linear_1_421" x1="17.7724" y1="47.6303" x2="134.36" y2="140.047" gradientUnits="userSpaceOnUse">
<stop stop-color="#5577CD"/>
<stop offset="1" stop-color="#5577CD"/>
</linearGradient>
<clipPath id="clip0_1_421">
<rect width="150" height="150" fill="white"/>
</clipPath>
</defs>
</svg>
