<svg width="136" height="140" viewBox="0 0 136 140" fill="none" xmlns="http://www.w3.org/2000/svg">
<g clip-path="url(#clip0_1_415)">
<path fill-rule="evenodd" clip-rule="evenodd" d="M126.911 55.8756C126.911 24.4222 102.004 0 71.3872 0C40.77 0 15.8638 24.4222 15.8638 54.4444C6.63899 59.0878 -1.90735e-05 67.6356 -1.90735e-05 77.7778V93.3333C-1.90735e-05 99.5217 2.50702 105.457 6.96959 109.832C11.4322 114.208 17.4847 116.667 23.7957 116.667H31.7276C33.8313 116.667 35.8488 115.847 37.3363 114.389C38.8239 112.93 39.6596 110.952 39.6596 108.889V62.2222C39.6596 60.1594 38.8239 58.1811 37.3363 56.7225C35.8488 55.2639 33.8313 54.4444 31.7276 54.4444C31.7276 44.1305 35.9061 34.2389 43.3437 26.9458C50.7813 19.6528 60.8689 15.5556 71.3872 15.5556C81.9056 15.5556 91.9932 19.6528 99.4308 26.9458C106.868 34.2389 111.047 44.1305 111.047 54.4444C108.943 54.4444 106.926 55.2639 105.438 56.7225C103.951 58.1811 103.115 60.1594 103.115 62.2222V108.889C103.115 110.952 103.951 112.93 105.438 114.389C106.926 115.847 108.943 116.667 111.047 116.667V124.444H90.4873C88.8533 119.926 84.4908 116.667 79.3191 116.667H63.4553C60.2998 116.667 57.2735 117.896 55.0422 120.084C52.811 122.272 51.5574 125.239 51.5574 128.333C51.5574 131.428 52.811 134.395 55.0422 136.583C57.2735 138.771 60.2998 140 63.4553 140H111.047C115.254 140 119.289 138.361 122.264 135.444C125.239 132.527 126.911 128.57 126.911 124.444V115.243C131.541 113.648 135.552 110.684 138.393 106.76C141.234 102.837 142.765 98.1455 142.774 93.3333V77.7778C142.766 72.9664 141.235 68.2761 138.394 64.3534C135.553 60.4306 131.541 57.4686 126.911 55.8756L-55.5234 482.222L126.911 55.8756Z" fill="url(#paint0_linear_1_415)"/>
</g>
<defs>
<linearGradient id="paint0_linear_1_415" x1="25.6673" y1="30.0565" x2="113.958" y2="143.574" gradientUnits="userSpaceOnUse">
<stop stop-color="#3C3C3C"/>
<stop offset="1" stop-color="#262626"/>
</linearGradient>
<clipPath id="clip0_1_415">
<rect width="135.556" height="140" fill="white"/>
</clipPath>
</defs>
</svg>
