<svg width="128" height="128" viewBox="0 0 128 128" fill="none" xmlns="http://www.w3.org/2000/svg">
<path d="M14 60C14 32.3858 36.3858 10 64 10C91.6142 10 114 32.3858 114 60C114 87.6142 91.6142 110 64 110C36.3858 110 14 87.6142 14 60Z" fill="white"/>
<path fill-rule="evenodd" clip-rule="evenodd" d="M61.6103 38.139C62.0748 38.1383 62.5745 38.1385 63.1138 38.1387L64.0026 38.139C71.1227 38.139 71.9665 38.1645 74.7782 38.2923C77.3783 38.4112 78.7894 38.8457 79.7294 39.2107C80.9739 39.694 81.8611 40.2718 82.7939 41.2051C83.7272 42.1385 84.305 43.0274 84.7895 44.2718C85.1545 45.2107 85.5895 46.6219 85.7078 49.2219C85.8356 52.033 85.8634 52.8775 85.8634 59.9942C85.8634 67.111 85.8356 67.9554 85.7078 70.7666C85.5889 73.3666 85.1545 74.7777 84.7895 75.7166C84.3061 76.9611 83.7272 77.8472 82.7939 78.78C81.8605 79.7133 80.9744 80.2911 79.7294 80.7744C78.7905 81.1411 77.3783 81.5744 74.7782 81.6933C71.9671 81.8211 71.1227 81.8489 64.0026 81.8489C56.8819 81.8489 56.038 81.8211 53.2269 81.6933C50.6269 81.5733 49.2158 81.1389 48.2752 80.7739C47.0307 80.2905 46.1418 79.7128 45.2085 78.7794C44.2751 77.8461 43.6974 76.9594 43.2129 75.7144C42.8479 74.7755 42.4129 73.3644 42.2946 70.7643C42.1668 67.9532 42.1412 67.1087 42.1412 59.9876C42.1412 52.8664 42.1668 52.0264 42.2946 49.2152C42.4135 46.6152 42.8479 45.2041 43.2129 44.2641C43.6963 43.0196 44.2751 42.1307 45.2085 41.1974C46.1418 40.264 47.0307 39.6862 48.2752 39.2018C49.2152 38.8351 50.6269 38.4018 53.2269 38.2823C55.6869 38.1712 56.6403 38.1379 61.6103 38.1323V38.139ZM78.2368 42.5666C76.4701 42.5666 75.0367 43.9983 75.0367 45.7655C75.0367 47.5322 76.4701 48.9656 78.2368 48.9656C80.0035 48.9656 81.4368 47.5322 81.4368 45.7655C81.4368 43.9989 80.0035 42.5655 78.2368 42.5655V42.5666ZM50.3086 60.0003C50.3086 52.4375 56.4403 46.3057 64.0031 46.3057H64.0026C71.5654 46.3057 77.6955 52.4375 77.6955 60.0003C77.6955 67.5632 71.566 73.6921 64.0031 73.6921C56.4403 73.6921 50.3086 67.5632 50.3086 60.0003Z" fill="white"/>
<path d="M64.0023 51.1113C68.9112 51.1113 72.8912 55.0908 72.8912 60.0003C72.8912 64.9092 68.9112 68.8893 64.0023 68.8893C59.0928 68.8893 55.1133 64.9092 55.1133 60.0003C55.1133 55.0908 59.0928 51.1113 64.0023 51.1113Z" fill="white"/>
<g opacity="0.1" filter="url(#filter0_d_302_46)">
<circle cx="64" cy="60" r="59.5" stroke="white" shape-rendering="crispEdges"/>
</g>
<path d="M58.846 68.3979L58.1733 79.577C59.1618 79.577 59.5986 79.0756 60.1504 78.4806L64.8999 73.3585L74.7811 81.4551C76.5995 82.568 77.912 81.9918 78.3649 79.5827L84.8515 45.6811C85.5157 42.728 83.8366 41.3887 82.097 42.2646L44.0077 58.5538C41.4078 59.7103 41.4229 61.3191 43.5338 62.0359L53.3084 65.4195L75.9375 49.5857C77.0058 48.8673 77.9862 49.2535 77.1815 50.0456L58.8455 68.3974L58.846 68.3979Z" fill="#161617"/>
<defs>
<filter id="filter0_d_302_46" x="0" y="0" width="128" height="128" filterUnits="userSpaceOnUse" color-interpolation-filters="sRGB">
<feFlood flood-opacity="0" result="BackgroundImageFix"/>
<feColorMatrix in="SourceAlpha" type="matrix" values="0 0 0 0 0 0 0 0 0 0 0 0 0 0 0 0 0 0 127 0" result="hardAlpha"/>
<feOffset dy="4"/>
<feGaussianBlur stdDeviation="2"/>
<feComposite in2="hardAlpha" operator="out"/>
<feColorMatrix type="matrix" values="0 0 0 0 0 0 0 0 0 0 0 0 0 0 0 0 0 0 0.25 0"/>
<feBlend mode="normal" in2="BackgroundImageFix" result="effect1_dropShadow_302_46"/>
<feBlend mode="normal" in="SourceGraphic" in2="effect1_dropShadow_302_46" result="shape"/>
</filter>
</defs>
</svg>
