<svg width="38" height="39" viewBox="0 0 38 39" fill="none" xmlns="http://www.w3.org/2000/svg">
<path d="M27.8609 14.4402C27.8609 21.3013 22.0049 26.9459 14.6766 26.9459C7.34826 26.9459 1.49219 21.3013 1.49219 14.4402C1.49219 7.57918 7.34826 1.93457 14.6766 1.93457C22.0049 1.93457 27.8609 7.57918 27.8609 14.4402Z" stroke="#A5F8FE" stroke-width="2"/>
<path d="M23.9221 14.4401C23.9221 19.2292 19.8301 23.1942 14.6779 23.1942C9.52562 23.1942 5.43359 19.2292 5.43359 14.4401C5.43359 9.65101 9.52562 5.68604 14.6779 5.68604C19.8301 5.68604 23.9221 9.65101 23.9221 14.4401Z" stroke="#A5F8FE" stroke-width="2"/>
<path d="M19.9814 14.44C19.9814 17.1572 17.6534 19.4425 14.6772 19.4425C11.701 19.4425 9.37305 17.1572 9.37305 14.44C9.37305 11.7228 11.701 9.4375 14.6772 9.4375C17.6534 9.4375 19.9814 11.7228 19.9814 14.44Z" stroke="#A5F8FE" stroke-width="2"/>
<path d="M23.1823 26.5706L19.8322 30.1583C19.6789 30.3227 19.4808 30.4434 19.2598 30.5069C19.0388 30.5705 18.8036 30.5744 18.5804 30.5182C18.3572 30.4621 18.1547 30.3481 17.9955 30.1889C17.8363 30.0297 17.7267 29.8316 17.6787 29.6166L14.5332 15.4949C14.2912 14.4114 15.6012 13.6297 16.5196 14.3104L28.6447 23.2905C28.8296 23.4272 28.9703 23.6107 29.0509 23.8199C29.1314 24.0292 29.1486 24.2558 29.1003 24.4739C29.052 24.6919 28.9403 24.8927 28.7779 25.0532C28.6154 25.2136 28.4089 25.3274 28.1818 25.3814L23.1823 26.5706ZM23.1823 26.5706L28.1731 33.6986L23.1823 26.5706Z" fill="white"/>
<path d="M23.1823 26.5706L19.8322 30.1583C19.6789 30.3227 19.4808 30.4434 19.2598 30.5069C19.0388 30.5705 18.8036 30.5744 18.5804 30.5182C18.3572 30.4621 18.1547 30.3481 17.9955 30.1889C17.8363 30.0297 17.7267 29.8316 17.6787 29.6166L14.5332 15.4949C14.2912 14.4114 15.6012 13.6297 16.5196 14.3104L28.6447 23.2905C28.8296 23.4272 28.9703 23.6107 29.0509 23.8199C29.1314 24.0292 29.1486 24.2558 29.1003 24.4738C29.052 24.6919 28.9403 24.8927 28.7779 25.0532C28.6154 25.2136 28.4089 25.3274 28.1818 25.3814L23.1823 26.5706ZM23.1823 26.5706L28.1731 33.6986" stroke="#A5F8FE" stroke-width="2" stroke-linecap="round"/>
</svg>
