<svg width="47" height="46" viewBox="0 0 47 46" fill="none" xmlns="http://www.w3.org/2000/svg">
<path d="M22.0855 39.6344H23.0855V38.6344V35.5038C23.2384 35.5077 23.3902 35.5094 23.5406 35.5094C23.6909 35.5094 23.8427 35.5077 23.9956 35.5038V38.6344V39.6344H24.9956H29.3607C30.9965 39.6344 32.2407 40.8892 32.2407 42.301V42.7594V43.7594H33.2407H35.1808C35.4779 43.7594 35.6358 43.9875 35.6358 44.1344C35.6358 44.2812 35.4779 44.5094 35.1808 44.5094H11.9003C11.6032 44.5094 11.4453 44.2812 11.4453 44.1344C11.4453 43.9875 11.6032 43.7594 11.9003 43.7594H13.8404H14.8404V42.7594V42.301C14.8404 40.8892 16.0846 39.6344 17.7204 39.6344H22.0855Z" stroke="#A5F8FD" stroke-width="2"/>
<path d="M35.7751 25.5746L35.3654 25.7213L35.1935 26.1212C33.3382 30.4368 28.8565 33.5094 23.5407 33.5094C18.225 33.5094 13.7433 30.4368 11.888 26.1212L11.7161 25.7213L11.3063 25.5746C10.1829 25.1725 9.1804 24.5087 8.3765 23.7533C6.70668 21.999 5.68359 19.9853 5.68359 17.6794C5.68359 15.6443 7.37407 13.9678 9.66948 13.9678H10.7559H11.3646L11.6441 13.4271C12.7316 11.3244 15.0253 9.84277 17.7206 9.84277H29.3608C32.0562 9.84277 34.3499 11.3244 35.4373 13.4271L35.7169 13.9678H36.3256H37.412C39.7074 13.9678 41.3979 15.6443 41.3979 17.6794C41.3979 19.9853 40.3748 21.9991 38.7049 23.7534C37.901 24.5088 36.8986 25.1725 35.7751 25.5746ZM28.5569 22.802C28.567 22.7729 28.5777 22.7504 28.5853 22.7367L28.587 22.735L28.6046 22.7146L29.8017 21.3278C30.3431 20.7202 30.6303 19.9099 30.3525 19.1026C30.0796 18.3095 29.3679 17.8333 28.5894 17.643L28.5842 17.6418L26.757 17.2055C26.7535 17.2042 26.7449 17.2008 26.7315 17.1941C26.7071 17.1818 26.6769 17.1638 26.6451 17.1409C26.6133 17.118 26.5866 17.095 26.5672 17.0757C26.5562 17.0648 26.5503 17.0578 26.5483 17.0554L26.5454 17.0509L26.539 17.0416L25.5108 15.5382L25.5105 15.5378C25.0538 14.8708 24.3623 14.4015 23.5407 14.4015C22.7191 14.4015 22.0277 14.8708 21.571 15.5378L21.5707 15.5382L20.5425 17.0416L20.5361 17.0509L20.5332 17.0554C20.5312 17.0578 20.5253 17.0648 20.5143 17.0757C20.4949 17.095 20.4682 17.118 20.4364 17.1409C20.4046 17.1638 20.3744 17.1818 20.35 17.1941C20.3365 17.2008 20.328 17.2042 20.3245 17.2055L18.4972 17.6418L18.4972 17.6418L18.492 17.643C17.7136 17.8333 17.0019 18.3095 16.729 19.1026C16.4512 19.9099 16.7384 20.7202 17.2797 21.3277L18.4769 22.7146L18.4945 22.735L18.4961 22.7367C18.5038 22.7504 18.5144 22.7729 18.5246 22.802C18.5348 22.8315 18.5412 22.8582 18.5444 22.8775C18.545 22.8813 18.5454 22.8844 18.5457 22.8867L18.4301 24.6706C18.3734 25.4867 18.6558 26.2852 19.3479 26.7591C20.0235 27.2218 20.8647 27.2202 21.6189 26.9403L21.6211 26.9395L23.3582 26.2901C23.365 26.2885 23.3794 26.2855 23.4023 26.2825C23.4407 26.2774 23.4886 26.274 23.5407 26.274C23.5929 26.274 23.6408 26.2774 23.6792 26.2825C23.702 26.2855 23.7165 26.2885 23.7233 26.2901L25.4604 26.9395L25.4625 26.9403C26.2167 27.2202 27.058 27.2218 27.7336 26.7591C28.4256 26.2852 28.7081 25.4867 28.6514 24.6706C28.6513 24.6695 28.6512 24.6684 28.6511 24.6674L28.5358 22.8867C28.5361 22.8844 28.5365 22.8813 28.5371 22.8775C28.5403 22.8582 28.5467 22.8315 28.5569 22.802Z" stroke="#A5F8FD" stroke-width="2"/>
</svg>
