<svg width="43" height="40" viewBox="0 0 43 40" fill="none" xmlns="http://www.w3.org/2000/svg">
<path d="M37.9874 37.8448C38.32 38.1484 38.7655 38.3164 39.228 38.3126C39.6904 38.3088 40.1327 38.1335 40.4597 37.8245C40.7867 37.5155 40.9722 37.0975 40.9762 36.6605C40.9803 36.2235 40.8025 35.8025 40.4812 35.4882L37.9874 37.8448ZM30.416 16.6665C30.416 19.7607 29.1153 22.7282 26.8 24.9161C24.4847 27.104 21.3446 28.3332 18.0703 28.3332V31.6665C22.2801 31.6665 26.3174 30.0861 29.2942 27.2731C32.271 24.4601 33.9433 20.6448 33.9433 16.6665H30.416ZM18.0703 28.3332C14.796 28.3332 11.6558 27.104 9.34057 24.9161C7.0253 22.7282 5.7246 19.7607 5.7246 16.6665H2.19727C2.19727 20.6448 3.8696 24.4601 6.84636 27.2731C9.82313 30.0861 13.8605 31.6665 18.0703 31.6665V28.3332ZM5.7246 16.6665C5.7246 13.5723 7.0253 10.6048 9.34057 8.41692C11.6558 6.229 14.796 4.99984 18.0703 4.99984V1.6665C13.8605 1.6665 9.82313 3.24686 6.84636 6.0599C3.8696 8.87295 2.19727 12.6883 2.19727 16.6665H5.7246ZM18.0703 4.99984C21.3446 4.99984 24.4847 6.229 26.8 8.41692C29.1153 10.6048 30.416 13.5723 30.416 16.6665H33.9433C33.9433 12.6883 32.271 8.87295 29.2942 6.0599C26.3174 3.24686 22.2801 1.6665 18.0703 1.6665V4.99984ZM26.5235 27.0115L37.9874 37.8448L40.4812 35.4882L29.0174 24.6548L26.5235 27.0115Z" fill="#A5F8FD"/>
</svg>
