<svg width="34" height="37" viewBox="0 0 34 37" fill="none" xmlns="http://www.w3.org/2000/svg">
<rect x="5.13477" y="7.10938" width="14.2282" height="0.83181" rx="0.415905" fill="#A8F4F8"/>
<rect x="1.66797" y="1" width="21.1645" height="25.5283" stroke="#A8F4F8" stroke-width="2" stroke-linejoin="round"/>
<rect x="5.13477" y="9.60547" width="14.2282" height="0.83181" rx="0.415905" fill="#A8F4F8"/>
<rect x="5.13477" y="12.1006" width="14.2282" height="0.83181" rx="0.415905" fill="#A8F4F8"/>
<rect x="5.13477" y="14.5962" width="14.2282" height="0.83181" rx="0.415905" fill="#A8F4F8"/>
<rect x="5.13477" y="17.0918" width="14.2282" height="0.83181" rx="0.415905" fill="#A8F4F8"/>
<rect x="5.13477" y="19.5869" width="14.2282" height="0.83181" rx="0.415905" fill="#A8F4F8"/>
<path d="M31.1342 34.7981C32.4349 33.5815 32.4349 31.5962 31.1422 30.3871L20.8011 20.7141C20.4421 20.3782 19.7479 20.0125 19.2532 19.8931L17.5137 19.49C15.5109 19.0198 14.2741 20.1767 14.7768 22.0501L15.2077 23.6772C15.3354 24.1399 15.7263 24.7893 16.0854 25.1251L26.4265 34.7981C27.7191 36.0073 29.8416 36.0073 31.1342 34.7981Z" fill="white" stroke="#A8F4F8" stroke-width="2" stroke-linecap="round"/>
</svg>
