<svg width="157" height="32" viewBox="0 0 157 32" fill="none" xmlns="http://www.w3.org/2000/svg">
<g clip-path="url(#clip0_123_148)">
<path d="M0 15.8857V31.7334H3.28289H6.56582V18.9714V6.20952H9.46249C14.0199 6.20952 16.2214 7.54286 16.2214 10.2857C16.2214 13.0667 14.9855 14.2857 11.4708 14.7809L9.65559 15.0476V18.0571V21.0667L13.402 26.4L17.1483 31.7334H23.5596H29.9323L33.7559 21.2952C35.8415 15.5429 37.6568 10.6667 37.8112 10.4762C37.9271 10.2857 39.8583 14.9714 42.0598 20.9143L46.0766 31.7334H49.4753H52.9128L52.3334 30.2857C52.0244 29.5237 49.2821 22.4381 46.231 14.5905L40.7467 0.304761L38.0044 0.190476L35.2621 0.0761906L29.5461 14.9333C26.4177 23.1238 23.7142 29.7143 23.521 29.6C23.2507 29.4477 17.8049 21.9429 16.9166 20.4571C16.7235 20.1524 17.2642 19.5809 18.4615 18.819C21.6672 16.7619 23.0962 13.4857 22.6327 9.21904C22.2465 5.29524 20.3926 2.78095 16.8007 1.21905C15.1013 0.457143 14.0199 0.342858 7.45411 0.190476L0 0V15.8857Z" fill="#DBA7A9"/>
<path d="M47.1191 0.419018C47.1191 0.571401 49.5523 4.64758 52.5261 9.40949L57.9333 18.1333V24.9143V31.7334H61.0232H64.1128V24.9143V18.0952L69.4427 9.56186C72.3782 4.91426 74.9273 0.838067 75.0817 0.571401C75.2749 0.228544 74.5023 0.114258 71.5671 0.114258H67.782L64.4992 5.63806C62.6839 8.64758 61.1391 11.1619 61.0232 11.1619C60.9073 11.1619 59.3622 8.64758 57.5472 5.63806L54.2641 0.114258H50.711C48.7413 0.114258 47.1191 0.266639 47.1191 0.419018Z" fill="#DBA7A9"/>
<path d="M75.6992 15.9238V31.7334H78.7891H81.879L81.956 21.9809L82.0719 12.2286L89.1398 21.9809L96.2077 31.7334H99.0659H101.963V15.9238V0.0761719L98.7956 0.190458L95.5898 0.304742L95.3966 9.98093L95.2037 19.619L88.2517 9.98093L81.2997 0.304742L78.48 0.190458L75.6992 0.0761719V15.9238Z" fill="#DBA7A9"/>
<path d="M115.983 0.837741C106.83 4.19013 102.581 14.2473 106.752 22.8568C109.881 29.2568 116.988 32.914 123.862 31.7331C127.84 31.0474 132.089 28.6854 133.981 26.0568L134.754 24.9901L132.166 23.2377L129.617 21.4473L128.227 22.7806C124.094 26.7425 117.567 26.5139 113.898 22.2473C109.379 17.0663 111.812 8.68536 118.339 6.78059C119.382 6.47584 120.695 6.20916 121.275 6.20916C123.321 6.20916 126.18 7.35202 127.956 8.87585L129.733 10.4377L132.243 8.79965C133.634 7.88536 134.792 7.04727 134.792 6.93299C134.792 6.20916 130.428 2.59012 128.265 1.56155C126.025 0.456787 125.33 0.304407 121.892 0.190122C118.803 0.113931 117.567 0.266312 115.983 0.837741Z" fill="#DBA7A9"/>
<path d="M135.951 3.16188V6.20951H146.379H156.807V3.16188V0.114258H146.379H135.951V3.16188Z" fill="#DBA7A9"/>
<path d="M135.951 16.1145V19.1622H146.379H156.807V16.1145V13.0669H146.379H135.951V16.1145Z" fill="#DBA7A9"/>
<path d="M33.293 24.419C33.3704 24.6095 34.4517 26.3238 35.6877 28.2285L38.0051 31.7334L40.168 28.3809C41.3652 26.5523 42.4466 24.8381 42.6398 24.5714C42.8715 24.2285 41.8287 24.1143 38.0436 24.1143C35.3401 24.1143 33.216 24.2666 33.293 24.419Z" fill="#A4F9FE"/>
<path d="M135.951 28.8763V31.7334H146.379H156.807V28.8763V26.019H146.379H135.951V28.8763Z" fill="#DBA7A9"/>
</g>
<defs>
<clipPath id="clip0_123_148">
<rect width="157" height="32" fill="white"/>
</clipPath>
</defs>
</svg>
