<svg width="116" height="140" viewBox="0 0 116 140" fill="none" xmlns="http://www.w3.org/2000/svg">
<g clip-path="url(#clip0_1_409)">
<path d="M107.954 52.361L91.7544 31.1425C90.046 28.9029 87.4182 27.5923 84.637 27.5923H59.6025C56.8213 27.5923 54.1935 28.9029 52.4851 31.1425L36.2852 52.361C37.4076 69.3349 45.4129 83.4898 58.5973 89.2106V89.206C62.7036 90.9811 67.2336 91.9744 72.1198 91.9744C77.0059 91.9744 81.5359 90.9811 85.6422 89.2014V89.206C98.8266 83.4898 106.827 69.3349 107.954 52.361ZM58.5973 64.3821C56.1092 64.3821 54.0898 62.3219 54.0898 59.7834C54.0898 57.2449 56.1092 55.1846 58.5973 55.1846C61.0854 55.1846 63.1048 57.2449 63.1048 59.7834C63.1048 62.3219 61.0854 64.3821 58.5973 64.3821ZM85.6422 64.3821C83.1541 64.3821 81.1347 62.3219 81.1347 59.7834C81.1347 57.2449 83.1541 55.1846 85.6422 55.1846C88.1303 55.1846 90.1497 57.2449 90.1497 59.7834C90.1497 62.3219 88.1303 64.3821 85.6422 64.3821ZM36.0599 45.1686V22.9936C36.0599 12.835 44.1328 4.59869 54.0898 4.59869H90.1497C100.107 4.59869 108.18 12.835 108.18 22.9936V45.1686L95.3108 28.3189C92.7505 24.9572 88.811 22.9936 84.637 22.9936H59.598C55.424 22.9936 51.4845 24.9572 48.9242 28.3189L36.0599 45.1686ZM124.916 131.408L123.392 124.257C122.171 117.419 117.37 111.933 110.979 109.983L89.6313 102.046L85.7549 105.467C81.9641 108.829 77.096 110.687 72.0476 110.687C67.0173 110.687 62.1672 108.843 58.3854 105.485L54.5451 102.101L33.405 109.937C26.8826 111.937 22.0686 117.424 20.8516 124.267L19.5174 131.717C18.5077 137.364 22.7583 142.56 28.3836 142.56H116.104C121.855 142.56 126.137 137.143 124.916 131.408ZM108.18 128.764C108.18 131.303 106.16 133.363 103.672 133.363H90.1497C87.6616 133.363 85.6422 131.303 85.6422 128.764V124.165C85.6422 121.627 87.6616 119.567 90.1497 119.567H103.672C106.16 119.567 108.18 121.627 108.18 124.165V128.764ZM72.1198 96.5731C76.9563 96.5731 81.4773 95.7224 85.6422 94.1864V99.4841L82.8025 101.995C76.8616 107.261 67.2787 107.274 61.3424 102.013L58.5973 99.5945V94.191C62.7622 95.7224 67.2832 96.5731 72.1198 96.5731ZM90.1497 124.165H103.672V128.764H90.1497V124.165Z" fill="url(#paint0_linear_1_409)"/>
</g>
<defs>
<linearGradient id="paint0_linear_1_409" x1="-8.14818" y1="21.4815" x2="99.2592" y2="142.222" gradientUnits="userSpaceOnUse">
<stop stop-color="#414141"/>
<stop offset="1" stop-color="#262626"/>
</linearGradient>
<clipPath id="clip0_1_409">
<rect width="115.556" height="140" fill="white"/>
</clipPath>
</defs>
</svg>
