<svg width="110" height="110" viewBox="0 0 110 110" fill="none" xmlns="http://www.w3.org/2000/svg">
<circle opacity="0.1" cx="55" cy="55" r="54.5" stroke="white"/>
<circle cx="55" cy="55" r="45" fill="white"/>
<path d="M41.9552 45.1093C41.4807 44.8694 40.9067 44.8814 40.444 45.1409C39.9813 45.4003 39.698 45.869 39.698 46.375V64.5834C39.698 65.3773 40.3836 66.0209 41.2292 66.0209C42.0749 66.0209 42.7605 65.3773 42.7605 64.5834V48.7817L53.7741 54.349C54.2273 54.5782 54.7728 54.5782 55.2261 54.349L66.2397 48.7817V64.5834C66.2397 65.3773 66.9253 66.0209 67.7709 66.0209C68.6166 66.0209 69.3022 65.3773 69.3022 64.5834V46.375C69.3022 45.869 69.0188 45.4003 68.5561 45.1409C68.0935 44.8814 67.5196 44.8694 67.0449 45.1093L54.5001 51.4508L41.9552 45.1093Z" fill="black"/>
<path fill-rule="evenodd" clip-rule="evenodd" d="M65.3424 39.1333C58.1285 38.5278 50.8714 38.5278 43.6575 39.1333L40.5596 39.3934C37.2365 39.6723 34.5516 42.0555 34.069 45.1546C33.0522 51.6835 33.0522 58.3163 34.069 64.845C34.5516 67.9441 37.2365 70.3273 40.5596 70.6063L43.6575 70.8662C50.8714 71.4719 58.1285 71.4719 65.3424 70.8662L68.4402 70.6063C71.7634 70.3273 74.4482 67.9441 74.9309 64.845C75.9476 58.3163 75.9476 51.6835 74.9309 45.1546C74.4482 42.0555 71.7634 39.6723 68.4402 39.3934L65.3424 39.1333ZM43.9302 41.9969C50.9627 41.4066 58.0371 41.4066 65.0696 41.9969L68.1676 42.2569C70.0788 42.4174 71.6229 43.7881 71.9006 45.5705C72.8745 51.8234 72.8745 58.1762 71.9006 64.4291C71.6229 66.2116 70.0788 67.5822 68.1676 67.7427L65.0696 68.0027C58.0371 68.5931 50.9627 68.5931 43.9302 68.0027L40.8323 67.7427C38.9211 67.5822 37.3768 66.2116 37.0992 64.4291C36.1254 58.1762 36.1254 51.8234 37.0992 45.5705C37.3768 43.7881 38.9211 42.4174 40.8323 42.2569L43.9302 41.9969Z" fill="black"/>
</svg>
