<svg width="114" height="58" viewBox="0 0 114 58" fill="none" xmlns="http://www.w3.org/2000/svg">
<path d="M4.01517 41.505L3.9271 15.2652L8.64708 15.2493L8.73515 41.4892L12.6151 41.4762L12.6209 43.1962L0.140968 43.238L0.135195 41.5181L4.01517 41.505ZM11.8761 41.4786L11.788 15.2388L16.508 15.223L32.818 36.0483L32.7479 15.1684L37.4679 15.1526L37.5559 41.3925L41.4359 41.3794L41.4417 43.0994L32.4417 43.1296L16.5333 22.7829L16.6018 43.1828L8.00186 43.2117L7.99609 41.4917L11.8761 41.4786ZM40.7134 41.3819L40.6253 15.142L60.2652 15.0761L60.2801 19.5161L45.3602 19.5661L45.385 26.9661L58.785 26.9211L58.7991 31.1211L45.3991 31.1661L45.4242 38.646L60.8242 38.5943L60.8333 41.3143L64.7133 41.3013L64.719 43.0213L36.8392 43.1149L36.8334 41.3949L40.7134 41.3819ZM56.291 43.0496L56.2852 41.3296L60.1252 41.3167L68.5627 28.6483L59.5971 15.0783L65.4371 15.0587L71.7087 24.4777L71.9087 24.4771L78.117 15.0162L83.957 14.9966L75.0827 28.6264L83.565 41.238L87.445 41.225L87.4508 42.945L78.8508 42.9739L71.9356 32.477L71.7356 32.4777L64.8909 43.0207L56.291 43.0496ZM84.5991 41.2346L84.511 14.9947L89.231 14.9789L89.3191 41.2187L93.199 41.2057L93.2048 42.9257L80.7249 42.9676L80.7191 41.2476L84.5991 41.2346ZM112.74 41.1401L112.746 42.8601L88.5858 42.9412L88.58 41.2212L98.3 41.1886L98.2264 19.2687L89.7464 19.2972L89.7319 14.9772L111.412 14.9044L111.426 19.2244L102.946 19.2529L103.02 41.1727L112.74 41.1401Z" fill="white"/>
</svg>
