<svg width="562" height="174" viewBox="0 0 562 174" fill="none" xmlns="http://www.w3.org/2000/svg">
<path d="M100.128 119.576C95.072 119.576 90.4 118.744 86.112 117.08C81.824 115.352 78.112 112.952 74.976 109.88C71.84 106.808 69.376 103.192 67.584 99.032C65.856 94.872 64.992 90.328 64.992 85.4C64.992 80.472 65.856 75.928 67.584 71.768C69.376 67.608 71.84 63.992 74.976 60.92C78.176 57.848 81.92 55.48 86.208 53.816C90.496 52.088 95.168 51.224 100.224 51.224C105.088 51.224 109.664 52.056 113.952 53.72C118.24 55.32 121.856 57.752 124.8 61.016L120.288 65.528C117.536 62.712 114.496 60.696 111.168 59.48C107.84 58.2 104.256 57.56 100.416 57.56C96.384 57.56 92.64 58.264 89.184 59.672C85.728 61.016 82.72 62.968 80.16 65.528C77.6 68.024 75.584 70.968 74.112 74.36C72.704 77.688 72 81.368 72 85.4C72 89.432 72.704 93.144 74.112 96.536C75.584 99.864 77.6 102.808 80.16 105.368C82.72 107.864 85.728 109.816 89.184 111.224C92.64 112.568 96.384 113.24 100.416 113.24C104.256 113.24 107.84 112.6 111.168 111.32C114.496 110.04 117.536 107.992 120.288 105.176L124.8 109.688C121.856 112.952 118.24 115.416 113.952 117.08C109.664 118.744 105.056 119.576 100.128 119.576ZM158.718 119.48C153.854 119.48 149.47 118.392 145.566 116.216C141.726 113.976 138.686 110.936 136.446 107.096C134.206 103.192 133.086 98.744 133.086 93.752C133.086 88.696 134.206 84.248 136.446 80.408C138.686 76.568 141.726 73.56 145.566 71.384C149.406 69.208 153.79 68.12 158.718 68.12C163.71 68.12 168.126 69.208 171.966 71.384C175.87 73.56 178.91 76.568 181.086 80.408C183.326 84.248 184.446 88.696 184.446 93.752C184.446 98.744 183.326 103.192 181.086 107.096C178.91 110.936 175.87 113.976 171.966 116.216C168.062 118.392 163.646 119.48 158.718 119.48ZM158.718 113.432C162.366 113.432 165.598 112.632 168.414 111.032C171.23 109.368 173.438 107.064 175.038 104.12C176.702 101.112 177.534 97.656 177.534 93.752C177.534 89.784 176.702 86.328 175.038 83.384C173.438 80.44 171.23 78.168 168.414 76.568C165.598 74.904 162.398 74.072 158.814 74.072C155.23 74.072 152.03 74.904 149.214 76.568C146.398 78.168 144.158 80.44 142.494 83.384C140.83 86.328 139.998 89.784 139.998 93.752C139.998 97.656 140.83 101.112 142.494 104.12C144.158 107.064 146.398 109.368 149.214 111.032C152.03 112.632 155.198 113.432 158.718 113.432ZM226.009 68.12C230.105 68.12 233.689 68.92 236.761 70.52C239.897 72.056 242.329 74.424 244.057 77.624C245.849 80.824 246.745 84.856 246.745 89.72V119H239.929V90.392C239.929 85.08 238.585 81.08 235.897 78.392C233.273 75.64 229.561 74.264 224.761 74.264C221.177 74.264 218.041 75 215.353 76.472C212.729 77.88 210.681 79.96 209.209 82.712C207.801 85.4 207.097 88.664 207.097 92.504V119H200.281V68.6H206.809V82.424L205.753 79.832C207.353 76.184 209.913 73.336 213.433 71.288C216.953 69.176 221.145 68.12 226.009 68.12ZM283.012 119.48C278.276 119.48 274.628 118.2 272.068 115.64C269.508 113.08 268.228 109.464 268.228 104.792V57.464H275.044V104.408C275.044 107.352 275.78 109.624 277.252 111.224C278.788 112.824 280.964 113.624 283.78 113.624C286.788 113.624 289.284 112.76 291.268 111.032L293.668 115.928C292.324 117.144 290.692 118.04 288.772 118.616C286.916 119.192 284.996 119.48 283.012 119.48ZM259.204 74.264V68.6H290.404V74.264H259.204ZM339.58 119V107.864L339.292 106.04V87.416C339.292 83.128 338.076 79.832 335.644 77.528C333.276 75.224 329.724 74.072 324.988 74.072C321.724 74.072 318.62 74.616 315.676 75.704C312.732 76.792 310.236 78.232 308.188 80.024L305.116 74.936C307.676 72.76 310.748 71.096 314.332 69.944C317.916 68.728 321.692 68.12 325.66 68.12C332.188 68.12 337.212 69.752 340.732 73.016C344.316 76.216 346.108 81.112 346.108 87.704V119H339.58ZM322.204 119.48C318.428 119.48 315.132 118.872 312.316 117.656C309.564 116.376 307.452 114.648 305.98 112.472C304.508 110.232 303.772 107.672 303.772 104.792C303.772 102.168 304.38 99.8 305.596 97.688C306.876 95.512 308.924 93.784 311.74 92.504C314.62 91.16 318.46 90.488 323.26 90.488H340.636V95.576H323.452C318.588 95.576 315.196 96.44 313.276 98.168C311.42 99.896 310.492 102.04 310.492 104.6C310.492 107.48 311.612 109.784 313.852 111.512C316.092 113.24 319.228 114.104 323.26 114.104C327.1 114.104 330.396 113.24 333.148 111.512C335.964 109.72 338.012 107.16 339.292 103.832L340.828 108.536C339.548 111.864 337.308 114.52 334.108 116.504C330.972 118.488 327.004 119.48 322.204 119.48ZM387.47 119.48C382.478 119.48 377.998 118.392 374.03 116.216C370.126 113.976 367.054 110.936 364.814 107.096C362.574 103.192 361.454 98.744 361.454 93.752C361.454 88.696 362.574 84.248 364.814 80.408C367.054 76.568 370.126 73.56 374.03 71.384C377.998 69.208 382.478 68.12 387.47 68.12C391.758 68.12 395.63 68.952 399.086 70.616C402.542 72.28 405.262 74.776 407.246 78.104L402.158 81.56C400.43 79 398.286 77.112 395.726 75.896C393.166 74.68 390.382 74.072 387.374 74.072C383.79 74.072 380.558 74.904 377.678 76.568C374.798 78.168 372.526 80.44 370.862 83.384C369.198 86.328 368.366 89.784 368.366 93.752C368.366 97.72 369.198 101.176 370.862 104.12C372.526 107.064 374.798 109.368 377.678 111.032C380.558 112.632 383.79 113.432 387.374 113.432C390.382 113.432 393.166 112.824 395.726 111.608C398.286 110.392 400.43 108.536 402.158 106.04L407.246 109.496C405.262 112.76 402.542 115.256 399.086 116.984C395.63 118.648 391.758 119.48 387.47 119.48ZM439.054 119.48C434.318 119.48 430.67 118.2 428.11 115.64C425.55 113.08 424.27 109.464 424.27 104.792V57.464H431.086V104.408C431.086 107.352 431.822 109.624 433.294 111.224C434.83 112.824 437.006 113.624 439.822 113.624C442.83 113.624 445.326 112.76 447.31 111.032L449.71 115.928C448.366 117.144 446.734 118.04 444.814 118.616C442.958 119.192 441.038 119.48 439.054 119.48ZM415.246 74.264V68.6H446.446V74.264H415.246ZM477.574 119.48C473.414 119.48 469.478 118.904 465.766 117.752C462.054 116.536 459.142 115.032 457.03 113.24L460.102 107.864C462.15 109.4 464.774 110.744 467.974 111.896C471.174 112.984 474.534 113.528 478.054 113.528C482.854 113.528 486.31 112.792 488.422 111.32C490.534 109.784 491.59 107.768 491.59 105.272C491.59 103.416 490.982 101.976 489.766 100.952C488.614 99.864 487.078 99.064 485.158 98.552C483.238 97.976 481.094 97.496 478.726 97.112C476.358 96.728 473.99 96.28 471.622 95.768C469.318 95.256 467.206 94.52 465.286 93.56C463.366 92.536 461.798 91.16 460.582 89.432C459.43 87.704 458.854 85.4 458.854 82.52C458.854 79.768 459.622 77.304 461.158 75.128C462.694 72.952 464.934 71.256 467.878 70.04C470.886 68.76 474.534 68.12 478.822 68.12C482.086 68.12 485.35 68.568 488.614 69.464C491.878 70.296 494.566 71.416 496.678 72.824L493.702 78.296C491.462 76.76 489.062 75.672 486.502 75.032C483.942 74.328 481.382 73.976 478.822 73.976C474.278 73.976 470.918 74.776 468.742 76.376C466.63 77.912 465.574 79.896 465.574 82.328C465.574 84.248 466.15 85.752 467.302 86.84C468.518 87.928 470.086 88.792 472.006 89.432C473.99 90.008 476.134 90.488 478.438 90.872C480.806 91.256 483.142 91.736 485.446 92.312C487.814 92.824 489.958 93.56 491.878 94.52C493.862 95.416 495.43 96.728 496.582 98.456C497.798 100.12 498.406 102.328 498.406 105.08C498.406 108.024 497.574 110.584 495.91 112.76C494.31 114.872 491.942 116.536 488.806 117.752C485.734 118.904 481.99 119.48 477.574 119.48Z" fill="white"/>
<g opacity="0.5">
<path d="M521 0L523.036 5.96353L529 8L523.036 10.0365L521 16L518.964 10.0365L513 8L518.964 5.96353L521 0Z" fill="url(#paint0_radial_1_762)"/>
</g>
<path d="M547 32L550.818 43.1816L562 47L550.818 50.8184L547 62L543.182 50.8184L532 47L543.182 43.1816L547 32Z" fill="url(#paint1_radial_1_762)"/>
<path d="M15 142L11.1816 130.818L0 127L11.1816 123.182L15 112L18.8184 123.182L30 127L18.8184 130.818L15 142Z" fill="url(#paint2_radial_1_762)"/>
<g opacity="0.5">
<path d="M51 174L48.9635 168.036L43 166L48.9635 163.964L51 158L53.0365 163.964L59 166L53.0365 168.036L51 174Z" fill="url(#paint3_radial_1_762)"/>
</g>
<defs>
<radialGradient id="paint0_radial_1_762" cx="0" cy="0" r="1" gradientUnits="userSpaceOnUse" gradientTransform="translate(521 8) rotate(90) scale(8)">
<stop stop-color="#2EECC5"/>
<stop offset="1" stop-color="#05725B"/>
</radialGradient>
<radialGradient id="paint1_radial_1_762" cx="0" cy="0" r="1" gradientUnits="userSpaceOnUse" gradientTransform="translate(547 47) rotate(90) scale(15)">
<stop stop-color="#2EECC5"/>
<stop offset="1" stop-color="#02896D"/>
</radialGradient>
<radialGradient id="paint2_radial_1_762" cx="0" cy="0" r="1" gradientUnits="userSpaceOnUse" gradientTransform="translate(15 127) rotate(-90) scale(15)">
<stop stop-color="#2EECC5"/>
<stop offset="1" stop-color="#0F826A"/>
</radialGradient>
<radialGradient id="paint3_radial_1_762" cx="0" cy="0" r="1" gradientUnits="userSpaceOnUse" gradientTransform="translate(51 166) rotate(-90) scale(8)">
<stop stop-color="#2EECC5"/>
<stop offset="1" stop-color="#05B691"/>
</radialGradient>
</defs>
</svg>
