<svg width="149" height="140" viewBox="0 0 149 140" fill="none" xmlns="http://www.w3.org/2000/svg">
<g clip-path="url(#clip0_1_401)">
<path d="M77.4074 0C62.0977 0 47.1318 4.60503 34.4022 13.2328C21.6726 21.8605 11.7511 34.1234 5.89232 48.4708C0.0335393 62.8182 -1.49939 78.6056 1.4874 93.8367C4.47418 109.068 11.8465 123.058 22.6721 134.039C33.4978 145.021 47.2904 152.499 62.306 155.528C77.3216 158.558 92.8856 157.003 107.03 151.06C121.174 145.117 133.264 135.053 141.769 122.141C150.275 109.229 154.815 94.048 154.815 78.5185C154.815 57.6941 146.659 37.7226 132.143 22.9975C117.626 8.27246 97.9372 0 77.4074 0ZM77.4074 137.407C65.9251 137.407 54.7007 133.954 45.1535 127.483C35.6063 121.012 28.1652 111.815 23.7711 101.054C19.377 90.2938 18.2273 78.4532 20.4674 67.0299C22.7075 55.6065 28.2367 45.1135 36.356 36.8778C44.4752 28.642 54.8197 23.0334 66.0814 20.7612C77.343 18.4889 89.0161 19.6551 99.6243 24.1123C110.233 28.5694 119.3 36.1174 125.679 45.8016C132.058 55.4858 135.463 66.8714 135.463 78.5185C135.446 94.1316 129.324 109.1 118.441 120.141C107.557 131.181 92.7996 137.391 77.4074 137.407Z" fill="url(#paint0_linear_1_401)"/>
<path d="M96.8561 78.5185H82.2455C80.9624 78.5185 79.7318 78.0015 78.8245 77.0812C77.9172 76.1609 77.4075 74.9127 77.4075 73.6111V58.7908C77.4082 57.5146 77.1608 56.2508 76.6796 55.0716C76.1985 53.8924 75.4929 52.821 74.6033 51.9186C73.7136 51.0162 72.6574 50.3005 71.4949 49.8124C70.3324 49.3243 69.0865 49.0735 67.8284 49.0741H67.6348C66.3767 49.0735 65.1308 49.3243 63.9683 49.8124C62.8058 50.3005 61.7496 51.0162 60.8599 51.9186C59.9703 52.821 59.2647 53.8924 58.7835 55.0716C58.3024 56.2508 58.055 57.5146 58.0557 58.7908V88.4315C58.055 89.7077 58.3024 90.9715 58.7835 92.1507C59.2647 93.3298 59.9703 94.4013 60.8599 95.3037C61.7496 96.2061 62.8058 96.9218 63.9683 97.4098C65.1308 97.8979 66.3767 98.1488 67.6348 98.1482H96.8561C98.1143 98.1488 99.3602 97.8979 100.523 97.4098C101.685 96.9218 102.741 96.2061 103.631 95.3037C104.521 94.4013 105.226 93.3298 105.707 92.1507C106.189 90.9715 106.436 89.7077 106.435 88.4315V88.2352C106.436 86.959 106.189 85.6952 105.707 84.516C105.226 83.3369 104.521 82.2655 103.631 81.363C102.741 80.4606 101.685 79.7449 100.523 79.2569C99.3602 78.7688 98.1143 78.5179 96.8561 78.5185Z" fill="url(#paint1_linear_1_401)"/>
</g>
<defs>
<linearGradient id="paint0_linear_1_401" x1="28.1481" y1="21.4815" x2="131.852" y2="129.63" gradientUnits="userSpaceOnUse">
<stop stop-color="#414141"/>
<stop offset="0.728332" stop-color="#262626"/>
</linearGradient>
<linearGradient id="paint1_linear_1_401" x1="57.7779" y1="48.8889" x2="101.482" y2="102.963" gradientUnits="userSpaceOnUse">
<stop stop-color="#404040"/>
<stop offset="1" stop-color="#282828"/>
</linearGradient>
<clipPath id="clip0_1_401">
<rect width="148.148" height="140" fill="white"/>
</clipPath>
</defs>
</svg>
