<svg width="230" height="12" viewBox="0 0 230 12" fill="none" xmlns="http://www.w3.org/2000/svg">
<path fill-rule="evenodd" clip-rule="evenodd" d="M5.66229 0.333008H6.21292C9.34012 0.333008 11.8752 2.53009 11.8752 5.24032V5.93715C11.8752 8.64739 9.34012 10.8445 6.21292 10.8445H5.66229C2.53509 10.8445 0 8.64739 0 5.93715V5.24032C0 2.53009 2.53509 0.333008 5.66229 0.333008ZM21.2704 0.333008H30.831C34.0255 0.333008 36.6152 2.57736 36.6152 5.3459V5.83158C36.6152 8.60012 34.0255 10.8445 30.831 10.8445H21.2704C18.076 10.8445 15.4863 8.60012 15.4863 5.83158V5.3459C15.4863 2.57736 18.076 0.333008 21.2704 0.333008ZM42.7205 0.333008H42.4963C41.2422 0.333008 40.2256 1.2141 40.2256 2.30099V8.87646C40.2256 9.96335 41.2422 10.8445 42.4963 10.8445H42.7205C43.9746 10.8445 44.9913 9.96335 44.9913 8.87646V2.30099C44.9913 1.2141 43.9746 0.333008 42.7205 0.333008ZM52.3152 0.333008H52.6953C54.8832 0.333008 56.6569 1.87021 56.6569 3.76644V7.41104C56.6569 9.30727 54.8832 10.8445 52.6953 10.8445H52.3152C50.1272 10.8445 48.3535 9.30727 48.3535 7.41104V3.76644C48.3535 1.87021 50.1272 0.333008 52.3152 0.333008Z" fill="url(#paint0_linear_110_34)"/>
<path d="M71.3679 11.1298C70.5382 11.1298 69.7461 10.9949 68.9918 10.7251C68.2483 10.4449 67.6664 10.0869 67.2461 9.65101L67.6179 9.0595C68.0166 9.46422 68.55 9.7963 69.2181 10.0557C69.897 10.3048 70.6082 10.4293 71.3518 10.4293C72.4294 10.4293 73.243 10.2321 73.7925 9.8378C74.3421 9.44346 74.6169 8.92978 74.6169 8.29676C74.6169 7.80902 74.4714 7.41986 74.1805 7.1293C73.8895 6.83873 73.5285 6.61561 73.0975 6.45995C72.6664 6.30429 72.0845 6.14344 71.3518 5.9774C70.522 5.78023 69.8539 5.58825 69.3474 5.40145C68.8517 5.21466 68.4261 4.92928 68.0705 4.54532C67.7256 4.15097 67.5532 3.62691 67.5532 2.97313C67.5532 2.44388 67.6987 1.96133 67.9896 1.52548C68.2806 1.07925 68.7224 0.72642 69.3151 0.466985C69.9186 0.207549 70.6675 0.0778307 71.5619 0.0778307C72.1869 0.0778307 72.8011 0.166039 73.4046 0.342455C74.0081 0.518872 74.5307 0.757553 74.9725 1.0585L74.6654 1.69671C74.2128 1.39576 73.7117 1.16746 73.1621 1.0118C72.6233 0.856138 72.0899 0.778308 71.5619 0.778308C70.5166 0.778308 69.7246 0.980667 69.1858 1.38539C68.647 1.79011 68.3776 2.31417 68.3776 2.95757C68.3776 3.44531 68.5231 3.83446 68.814 4.12503C69.105 4.4156 69.466 4.63871 69.897 4.79437C70.328 4.95004 70.9153 5.11607 71.6589 5.29249C72.4886 5.48966 73.1514 5.68164 73.6471 5.86844C74.1428 6.05523 74.563 6.34061 74.9079 6.72458C75.2635 7.09816 75.4413 7.60666 75.4413 8.25006C75.4413 8.77931 75.2904 9.26186 74.9887 9.69771C74.6977 10.1336 74.2451 10.4812 73.6309 10.7406C73.0167 11.0001 72.2623 11.1298 71.3679 11.1298Z" fill="#030303"/>
<path d="M84.8063 0.155661C86.2288 0.155661 87.3441 0.482551 88.1523 1.13633C88.9605 1.77973 89.3646 2.67738 89.3646 3.82927C89.3646 4.97079 88.9605 5.86844 88.1523 6.52222C87.3441 7.16562 86.2288 7.48732 84.8063 7.48732H81.5735V11.052H80.7491V0.155661H84.8063ZM84.8063 6.77127C86.0132 6.77127 86.9346 6.51703 87.5704 6.00853C88.2062 5.50004 88.5241 4.77362 88.5241 3.82927C88.5241 2.88493 88.2062 2.15851 87.5704 1.65001C86.9346 1.13114 86.0132 0.871704 84.8063 0.871704H81.5735V6.77127H84.8063Z" fill="#030303"/>
<path d="M102.459 10.3359V11.052H94.6515V0.155661H102.216V0.871704H95.4759V5.16796H101.505V5.86844H95.4759V10.3359H102.459Z" fill="#030303"/>
<path d="M112.691 11.1298C111.581 11.1298 110.579 10.8911 109.685 10.4138C108.801 9.93639 108.101 9.27742 107.583 8.43685C107.077 7.59628 106.824 6.65193 106.824 5.60381C106.824 4.55569 107.077 3.61135 107.583 2.77077C108.101 1.9302 108.801 1.27124 109.685 0.793873C110.579 0.316512 111.581 0.0778307 112.691 0.0778307C113.51 0.0778307 114.265 0.207549 114.954 0.466985C115.644 0.716043 116.231 1.08963 116.716 1.58775L116.199 2.10143C115.294 1.2401 114.135 0.809439 112.724 0.809439C111.775 0.809439 110.913 1.01699 110.137 1.43209C109.361 1.84718 108.753 2.42313 108.311 3.15993C107.869 3.88635 107.648 4.70098 107.648 5.60381C107.648 6.50665 107.869 7.32647 108.311 8.06326C108.753 8.78968 109.361 9.36044 110.137 9.77554C110.913 10.1906 111.775 10.3982 112.724 10.3982C114.124 10.3982 115.283 9.96233 116.199 9.09063L116.716 9.60431C116.231 10.1024 115.638 10.4812 114.938 10.7406C114.248 11.0001 113.499 11.1298 112.691 11.1298Z" fill="#030303"/>
<path d="M124.007 0.871704H119.933V0.155661H128.904V0.871704H124.831V11.052H124.007V0.871704Z" fill="#030303"/>
<path d="M141.31 11.052L138.61 7.40949C138.212 7.46137 137.845 7.48732 137.511 7.48732H134.278V11.052H133.454V0.155661H137.511C138.934 0.155661 140.049 0.482551 140.857 1.13633C141.665 1.77973 142.07 2.67738 142.07 3.82927C142.07 4.6906 141.838 5.41702 141.374 6.00853C140.922 6.58967 140.27 6.99958 139.419 7.23826L142.247 11.052H141.31ZM137.511 6.78684C138.718 6.78684 139.64 6.53259 140.275 6.0241C140.911 5.50523 141.229 4.77362 141.229 3.82927C141.229 2.88493 140.911 2.15851 140.275 1.65001C139.64 1.13114 138.718 0.871704 137.511 0.871704H134.278V6.78684H137.511Z" fill="#030303"/>
<path d="M152.022 11.1298C150.589 11.1298 149.474 10.7303 148.676 9.9312C147.89 9.13214 147.496 7.96468 147.496 6.42882V0.155661H148.321V6.39769C148.321 7.73638 148.638 8.7378 149.274 9.40195C149.91 10.0661 150.831 10.3982 152.038 10.3982C153.234 10.3982 154.15 10.0661 154.786 9.40195C155.422 8.7378 155.74 7.73638 155.74 6.39769V0.155661H156.564V6.42882C156.564 7.96468 156.166 9.13214 155.368 9.9312C154.571 10.7303 153.455 11.1298 152.022 11.1298Z" fill="#030303"/>
<path d="M173.617 11.052L173.601 1.72784L168.865 9.60431H168.46L163.724 1.75898V11.052H162.916V0.155661H163.611L168.671 8.57695L173.73 0.155661H174.409L174.425 11.052H173.617Z" fill="#030303"/>
<path d="M196.959 0.155661L193.209 11.052H190.978L188.182 2.9887L185.337 11.052H183.09L179.34 0.155661H181.522L184.334 8.43685L187.26 0.155661H189.2L192.061 8.48355L194.954 0.155661H196.959Z" fill="#030303"/>
<path d="M201.176 0.155661H203.277V11.052H201.176V0.155661Z" fill="#030303"/>
<path d="M212.351 11.2076C211.478 11.2076 210.632 11.0883 209.813 10.8496C209.005 10.6109 208.364 10.2944 207.889 9.90007L208.617 8.32789C209.08 8.68072 209.646 8.97129 210.314 9.19959C210.993 9.41752 211.672 9.52648 212.351 9.52648C213.191 9.52648 213.816 9.39676 214.226 9.13733C214.646 8.87789 214.856 8.53544 214.856 8.10996C214.856 7.79864 214.738 7.54439 214.501 7.34722C214.274 7.13967 213.983 6.97882 213.628 6.86467C213.272 6.75052 212.787 6.6208 212.173 6.47552C211.311 6.27835 210.61 6.08117 210.072 5.884C209.544 5.68683 209.086 5.3807 208.698 4.9656C208.32 4.54013 208.132 3.96937 208.132 3.25332C208.132 2.65143 208.299 2.10662 208.633 1.61888C208.978 1.12076 209.49 0.72642 210.169 0.435852C210.858 0.145284 211.699 0 212.69 0C213.38 0 214.059 0.0830196 214.727 0.249059C215.395 0.415097 215.971 0.653778 216.456 0.965102L215.794 2.53728C215.298 2.25709 214.781 2.04435 214.242 1.89907C213.703 1.75379 213.18 1.68114 212.674 1.68114C211.844 1.68114 211.225 1.81605 210.815 2.08586C210.416 2.35568 210.217 2.7137 210.217 3.15993C210.217 3.47125 210.33 3.7255 210.557 3.92267C210.794 4.11984 211.09 4.2755 211.446 4.38965C211.801 4.50381 212.286 4.63352 212.9 4.77881C213.741 4.9656 214.43 5.16277 214.969 5.37032C215.508 5.56749 215.966 5.87363 216.343 6.28872C216.731 6.70382 216.925 7.2642 216.925 7.96987C216.925 8.57176 216.753 9.11657 216.408 9.60431C216.074 10.0921 215.562 10.4812 214.872 10.7718C214.183 11.0623 213.342 11.2076 212.351 11.2076Z" fill="#030303"/>
<path d="M230 9.35525V11.052H221.514V0.155661H229.774V1.85237H223.616V4.68541H229.079V6.35099H223.616V9.35525H230Z" fill="#030303"/>
<defs>
<linearGradient id="paint0_linear_110_34" x1="0" y1="0.333008" x2="55.7058" y2="14.1855" gradientUnits="userSpaceOnUse">
<stop stop-color="#22DCD9"/>
<stop offset="1" stop-color="#F73E94"/>
</linearGradient>
</defs>
</svg>
