<svg width="74" height="74" viewBox="0 0 74 74" fill="none" xmlns="http://www.w3.org/2000/svg">
<circle cx="37" cy="37" r="37" fill="#1C0C09"/>
<path d="M27.3878 51V48.1236L38.1903 36.2983C39.4581 34.9134 40.5021 33.7095 41.3224 32.6868C42.1428 31.6534 42.75 30.6839 43.1442 29.7784C43.549 28.8622 43.7514 27.9034 43.7514 26.902C43.7514 25.7514 43.4744 24.7553 42.9205 23.9137C42.3771 23.0721 41.6314 22.4222 40.6832 21.9641C39.7351 21.506 38.6697 21.277 37.4872 21.277C36.2301 21.277 35.1328 21.538 34.1953 22.06C33.2685 22.5714 32.5494 23.2905 32.038 24.2173C31.5373 25.1442 31.2869 26.2308 31.2869 27.4773H27.5156C27.5156 25.5597 27.9577 23.8764 28.842 22.4276C29.7262 20.9787 30.93 19.8494 32.4535 19.0398C33.9876 18.2301 35.7081 17.8253 37.6151 17.8253C39.5327 17.8253 41.2319 18.2301 42.7127 19.0398C44.1935 19.8494 45.3548 20.9414 46.1964 22.3157C47.038 23.69 47.4588 25.2188 47.4588 26.902C47.4588 28.1058 47.2404 29.283 46.8036 30.4336C46.3775 31.5735 45.6317 32.8466 44.5664 34.2528C43.5117 35.6484 42.0469 37.353 40.1719 39.3665L32.821 47.2287V47.4844H48.0341V51H27.3878Z" fill="#E25F6A"/>
</svg>
