<svg width="74" height="74" viewBox="0 0 74 74" fill="none" xmlns="http://www.w3.org/2000/svg">
<circle cx="37" cy="37" r="37" fill="#1C0C09"/>
<path d="M37.446 51.4474C35.3366 51.4474 33.4563 51.0852 31.805 50.3608C30.1644 49.6364 28.8594 48.6296 27.8899 47.3406C26.9311 46.0408 26.4091 44.5334 26.3239 42.8182H30.3509C30.4361 43.8729 30.7983 44.7837 31.4375 45.5508C32.0767 46.3072 32.913 46.8931 33.9464 47.3086C34.9798 47.7241 36.125 47.9318 37.3821 47.9318C38.7884 47.9318 40.0348 47.6868 41.1214 47.1967C42.2081 46.7067 43.0604 46.0249 43.6783 45.1513C44.2962 44.2777 44.6051 43.2656 44.6051 42.1151C44.6051 40.9112 44.3068 39.8512 43.7102 38.935C43.1136 38.0082 42.2401 37.2837 41.0895 36.7617C39.9389 36.2397 38.5327 35.9787 36.8707 35.9787H34.25V32.4631H36.8707C38.1705 32.4631 39.3104 32.2287 40.2905 31.7599C41.2813 31.2912 42.0536 30.6307 42.6076 29.7784C43.1722 28.9261 43.4545 27.9247 43.4545 26.7741C43.4545 25.6662 43.2095 24.7021 42.7195 23.8817C42.2294 23.0614 41.5369 22.4222 40.642 21.9641C39.7578 21.506 38.7138 21.277 37.5099 21.277C36.3807 21.277 35.3153 21.4847 34.3139 21.9002C33.3232 22.305 32.5135 22.8963 31.8849 23.674C31.2564 24.4411 30.9155 25.3679 30.8622 26.4545H27.027C27.0909 24.7393 27.6076 23.2372 28.5771 21.9482C29.5465 20.6484 30.8143 19.6364 32.3803 18.9119C33.957 18.1875 35.6882 17.8253 37.5739 17.8253C39.598 17.8253 41.3345 18.2354 42.7834 19.0558C44.2322 19.8654 45.3455 20.9361 46.1232 22.2678C46.9009 23.5994 47.2898 25.0376 47.2898 26.5824C47.2898 28.4254 46.805 29.9968 45.8356 31.2965C44.8768 32.5962 43.5717 33.4964 41.9205 33.9972V34.2528C43.9872 34.5937 45.6012 35.4727 46.7624 36.8896C47.9237 38.2958 48.5043 40.0376 48.5043 42.1151C48.5043 43.8942 48.0195 45.4922 47.0501 46.9091C46.0913 48.3153 44.7809 49.4233 43.119 50.233C41.457 51.0426 39.5661 51.4474 37.446 51.4474Z" fill="#E25F6A"/>
</svg>
