<svg width="70" height="70" viewBox="0 0 70 70" fill="none" xmlns="http://www.w3.org/2000/svg">
<circle cx="35" cy="35" r="35" fill="#D9D9D9"/>
<path d="M33.6449 15.0653C30.865 15.5569 28.7801 17.5909 28.2547 20.286C28.1699 20.6928 28.136 21.4894 28.136 22.9302V24.9812H24.5765H21V39.9991V55H34.6619H48.3237V39.9821V24.9812H44.7642H41.2047L41.1707 22.6081L41.1199 20.2521L40.8656 19.4893C40.1198 17.3197 38.6113 15.8789 36.4247 15.2348C35.645 15.0145 34.3568 14.9297 33.6449 15.0653ZM35.5772 16.1671C35.8314 16.2179 36.323 16.3535 36.645 16.4891C38.2045 17.0993 39.2384 18.1502 39.7978 19.6927C40.0181 20.3199 40.0181 20.3368 40.052 22.642L40.0859 24.9642H34.6619H29.2378L29.2717 22.642C29.2887 20.3368 29.3056 20.3199 29.526 19.6927C29.6446 19.3368 29.8819 18.8622 30.0175 18.6079C31.1023 16.8451 33.4923 15.7942 35.5772 16.1671ZM28.153 28.0322V29.9815H28.7123H29.2717V28.0322V26.0999H34.6619H40.069V28.0492V29.9984H40.6283H41.1877V28.0322V26.0999H44.2048H47.205V39.9991V53.8982H34.6619H22.1187V39.9991V26.0999H25.1359H28.153V28.0322Z" fill="black"/>
</svg>
