<svg width="40" height="34" viewBox="0 0 40 34" fill="none" xmlns="http://www.w3.org/2000/svg">
<g clip-path="url(#clip0_47_500)">
<path d="M16.6508 31.4225C16.8903 31.4366 17.1154 31.5417 17.28 31.7163C17.4445 31.8909 17.5362 32.1217 17.5362 32.3617C17.5362 32.6016 17.4445 32.8324 17.28 33.007C17.1154 33.1816 16.8903 33.2867 16.6508 33.3008C13.7487 33.3 10.8972 32.5407 8.37905 31.0982C5.86087 29.6557 3.76344 27.5801 2.29471 25.0771C0.825972 22.5741 0.036942 19.7307 0.00583933 16.8288C-0.0252634 13.9269 0.702642 11.0673 2.11739 8.53341C3.53214 5.99953 5.58459 3.87942 8.07128 2.38328C10.558 0.887132 13.3925 0.066908 16.2939 0.00392283C19.1953 -0.0590623 22.0628 0.637379 24.612 2.0242C27.1613 3.41102 29.3038 5.44006 30.8272 7.91016L31.0258 6.93359C31.0383 6.81007 31.0763 6.6905 31.1374 6.5824C31.1985 6.47431 31.2813 6.38005 31.3806 6.30556C31.48 6.23108 31.5936 6.178 31.7145 6.14965C31.8354 6.12131 31.9608 6.11833 32.0829 6.1409C32.205 6.16346 32.3211 6.21109 32.4239 6.28077C32.5266 6.35045 32.6138 6.44067 32.68 6.54574C32.7461 6.6508 32.7897 6.76844 32.8081 6.89123C32.8265 7.01401 32.8193 7.13927 32.7868 7.25911L32.1358 10.4655C32.1097 10.5804 32.0612 10.689 31.993 10.785C31.9248 10.8811 31.8384 10.9628 31.7386 11.0254C31.6388 11.088 31.5276 11.1303 31.4114 11.1498C31.2953 11.1694 31.1764 11.1658 31.0616 11.1393L27.9236 10.4167C27.6988 10.3578 27.5057 10.2137 27.3852 10.0151C27.2647 9.8164 27.2261 9.57864 27.2777 9.35206C27.3292 9.12548 27.4669 8.92783 27.6615 8.8009C27.8562 8.67397 28.0926 8.6277 28.3207 8.67187L29.2191 8.88021C27.8659 6.68829 25.9632 4.88817 23.6997 3.65831C21.4363 2.42846 18.8907 1.8116 16.3153 1.86889C13.74 1.92619 11.2243 2.65564 9.01777 3.98494C6.81125 5.31423 4.99051 7.19719 3.73607 9.44712C2.48164 11.697 1.83708 14.2358 1.86632 16.8116C1.89556 19.3875 2.59757 21.9109 3.90275 24.1318C5.20794 26.3527 7.07095 28.1938 9.30708 29.4727C11.5432 30.7515 14.0748 31.4237 16.6508 31.4225ZM23.0798 16.0742C23.1666 16.1431 23.2367 16.2307 23.2849 16.3305C23.333 16.4302 23.3581 16.5396 23.3581 16.6504C23.3581 16.7612 23.333 16.8705 23.2849 16.9703C23.2367 17.0701 23.1666 17.1577 23.0798 17.2266L21.4848 18.457C21.3584 18.5543 21.2033 18.6069 21.0439 18.6069C20.8844 18.6068 20.7294 18.554 20.6031 18.4566C20.4768 18.3593 20.3862 18.2229 20.3455 18.0687C20.3048 17.9145 20.3162 17.7512 20.378 17.6042H18.2947C18.1513 17.8519 17.9538 18.0642 17.717 18.225C17.4802 18.3858 17.2101 18.491 16.9269 18.5328C16.6437 18.5746 16.3547 18.5519 16.0815 18.4665C15.8083 18.381 15.5579 18.2349 15.3491 18.0391C15.1402 17.8434 14.9783 17.603 14.8753 17.3359C14.7724 17.0687 14.7311 16.7818 14.7545 16.4965C14.7779 16.2112 14.8655 15.9349 15.0107 15.6882C15.1558 15.4414 15.3548 15.2307 15.5928 15.0716L15.6254 11.696C15.4775 11.7637 15.3111 11.7794 15.1532 11.7404C14.9953 11.7014 14.8553 11.6101 14.756 11.4813C14.6567 11.3526 14.6039 11.1939 14.6063 11.0313C14.6087 10.8687 14.6662 10.7117 14.7693 10.5859L16.0355 9.01693C16.1006 8.93641 16.1823 8.87088 16.275 8.82482C16.3676 8.77875 16.4692 8.75323 16.5727 8.75C16.6885 8.7475 16.8032 8.77314 16.907 8.82474C17.0107 8.87633 17.1004 8.95234 17.1684 9.04622L18.3663 10.6738C18.4581 10.7999 18.5068 10.9522 18.5049 11.1082C18.503 11.2641 18.4507 11.4152 18.3559 11.539C18.261 11.6628 18.1287 11.7526 17.9786 11.795C17.8285 11.8373 17.6688 11.83 17.5232 11.7741L17.5004 14.9609C17.8293 15.1268 18.103 15.3846 18.2881 15.7031H20.3715C20.3044 15.5549 20.2894 15.3884 20.3287 15.2305C20.3681 15.0726 20.4595 14.9327 20.5883 14.8333C20.7171 14.7338 20.8757 14.6808 21.0384 14.6827C21.2011 14.6846 21.3583 14.7413 21.4848 14.8437L23.0798 16.0742ZM26.8363 25.1628L28.4965 29.5215L29.3331 27.1452L28.9229 26.6927C28.6169 26.2435 28.7211 25.7161 29.2908 25.6413C29.4966 25.6248 29.7034 25.6248 29.9092 25.6413C30.1363 25.627 30.3643 25.6357 30.5896 25.6673C31.1169 25.7845 31.1723 26.2956 30.9151 26.7057L30.5049 27.1517L31.3415 29.528L32.8422 25.1693C33.9262 26.1458 36.8428 26.3411 38.0505 27.0052C39.7042 27.9329 39.6586 29.4141 40.0036 31.071C36.7061 34.3587 23.1124 34.5052 19.6716 31.0645C20.0329 29.4368 19.9971 27.9102 21.6443 26.9987C23.1091 26.1816 25.6352 26.2435 26.8526 25.1628H26.8363ZM26.5303 22.2331C26.3881 22.2402 26.2469 22.2063 26.1234 22.1354C25.9478 22.0287 25.8118 21.8675 25.7361 21.6764C25.557 21.276 25.4105 20.2214 25.8663 19.9186L25.7816 19.8633V19.7461C25.7816 19.5345 25.7589 19.2773 25.7556 19.0072C25.7556 18.0306 25.7198 16.8132 24.8995 16.5723L24.5479 16.4681L24.779 16.1914C25.3865 15.4425 26.0742 14.7625 26.8298 14.1634C27.5142 13.5941 28.3318 13.2077 29.2061 13.0404C29.6121 12.9775 30.0267 13.0012 30.4228 13.1101C30.8189 13.2189 31.1875 13.4104 31.5043 13.6719C31.7305 13.8532 31.9387 14.056 32.126 14.2773C32.4907 14.3148 32.8434 14.4279 33.1618 14.6096C33.4802 14.7912 33.7572 15.0372 33.975 15.332C34.2469 15.6849 34.4501 16.0857 34.574 16.5137C34.7062 16.9478 34.7612 17.4017 34.7367 17.8548C34.7104 18.6767 34.3661 19.4562 33.7764 20.0293C33.8806 20.0318 33.9829 20.0573 34.0759 20.1042C34.2181 20.197 34.3226 20.3373 34.3709 20.5001C34.4192 20.6629 34.4081 20.8375 34.3396 20.9928C34.2517 21.263 34.1378 21.5788 34.0303 21.8424C33.9034 22.1973 33.7048 22.2656 33.3467 22.2266C32.5264 25.8073 27.5687 25.9375 26.5303 22.2266V22.2331ZM9.83112 6.43555C9.7726 6.34428 9.73322 6.24209 9.71537 6.13516C9.69752 6.02823 9.70157 5.91878 9.72727 5.81346C9.75297 5.70814 9.79979 5.60913 9.86489 5.52245C9.92999 5.43576 10.012 5.36319 10.106 5.30914C10.2 5.25509 10.3039 5.22069 10.4116 5.20801C10.5193 5.19534 10.6284 5.20466 10.7324 5.23541C10.8363 5.26617 10.933 5.31771 11.0164 5.38691C11.0999 5.45612 11.1684 5.54154 11.2178 5.63802L11.8135 6.67318C11.9215 6.85836 11.9514 7.07883 11.8968 7.28609C11.8421 7.49334 11.7074 7.6704 11.5222 7.77832C11.337 7.88624 11.1165 7.91617 10.9093 7.86153C10.702 7.80689 10.525 7.67216 10.4171 7.48698L9.83112 6.43555ZM5.63515 11.2174C5.46278 11.105 5.34007 10.9308 5.29231 10.7306C5.24455 10.5304 5.27536 10.3195 5.37841 10.1414C5.48146 9.96325 5.64889 9.83141 5.84623 9.77301C6.04357 9.71461 6.25579 9.7341 6.43919 9.82747L7.48737 10.4167C7.58034 10.4682 7.66212 10.5378 7.72792 10.6213C7.79373 10.7048 7.84224 10.8006 7.87063 10.9031C7.89903 11.0055 7.90673 11.1126 7.8933 11.2181C7.87987 11.3236 7.84557 11.4253 7.7924 11.5174C7.73923 11.6095 7.66826 11.69 7.58362 11.7544C7.49899 11.8187 7.40238 11.8656 7.29945 11.8922C7.19651 11.9188 7.08931 11.9247 6.98408 11.9094C6.87886 11.8942 6.77773 11.8581 6.68659 11.8034L5.64817 11.2077L5.63515 11.2174ZM4.39492 17.4512C4.18254 17.4512 3.97886 17.3668 3.82868 17.2166C3.67851 17.0665 3.59414 16.8628 3.59414 16.6504C3.59414 16.438 3.67851 16.2343 3.82868 16.0842C3.97886 15.934 4.18254 15.8496 4.39492 15.8496H5.59284C5.80522 15.8496 6.0089 15.934 6.15907 16.0842C6.30925 16.2343 6.39362 16.438 6.39362 16.6504C6.39362 16.8628 6.30925 17.0665 6.15907 17.2166C6.0089 17.3668 5.80522 17.4512 5.59284 17.4512H4.39492ZM6.43594 23.4701C6.25289 23.5639 6.04075 23.5837 5.84351 23.5253C5.64626 23.467 5.47903 23.335 5.37648 23.1567C5.27393 22.9784 5.24393 22.7674 5.2927 22.5676C5.34146 22.3678 5.46525 22.1944 5.63841 22.0833L6.67356 21.4844C6.76462 21.4309 6.8653 21.396 6.96988 21.3814C7.07445 21.3669 7.18085 21.3731 7.28302 21.3997C7.38519 21.4263 7.48112 21.4728 7.56533 21.5365C7.64954 21.6001 7.72039 21.6798 7.77383 21.7708C7.82726 21.8619 7.86224 21.9626 7.87676 22.0671C7.89128 22.1717 7.88507 22.2781 7.85847 22.3803C7.83187 22.4825 7.7854 22.5784 7.72173 22.6626C7.65806 22.7468 7.57842 22.8177 7.48737 22.8711L6.43594 23.4701ZM22.0837 5.63477C22.1903 5.45087 22.3657 5.31687 22.5711 5.26223C22.7765 5.2076 22.9952 5.2368 23.1791 5.34342C23.363 5.45005 23.497 5.62535 23.5516 5.83077C23.6063 6.0362 23.5771 6.25491 23.4704 6.4388L22.8715 7.48698C22.818 7.57803 22.7472 7.65767 22.663 7.72134C22.5788 7.78502 22.4828 7.83148 22.3807 7.85808C22.2785 7.88468 22.1721 7.8909 22.0675 7.87637C21.963 7.86185 21.8623 7.82687 21.7712 7.77344C21.6802 7.72 21.6005 7.64916 21.5369 7.56494C21.4732 7.48073 21.4267 7.3848 21.4001 7.28263C21.3735 7.18047 21.3673 7.07406 21.3818 6.96949C21.3964 6.86492 21.4313 6.76423 21.4848 6.67318L22.0837 5.63477ZM11.2178 27.6693C11.1116 27.8536 10.9366 27.9882 10.7312 28.0434C10.5257 28.0987 10.3068 28.0701 10.1225 27.9639C9.93814 27.8577 9.80355 27.6826 9.7483 27.4772C9.69305 27.2718 9.72167 27.0528 9.82786 26.8685L10.4171 25.8236C10.4698 25.7325 10.5401 25.6528 10.6237 25.5888C10.7073 25.5249 10.8027 25.4781 10.9044 25.451C11.0061 25.424 11.1122 25.4172 11.2165 25.4312C11.3208 25.4451 11.4214 25.4794 11.5124 25.5322C11.6035 25.585 11.6832 25.6552 11.7472 25.7388C11.8111 25.8225 11.8579 25.9179 11.885 26.0196C11.912 26.1213 11.9188 26.2273 11.9048 26.3317C11.8909 26.436 11.8566 26.5366 11.8038 26.6276L11.2178 27.6693ZM15.85 4.39453C15.863 4.1914 15.9528 4.00083 16.1013 3.86156C16.2497 3.72229 16.4456 3.64478 16.6492 3.64478C16.8527 3.64478 17.0486 3.72229 17.1971 3.86156C17.3455 4.00083 17.4353 4.1914 17.4483 4.39453V5.59245C17.4553 5.70168 17.4398 5.81119 17.4028 5.9142C17.3658 6.01722 17.308 6.11155 17.2332 6.19138C17.1583 6.2712 17.0678 6.33483 16.9674 6.37832C16.8669 6.42182 16.7586 6.44426 16.6492 6.44426C16.5397 6.44426 16.4314 6.42182 16.3309 6.37832C16.2305 6.33483 16.14 6.2712 16.0651 6.19138C15.9903 6.11155 15.9325 6.01722 15.8955 5.9142C15.8585 5.81119 15.843 5.70168 15.85 5.59245V4.39453ZM17.4516 28.903C17.4516 29.1154 17.3672 29.3191 17.217 29.4692C17.0668 29.6194 16.8632 29.7038 16.6508 29.7038C16.4384 29.7038 16.2347 29.6194 16.0845 29.4692C15.9344 29.3191 15.85 29.1154 15.85 28.903V27.7083C15.85 27.496 15.9344 27.2923 16.0845 27.1421C16.2347 26.9919 16.4384 26.9076 16.6508 26.9076C16.8632 26.9076 17.0668 26.9919 17.217 27.1421C17.3672 27.2923 17.4516 27.496 17.4516 27.7083V28.903Z" fill="#E25F6A"/>
</g>
<defs>
<clipPath id="clip0_47_500">
<rect width="40" height="33.5872" fill="white"/>
</clipPath>
</defs>
</svg>
