<svg width="25" height="26" viewBox="0 0 25 26" fill="none" xmlns="http://www.w3.org/2000/svg">
<g clip-path="url(#clip0_4_21)">
<path d="M19.7917 0.0546875H5.20833C2.33229 0.0546875 0 2.38698 0 5.26302V19.8464C0 22.7224 2.33229 25.0547 5.20833 25.0547H19.7917C22.6687 25.0547 25 22.7224 25 19.8464V5.26302C25 2.38698 22.6687 0.0546875 19.7917 0.0546875ZM16.6667 7.34635H14.6625C14.0219 7.34635 13.5417 7.60885 13.5417 8.2724V9.42969H16.6667L16.4187 12.5547H13.5417V20.888H10.4167V12.5547H8.33333V9.42969H10.4167V7.42656C10.4167 5.32031 11.525 4.22135 14.0219 4.22135H16.6667V7.34635Z" fill="#E25F6A"/>
</g>
<defs>
<clipPath id="clip0_4_21">
<rect width="25" height="25" fill="white" transform="translate(0 0.0546875)"/>
</clipPath>
</defs>
</svg>
