<svg width="40" height="40" viewBox="0 0 40 40" fill="none" xmlns="http://www.w3.org/2000/svg">
<path d="M38.4375 20C38.4375 9.8125 30.1875 1.5625 20 1.5625C9.8125 1.5625 1.5625 9.8125 1.5625 20C1.5625 30.1875 9.8125 38.4375 20 38.4375C22.8438 38.4375 25.5312 37.7969 27.9375 36.6406C28.25 36.5156 28.4688 36.2188 28.4688 35.8594C28.4688 35.3906 28.0938 35.0156 27.625 35.0156C27.4688 35.0156 27.3281 35.0625 27.2031 35.125C25.0156 36.1562 22.5625 36.75 19.9844 36.75C10.7344 36.75 3.21875 29.25 3.21875 19.9844C3.21875 10.7344 10.7188 3.21875 19.9844 3.21875C29.2344 3.21875 36.75 10.7188 36.75 19.9844C36.75 23.375 35.7344 26.5312 34 29.1719C33.9219 29.2969 33.8906 29.4375 33.8906 29.5938C33.8906 30.0625 34.2656 30.4375 34.7344 30.4375C35.0781 30.4375 35.3594 30.2344 35.5 29.9531C37.3594 27.1094 38.4375 23.6719 38.4375 20Z" fill="#E25F6A"/>
<path d="M11.1138 12.1924L12.8746 10.4317L16.8091 14.3663L15.3267 15.8038C14.9964 16.1164 14.8121 16.5409 14.8121 17C14.8121 17.4539 14.9769 17.8778 15.3072 18.208L21.8072 24.708C22.1183 25.0192 22.5407 25.2031 22.9996 25.2031C23.4604 25.2031 23.8823 25.0177 24.2076 24.6924L24.2076 24.6924L24.2103 24.6897L25.6566 23.1981L29.6215 27.163L27.8415 28.8827L27.8415 28.8827L27.8384 28.8857C27.3932 29.3309 26.6328 29.625 25.8589 29.625C25.4663 29.625 25.0993 29.5521 24.8123 29.4159L24.7832 29.4014L24.7673 29.3934L24.7505 29.3878L24.7057 29.3729C24.7049 29.3726 24.704 29.3722 24.7031 29.3718C24.5231 29.2981 23.6457 28.9388 22.2832 28.0978C20.783 27.1718 18.709 25.6683 16.4116 23.3554C14.2874 21.2 12.83 19.1068 11.9939 17.7442L11.9938 17.7441C11.5371 17.001 11.2047 16.3785 10.9868 15.9429C10.8779 15.7251 10.7977 15.554 10.745 15.438C10.7186 15.38 10.6991 15.3358 10.6863 15.3063L10.6721 15.2734L10.6688 15.2655L10.6681 15.2638L10.6679 15.2635L10.6679 15.2634L10.6679 15.2634L10.6679 15.2634L10.6646 15.2554L10.6607 15.2476L10.645 15.2163L10.6294 15.1851L10.6295 15.1851L10.6272 15.1807C10.4089 14.7646 10.3462 14.1977 10.4378 13.6317C10.5293 13.0663 10.7691 12.5371 11.1138 12.1924ZM11.9232 9.36368L11.9231 9.36355L11.9165 9.3701L10.1197 11.167C9.55291 11.7337 9.18567 12.5345 9.04789 13.3612C8.91071 14.1843 8.99697 15.0574 9.36638 15.7773L9.3677 15.7804L9.38356 15.8178C9.39754 15.8504 9.41836 15.8982 9.44626 15.9602C9.50206 16.0842 9.58617 16.2652 9.70043 16.4954C9.92893 16.9559 10.2781 17.6137 10.7627 18.4076C11.7318 19.9952 13.2434 22.1285 15.4158 24.3167C17.8372 26.7617 20.033 28.3481 21.6268 29.3245C22.4237 29.8127 23.07 30.1484 23.5188 30.3626C23.7432 30.4697 23.9183 30.5465 24.038 30.5967C24.0979 30.6219 24.144 30.6404 24.1755 30.6528L24.2118 30.6669L24.2152 30.6682C24.7181 30.9011 25.2827 31.0156 25.8589 31.0156C26.9424 31.0156 28.0891 30.6234 28.8326 29.8799L30.6295 28.083C31.149 27.5635 31.149 26.7177 30.6295 26.1982L26.567 22.1357C26.3158 21.8846 25.9705 21.75 25.6402 21.75C25.2896 21.75 24.9612 21.8879 24.6978 22.1513L24.6978 22.1513L24.6951 22.1541L23.1967 23.6993C23.1411 23.7543 23.0679 23.7813 22.9839 23.7813C22.9071 23.7813 22.8465 23.759 22.7857 23.6982L16.2857 17.1982C16.1848 17.0973 16.1748 16.9102 16.2883 16.7836L17.8292 15.2895C17.8294 15.2893 17.8295 15.2892 17.8296 15.2891C18.3503 14.7873 18.3705 13.9392 17.8482 13.417L13.7857 9.35447L13.7859 9.35433L13.7785 9.34755C13.5313 9.11933 13.2058 8.98438 12.8589 8.98438C12.5096 8.98438 12.1844 9.12112 11.9232 9.36368Z" fill="#E25F6A" stroke="#E25F6A" stroke-width="0.5"/>
</svg>
