<svg width="42" height="42" viewBox="0 0 42 42" fill="none" xmlns="http://www.w3.org/2000/svg">
<path d="M3.07426 11.8343L3.07425 11.8344C1.90905 14.1278 1.0798 17.0324 0.940007 19.2979C0.886656 20.1475 0.886676 21.8096 0.939996 22.6996L1.03981 22.6936L0.939996 22.6996C1.00588 23.7991 1.25668 25.1542 1.66249 26.552C2.42161 29.1904 3.73061 31.7021 5.41013 33.7266L5.41019 33.7267C5.91604 34.3353 7.6519 36.0836 8.18392 36.5249L8.18421 36.5251C12.6168 40.1738 18.3751 41.7498 24.0755 40.8756L24.0755 40.8756C26.9323 40.4364 29.7352 39.3489 32.1527 37.74L32.1527 37.7399C33.1513 37.0742 34.0301 36.3472 35.0588 35.3349L34.9886 35.2636L35.0588 35.3349C36.8962 33.5262 37.9689 32.0426 39.0725 29.7696L39.0726 29.7696C40.0039 27.8495 40.5746 26.0185 40.8906 23.9625L40.8906 23.9625C41.0589 22.8623 41.1 22.2895 41.1 20.9866V20.9862C41.0959 19.7452 41.063 19.2217 40.9111 18.1748C40.4597 15.0395 39.2001 11.8676 37.4141 9.36716L37.414 9.36709C34.5538 5.37017 30.5069 2.62012 25.7545 1.45049C24.3623 1.10554 23.6367 1.01093 21.8919 0.937206L21.8919 0.937202C20.3126 0.871742 19.6407 0.887936 18.5877 1.02366C18.5876 1.02367 18.5876 1.02369 18.5875 1.0237L18.6002 1.12288C17.1423 1.30665 16.0805 1.53942 14.8431 1.94373L3.07426 11.8343ZM3.07426 11.8343C5.45097 7.15892 9.76414 3.49031 14.8121 1.84867L3.07426 11.8343ZM37.5099 12.3146L37.51 12.3148C38.5576 14.2719 39.4149 17.1295 39.5731 19.181L39.5731 19.1813C39.6257 19.8451 39.6217 21.9708 39.573 22.715M37.5099 12.3146L39.6728 22.7222M37.5099 12.3146C34.9749 7.55737 30.6162 4.15346 25.4167 2.86982C24.5422 2.65426 23.7022 2.50428 22.982 2.44359C22.7165 2.42148 21.8477 2.39903 21.0128 2.38624C20.5962 2.37987 20.1898 2.37592 19.8736 2.3756C19.7155 2.37544 19.5803 2.37619 19.4779 2.37798C19.3749 2.37979 19.3121 2.38261 19.2901 2.38549C19.2168 2.39889 18.8942 2.44376 18.5734 2.48788C14.6115 3.04864 11.3017 4.59999 8.33943 7.28593C5.45256 9.90892 3.45355 13.5077 2.653 17.5348L2.65297 17.5349C2.52008 18.1994 2.45397 18.5387 2.42031 18.9723C2.38648 19.4081 2.38538 19.9394 2.38538 20.9866C2.38538 21.9967 2.38645 22.5197 2.41274 22.9302C2.43888 23.3383 2.48993 23.6353 2.59203 24.1948L2.59207 24.195C3.49798 29.2121 6.41489 33.6889 10.615 36.516C11.4291 37.0629 13.2604 38.0112 14.3082 38.4254L14.3084 38.4255C16.593 39.3345 19.1841 39.7411 21.8748 39.6151M37.5099 12.3146L21.8796 39.715M39.573 22.715C39.573 22.7152 39.573 22.7154 39.573 22.7157L39.6728 22.7222M39.573 22.715C39.573 22.715 39.573 22.715 39.573 22.715L39.6728 22.7222M39.573 22.715C39.4432 24.5034 38.9155 26.5627 38.103 28.3991L38.1029 28.3992C36.8108 31.3289 34.9586 33.7293 32.468 35.708M39.6728 22.7222C39.5421 24.5232 39.0112 26.5937 38.1944 28.4396C36.8958 31.384 35.0335 33.7975 32.5302 35.7863M32.468 35.708L32.5302 35.7863M32.468 35.708C32.468 35.708 32.468 35.708 32.4679 35.7081L32.5302 35.7863M32.468 35.708C30.9342 36.9253 28.7435 38.092 26.7364 38.7584L26.7363 38.7584C25.1618 39.2819 23.7947 39.5215 21.8748 39.6151M32.5302 35.7863C30.9865 37.0115 28.7853 38.1836 26.7679 38.8533C25.1834 39.3801 23.8071 39.6211 21.8796 39.715M21.8748 39.6151C21.8748 39.6151 21.8748 39.6151 21.8749 39.6151L21.8796 39.715M21.8748 39.6151C21.8747 39.6151 21.8747 39.6151 21.8747 39.6151L21.8796 39.715" fill="#E25F6A" stroke="#E25F6A" stroke-width="0.2"/>
<path d="M20.1729 7.88568C19.1887 7.93061 18.1963 8.14297 17.3101 8.49009C14.2309 9.70299 12.2993 12.3248 11.8541 15.9022C11.8256 16.1432 11.8011 16.7149 11.8051 17.209C11.8051 17.9972 11.8174 18.1402 11.9154 18.5975C12.4463 21.1173 13.9206 24.1352 16.5301 28.0516C17.7185 29.8362 19.4051 32.1558 20.5935 33.6383C20.9202 34.0466 20.9856 34.112 21.0387 34.0671C21.4144 33.7567 24.6487 29.3094 25.8371 27.4758C28.4957 23.3593 29.9945 20.0065 30.1946 17.7114C30.3416 16.0329 29.7739 13.6153 28.8673 12.0471C28.4222 11.2753 27.4012 10.1277 26.6907 9.59272C25.7636 8.89439 24.3915 8.30223 23.1132 8.04087C22.3945 7.89385 21.2347 7.8326 20.1729 7.88568ZM22.08 10.4299C23.2888 10.5198 24.5752 11.0466 25.4737 11.8225C26.2047 12.4514 26.7968 13.3335 27.2297 14.4321C27.438 14.9589 27.585 15.6654 27.6708 16.5556C27.8055 17.9891 27.4666 19.2591 26.3149 21.5787C25.6493 22.9223 24.7345 24.5436 23.8279 25.9688C23.1296 27.0756 21.153 29.8811 21.0141 29.9669C20.9611 29.9996 20.7528 29.7382 20.0585 28.7663C17.1345 24.6702 15.0518 20.8641 14.4474 18.5159C14.2758 17.8502 14.235 17.205 14.3085 16.4535C14.4882 14.6852 15.0681 13.2967 16.0809 12.239C16.5791 11.7204 17.0447 11.3774 17.6818 11.0629C18.425 10.6954 19.0539 10.4993 19.7196 10.4299C20.1402 10.385 21.4797 10.385 22.08 10.4299Z" fill="#E25F6A"/>
<path d="M20.1933 14.3749C19.9115 14.4525 19.5154 14.6322 19.2663 14.8037C18.7762 15.1426 18.4413 15.551 18.1228 16.2085L17.9268 16.6169V17.352C17.9308 18.0095 17.939 18.1157 18.0248 18.3525C18.1718 18.7772 18.4209 19.1611 18.8007 19.5368C19.1642 19.9003 19.4827 20.1208 19.8666 20.2719C20.1688 20.3903 20.8508 20.4475 21.4511 20.3985C21.8513 20.3658 21.9493 20.3413 22.2148 20.2188C22.9335 19.8758 23.4113 19.4021 23.7707 18.6751C24.3792 17.4459 24.0443 15.9063 22.9825 15.0242C22.6681 14.7628 21.9983 14.4198 21.6716 14.3545C21.3572 14.2891 20.4628 14.3014 20.1933 14.3749Z" fill="#E25F6A"/>
</svg>
