<svg width="80" height="57" viewBox="0 0 80 57" fill="none" xmlns="http://www.w3.org/2000/svg">
<g clip-path="url(#clip0_81_106)">
<path d="M33.4189 0.0716896C28.082 0.544224 22.773 2.1842 18.3812 4.71365C5.0529 12.3576 -1.99343 27.1313 0.494328 42.2246C0.800086 44.0452 1.55058 46.936 2.1482 48.5621C2.75972 50.2299 4.62206 54.0519 5.40035 55.261C5.72001 55.7335 5.97017 56.1644 5.97017 56.1922C5.97017 56.2339 4.60816 56.2756 2.95429 56.3033C1.28652 56.3172 17.9503 56.345 39.9927 56.3728L80.047 56.4006L80.0192 28.1458C79.9914 7.17361 79.9636 3.17096 79.908 12.6217C79.8663 19.6124 79.8246 25.255 79.7968 25.1716C79.7829 25.0743 79.5466 24.7547 79.2826 24.4489C77.7816 22.7812 74.2515 22.5727 70.7352 23.9486C70.082 24.1988 64.773 26.7282 58.9358 29.5634C53.0847 32.3986 48.1787 34.7196 48.0258 34.7196C47.859 34.7196 46.6082 34.4973 45.2323 34.2332C43.8563 33.9691 42.6055 33.7468 42.4387 33.7468C42.272 33.7468 41.452 34.0803 40.6181 34.4973C38.4917 35.5396 38.4361 35.7759 39.9788 37.2213C42.1608 39.2643 44.9404 41.1405 46.6916 41.766C48.262 42.308 48.9153 42.2385 51.8616 41.1266C53.2654 40.5985 55.0999 39.8758 55.9338 39.5145C56.7816 39.1531 57.546 38.8335 57.6432 38.7918C57.7683 38.7362 57.81 39.6673 57.81 43.1697C57.81 47.7699 57.81 47.756 58.3798 47.9645C58.7134 48.0757 59.9364 47.4642 60.2978 47.0055C60.951 46.1855 62.855 42.0161 64.8286 37.0823L65.6346 35.0532L67.5943 34.0247C72.7088 31.3563 79.2548 27.3953 79.6578 26.7282C79.8941 26.3252 79.908 26.7004 79.908 41.2795V56.2617H73.3064C69.679 56.2617 66.7048 56.2339 66.7048 56.2061C66.7048 56.1783 67.0939 55.4973 67.5665 54.7051C69.818 50.9387 71.4024 46.6303 72.1112 42.3358C72.5281 39.8341 72.7227 36.8877 72.6115 34.7474L72.5142 32.9129L71.5552 33.4271L70.5963 33.9552V36.1789C70.5963 42.1829 69.1231 47.8394 66.2462 52.9539L65.4123 54.4549H36.3236H7.2488L6.60949 53.3709C4.37189 49.5628 2.8431 44.9903 2.27328 40.4178C2.00922 38.3053 2.02312 33.9274 2.28718 31.8427C3.14886 25.3245 5.81729 19.2649 10.0562 14.206C18.6591 3.94926 32.5016 -0.317451 45.5519 3.25436C55.0582 5.8533 63.3554 12.8996 67.4414 21.8222C67.8305 22.6839 68.178 23.4205 68.1919 23.4483C68.2336 23.5178 70.0403 22.7395 70.0403 22.6422C70.0403 22.6005 69.54 21.5581 68.9424 20.3351C67.1495 16.7077 65.1621 13.8725 62.4103 11.0373C55.4335 3.86587 45.9689 -0.108982 36.0595 0.00220108C34.9199 0.016098 33.7246 0.0438919 33.4189 0.0716896ZM74.1403 26.9923C74.321 27.2563 74.3348 27.3953 74.2098 27.6177C73.8623 28.2848 73.1257 28.3126 72.8339 27.6872C72.4586 26.8533 73.6399 26.2279 74.1403 26.9923ZM70.763 28.4238C71.2495 28.8685 70.9437 29.7163 70.2905 29.7163C69.9292 29.7163 69.4844 29.3411 69.4844 29.0353C69.4844 28.6601 69.9014 28.1875 70.2071 28.1875C70.3739 28.1875 70.6241 28.2848 70.763 28.4238ZM67.5943 30.0777C67.9 30.3695 67.8722 30.7726 67.5387 31.1061C67.2051 31.4397 67.0106 31.4536 66.5936 31.1617C66.2601 30.9254 66.1767 30.3 66.4546 30.0221C66.6909 29.7858 67.3441 29.8136 67.5943 30.0777ZM64.1337 31.4675C64.5089 31.6203 64.6618 32.2041 64.4116 32.5793C63.9252 33.3298 62.7577 32.7322 63.0774 31.8983C63.2581 31.4397 63.6333 31.2868 64.1337 31.4675ZM61.1178 33.2325C61.4096 33.4549 61.3123 34.1359 60.951 34.3722C60.3256 34.7891 59.589 34.1915 59.8252 33.4549C59.9781 32.9685 60.6313 32.8573 61.1178 33.2325ZM57.8378 34.8169C58.3104 35.2477 57.9907 36.1094 57.3514 36.1094C56.9761 36.1094 56.5592 35.7203 56.5592 35.3728C56.5592 34.7057 57.3375 34.3583 57.8378 34.8169ZM54.544 36.4569C54.7386 36.6376 54.8914 36.8599 54.8914 36.9433C54.8914 37.1379 54.2521 37.7772 54.0575 37.7772C53.863 37.7772 53.2237 37.1379 53.2237 36.9433C53.2237 36.7487 53.863 36.1094 54.0575 36.1094C54.1409 36.1094 54.3633 36.2623 54.544 36.4569ZM51.3335 37.9996C51.8061 38.4721 51.4586 39.306 50.7915 39.306C50.4579 39.306 50.0271 38.8474 50.0271 38.486C50.0271 37.9023 50.9027 37.5687 51.3335 37.9996Z" fill="white"/>
<path d="M26.2337 6.86782C25.4415 7.29866 25.3164 8.35491 25.9696 9.02202C26.5255 9.57795 27.2065 9.57795 27.818 9.02202C28.1933 8.68847 28.2767 8.52169 28.2767 8.03526C28.2767 7.54883 28.1933 7.38205 27.818 7.04849C27.3177 6.60376 26.8174 6.54816 26.2337 6.86782Z" fill="#30D5C8"/>
<path d="M30.1527 8.27149C29.4439 8.53555 29.2355 9.34164 29.7358 9.84197C30.3056 10.4118 31.2646 10.0226 31.2646 9.24436C31.2646 8.99419 31.209 8.73013 31.1534 8.64674C31.0561 8.50776 30.5002 8.16031 30.4029 8.1881C30.3751 8.1881 30.2639 8.2298 30.1527 8.27149Z" fill="#30D5C8"/>
<path d="M26.5393 11.0929V12.2047H24.7325H22.9258V13.1081V14.0115H32.3765H41.8272V13.1081V12.2047H36.2957H30.7643L30.7782 11.4403C30.7921 10.6898 30.7782 10.6759 30.403 10.6759C30.0277 10.6759 30.0138 10.7037 30.0138 11.4403V12.2047H28.6935H27.3732V11.0929V9.98103H26.9562H26.5393V11.0929Z" fill="#30D5C8"/>
<path d="M24.4129 14.7899C24.3573 14.8455 24.3156 16.0685 24.3156 17.5139V20.1267H23.6207H22.9258V21.6555V23.1843H32.3765H41.8272V21.6555V20.1267H41.1323H40.4374V17.4166V14.7065H39.6035H38.7696L38.7418 17.3749L38.7001 20.0573H35.99H33.2799L33.2104 17.4166L33.1409 14.776H32.3765H31.6121L31.5426 17.4166L31.4731 20.0573H28.763H26.0529L25.9834 17.4166L25.9139 14.776L25.219 14.7343C24.8298 14.7065 24.4685 14.7343 24.4129 14.7899Z" fill="#30D5C8"/>
<path d="M24.2323 24.2544C24.274 24.3934 24.8299 26.0612 25.4692 27.9791L26.6366 31.4536H32.3766H38.1165L39.2839 27.9791C39.9232 26.0612 40.4791 24.3934 40.5208 24.2544C40.5903 24.032 40.1456 24.0181 32.3766 24.0181C24.6075 24.0181 24.1628 24.032 24.2323 24.2544Z" fill="#30D5C8"/>
<path d="M48.7069 25.7831C48.1371 26.1027 48.012 26.2417 47.9703 26.5892C47.9564 26.8115 47.9842 27.0756 48.0398 27.1451C48.1649 27.3119 52.4733 30.703 52.8903 30.9532C53.1126 31.1061 53.6269 30.8976 56.476 29.5078C58.2966 28.6322 59.7698 27.8817 59.742 27.84C59.6308 27.7288 55.0862 26.4919 53.1404 26.0333C52.0564 25.7831 50.7778 25.5329 50.2913 25.4912C49.4852 25.4078 49.3324 25.4356 48.7069 25.7831Z" fill="white"/>
<path d="M28.5681 32.9407C28.4708 33.5523 25.7051 53.3153 25.7051 53.4821C25.7051 53.5655 28.165 53.6211 32.3067 53.6211C35.9341 53.6211 38.9083 53.5794 38.9083 53.5377C38.9083 53.496 38.255 48.7707 37.449 43.0308C36.6429 37.3047 35.9897 32.5794 35.9897 32.5516C35.9897 32.5238 34.3358 32.496 32.3206 32.496H28.6515L28.5681 32.9407Z" fill="#30D5C8"/>
<path d="M10.9322 34.122C10.8767 34.1637 10.835 34.9836 10.835 35.9287V37.6382H18.8264H26.8178L26.8872 37.3185C27.0262 36.6653 27.3181 34.1498 27.2486 34.0942C27.1513 33.983 11.0295 34.0108 10.9322 34.122Z" fill="#30D5C8"/>
<path d="M12.2246 44.0314V49.5768L14.2815 49.6184L16.3245 49.6601L16.3662 51.6337L16.4079 53.6211H20.4801H24.5661L24.6495 53.2458C24.7468 52.7316 25.5668 46.8249 25.5668 46.5887C25.5668 46.4358 25.2749 46.3941 24.3159 46.3941H23.0651V44.2399V42.0857H24.6634C26.1366 42.0857 26.2617 42.0579 26.2617 41.8216C26.2617 41.6826 26.3034 41.363 26.3451 41.1267L26.4424 40.6959H24.7468H23.0651V39.584V38.4722H22.1617H21.2584V39.584V40.6959H19.8686H18.4787V39.584V38.4722H17.6449H16.8249L16.7832 39.5423L16.7415 40.6264L15.3934 40.6681L14.0314 40.7098V39.584V38.4722H13.128H12.2246V44.0314ZM16.7832 44.1982L16.7415 46.3246L15.3934 46.3663L14.0314 46.408V44.2399V42.0857H15.4212H16.8249L16.7832 44.1982ZM21.2584 44.2399V46.3941H19.8686H18.4787V44.2399V42.0857H19.8686H21.2584V44.2399Z" fill="#30D5C8"/>
</g>
<defs>
<clipPath id="clip0_81_106">
<rect width="79.7403" height="56.183" fill="white"/>
</clipPath>
</defs>
</svg>
