<svg width="75" height="55" viewBox="0 0 75 55" fill="none" xmlns="http://www.w3.org/2000/svg">
<path d="M34.6917 2.17796C34.6917 3.79376 34.6355 4.49628 34.481 4.86159C33.7784 6.56169 30.4906 11.5074 28.6079 13.6993C27.7087 14.7671 25.9945 16.5796 25.8961 16.5796C25.868 16.5796 25.8399 16.2705 25.8399 15.8912C25.8399 15.1184 25.6011 14.7531 25.0812 14.7531C24.7159 14.7531 24.449 15.0201 24.1258 15.7366C23.5778 16.959 20.6834 20.4716 18.2106 22.9445C13.4194 27.6795 7.50414 31.5996 1.81372 33.7914C0.844239 34.1708 0.0293138 34.4939 0.00121298 34.508C-0.0268879 34.5361 0.436776 35.1824 1.02689 35.9692C1.61701 36.742 2.19308 37.571 2.30548 37.7958C2.48814 38.1611 2.51624 39.2711 2.50219 46.0293C2.50219 50.3147 2.51624 53.8554 2.54434 53.8976C2.58649 53.9257 2.8956 53.7711 3.24686 53.5463C4.72216 52.6049 8.16451 50.7643 10.0754 49.8792C21.5124 44.6243 33.3991 42.6994 45.2295 44.2028C54.0813 45.3268 63.3686 48.432 70.9278 52.8017C71.8832 53.3637 72.6981 53.8133 72.7543 53.8133C72.7965 53.8133 72.8105 52.0008 72.7824 49.7808C72.7543 47.5468 72.7824 43.9499 72.8386 41.7861L72.937 37.8379L73.9767 36.447C75.2693 34.7047 75.2974 34.4518 74.2858 34.0865C69.9442 32.569 64.7596 29.5482 60.5726 26.0777C58.7601 24.5884 55.4161 21.2303 53.9127 19.3897C53.2523 18.5748 52.2407 17.2119 51.6646 16.3689C50.5546 14.7109 50.2596 14.5002 49.7397 15.0201C49.529 15.2308 49.4447 15.4978 49.4447 15.9614C49.4447 16.3127 49.3885 16.5796 49.3323 16.5515C48.9529 16.397 46.0164 12.8844 44.527 10.819C43.0658 8.78166 40.9161 5.18475 40.7193 4.44007C40.621 4.08882 40.5929 3.40034 40.6491 2.69782C40.6912 2.06556 40.6912 1.19443 40.6491 0.772915L40.5507 0.000141144H37.6283H34.6917V2.17796ZM38.0638 20.7948V39.0603H37.6423H37.2208V20.7948V2.52922H37.6423H38.0638V20.7948ZM34.6917 9.82139V12.7579L33.8908 13.882C32.7809 15.4135 30.9965 17.5632 30.8841 17.4929C30.7435 17.3946 30.7576 13.4745 30.9122 12.9125C30.9824 12.6315 31.5163 11.7041 32.1064 10.8752C32.6966 10.0321 33.5115 8.79571 33.9049 8.12129C34.2983 7.44687 34.6355 6.88485 34.6636 6.88485C34.6777 6.88485 34.6917 8.20559 34.6917 9.82139ZM42.9534 10.3834L44.4146 12.5612L44.4708 15.0622C44.513 16.5375 44.4849 17.5632 44.4006 17.5632C44.2741 17.5632 42.1806 14.9919 41.2392 13.6853L40.7334 12.9687V9.96189V6.9551L41.1268 7.57332C41.3376 7.92458 42.1665 9.17507 42.9534 10.3834ZM46.1569 14.7812C46.5362 15.273 47.4355 16.2846 48.138 17.0293L49.4447 18.3922V20.3592C49.4447 21.4551 49.3885 22.3403 49.3182 22.3403C49.1215 22.3403 46.9015 20.3452 46.1007 19.46L45.37 18.631V16.2705C45.37 14.9779 45.3981 13.9101 45.4262 13.9101C45.4403 13.9101 45.7775 14.3035 46.1569 14.7812ZM29.9286 16.3548L29.9708 18.6029L28.0318 20.4716C26.978 21.4973 26.0507 22.3403 25.9664 22.3403C25.8961 22.3403 25.8399 21.4973 25.8399 20.3311V18.3219L26.7673 17.4227C27.2731 16.9169 28.1583 15.9614 28.7484 15.287C29.3385 14.6126 29.8443 14.0646 29.8584 14.0927C29.8724 14.1068 29.9146 15.1325 29.9286 16.3548ZM34.6215 38.7372C34.5793 38.8777 34.0735 38.9198 32.7387 38.9198C31.137 38.9198 30.9262 38.8917 30.8841 38.681C30.8559 38.5405 30.8419 34.1146 30.87 28.8457L30.9122 19.2773L32.1907 17.8161C32.8933 17.0293 33.7222 16.0317 34.0454 15.6102L34.6215 14.8514L34.6636 26.71C34.6777 33.2294 34.6636 38.6529 34.6215 38.7372ZM41.7169 16.1441C42.1806 16.7623 42.9955 17.7458 43.5435 18.3219L44.527 19.3897V29.1548V38.9198H42.6302H40.7334V26.977C40.7334 20.4014 40.7615 15.0341 40.8036 15.0341C40.8318 15.0341 41.2392 15.5399 41.7169 16.1441ZM51.8192 18.5889C52.1704 19.0666 52.8449 19.9377 53.3366 20.5278L54.2218 21.6097V23.8156C54.2218 26.3587 54.3483 26.2463 52.7746 25.1504C50.9902 23.8999 51.1729 24.3917 51.0886 20.8229C51.0464 19.1087 51.0464 17.7037 51.1026 17.7037C51.1588 17.7037 51.482 18.1111 51.8192 18.5889ZM24.0836 21.7362L23.9853 24.0264L22.6083 25.0099C21.8637 25.5438 21.2033 25.9934 21.1471 25.9934C21.105 25.9934 21.0628 25.0099 21.0628 23.8016V21.6097L21.7653 20.8369C22.1587 20.4014 22.8472 19.5864 23.2828 19.0104L24.0836 17.9706L24.1258 18.7153C24.1539 19.1228 24.1398 20.4857 24.0836 21.7362ZM29.9427 29.7449L29.9005 38.9198H28.2145H26.5425V35.7866C26.5425 33.8476 26.4441 31.5293 26.2755 29.6465C25.9383 25.9934 25.868 23.9421 26.0507 23.7735C26.135 23.7173 26.7251 23.2114 27.3855 22.6635C28.0459 22.1155 28.8608 21.3708 29.212 21.0196C29.5493 20.6683 29.8724 20.4154 29.9146 20.4857C29.9567 20.5419 29.9708 24.7148 29.9427 29.7449ZM46.6205 21.5254C47.2106 22.0874 48.0818 22.8602 48.5735 23.2536C49.1215 23.6892 49.4447 24.0545 49.4447 24.2371C49.4447 24.3917 49.2901 26.3447 49.0934 28.5928C48.8545 31.3888 48.7421 33.6509 48.7421 35.7866V38.9198H47.0561H45.37V29.7168C45.37 24.6586 45.4122 20.5138 45.4543 20.5138C45.5105 20.5138 46.0304 20.9774 46.6205 21.5254ZM20.0793 24.771V26.7662L18.6461 27.6373C16.5386 28.9019 16.3278 28.9862 16.2295 28.7192C16.1873 28.5928 16.1452 28.0307 16.1452 27.4687V26.429L16.8055 25.8248C17.1849 25.4876 18.042 24.6727 18.7445 23.9983C19.433 23.3239 20.0231 22.7618 20.0512 22.7618C20.0652 22.7618 20.0793 23.6611 20.0793 24.771ZM58.9849 27.6373C58.999 28.3539 58.9568 28.944 58.9146 28.944C58.8022 28.944 57.1021 28.0026 56.0905 27.3563L55.2053 26.8084V24.771V22.7337L57.0881 24.5322L58.9849 26.3447V27.6373ZM52.8168 26.5695L54.2218 27.5671L54.2499 32.0492C54.264 34.522 54.2921 37.0511 54.2921 37.6834V38.8496L53.1399 38.8917C52.0159 38.9339 51.9737 38.9198 51.9456 38.6107C51.9316 38.4281 51.9175 36.9528 51.9035 35.337C51.8894 33.7071 51.777 31.3466 51.6506 30.0681C51.2853 26.3025 51.2291 25.5719 51.3274 25.5719C51.3836 25.5719 52.058 26.0215 52.8168 26.5695ZM23.9572 26.6538C23.6481 29.8433 23.4514 33.4683 23.4514 35.9973V38.9198H22.2571H21.0628V33.2435V27.553L22.3695 26.6538C23.072 26.148 23.7464 25.7405 23.8588 25.7265C24.0134 25.7124 24.0274 25.8951 23.9572 26.6538ZM15.3021 28.382V29.506L14.4872 29.9135C13.0681 30.6301 10.3142 31.7401 8.52982 32.3161C7.58844 32.6252 6.77352 32.8781 6.73137 32.8781C6.68922 32.8781 7.11073 32.6393 7.64464 32.3442C9.30259 31.431 11.4945 30.0119 13.4053 28.6068C14.4029 27.8621 15.2459 27.258 15.26 27.258C15.2881 27.258 15.3021 27.7638 15.3021 28.382ZM61.0925 28.0167C62.6661 29.2953 64.6051 30.602 66.5581 31.712C67.5697 32.288 68.4127 32.7798 68.4127 32.8079C68.4127 32.9765 63.1719 30.9673 60.9379 29.9416L59.9825 29.506V28.382C59.9825 27.7638 60.0246 27.258 60.0668 27.258C60.123 27.258 60.5867 27.5952 61.0925 28.0167ZM20.0793 33.5807V38.9198H18.1965C17.1568 38.9198 16.2716 38.8636 16.2295 38.7934C16.1873 38.7372 16.1873 36.7982 16.2435 34.508L16.3278 30.335L16.9741 29.9697C17.3254 29.773 18.1263 29.2953 18.7445 28.93C19.3627 28.5647 19.9107 28.2556 19.9809 28.2415C20.0371 28.2415 20.0793 30.6441 20.0793 33.5807ZM58.1278 29.8292L58.999 30.2648L59.0271 34.3815C59.0271 36.6437 59.0411 38.5826 59.0552 38.6669C59.0692 38.8074 58.5774 38.8636 57.1443 38.8917L55.2053 38.9339V33.5807V28.2134L56.231 28.8035C56.779 29.1126 57.6361 29.5763 58.1278 29.8292ZM63.6637 32.3583C63.9447 32.4566 64.0009 33.1873 63.9447 36.461L63.9025 38.9198H61.9495H59.9825V34.8593V30.7987L61.7107 31.5293C62.6521 31.9368 63.5232 32.3161 63.6637 32.3583ZM15.3021 34.9155V38.9198H13.3632H11.4102L11.3399 36.5594C11.2978 35.2667 11.2978 33.8476 11.354 33.398L11.4383 32.569L13.1946 31.7541C14.164 31.3045 15.0352 30.9392 15.1335 30.9251C15.26 30.9111 15.3021 31.7963 15.3021 34.9155ZM10.4969 36.0676L10.4547 38.8496L8.24881 38.8917L6.02885 38.9339V36.6437V34.3534L8.17856 33.6509C9.75221 33.1311 10.3423 32.9905 10.4266 33.117C10.4828 33.2154 10.5109 34.5361 10.4969 36.0676ZM66.1647 33.2997C66.825 33.5245 67.8226 33.8476 68.3846 34.0022L69.3963 34.2972V36.6156V38.9198L67.1201 38.8917L64.8299 38.8496L64.7877 35.8568C64.7737 34.227 64.8018 32.8781 64.858 32.8781C64.9142 32.8781 65.5043 33.0608 66.1647 33.2997ZM69.3963 40.7464V41.3084H37.7126H6.02885V40.7464V40.1844H37.7126H69.3963V40.7464ZM69.3963 45.3268V47.7856L69.0872 47.6873C68.9045 47.6451 68.2863 47.3641 67.7102 47.0691C65.1249 45.7764 61.4999 44.3292 59.0692 43.6127C58.1559 43.3457 57.2989 43.0647 57.1724 42.9945C57.0459 42.9101 59.4345 42.8539 63.186 42.8539H69.3963V45.3268ZM17.0584 43.1209C16.9741 43.1912 16.4824 43.3879 15.9344 43.5565C13.5177 44.3433 8.31907 46.5352 6.77352 47.4344C6.45036 47.617 6.1553 47.7716 6.11315 47.7716C6.071 47.7716 6.02885 46.7319 6.02885 45.4533V43.135L9.02159 43.0928C16.4121 42.9945 17.1849 42.9945 17.0584 43.1209Z" fill="#30D5C8"/>
<path d="M31.3896 1.61586C28.2845 2.19193 25.1512 3.24571 22.2006 4.72101C12.548 9.52625 5.87404 18.2656 3.72433 28.958C3.26066 31.3185 3.20446 31.6135 3.33092 31.6135C3.38712 31.5995 3.96319 31.3325 4.60951 31.0094L5.80379 30.4192L6.1129 28.8315C6.78732 25.3751 8.71223 20.8087 10.7776 17.7036C15.611 10.4676 23.3668 5.36733 31.8533 3.84988L33.2864 3.58292V2.50104V1.40511L32.8368 1.41916C32.5839 1.43321 31.9376 1.51751 31.3896 1.61586Z" fill="white"/>
<path d="M41.998 2.51506V3.61099L42.7287 3.70935C43.923 3.87795 47.0281 4.70693 48.6017 5.3111C56.3997 8.24763 62.9191 14.0364 66.516 21.2021C67.8508 23.8717 68.6236 26.1198 69.1997 29.0985L69.4245 30.3209L70.4361 30.8829C72.0379 31.7961 71.9817 31.8102 71.8693 30.8267C71.7288 29.5902 71.1386 26.8363 70.7171 25.4454C68.9749 19.7409 65.3499 14.0645 60.8959 10.1023C57.1304 6.75829 52.4937 4.10276 47.7166 2.59936C46.0446 2.06544 43.094 1.40508 42.4196 1.40508H41.998V2.51506Z" fill="white"/>
<path d="M34.6213 48.3476C27.1605 48.7691 19.8683 50.5676 12.6464 53.757L10.7637 54.586L24.2099 54.6281C31.6145 54.6422 43.6838 54.6422 51.0322 54.6281L64.4082 54.586L63.3263 54.0521C62.7362 53.7711 61.3171 53.1528 60.165 52.7032C53.6877 50.132 47.4634 48.741 40.5225 48.3335C37.895 48.179 37.5016 48.179 34.6213 48.3476Z" fill="white"/>
</svg>
