<svg width="75" height="63" viewBox="0 0 75 63" fill="none" xmlns="http://www.w3.org/2000/svg">
<path d="M37.4824 15.0867C47.8335 15.0867 55.9499 15.074 61.4629 15.0466C64.2196 15.033 66.3242 15.0161 67.7314 14.9949C67.7805 14.9941 67.8287 14.9927 67.876 14.9919C67.0173 14.5705 65.8776 14.0137 64.541 13.3669C61.5467 11.9181 57.5721 10.0092 53.5908 8.10425C49.6096 6.19938 45.6222 4.29886 42.6006 2.8689C41.0898 2.15394 39.8212 1.55688 38.916 1.1355C38.4633 0.92476 38.1026 0.758071 37.8486 0.643311C37.732 0.59061 37.639 0.550486 37.5713 0.52124C37.5451 0.529517 37.5123 0.537828 37.4736 0.551514C37.3183 0.606516 37.091 0.69705 36.7803 0.828857C36.1607 1.09165 35.2369 1.50723 33.9482 2.10425C32.6601 2.70102 31.012 3.47672 28.9463 4.45776L21.4404 8.04272H21.4395C17.0463 10.1467 13.0362 12.0621 10.1133 13.4509C8.77922 14.0848 7.67101 14.6089 6.85645 14.9919C6.91028 14.9928 6.96529 14.994 7.02148 14.9949C8.38278 15.0161 10.424 15.033 13.1406 15.0466C18.5736 15.074 26.7023 15.0867 37.4824 15.0867Z" stroke="white"/>
<path d="M10.8894 18.5657L10.9399 20.0469H37.449H63.9582L64.0087 18.5657L64.0592 17.1014H37.449H10.8389L10.8894 18.5657Z" fill="white"/>
<path d="M13.6025 50.2539L16.3301 50.2373L16.6436 50.2354L16.7783 49.9521L17.4346 48.5713L17.6025 48.2314C17.996 47.4704 18.4124 46.9108 19.0537 46.2695L20.2842 45.0391L20.2764 44.8223L19.9404 34.959C19.755 29.5151 19.6036 24.8011 19.6035 24.4736C19.6035 24.4137 19.6037 24.3639 19.6045 24.3213C19.6678 24.3146 19.7507 24.3069 19.8633 24.2988L20.5703 24.248L21.0107 24.2168L21.0342 23.7754L21.084 22.7998L21.1348 21.8408L21.1621 21.3145H11.0293V24.334H12.3887L12.3096 26.1982L12.251 27.667C12.1853 29.5501 12.1031 32.5297 12.04 35.2676C11.956 38.9165 11.821 43.1716 11.7705 44.7207L11.6875 47.0654H10.3564V50.2539H13.6025Z" stroke="white"/>
<path d="M26.8916 40.489C27.0158 40.4625 27.1404 40.4027 27.2451 40.3464C27.4684 40.2266 27.7754 40.0235 28.165 39.7429C28.9513 39.1767 30.1474 38.2439 31.8389 36.8806H31.8379L34.0771 35.0798L34.2715 34.9226L34.2627 34.6726L34.1621 31.8113C34.1116 30.2284 34.0271 27.7886 33.9766 26.3748V26.3728L33.8965 24.3337H35.2568V21.3142H25.3359V24.3337H26.7021L26.6162 25.7732V25.7771C26.5317 27.4158 26.409 30.9139 26.3164 34.0232C26.2701 35.5785 26.2312 37.0389 26.208 38.1238C26.1964 38.6659 26.1892 39.1165 26.1865 39.4382C26.1852 39.5985 26.1851 39.73 26.1865 39.8259C26.1872 39.8733 26.1876 39.9165 26.1895 39.9519C26.1904 39.9692 26.1922 39.9899 26.1943 40.0105C26.1951 40.0178 26.1997 40.0734 26.2197 40.1335L26.2236 40.1443L26.2275 40.1541C26.2947 40.3287 26.4381 40.4417 26.5938 40.4841C26.7202 40.5186 26.8317 40.5018 26.8916 40.489Z" stroke="white"/>
<path d="M41.8369 26.9641L42.4766 25.8704L42.4775 25.8674L42.9736 25.0071H44.3164C45.2133 25.0071 46.2862 25.1086 46.708 25.2249L46.7197 25.2278L47.5957 25.4465L48.2168 25.6018V24.3352C48.2661 24.3344 48.3227 24.3342 48.3896 24.3342H49.5635V21.3147H39.6426V24.3342H40.8213L40.8545 25.2991L40.9053 26.7297L40.9658 28.4534L41.8369 26.9641Z" stroke="white"/>
<path d="M64.542 50.2539V47.0654H63.2061L63.1279 45.4717V45.4658C63.0946 44.9068 63.0396 43.46 62.9766 41.5801L62.7754 35.0957C62.6409 30.5223 62.4886 26.1024 62.4375 25.2676L62.3838 24.334H63.8691V21.3145H53.7363L53.7646 21.8408L53.8145 22.7998L53.8652 23.7754L53.8877 24.2139L54.3252 24.248L54.9639 24.2988L55.127 24.3125V26.7197L55.2373 26.8574L56.0791 27.9014L56.0811 27.9033L56.2725 28.1465C57.2267 29.3961 58.1161 31.1764 58.334 32.2949L58.3359 32.3027L58.4023 32.6689C58.6598 34.3668 58.1698 35.9509 56.917 37.3408L56.6367 37.6357C56.3379 37.9346 56.0329 38.2269 55.7822 38.4531C55.6565 38.5666 55.5478 38.6595 55.4629 38.7275C55.3631 38.8075 55.334 38.8209 55.3525 38.8125L55.3252 38.8262C55.2556 38.8631 55.1732 38.9168 55.0957 39.001C55.0187 39.0845 54.964 39.1793 54.9238 39.2783C54.8501 39.4601 54.8111 39.6935 54.7822 39.9814C54.7231 40.5702 54.6889 41.6034 54.6387 43.4453V43.4463L54.5488 47.0205L54.375 47.0342V47.0352L53.7363 47.084L53.2754 47.1201V50.2539H64.542Z" stroke="white"/>
<path d="M43.8117 25.9883C43.6434 26.0556 43.1384 26.6784 42.684 27.3684C40.5969 30.5327 36.0357 34.9257 29.7744 39.7731C26.7617 42.0958 22.2341 45.3274 21.3083 45.7986C20.248 46.3204 18.851 47.8521 18.2619 49.1144C16.7134 52.4638 17.5886 56.9578 20.3658 59.7854C20.9717 60.4082 21.7796 60.9972 22.3855 61.2834C23.2776 61.721 23.5805 61.7715 24.9102 61.7715C25.9874 61.7715 26.627 61.6705 27.0814 61.4685C27.5022 61.2834 29.1517 59.7854 31.4744 57.53C33.511 55.5103 36.5406 52.6153 38.2069 51.05L41.2365 48.2392L41.7414 48.8114C42.4315 49.5857 43.2899 51.05 43.778 52.2618C44.2493 53.4064 44.8047 55.9984 44.973 57.6983C45.0235 58.3379 45.1245 58.8933 45.1919 58.927C45.2592 58.9607 45.5453 58.4726 45.8314 57.833C46.1176 57.1597 46.4542 56.6548 46.5888 56.6548C46.7235 56.6548 47.1443 56.7726 47.5482 56.9073L48.2551 57.1597L48.1373 56.0994C47.8344 53.5242 47.1611 51.7569 45.4611 49.0302C44.9562 48.2223 44.5691 47.5659 44.6196 47.5659C44.7879 47.5659 47.1106 49.1144 47.8512 49.7203C48.8106 50.5114 49.6016 51.6223 50.7293 53.8103L51.6887 55.6449L52.16 54.6687L52.6313 53.6757L53.9273 53.3895C54.6342 53.2212 55.3074 53.0697 55.4252 53.0192C55.5431 52.9856 54.8866 52.2787 53.9104 51.4034C51.1838 48.9461 50.2749 48.2223 48.4739 46.9768C46.1681 45.3947 45.5116 44.8729 45.6295 44.6878C45.7978 44.4185 51.6719 40.0592 53.7253 38.679C54.8361 37.9385 55.947 37.0801 56.1995 36.7939C58.3034 34.2861 57.7311 31.1555 54.5332 27.6209L53.7758 26.7962L52.6817 27.8734L51.5877 28.9506L51.2174 28.5971C50.3759 27.8397 48.6086 26.8467 47.3967 26.4596C46.0166 26.0388 44.2661 25.8031 43.8117 25.9883ZM47.3126 28.2268C48.1541 28.5466 50.1234 29.7416 50.3254 30.0614C50.4095 30.1961 46.6225 33.9326 44.0642 36.2385L42.7177 37.4504L42.0949 36.8108C41.3375 36.0365 40.193 35.3801 39.0821 35.1108L38.291 34.9088L40.2771 32.8386C41.3712 31.7109 42.8186 30.0614 43.4751 29.1862L44.6701 27.5872L45.5453 27.7387C46.0334 27.8229 46.8245 28.0417 47.3126 28.2268ZM55.1223 31.2733C55.9807 32.8723 55.9638 34.2692 55.055 35.4979C54.8698 35.7504 53.8431 36.5583 52.7827 37.2652C51.7055 37.9721 49.6016 39.4869 48.07 40.6146C46.5552 41.7591 45.2928 42.6849 45.276 42.6849C45.2423 42.6849 45.1414 42.3314 45.0404 41.9106C44.9226 41.4898 44.5859 40.6146 44.2661 39.9919L43.6939 38.8642L46.1681 36.5751C47.5314 35.3128 49.7868 33.1416 51.1669 31.7446L53.6916 29.2199L54.1461 29.7585C54.3985 30.0614 54.8361 30.7347 55.1223 31.2733ZM35.6822 38.8137C36.8604 39.2176 37.9039 39.8067 38.4257 40.379L38.8296 40.7998L37.1634 42.0958C33.9654 44.57 31.1209 46.3541 29.623 46.8085C29.1349 46.96 28.9665 47.1115 28.9834 47.3303C29.0002 47.5154 29.1012 48.2897 29.1854 49.0807C29.7576 53.6252 28.9665 57.833 27.2666 59.331C25.4152 60.9468 22.4865 60.1725 20.7192 57.6142C19.743 56.1835 19.2213 54.5004 19.2213 52.6994C19.2213 50.7302 19.642 49.5857 20.8371 48.3065C21.8301 47.263 22.7222 46.8422 23.5469 47.0778C24.035 47.2125 25.4993 48.5926 25.4993 48.9124C25.4993 48.9966 24.4726 49.956 23.2271 51.05C21.5945 52.4806 20.9549 53.1371 20.9549 53.4064C20.9549 54.0796 21.645 55.6281 22.1836 56.2172C22.9073 56.9746 23.9172 57.2775 24.8429 57.0082C26.3409 56.5538 27.8052 54.4667 27.9735 52.5143C28.1586 50.2758 26.93 47.263 25.3142 46.0679L24.6914 45.6303L26.7953 44.1155C27.9567 43.274 30.0774 41.675 31.5249 40.5305C32.9724 39.4028 34.2684 38.4771 34.4199 38.4771C34.5713 38.4771 35.1436 38.6285 35.6822 38.8137ZM40.1593 43.0888C40.5969 44.0819 41.0682 46.2194 40.8831 46.3709C38.9475 48.0877 36.5743 50.2589 34.0832 52.6321L30.9695 55.5944V51.8579V48.1214L31.811 47.7174C32.8882 47.2125 36.6584 44.6878 38.291 43.3749C38.9811 42.8195 39.6207 42.3651 39.688 42.3651C39.7554 42.3482 39.9742 42.6849 40.1593 43.0888ZM26.324 51.9589C26.3577 53.7935 24.7924 55.8132 23.7152 55.342C23.3617 55.1736 22.739 54.0796 22.84 53.7766C22.8736 53.6925 23.6142 52.9687 24.4894 52.1945C26.2062 50.6797 26.3072 50.6629 26.324 51.9589Z" fill="#30D5C8"/>
<path d="M7.77603 51.3698C7.7087 51.4371 7.65821 52.1609 7.65821 52.9856V54.4668H5.63846H3.63555L3.58505 56.1835L3.53456 57.9172H1.76728H0V60.1052V62.2933L10.4859 62.3438L20.9885 62.3774L19.6589 61.1319C17.2015 58.8092 16.1075 56.1835 16.0065 52.447L15.9897 51.353L11.9333 51.3025C9.71162 51.2857 7.84335 51.3193 7.77603 51.3698Z" fill="white"/>
<path d="M38.5095 52.8005C36.7591 54.4499 28.8652 62.2428 28.8652 62.3269C28.8652 62.3606 32.2483 62.3774 36.372 62.3774H43.8955L43.7777 60.728C43.5084 56.9914 42.852 53.5915 42.1114 52.1104C41.758 51.3866 41.7075 51.353 40.9501 51.3025C40.159 51.252 40.159 51.252 38.5095 52.8005Z" fill="white"/>
<path d="M60.2207 61.844L74.4102 61.7952L74.4492 60.0432L74.4883 58.3333H70.7803V54.967H66.7734L66.7578 54.4827L66.707 52.9172L66.6719 51.8489L61.7324 51.802C60.2381 51.7936 58.8835 51.8027 57.9043 51.8215C57.7096 51.8253 57.5303 51.8307 57.3682 51.8352C57.508 51.9687 57.6635 52.111 57.8262 52.2571C58.1554 52.5471 58.4646 52.8042 58.6484 53.0022C58.7385 53.0992 58.8565 53.2398 58.9131 53.4143C58.9445 53.5112 58.9604 53.6287 58.9355 53.7561C58.9104 53.8846 58.8498 53.9904 58.7793 54.0715C58.6528 54.2168 58.4787 54.3005 58.3418 54.3557C58.1918 54.4162 58.0082 54.4719 57.7998 54.5266C57.592 54.5812 57.34 54.6399 57.0439 54.7073L56.0234 54.9377L55.1816 55.1321C54.9221 55.1936 54.6868 55.2511 54.4883 55.301C54.2985 55.3487 54.1446 55.3898 54.0352 55.4202C54.0029 55.4795 53.9656 55.5485 53.9268 55.6213C53.8688 55.73 53.8017 55.8578 53.7295 55.9983L53.501 56.4534L53.499 56.4573L52.9277 57.5618C52.7268 57.9424 52.5332 58.3051 52.3994 58.5559L51.958 58.3206L52.3994 58.5569L52.3926 58.5676L51.8877 59.4592L51.374 60.3674L50.9883 59.3977L50.4346 58.0061C50.3811 57.8762 50.326 57.7481 50.2725 57.6213C50.3013 57.9535 50.3258 58.2622 50.3418 58.511C50.3526 58.6792 50.3599 58.8256 50.3623 58.9348C50.3635 58.9879 50.3637 59.0418 50.3613 59.0881C50.3602 59.1098 50.3587 59.1437 50.3525 59.1799C50.3496 59.1975 50.3432 59.2285 50.3311 59.2649C50.3254 59.2817 50.3068 59.3383 50.2617 59.4016L50.207 59.4661L50.1475 59.5168C50.0882 59.56 50.0324 59.5813 50.002 59.5911C49.9563 59.6057 49.917 59.611 49.8936 59.6135C49.8468 59.6185 49.806 59.6169 49.7832 59.6155C49.7345 59.6124 49.6841 59.6044 49.6416 59.5969C49.5522 59.5811 49.4375 59.5552 49.3105 59.5237C49.1823 59.4919 49.0331 59.452 48.8701 59.4065L48.3457 59.2542L48.3418 59.2532L47.4766 58.9836C47.4166 59.1355 47.3157 59.3714 47.2002 59.6282L46.6729 60.7844L46.6709 60.7893L46.4043 61.3733C46.3412 61.5155 46.2834 61.6491 46.2324 61.7698C46.3449 61.7732 46.4716 61.7792 46.6123 61.7825C47.3062 61.7987 48.3242 61.812 49.6162 61.8225C50.9078 61.833 52.4714 61.8403 54.2559 61.844H60.2207Z" fill="white" stroke="white"/>
</svg>
