<svg width="75" height="75" viewBox="0 0 75 75" fill="none" xmlns="http://www.w3.org/2000/svg">
<g clip-path="url(#clip0_81_126)">
<path d="M0 -0.24881C0 -0.160385 5.91368 -0.12249 17.4785 -0.109863C28.4057 -0.097229 34.4944 -0.0466995 33.7567 0.0164566C29.2058 0.44593 24.93 1.68384 20.6916 3.79332C14.6154 6.81229 9.77695 11.1576 5.97619 16.9934C4.75095 18.8629 2.95059 22.5134 2.18794 24.6987C-0.712642 32.884 -0.712642 41.903 2.18794 50.0883C3.0006 52.3873 4.77595 55.9621 6.10122 57.9831C9.86447 63.68 14.7404 68.0379 20.6916 70.9937C24.9425 73.1158 29.2058 74.3411 33.7567 74.7706C34.4944 74.8337 28.4057 74.8843 17.4785 74.8969L0 74.9095V75.478V76.0464H37.0699H74.1398V75.478V74.9095L56.7363 74.8969C45.8342 74.8843 39.7704 74.8337 40.5081 74.7706C45.059 74.3411 49.3349 73.1032 53.5732 70.9937C60.9747 67.3053 66.7383 61.4821 70.3891 54.0041C72.0894 50.5178 73.0896 47.461 73.7897 43.5199C74.0523 42.0041 74.0773 41.5367 74.0773 37.3935C74.0773 33.2503 74.0523 32.783 73.7897 31.2672C73.0896 27.3261 72.0894 24.2692 70.3891 20.7829C66.7383 13.2923 60.9872 7.48177 53.5732 3.79332C49.3349 1.68384 45.059 0.44593 40.5081 0.0164566C39.7704 -0.0466995 45.8342 -0.097229 56.7363 -0.109863C68.2386 -0.12249 74.1398 -0.160385 74.1398 -0.24881C74.1398 -0.337227 61.6998 -0.375122 37.0699 -0.375122C12.44 -0.375122 0 -0.337227 0 -0.24881ZM42.2584 2.32805C55.5861 4.45016 66.3507 13.6839 70.4891 26.5429C71.6268 30.0672 72.0144 32.5303 72.1019 36.6356C72.1769 39.9325 72.0269 41.7641 71.5018 44.4041C69.9515 52.1726 65.6881 59.4105 59.6369 64.5137C54.6234 68.7453 48.7222 71.4358 42.1959 72.459C40.0705 72.8001 34.2193 72.8001 32.1314 72.4716C20.3416 70.6021 10.5146 63.2758 5.5011 52.6399C3.17563 47.6883 2.12542 42.9641 2.12542 37.3935C2.12542 32.4419 2.97559 28.1219 4.82596 23.6629C7.95159 16.1218 13.8278 9.70493 21.0417 5.9407C25.0925 3.83121 28.8433 2.707 33.8818 2.10068C35.007 1.97437 40.9957 2.12595 42.2584 2.32805Z" fill="white"/>
<path d="M13.7529 17.8145V19.7092L23.1673 19.684L32.5692 19.6461V17.8145V15.9829L23.1673 15.945L13.7529 15.9197V17.8145Z" fill="#30D5C8"/>
<path d="M50.3848 37.4441V58.8674H55.4483H60.5118V38.5557V18.2314L55.6108 17.183C52.9103 16.6019 50.6223 16.1093 50.5473 16.0714C50.4223 16.0335 50.3848 20.3535 50.3848 37.4441ZM55.5358 20.0251C57.0736 20.3409 58.4489 20.6567 58.6114 20.7198C58.7864 20.7956 58.8865 20.9472 58.8865 21.1493C58.8865 21.7935 58.7364 21.7935 55.3608 21.0988C53.6229 20.7325 52.1226 20.3788 52.0476 20.3156C51.8726 20.1767 51.8226 19.684 51.9726 19.5451C52.1351 19.3809 52.7852 19.4693 55.5358 20.0251ZM55.4733 24.8251C56.9736 25.1409 58.3239 25.4188 58.4739 25.4567C58.9115 25.5578 59.049 25.9493 58.7739 26.2904L58.5489 26.5683L55.3733 25.9114C53.6229 25.5451 52.1226 25.1788 52.0476 25.1157C51.685 24.8251 51.9601 24.2567 52.4602 24.2567C52.6102 24.2567 53.9605 24.5093 55.4733 24.8251ZM55.6733 29.6883C57.2986 30.0294 58.6989 30.3452 58.7614 30.3831C58.8365 30.4209 58.8865 30.6231 58.8865 30.8252C58.8865 31.1031 58.8114 31.2167 58.6114 31.2673C58.2738 31.3557 52.2851 30.1178 52.0476 29.9157C51.6975 29.6252 51.9476 29.0567 52.4477 29.0567C52.5852 29.0567 54.0355 29.3346 55.6733 29.6883ZM55.6358 34.4883C57.2986 34.842 58.7114 35.1578 58.7739 35.1957C58.974 35.3094 58.899 36.0041 58.6864 36.0926C58.4239 36.1936 52.2976 34.9304 52.0601 34.7283C51.71 34.4378 51.9351 33.8568 52.3977 33.8568C52.5227 33.8568 53.973 34.1473 55.6358 34.4883ZM55.6358 39.301C57.3237 39.6547 58.7489 39.9831 58.7989 40.0336C58.8615 40.0968 58.8865 40.2989 58.8615 40.501C58.8365 40.7789 58.7489 40.88 58.5114 40.9052C58.0988 40.9557 52.2726 39.7052 52.0601 39.5284C51.7225 39.2505 51.9351 38.6568 52.3727 38.6568C52.4727 38.6568 53.948 38.9473 55.6358 39.301ZM55.4733 44.0758C57.1111 44.4168 58.5489 44.7452 58.6739 44.7831C58.8114 44.8463 58.8865 45.0105 58.8865 45.2379C58.8865 45.4779 58.8114 45.6421 58.6739 45.6926C58.3989 45.8063 52.5477 44.6189 52.1726 44.3916C51.8601 44.1895 51.7975 43.8484 52.0351 43.6084C52.2476 43.3937 52.1726 43.381 55.4733 44.0758ZM55.4983 48.9011C57.1861 49.2547 58.6489 49.5958 58.7364 49.6716C58.8239 49.7474 58.8865 49.9621 58.8615 50.139C58.8365 50.4042 58.7489 50.48 58.4489 50.5053C57.9238 50.5558 52.1101 49.3053 51.9851 49.1032C51.7725 48.7747 51.9726 48.2568 52.3101 48.2568C52.3852 48.2568 53.823 48.5474 55.4983 48.9011ZM55.4733 53.7011C57.1736 54.0548 58.6489 54.4085 58.7364 54.4716C58.949 54.6611 58.924 55.1664 58.6864 55.3053C58.4239 55.4569 52.1476 54.1558 51.9976 53.9158C51.8226 53.6506 51.8726 53.3348 52.1101 53.1958C52.2226 53.12 52.3352 53.0569 52.3477 53.0569C52.3602 53.0569 53.7729 53.3474 55.4733 53.7011Z" fill="#30D5C8"/>
<path d="M45.5095 17.4861L41.9463 18.7872L41.9088 38.821L41.8838 58.8674H45.572H49.2603V37.5199C49.2603 25.7725 49.2228 16.1724 49.1727 16.1851C49.1102 16.1851 47.4724 16.7788 45.5095 17.4861ZM48.06 19.7346C48.3351 20.1767 47.985 20.3661 45.7096 21.0735L43.4841 21.7683L43.2341 21.5156C42.759 21.0356 43.084 20.783 44.9219 20.2146C45.8221 19.924 46.7098 19.6461 46.8848 19.583C47.3474 19.4188 47.91 19.4946 48.06 19.7346ZM48.06 24.5346C48.16 24.6988 48.16 24.8251 48.06 24.9767C47.8975 25.242 43.8217 26.5557 43.4341 26.4672C43.109 26.3914 42.984 25.9872 43.184 25.7093C43.3591 25.4567 47.0598 24.2693 47.5599 24.2946C47.76 24.3072 47.985 24.4209 48.06 24.5346ZM48.06 29.3346C48.3351 29.7767 47.985 29.9788 45.8096 30.6736C43.7092 31.3304 43.2341 31.3936 43.084 31.002C42.9465 30.6483 43.2466 30.3452 43.9092 30.1431C44.2718 30.0294 45.197 29.7515 45.9471 29.5115C47.4349 29.0315 47.8475 28.9936 48.06 29.3346ZM47.985 34.0083C48.185 34.2104 48.1725 34.5515 47.9725 34.7157C47.7725 34.8799 43.8217 36.1305 43.4966 36.1305C43.1966 36.1305 42.959 35.6883 43.1215 35.3978C43.1966 35.2589 43.9592 34.9557 45.2845 34.5262C47.4724 33.8315 47.7475 33.7683 47.985 34.0083ZM47.985 38.8084C48.185 39.0105 48.1725 39.3515 47.96 39.5284C47.7475 39.7052 43.8717 40.9305 43.5216 40.9305C43.1966 40.9305 42.959 40.501 43.1215 40.1978C43.1966 40.0589 43.9717 39.7557 45.2845 39.3263C47.4849 38.6315 47.76 38.581 47.985 38.8084ZM47.985 43.6084C48.2226 43.8484 48.16 44.1895 47.86 44.3916C47.5099 44.6063 43.8842 45.7305 43.5216 45.7305C43.0215 45.7305 42.8965 44.9726 43.3591 44.7831C43.8092 44.5937 47.4599 43.4694 47.6474 43.4694C47.7475 43.4568 47.8975 43.52 47.985 43.6084ZM47.985 48.4084C48.2226 48.6484 48.16 48.9895 47.86 49.1916C47.5099 49.419 43.9217 50.5305 43.5466 50.5305C43.2341 50.5305 42.9715 50.139 43.084 49.8484C43.134 49.7221 43.8967 49.4063 45.1844 49.0021C46.2847 48.6484 47.2599 48.3453 47.3224 48.32C47.5849 48.2316 47.835 48.2568 47.985 48.4084ZM47.8975 53.1832C48.1475 53.3221 48.2101 53.6379 48.035 53.9032C47.9225 54.0927 44.0467 55.3306 43.5966 55.3306C43.2341 55.3306 42.959 54.9643 43.084 54.6485C43.134 54.5221 43.8592 54.2316 44.9844 53.8779C45.9971 53.5495 46.9598 53.2463 47.1348 53.1832C47.5599 53.0316 47.6099 53.0316 47.8975 53.1832Z" fill="#30D5C8"/>
<path d="M16.0029 39.7936V58.8674H20.1288H24.2546L24.2796 43.0147C24.3171 29.082 24.3421 27.1367 24.5046 27.0357C24.6046 26.9725 25.9674 26.9093 27.5427 26.9093H30.3808V23.8146V20.7198H23.1919H16.0029V39.7936ZM28.4304 24.2062C28.668 24.4335 28.668 24.4588 28.5054 24.7746C28.3804 25.002 28.1804 25.0146 23.2169 25.0146C17.9783 25.0146 17.7533 24.9893 17.7533 24.5599C17.7533 24.4714 17.8408 24.3072 17.9533 24.2062C18.1159 24.0293 18.766 24.0041 23.1919 24.0041C27.6177 24.0041 28.2679 24.0293 28.4304 24.2062ZM18.791 29.7262C18.991 29.8652 19.0035 30.1178 18.9785 32.0757C18.941 34.0083 18.916 34.2862 18.7285 34.4125C18.5659 34.5136 18.4409 34.5136 18.2909 34.4125C18.0908 34.2862 18.0658 34.0083 18.0283 32.0757C18.0033 30.1178 18.0158 29.8652 18.2159 29.7262C18.3284 29.6378 18.4659 29.562 18.5034 29.562C18.5409 29.562 18.6785 29.6378 18.791 29.7262ZM22.0416 29.7262C22.2417 29.8652 22.2542 30.1178 22.2292 32.0757C22.1917 34.0083 22.1667 34.2862 21.9791 34.4125C21.8166 34.5136 21.6916 34.5136 21.5415 34.4125C21.3415 34.2862 21.3165 34.0083 21.279 32.0757C21.254 30.1178 21.2665 29.8652 21.4665 29.7262C21.579 29.6378 21.7166 29.562 21.7541 29.562C21.7916 29.562 21.9291 29.6378 22.0416 29.7262ZM18.8535 40.3242C18.9535 40.4252 19.0035 41.1326 19.0035 42.661C19.0035 44.7073 18.991 44.8463 18.7535 44.9726C18.5784 45.0737 18.4284 45.0737 18.2534 44.9726C18.0158 44.8463 18.0033 44.7073 18.0033 42.661C18.0033 40.4252 18.0533 40.1726 18.5034 40.1726C18.616 40.1726 18.766 40.2357 18.8535 40.3242ZM22.1041 40.3242C22.2042 40.4252 22.2542 41.1326 22.2542 42.6484C22.2542 44.4421 22.2167 44.8463 22.0666 44.9726C21.9166 45.0989 21.8041 45.0989 21.5665 44.9979L21.254 44.8463V42.661C21.254 40.4252 21.304 40.1726 21.7541 40.1726C21.8666 40.1726 22.0166 40.2357 22.1041 40.3242ZM18.791 50.8211C18.991 50.96 19.0035 51.2126 18.9785 53.1706C18.941 55.1032 18.916 55.3811 18.7285 55.5074C18.5659 55.6085 18.4409 55.6085 18.2909 55.5074C18.0908 55.3811 18.0658 55.1032 18.0283 53.1706C18.0033 51.2126 18.0158 50.96 18.2159 50.8211C18.3284 50.7326 18.4659 50.6569 18.5034 50.6569C18.5409 50.6569 18.6785 50.7326 18.791 50.8211ZM22.0416 50.8211C22.2417 50.96 22.2542 51.2126 22.2292 53.1706C22.1917 55.1032 22.1667 55.3811 21.9791 55.5074C21.8166 55.6085 21.6916 55.6085 21.5415 55.5074C21.3415 55.3811 21.3165 55.1032 21.279 53.1706C21.254 51.2126 21.2665 50.96 21.4665 50.8211C21.579 50.7326 21.7166 50.6569 21.7541 50.6569C21.7916 50.6569 21.9291 50.7326 22.0416 50.8211Z" fill="#30D5C8"/>
<path d="M25.3799 43.3935V58.8673H27.1927H29.0056V53.3598C29.0056 49.8104 29.0556 47.7767 29.1306 47.6124C29.2557 47.3851 29.4307 47.3724 33.0564 47.3724C36.0695 47.3724 36.8822 47.4103 36.9947 47.5367C37.0822 47.663 37.1447 49.4188 37.1572 53.2588L37.1947 58.8041L39.0451 58.842L40.883 58.8799L40.858 43.4314L40.8205 27.9829L33.1064 27.945L25.3799 27.9197V43.3935ZM36.9822 30.345C37.1947 30.5597 37.1947 35.6376 36.9822 35.8524C36.8697 35.9661 35.8195 36.004 33.0439 36.004C29.4307 36.004 29.2557 35.9913 29.1306 35.764C29.0556 35.6124 29.0056 34.5134 29.0056 33.0481C29.0056 30.9766 29.0431 30.5597 29.2056 30.3955C29.3682 30.2187 29.9058 30.1934 33.1189 30.1934C35.8445 30.1934 36.8697 30.2313 36.9822 30.345ZM36.9822 39.3134C37.1947 39.5282 37.1947 44.6061 36.9822 44.8209C36.8697 44.9345 35.8445 44.9724 33.1189 44.9724C29.9058 44.9724 29.3682 44.9472 29.2056 44.7703C29.0306 44.6061 29.0056 44.1766 29.0056 42.0166C29.0056 40.1977 29.0431 39.4271 29.1556 39.3134C29.3682 39.0987 36.7697 39.0987 36.9822 39.3134Z" fill="white"/>
<path d="M30.1309 33.0987V34.9934H33.1315H36.1446L36.1071 33.1239L36.0695 31.2671L33.1065 31.2292L30.1309 31.2039V33.0987Z" fill="#30D5C8"/>
<path d="M30.1309 42.0041V43.8357H33.1315H36.1321V42.0041V40.1725H33.1315H30.1309V42.0041Z" fill="#30D5C8"/>
<path d="M30.1309 53.6253V58.8674H33.1315H36.1321V53.6253V48.3832H33.1315H30.1309V53.6253Z" fill="#30D5C8"/>
</g>
<defs>
<clipPath id="clip0_81_126">
<rect width="74.1711" height="74.8274" fill="white"/>
</clipPath>
</defs>
</svg>
