<svg width="54" height="54" viewBox="0 0 54 54" fill="none" xmlns="http://www.w3.org/2000/svg">
<circle cx="27" cy="27" r="26" stroke="#140000" stroke-width="2"/>
<path d="M15.3333 14.3684C14.4493 14.3684 13.6014 14.7233 12.9763 15.355C12.3512 15.9867 12 16.8435 12 17.7368V35.0674L25.6333 21.2905C25.4331 20.418 25.3324 19.5252 25.3333 18.6295C25.3333 17.0968 25.6667 15.6484 26.3167 14.3684H15.3333ZM37 43C37.8841 43 38.7319 42.6451 39.357 42.0134C39.9821 41.3817 40.3333 40.5249 40.3333 39.6316V27.6063C39.0667 29.5263 37.5167 31.5642 35.8167 33.7368L34.5 35.4211L33.2 33.7368C30.9833 30.9579 29.0333 28.3811 27.65 26.0063C27.0833 25.0295 26.6 24.0695 26.2167 23.0926L19.4333 29.9474L32.35 43H37ZM12 39.6316C12 40.5249 12.3512 41.3817 12.9763 42.0134C13.6014 42.6451 14.4493 43 15.3333 43H29.9833L18.25 31.1432L12 37.4589V39.6316ZM34.5 32.8947C38.85 27.2189 42 22.9579 42 18.6968C42 14.4526 38.6667 11 34.5 11C30.3333 11 27 14.4526 27 18.6968C27 22.9579 30.1167 27.2189 34.5 32.8947ZM37.8333 18.5789C37.8333 19.0213 37.7471 19.4593 37.5796 19.868C37.4121 20.2767 37.1666 20.648 36.857 20.9608C36.5475 21.2736 36.18 21.5217 35.7756 21.691C35.3712 21.8602 34.9377 21.9474 34.5 21.9474C34.0623 21.9474 33.6288 21.8602 33.2244 21.691C32.82 21.5217 32.4525 21.2736 32.143 20.9608C31.8334 20.648 31.5879 20.2767 31.4204 19.868C31.2529 19.4593 31.1667 19.0213 31.1667 18.5789C31.1667 17.6856 31.5179 16.8288 32.143 16.1971C32.7681 15.5654 33.6159 15.2105 34.5 15.2105C35.3841 15.2105 36.2319 15.5654 36.857 16.1971C37.4821 16.8288 37.8333 17.6856 37.8333 18.5789Z" fill="#140000"/>
</svg>
