<svg width="75" height="75" viewBox="0 0 75 75" fill="none" xmlns="http://www.w3.org/2000/svg">
<path d="M30.5434 33.0858L36.9951 37.7579L43.4436 33.0858C43.4452 33.0824 43.4484 33.0809 43.4534 33.0777L58.1785 22.4097C57.5443 21.5191 56.5091 20.9302 55.3395 20.9302H18.6475C17.4779 20.9302 16.4428 21.5191 15.8086 22.4097L30.5353 33.0776C30.5402 33.0809 30.5434 33.0824 30.5434 33.0858Z" fill="#30D5C8"/>
<path d="M15.1964 24.0969C15.1866 24.2039 15.1641 24.3046 15.1641 24.4149V42.5841C15.1641 42.8923 15.2176 43.1859 15.2938 43.4713L28.6174 33.819L15.1964 24.0969Z" fill="#30D5C8"/>
<path d="M55.8993 36.6774C56.9423 36.6774 57.9091 36.8575 58.8258 37.1203V24.4149C58.8258 24.3045 58.8014 24.2022 58.7918 24.0952L45.3691 33.819L50.8848 37.8162C52.3788 37.0911 54.0709 36.6774 55.8993 36.6774Z" fill="#30D5C8"/>
<path d="M49.274 38.7801L43.8978 34.8868L36.9951 39.8881L30.0907 34.8867L16.1426 44.9884C16.7753 45.6535 17.6644 46.0672 18.6475 46.0672H44.889C45.374 43.0174 46.9654 40.4559 49.274 38.7801Z" fill="#30D5C8"/>
<path d="M58.9744 55.0723C57.464 55.7537 56.155 55.9777 54.3363 55.9777C50.1461 55.9777 46.4619 52.9781 46.4619 48.0302C46.4619 42.886 50.2238 38.415 55.8986 38.415C60.3696 38.415 63.5443 41.4698 63.5443 45.7087C63.5443 49.4156 61.4759 51.7403 58.7489 51.7403C57.563 51.7403 56.7064 51.1092 56.5799 49.7983H56.5312C55.72 51.0622 54.6137 51.7403 53.2493 51.7403C51.6385 51.7403 50.425 50.504 50.425 48.4357C50.425 45.3274 52.7206 42.5599 56.3528 42.5599C57.4639 42.5599 58.7245 42.8292 59.3572 43.1602L58.6012 47.8519C58.3465 49.341 58.5233 50.0207 59.2307 50.0516C60.3128 50.1003 61.6771 48.7084 61.6771 45.7802C61.6771 42.4807 59.5584 39.9563 55.6455 39.9563C51.7652 39.9563 48.4071 42.9592 48.4071 47.8033C48.4071 52.0405 51.0806 54.4188 54.8408 54.4188C56.1274 54.4188 57.5128 54.1349 58.5233 53.6352L58.9744 55.0723ZM56.7308 44.6559C56.5313 44.5992 56.2538 44.5505 55.9474 44.5505C54.2862 44.5505 52.972 46.1857 52.972 48.1275C52.972 49.0895 53.4036 49.6946 54.2342 49.6946C55.1638 49.6946 56.155 48.5137 56.3788 47.0488L56.7308 44.6559Z" fill="white"/>
<path d="M37.4984 0C16.8227 0 0 16.8212 0 37.4984C0 58.1773 16.8227 75 37.4984 75C50.8219 75 62.5152 67.9936 69.1696 57.4928C72.8391 51.6963 74.9969 44.8521 74.9969 37.4984C74.9969 16.8212 58.1773 0 37.4984 0ZM66.2042 55.692C60.163 65.1918 49.5664 71.5285 37.4984 71.5285C18.737 71.5285 3.47489 56.2615 3.47489 37.4984C3.47489 18.7388 18.737 3.47155 37.4984 3.47155C56.2598 3.47155 71.5235 18.7387 71.5235 37.4984C71.5235 44.1934 69.5541 50.4212 66.2042 55.692Z" fill="white"/>
</svg>
