<svg width="54" height="54" viewBox="0 0 54 54" fill="none" xmlns="http://www.w3.org/2000/svg">
<path d="M20.8079 25.5424L25.3418 28.8257L29.8734 25.5424C29.8746 25.54 29.8768 25.539 29.8803 25.5367L40.2283 18.0397C39.7826 17.4138 39.0551 17 38.2332 17H12.4482C11.6262 17 10.8988 17.4138 10.4531 18.0397L20.8022 25.5366C20.8056 25.539 20.8079 25.54 20.8079 25.5424Z" fill="#0D0000"/>
<path d="M10.0228 19.2254C10.0159 19.3006 10 19.3714 10 19.4488V32.2173C10 32.4339 10.0376 32.6402 10.0912 32.8408L19.4542 26.0576L10.0228 19.2254Z" fill="#0D0000"/>
<path d="M38.6265 28.0664C39.3595 28.0664 40.039 28.193 40.6831 28.3776V19.4489C40.6831 19.3713 40.666 19.2994 40.6592 19.2242L31.2266 26.0577L35.1026 28.8667C36.1526 28.3571 37.3417 28.0664 38.6265 28.0664Z" fill="#0D0000"/>
<path d="M33.9704 29.5441L30.1923 26.8081L25.3415 30.3228L20.4895 26.808L10.6875 33.907C11.1321 34.3744 11.7569 34.6651 12.4478 34.6651H30.8888C31.2297 32.5219 32.348 30.7218 33.9704 29.5441Z" fill="#0D0000"/>
<path d="M40.7891 40.9935C39.7277 41.4724 38.8078 41.6297 37.5298 41.6297C34.5851 41.6297 31.9961 39.5218 31.9961 36.0446C31.9961 32.4295 34.6398 29.2876 38.6277 29.2876C41.7696 29.2876 44.0006 31.4343 44.0006 34.4132C44.0006 37.0182 42.5471 38.6519 40.6307 38.6519C39.7973 38.6519 39.1954 38.2084 39.1064 37.2872H39.0722C38.5022 38.1754 37.7247 38.6519 36.7659 38.6519C35.6339 38.6519 34.7811 37.7831 34.7811 36.3296C34.7811 34.1453 36.3943 32.2004 38.9468 32.2004C39.7277 32.2004 40.6135 32.3896 41.0582 32.6222L40.5269 35.9193C40.3479 36.9658 40.4721 37.4435 40.9692 37.4652C41.7297 37.4994 42.6885 36.5212 42.6885 34.4635C42.6885 32.1447 41.1996 30.3707 38.4498 30.3707C35.7229 30.3707 33.363 32.481 33.363 35.8852C33.363 38.8629 35.2419 40.5343 37.8843 40.5343C38.7885 40.5343 39.762 40.3347 40.4722 39.9836L40.7891 40.9935ZM39.2125 33.6733C39.0723 33.6335 38.8773 33.5993 38.6619 33.5993C37.4945 33.5993 36.571 34.7484 36.571 36.113C36.571 36.7891 36.8743 37.2143 37.458 37.2143C38.1113 37.2143 38.8078 36.3844 38.9651 35.3549L39.2125 33.6733Z" fill="#140000"/>
<path d="M27 0.5C41.6133 0.500028 53.5 12.3876 53.5 26.999C53.5 32.0318 52.0699 36.7274 49.6221 40.7412L49.3818 41.127C44.6775 48.5504 36.4134 53.5 27 53.5C12.3891 53.5 0.500109 41.6116 0.5 26.999C0.5 12.3876 12.389 0.5 27 0.5ZM27 2C13.2151 2 2.00195 13.216 2.00195 26.999C2.00206 40.7844 13.2151 52.001 27 52.001C35.5918 52.001 43.1662 47.6297 47.665 41.0137L48.0908 40.3662C50.5511 36.4953 51.999 31.9191 51.999 26.999C51.999 13.216 40.785 2.00003 27 2Z" fill="#140000" stroke="black"/>
</svg>
