<svg width="21" height="20" viewBox="0 0 21 20" fill="none" xmlns="http://www.w3.org/2000/svg">
<path d="M19.7359 0.0930462C19.6619 0.139277 19.4816 0.301081 19.343 0.449015C19.2043 0.601574 18.631 1.19794 18.0716 1.78505C17.5123 2.36755 14.9789 5.01651 12.4455 7.66547C9.90747 10.3144 7.80864 12.4965 7.7809 12.515C7.74854 12.5335 7.3186 12.122 6.63903 11.4193C6.03804 10.7998 5.17817 9.91686 4.72512 9.45919L3.90223 8.62705H3.62023C3.35672 8.62705 3.3336 8.6363 3.18104 8.7981C2.8898 9.12171 2.88055 9.10322 4.09177 11.5765C4.68351 12.7739 5.45092 14.3457 5.79765 15.0576C6.48647 16.4676 6.5928 16.6202 7.05509 16.8652C7.27237 16.9808 7.35096 16.9946 7.73929 16.9946C8.23395 16.9946 8.4651 16.916 8.77946 16.6433C8.87654 16.5554 9.59773 15.6309 10.3744 14.5907C12.6443 11.5534 14.3178 9.31125 17.54 4.99802C19.1996 2.77437 20.5912 0.874329 20.6281 0.78187C20.6882 0.624687 20.6882 0.587704 20.6143 0.393539C20.4756 0.0329475 20.0595 -0.110365 19.7359 0.0930462Z" fill="#30D5C8"/>
<path d="M3.16182 2.04397C1.7888 2.21964 0.619184 3.19046 0.189248 4.52188C-0.000294191 5.09975 -0.00954014 5.46034 0.00432878 11.3315C0.0228207 17.6604 -0.00491716 17.1472 0.388035 17.9655C0.757873 18.7236 1.29876 19.2645 2.0523 19.6297C2.87982 20.0273 2.35742 19.9996 9.00988 19.9996C14.6175 19.9996 14.918 19.995 15.2278 19.9117C16.3512 19.6113 17.211 18.9039 17.6733 17.8869C18.0062 17.1611 17.9923 17.3044 18.0154 13.7123C18.0247 11.4009 18.0154 10.4254 17.9784 10.3006C17.9183 10.0926 17.7103 9.94462 17.4792 9.94462C17.3636 9.94462 17.2804 9.98623 17.1648 10.1018L17.0076 10.259V13.4396C17.0076 15.9915 16.9937 16.6849 16.9429 16.9299C16.7349 17.91 15.912 18.7329 14.9319 18.9409C14.4789 19.0334 3.5409 19.0334 3.08785 18.9409C2.1124 18.7329 1.28489 17.9054 1.07686 16.9299C0.979776 16.4723 0.984399 5.53893 1.08148 5.07664C1.28489 4.10581 2.10778 3.28292 3.08785 3.07489C3.33749 3.02404 4.27133 3.01017 8.31643 3.01017C13.7438 3.01017 13.3647 3.03328 13.5219 2.72354C13.619 2.534 13.5727 2.32134 13.3971 2.1503L13.2584 2.01623L8.37191 2.01161C5.68596 2.00698 3.34211 2.02085 3.16182 2.04397Z" fill="white"/>
</svg>
