<svg width="75" height="75" viewBox="0 0 75 75" fill="none" xmlns="http://www.w3.org/2000/svg">
<path d="M37.5 42.5C34.5 42.5 20 42.25 20 38L21 21.75C21.25 19.25 23.25 17.5 25.5 17.5H49.5C51.75 17.5 53.75 19.25 54 21.75L55 38C55 42.25 40.5 42.5 37.5 42.5ZM22.5 37.75C23.5 38.5 28.5 40 37.5 40C46.5 40 51.5 38.5 52.5 37.75L51.5 21.75C51.5 20.75 50.5 20 49.5 20H25.5C24.5 20 23.5 20.75 23.5 21.75L22.5 37.75ZM43.75 52.5H31.25C30.5 52.5 30 52 30 51.25C30 50.5 30.5 50 31.25 50H43.75C44.5 50 45 50.5 45 51.25C45 52 44.5 52.5 43.75 52.5Z" fill="#30D5C8"/>
<path d="M37.5 65C25.75 65 12.5 61.75 12.5 57.5L15.25 17C15.5 13 18.75 10 22.75 10H52C56 10 59.25 13 59.5 17L62.5 57.5C62.5 61.75 49.25 65 37.5 65ZM22.75 12.5C20 12.5 17.75 14.5 17.75 17L15 57.75C15.5 59 24.5 62.5 37.5 62.5C50.5 62.5 59.5 59 60 57.5L57.25 17C57 14.5 54.75 12.5 52.25 12.5H22.75Z" fill="#30D5C8"/>
<path d="M11.2501 75C11.0001 75 10.7501 75 10.5001 74.75C10.0001 74.25 9.75008 73.5 10.2501 73L19.0001 61.75C19.5001 61.25 20.2501 61 20.7501 61.5C21.2501 62 21.5001 62.75 21.0001 63.25L12.2501 74.5C12.0001 74.75 11.5001 75 11.2501 75ZM63.7501 75C63.5001 75 63.0001 74.75 62.7501 74.5L54.0001 63.25C53.5001 62.75 53.7501 62 54.2501 61.5C54.7501 61 55.5001 61.25 56.0001 61.75L64.7501 73C65.2501 73.5 65.0001 74.25 64.5001 74.75C64.2501 75 64.0001 75 63.7501 75ZM37.5001 20C34.7501 20 32.5001 17.75 32.5001 15C32.5001 12.25 34.7501 10 37.5001 10C40.2501 10 42.5001 12.25 42.5001 15C42.5001 17.75 40.2501 20 37.5001 20ZM37.5001 12.5C36.0001 12.5 35.0001 13.5 35.0001 15C35.0001 16.5 36.0001 17.5 37.5001 17.5C39.0001 17.5 40.0001 16.5 40.0001 15C40.0001 13.5 39.0001 12.5 37.5001 12.5ZM23.7501 55C21.7501 55 20.0001 53.25 20.0001 51.25C20.0001 49.25 21.7501 47.5 23.7501 47.5C25.7501 47.5 27.5001 49.25 27.5001 51.25C27.5001 53.25 25.7501 55 23.7501 55ZM23.7501 50C23.0001 50 22.5001 50.5 22.5001 51.25C22.5001 52 23.0001 52.5 23.7501 52.5C24.5001 52.5 25.0001 52 25.0001 51.25C25.0001 50.5 24.5001 50 23.7501 50ZM51.2501 55C49.2501 55 47.5001 53.25 47.5001 51.25C47.5001 49.25 49.2501 47.5 51.2501 47.5C53.2501 47.5 55.0001 49.25 55.0001 51.25C55.0001 53.25 53.2501 55 51.2501 55ZM51.2501 50C50.5001 50 50.0001 50.5 50.0001 51.25C50.0001 52 50.5001 52.5 51.2501 52.5C52.0001 52.5 52.5001 52 52.5001 51.25C52.5001 50.5 52.0001 50 51.2501 50Z" fill="white"/>
<path d="M57.5 67.5H17.5C16.75 67.5 16.25 67 16.25 66.25C16.25 65.5 16.75 65 17.5 65H57.5C58.25 65 58.75 65.5 58.75 66.25C58.75 67 58.25 67.5 57.5 67.5ZM61.25 72.5H13.75C13 72.5 12.5 72 12.5 71.25C12.5 70.5 13 70 13.75 70H61.25C62 70 62.5 70.5 62.5 71.25C62.5 72 62 72.5 61.25 72.5Z" fill="white"/>
<path d="M71.25 75C70.5 75 70 74.5 70 73.75V28.75C70 14.25 58.25 2.5 43.75 2.5H31.25C16.75 2.5 5 14.25 5 28.75V73.75C5 74.5 4.5 75 3.75 75C3 75 2.5 74.5 2.5 73.75V28.75C2.5 13 15.5 0 31.25 0H43.75C59.5 0 72.5 13 72.5 28.75V73.75C72.5 74.5 72 75 71.25 75Z" fill="white"/>
</svg>
