<svg width="54" height="55" viewBox="0 0 54 55" fill="none" xmlns="http://www.w3.org/2000/svg">
<path d="M23.498 1.08478C11.8107 2.6785 2.56713 11.3909 0.415606 22.8391C-0.115634 25.5484 -0.142197 30.4093 0.362482 32.9858C1.42496 38.5638 4.10773 43.4512 8.3311 47.4887C21.4527 60.0791 42.968 56.3338 51.1491 40.0513C55.0537 32.2686 54.9475 22.6532 50.8304 15.1627C46.182 6.66281 37.7884 1.40353 28.2526 0.951973C26.6589 0.898849 24.5339 0.951973 23.498 1.08478ZM32.7947 4.77691C40.3915 6.71593 46.6601 12.3471 49.396 19.7048C50.8038 23.5563 51.2288 28.9218 50.3788 32.8264C48.5992 41.0872 42.2774 48.0996 34.2556 50.6761C27.0839 52.987 19.2747 51.7652 13.1123 47.409C11.0935 45.9746 7.85298 42.495 6.68425 40.556C5.30302 38.2716 4.05461 35.1373 3.60305 32.8796C3.07181 30.3562 3.07181 25.4422 3.54993 23.1047C4.6921 17.7126 8.01235 12.4002 12.2357 9.15965C15.3435 6.7425 19.7262 4.83003 23.3652 4.27223C25.8089 3.90036 30.2979 4.13942 32.7947 4.77691Z" fill="#140000"/>
<path d="M19.5924 10.5144C18.4768 11.1784 18.0518 11.6034 18.0518 12.0284C18.0518 12.3471 19.1939 14.6049 20.6017 17.0486C22.8064 20.8736 23.2579 21.511 23.7892 21.511C24.6923 21.511 27.2953 19.997 27.4813 19.3595C27.6141 19.0142 26.8438 17.4471 24.9579 14.2065C21.9033 8.92064 22.0361 9.02689 19.5924 10.5144Z" fill="black"/>
<path d="M16.1931 13.4626C13.5104 15.2157 12.7666 17.1016 13.2447 20.6875C14.8119 31.9232 26.1539 47.2761 32.1835 46.3198C33.5647 46.0808 35.4506 45.0714 35.3709 44.6199C35.3178 44.4074 34.2553 42.4152 32.9803 40.2106L30.6694 36.1731L29.3148 36.306C27.5617 36.4919 26.2867 35.8544 24.4539 33.8357C20.9212 29.9842 19.6462 24.4327 21.7712 22.1749C22.2758 21.6437 22.2493 21.5906 19.8056 17.3938C18.4509 15.0829 17.229 13.1439 17.0962 13.1173C16.9634 13.0642 16.565 13.2235 16.1931 13.4626Z" fill="black"/>
<path d="M33.0865 33.3311C32.2099 33.8092 31.4131 34.4202 31.2537 34.6592C30.8818 35.3233 36.2739 44.62 37.0177 44.62C37.602 44.62 40.6301 42.7872 40.816 42.3357C41.002 41.8575 35.9552 33.0124 35.2911 32.6671C34.7068 32.3218 34.9193 32.2686 33.0865 33.3311Z" fill="black"/>
</svg>
