<svg width="75" height="75" viewBox="0 0 75 75" fill="none" xmlns="http://www.w3.org/2000/svg">
<path d="M32.5949 0.212463C16.383 2.42317 3.56095 14.5084 0.576501 30.3886C-0.1604 34.1468 -0.197245 40.8894 0.502811 44.4634C1.97661 52.2009 5.69797 58.9804 11.5563 64.5808C29.7578 82.0454 59.6023 76.8502 70.9506 54.2642C76.3668 43.4686 76.2194 30.1307 70.5084 19.7404C64.0606 7.94993 52.4175 0.65461 39.1901 0.028244C36.9794 -0.0454483 34.0318 0.028244 32.5949 0.212463ZM45.4906 5.33393C56.0283 8.02362 64.7238 15.8348 68.5188 26.0409C70.4716 31.3834 71.0611 38.8261 69.8821 44.2423C67.4135 55.7011 58.6443 65.4282 47.5171 69.0022C37.569 72.2077 26.7365 70.5129 18.1884 64.4703C15.3882 62.4806 10.8931 57.6539 9.27194 54.9642C7.35599 51.7956 5.62428 47.4478 4.99791 44.316C4.26101 40.8157 4.26101 33.9994 4.92422 30.757C6.50856 23.2775 11.1142 15.9085 16.9726 11.4134C21.2834 8.06046 27.3629 5.40762 32.4106 4.63387C35.8004 4.11804 42.0272 4.44965 45.4906 5.33393Z" fill="white"/>
<path d="M27.179 13.2925C25.6315 14.2137 25.042 14.8032 25.042 15.3927C25.042 15.8348 26.6263 18.9667 28.5791 22.3564C31.6373 27.6621 32.2636 28.5464 33.0005 28.5464C34.2533 28.5464 37.8641 26.4462 38.122 25.5619C38.3062 25.083 37.2377 22.9091 34.6217 18.414C30.3845 11.0818 30.5688 11.2292 27.179 13.2925Z" fill="#30D5C8"/>
<path d="M22.4621 17.3821C18.7408 19.8139 17.7091 22.4299 18.3723 27.404C20.5462 42.9895 36.279 64.2859 44.6429 62.9595C46.5588 62.6279 49.1748 61.2278 49.0643 60.6014C48.9906 60.3066 47.5168 57.5433 45.7482 54.4851L42.5427 48.8847L40.6636 49.0689C38.2318 49.3268 36.4633 48.4425 33.921 45.6423C29.0206 40.2998 27.252 32.5992 30.1996 29.4673C30.8997 28.7304 30.8628 28.6567 27.4731 22.8352C25.594 19.6297 23.8991 16.94 23.7149 16.9032C23.5306 16.8295 22.978 17.0505 22.4621 17.3821Z" fill="#30D5C8"/>
<path d="M45.8959 44.9424C44.68 45.6056 43.5747 46.4531 43.3536 46.7847C42.8378 47.7058 50.3173 60.6016 51.349 60.6016C52.1596 60.6016 56.3599 58.0593 56.6178 57.4329C56.8757 56.7697 49.8752 44.5003 48.954 44.0213C48.1435 43.5423 48.4382 43.4686 45.8959 44.9424Z" fill="#30D5C8"/>
</svg>
