<svg width="54" height="54" viewBox="0 0 54 54" fill="none" xmlns="http://www.w3.org/2000/svg">
<circle cx="27" cy="27" r="26" stroke="#140000" stroke-width="2"/>
<path fill-rule="evenodd" clip-rule="evenodd" d="M37.6294 16.3806C34.8092 13.5571 31.0586 12.0017 27.0628 12C18.8294 12 12.1286 18.7004 12.1253 26.9362C12.1243 29.5688 12.8119 32.1384 14.1191 34.404L12 42.1444L19.9186 40.0671C22.1004 41.2571 24.5568 41.8844 27.0568 41.8851H27.0628C27.0625 41.8851 27.0631 41.8851 27.0628 41.8851C35.2952 41.8851 41.9967 35.184 42 26.9479C42.0017 22.9568 40.4496 19.2042 37.6294 16.3806ZM20.9968 27.4798C20.8102 27.2306 19.4728 25.4561 19.4728 23.619C19.4728 21.7818 20.4371 20.8789 20.779 20.5054C21.121 20.1319 21.5256 20.0385 21.7745 20.0385C22.0233 20.0385 22.2725 20.0408 22.4899 20.0516C22.719 20.0633 23.0268 19.9645 23.3296 20.6923C23.6407 21.4395 24.387 23.277 24.4804 23.4636C24.5739 23.6505 24.6358 23.8682 24.5116 24.1174C24.3873 24.3662 24.325 24.522 24.1385 24.74C23.9519 24.9581 23.7466 25.2267 23.5784 25.3938C23.3916 25.58 23.197 25.782 23.4147 26.1555C23.6324 26.5292 24.3813 27.7514 25.4909 28.7412C26.9164 30.0129 28.1192 30.4068 28.4923 30.5937C28.8654 30.7806 29.0831 30.7495 29.3009 30.5003C29.5186 30.2511 30.234 29.4104 30.4828 29.0369C30.7317 28.6635 30.9806 28.7258 31.3225 28.85C31.6648 28.9746 33.4996 29.8776 33.8727 30.0642C34.2459 30.2511 34.4947 30.3445 34.5882 30.5003C34.6816 30.656 34.6816 31.4033 34.3705 32.2751C34.0593 33.1469 32.5682 33.9427 31.8511 34.0496C31.208 34.1457 30.3944 34.1859 29.5001 33.9016C28.9582 33.7297 28.2629 33.5 27.3723 33.1155C23.6287 31.4987 21.1836 27.729 20.9968 27.4798Z" fill="black"/>
</svg>
