<svg width="105" height="38" viewBox="0 0 105 38" fill="none" xmlns="http://www.w3.org/2000/svg">
<rect x="14.3632" y="13" width="90" height="25" rx="12.5" fill="url(#paint0_linear_1_30)"/>
<path d="M46.06 29L49.924 20.6H50.536L54.4 29H53.74L50.092 20.984H50.356L46.72 29H46.06ZM47.476 26.636L47.68 26.12H52.708L52.912 26.636H47.476ZM55.7329 29V20.096H56.3329V29H55.7329ZM61.4058 29.048C60.7738 29.048 60.2138 28.912 59.7258 28.64C59.2458 28.368 58.8658 27.992 58.5858 27.512C58.3138 27.032 58.1778 26.484 58.1778 25.868C58.1778 25.244 58.3058 24.696 58.5618 24.224C58.8258 23.744 59.1858 23.368 59.6418 23.096C60.0978 22.824 60.6098 22.688 61.1778 22.688C61.7458 22.688 62.2538 22.82 62.7018 23.084C63.1578 23.348 63.5138 23.72 63.7698 24.2C64.0338 24.672 64.1658 25.22 64.1658 25.844C64.1658 25.868 64.1618 25.896 64.1538 25.928C64.1538 25.952 64.1538 25.98 64.1538 26.012H58.6218V25.544H63.8298L63.5898 25.772C63.5978 25.284 63.4938 24.848 63.2778 24.464C63.0698 24.072 62.7858 23.768 62.4258 23.552C62.0658 23.328 61.6498 23.216 61.1778 23.216C60.7138 23.216 60.2978 23.328 59.9298 23.552C59.5698 23.768 59.2858 24.072 59.0778 24.464C58.8698 24.848 58.7658 25.288 58.7658 25.784V25.892C58.7658 26.404 58.8778 26.86 59.1018 27.26C59.3338 27.652 59.6498 27.96 60.0498 28.184C60.4498 28.4 60.9058 28.508 61.4178 28.508C61.8178 28.508 62.1898 28.436 62.5338 28.292C62.8858 28.148 63.1818 27.928 63.4218 27.632L63.7698 28.028C63.4978 28.364 63.1538 28.62 62.7378 28.796C62.3298 28.964 61.8858 29.048 61.4058 29.048ZM64.8502 29L67.4542 25.616L67.4422 25.904L64.9822 22.736H65.6662L67.8142 25.508H67.5622L69.6982 22.736H70.3702L67.8862 25.94L67.8982 25.616L70.5382 29H69.8302L67.5622 26.048L67.7902 26.072L65.5342 29H64.8502Z" fill="white"/>
<path d="M10.1513 17.693L3.60454 11.4752L11.0429 3.64335L17.5897 9.86115L10.1513 17.693Z" fill="#22DCD9"/>
<path d="M4.71493 4.00807C4.20223 4.04456 3.80069 4.46378 3.78631 4.97756L3.60444 11.4753L11.199 3.54658L4.71493 4.00807Z" fill="#22DCD9"/>
<defs>
<linearGradient id="paint0_linear_1_30" x1="21.3632" y1="14.5" x2="104.363" y2="26" gradientUnits="userSpaceOnUse">
<stop stop-color="#22DCD9"/>
<stop offset="1" stop-color="#4C429A"/>
</linearGradient>
</defs>
</svg>
