<svg width="1200" height="1063" viewBox="0 0 1200 1063" fill="none" xmlns="http://www.w3.org/2000/svg">
<rect width="1200" height="1062.98" rx="15" fill="#F7F7F7"/>
<path d="M157.601 614.654V603.454H158.577L163.697 612.19H163.185L168.257 603.454H169.233V614.654H168.097V605.23H168.369L163.697 613.23H163.137L158.433 605.23H158.737V614.654H157.601ZM174.05 614.654L179.17 603.454H180.338L185.458 614.654H184.21L179.506 604.142H179.986L175.282 614.654H174.05ZM176.066 611.662L176.418 610.702H182.93L183.282 611.662H176.066ZM190.271 614.654V603.454H191.455V614.654H190.271ZM198.059 614.654V603.454H199.035L206.763 613.182H206.251V603.454H207.419V614.654H206.443L198.731 604.926H199.243V614.654H198.059ZM226.046 614.75C225.204 614.75 224.425 614.611 223.71 614.334C222.996 614.046 222.377 613.646 221.854 613.134C221.332 612.622 220.921 612.019 220.622 611.326C220.334 610.632 220.19 609.875 220.19 609.054C220.19 608.232 220.334 607.475 220.622 606.782C220.921 606.088 221.332 605.486 221.854 604.974C222.388 604.462 223.012 604.067 223.726 603.79C224.441 603.502 225.22 603.358 226.062 603.358C226.873 603.358 227.636 603.496 228.35 603.774C229.065 604.04 229.668 604.446 230.158 604.99L229.406 605.742C228.948 605.272 228.441 604.936 227.886 604.734C227.332 604.52 226.734 604.414 226.094 604.414C225.422 604.414 224.798 604.531 224.222 604.766C223.646 604.99 223.145 605.315 222.718 605.742C222.292 606.158 221.956 606.648 221.71 607.214C221.476 607.768 221.358 608.382 221.358 609.054C221.358 609.726 221.476 610.344 221.71 610.91C221.956 611.464 222.292 611.955 222.718 612.382C223.145 612.798 223.646 613.123 224.222 613.358C224.798 613.582 225.422 613.694 226.094 613.694C226.734 613.694 227.332 613.587 227.886 613.374C228.441 613.16 228.948 612.819 229.406 612.35L230.158 613.102C229.668 613.646 229.065 614.056 228.35 614.334C227.636 614.611 226.868 614.75 226.046 614.75ZM240.304 614.75C239.461 614.75 238.677 614.611 237.952 614.334C237.237 614.046 236.613 613.646 236.08 613.134C235.557 612.611 235.146 612.008 234.848 611.326C234.56 610.632 234.416 609.875 234.416 609.054C234.416 608.232 234.56 607.48 234.848 606.798C235.146 606.104 235.557 605.502 236.08 604.99C236.613 604.467 237.237 604.067 237.952 603.79C238.666 603.502 239.45 603.358 240.304 603.358C241.146 603.358 241.925 603.502 242.64 603.79C243.354 604.067 243.973 604.462 244.496 604.974C245.029 605.486 245.44 606.088 245.728 606.782C246.026 607.475 246.176 608.232 246.176 609.054C246.176 609.875 246.026 610.632 245.728 611.326C245.44 612.019 245.029 612.622 244.496 613.134C243.973 613.646 243.354 614.046 242.64 614.334C241.925 614.611 241.146 614.75 240.304 614.75ZM240.304 613.694C240.976 613.694 241.594 613.582 242.16 613.358C242.736 613.123 243.232 612.798 243.648 612.382C244.074 611.955 244.405 611.464 244.64 610.91C244.874 610.344 244.992 609.726 244.992 609.054C244.992 608.382 244.874 607.768 244.64 607.214C244.405 606.648 244.074 606.158 243.648 605.742C243.232 605.315 242.736 604.99 242.16 604.766C241.594 604.531 240.976 604.414 240.304 604.414C239.632 604.414 239.008 604.531 238.432 604.766C237.856 604.99 237.354 605.315 236.928 605.742C236.512 606.158 236.181 606.648 235.936 607.214C235.701 607.768 235.584 608.382 235.584 609.054C235.584 609.715 235.701 610.328 235.936 610.894C236.181 611.459 236.512 611.955 236.928 612.382C237.354 612.798 237.856 613.123 238.432 613.358C239.008 613.582 239.632 613.694 240.304 613.694ZM251.79 614.654V603.454H252.974V613.63H259.246V614.654H251.79ZM268.849 614.75C268.006 614.75 267.222 614.611 266.497 614.334C265.782 614.046 265.158 613.646 264.625 613.134C264.102 612.611 263.691 612.008 263.393 611.326C263.105 610.632 262.961 609.875 262.961 609.054C262.961 608.232 263.105 607.48 263.393 606.798C263.691 606.104 264.102 605.502 264.625 604.99C265.158 604.467 265.782 604.067 266.497 603.79C267.211 603.502 267.995 603.358 268.849 603.358C269.691 603.358 270.47 603.502 271.185 603.79C271.899 604.067 272.518 604.462 273.041 604.974C273.574 605.486 273.985 606.088 274.273 606.782C274.571 607.475 274.721 608.232 274.721 609.054C274.721 609.875 274.571 610.632 274.273 611.326C273.985 612.019 273.574 612.622 273.041 613.134C272.518 613.646 271.899 614.046 271.185 614.334C270.47 614.611 269.691 614.75 268.849 614.75ZM268.849 613.694C269.521 613.694 270.139 613.582 270.705 613.358C271.281 613.123 271.777 612.798 272.193 612.382C272.619 611.955 272.95 611.464 273.185 610.91C273.419 610.344 273.537 609.726 273.537 609.054C273.537 608.382 273.419 607.768 273.185 607.214C272.95 606.648 272.619 606.158 272.193 605.742C271.777 605.315 271.281 604.99 270.705 604.766C270.139 604.531 269.521 604.414 268.849 604.414C268.177 604.414 267.553 604.531 266.977 604.766C266.401 604.99 265.899 605.315 265.473 605.742C265.057 606.158 264.726 606.648 264.481 607.214C264.246 607.768 264.129 608.382 264.129 609.054C264.129 609.715 264.246 610.328 264.481 610.894C264.726 611.459 265.057 611.955 265.473 612.382C265.899 612.798 266.401 613.123 266.977 613.358C267.553 613.582 268.177 613.694 268.849 613.694ZM280.335 614.654V603.454H284.527C285.476 603.454 286.292 603.608 286.975 603.918C287.657 604.216 288.18 604.654 288.543 605.23C288.916 605.795 289.103 606.483 289.103 607.294C289.103 608.083 288.916 608.766 288.543 609.342C288.18 609.907 287.657 610.344 286.975 610.654C286.292 610.952 285.476 611.102 284.527 611.102H280.991L281.519 610.558V614.654H280.335ZM287.983 614.654L285.103 610.59H286.383L289.279 614.654H287.983ZM281.519 610.654L280.991 610.094H284.495C285.615 610.094 286.463 609.848 287.039 609.358C287.625 608.867 287.919 608.179 287.919 607.294C287.919 606.398 287.625 605.704 287.039 605.214C286.463 604.723 285.615 604.478 284.495 604.478H280.991L281.519 603.918V610.654ZM297.945 614.75C297.113 614.75 296.313 614.616 295.545 614.35C294.788 614.072 294.201 613.72 293.785 613.294L294.249 612.382C294.644 612.766 295.172 613.091 295.833 613.358C296.505 613.614 297.209 613.742 297.945 613.742C298.649 613.742 299.22 613.656 299.657 613.486C300.105 613.304 300.431 613.064 300.633 612.766C300.847 612.467 300.953 612.136 300.953 611.774C300.953 611.336 300.825 610.984 300.569 610.718C300.324 610.451 299.999 610.243 299.593 610.094C299.188 609.934 298.74 609.795 298.249 609.678C297.759 609.56 297.268 609.438 296.777 609.31C296.287 609.171 295.833 608.99 295.417 608.766C295.012 608.542 294.681 608.248 294.425 607.886C294.18 607.512 294.057 607.027 294.057 606.43C294.057 605.875 294.201 605.368 294.489 604.91C294.788 604.44 295.241 604.067 295.849 603.79C296.457 603.502 297.236 603.358 298.185 603.358C298.815 603.358 299.439 603.448 300.057 603.63C300.676 603.8 301.209 604.04 301.657 604.35L301.257 605.294C300.777 604.974 300.265 604.739 299.721 604.59C299.188 604.44 298.671 604.366 298.169 604.366C297.497 604.366 296.943 604.456 296.505 604.638C296.068 604.819 295.743 605.064 295.529 605.374C295.327 605.672 295.225 606.014 295.225 606.398C295.225 606.835 295.348 607.187 295.593 607.454C295.849 607.72 296.18 607.928 296.585 608.078C297.001 608.227 297.455 608.36 297.945 608.478C298.436 608.595 298.921 608.723 299.401 608.862C299.892 609 300.34 609.182 300.745 609.406C301.161 609.619 301.492 609.907 301.737 610.27C301.993 610.632 302.121 611.107 302.121 611.694C302.121 612.238 301.972 612.744 301.673 613.214C301.375 613.672 300.916 614.046 300.297 614.334C299.689 614.611 298.905 614.75 297.945 614.75Z" fill="black"/>
<path d="M597.464 871.385V860.185H598.44L603.56 868.921H603.048L608.12 860.185H609.096V871.385H607.96V861.961H608.232L603.56 869.961H603L598.296 861.961H598.6V871.385H597.464ZM617.641 871.481C616.799 871.481 616.015 871.342 615.289 871.065C614.575 870.777 613.951 870.377 613.417 869.865C612.895 869.342 612.484 868.739 612.185 868.057C611.897 867.363 611.753 866.606 611.753 865.785C611.753 864.963 611.897 864.211 612.185 863.529C612.484 862.835 612.895 862.233 613.417 861.721C613.951 861.198 614.575 860.798 615.289 860.521C616.004 860.233 616.788 860.089 617.641 860.089C618.484 860.089 619.263 860.233 619.977 860.521C620.692 860.798 621.311 861.193 621.833 861.705C622.367 862.217 622.777 862.819 623.065 863.513C623.364 864.206 623.513 864.963 623.513 865.785C623.513 866.606 623.364 867.363 623.065 868.057C622.777 868.75 622.367 869.353 621.833 869.865C621.311 870.377 620.692 870.777 619.977 871.065C619.263 871.342 618.484 871.481 617.641 871.481ZM617.641 870.425C618.313 870.425 618.932 870.313 619.497 870.089C620.073 869.854 620.569 869.529 620.985 869.113C621.412 868.686 621.743 868.195 621.977 867.641C622.212 867.075 622.329 866.457 622.329 865.785C622.329 865.113 622.212 864.499 621.977 863.945C621.743 863.379 621.412 862.889 620.985 862.473C620.569 862.046 620.073 861.721 619.497 861.497C618.932 861.262 618.313 861.145 617.641 861.145C616.969 861.145 616.345 861.262 615.769 861.497C615.193 861.721 614.692 862.046 614.265 862.473C613.849 862.889 613.519 863.379 613.273 863.945C613.039 864.499 612.921 865.113 612.921 865.785C612.921 866.446 613.039 867.059 613.273 867.625C613.519 868.19 613.849 868.686 614.265 869.113C614.692 869.529 615.193 869.854 615.769 870.089C616.345 870.313 616.969 870.425 617.641 870.425ZM626.167 871.385V860.185H627.143L634.871 869.913H634.359V860.185H635.527V871.385H634.551L626.839 861.657H627.351V871.385H626.167ZM641.359 871.385V861.209H637.423V860.185H646.479V861.209H642.543V871.385H641.359ZM651.286 871.481C650.454 871.481 649.654 871.347 648.886 871.081C648.129 870.803 647.542 870.451 647.126 870.025L647.59 869.113C647.985 869.497 648.513 869.822 649.174 870.089C649.846 870.345 650.55 870.473 651.286 870.473C651.99 870.473 652.561 870.387 652.998 870.217C653.446 870.035 653.772 869.795 653.974 869.497C654.188 869.198 654.294 868.867 654.294 868.505C654.294 868.067 654.166 867.715 653.91 867.449C653.665 867.182 653.34 866.974 652.934 866.825C652.529 866.665 652.081 866.526 651.59 866.409C651.1 866.291 650.609 866.169 650.118 866.041C649.628 865.902 649.174 865.721 648.758 865.497C648.353 865.273 648.022 864.979 647.766 864.617C647.521 864.243 647.398 863.758 647.398 863.161C647.398 862.606 647.542 862.099 647.83 861.641C648.129 861.171 648.582 860.798 649.19 860.521C649.798 860.233 650.577 860.089 651.526 860.089C652.156 860.089 652.78 860.179 653.398 860.361C654.017 860.531 654.55 860.771 654.998 861.081L654.598 862.025C654.118 861.705 653.606 861.47 653.062 861.321C652.529 861.171 652.012 861.097 651.51 861.097C650.838 861.097 650.284 861.187 649.846 861.369C649.409 861.55 649.084 861.795 648.87 862.105C648.668 862.403 648.566 862.745 648.566 863.129C648.566 863.566 648.689 863.918 648.934 864.185C649.19 864.451 649.521 864.659 649.926 864.809C650.342 864.958 650.796 865.091 651.286 865.209C651.777 865.326 652.262 865.454 652.742 865.593C653.233 865.731 653.681 865.913 654.086 866.137C654.502 866.35 654.833 866.638 655.078 867.001C655.334 867.363 655.462 867.838 655.462 868.425C655.462 868.969 655.313 869.475 655.014 869.945C654.716 870.403 654.257 870.777 653.638 871.065C653.03 871.342 652.246 871.481 651.286 871.481ZM659.098 865.193H665.018V866.201H659.098V865.193ZM659.226 870.361H665.962V871.385H658.042V860.185H665.722V861.209H659.226V870.361ZM668.745 871.385V860.185H672.937C673.887 860.185 674.703 860.339 675.385 860.649C676.068 860.947 676.591 861.385 676.953 861.961C677.327 862.526 677.513 863.214 677.513 864.025C677.513 864.814 677.327 865.497 676.953 866.073C676.591 866.638 676.068 867.075 675.385 867.385C674.703 867.683 673.887 867.833 672.937 867.833H669.401L669.929 867.289V871.385H668.745ZM676.393 871.385L673.513 867.321H674.793L677.689 871.385H676.393ZM669.929 867.385L669.401 866.825H672.905C674.025 866.825 674.873 866.579 675.449 866.089C676.036 865.598 676.329 864.91 676.329 864.025C676.329 863.129 676.036 862.435 675.449 861.945C674.873 861.454 674.025 861.209 672.905 861.209H669.401L669.929 860.649V867.385ZM680.308 871.385V860.185H684.5C685.449 860.185 686.265 860.339 686.948 860.649C687.63 860.947 688.153 861.385 688.516 861.961C688.889 862.526 689.076 863.214 689.076 864.025C689.076 864.814 688.889 865.497 688.516 866.073C688.153 866.638 687.63 867.075 686.948 867.385C686.265 867.683 685.449 867.833 684.5 867.833H680.964L681.492 867.289V871.385H680.308ZM687.956 871.385L685.076 867.321H686.356L689.252 871.385H687.956ZM681.492 867.385L680.964 866.825H684.468C685.588 866.825 686.436 866.579 687.012 866.089C687.598 865.598 687.892 864.91 687.892 864.025C687.892 863.129 687.598 862.435 687.012 861.945C686.436 861.454 685.588 861.209 684.468 861.209H680.964L681.492 860.649V867.385ZM690.078 871.385L695.198 860.185H696.366L701.486 871.385H700.238L695.534 860.873H696.014L691.31 871.385H690.078ZM692.094 868.393L692.446 867.433H698.958L699.31 868.393H692.094ZM704.952 871.385V861.209H701.016V860.185H710.072V861.209H706.136V871.385H704.952ZM716.151 871.385V860.185H720.983C722.231 860.185 723.197 860.435 723.879 860.937C724.573 861.438 724.919 862.147 724.919 863.065C724.919 863.673 724.775 864.185 724.487 864.601C724.21 865.017 723.826 865.331 723.335 865.545C722.855 865.758 722.327 865.865 721.751 865.865L722.023 865.481C722.738 865.481 723.351 865.593 723.863 865.817C724.386 866.03 724.791 866.355 725.079 866.793C725.367 867.219 725.511 867.753 725.511 868.393C725.511 869.342 725.159 870.078 724.455 870.601C723.762 871.123 722.711 871.385 721.303 871.385H716.151ZM717.335 870.409H721.287C722.269 870.409 723.021 870.243 723.543 869.913C724.066 869.571 724.327 869.033 724.327 868.297C724.327 867.571 724.066 867.043 723.543 866.713C723.021 866.371 722.269 866.201 721.287 866.201H717.207V865.225H720.903C721.799 865.225 722.493 865.054 722.983 864.713C723.485 864.371 723.735 863.865 723.735 863.193C723.735 862.51 723.485 862.003 722.983 861.673C722.493 861.331 721.799 861.161 720.903 861.161H717.335V870.409ZM728.214 871.385V860.185H729.398V870.361H735.67V871.385H728.214ZM735.844 871.385L740.964 860.185H742.132L747.252 871.385H746.004L741.3 860.873H741.78L737.076 871.385H735.844ZM737.86 868.393L738.212 867.433H744.724L745.076 868.393H737.86ZM753.812 871.481C752.97 871.481 752.191 871.342 751.476 871.065C750.762 870.777 750.143 870.377 749.62 869.865C749.098 869.353 748.687 868.75 748.388 868.057C748.1 867.363 747.956 866.606 747.956 865.785C747.956 864.963 748.1 864.206 748.388 863.513C748.687 862.819 749.098 862.217 749.62 861.705C750.154 861.193 750.778 860.798 751.492 860.521C752.207 860.233 752.986 860.089 753.828 860.089C754.639 860.089 755.402 860.227 756.116 860.505C756.831 860.771 757.434 861.177 757.924 861.721L757.172 862.473C756.714 862.003 756.207 861.667 755.652 861.465C755.098 861.251 754.5 861.145 753.86 861.145C753.188 861.145 752.564 861.262 751.988 861.497C751.412 861.721 750.911 862.046 750.484 862.473C750.058 862.889 749.722 863.379 749.476 863.945C749.242 864.499 749.124 865.113 749.124 865.785C749.124 866.457 749.242 867.075 749.476 867.641C749.722 868.195 750.058 868.686 750.484 869.113C750.911 869.529 751.412 869.854 751.988 870.089C752.564 870.313 753.188 870.425 753.86 870.425C754.5 870.425 755.098 870.318 755.652 870.105C756.207 869.891 756.714 869.55 757.172 869.081L757.924 869.833C757.434 870.377 756.831 870.787 756.116 871.065C755.402 871.342 754.634 871.481 753.812 871.481ZM761.472 868.601L761.424 867.161L768.208 860.185H769.568L764.624 865.369L763.952 866.089L761.472 868.601ZM760.448 871.385V860.185H761.632V871.385H760.448ZM768.496 871.385L763.664 865.817L764.464 864.953L769.904 871.385H768.496ZM775.147 867.545V866.553H779.339V867.545H775.147ZM787.268 871.385V860.665L787.78 861.209H784.628V860.185H788.42V871.385H787.268ZM795.353 871.481C794.457 871.481 793.684 871.353 793.033 871.097C792.393 870.841 791.897 870.473 791.545 869.993C791.204 869.502 791.033 868.926 791.033 868.265C791.033 867.625 791.198 867.081 791.529 866.633C791.87 866.174 792.361 865.822 793.001 865.577C793.652 865.331 794.436 865.209 795.353 865.209C796.26 865.209 797.038 865.331 797.689 865.577C798.34 865.822 798.836 866.174 799.177 866.633C799.529 867.081 799.705 867.625 799.705 868.265C799.705 868.926 799.529 869.502 799.177 869.993C798.825 870.473 798.324 870.841 797.673 871.097C797.022 871.353 796.249 871.481 795.353 871.481ZM795.353 870.505C796.345 870.505 797.118 870.302 797.673 869.897C798.238 869.491 798.521 868.942 798.521 868.249C798.521 867.555 798.238 867.011 797.673 866.617C797.118 866.211 796.345 866.009 795.353 866.009C794.361 866.009 793.588 866.211 793.033 866.617C792.478 867.011 792.201 867.555 792.201 868.249C792.201 868.942 792.478 869.491 793.033 869.897C793.588 870.302 794.361 870.505 795.353 870.505ZM795.353 865.865C794.521 865.865 793.812 865.753 793.225 865.529C792.649 865.305 792.206 864.985 791.897 864.569C791.588 864.142 791.433 863.635 791.433 863.049C791.433 862.43 791.593 861.902 791.913 861.465C792.244 861.017 792.702 860.675 793.289 860.441C793.876 860.206 794.564 860.089 795.353 860.089C796.142 860.089 796.83 860.206 797.417 860.441C798.014 860.675 798.478 861.017 798.809 861.465C799.14 861.902 799.305 862.43 799.305 863.049C799.305 863.635 799.15 864.142 798.841 864.569C798.532 864.985 798.078 865.305 797.481 865.529C796.894 865.753 796.185 865.865 795.353 865.865ZM795.353 865.097C796.228 865.097 796.91 864.915 797.401 864.553C797.892 864.19 798.137 863.705 798.137 863.097C798.137 862.457 797.881 861.961 797.369 861.609C796.868 861.246 796.196 861.065 795.353 861.065C794.51 861.065 793.838 861.246 793.337 861.609C792.836 861.961 792.585 862.451 792.585 863.081C792.585 863.699 792.825 864.19 793.305 864.553C793.796 864.915 794.478 865.097 795.353 865.097ZM802.32 871.465C802.086 871.465 801.883 871.379 801.712 871.209C801.552 871.038 801.472 870.83 801.472 870.585C801.472 870.329 801.552 870.121 801.712 869.961C801.883 869.801 802.086 869.721 802.32 869.721C802.555 869.721 802.752 869.801 802.912 869.961C803.083 870.121 803.168 870.329 803.168 870.585C803.168 870.83 803.083 871.038 802.912 871.209C802.752 871.379 802.555 871.465 802.32 871.465ZM808.383 871.481C807.583 871.481 806.82 871.353 806.095 871.097C805.37 870.83 804.794 870.478 804.367 870.041L804.927 869.129C805.279 869.502 805.759 869.811 806.367 870.057C806.986 870.302 807.652 870.425 808.367 870.425C809.316 870.425 810.036 870.217 810.527 869.801C811.028 869.374 811.279 868.819 811.279 868.137C811.279 867.657 811.162 867.246 810.927 866.905C810.703 866.553 810.319 866.281 809.775 866.089C809.231 865.897 808.484 865.801 807.535 865.801H805.151L805.727 860.185H811.855V861.209H806.191L806.783 860.649L806.287 865.353L805.695 864.777H807.791C808.922 864.777 809.828 864.915 810.511 865.193C811.194 865.47 811.684 865.859 811.983 866.361C812.292 866.851 812.447 867.427 812.447 868.089C812.447 868.718 812.298 869.294 811.999 869.817C811.7 870.329 811.252 870.734 810.655 871.033C810.058 871.331 809.3 871.481 808.383 871.481ZM815.257 871.385L822.905 860.185H823.849L816.201 871.385H815.257ZM816.121 866.185C815.62 866.185 815.177 866.062 814.793 865.817C814.409 865.561 814.111 865.203 813.897 864.745C813.695 864.286 813.593 863.753 813.593 863.145C813.593 862.537 813.695 862.003 813.897 861.545C814.111 861.086 814.409 860.734 814.793 860.489C815.177 860.233 815.62 860.105 816.121 860.105C816.623 860.105 817.06 860.233 817.433 860.489C817.817 860.734 818.116 861.086 818.329 861.545C818.543 862.003 818.649 862.537 818.649 863.145C818.649 863.753 818.543 864.286 818.329 864.745C818.116 865.203 817.817 865.561 817.433 865.817C817.06 866.062 816.623 866.185 816.121 866.185ZM816.121 865.465C816.644 865.465 817.06 865.262 817.369 864.857C817.689 864.441 817.849 863.87 817.849 863.145C817.849 862.419 817.689 861.854 817.369 861.449C817.06 861.033 816.644 860.825 816.121 860.825C815.588 860.825 815.167 861.033 814.857 861.449C814.548 861.854 814.393 862.419 814.393 863.145C814.393 863.87 814.548 864.441 814.857 864.857C815.167 865.262 815.588 865.465 816.121 865.465ZM822.985 871.465C822.495 871.465 822.057 871.342 821.673 871.097C821.289 870.841 820.991 870.483 820.777 870.025C820.564 869.566 820.457 869.033 820.457 868.425C820.457 867.817 820.564 867.283 820.777 866.825C820.991 866.366 821.289 866.014 821.673 865.769C822.057 865.513 822.495 865.385 822.985 865.385C823.497 865.385 823.94 865.513 824.313 865.769C824.697 866.014 824.991 866.366 825.193 866.825C825.407 867.283 825.513 867.817 825.513 868.425C825.513 869.033 825.407 869.566 825.193 870.025C824.991 870.483 824.697 870.841 824.313 871.097C823.94 871.342 823.497 871.465 822.985 871.465ZM822.985 870.745C823.508 870.745 823.924 870.542 824.233 870.137C824.553 869.721 824.713 869.15 824.713 868.425C824.713 867.699 824.553 867.134 824.233 866.729C823.924 866.313 823.508 866.105 822.985 866.105C822.463 866.105 822.041 866.313 821.721 866.729C821.412 867.134 821.257 867.699 821.257 868.425C821.257 869.15 821.412 869.721 821.721 870.137C822.041 870.542 822.463 870.745 822.985 870.745ZM832.198 871.385V860.185H833.382V870.361H839.654V871.385H832.198ZM842.676 865.193H848.596V866.201H842.676V865.193ZM842.804 870.361H849.54V871.385H841.62V860.185H849.3V861.209H842.804V870.361ZM854.499 871.385V861.209H850.563V860.185H859.619V861.209H855.683V871.385H854.499ZM863.843 871.385V861.209H859.907V860.185H868.963V861.209H865.027V871.385H863.843ZM871.911 865.193H877.831V866.201H871.911V865.193ZM872.039 870.361H878.775V871.385H870.855V860.185H878.535V861.209H872.039V870.361ZM881.558 871.385V860.185H885.75C886.699 860.185 887.515 860.339 888.198 860.649C888.88 860.947 889.403 861.385 889.766 861.961C890.139 862.526 890.326 863.214 890.326 864.025C890.326 864.814 890.139 865.497 889.766 866.073C889.403 866.638 888.88 867.075 888.198 867.385C887.515 867.683 886.699 867.833 885.75 867.833H882.214L882.742 867.289V871.385H881.558ZM889.206 871.385L886.326 867.321H887.606L890.502 871.385H889.206ZM882.742 867.385L882.214 866.825H885.718C886.838 866.825 887.686 866.579 888.262 866.089C888.848 865.598 889.142 864.91 889.142 864.025C889.142 863.129 888.848 862.435 888.262 861.945C887.686 861.454 886.838 861.209 885.718 861.209H882.214L882.742 860.649V867.385ZM896.208 871.481C895.376 871.481 894.576 871.347 893.808 871.081C893.051 870.803 892.464 870.451 892.048 870.025L892.512 869.113C892.907 869.497 893.435 869.822 894.096 870.089C894.768 870.345 895.472 870.473 896.208 870.473C896.912 870.473 897.483 870.387 897.92 870.217C898.368 870.035 898.694 869.795 898.896 869.497C899.11 869.198 899.216 868.867 899.216 868.505C899.216 868.067 899.088 867.715 898.832 867.449C898.587 867.182 898.262 866.974 897.856 866.825C897.451 866.665 897.003 866.526 896.512 866.409C896.022 866.291 895.531 866.169 895.04 866.041C894.55 865.902 894.096 865.721 893.68 865.497C893.275 865.273 892.944 864.979 892.688 864.617C892.443 864.243 892.32 863.758 892.32 863.161C892.32 862.606 892.464 862.099 892.752 861.641C893.051 861.171 893.504 860.798 894.112 860.521C894.72 860.233 895.499 860.089 896.448 860.089C897.078 860.089 897.702 860.179 898.32 860.361C898.939 860.531 899.472 860.771 899.92 861.081L899.52 862.025C899.04 861.705 898.528 861.47 897.984 861.321C897.451 861.171 896.934 861.097 896.432 861.097C895.76 861.097 895.206 861.187 894.768 861.369C894.331 861.55 894.006 861.795 893.792 862.105C893.59 862.403 893.488 862.745 893.488 863.129C893.488 863.566 893.611 863.918 893.856 864.185C894.112 864.451 894.443 864.659 894.848 864.809C895.264 864.958 895.718 865.091 896.208 865.209C896.699 865.326 897.184 865.454 897.664 865.593C898.155 865.731 898.603 865.913 899.008 866.137C899.424 866.35 899.755 866.638 900 867.001C900.256 867.363 900.384 867.838 900.384 868.425C900.384 868.969 900.235 869.475 899.936 869.945C899.638 870.403 899.179 870.777 898.56 871.065C897.952 871.342 897.168 871.481 896.208 871.481ZM902.964 871.385V860.185H907.156C908.105 860.185 908.921 860.339 909.604 860.649C910.287 860.947 910.809 861.385 911.172 861.961C911.545 862.526 911.732 863.214 911.732 864.025C911.732 864.814 911.545 865.497 911.172 866.073C910.809 866.638 910.287 867.075 909.604 867.385C908.921 867.694 908.105 867.849 907.156 867.849H903.62L904.148 867.289V871.385H902.964ZM904.148 867.385L903.62 866.809H907.124C908.244 866.809 909.092 866.569 909.668 866.089C910.255 865.598 910.548 864.91 910.548 864.025C910.548 863.129 910.255 862.435 909.668 861.945C909.092 861.454 908.244 861.209 907.124 861.209H903.62L904.148 860.649V867.385ZM911.938 871.385L917.058 860.185H918.226L923.346 871.385H922.098L917.394 860.873H917.874L913.17 871.385H911.938ZM913.954 868.393L914.306 867.433H920.818L921.17 868.393H913.954ZM929.906 871.481C929.063 871.481 928.285 871.342 927.57 871.065C926.855 870.777 926.237 870.377 925.714 869.865C925.191 869.353 924.781 868.75 924.482 868.057C924.194 867.363 924.05 866.606 924.05 865.785C924.05 864.963 924.194 864.206 924.482 863.513C924.781 862.819 925.191 862.217 925.714 861.705C926.247 861.193 926.871 860.798 927.586 860.521C928.301 860.233 929.079 860.089 929.922 860.089C930.733 860.089 931.495 860.227 932.21 860.505C932.925 860.771 933.527 861.177 934.018 861.721L933.266 862.473C932.807 862.003 932.301 861.667 931.746 861.465C931.191 861.251 930.594 861.145 929.954 861.145C929.282 861.145 928.658 861.262 928.082 861.497C927.506 861.721 927.005 862.046 926.578 862.473C926.151 862.889 925.815 863.379 925.57 863.945C925.335 864.499 925.218 865.113 925.218 865.785C925.218 866.457 925.335 867.075 925.57 867.641C925.815 868.195 926.151 868.686 926.578 869.113C927.005 869.529 927.506 869.854 928.082 870.089C928.658 870.313 929.282 870.425 929.954 870.425C930.594 870.425 931.191 870.318 931.746 870.105C932.301 869.891 932.807 869.55 933.266 869.081L934.018 869.833C933.527 870.377 932.925 870.787 932.21 871.065C931.495 871.342 930.727 871.481 929.906 871.481ZM936.542 871.385V860.185H937.726V871.385H936.542ZM941.37 871.385V860.185H942.346L950.074 869.913H949.562V860.185H950.73V871.385H949.754L942.042 861.657H942.554V871.385H941.37ZM959.298 871.481C958.444 871.481 957.655 871.342 956.93 871.065C956.215 870.777 955.591 870.377 955.058 869.865C954.535 869.353 954.124 868.75 953.826 868.057C953.538 867.363 953.394 866.606 953.394 865.785C953.394 864.963 953.538 864.206 953.826 863.513C954.124 862.819 954.54 862.217 955.074 861.705C955.607 861.193 956.231 860.798 956.946 860.521C957.671 860.233 958.46 860.089 959.314 860.089C960.167 860.089 960.946 860.222 961.65 860.489C962.364 860.755 962.972 861.161 963.474 861.705L962.738 862.457C962.268 861.987 961.751 861.651 961.186 861.449C960.62 861.246 960.012 861.145 959.362 861.145C958.668 861.145 958.028 861.262 957.442 861.497C956.866 861.721 956.359 862.046 955.922 862.473C955.495 862.889 955.159 863.379 954.914 863.945C954.679 864.499 954.562 865.113 954.562 865.785C954.562 866.446 954.679 867.059 954.914 867.625C955.159 868.19 955.495 868.686 955.922 869.113C956.359 869.529 956.866 869.854 957.442 870.089C958.028 870.313 958.663 870.425 959.346 870.425C959.986 870.425 960.588 870.329 961.154 870.137C961.73 869.945 962.258 869.619 962.738 869.161L963.41 870.057C962.876 870.526 962.252 870.883 961.538 871.129C960.823 871.363 960.076 871.481 959.298 871.481ZM962.274 869.913V865.785H963.41V870.057L962.274 869.913Z" fill="black"/>
<path d="M739.1 614.654V603.454H740.284V613.63H746.556V614.654H739.1ZM756.159 614.75C755.317 614.75 754.533 614.611 753.807 614.334C753.093 614.046 752.469 613.646 751.935 613.134C751.413 612.611 751.002 612.008 750.703 611.326C750.415 610.632 750.271 609.875 750.271 609.054C750.271 608.232 750.415 607.48 750.703 606.798C751.002 606.104 751.413 605.502 751.935 604.99C752.469 604.467 753.093 604.067 753.807 603.79C754.522 603.502 755.306 603.358 756.159 603.358C757.002 603.358 757.781 603.502 758.495 603.79C759.21 604.067 759.829 604.462 760.351 604.974C760.885 605.486 761.295 606.088 761.583 606.782C761.882 607.475 762.031 608.232 762.031 609.054C762.031 609.875 761.882 610.632 761.583 611.326C761.295 612.019 760.885 612.622 760.351 613.134C759.829 613.646 759.21 614.046 758.495 614.334C757.781 614.611 757.002 614.75 756.159 614.75ZM756.159 613.694C756.831 613.694 757.45 613.582 758.015 613.358C758.591 613.123 759.087 612.798 759.503 612.382C759.93 611.955 760.261 611.464 760.495 610.91C760.73 610.344 760.847 609.726 760.847 609.054C760.847 608.382 760.73 607.768 760.495 607.214C760.261 606.648 759.93 606.158 759.503 605.742C759.087 605.315 758.591 604.99 758.015 604.766C757.45 604.531 756.831 604.414 756.159 604.414C755.487 604.414 754.863 604.531 754.287 604.766C753.711 604.99 753.21 605.315 752.783 605.742C752.367 606.158 752.037 606.648 751.791 607.214C751.557 607.768 751.439 608.382 751.439 609.054C751.439 609.715 751.557 610.328 751.791 610.894C752.037 611.459 752.367 611.955 752.783 612.382C753.21 612.798 753.711 613.123 754.287 613.358C754.863 613.582 755.487 613.694 756.159 613.694ZM772.557 614.75C771.704 614.75 770.915 614.611 770.189 614.334C769.475 614.046 768.851 613.646 768.317 613.134C767.795 612.622 767.384 612.019 767.085 611.326C766.797 610.632 766.653 609.875 766.653 609.054C766.653 608.232 766.797 607.475 767.085 606.782C767.384 606.088 767.8 605.486 768.333 604.974C768.867 604.462 769.491 604.067 770.205 603.79C770.931 603.502 771.72 603.358 772.573 603.358C773.427 603.358 774.205 603.491 774.909 603.758C775.624 604.024 776.232 604.43 776.733 604.974L775.997 605.726C775.528 605.256 775.011 604.92 774.445 604.718C773.88 604.515 773.272 604.414 772.621 604.414C771.928 604.414 771.288 604.531 770.701 604.766C770.125 604.99 769.619 605.315 769.181 605.742C768.755 606.158 768.419 606.648 768.173 607.214C767.939 607.768 767.821 608.382 767.821 609.054C767.821 609.715 767.939 610.328 768.173 610.894C768.419 611.459 768.755 611.955 769.181 612.382C769.619 612.798 770.125 613.123 770.701 613.358C771.288 613.582 771.923 613.694 772.605 613.694C773.245 613.694 773.848 613.598 774.413 613.406C774.989 613.214 775.517 612.888 775.997 612.43L776.669 613.326C776.136 613.795 775.512 614.152 774.797 614.398C774.083 614.632 773.336 614.75 772.557 614.75ZM775.533 613.182V609.054H776.669V613.326L775.533 613.182ZM787.876 614.75C787.034 614.75 786.25 614.611 785.524 614.334C784.81 614.046 784.186 613.646 783.652 613.134C783.13 612.611 782.719 612.008 782.42 611.326C782.132 610.632 781.988 609.875 781.988 609.054C781.988 608.232 782.132 607.48 782.42 606.798C782.719 606.104 783.13 605.502 783.652 604.99C784.186 604.467 784.81 604.067 785.524 603.79C786.239 603.502 787.023 603.358 787.876 603.358C788.719 603.358 789.498 603.502 790.212 603.79C790.927 604.067 791.546 604.462 792.068 604.974C792.602 605.486 793.012 606.088 793.3 606.782C793.599 607.475 793.748 608.232 793.748 609.054C793.748 609.875 793.599 610.632 793.3 611.326C793.012 612.019 792.602 612.622 792.068 613.134C791.546 613.646 790.927 614.046 790.212 614.334C789.498 614.611 788.719 614.75 787.876 614.75ZM787.876 613.694C788.548 613.694 789.167 613.582 789.732 613.358C790.308 613.123 790.804 612.798 791.22 612.382C791.647 611.955 791.978 611.464 792.212 610.91C792.447 610.344 792.564 609.726 792.564 609.054C792.564 608.382 792.447 607.768 792.212 607.214C791.978 606.648 791.647 606.158 791.22 605.742C790.804 605.315 790.308 604.99 789.732 604.766C789.167 604.531 788.548 604.414 787.876 604.414C787.204 604.414 786.58 604.531 786.004 604.766C785.428 604.99 784.927 605.315 784.5 605.742C784.084 606.158 783.754 606.648 783.508 607.214C783.274 607.768 783.156 608.382 783.156 609.054C783.156 609.715 783.274 610.328 783.508 610.894C783.754 611.459 784.084 611.955 784.5 612.382C784.927 612.798 785.428 613.123 786.004 613.358C786.58 613.582 787.204 613.694 787.876 613.694ZM811.374 614.75C810.531 614.75 809.752 614.611 809.038 614.334C808.323 614.046 807.704 613.646 807.182 613.134C806.659 612.622 806.248 612.019 805.95 611.326C805.662 610.632 805.518 609.875 805.518 609.054C805.518 608.232 805.662 607.475 805.95 606.782C806.248 606.088 806.659 605.486 807.182 604.974C807.715 604.462 808.339 604.067 809.054 603.79C809.768 603.502 810.547 603.358 811.39 603.358C812.2 603.358 812.963 603.496 813.678 603.774C814.392 604.04 814.995 604.446 815.486 604.99L814.734 605.742C814.275 605.272 813.768 604.936 813.214 604.734C812.659 604.52 812.062 604.414 811.422 604.414C810.75 604.414 810.126 604.531 809.55 604.766C808.974 604.99 808.472 605.315 808.046 605.742C807.619 606.158 807.283 606.648 807.038 607.214C806.803 607.768 806.686 608.382 806.686 609.054C806.686 609.726 806.803 610.344 807.038 610.91C807.283 611.464 807.619 611.955 808.046 612.382C808.472 612.798 808.974 613.123 809.55 613.358C810.126 613.582 810.75 613.694 811.422 613.694C812.062 613.694 812.659 613.587 813.214 613.374C813.768 613.16 814.275 612.819 814.734 612.35L815.486 613.102C814.995 613.646 814.392 614.056 813.678 614.334C812.963 614.611 812.195 614.75 811.374 614.75ZM825.631 614.75C824.789 614.75 824.005 614.611 823.279 614.334C822.565 614.046 821.941 613.646 821.407 613.134C820.885 612.611 820.474 612.008 820.175 611.326C819.887 610.632 819.743 609.875 819.743 609.054C819.743 608.232 819.887 607.48 820.175 606.798C820.474 606.104 820.885 605.502 821.407 604.99C821.941 604.467 822.565 604.067 823.279 603.79C823.994 603.502 824.778 603.358 825.631 603.358C826.474 603.358 827.253 603.502 827.967 603.79C828.682 604.067 829.301 604.462 829.823 604.974C830.357 605.486 830.767 606.088 831.055 606.782C831.354 607.475 831.503 608.232 831.503 609.054C831.503 609.875 831.354 610.632 831.055 611.326C830.767 612.019 830.357 612.622 829.823 613.134C829.301 613.646 828.682 614.046 827.967 614.334C827.253 614.611 826.474 614.75 825.631 614.75ZM825.631 613.694C826.303 613.694 826.922 613.582 827.487 613.358C828.063 613.123 828.559 612.798 828.975 612.382C829.402 611.955 829.733 611.464 829.967 610.91C830.202 610.344 830.319 609.726 830.319 609.054C830.319 608.382 830.202 607.768 829.967 607.214C829.733 606.648 829.402 606.158 828.975 605.742C828.559 605.315 828.063 604.99 827.487 604.766C826.922 604.531 826.303 604.414 825.631 604.414C824.959 604.414 824.335 604.531 823.759 604.766C823.183 604.99 822.682 605.315 822.255 605.742C821.839 606.158 821.509 606.648 821.263 607.214C821.029 607.768 820.911 608.382 820.911 609.054C820.911 609.715 821.029 610.328 821.263 610.894C821.509 611.459 821.839 611.955 822.255 612.382C822.682 612.798 823.183 613.123 823.759 613.358C824.335 613.582 824.959 613.694 825.631 613.694ZM837.117 614.654V603.454H838.301V613.63H844.573V614.654H837.117ZM854.176 614.75C853.334 614.75 852.55 614.611 851.824 614.334C851.11 614.046 850.486 613.646 849.952 613.134C849.43 612.611 849.019 612.008 848.72 611.326C848.432 610.632 848.288 609.875 848.288 609.054C848.288 608.232 848.432 607.48 848.72 606.798C849.019 606.104 849.43 605.502 849.952 604.99C850.486 604.467 851.11 604.067 851.824 603.79C852.539 603.502 853.323 603.358 854.176 603.358C855.019 603.358 855.798 603.502 856.512 603.79C857.227 604.067 857.846 604.462 858.368 604.974C858.902 605.486 859.312 606.088 859.6 606.782C859.899 607.475 860.048 608.232 860.048 609.054C860.048 609.875 859.899 610.632 859.6 611.326C859.312 612.019 858.902 612.622 858.368 613.134C857.846 613.646 857.227 614.046 856.512 614.334C855.798 614.611 855.019 614.75 854.176 614.75ZM854.176 613.694C854.848 613.694 855.467 613.582 856.032 613.358C856.608 613.123 857.104 612.798 857.52 612.382C857.947 611.955 858.278 611.464 858.512 610.91C858.747 610.344 858.864 609.726 858.864 609.054C858.864 608.382 858.747 607.768 858.512 607.214C858.278 606.648 857.947 606.158 857.52 605.742C857.104 605.315 856.608 604.99 856.032 604.766C855.467 604.531 854.848 604.414 854.176 604.414C853.504 604.414 852.88 604.531 852.304 604.766C851.728 604.99 851.227 605.315 850.8 605.742C850.384 606.158 850.054 606.648 849.808 607.214C849.574 607.768 849.456 608.382 849.456 609.054C849.456 609.715 849.574 610.328 849.808 610.894C850.054 611.459 850.384 611.955 850.8 612.382C851.227 612.798 851.728 613.123 852.304 613.358C852.88 613.582 853.504 613.694 854.176 613.694ZM865.662 614.654V603.454H869.854C870.804 603.454 871.62 603.608 872.302 603.918C872.985 604.216 873.508 604.654 873.87 605.23C874.244 605.795 874.43 606.483 874.43 607.294C874.43 608.083 874.244 608.766 873.87 609.342C873.508 609.907 872.985 610.344 872.302 610.654C871.62 610.952 870.804 611.102 869.854 611.102H866.318L866.846 610.558V614.654H865.662ZM873.31 614.654L870.43 610.59H871.71L874.606 614.654H873.31ZM866.846 610.654L866.318 610.094H869.822C870.942 610.094 871.79 609.848 872.366 609.358C872.953 608.867 873.246 608.179 873.246 607.294C873.246 606.398 872.953 605.704 872.366 605.214C871.79 604.723 870.942 604.478 869.822 604.478H866.318L866.846 603.918V610.654ZM883.273 614.75C882.441 614.75 881.641 614.616 880.873 614.35C880.115 614.072 879.529 613.72 879.113 613.294L879.577 612.382C879.971 612.766 880.499 613.091 881.161 613.358C881.833 613.614 882.537 613.742 883.273 613.742C883.977 613.742 884.547 613.656 884.985 613.486C885.433 613.304 885.758 613.064 885.961 612.766C886.174 612.467 886.281 612.136 886.281 611.774C886.281 611.336 886.153 610.984 885.897 610.718C885.651 610.451 885.326 610.243 884.921 610.094C884.515 609.934 884.067 609.795 883.577 609.678C883.086 609.56 882.595 609.438 882.105 609.31C881.614 609.171 881.161 608.99 880.745 608.766C880.339 608.542 880.009 608.248 879.753 607.886C879.507 607.512 879.385 607.027 879.385 606.43C879.385 605.875 879.529 605.368 879.817 604.91C880.115 604.44 880.569 604.067 881.177 603.79C881.785 603.502 882.563 603.358 883.513 603.358C884.142 603.358 884.766 603.448 885.385 603.63C886.003 603.8 886.537 604.04 886.985 604.35L886.585 605.294C886.105 604.974 885.593 604.739 885.049 604.59C884.515 604.44 883.998 604.366 883.497 604.366C882.825 604.366 882.27 604.456 881.833 604.638C881.395 604.819 881.07 605.064 880.857 605.374C880.654 605.672 880.553 606.014 880.553 606.398C880.553 606.835 880.675 607.187 880.921 607.454C881.177 607.72 881.507 607.928 881.913 608.078C882.329 608.227 882.782 608.36 883.273 608.478C883.763 608.595 884.249 608.723 884.729 608.862C885.219 609 885.667 609.182 886.073 609.406C886.489 609.619 886.819 609.907 887.065 610.27C887.321 610.632 887.449 611.107 887.449 611.694C887.449 612.238 887.299 612.744 887.001 613.214C886.702 613.672 886.243 614.046 885.625 614.334C885.017 614.611 884.233 614.75 883.273 614.75Z" fill="black"/>
<path d="M153.253 131.433L164.478 132.235L163.943 250.896H153.253V131.433Z" fill="#DAEE6C"/>
<path d="M164.476 132.528L182.115 129.562V250.896H163.407L164.476 132.528Z" fill="#1B7B36"/>
<path d="M148.175 128.227L153.253 131.434L153.253 250.897C153.253 250.897 147.908 249.803 146.572 246.354C145.235 242.904 148.175 128.227 148.175 128.227Z" fill="#B8E340"/>
<path d="M163.943 100.698L182.116 129.561L164.391 132.555L163.943 100.698Z" fill="#38BA2C"/>
<path d="M163.943 100.7L153.519 131.701L158.864 132.236L164.477 132.503L163.943 100.7Z" fill="#BBD44A"/>
<path d="M163.942 100.699L148.174 128.226L153.519 131.7L163.942 100.699Z" fill="#B8E340"/>
<path d="M163.943 203.86L186.801 189.963L206.971 208.671L181.849 224.973L163.943 203.86Z" fill="#1B7B36"/>
<path d="M121.717 168.313L124.657 169.649L123.588 209.47L121.717 208.401V168.313Z" fill="#3ABA2C"/>
<path d="M124.657 169.651L136.683 171.255V196.11L123.588 207.869L124.657 169.651Z" fill="#B8E340"/>
<path d="M136.683 171.247L142.562 169.651V190.764L136.683 196.11V171.247Z" fill="#3ABA2C"/>
<path d="M131.872 152.013L124.656 169.652L121.717 168.315L131.872 152.013Z" fill="#3ABA2C"/>
<path d="M131.851 152.008L136.682 171.251L124.635 169.647L131.851 152.008Z" fill="#DAEE6C"/>
<path d="M131.873 152.013L142.579 169.778L136.683 171.255L131.873 152.013Z" fill="#218D34"/>
<path d="M187.728 165.909L198.686 170.719L199.625 202.255L186.796 189.962L187.728 165.909Z" fill="#218D34"/>
<path d="M198.686 170.719L207.238 166.443L206.953 208.669L199.541 202.214L198.686 170.719Z" fill="#3ABA2C"/>
<path d="M197.884 151.479L198.685 170.721L187.728 165.91L197.884 151.479Z" fill="#1B7B36"/>
<path d="M197.884 151.479L207.237 166.445L198.685 170.721L197.884 151.479Z" fill="#218D34"/>
<path d="M163.942 204.126L146.57 226.308L121.716 208.402L142.562 190.764L163.942 204.126Z" fill="#1B7B36" fill-opacity="0.95"/>
<path d="M136.683 185.688V195.844L131.605 200.12L136.683 185.688Z" fill="#3ABA2C" fill-opacity="0.61"/>
<path d="M135.614 166.98L136.683 171.257L132.674 170.722L135.614 166.98Z" fill="#BBD44A"/>
<path d="M204.565 167.778L198.953 178.735L198.685 170.718L204.565 167.778Z" fill="#1B7B36"/>
<path d="M182.116 192.635V218.024L163.943 203.86L182.116 192.635Z" fill="#3ABA2C" fill-opacity="0.8"/>
<path d="M171.863 238.069C171.863 238.069 173.199 237.267 173.734 237C174.268 236.733 175.07 235.931 175.07 235.931L176.941 231.12L182.116 218.025V245.018C179.289 244.751 173.865 240.257 171.863 238.069Z" fill="#3ABA2C" fill-opacity="0.6"/>
<path d="M182.115 150.408V129.562L174.365 130.899L182.115 150.408Z" fill="#218D34"/>
<g filter="url(#filter0_d_292_318)">
<path d="M163.943 185.387L182.116 171.254V192.662L163.943 203.816V185.387Z" fill="#218D34"/>
</g>
<path d="M163.942 203.861L182.115 218.025C182.115 218.025 177.572 229.25 175.968 234.328C174.365 239.406 163.407 239.94 163.407 239.94L163.942 203.861Z" fill="#3ABA2C"/>
<path d="M163.407 239.939C166.882 239.671 168.768 239.247 171.96 238.068C175.456 241.74 177.652 243.101 182.115 245.016L163.407 250.896V239.939Z" fill="#218D34"/>
<path d="M163.407 250.894L182.115 245.015V251.161L163.407 250.894Z" fill="#218D34"/>
<path d="M146.303 214.968C150.768 225.631 154.216 230.545 163.471 237.822L163.662 250.895C159.404 250.895 157.017 250.895 152.759 250.895C148.029 249.961 145.89 248.767 145.769 244.213V232.721V228.178V222.299L146.084 218.467L146.303 214.968Z" fill="#1B7B36"/>
<path d="M146.85 193.43L163.925 203.85L163.58 239.902C155.028 231.35 148.444 229.098 146.413 214.752L146.85 193.43Z" fill="#218D34"/>
<path d="M320.276 227.037C318.26 227.037 316.388 226.725 314.66 226.101C312.956 225.453 311.468 224.541 310.196 223.365C308.948 222.189 307.976 220.797 307.28 219.189C306.584 217.581 306.236 215.805 306.236 213.861C306.236 211.917 306.584 210.141 307.28 208.533C307.976 206.925 308.948 205.533 310.196 204.357C311.468 203.181 312.956 202.281 314.66 201.657C316.388 201.009 318.26 200.685 320.276 200.685C322.748 200.685 324.932 201.117 326.828 201.981C328.748 202.845 330.332 204.093 331.58 205.725L326.216 210.513C325.472 209.577 324.644 208.857 323.732 208.353C322.844 207.825 321.836 207.561 320.708 207.561C319.82 207.561 319.016 207.705 318.296 207.993C317.576 208.281 316.952 208.701 316.424 209.253C315.92 209.805 315.524 210.477 315.236 211.269C314.948 212.037 314.804 212.901 314.804 213.861C314.804 214.821 314.948 215.697 315.236 216.489C315.524 217.257 315.92 217.917 316.424 218.469C316.952 219.021 317.576 219.441 318.296 219.729C319.016 220.017 319.82 220.161 320.708 220.161C321.836 220.161 322.844 219.909 323.732 219.405C324.644 218.877 325.472 218.145 326.216 217.209L331.58 221.997C330.332 223.605 328.748 224.853 326.828 225.741C324.932 226.605 322.748 227.037 320.276 227.037ZM337.605 226.461L348.621 201.261H356.973L367.989 226.461H359.205L351.069 205.293H354.381L346.245 226.461H337.605ZM344.157 222.069L346.317 215.949H357.909L360.069 222.069H344.157ZM388.686 227.037C386.67 227.037 384.798 226.725 383.07 226.101C381.366 225.453 379.878 224.541 378.606 223.365C377.358 222.189 376.386 220.797 375.69 219.189C374.994 217.581 374.646 215.805 374.646 213.861C374.646 211.917 374.994 210.141 375.69 208.533C376.386 206.925 377.358 205.533 378.606 204.357C379.878 203.181 381.366 202.281 383.07 201.657C384.798 201.009 386.67 200.685 388.686 200.685C391.158 200.685 393.342 201.117 395.238 201.981C397.158 202.845 398.742 204.093 399.99 205.725L394.626 210.513C393.882 209.577 393.054 208.857 392.142 208.353C391.254 207.825 390.246 207.561 389.118 207.561C388.23 207.561 387.426 207.705 386.706 207.993C385.986 208.281 385.362 208.701 384.834 209.253C384.33 209.805 383.934 210.477 383.646 211.269C383.358 212.037 383.214 212.901 383.214 213.861C383.214 214.821 383.358 215.697 383.646 216.489C383.934 217.257 384.33 217.917 384.834 218.469C385.362 219.021 385.986 219.441 386.706 219.729C387.426 220.017 388.23 220.161 389.118 220.161C390.246 220.161 391.254 219.909 392.142 219.405C393.054 218.877 393.882 218.145 394.626 217.209L399.99 221.997C398.742 223.605 397.158 224.853 395.238 225.741C393.342 226.605 391.158 227.037 388.686 227.037ZM414.399 226.461V207.849H407.019V201.261H430.275V207.849H422.895V226.461H414.399ZM450.85 227.037C446.986 227.037 443.974 225.993 441.814 223.905C439.654 221.817 438.574 218.889 438.574 215.121V201.261H447.07V214.869C447.07 216.789 447.418 218.157 448.114 218.973C448.81 219.765 449.746 220.161 450.922 220.161C452.122 220.161 453.058 219.765 453.73 218.973C454.426 218.157 454.774 216.789 454.774 214.869V201.261H463.126V215.121C463.126 218.889 462.046 221.817 459.886 223.905C457.726 225.993 454.714 227.037 450.85 227.037ZM483.077 227.037C480.965 227.037 478.925 226.797 476.957 226.317C474.989 225.837 473.369 225.213 472.097 224.445L474.833 218.253C476.033 218.949 477.365 219.513 478.829 219.945C480.317 220.353 481.757 220.557 483.149 220.557C483.965 220.557 484.601 220.509 485.057 220.413C485.537 220.293 485.885 220.137 486.101 219.945C486.317 219.729 486.425 219.477 486.425 219.189C486.425 218.733 486.173 218.373 485.669 218.109C485.165 217.845 484.493 217.629 483.653 217.461C482.837 217.269 481.937 217.077 480.953 216.885C479.969 216.669 478.973 216.393 477.965 216.057C476.981 215.721 476.069 215.277 475.229 214.725C474.413 214.173 473.753 213.453 473.249 212.565C472.745 211.653 472.493 210.525 472.493 209.181C472.493 207.621 472.925 206.205 473.789 204.933C474.677 203.637 475.985 202.605 477.713 201.837C479.465 201.069 481.637 200.685 484.229 200.685C485.933 200.685 487.613 200.865 489.269 201.225C490.925 201.585 492.413 202.137 493.733 202.881L491.177 209.037C489.929 208.413 488.717 207.945 487.541 207.633C486.389 207.321 485.261 207.165 484.157 207.165C483.341 207.165 482.693 207.237 482.213 207.381C481.733 207.525 481.385 207.717 481.169 207.957C480.977 208.197 480.881 208.461 480.881 208.749C480.881 209.181 481.133 209.529 481.637 209.793C482.141 210.033 482.801 210.237 483.617 210.405C484.457 210.573 485.369 210.753 486.353 210.945C487.361 211.137 488.357 211.401 489.341 211.737C490.325 212.073 491.225 212.517 492.041 213.069C492.881 213.621 493.553 214.341 494.057 215.229C494.561 216.117 494.813 217.221 494.813 218.541C494.813 220.077 494.369 221.493 493.481 222.789C492.617 224.061 491.321 225.093 489.593 225.885C487.865 226.653 485.693 227.037 483.077 227.037Z" fill="black"/>
<path d="M159.412 353.855C158.148 353.855 156.98 353.647 155.908 353.231C154.836 352.799 153.908 352.199 153.124 351.431C152.34 350.663 151.724 349.759 151.276 348.719C150.844 347.679 150.628 346.543 150.628 345.311C150.628 344.079 150.844 342.943 151.276 341.903C151.724 340.863 152.34 339.959 153.124 339.191C153.924 338.423 154.86 337.831 155.932 337.415C157.004 336.983 158.172 336.767 159.436 336.767C160.652 336.767 161.796 336.975 162.868 337.391C163.94 337.791 164.844 338.399 165.58 339.215L164.452 340.343C163.764 339.639 163.004 339.135 162.172 338.831C161.34 338.511 160.444 338.351 159.484 338.351C158.476 338.351 157.54 338.527 156.676 338.879C155.812 339.215 155.06 339.703 154.42 340.343C153.78 340.967 153.276 341.703 152.908 342.551C152.556 343.383 152.38 344.303 152.38 345.311C152.38 346.319 152.556 347.247 152.908 348.095C153.276 348.927 153.78 349.663 154.42 350.303C155.06 350.927 155.812 351.415 156.676 351.767C157.54 352.103 158.476 352.271 159.484 352.271C160.444 352.271 161.34 352.111 162.172 351.791C163.004 351.471 163.764 350.959 164.452 350.255L165.58 351.383C164.844 352.199 163.94 352.815 162.868 353.231C161.796 353.647 160.644 353.855 159.412 353.855ZM180.799 353.855C179.535 353.855 178.359 353.647 177.271 353.231C176.199 352.799 175.263 352.199 174.463 351.431C173.679 350.647 173.063 349.743 172.615 348.719C172.183 347.679 171.967 346.543 171.967 345.311C171.967 344.079 172.183 342.951 172.615 341.927C173.063 340.887 173.679 339.983 174.463 339.215C175.263 338.431 176.199 337.831 177.271 337.415C178.343 336.983 179.519 336.767 180.799 336.767C182.063 336.767 183.231 336.983 184.303 337.415C185.375 337.831 186.303 338.423 187.087 339.191C187.887 339.959 188.503 340.863 188.935 341.903C189.383 342.943 189.607 344.079 189.607 345.311C189.607 346.543 189.383 347.679 188.935 348.719C188.503 349.759 187.887 350.663 187.087 351.431C186.303 352.199 185.375 352.799 184.303 353.231C183.231 353.647 182.063 353.855 180.799 353.855ZM180.799 352.271C181.807 352.271 182.735 352.103 183.583 351.767C184.447 351.415 185.191 350.927 185.815 350.303C186.455 349.663 186.951 348.927 187.303 348.095C187.655 347.247 187.831 346.319 187.831 345.311C187.831 344.303 187.655 343.383 187.303 342.551C186.951 341.703 186.455 340.967 185.815 340.343C185.191 339.703 184.447 339.215 183.583 338.879C182.735 338.527 181.807 338.351 180.799 338.351C179.791 338.351 178.855 338.527 177.991 338.879C177.127 339.215 176.375 339.703 175.735 340.343C175.111 340.967 174.615 341.703 174.247 342.551C173.895 343.383 173.719 344.303 173.719 345.311C173.719 346.303 173.895 347.223 174.247 348.071C174.615 348.919 175.111 349.663 175.735 350.303C176.375 350.927 177.127 351.415 177.991 351.767C178.855 352.103 179.791 352.271 180.799 352.271ZM198.027 353.711V336.911H199.803V352.175H209.211V353.711H198.027ZM223.616 353.855C222.352 353.855 221.176 353.647 220.088 353.231C219.016 352.799 218.08 352.199 217.28 351.431C216.496 350.647 215.88 349.743 215.432 348.719C215 347.679 214.784 346.543 214.784 345.311C214.784 344.079 215 342.951 215.432 341.927C215.88 340.887 216.496 339.983 217.28 339.215C218.08 338.431 219.016 337.831 220.088 337.415C221.16 336.983 222.336 336.767 223.616 336.767C224.88 336.767 226.048 336.983 227.12 337.415C228.192 337.831 229.12 338.423 229.904 339.191C230.704 339.959 231.32 340.863 231.752 341.903C232.2 342.943 232.424 344.079 232.424 345.311C232.424 346.543 232.2 347.679 231.752 348.719C231.32 349.759 230.704 350.663 229.904 351.431C229.12 352.199 228.192 352.799 227.12 353.231C226.048 353.647 224.88 353.855 223.616 353.855ZM223.616 352.271C224.624 352.271 225.552 352.103 226.4 351.767C227.264 351.415 228.008 350.927 228.632 350.303C229.272 349.663 229.768 348.927 230.12 348.095C230.472 347.247 230.648 346.319 230.648 345.311C230.648 344.303 230.472 343.383 230.12 342.551C229.768 341.703 229.272 340.967 228.632 340.343C228.008 339.703 227.264 339.215 226.4 338.879C225.552 338.527 224.624 338.351 223.616 338.351C222.608 338.351 221.672 338.527 220.808 338.879C219.944 339.215 219.192 339.703 218.552 340.343C217.928 340.967 217.432 341.703 217.064 342.551C216.712 343.383 216.536 344.303 216.536 345.311C216.536 346.303 216.712 347.223 217.064 348.071C217.432 348.919 217.928 349.663 218.552 350.303C219.192 350.927 219.944 351.415 220.808 351.767C221.672 352.103 222.608 352.271 223.616 352.271ZM240.845 353.711V336.911H247.133C248.557 336.911 249.781 337.143 250.805 337.607C251.829 338.055 252.613 338.711 253.157 339.575C253.717 340.423 253.997 341.455 253.997 342.671C253.997 343.855 253.717 344.879 253.157 345.743C252.613 346.591 251.829 347.247 250.805 347.711C249.781 348.159 248.557 348.383 247.133 348.383H241.829L242.621 347.567V353.711H240.845ZM252.317 353.711L247.997 347.615H249.917L254.261 353.711H252.317ZM242.621 347.711L241.829 346.871H247.085C248.765 346.871 250.037 346.503 250.901 345.767C251.781 345.031 252.221 343.999 252.221 342.671C252.221 341.327 251.781 340.287 250.901 339.551C250.037 338.815 248.765 338.447 247.085 338.447H241.829L242.621 337.607V347.711ZM267.261 353.855C266.013 353.855 264.813 353.655 263.661 353.255C262.525 352.839 261.645 352.311 261.021 351.671L261.717 350.303C262.309 350.879 263.101 351.367 264.093 351.767C265.101 352.151 266.157 352.343 267.261 352.343C268.317 352.343 269.173 352.215 269.829 351.959C270.501 351.687 270.989 351.327 271.293 350.879C271.613 350.431 271.773 349.935 271.773 349.391C271.773 348.735 271.581 348.207 271.197 347.807C270.829 347.407 270.341 347.095 269.733 346.871C269.125 346.631 268.453 346.423 267.717 346.247C266.981 346.071 266.245 345.887 265.509 345.695C264.773 345.487 264.093 345.215 263.469 344.879C262.861 344.543 262.365 344.103 261.981 343.559C261.613 342.999 261.429 342.271 261.429 341.375C261.429 340.543 261.645 339.783 262.077 339.095C262.525 338.391 263.205 337.831 264.117 337.415C265.029 336.983 266.197 336.767 267.621 336.767C268.565 336.767 269.501 336.903 270.429 337.175C271.357 337.431 272.157 337.791 272.829 338.255L272.229 339.671C271.509 339.191 270.741 338.839 269.925 338.615C269.125 338.391 268.349 338.279 267.597 338.279C266.589 338.279 265.757 338.415 265.101 338.687C264.445 338.959 263.957 339.327 263.637 339.791C263.333 340.239 263.181 340.751 263.181 341.327C263.181 341.983 263.365 342.511 263.733 342.911C264.117 343.311 264.613 343.623 265.221 343.847C265.845 344.071 266.525 344.271 267.261 344.447C267.997 344.623 268.725 344.815 269.445 345.023C270.181 345.231 270.853 345.503 271.461 345.839C272.085 346.159 272.581 346.591 272.949 347.135C273.333 347.679 273.525 348.391 273.525 349.271C273.525 350.087 273.301 350.847 272.853 351.551C272.405 352.239 271.717 352.799 270.789 353.231C269.877 353.647 268.701 353.855 267.261 353.855Z" fill="black"/>
<path d="M150.854 784.951H159.734V786.487H150.854V784.951ZM151.046 793.615H149.27V776.815H160.79V778.351H151.046V793.615ZM176.031 793.759C174.767 793.759 173.591 793.551 172.503 793.135C171.431 792.703 170.495 792.103 169.695 791.335C168.911 790.551 168.295 789.647 167.847 788.623C167.415 787.583 167.199 786.447 167.199 785.215C167.199 783.983 167.415 782.855 167.847 781.831C168.295 780.791 168.911 779.887 169.695 779.119C170.495 778.335 171.431 777.735 172.503 777.319C173.575 776.887 174.751 776.671 176.031 776.671C177.295 776.671 178.463 776.887 179.535 777.319C180.607 777.735 181.535 778.327 182.319 779.095C183.119 779.863 183.735 780.767 184.167 781.807C184.615 782.847 184.839 783.983 184.839 785.215C184.839 786.447 184.615 787.583 184.167 788.623C183.735 789.663 183.119 790.567 182.319 791.335C181.535 792.103 180.607 792.703 179.535 793.135C178.463 793.551 177.295 793.759 176.031 793.759ZM176.031 792.175C177.039 792.175 177.967 792.007 178.815 791.671C179.679 791.319 180.423 790.831 181.047 790.207C181.687 789.567 182.183 788.831 182.535 787.999C182.887 787.151 183.063 786.223 183.063 785.215C183.063 784.207 182.887 783.287 182.535 782.455C182.183 781.607 181.687 780.871 181.047 780.247C180.423 779.607 179.679 779.119 178.815 778.783C177.967 778.431 177.039 778.255 176.031 778.255C175.023 778.255 174.087 778.431 173.223 778.783C172.359 779.119 171.607 779.607 170.967 780.247C170.343 780.871 169.847 781.607 169.479 782.455C169.127 783.287 168.951 784.207 168.951 785.215C168.951 786.207 169.127 787.127 169.479 787.975C169.847 788.823 170.343 789.567 170.967 790.207C171.607 790.831 172.359 791.319 173.223 791.671C174.087 792.007 175.023 792.175 176.031 792.175ZM193.26 793.615V776.815H194.724L206.316 791.407H205.548V776.815H207.3V793.615H205.836L194.268 779.023H195.036V793.615H193.26ZM220.487 793.615V778.351H214.583V776.815H228.167V778.351H222.263V793.615H220.487ZM239.818 793.759C238.57 793.759 237.37 793.559 236.218 793.159C235.082 792.743 234.202 792.215 233.578 791.575L234.274 790.207C234.866 790.783 235.658 791.271 236.65 791.671C237.658 792.055 238.714 792.247 239.818 792.247C240.874 792.247 241.73 792.119 242.386 791.863C243.058 791.591 243.546 791.231 243.85 790.783C244.17 790.335 244.33 789.839 244.33 789.295C244.33 788.639 244.138 788.111 243.754 787.711C243.386 787.311 242.898 786.999 242.29 786.775C241.682 786.535 241.01 786.327 240.274 786.151C239.538 785.975 238.802 785.791 238.066 785.599C237.33 785.391 236.65 785.119 236.026 784.783C235.418 784.447 234.922 784.007 234.538 783.463C234.17 782.903 233.986 782.175 233.986 781.279C233.986 780.447 234.202 779.687 234.634 778.999C235.082 778.295 235.762 777.735 236.674 777.319C237.586 776.887 238.754 776.671 240.178 776.671C241.122 776.671 242.058 776.807 242.986 777.079C243.914 777.335 244.714 777.695 245.386 778.159L244.786 779.575C244.066 779.095 243.298 778.743 242.482 778.519C241.682 778.295 240.906 778.183 240.154 778.183C239.146 778.183 238.314 778.319 237.658 778.591C237.002 778.863 236.514 779.231 236.194 779.695C235.89 780.143 235.738 780.655 235.738 781.231C235.738 781.887 235.922 782.415 236.29 782.815C236.674 783.215 237.17 783.527 237.778 783.751C238.402 783.975 239.082 784.175 239.818 784.351C240.554 784.527 241.282 784.719 242.002 784.927C242.738 785.135 243.41 785.407 244.018 785.743C244.642 786.063 245.138 786.495 245.506 787.039C245.89 787.583 246.082 788.295 246.082 789.175C246.082 789.991 245.858 790.751 245.41 791.455C244.962 792.143 244.274 792.703 243.346 793.135C242.434 793.551 241.258 793.759 239.818 793.759Z" fill="black"/>
<rect x="122.596" y="412.5" width="141.346" height="141.346" fill="#12431F"/>
<rect x="291.346" y="412.5" width="141.346" height="141.346" fill="#734817"/>
<rect x="459.154" y="413" width="140.346" height="140.346" fill="white" stroke="black"/>
<rect x="713.942" y="411.058" width="72.1154" height="72.1154" fill="#BBD748"/>
<rect x="713.942" y="411.058" width="72.1154" height="72.1154" fill="#BBD748"/>
<rect x="713.942" y="411.058" width="72.1154" height="72.1154" fill="#BBD748"/>
<rect x="794.712" y="411.058" width="72.1154" height="72.1154" fill="#36BD2A"/>
<rect x="713.942" y="491.827" width="72.1154" height="72.1154" fill="#1E7E37"/>
<rect x="794.712" y="491.827" width="72.1154" height="72.1154" fill="#4CB630"/>
<path d="M178.93 878.961C176.914 878.961 175.042 878.649 173.314 878.025C171.61 877.377 170.122 876.465 168.85 875.289C167.602 874.113 166.63 872.721 165.934 871.113C165.238 869.505 164.89 867.729 164.89 865.785C164.89 863.841 165.238 862.065 165.934 860.457C166.63 858.849 167.602 857.457 168.85 856.281C170.122 855.105 171.61 854.205 173.314 853.581C175.042 852.933 176.914 852.609 178.93 852.609C181.402 852.609 183.586 853.041 185.482 853.905C187.402 854.769 188.986 856.017 190.234 857.649L184.87 862.437C184.126 861.501 183.298 860.781 182.386 860.277C181.498 859.749 180.49 859.485 179.362 859.485C178.474 859.485 177.67 859.629 176.95 859.917C176.23 860.205 175.606 860.625 175.078 861.177C174.574 861.729 174.178 862.401 173.89 863.193C173.602 863.961 173.458 864.825 173.458 865.785C173.458 866.745 173.602 867.621 173.89 868.413C174.178 869.181 174.574 869.841 175.078 870.393C175.606 870.945 176.23 871.365 176.95 871.653C177.67 871.941 178.474 872.085 179.362 872.085C180.49 872.085 181.498 871.833 182.386 871.329C183.298 870.801 184.126 870.069 184.87 869.133L190.234 873.921C188.986 875.529 187.402 876.777 185.482 877.665C183.586 878.529 181.402 878.961 178.93 878.961ZM196.259 878.385L207.275 853.185H215.627L226.643 878.385H217.859L209.723 857.217H213.035L204.899 878.385H196.259ZM202.811 873.993L204.971 867.873H216.563L218.723 873.993H202.811ZM247.34 878.961C245.324 878.961 243.452 878.649 241.724 878.025C240.02 877.377 238.532 876.465 237.26 875.289C236.012 874.113 235.04 872.721 234.344 871.113C233.648 869.505 233.3 867.729 233.3 865.785C233.3 863.841 233.648 862.065 234.344 860.457C235.04 858.849 236.012 857.457 237.26 856.281C238.532 855.105 240.02 854.205 241.724 853.581C243.452 852.933 245.324 852.609 247.34 852.609C249.812 852.609 251.996 853.041 253.892 853.905C255.812 854.769 257.396 856.017 258.644 857.649L253.28 862.437C252.536 861.501 251.708 860.781 250.796 860.277C249.908 859.749 248.9 859.485 247.772 859.485C246.884 859.485 246.08 859.629 245.36 859.917C244.64 860.205 244.016 860.625 243.488 861.177C242.984 861.729 242.588 862.401 242.3 863.193C242.012 863.961 241.868 864.825 241.868 865.785C241.868 866.745 242.012 867.621 242.3 868.413C242.588 869.181 242.984 869.841 243.488 870.393C244.016 870.945 244.64 871.365 245.36 871.653C246.08 871.941 246.884 872.085 247.772 872.085C248.9 872.085 249.908 871.833 250.796 871.329C251.708 870.801 252.536 870.069 253.28 869.133L258.644 873.921C257.396 875.529 255.812 876.777 253.892 877.665C251.996 878.529 249.812 878.961 247.34 878.961ZM273.053 878.385V859.773H265.673V853.185H288.929V859.773H281.549V878.385H273.053ZM309.504 878.961C305.64 878.961 302.628 877.917 300.468 875.829C298.308 873.741 297.228 870.813 297.228 867.045V853.185H305.724V866.793C305.724 868.713 306.072 870.081 306.768 870.897C307.464 871.689 308.4 872.085 309.576 872.085C310.776 872.085 311.712 871.689 312.384 870.897C313.08 870.081 313.428 868.713 313.428 866.793V853.185H321.78V867.045C321.78 870.813 320.7 873.741 318.54 875.829C316.38 877.917 313.368 878.961 309.504 878.961ZM341.73 878.961C339.618 878.961 337.578 878.721 335.61 878.241C333.642 877.761 332.022 877.137 330.75 876.369L333.486 870.177C334.686 870.873 336.018 871.437 337.482 871.869C338.97 872.277 340.41 872.481 341.802 872.481C342.618 872.481 343.254 872.433 343.71 872.337C344.19 872.217 344.538 872.061 344.754 871.869C344.97 871.653 345.078 871.401 345.078 871.113C345.078 870.657 344.826 870.297 344.322 870.033C343.818 869.769 343.146 869.553 342.306 869.385C341.49 869.193 340.59 869.001 339.606 868.809C338.622 868.593 337.626 868.317 336.618 867.981C335.634 867.645 334.722 867.201 333.882 866.649C333.066 866.097 332.406 865.377 331.902 864.489C331.398 863.577 331.146 862.449 331.146 861.105C331.146 859.545 331.578 858.129 332.442 856.857C333.33 855.561 334.638 854.529 336.366 853.761C338.118 852.993 340.29 852.609 342.882 852.609C344.586 852.609 346.266 852.789 347.922 853.149C349.578 853.509 351.066 854.061 352.386 854.805L349.83 860.961C348.582 860.337 347.37 859.869 346.194 859.557C345.042 859.245 343.914 859.089 342.81 859.089C341.994 859.089 341.346 859.161 340.866 859.305C340.386 859.449 340.038 859.641 339.822 859.881C339.63 860.121 339.534 860.385 339.534 860.673C339.534 861.105 339.786 861.453 340.29 861.717C340.794 861.957 341.454 862.161 342.27 862.329C343.11 862.497 344.022 862.677 345.006 862.869C346.014 863.061 347.01 863.325 347.994 863.661C348.978 863.997 349.878 864.441 350.694 864.993C351.534 865.545 352.206 866.265 352.71 867.153C353.214 868.041 353.466 869.145 353.466 870.465C353.466 872.001 353.022 873.417 352.134 874.713C351.27 875.985 349.974 877.017 348.246 877.809C346.518 878.577 344.346 878.961 341.73 878.961Z" fill="black"/>
<defs>
<filter id="filter0_d_292_318" x="159.943" y="171.254" width="26.1733" height="40.562" filterUnits="userSpaceOnUse" color-interpolation-filters="sRGB">
<feFlood flood-opacity="0" result="BackgroundImageFix"/>
<feColorMatrix in="SourceAlpha" type="matrix" values="0 0 0 0 0 0 0 0 0 0 0 0 0 0 0 0 0 0 127 0" result="hardAlpha"/>
<feOffset dy="4"/>
<feGaussianBlur stdDeviation="2"/>
<feComposite in2="hardAlpha" operator="out"/>
<feColorMatrix type="matrix" values="0 0 0 0 0 0 0 0 0 0 0 0 0 0 0 0 0 0 0.25 0"/>
<feBlend mode="normal" in2="BackgroundImageFix" result="effect1_dropShadow_292_318"/>
<feBlend mode="normal" in="SourceGraphic" in2="effect1_dropShadow_292_318" result="shape"/>
</filter>
</defs>
</svg>
