<svg width="109" height="35" viewBox="0 0 109 35" fill="none" xmlns="http://www.w3.org/2000/svg">
<rect x="18.3631" width="90" height="25" rx="12.5" fill="url(#paint0_linear_2047_2023)"/>
<path d="M46.3671 12.464H50.9151V13.004H46.3671V12.464ZM46.4391 16.448H51.6231V17H45.8271V8.6H51.4431V9.152H46.4391V16.448ZM53.6624 17V8.096H54.2624V17H53.6624ZM59.3353 17.048C58.7033 17.048 58.1433 16.912 57.6553 16.64C57.1753 16.368 56.7953 15.992 56.5153 15.512C56.2433 15.032 56.1073 14.484 56.1073 13.868C56.1073 13.244 56.2353 12.696 56.4913 12.224C56.7553 11.744 57.1153 11.368 57.5713 11.096C58.0273 10.824 58.5393 10.688 59.1073 10.688C59.6753 10.688 60.1833 10.82 60.6313 11.084C61.0873 11.348 61.4433 11.72 61.6993 12.2C61.9633 12.672 62.0953 13.22 62.0953 13.844C62.0953 13.868 62.0913 13.896 62.0833 13.928C62.0833 13.952 62.0833 13.98 62.0833 14.012H56.5513V13.544H61.7593L61.5193 13.772C61.5273 13.284 61.4233 12.848 61.2073 12.464C60.9993 12.072 60.7153 11.768 60.3553 11.552C59.9953 11.328 59.5793 11.216 59.1073 11.216C58.6433 11.216 58.2273 11.328 57.8593 11.552C57.4993 11.768 57.2153 12.072 57.0073 12.464C56.7993 12.848 56.6953 13.288 56.6953 13.784V13.892C56.6953 14.404 56.8073 14.86 57.0313 15.26C57.2633 15.652 57.5793 15.96 57.9793 16.184C58.3793 16.4 58.8353 16.508 59.3473 16.508C59.7473 16.508 60.1193 16.436 60.4633 16.292C60.8153 16.148 61.1113 15.928 61.3513 15.632L61.6993 16.028C61.4273 16.364 61.0833 16.62 60.6673 16.796C60.2593 16.964 59.8153 17.048 59.3353 17.048ZM67.0115 10.688C67.5235 10.688 67.9675 10.788 68.3435 10.988C68.7275 11.18 69.0235 11.476 69.2315 11.876C69.4475 12.268 69.5555 12.756 69.5555 13.34V17H68.9555V13.388C68.9555 12.684 68.7755 12.148 68.4155 11.78C68.0635 11.412 67.5675 11.228 66.9275 11.228C66.4395 11.228 66.0155 11.328 65.6555 11.528C65.2955 11.728 65.0195 12.008 64.8275 12.368C64.6435 12.728 64.5515 13.16 64.5515 13.664V17H63.9515V10.736H64.5275V12.476L64.4435 12.284C64.6355 11.788 64.9515 11.4 65.3915 11.12C65.8315 10.832 66.3715 10.688 67.0115 10.688ZM75.9737 17V15.572L75.9497 15.356V13.004C75.9497 12.42 75.7897 11.976 75.4697 11.672C75.1577 11.368 74.6977 11.216 74.0897 11.216C73.6577 11.216 73.2537 11.292 72.8777 11.444C72.5097 11.588 72.1937 11.776 71.9297 12.008L71.6297 11.576C71.9417 11.296 72.3177 11.08 72.7577 10.928C73.1977 10.768 73.6577 10.688 74.1377 10.688C74.9137 10.688 75.5097 10.884 75.9257 11.276C76.3417 11.668 76.5497 12.252 76.5497 13.028V17H75.9737ZM73.7177 17.048C73.2537 17.048 72.8497 16.976 72.5057 16.832C72.1697 16.68 71.9097 16.468 71.7257 16.196C71.5497 15.924 71.4617 15.612 71.4617 15.26C71.4617 14.94 71.5337 14.652 71.6777 14.396C71.8297 14.132 72.0777 13.92 72.4217 13.76C72.7657 13.592 73.2257 13.508 73.8017 13.508H76.1057V13.976H73.8137C73.1657 13.976 72.7097 14.096 72.4457 14.336C72.1897 14.576 72.0617 14.876 72.0617 15.236C72.0617 15.636 72.2137 15.956 72.5177 16.196C72.8217 16.436 73.2497 16.556 73.8017 16.556C74.3297 16.556 74.7737 16.436 75.1337 16.196C75.5017 15.956 75.7737 15.608 75.9497 15.152L76.1177 15.56C75.9497 16.016 75.6617 16.38 75.2537 16.652C74.8537 16.916 74.3417 17.048 73.7177 17.048Z" fill="white"/>
<path d="M17.8042 25.6897L10.7339 31.3049L4.01634 22.8466L11.0867 17.2314L17.8042 25.6897Z" fill="#F73E94"/>
<path d="M3.49465 29.1636C3.45925 29.6764 3.81834 30.1325 4.3251 30.2184L10.7339 31.305L3.94229 22.6785L3.49465 29.1636Z" fill="#F73E94"/>
<defs>
<linearGradient id="paint0_linear_2047_2023" x1="25.3631" y1="1.49999" x2="108.363" y2="13" gradientUnits="userSpaceOnUse">
<stop stop-color="#F73E94"/>
<stop offset="1" stop-color="#97238A"/>
</linearGradient>
</defs>
</svg>
