<svg width="31" height="30" viewBox="0 0 31 30" fill="none" xmlns="http://www.w3.org/2000/svg">
<path d="M6.24257 13.0017C6.83855 10.192 8.74704 7.85271 11.3118 6.65989C11.5528 6.9846 13.1868 9.23107 14.7069 11.895C10.4211 13.0216 6.65105 13.0083 6.24257 13.0017ZM21.2694 8.08465C19.0194 6.10987 15.9591 5.36105 13.0595 6.05686C13.314 6.39482 14.9747 8.63467 16.4747 11.3583C19.7292 10.1456 21.1019 8.31658 21.2694 8.08465ZM9.58409 22.0008C12.2961 24.0949 15.8319 24.4329 18.7783 23.1937C18.6444 22.3984 18.1086 19.6285 16.8229 16.3283C13.1332 17.5742 10.5417 20.0658 9.58409 22.0008ZM16.2002 14.8307C15.9725 14.3138 15.718 13.8035 15.4569 13.2933C10.8899 14.6451 6.45686 14.5921 6.05507 14.5789C6.05507 14.6716 6.04838 14.7644 6.04838 14.8572C6.04838 17.1832 6.939 19.3037 8.39882 20.914C9.88543 18.4025 12.8921 15.7518 16.2002 14.8307ZM18.5372 15.9108C19.7359 19.1646 20.218 21.8153 20.3118 22.3653C22.3676 20.9936 23.8274 18.8134 24.2359 16.2952C23.9278 16.1958 21.4033 15.4536 18.5372 15.9108ZM17.1778 12.7035C17.4993 13.3529 17.7336 13.8831 17.9814 14.4795C21.0283 14.1017 24.0551 14.7048 24.3564 14.771C24.3363 12.6306 23.5662 10.6691 22.2872 9.13167C22.093 9.39012 20.5595 11.3318 17.1778 12.7035ZM30.2024 3.18084V26.507C30.2024 28.2631 28.7627 29.6879 26.9881 29.6879H3.41668C1.64212 29.6879 0.202393 28.2631 0.202393 26.507V3.18084C0.202393 1.42475 1.64212 0 3.41668 0H26.9881C28.7627 0 30.2024 1.42475 30.2024 3.18084ZM25.9167 14.8439C25.9167 8.99914 21.1086 4.24113 15.2024 4.24113C9.29614 4.24113 4.48811 8.99914 4.48811 14.8439C4.48811 20.6887 9.29614 25.4468 15.2024 25.4468C21.1086 25.4468 25.9167 20.6887 25.9167 14.8439Z" fill="black"/>
</svg>
