<svg width="16" height="16" viewBox="0 0 16 16" fill="none" xmlns="http://www.w3.org/2000/svg">
<rect width="16" height="16" rx="2" fill="#070726"/>
<path d="M3.52124 9.94897C4.16572 9.94918 4.68823 10.4021 4.68823 10.9607V11.1042C4.68823 11.6628 4.16572 12.1158 3.52124 12.116H3.40698C2.76244 12.1158 2.23999 11.6629 2.23999 11.1042V10.9607C2.23999 10.4021 2.76244 9.94912 3.40698 9.94897H3.52124ZM8.59644 9.94897C9.25467 9.94919 9.78866 10.4117 9.78882 10.9822V11.0828C9.78869 11.6533 9.25469 12.1157 8.59644 12.116H6.62476C5.96641 12.1158 5.43251 11.6533 5.43237 11.0828V10.9822C5.43253 10.4116 5.96643 9.9491 6.62476 9.94897H8.59644ZM11.0466 9.94897C11.305 9.94897 11.5151 10.1304 11.5154 10.3542V11.7107C11.5151 11.9346 11.305 12.116 11.0466 12.116H11.0007C10.7424 12.1159 10.5332 11.9345 10.533 11.7107V10.3542C10.5332 10.1304 10.7424 9.949 11.0007 9.94897H11.0466ZM13.1033 9.94897C13.5543 9.94897 13.9197 10.2661 13.9197 10.657V11.408C13.9197 11.7989 13.5543 12.116 13.1033 12.116H13.0251C12.5741 12.116 12.2078 11.7989 12.2078 11.408V10.657C12.2078 10.2661 12.5741 9.94897 13.0251 9.94897H13.1033Z" fill="url(#paint0_linear_3152_11)"/>
<path d="M4.71599 7.46637C4.45381 7.46637 4.20354 7.4221 3.96519 7.33357C3.73024 7.24163 3.54637 7.12416 3.41357 6.98115L3.53105 6.78707C3.65703 6.91986 3.82558 7.02882 4.03669 7.11395C4.25121 7.19567 4.47594 7.23653 4.71088 7.23653C5.05139 7.23653 5.30846 7.17183 5.48212 7.04244C5.65578 6.91305 5.7426 6.7445 5.7426 6.5368C5.7426 6.37676 5.69664 6.24907 5.6047 6.15373C5.51277 6.05839 5.3987 5.98519 5.2625 5.93411C5.1263 5.88303 4.94243 5.83026 4.71088 5.77578C4.4487 5.71108 4.23759 5.64809 4.07755 5.5868C3.92092 5.52551 3.78642 5.43187 3.67406 5.30589C3.5651 5.17649 3.51062 5.00454 3.51062 4.79003C3.51062 4.61637 3.55658 4.45804 3.64852 4.31503C3.74046 4.16861 3.88006 4.05284 4.06734 3.96772C4.25802 3.88259 4.49467 3.84003 4.77728 3.84003C4.97477 3.84003 5.16886 3.86897 5.35954 3.92685C5.55022 3.98474 5.71536 4.06306 5.85497 4.1618L5.75793 4.37121C5.61492 4.27246 5.45658 4.19755 5.28293 4.14648C5.11268 4.0954 4.94413 4.06987 4.77728 4.06987C4.447 4.06987 4.19673 4.13626 4.02648 4.26906C3.85623 4.40185 3.7711 4.57381 3.7711 4.78492C3.7711 4.94495 3.81707 5.07264 3.909 5.16798C4.00094 5.26332 4.11501 5.33653 4.25121 5.38761C4.38741 5.43868 4.57298 5.49316 4.80793 5.55105C5.07011 5.61574 5.27952 5.67873 5.43615 5.74002C5.59278 5.80131 5.72558 5.89495 5.83454 6.02094C5.9469 6.14352 6.00309 6.31036 6.00309 6.52147C6.00309 6.69513 5.95542 6.85346 5.86008 6.99647C5.76814 7.13948 5.62513 7.25355 5.43104 7.33868C5.23696 7.4238 4.99861 7.46637 4.71599 7.46637Z" fill="white"/>
<path d="M12.134 3.86556L10.9389 7.44083H10.4026L9.42704 4.58572L8.4515 7.44083H7.905L6.70984 3.86556H7.23591L8.20124 6.77174L9.20742 3.86556H9.67731L10.6631 6.78707L11.6488 3.86556H12.134Z" fill="white"/>
<defs>
<linearGradient id="paint0_linear_3152_11" x1="2.23999" y1="9.94897" x2="13.7237" y2="12.8045" gradientUnits="userSpaceOnUse">
<stop stop-color="#22DCD9"/>
<stop offset="0.333333" stop-color="#5456AB"/>
<stop offset="0.666667" stop-color="#97238A"/>
<stop offset="1" stop-color="#F73E94"/>
</linearGradient>
</defs>
</svg>
