<svg width="400" height="316" viewBox="0 0 400 316" fill="none" xmlns="http://www.w3.org/2000/svg">
<g clip-path="url(#clip0_2047_4392)">
<path d="M284.153 61.6956C287.626 49.0469 259.616 38.2003 252.26 48.3864C251.237 46.9382 247.457 46.0586 245.723 46.5029C243.989 46.9471 242.53 48.0577 241.107 49.1327C239.151 50.6342 237.123 52.189 235.922 54.348C234.713 56.4981 234.526 59.4301 236.153 61.2958C237.443 62.7795 241.25 63.7391 243.188 64.13C244.54 64.4054 245.679 64.6275 246.657 64.7875C247.529 63.517 247.973 61.9444 247.813 60.4073C249.129 61.278 250.019 62.7706 250.161 64.3521C250.188 64.6809 239.231 104.955 239.231 104.955C240.36 105.621 241.757 106.243 243.366 106.812C246.097 102.698 248.338 97.8472 249.814 92.7741C250.152 95.9104 250.099 99.3132 249.69 102.769C249.476 104.608 249.156 106.456 248.747 108.304C261.768 111.112 281.352 110.188 289.872 98.2471C289.874 98.1977 289.875 98.1482 289.876 98.0987C289.937 95.8644 292.989 95.3091 293.806 97.3902C294.012 97.917 294.203 98.373 294.372 98.7357C296.854 89.8688 293.643 79.607 284.153 61.6956Z" fill="#2F2E41"/>
<path d="M107.166 161.999C110.247 165.649 115.706 166.113 119.36 163.036C119.714 162.737 120.044 162.411 120.345 162.061L161.465 175.071L167.863 164.594L118.912 149.498C115.072 146.668 109.661 147.483 106.828 151.32C104.457 154.53 104.597 158.945 107.166 161.999Z" fill="#FFB6B6"/>
<path d="M252.788 129.488C252.788 129.488 234.579 109.028 226.647 117.719C218.715 126.41 193.967 164.496 193.967 164.496L136.2 152.321L130.614 167.551L196.206 188.784C201.137 190.38 206.541 188.725 209.729 184.642L252.788 129.488Z" fill="url(#paint0_linear_2047_4392)"/>
<path d="M213.239 316H303.557L303.639 315.295L303.692 314.826L304.468 308.252L305.566 298.889L305.989 295.291C306.019 295.109 306.048 294.933 306.072 294.751C306.442 292.409 306.653 290.055 306.73 287.708C306.841 284.479 306.695 281.257 306.348 278.075V278.058C306.16 276.338 305.919 274.635 305.619 272.951C305.243 270.785 304.791 268.654 304.268 266.57C303.668 264.152 302.987 261.798 302.241 259.527C301.383 256.868 300.443 254.32 299.473 251.914C299.367 251.655 299.262 251.397 299.162 251.145L299.156 251.139C294.044 238.689 288.239 230.184 288.239 230.184H222.441C222.441 230.184 219.397 243.526 217.887 254.543C217.646 256.287 217.446 257.965 217.299 259.527C217.035 262.409 216.958 264.886 217.188 266.57C217.329 267.615 217.587 268.355 217.987 268.695C221.606 271.783 217.464 278.333 217.464 278.333C217.464 278.333 214.361 283.07 217.064 285.735C217.599 286.264 217.904 286.944 218.051 287.708C218.286 288.969 218.081 290.437 217.758 291.734C217.434 293.037 216.988 294.17 216.741 294.751C216.629 295.01 216.559 295.156 216.559 295.156L216.101 298.778L215.654 302.265L214.896 308.252L214.667 309.308L213.486 314.826L213.386 315.295L213.239 316Z" fill="#2F2E41"/>
<path d="M258.86 101.496L286.475 103.953L291.565 119.775L297.111 120.578C306.59 121.949 312.231 131.879 308.548 140.711L303.668 152.415C303.668 152.415 310.836 174.519 302.032 183.807L298.285 224.712L306.737 251.679L207.944 254.864L224.772 221.039L225.271 200.038C225.271 200.038 214.518 162.077 224.488 150.002L228.377 115.658L248.643 112.621L258.86 101.496Z" fill="url(#paint1_linear_2047_4392)"/>
<path d="M240.164 81.1968C237.318 68.9357 244.961 56.6916 257.235 53.8489C269.509 51.0062 281.765 58.6413 284.611 70.9024C287.457 83.1635 279.814 95.4075 267.54 98.2502C255.266 101.093 243.01 93.4579 240.164 81.1968Z" fill="#FFB6B6"/>
<path d="M296.605 63.4725C300.078 50.8237 272.067 39.9772 264.711 50.1632C263.689 48.7151 259.909 47.8355 258.174 48.2797C256.44 48.7239 254.981 49.8345 253.558 50.9096C251.602 52.4111 249.574 53.9659 248.373 56.1249C247.164 58.2749 246.977 61.2069 248.605 63.0727C249.894 64.5564 253.701 65.5159 255.64 65.9069C256.991 66.1823 258.13 66.4044 259.108 66.5643C259.98 65.2938 260.424 63.7212 260.264 62.1842C261.581 63.0549 262.47 64.5475 262.612 66.129C262.639 66.4577 251.682 106.732 251.682 106.732C252.811 107.398 254.208 108.02 255.817 108.589C258.548 104.475 260.789 99.6241 262.266 94.5509C262.603 97.6872 262.55 101.09 262.141 104.546C261.928 106.385 261.607 108.233 261.198 110.081C274.219 112.889 293.803 111.965 302.323 100.024C302.325 99.9745 302.326 99.9251 302.328 99.8756C302.389 97.6412 305.44 97.086 306.257 99.167C306.464 99.6938 306.654 100.15 306.824 100.513C309.305 91.6456 306.094 81.3839 296.605 63.4725Z" fill="#2F2E41"/>
<path d="M101.592 315.295H408.312L455.906 315.882L122.121 295.976C110.987 295.311 101.592 304.153 101.592 315.295Z" fill="#3F3D56"/>
<path d="M72.4345 73.0903H150.614C152.417 73.0903 153.884 71.6302 153.884 69.8358C153.884 68.0414 152.417 66.582 150.614 66.582H72.4345C70.6317 66.582 69.1654 68.0414 69.1654 69.8358C69.1654 71.6302 70.6317 73.0903 72.4345 73.0903Z" fill="url(#paint2_linear_2047_4392)"/>
<path d="M111.553 83.5854C111.846 82.866 112.855 82.8661 113.147 83.5856C115.185 88.6054 118.087 94.227 121.244 98.5231C121.749 99.211 121.052 100.13 120.249 99.8398L113.483 97.3944V139.237H111.218V97.3944L104.449 99.8401C103.646 100.13 102.949 99.2112 103.455 98.5234C106.611 94.2272 109.514 88.6054 111.553 83.5854Z" fill="#3F3D56"/>
<path d="M2.0158 97.0086H50.2156C51.3271 97.0086 52.2314 96.1084 52.2314 95.0021C52.2314 93.8958 51.3271 92.9961 50.2156 92.9961H2.0158C0.904305 92.9961 0.000350952 93.8958 0.000350952 95.0021C0.000350952 96.1084 0.904312 97.0086 2.0158 97.0086Z" fill="#F2F2F2"/>
<path d="M26.1339 103.479C26.3141 103.036 26.9362 103.036 27.1164 103.479C28.373 106.574 30.1622 110.04 32.1082 112.689C32.4198 113.113 31.9903 113.679 31.4951 113.5L27.3235 111.993V137.79H25.9271V111.993L21.754 113.501C21.2588 113.679 20.8293 113.113 21.1409 112.689C23.087 110.04 24.8763 106.574 26.1339 103.479Z" fill="#F2F2F2"/>
<path d="M26.1075 162.681C20.3231 162.681 15.634 157.997 15.634 152.219C15.634 146.44 20.3231 141.756 26.1075 141.756C31.8919 141.756 36.5811 146.44 36.5811 152.219C36.5811 157.997 31.8919 162.681 26.1075 162.681Z" fill="#F2F2F2"/>
<path d="M156.551 37.7234H204.751C205.862 37.7234 206.767 36.8233 206.767 35.717C206.767 34.6107 205.862 33.7109 204.751 33.7109H156.551C155.439 33.7109 154.536 34.6107 154.536 35.717C154.536 36.8233 155.439 37.7234 156.551 37.7234Z" fill="#F2F2F2"/>
<path d="M180.669 44.1944C180.849 43.7509 181.471 43.7509 181.652 44.1946C182.908 47.2894 184.697 50.7553 186.643 53.4039C186.955 53.828 186.525 54.3946 186.03 54.2157L181.859 52.7081V78.5049H180.462V52.708L176.289 54.2159C175.794 54.3948 175.364 53.8282 175.676 53.4041C177.622 50.7554 179.411 47.2894 180.669 44.1944Z" fill="#F2F2F2"/>
<path d="M180.643 103.396C174.858 103.396 170.169 98.7118 170.169 92.9334C170.169 87.155 174.858 82.4707 180.643 82.4707C186.427 82.4707 191.116 87.155 191.116 92.9334C191.116 98.7118 186.427 103.396 180.643 103.396Z" fill="#F2F2F2"/>
<path d="M302.072 295.666C299.6 291.579 300.913 286.265 305.004 283.796C305.4 283.557 305.815 283.35 306.244 283.177L307.112 240.098L319.099 237.408L317.694 288.567C319.144 293.109 316.634 297.966 312.087 299.415C308.283 300.627 304.142 299.077 302.072 295.666Z" fill="#FFB6B6"/>
<path d="M293.733 125.702C293.733 125.702 308.422 122.18 313.123 132.158C317.824 142.137 318.224 185.56 318.224 185.56L320.762 273.62L302.128 272.8L287.269 164.442L293.733 125.702Z" fill="url(#paint3_linear_2047_4392)"/>
<path d="M300.326 308.66C299.995 309.074 299.493 309.314 298.963 309.311H203.574C202.605 309.31 201.82 308.524 201.821 307.556C201.821 307.435 201.834 307.316 201.858 307.198L203.339 300.172C203.464 299.59 203.875 299.11 204.432 298.898C204.63 298.82 204.842 298.781 205.055 298.781H297.488C297.701 298.781 297.912 298.82 298.111 298.898C298.668 299.11 299.079 299.59 299.204 300.172L300.684 307.198C300.791 307.714 300.66 308.251 300.326 308.66Z" fill="#CCCCCC"/>
<path d="M336.845 151.373V261.29C336.842 264.207 334.476 266.571 331.556 266.573H168.501C165.582 266.571 163.215 264.207 163.213 261.29V151.373C163.22 148.459 165.585 146.099 168.501 146.096H331.556C334.473 146.099 336.838 148.459 336.845 151.373Z" fill="#E6E6E6"/>
<path d="M229.638 243.068C229.832 243.003 230.038 242.974 230.244 242.974H268.39C269.512 242.974 270.429 243.883 270.429 245.005V305.205H228.211V245.005C228.211 244.118 228.786 243.332 229.638 243.068ZM244.939 272.675C244.951 275.164 246.978 277.171 249.469 277.159C251.943 277.142 253.941 275.146 253.953 272.675V265.69C253.929 263.207 251.89 261.211 249.405 261.235C246.949 261.258 244.963 263.242 244.939 265.69V272.675Z" fill="#CCCCCC"/>
</g>
<defs>
<linearGradient id="paint0_linear_2047_4392" x1="191.701" y1="189.385" x2="191.701" y2="115.568" gradientUnits="userSpaceOnUse">
<stop stop-color="#22DCD9"/>
<stop offset="1" stop-color="#5456AB"/>
</linearGradient>
<linearGradient id="paint1_linear_2047_4392" x1="258.815" y1="254.864" x2="258.815" y2="101.496" gradientUnits="userSpaceOnUse">
<stop stop-color="#22DCD9"/>
<stop offset="1" stop-color="#5456AB"/>
</linearGradient>
<linearGradient id="paint2_linear_2047_4392" x1="69.1654" y1="69.8362" x2="153.884" y2="69.8362" gradientUnits="userSpaceOnUse">
<stop stop-color="#F73E94"/>
<stop offset="1" stop-color="#97238A"/>
</linearGradient>
<linearGradient id="paint3_linear_2047_4392" x1="304.016" y1="273.62" x2="304.016" y2="125.099" gradientUnits="userSpaceOnUse">
<stop stop-color="#22DCD9"/>
<stop offset="1" stop-color="#5456AB"/>
</linearGradient>
<clipPath id="clip0_2047_4392">
<rect width="400" height="316" fill="white" transform="matrix(-1 0 0 1 400 0)"/>
</clipPath>
</defs>
</svg>
