<svg width="439" height="365" viewBox="0 0 439 365" fill="none" xmlns="http://www.w3.org/2000/svg">
<g clip-path="url(#clip0_59_6317)">
<path d="M109.547 280.898H424.626C426.431 280.899 428.218 280.544 429.885 279.854C431.552 279.164 433.066 278.154 434.342 276.879C435.618 275.605 436.63 274.092 437.321 272.427C438.011 270.762 438.367 268.977 438.367 267.175V85.1999C438.369 83.9838 438.207 82.7728 437.885 81.5999C437.095 78.6927 435.368 76.1262 432.972 74.2966C430.575 72.467 427.643 71.4761 424.626 71.4768H301.561C298.69 76.3067 296.92 81.7096 296.379 87.3005C294.852 103.554 304.183 118.581 312.533 132.62C320.882 146.66 328.845 162.983 324.423 178.706C321.433 189.31 313.331 196.984 303.277 201.584C293.617 205.853 282.991 207.47 272.497 206.266C266.194 205.471 259.985 204.055 253.961 202.039C246.062 199.477 238.346 196.155 230.643 192.796C230.637 192.796 230.637 192.796 230.63 192.79C230.497 192.733 230.358 192.669 230.225 192.612C224.264 190.012 218.309 187.405 212.266 185.109C205.185 182.343 197.835 180.32 190.335 179.073C178.938 177.289 167.447 177.934 157.28 183.097C140.708 191.505 131.827 209.676 124.877 226.898C117.859 244.31 111.568 262.304 109.547 280.898Z" fill="url(#paint0_linear_59_6317)"/>
<path d="M0.633476 211.283V267.175C0.633379 268.977 0.988703 270.762 1.67917 272.427C2.36965 274.092 3.38174 275.605 4.65765 276.879C5.93356 278.153 7.44829 279.164 9.11536 279.854C10.7824 280.543 12.5692 280.898 14.3736 280.898H66.7495C67.6554 272.464 66.8952 264.062 63.5695 256.223C56.3225 239.128 38.7878 229.017 22.0704 220.9C15.0451 217.49 7.89946 214.2 0.633476 211.283Z" fill="url(#paint1_linear_59_6317)"/>
<path d="M55.5224 267.991C55.5224 271.631 56.97 275.122 59.5468 277.695C62.1236 280.269 65.6184 281.715 69.2625 281.715H121.638C122.544 273.281 121.784 264.879 118.458 257.04C116.755 253.02 112.775 248.568 107.589 244.071C87.2425 226.426 55.5224 241.079 55.5224 267.991Z" fill="url(#paint2_linear_59_6317)"/>
<path d="M0 267.175V85.1998C0.00431905 81.3937 1.52006 77.7448 4.21469 75.0535C6.90932 72.3622 10.5628 70.8483 14.3736 70.844H424.626C428.437 70.8483 432.091 72.3622 434.785 75.0535C437.48 77.7448 438.996 81.3937 439 85.1998V267.175C438.996 270.981 437.48 274.63 434.785 277.321C432.091 280.013 428.437 281.527 424.626 281.531H14.3736C10.5627 281.527 6.90923 280.013 4.21459 277.321C1.51996 274.63 0.00425364 270.981 0 267.175ZM14.3736 72.1094C10.8987 72.1133 7.56721 73.4937 5.11008 75.9478C2.65296 78.4018 1.27084 81.7292 1.26696 85.1998V267.175C1.27077 270.646 2.65285 273.973 5.10998 276.427C7.56712 278.881 10.8986 280.262 14.3736 280.266H424.626C428.101 280.262 431.433 278.881 433.89 276.427C436.347 273.973 437.729 270.646 437.733 267.175V85.1998C437.729 81.7292 436.347 78.4018 433.89 75.9478C431.433 73.4937 428.101 72.1133 424.626 72.1094H14.3736Z" fill="#3F3D56"/>
<path d="M135.761 280.449H154.391C157.578 269.734 162.177 258.375 166.377 248.024C174.434 228.178 184.728 207.237 203.942 197.547C212.145 193.409 221.09 191.793 230.225 191.881C242.844 192 255.817 195.383 267.695 199.867C272.554 201.697 277.368 203.709 282.164 205.766C300.23 213.519 318.101 221.965 337.53 224.248C362.115 227.134 391.02 216.148 397.735 192.484C402.86 174.367 393.63 155.559 383.951 139.378C374.271 123.198 363.451 105.886 365.219 87.1525C365.225 87.0896 365.232 87.0204 365.244 86.9575C365.909 80.2288 369.932 75.3932 375.551 72.293H351.086C350.763 89.7686 360.886 105.194 369.995 120.425C379.675 136.599 388.905 155.414 383.78 173.531C377.065 197.188 321.463 169.457 296.877 166.564C289.934 165.753 300.963 168.64 294.343 166.564C283.961 163.313 282.81 193.132 272.706 188.755C266.415 186.026 260.119 183.316 253.739 180.907C251.098 179.908 248.399 178.971 245.669 178.103C245.663 178.103 245.663 178.103 245.656 178.096C227.323 172.298 207.274 170.041 190.335 178.423C190.221 178.48 190.1 178.537 189.986 178.593C170.773 188.277 160.479 209.218 152.421 229.065C145.763 245.471 139.042 263.143 135.761 280.449Z" fill="url(#paint3_linear_59_6317)"/>
<path d="M135.963 150.018H14.7841C13.7912 150.018 12.8389 150.412 12.1368 151.113C11.4347 151.814 11.0403 152.766 11.0403 153.757C11.0403 154.749 11.4347 155.7 12.1368 156.401C12.8389 157.103 13.7912 157.496 14.7841 157.496H135.963C136.956 157.496 137.908 157.103 138.61 156.401C139.312 155.7 139.707 154.749 139.707 153.757C139.707 152.766 139.312 151.814 138.61 151.113C137.908 150.412 136.956 150.018 135.963 150.018Z" fill="#3F3D56"/>
<path d="M52.4402 129.052H14.8684C13.8754 129.052 12.9232 129.446 12.221 130.147C11.5189 130.848 11.1245 131.799 11.1245 132.791C11.1245 133.783 11.5189 134.734 12.221 135.435C12.9232 136.136 13.8754 136.53 14.8684 136.53H52.4402C53.4331 136.53 54.3854 136.136 55.0875 135.435C55.7896 134.734 56.1841 133.783 56.1841 132.791C56.1841 131.799 55.7896 130.848 55.0875 130.147C54.3854 129.446 53.4331 129.052 52.4402 129.052Z" fill="#3F3D56"/>
<path d="M197.327 347.934L189.647 347.87L186.247 317.594L197.582 317.69L197.327 347.934Z" fill="#FFB6B6"/>
<path d="M172.727 360.131C172.721 361.041 173.075 361.915 173.713 362.564C174.352 363.212 175.221 363.582 176.132 363.591L191.401 363.718L194.074 358.306L195.055 363.746L200.817 363.798L199.362 344.398L197.358 344.265L189.182 343.702L186.544 343.526L186.498 349.015L174.232 357.324C173.773 357.635 173.396 358.053 173.133 358.542C172.871 359.031 172.732 359.577 172.727 360.131Z" fill="#2F2E41"/>
<path d="M275.245 347.934L267.564 347.87L264.165 317.594L275.499 317.69L275.245 347.934Z" fill="#FFB6B6"/>
<path d="M250.645 360.131C250.638 361.041 250.993 361.915 251.631 362.564C252.269 363.212 253.139 363.582 254.049 363.591L269.318 363.718L271.991 358.306L272.973 363.746L278.735 363.798L277.28 344.398L275.275 344.265L267.099 343.702L264.462 343.526L264.415 349.015L252.15 357.324C251.69 357.635 251.313 358.053 251.051 358.542C250.789 359.031 250.65 359.577 250.645 360.131Z" fill="#2F2E41"/>
<path d="M187.853 105.483L222.417 78.9155C223.878 77.7856 224.836 76.1273 225.083 74.2983C225.331 72.4694 224.849 70.6166 223.741 69.1398C223.167 68.3757 222.444 67.7363 221.616 67.2604C220.787 66.7846 219.87 66.4823 218.92 66.372C217.971 66.2617 217.009 66.3457 216.093 66.6189C215.177 66.8921 214.326 67.3487 213.593 67.9609L178.536 96.6575L156.498 113.198C155.408 112.564 154.148 112.282 152.891 112.388C151.635 112.495 150.441 112.985 149.473 113.793C148.504 114.6 147.809 115.686 147.48 116.902C147.151 118.119 147.205 119.407 147.634 120.591C148.064 121.776 148.848 122.8 149.881 123.524C150.913 124.248 152.144 124.637 153.405 124.638C154.666 124.639 155.898 124.252 156.931 123.53C157.965 122.808 158.751 121.786 159.183 120.602L187.853 105.483Z" fill="#FFB6B6"/>
<path d="M216.024 111.59L214.501 145.575L266.247 151.829C262.175 138.173 255.498 119.206 258.558 109.702L216.024 111.59Z" fill="#A0616A"/>
<path d="M245.438 49.2871H229.499L222.653 60.9862L219.392 60.8064C213.035 63.2517 210.501 65.7824 206.993 72.5251L194.664 82.8652L204.166 94.2537C210.729 93.1797 213.096 88.0914 211.012 78.7464C211.012 78.7464 203.824 91.2568 214.178 97.4115C214.178 97.4115 212.331 109.008 214.178 108.883C216.024 108.758 220.278 106.398 216.024 108.758C211.771 111.118 212.499 111.22 212.638 111.985C214.935 124.623 216.836 134.113 216.836 134.113L261.813 138.542C261.813 138.542 259.221 111.375 259.362 109.831C259.503 108.286 258.558 112.062 259.503 108.286C260.448 104.51 261.866 105.926 260.448 104.51C259.03 103.094 270.194 101.875 265.837 95.07L280.407 91.2738L272.263 71.9416C272.263 65.4142 261.766 60.1227 255.231 60.1227H254.394L245.438 49.2871Z" fill="#3F3D56"/>
<path d="M262.401 133.409C244.805 139.454 228.963 138.127 215.569 126.521C215.569 126.521 211.799 140.44 207.983 138.542C204.166 136.644 206.052 141.955 205.004 143.903C203.891 145.97 205.183 149.457 201.507 150.643C197.831 151.829 199.212 155.313 198.022 157.878C189.695 175.824 180.184 201.227 173.759 233.446C167.157 266.554 183.261 322.023 183.261 322.023L198.465 320.758L202.266 248.631L219.65 218.144C219.65 218.144 228.19 213.177 222.83 210.658C217.469 208.138 221.06 205.016 224.966 205.628C228.872 206.24 233.306 185.994 233.306 185.994C227.737 199.971 262.446 323.289 262.446 323.289L277.016 322.023L268.781 149.931L262.401 133.409Z" fill="#2F2E41"/>
<path d="M254.898 19.9162C256.626 24.2142 261.501 32.6666 262.161 37.2775L261.864 36.9856C261.297 37.9528 260.653 38.8728 259.938 39.7364C258.656 38.3918 257.107 37.3286 255.392 36.6144C256.329 38.5347 256.871 40.6228 256.988 42.7559C253.814 45.5159 245.71 43.8507 241.66 45.3216C235.144 47.6829 228.226 48.5235 221.395 49.2216C218.97 49.4709 216.256 49.6222 214.557 48.1913C212.858 46.7603 213.87 44.1104 212.956 42.1062C206.444 27.8297 212.453 22.6789 217.559 16.2054C218.682 14.7809 218.678 12.6549 220.045 11.2957C221.942 9.4117 224.849 8.8322 227.53 8.368C226.834 8.40464 226.14 8.26163 225.515 7.95272C224.89 7.64381 224.355 7.17941 223.961 6.60422C223.616 6.02472 223.438 5.36131 223.447 4.68717C223.456 4.01303 223.65 3.35436 224.01 2.78379C224.969 1.19626 226.961 0.273087 228.883 0.0424643C230.777 -0.0859647 232.679 0.0773431 234.523 0.526658C235.717 0.683559 236.874 1.05279 237.938 1.61689C238.44 1.88443 238.848 2.29867 239.108 2.80423C239.368 3.30979 239.468 3.88258 239.393 4.44602C239.233 4.96633 238.957 5.44381 238.586 5.84285C238.216 6.2419 237.76 6.55221 237.252 6.75064C236.478 7.0774 235.664 7.29993 234.832 7.41239C238.656 6.91675 242.541 7.59584 245.969 9.35931C250.265 11.6483 253.164 15.6204 254.898 19.9162Z" fill="#2F2E41"/>
<path d="M231.634 44.0126C240.116 44.0126 246.992 37.1451 246.992 28.6736C246.992 20.202 240.116 13.3345 231.634 13.3345C223.152 13.3345 216.276 20.202 216.276 28.6736C216.276 37.1451 223.152 44.0126 231.634 44.0126Z" fill="#FFB6B6"/>
<path d="M246.412 20.449C245.522 23.137 242.977 24.0031 240.625 24.5433C239.884 24.716 239.137 24.8768 238.384 25.02C238.107 24.6731 237.811 24.333 237.502 24.0116C236.22 22.667 234.672 21.6038 232.956 20.8897C233.698 22.4065 234.191 24.0325 234.417 25.7056C232.995 25.9117 231.565 26.0801 230.128 26.2108C228.911 26.4694 227.642 26.2513 226.582 25.6018C225.522 24.9522 224.752 23.9208 224.432 22.7206C223.123 24.8581 221.576 26.8712 219.46 27.7203C218.249 28.1546 216.932 28.1903 215.7 27.8222C214.468 27.4541 213.386 26.7016 212.614 25.6748C211.346 24.1306 210.641 22.0559 210.133 20.0536C209.532 17.6733 209.199 14.9313 210.378 13.4211C211.323 12.1988 212.952 12.1769 214.456 12.2853C217.774 12.5396 221.058 13.1341 224.254 14.0596L224.525 14.6673C223.976 11.371 225.167 8.19953 227.372 7.07163C228.859 6.31751 230.648 6.44396 232.387 6.59695C234.62 6.69646 236.826 7.12262 238.935 7.86182C241.355 8.7914 243.428 10.445 244.871 12.5963C246.414 14.9363 247.181 18.1277 246.412 20.449Z" fill="#2F2E41"/>
<path d="M224.518 6.11244C224.67 6.06776 224.277 6.12515 224.413 6.12879C224.346 6.12488 224.278 6.11548 224.212 6.10069C224.201 6.09844 224.048 6.04971 224.15 6.0855C223.922 6.01738 223.718 5.88476 223.564 5.70365C223.203 5.25808 222.92 4.75499 222.727 4.2155C222.483 3.50257 222.09 2.84925 221.575 2.29843C221.429 2.15187 221.251 2.04178 221.054 1.97711C220.857 1.91243 220.648 1.89499 220.443 1.92619C220.239 1.9574 220.044 2.03638 219.876 2.15671C219.708 2.27705 219.57 2.43534 219.474 2.61876C219.175 3.27958 219.448 4.0938 219.662 4.74284C219.882 5.4172 220.209 6.05167 220.632 6.6218C221.34 7.55412 222.304 8.26063 223.407 8.65522C224.684 9.11831 226.076 9.15804 227.377 8.76853C227.549 8.69731 227.696 8.5777 227.801 8.42427C227.906 8.27084 227.964 8.09022 227.968 7.9044C227.972 7.71859 227.922 7.5356 227.824 7.37774C227.726 7.21988 227.584 7.09396 227.415 7.01532L225.245 6.12826C225.131 6.07807 225.008 6.05083 224.883 6.04811C224.758 6.0454 224.634 6.06727 224.518 6.11244C224.402 6.15761 224.296 6.2252 224.205 6.31138C224.115 6.39757 224.043 6.50065 223.993 6.61473C223.942 6.7288 223.915 6.85165 223.913 6.97625C223.91 7.10086 223.932 7.22477 223.977 7.34093C224.022 7.45709 224.09 7.56321 224.176 7.65324C224.262 7.74327 224.366 7.81545 224.48 7.86564L226.65 8.75267L226.688 6.99948C226.417 7.07753 226.139 7.12511 225.857 7.14132C225.557 7.17135 225.254 7.15859 224.958 7.10343C224.674 7.06624 224.395 6.99826 224.125 6.90069C223.953 6.83778 223.784 6.76617 223.618 6.68613C223.558 6.65702 223.499 6.62681 223.44 6.59548C223.444 6.59774 223.192 6.45091 223.303 6.5199C223.022 6.34079 222.759 6.13594 222.516 5.90801C222.43 5.82719 222.352 5.73951 222.28 5.64585C222.157 5.49416 222.042 5.33541 221.937 5.17039C221.723 4.82093 221.554 4.44623 221.433 4.05495C221.378 3.8905 221.331 3.7233 221.293 3.55402C221.283 3.46109 221.266 3.36899 221.243 3.27836C221.163 3.06241 221.258 3.40446 221.166 3.49803L220.766 3.7924C220.691 3.81474 220.611 3.81993 220.534 3.80755C220.457 3.79518 220.383 3.76556 220.319 3.72091C220.271 3.65431 220.282 3.66535 220.35 3.75405C220.429 3.85843 220.502 3.96772 220.567 4.08128C220.71 4.3486 220.84 4.62302 220.955 4.90348C221.194 5.49995 221.496 6.06926 221.856 6.60171C222.208 7.14027 222.722 7.55392 223.324 7.78373C223.926 8.01353 224.585 8.04774 225.207 7.88149C225.44 7.78862 225.628 7.60777 225.729 7.37794C225.831 7.14812 225.837 6.88775 225.748 6.65301C225.653 6.42168 225.471 6.23619 225.242 6.13542C225.013 6.03465 224.753 6.02642 224.518 6.11244Z" fill="#2F2E41"/>
<path d="M200.565 172.767C225.644 172.767 245.976 152.461 245.976 127.413C245.976 102.364 225.644 82.0581 200.565 82.0581C175.485 82.0581 155.154 102.364 155.154 127.413C155.154 152.461 175.485 172.767 200.565 172.767Z" fill="white"/>
<path d="M200.565 173.4C191.458 173.4 182.556 170.703 174.984 165.65C167.412 160.597 161.51 153.415 158.025 145.012C154.54 136.609 153.628 127.362 155.405 118.441C157.182 109.521 161.567 101.327 168.006 94.8951C174.446 88.4636 182.65 84.0837 191.582 82.3092C200.513 80.5348 209.771 81.4454 218.185 84.926C226.598 88.4067 233.79 94.301 238.849 101.864C243.909 109.426 246.609 118.317 246.609 127.413C246.595 139.605 241.74 151.294 233.108 159.916C224.476 168.537 212.772 173.387 200.565 173.4ZM200.565 82.691C191.709 82.691 183.051 85.3139 175.688 90.228C168.324 95.1421 162.585 102.127 159.196 110.299C155.807 118.471 154.92 127.463 156.648 136.138C158.375 144.813 162.64 152.782 168.902 159.036C175.165 165.291 183.143 169.55 191.829 171.276C200.515 173.001 209.519 172.116 217.701 168.731C225.883 165.346 232.876 159.613 237.796 152.259C242.716 144.904 245.342 136.258 245.342 127.413C245.329 115.556 240.607 104.188 232.212 95.8043C223.818 87.4203 212.436 82.7043 200.565 82.691Z" fill="#3F3D56"/>
<path d="M194.37 151.018C193.586 151.018 192.812 150.835 192.111 150.485C191.409 150.135 190.799 149.626 190.329 148.999L177.94 132.501C177.542 131.971 177.253 131.368 177.088 130.726C176.924 130.084 176.887 129.416 176.981 128.761C177.075 128.105 177.297 127.474 177.635 126.904C177.973 126.334 178.42 125.836 178.951 125.438C179.481 125.041 180.085 124.751 180.728 124.587C181.371 124.423 182.039 124.386 182.696 124.48C183.353 124.574 183.984 124.796 184.555 125.133C185.126 125.471 185.624 125.917 186.022 126.447L194.128 137.24L214.945 106.053C215.313 105.502 215.786 105.029 216.337 104.66C216.888 104.291 217.507 104.035 218.157 103.905C218.808 103.775 219.477 103.774 220.128 103.903C220.779 104.031 221.398 104.287 221.95 104.654C222.502 105.022 222.976 105.494 223.345 106.045C223.714 106.595 223.971 107.213 224.101 107.863C224.231 108.512 224.232 109.181 224.103 109.831C223.974 110.481 223.719 111.099 223.351 111.651L198.573 148.771C198.125 149.442 197.522 149.997 196.815 150.387C196.108 150.778 195.318 150.993 194.51 151.016C194.463 151.017 194.417 151.018 194.37 151.018Z" fill="url(#paint4_linear_59_6317)"/>
<path d="M150.545 364.247C150.544 364.346 150.564 364.444 150.601 364.536C150.639 364.627 150.695 364.71 150.765 364.78C150.835 364.85 150.918 364.906 151.01 364.943C151.101 364.981 151.199 365 151.298 365H311.752C311.952 365 312.144 364.921 312.285 364.779C312.426 364.638 312.506 364.447 312.506 364.247C312.506 364.047 312.426 363.856 312.285 363.715C312.144 363.573 311.952 363.494 311.752 363.494H151.298C151.199 363.494 151.101 363.513 151.01 363.551C150.918 363.589 150.835 363.644 150.765 363.714C150.695 363.784 150.639 363.867 150.601 363.959C150.564 364.05 150.544 364.148 150.545 364.247Z" fill="#CCCCCC"/>
<path d="M292.61 128.964L277.766 88.0038C277.132 86.2703 275.841 84.8553 274.171 84.0641C272.502 83.2729 270.588 83.1691 268.843 83.7749C267.94 84.0883 267.11 84.5821 266.404 85.2261C265.699 85.8702 265.132 86.651 264.738 87.5211C264.345 88.3911 264.132 89.3321 264.115 90.2867C264.097 91.2412 264.274 92.1894 264.636 93.0734L281.361 135.149L290.445 161.144C289.51 161.989 288.858 163.101 288.578 164.33C288.297 165.558 288.403 166.843 288.879 168.01C289.355 169.176 290.18 170.168 291.24 170.851C292.3 171.533 293.545 171.873 294.806 171.824C296.066 171.775 297.281 171.34 298.285 170.577C299.29 169.815 300.035 168.762 300.419 167.562C300.803 166.362 300.808 165.073 300.433 163.87C300.058 162.667 299.322 161.608 298.324 160.838L292.61 128.964Z" fill="#FFB6B6"/>
<path d="M270.271 69.7622L282.307 91.2738C282.307 91.2738 254.569 100.759 254.502 99.18C254.434 97.6007 255.88 75.6856 255.88 75.6856L270.271 69.7622Z" fill="#3F3D56"/>
</g>
<defs>
<linearGradient id="paint0_linear_59_6317" x1="273.957" y1="71.4768" x2="273.957" y2="280.898" gradientUnits="userSpaceOnUse">
<stop stop-color="#E6E6E6"/>
<stop offset="1" stop-color="#CACDCD"/>
</linearGradient>
<linearGradient id="paint1_linear_59_6317" x1="33.868" y1="211.283" x2="33.868" y2="280.898" gradientUnits="userSpaceOnUse">
<stop stop-color="#E6E6E6"/>
<stop offset="1" stop-color="#CACDCD"/>
</linearGradient>
<linearGradient id="paint2_linear_59_6317" x1="88.757" y1="236.37" x2="88.757" y2="281.715" gradientUnits="userSpaceOnUse">
<stop stop-color="#E6E6E6"/>
<stop offset="1" stop-color="#CACDCD"/>
</linearGradient>
<linearGradient id="paint3_linear_59_6317" x1="267.48" y1="72.293" x2="267.48" y2="280.449" gradientUnits="userSpaceOnUse">
<stop stop-color="#22DCD9"/>
<stop offset="1" stop-color="#5456AB"/>
</linearGradient>
<linearGradient id="paint4_linear_59_6317" x1="200.565" y1="103.807" x2="200.565" y2="151.018" gradientUnits="userSpaceOnUse">
<stop stop-color="#22DCD9"/>
<stop offset="0.333333" stop-color="#5456AB"/>
<stop offset="0.666667" stop-color="#97238A"/>
<stop offset="1" stop-color="#F73E94"/>
</linearGradient>
<clipPath id="clip0_59_6317">
<rect width="439" height="365" fill="white"/>
</clipPath>
</defs>
</svg>
