<svg width="173" height="160" viewBox="0 0 173 160" fill="none" xmlns="http://www.w3.org/2000/svg">
<path d="M0.0022998 158.289C-0.00885541 158.392 0.0208624 158.496 0.0850977 158.577C0.149333 158.659 0.242986 158.712 0.346028 158.726H171.716C171.814 158.702 171.901 158.646 171.964 158.567C172.026 158.488 172.06 158.39 172.06 158.289C172.06 158.188 172.026 158.09 171.964 158.011C171.901 157.931 171.814 157.875 171.716 157.852H0.346028C0.242986 157.865 0.149333 157.918 0.0850977 158C0.0208624 158.082 -0.00885541 158.185 0.0022998 158.289Z" fill="#CCCCCC"/>
<path d="M42.4719 71.3369C42.4719 71.3369 44.733 81.0257 42.7941 81.0257C40.8553 81.0257 36.98 76.5038 36.98 76.5038V73.9198L42.4719 71.3369Z" fill="#ED9DA0"/>
<path d="M37.7876 62.7773L43.6013 71.8217H39.4025L37.7876 62.7773Z" fill="#D6D6E3"/>
<path d="M41.3406 141.589H33.5886V148.049H41.3406V141.589Z" fill="#ED9DA0"/>
<path d="M16.4695 140.62L14.8546 148.049L6.77979 146.11L8.71755 139.65L16.4695 140.62Z" fill="#ED9DA0"/>
<path d="M40.6947 73.7591C40.6947 73.7591 43.2796 75.0511 43.6018 80.8651C43.9241 86.679 42.6329 101.86 42.6329 101.86C42.6329 101.86 43.9249 108.642 42.6329 114.78C41.341 120.918 43.9249 143.204 42.3107 143.204C40.6965 143.204 32.2977 144.172 31.9748 143.204C31.6519 142.235 31.3288 127.7 31.3288 127.7C31.3288 127.7 28.744 120.271 31.3288 115.748C31.3288 115.748 25.5146 120.593 25.5146 121.885C25.5146 123.177 19.3778 143.204 16.4712 143.526C13.5645 143.849 5.48925 143.204 7.10456 140.297C8.71987 137.389 12.5954 124.148 12.5954 124.148C12.5954 124.148 15.5025 114.459 20.6702 110.259L18.0854 89.587C18.0854 89.587 12.5945 75.698 15.8243 73.76C19.054 71.822 40.6947 73.7591 40.6947 73.7591Z" fill="#2F2E41"/>
<path d="M64.6326 83.0065L54.4435 68.4684C54.0976 67.9759 53.5703 67.6408 52.9776 67.5365C52.3848 67.4323 51.7749 67.5674 51.2816 67.9123L34.2118 79.8757C33.7194 80.2217 33.3842 80.7489 33.28 81.3417C33.1757 81.9345 33.3108 82.5444 33.6557 83.0377L43.8444 97.5752C44.1904 98.0677 44.7176 98.4028 45.3104 98.5071C45.9032 98.6113 46.5131 98.4762 47.0064 98.1313L64.0761 86.1679C64.5685 85.822 64.9036 85.2949 65.0079 84.7022C65.1123 84.1096 64.9773 83.4997 64.6326 83.0065Z" fill="#E6E6E6"/>
<path d="M64.0966 83.3817L53.908 68.8443C53.6616 68.4936 53.2862 68.255 52.8641 68.1808C52.442 68.1065 52.0077 68.2028 51.6564 68.4483L34.5867 80.4117C34.236 80.6581 33.9974 81.0335 33.9231 81.4556C33.8489 81.8778 33.9451 82.3121 34.1907 82.6633L44.3792 97.2007C44.6256 97.5514 45.0011 97.79 45.4232 97.8642C45.8453 97.9385 46.2796 97.8423 46.6308 97.5967L63.7006 85.6333C64.0513 85.3869 64.2899 85.0115 64.3641 84.5894C64.4384 84.1673 64.3422 83.7329 64.0966 83.3817Z" fill="white"/>
<path d="M53.1794 87.7642L48.0272 80.413C47.9697 80.331 47.9472 80.2294 47.9645 80.1307C47.9819 80.032 48.0377 79.9443 48.1198 79.8868C48.2019 79.8293 48.3034 79.8067 48.4021 79.8241C48.5008 79.8414 48.5885 79.8973 48.646 79.9793L53.7984 87.3309C53.8559 87.4129 53.8785 87.5145 53.8611 87.6132C53.8438 87.7118 53.7879 87.7996 53.7059 87.8571C53.6238 87.9146 53.5223 87.9372 53.4236 87.9198C53.3249 87.9025 53.2371 87.8466 53.1796 87.7646L53.1794 87.7642Z" fill="#E6E6E6"/>
<path d="M53.0293 89.7732L46.9818 81.1445C46.9243 81.0624 46.9018 80.9609 46.9191 80.8622C46.9365 80.7635 46.9923 80.6757 47.0744 80.6182C47.1564 80.5607 47.258 80.5381 47.3567 80.5555C47.4554 80.5729 47.5431 80.6287 47.6006 80.7108L53.6481 89.3395C53.7056 89.4216 53.7282 89.5231 53.7108 89.6218C53.6935 89.7205 53.6376 89.8082 53.5556 89.8657C53.4735 89.9233 53.372 89.9458 53.2733 89.9285C53.1746 89.9111 53.0868 89.8553 53.0293 89.7732Z" fill="#E6E6E6"/>
<path d="M48.496 91.0439L43.3436 83.6923C43.2861 83.6103 43.2636 83.5087 43.2809 83.41C43.2983 83.3113 43.3541 83.2236 43.4362 83.1661C43.5183 83.1086 43.6198 83.086 43.7185 83.1034C43.8172 83.1207 43.9049 83.1766 43.9625 83.2586L49.1148 90.6102C49.1723 90.6922 49.1949 90.7938 49.1775 90.8925C49.1602 90.9911 49.1043 91.0789 49.0223 91.1364C48.9402 91.1939 48.8387 91.2165 48.74 91.1991C48.6413 91.1818 48.5535 91.1259 48.496 91.0439Z" fill="#E6E6E6"/>
<path d="M48.3457 93.0535L42.2982 84.4247C42.2407 84.3427 42.2182 84.2411 42.2355 84.1424C42.2529 84.0437 42.3087 83.956 42.3908 83.8985C42.4729 83.841 42.5744 83.8184 42.6731 83.8358C42.7718 83.8531 42.8595 83.909 42.917 83.991L48.9645 92.6198C49.022 92.7018 49.0446 92.8034 49.0272 92.9021C49.0099 93.0008 48.954 93.0885 48.872 93.146C48.7899 93.2035 48.6884 93.2261 48.5897 93.2087C48.491 93.1914 48.4032 93.1355 48.3457 93.0535Z" fill="#E6E6E6"/>
<path d="M45.356 79.8301L43.5327 77.2286C43.5051 77.1892 43.4943 77.1405 43.5026 77.0931C43.5109 77.0457 43.5378 77.0036 43.5771 76.976L45.8928 75.3531C45.9321 75.3255 45.9809 75.3147 46.0282 75.323C46.0756 75.3313 46.1177 75.3581 46.1453 75.3975L47.9686 77.9991C47.9962 78.0384 48.0071 78.0872 47.9987 78.1345C47.9904 78.1819 47.9636 78.224 47.9242 78.2516L45.6086 79.8745C45.5692 79.9021 45.5205 79.913 45.4731 79.9046C45.4257 79.8963 45.3836 79.8695 45.356 79.8301Z" fill="#E6E6E6"/>
<path d="M40.6727 83.1089L38.8494 80.5074C38.8218 80.468 38.811 80.4193 38.8193 80.3719C38.8276 80.3245 38.8544 80.2824 38.8938 80.2548L41.2101 78.6314C41.2495 78.6038 41.2983 78.593 41.3456 78.6013C41.393 78.6097 41.4351 78.6365 41.4627 78.6758L43.286 81.2774C43.3136 81.3168 43.3244 81.3655 43.3161 81.4129C43.3078 81.4602 43.281 81.5023 43.2416 81.53L40.926 83.1529C40.9065 83.1667 40.8844 83.1765 40.8611 83.1817C40.8378 83.187 40.8137 83.1876 40.7902 83.1835C40.7667 83.1795 40.7442 83.1708 40.724 83.158C40.7038 83.1452 40.6864 83.1285 40.6727 83.1089Z" fill="#E6E6E6"/>
<path d="M58.3973 84.1218L54.5995 78.7031C54.542 78.621 54.5194 78.5195 54.5368 78.4208C54.5542 78.3221 54.61 78.2343 54.6921 78.1768C54.7741 78.1193 54.8757 78.0967 54.9744 78.1141C55.073 78.1315 55.1608 78.1873 55.2183 78.2694L59.0163 83.6885C59.0738 83.7706 59.0964 83.8721 59.079 83.9708C59.0617 84.0695 59.0058 84.1572 58.9238 84.2147C58.8417 84.2723 58.7402 84.2948 58.6415 84.2775C58.5428 84.2601 58.455 84.2042 58.3975 84.1222L58.3973 84.1218Z" fill="url(#paint0_linear_2644_4079)"/>
<path d="M58.2475 86.1295L53.5546 79.4335C53.4971 79.3515 53.4745 79.2499 53.4919 79.1512C53.5092 79.0525 53.5651 78.9648 53.6471 78.9073C53.7292 78.8498 53.8307 78.8272 53.9294 78.8446C54.0281 78.8619 54.1159 78.9178 54.1734 78.9998L58.8669 85.6967C58.9244 85.7787 58.947 85.8803 58.9296 85.979C58.9123 86.0777 58.8564 86.1654 58.7744 86.2229C58.6923 86.2804 58.5907 86.303 58.4921 86.2856C58.3934 86.2683 58.3056 86.2124 58.2481 86.1304L58.2475 86.1295Z" fill="url(#paint1_linear_2644_4079)"/>
<path d="M51.4504 79.1224L47.9486 74.1259C47.921 74.0865 47.9102 74.0377 47.9185 73.9904C47.9269 73.943 47.9537 73.9009 47.993 73.8733L51.8913 71.1412C51.9307 71.1136 51.9794 71.1028 52.0268 71.1111C52.0742 71.1194 52.1163 71.1462 52.1439 71.1856L55.6459 76.1825C55.6735 76.2219 55.6844 76.2706 55.676 76.318C55.6677 76.3653 55.6409 76.4074 55.6015 76.435L51.7033 79.1672C51.6639 79.1948 51.6151 79.2056 51.5678 79.1973C51.5204 79.1889 51.4783 79.1621 51.4507 79.1227L51.4504 79.1224Z" fill="url(#paint2_linear_2644_4079)"/>
<path d="M35.2034 17.8803C35.2034 17.8803 31.9735 28.5394 32.9424 29.832C33.9112 31.1246 22.6064 22.7261 22.6064 22.7261C22.6064 22.7261 26.8053 19.819 25.1913 15.6201L35.2034 17.8803Z" fill="#ED9DA0"/>
<path d="M31.0046 21.1103C35.6427 21.1103 39.4025 17.3504 39.4025 12.7124C39.4025 8.07433 35.6427 4.31445 31.0046 4.31445C26.3666 4.31445 22.6067 8.07433 22.6067 12.7124C22.6067 17.3504 26.3666 21.1103 31.0046 21.1103Z" fill="#ED9DA0"/>
<path d="M21.6376 21.7568C21.6376 21.7568 25.5136 23.0488 27.4518 25.3099C29.39 27.571 33.9117 27.8947 33.9117 27.8947C33.9117 27.8947 37.9091 30.1462 39.4026 34.0318C40.9945 38.1733 40.0696 44.0038 39.4026 45.3368C38.1108 47.9216 38.1108 54.3812 38.1108 54.3812L39.7257 69.239C39.7257 69.239 45.5398 74.7299 41.0177 75.3761C36.4955 76.0223 28.4209 75.0538 23.5756 75.3761C18.7303 75.6983 13.2397 76.345 14.8548 73.115C16.4699 69.885 18.4079 67.6241 16.4697 61.1633C14.9532 56.1084 15.0187 37.2078 15.1191 29.2271C15.1327 28.1307 15.4267 27.056 15.9732 26.1053C16.5196 25.1546 17.3002 24.3595 18.2407 23.7958L21.6376 21.7568Z" fill="#D6D6E3"/>
<path d="M34.2342 71.1748C34.2342 71.1748 35.7037 74.4104 35.8491 76.3428C36.9795 91.3622 28.7432 76.3428 28.7432 76.3428V73.7577L34.2342 71.1748Z" fill="#ED9DA0"/>
<path d="M12.1758 146.003C12.1758 146.003 16.8412 142.582 16.8412 144.448C16.8412 146.314 22.1286 153.779 22.1286 153.779C22.1286 153.779 30.8376 160 23.6838 160C16.5299 160 13.4194 158.756 13.4194 158.756L5.95449 153.779C5.95449 153.779 4.08848 151.602 4.71041 149.114C5.33234 146.626 7.50986 143.204 7.50986 143.204C7.50986 143.204 9.99867 146.625 12.1758 146.003Z" fill="#090814"/>
<path d="M40.6311 146.819C40.6311 146.819 41.256 143.695 43.4432 145.257C45.6304 146.819 51.567 151.506 51.567 151.506C51.567 151.506 62.5029 154.007 55.6288 157.13C48.7547 160.253 33.132 155.88 33.132 155.88C33.132 155.88 32.5071 145.882 33.132 146.194C33.7569 146.506 40.3187 147.445 40.6311 146.819Z" fill="#090814"/>
<path opacity="0.1" d="M26.3204 31.9316L25.3516 51.6346L34.7422 70.6515L36.3348 70.0457L26.6448 52.2806L26.3204 31.9316Z" fill="black"/>
<path d="M18.7306 25.9558L16.3082 25.4707C16.3082 25.4707 9.04066 30.8 11.3026 41.459C13.5646 52.118 23.5765 68.2679 23.5765 68.2679C23.5765 68.2679 25.8376 71.1749 26.4836 71.8209C27.1296 72.4669 28.4218 71.8209 27.7756 72.7898C27.1294 73.7587 28.7445 74.4047 28.7445 74.4047C28.7445 74.4047 35.8504 74.4047 35.2044 71.8199C34.5584 69.235 23.5765 50.8252 23.5765 50.8252L25.1914 33.7064C25.1914 33.7064 26.4825 25.3098 18.7306 25.9558Z" fill="#D6D6E3"/>
<path opacity="0.1" d="M15.6621 55.8334V53.5723L26.644 71.661L15.6621 55.8334Z" fill="black"/>
<path d="M36.9636 4.93307L38.3521 4.37709C38.3521 4.37709 35.4493 1.18063 31.4103 1.45862L32.5463 0.207883C32.5463 0.207883 29.7696 -0.903862 27.2453 2.0146C25.9183 3.54871 24.3825 5.35156 23.4261 7.38256H21.9395L22.5601 8.74888L20.3882 10.1152L22.6173 9.86987C22.4061 11.0495 22.4784 12.2625 22.8282 13.4088L22.7685 14.4889C22.7685 14.4889 25.3533 10.4909 25.3533 9.93453V11.3243C25.3533 11.3243 26.7418 10.0735 26.7418 9.24042L27.4988 10.2132L27.8774 8.68443L32.5469 10.2132L31.7899 8.96243L34.6926 9.37941L33.5566 7.85068C33.5566 7.85068 36.8382 9.6574 36.9643 11.1861C37.0904 12.7149 38.731 14.6595 38.731 14.6595L39.4881 13.2698C39.4881 13.2698 40.6237 7.01757 36.9636 4.93307Z" fill="#2F2E41"/>
<path d="M147.258 142.989H98.5611C97.9478 142.988 97.3598 142.744 96.9263 142.31C96.4928 141.876 96.2492 141.288 96.2489 140.675V74.5691C96.2496 73.956 96.4935 73.3683 96.9269 72.9349C97.3604 72.5014 97.9481 72.2576 98.5611 72.2568H147.258C147.871 72.2576 148.459 72.5015 148.892 72.9349C149.326 73.3684 149.57 73.9561 149.57 74.5691V140.675C149.57 141.289 149.326 141.877 148.893 142.31C148.459 142.744 147.871 142.988 147.258 142.989Z" fill="#F2F2F2"/>
<path d="M112.556 98.3813C112.45 98.3893 112.347 98.4253 112.259 98.4857C112.707 98.4578 113.152 98.396 113.591 98.3008L112.556 98.3813Z" fill="#2F2E41"/>
<path d="M111.67 80.1718C109.624 80.1721 107.635 80.8479 106.013 82.0941C104.39 83.3404 103.224 85.0875 102.696 87.0642C102.167 89.041 102.306 91.1368 103.091 93.0265C103.876 94.9161 105.262 96.4939 107.035 97.515C107.506 97.7876 108 98.0177 108.512 98.2024L108.598 98.2323C109.585 98.5789 110.624 98.7554 111.67 98.7541C111.873 98.7541 112.074 98.7475 112.274 98.7326C112.734 98.7041 113.192 98.6407 113.643 98.543C113.896 98.488 114.143 98.4224 114.377 98.3509C114.434 98.3344 114.488 98.3176 114.546 98.2991C116.65 97.6144 118.44 96.2018 119.595 94.3153C120.75 92.4287 121.194 90.192 120.848 88.0072C120.501 85.8224 119.386 83.833 117.704 82.3966C116.022 80.9601 113.882 80.1709 111.67 80.1709V80.1718ZM117.06 96.4232C116.259 97.0418 115.357 97.5175 114.393 97.8295L114.234 97.8798C114.012 97.9485 113.778 98.0087 113.537 98.0604C113.111 98.1536 112.677 98.214 112.241 98.2411C112.052 98.2544 111.862 98.2611 111.669 98.2611C110.679 98.2614 109.696 98.0944 108.761 97.767L108.679 97.7384C108.17 97.5556 107.68 97.325 107.215 97.0497C105.594 96.0954 104.321 94.6463 103.585 92.9153C102.848 91.1843 102.687 89.2628 103.123 87.4331C103.56 85.6033 104.572 83.9619 106.01 82.7499C107.449 81.5379 109.238 80.8194 111.116 80.6998C112.993 80.5802 114.859 81.0659 116.44 82.0856C118.021 83.1052 119.233 84.605 119.898 86.3646C120.563 88.1242 120.647 90.0507 120.136 91.8611C119.625 93.6715 118.547 95.2703 117.06 96.4226L117.06 96.4232Z" fill="#CCCCCC"/>
<path d="M137.831 89.426H124.052C123.763 89.426 123.485 89.311 123.281 89.1064C123.076 88.9019 122.961 88.6244 122.961 88.335C122.961 88.0457 123.076 87.7682 123.281 87.5637C123.485 87.3591 123.763 87.2441 124.052 87.2441H137.831C138.12 87.2441 138.398 87.3591 138.603 87.5637C138.807 87.7682 138.922 88.0457 138.922 88.335C138.922 88.6244 138.807 88.9019 138.603 89.1064C138.398 89.311 138.12 89.426 137.831 89.426Z" fill="#E6E6E6"/>
<path d="M142.328 93.1056H124.052C123.763 93.1056 123.485 92.9907 123.28 92.7861C123.076 92.5815 122.961 92.3041 122.961 92.0147C122.961 91.7254 123.076 91.4479 123.28 91.2433C123.485 91.0388 123.763 90.9238 124.052 90.9238H142.328C142.617 90.9238 142.895 91.0388 143.099 91.2433C143.304 91.4479 143.419 91.7254 143.419 92.0147C143.419 92.3041 143.304 92.5815 143.099 92.7861C142.895 92.9907 142.617 93.1056 142.328 93.1056H142.328Z" fill="#E6E6E6"/>
<path d="M137.81 107.217H103.491C103.202 107.217 102.925 107.102 102.72 106.897C102.515 106.693 102.401 106.415 102.401 106.126C102.401 105.837 102.515 105.559 102.72 105.355C102.925 105.15 103.202 105.035 103.491 105.035H137.811C138.1 105.035 138.377 105.15 138.582 105.355C138.786 105.559 138.901 105.837 138.901 106.126C138.901 106.415 138.786 106.693 138.582 106.897C138.377 107.102 138.1 107.217 137.811 107.217H137.81Z" fill="#E6E6E6"/>
<path d="M142.307 110.896H103.491C103.202 110.896 102.925 110.781 102.72 110.576C102.515 110.372 102.401 110.094 102.401 109.805C102.401 109.515 102.515 109.238 102.72 109.033C102.925 108.829 103.202 108.714 103.491 108.714H142.307C142.597 108.714 142.874 108.829 143.079 109.033C143.283 109.238 143.398 109.515 143.398 109.805C143.398 110.094 143.283 110.372 143.079 110.576C142.874 110.781 142.597 110.896 142.307 110.896H142.307Z" fill="#E6E6E6"/>
<path d="M167.572 97.9621C167.617 97.548 167.534 97.1301 167.333 96.7652C167.132 96.4003 166.823 96.1061 166.449 95.9225L128.92 77.5799C128.437 77.3441 127.881 77.3094 127.374 77.4834C126.866 77.6575 126.449 78.0261 126.213 78.5082L112.134 107.309C111.899 107.791 111.865 108.347 112.039 108.854C112.214 109.361 112.582 109.779 113.064 110.015L150.593 128.358C151.075 128.593 151.631 128.627 152.139 128.453C152.646 128.278 153.064 127.91 153.3 127.428L167.377 98.6294C167.48 98.42 167.547 98.1941 167.572 97.9619V97.9621Z" fill="white"/>
<path d="M167.572 97.9621C167.617 97.548 167.534 97.1301 167.333 96.7652C167.132 96.4003 166.823 96.1061 166.449 95.9225L128.92 77.5799C128.437 77.3441 127.881 77.3094 127.374 77.4834C126.866 77.6575 126.449 78.0261 126.213 78.5082L112.134 107.309C111.899 107.791 111.865 108.347 112.039 108.854C112.214 109.361 112.582 109.779 113.064 110.015L150.593 128.358C151.075 128.593 151.631 128.627 152.139 128.453C152.646 128.278 153.064 127.91 153.3 127.428L167.377 98.6294C167.48 98.42 167.547 98.1941 167.572 97.9619V97.9621ZM153.089 127.324C152.88 127.75 152.512 128.075 152.064 128.228C151.616 128.382 151.126 128.352 150.7 128.144L113.171 109.802C112.745 109.594 112.42 109.225 112.267 108.777C112.113 108.329 112.143 107.839 112.35 107.413L126.426 78.6135C126.635 78.1884 127.003 77.8634 127.451 77.7097C127.899 77.556 128.389 77.5861 128.815 77.7935L166.344 96.1361C166.769 96.3445 167.094 96.7131 167.248 97.1609C167.402 97.6087 167.372 98.0992 167.164 98.5248L153.089 127.324Z" fill="#3F3D56"/>
<path d="M163.478 99.2725L153.649 119.383C153.584 119.518 153.468 119.62 153.326 119.669C153.185 119.717 153.03 119.708 152.896 119.642L118.757 102.957C118.733 102.945 118.71 102.932 118.688 102.916C118.576 102.84 118.495 102.726 118.46 102.595C118.426 102.465 118.439 102.326 118.498 102.204L128.327 82.0934C128.392 81.9592 128.508 81.8566 128.65 81.808C128.791 81.7594 128.946 81.7689 129.08 81.8343L163.218 98.5197C163.352 98.5853 163.455 98.7015 163.504 98.8427C163.552 98.984 163.543 99.1387 163.477 99.2729L163.478 99.2725Z" fill="#E6E6E6"/>
<path d="M133.507 98.2496C136.237 98.2496 138.45 96.0363 138.45 93.306C138.45 90.5757 136.237 88.3623 133.507 88.3623C130.776 88.3623 128.563 90.5757 128.563 93.306C128.563 96.0363 130.776 98.2496 133.507 98.2496Z" fill="url(#paint3_linear_2644_4079)"/>
<path d="M140.746 113.804L118.956 103.156C118.929 103.142 118.902 103.126 118.878 103.108L137.908 90.2932C138.025 90.2128 138.161 90.1649 138.303 90.1545C138.445 90.1441 138.587 90.1715 138.715 90.2339C138.842 90.2963 138.951 90.3915 139.03 90.5098C139.109 90.628 139.155 90.7651 139.163 90.907L140.225 106.267L140.276 107.002L140.746 113.804Z" fill="#090814"/>
<path opacity="0.2" d="M140.747 113.804L133.307 110.168L139.552 106.648L140.002 106.395L140.226 106.268L140.278 107.003L140.747 113.804Z" fill="black"/>
<path d="M152.879 119.733L134.033 110.522L140.278 107.003L140.727 106.749L148.865 102.162C149.001 102.097 149.149 102.062 149.299 102.059C149.449 102.055 149.598 102.083 149.737 102.141C149.876 102.199 150 102.285 150.104 102.395C150.207 102.504 150.286 102.633 150.336 102.775C150.347 102.814 150.356 102.854 150.362 102.894L152.879 119.733Z" fill="#090814"/>
<path d="M161.717 157.852H79.2029C77.7399 157.85 76.3374 157.268 75.3029 156.234C74.2684 155.199 73.6865 153.797 73.6848 152.334V107.019C73.6865 105.556 74.2684 104.154 75.3029 103.119C76.3374 102.085 77.7399 101.503 79.2029 101.501H89.3195C90.6923 101.5 92.0159 102.012 93.0309 102.936L104.002 110.77C104.717 111.424 105.651 111.786 106.62 111.785H162.229C162.961 111.785 163.685 111.93 164.359 112.212C165.034 112.495 165.646 112.908 166.16 113.429C166.673 113.95 167.078 114.567 167.351 115.246C167.623 115.924 167.758 116.651 167.748 117.382L167.236 152.413C167.209 153.861 166.616 155.241 165.585 156.257C164.553 157.274 163.165 157.846 161.717 157.852Z" fill="url(#paint4_linear_2644_4079)"/>
<path d="M111.994 95.4482H112.003C113.521 95.3653 114.951 94.7081 116.002 93.6099C117.054 92.5117 117.649 91.0548 117.666 89.5344C117.683 88.0141 117.121 86.5442 116.094 85.4228C115.067 84.3014 113.653 83.6124 112.137 83.4955C112.118 83.4941 112.099 83.4965 112.082 83.5026C112.064 83.5087 112.048 83.5184 112.034 83.531C112.02 83.5436 112.009 83.5589 112.001 83.576C111.994 83.5931 111.989 83.6115 111.989 83.6302L111.858 95.3116C111.858 95.3296 111.862 95.3475 111.868 95.3642C111.875 95.3809 111.885 95.3961 111.897 95.409C111.91 95.4218 111.925 95.4321 111.942 95.4392C111.958 95.4462 111.976 95.45 111.994 95.4502V95.4482Z" fill="url(#paint5_linear_2644_4079)"/>
<path d="M107.297 85.4248C107.344 85.4253 107.388 85.4442 107.421 85.4774L111.442 89.5901C111.458 89.6066 111.471 89.6261 111.48 89.6475C111.488 89.6689 111.493 89.6919 111.492 89.715L111.43 95.3042C111.43 95.3282 111.424 95.3519 111.415 95.3738C111.405 95.3956 111.391 95.4153 111.373 95.4314C111.355 95.448 111.334 95.4608 111.311 95.4689C111.289 95.4771 111.264 95.4805 111.24 95.4789C110.122 95.3955 109.049 95.002 108.142 94.3424C107.235 93.6828 106.53 92.7834 106.106 91.7452C105.683 90.707 105.557 89.5711 105.743 88.4653C105.93 87.3595 106.421 86.3276 107.161 85.4856C107.177 85.4674 107.197 85.4527 107.219 85.4424C107.241 85.4322 107.265 85.4265 107.289 85.4259L107.297 85.4248Z" fill="#E6E6E6"/>
<path d="M111.385 83.4453C111.43 83.4453 111.473 83.4623 111.506 83.4928C111.523 83.5094 111.537 83.5294 111.546 83.5516C111.556 83.5738 111.56 83.5976 111.56 83.6217L111.504 88.665C111.503 88.6997 111.492 88.7335 111.473 88.7621C111.453 88.7908 111.426 88.8129 111.394 88.8259C111.361 88.8388 111.326 88.8419 111.292 88.8348C111.258 88.8277 111.227 88.8107 111.203 88.786L107.693 85.1983C107.676 85.1813 107.663 85.161 107.655 85.1387C107.646 85.1165 107.642 85.0927 107.643 85.0689C107.644 85.0451 107.65 85.0217 107.66 85.0001C107.67 84.9786 107.684 84.9593 107.702 84.9435C108.723 84.0453 110.017 83.5176 111.374 83.4457L111.385 83.4453Z" fill="#090814"/>
<path d="M120.718 135.683C117.507 135.683 114.892 132.907 114.892 129.494C114.892 126.082 117.506 123.306 120.718 123.306C123.931 123.306 126.544 126.082 126.544 129.494C126.544 132.907 123.931 135.683 120.718 135.683ZM120.718 124.869C118.368 124.869 116.456 126.944 116.456 129.494C116.456 132.044 118.368 134.119 120.718 134.119C123.068 134.119 124.98 132.044 124.98 129.494C124.98 126.944 123.068 124.869 120.718 124.869V124.869Z" fill="#D6D6E3"/>
<path d="M126.235 146.468H115.199C114.226 146.467 113.294 146.08 112.606 145.392C111.918 144.704 111.531 143.771 111.53 142.799V131.975C111.531 131.309 111.796 130.67 112.267 130.199C112.738 129.727 113.377 129.462 114.044 129.462H127.392C128.059 129.462 128.698 129.727 129.169 130.199C129.641 130.67 129.905 131.309 129.906 131.975V142.798C129.905 143.772 129.518 144.705 128.83 145.393C128.141 146.081 127.208 146.468 126.235 146.468Z" fill="#F2F2F2"/>
<path d="M122.868 135.62C122.868 135.237 122.767 134.862 122.573 134.532C122.38 134.202 122.103 133.93 121.77 133.743C121.436 133.556 121.059 133.461 120.677 133.468C120.295 133.475 119.921 133.584 119.595 133.784C119.269 133.983 119.002 134.266 118.822 134.603C118.642 134.94 118.554 135.319 118.569 135.701C118.584 136.083 118.7 136.454 118.906 136.776C119.112 137.098 119.4 137.36 119.74 137.533V140.898H121.696V137.533C122.049 137.353 122.345 137.079 122.552 136.742C122.759 136.404 122.868 136.016 122.868 135.62Z" fill="#2F2E41"/>
<defs>
<linearGradient id="paint0_linear_2644_4079" x1="54.6921" y1="78.1768" x2="58.9238" y2="84.2147" gradientUnits="userSpaceOnUse">
<stop stop-color="#22DCD9"/>
<stop offset="1" stop-color="#5456AB"/>
</linearGradient>
<linearGradient id="paint1_linear_2644_4079" x1="53.6471" y1="78.9073" x2="58.7744" y2="86.2229" gradientUnits="userSpaceOnUse">
<stop stop-color="#F73E94"/>
<stop offset="1" stop-color="#97238A"/>
</linearGradient>
<linearGradient id="paint2_linear_2644_4079" x1="52" y1="71" x2="51.5" y2="78.5" gradientUnits="userSpaceOnUse">
<stop stop-color="#22DCD9"/>
<stop offset="0.5" stop-color="#5456AB"/>
<stop offset="0.75" stop-color="#97238A"/>
<stop offset="1" stop-color="#F73E94"/>
</linearGradient>
<linearGradient id="paint3_linear_2644_4079" x1="133.507" y1="88.3623" x2="133.507" y2="98.2496" gradientUnits="userSpaceOnUse">
<stop stop-color="#22DCD9"/>
<stop offset="1" stop-color="#413B99"/>
</linearGradient>
<linearGradient id="paint4_linear_2644_4079" x1="78.5" y1="102" x2="164.5" y2="158" gradientUnits="userSpaceOnUse">
<stop stop-color="#22DCD9"/>
<stop offset="0.35" stop-color="#5456AB"/>
<stop offset="0.649038" stop-color="#97238A"/>
<stop offset="1" stop-color="#F73E94"/>
</linearGradient>
<linearGradient id="paint5_linear_2644_4079" x1="114.762" y1="83.4951" x2="114.762" y2="95.4502" gradientUnits="userSpaceOnUse">
<stop stop-color="#F73E94"/>
<stop offset="1" stop-color="#5456AB"/>
</linearGradient>
</defs>
</svg>
