<svg width="177" height="160" viewBox="0 0 177 160" fill="none" xmlns="http://www.w3.org/2000/svg">
<g clip-path="url(#clip0_82_1044)">
<path d="M89.431 39.8125H24.8102C20.6054 39.8125 17.1967 43.2212 17.1967 47.4261V111.224C17.1967 115.429 20.6054 118.837 24.8102 118.837H89.431C93.6359 118.837 97.0446 115.429 97.0446 111.224V47.4261C97.0446 43.2212 93.6359 39.8125 89.431 39.8125Z" fill="#F2F2F2"/>
<path d="M38.3802 41.3779C33.1772 41.3779 28.1874 43.4448 24.5083 47.1239C20.8292 50.803 18.7623 55.7928 18.7623 60.9958V111.224C18.7623 112.018 18.9188 112.804 19.2227 113.538C19.5266 114.272 19.9721 114.939 20.5337 115.5C21.0953 116.062 21.762 116.507 22.4958 116.811C23.2295 117.115 24.0159 117.272 24.8102 117.272H66.0527C73.857 117.272 81.3416 114.171 86.86 108.653C92.3784 103.134 95.4787 95.6498 95.4787 87.8456V47.4258C95.4787 45.8218 94.8415 44.2835 93.7073 43.1493C92.5731 42.0151 91.0348 41.3779 89.4309 41.3779H38.3802Z" fill="white"/>
<path d="M167.305 13.7305H5.96705C5.89155 13.7305 5.81914 13.7005 5.76575 13.6471C5.71236 13.5937 5.68237 13.5213 5.68237 13.4458C5.68237 13.3703 5.71236 13.2979 5.76575 13.2445C5.81914 13.1911 5.89155 13.1611 5.96705 13.1611H167.305C167.38 13.1611 167.453 13.1911 167.506 13.2445C167.56 13.2979 167.59 13.3703 167.59 13.4458C167.59 13.5213 167.56 13.5937 167.506 13.6471C167.453 13.7005 167.38 13.7305 167.305 13.7305Z" fill="#E6E6E6"/>
<path d="M14.0392 5.18391C15.3688 5.18391 16.4466 4.08204 16.4466 2.72281C16.4466 1.36359 15.3688 0.261719 14.0392 0.261719C12.7096 0.261719 11.6317 1.36359 11.6317 2.72281C11.6317 4.08204 12.7096 5.18391 14.0392 5.18391Z" fill="#E6E6E6"/>
<path d="M22.3558 5.18391C23.6854 5.18391 24.7633 4.08204 24.7633 2.72281C24.7633 1.36359 23.6854 0.261719 22.3558 0.261719C21.0262 0.261719 19.9484 1.36359 19.9484 2.72281C19.9484 4.08204 21.0262 5.18391 22.3558 5.18391Z" fill="#E6E6E6"/>
<path d="M30.6725 5.18391C32.0021 5.18391 33.0799 4.08204 33.0799 2.72281C33.0799 1.36359 32.0021 0.261719 30.6725 0.261719C29.3429 0.261719 28.265 1.36359 28.265 2.72281C28.265 4.08204 29.3429 5.18391 30.6725 5.18391Z" fill="#E6E6E6"/>
<path d="M40.1556 4.6677C40.1177 4.66775 40.0801 4.6602 40.0452 4.64549C40.0102 4.63078 39.9786 4.60922 39.9521 4.58207L38.3277 2.92152C38.2756 2.86834 38.2465 2.79689 38.2465 2.72247C38.2465 2.64805 38.2756 2.57659 38.3277 2.52342L39.9521 0.863004C39.9781 0.835856 40.0093 0.814137 40.0438 0.799105C40.0783 0.784074 40.1154 0.776026 40.153 0.775427C40.1906 0.774828 40.228 0.781691 40.2629 0.795617C40.2979 0.809543 40.3297 0.830257 40.3566 0.856562C40.3835 0.882867 40.4049 0.91424 40.4196 0.94887C40.4343 0.9835 40.442 1.0207 40.4422 1.05831C40.4424 1.09593 40.4352 1.13322 40.4209 1.16803C40.4067 1.20284 40.3857 1.23447 40.3591 1.26111L38.9294 2.72247L40.3591 4.18396C40.3983 4.22402 40.4248 4.27476 40.4352 4.3298C40.4457 4.38485 40.4397 4.44176 40.418 4.49341C40.3962 4.54506 40.3598 4.58915 40.3131 4.62016C40.2664 4.65116 40.2116 4.6677 40.1556 4.6677Z" fill="#E6E6E6"/>
<path d="M42.8852 4.6677C42.8292 4.6677 42.7744 4.65116 42.7278 4.62015C42.6811 4.58915 42.6446 4.54506 42.6229 4.49341C42.6011 4.44176 42.5951 4.38484 42.6056 4.3298C42.6161 4.27475 42.6426 4.22402 42.6817 4.18396L44.1113 2.72247L42.6817 1.26111C42.6552 1.23447 42.6342 1.20284 42.6199 1.16803C42.6056 1.13322 42.5984 1.09593 42.5986 1.05831C42.5989 1.02069 42.6065 0.983495 42.6212 0.948866C42.6359 0.914236 42.6574 0.882862 42.6842 0.856558C42.7111 0.830253 42.743 0.809539 42.7779 0.795613C42.8129 0.781687 42.8502 0.774828 42.8878 0.775427C42.9255 0.776026 42.9626 0.784074 42.9971 0.799105C43.0316 0.814137 43.0627 0.835852 43.0888 0.863L44.713 2.52341C44.7651 2.57659 44.7942 2.64805 44.7942 2.72247C44.7942 2.79689 44.7651 2.86834 44.713 2.92152L43.0888 4.58207C43.0623 4.60922 43.0306 4.63078 42.9957 4.64549C42.9607 4.6602 42.9232 4.66775 42.8852 4.6677Z" fill="#E6E6E6"/>
<path d="M152.918 0.546875H149.897C149.815 0.546851 149.734 0.562962 149.659 0.594285C149.583 0.625607 149.514 0.67153 149.456 0.729428C149.398 0.787326 149.352 0.856063 149.321 0.931715C149.29 1.00737 149.274 1.08845 149.274 1.17033V4.19365C149.274 4.27553 149.29 4.35661 149.321 4.43226C149.352 4.50792 149.398 4.57666 149.456 4.63456C149.514 4.69245 149.583 4.73838 149.659 4.7697C149.734 4.80102 149.815 4.81713 149.897 4.8171H152.918C153.083 4.81726 153.242 4.75172 153.36 4.63485C153.477 4.51797 153.543 4.35931 153.544 4.19365V1.17033C153.543 1.00467 153.477 0.846005 153.36 0.729132C153.242 0.612259 153.083 0.546716 152.918 0.546875Z" fill="#E6E6E6"/>
<path d="M145.516 0.546875H142.495C142.414 0.546851 142.332 0.562962 142.257 0.594285C142.181 0.625607 142.112 0.67153 142.055 0.729428C141.997 0.787326 141.951 0.856063 141.919 0.931715C141.888 1.00737 141.872 1.08845 141.872 1.17033V4.19365C141.872 4.27553 141.888 4.35661 141.919 4.43226C141.951 4.50792 141.997 4.57666 142.055 4.63456C142.112 4.69245 142.181 4.73838 142.257 4.7697C142.332 4.80102 142.414 4.81713 142.495 4.8171H145.516C145.682 4.81726 145.841 4.75172 145.958 4.63485C146.075 4.51797 146.142 4.35931 146.142 4.19365V1.17033C146.142 1.00467 146.075 0.846005 145.958 0.729132C145.841 0.612259 145.682 0.546716 145.516 0.546875Z" fill="#E6E6E6"/>
<path d="M159.892 0.689453H156.872C156.79 0.689429 156.709 0.70554 156.633 0.736863C156.558 0.768185 156.489 0.814108 156.431 0.872006C156.373 0.929904 156.327 0.998641 156.296 1.07429C156.265 1.14994 156.248 1.23103 156.248 1.31291V4.33623C156.248 4.41811 156.265 4.49919 156.296 4.57484C156.327 4.65049 156.373 4.71924 156.431 4.77713C156.489 4.83503 156.558 4.88095 156.633 4.91228C156.709 4.9436 156.79 4.95971 156.872 4.95968H159.892C160.058 4.95984 160.217 4.8943 160.334 4.77742C160.452 4.66055 160.518 4.50189 160.519 4.33623V1.31291C160.518 1.14725 160.452 0.988584 160.334 0.87171C160.217 0.754837 160.058 0.689294 159.892 0.689453Z" fill="#E6E6E6"/>
<path d="M99.319 5.12427H79.6759C78.9964 5.12427 78.3447 4.85434 77.8642 4.37384C77.3837 3.89335 77.1138 3.24166 77.1138 2.56214C77.1138 1.88262 77.3837 1.23093 77.8642 0.750435C78.3447 0.269941 78.9964 0 79.6759 0H99.319C99.9985 0 100.65 0.269941 101.131 0.750435C101.611 1.23093 101.881 1.88262 101.881 2.56214C101.881 3.24166 101.611 3.89335 101.131 4.37384C100.65 4.85434 99.9985 5.12427 99.319 5.12427Z" fill="#E6E6E6"/>
<path d="M66.9766 90.3576H23.1377C22.8869 90.3576 22.6465 90.258 22.4692 90.0807C22.2919 89.9034 22.1923 89.6629 22.1923 89.4122C22.1923 89.1615 22.2919 88.921 22.4692 88.7437C22.6465 88.5664 22.8869 88.4668 23.1377 88.4668H66.9766C67.2273 88.4668 67.4678 88.5664 67.6451 88.7437C67.8224 88.921 67.922 89.1615 67.922 89.4122C67.922 89.6629 67.8224 89.9034 67.6451 90.0807C67.4678 90.258 67.2273 90.3576 66.9766 90.3576Z" fill="#F2F2F2"/>
<path d="M66.9766 63.3918H0.945566C0.821278 63.392 0.698166 63.3677 0.583276 63.3203C0.468387 63.2729 0.363976 63.2032 0.276015 63.1154C0.188054 63.0276 0.118274 62.9233 0.0706613 62.8085C0.0230484 62.6937 -0.00146484 62.5707 -0.00146484 62.4464C-0.00146484 62.3221 0.0230484 62.199 0.0706613 62.0842C0.118274 61.9694 0.188054 61.8651 0.276015 61.7773C0.363976 61.6895 0.468387 61.6199 0.583276 61.5725C0.698166 61.5251 0.821278 61.5008 0.945566 61.501H66.9766C67.227 61.5014 67.467 61.6012 67.644 61.7785C67.8209 61.9557 67.9203 62.1959 67.9203 62.4464C67.9203 62.6968 67.8209 62.937 67.644 63.1143C67.467 63.2915 67.227 63.3913 66.9766 63.3918Z" fill="#F2F2F2"/>
<path d="M66.9779 70.1426H0.944111C0.693468 70.143 0.453244 70.2429 0.276167 70.4203C0.0990888 70.5977 -0.000366211 70.8381 -0.000366211 71.0887C-0.000366211 71.3393 0.0990888 71.5797 0.276167 71.7571C0.453244 71.9345 0.693468 72.0344 0.944111 72.0348H66.9779C67.2285 72.0344 67.4687 71.9345 67.6458 71.7571C67.8229 71.5797 67.9223 71.3393 67.9223 71.0887C67.9223 70.8381 67.8229 70.5977 67.6458 70.4203C67.4687 70.2429 67.2285 70.143 66.9779 70.1426Z" fill="#F2F2F2"/>
<path d="M66.9765 80.6779H0.945511C0.694779 80.6779 0.454314 80.5783 0.27702 80.401C0.0997249 80.2237 0.00012207 79.9832 0.00012207 79.7325C0.00012207 79.4818 0.0997249 79.2413 0.27702 79.064C0.454314 78.8867 0.694779 78.7871 0.945511 78.7871H66.9765C67.2272 78.7871 67.4677 78.8867 67.645 79.064C67.8223 79.2413 67.9219 79.4818 67.9219 79.7325C67.9219 79.9832 67.8223 80.2237 67.645 80.401C67.4677 80.5783 67.2272 80.6779 66.9765 80.6779Z" fill="#F2F2F2"/>
<path d="M122.579 156.209L119.547 156.208L118.105 144.516L122.58 144.516L122.579 156.209Z" fill="#A0616A"/>
<path d="M122.686 159.371L113.363 159.371V159.253C113.363 158.291 113.746 157.368 114.426 156.688C115.107 156.007 116.03 155.625 116.992 155.625L118.695 154.333L121.872 155.625L122.686 155.625L122.686 159.371Z" fill="#2F2E41"/>
<path d="M153.081 156.209L150.049 156.208L148.607 144.516L153.081 144.516L153.081 156.209Z" fill="#A0616A"/>
<path d="M153.187 159.371L143.865 159.371V159.253C143.865 158.291 144.248 157.368 144.928 156.688C145.608 156.007 146.531 155.625 147.494 155.625L149.197 154.333L152.374 155.625L153.188 155.625L153.187 159.371Z" fill="#2F2E41"/>
<path d="M125.052 89.0334C125.052 89.0334 123.061 91.1464 122.977 92.5172C122.893 93.888 123.931 91.398 122.893 93.888C121.856 96.3779 121.856 94.718 121.856 96.3779C121.856 98.0379 119.657 99.6588 119.657 99.6588L116.032 114.574L118.121 149.497H122.686C126.928 136.565 128.902 126.579 126.628 122.107L132.968 108.017C132.968 108.017 144.946 145.501 145.436 145.943C145.925 146.384 145.925 145.762 145.925 146.384C145.925 147.007 145.303 146.384 145.925 147.007L148.83 149.912L153.188 149.497C153.188 149.497 153.771 122.358 148.914 117.668C148.914 117.668 150.036 103.144 148.914 103.185C147.793 103.225 147.793 105.093 147.793 103.225C147.793 101.358 149.122 100.86 149.122 100.86L145.387 87.7422L125.052 89.0334Z" fill="#2F2E41"/>
<path d="M148.573 60.1202L144.354 77.7847L145.351 84.3552L146.546 92.2267L142.413 91.959L136.016 91.5434L124.139 90.7748L123.1 55.9155L128.549 50.2218L129.522 47.4576L137.4 47.4092L139.284 50.7286L144.129 52.1064C144.752 52.5016 145.337 52.9533 145.877 53.4558C147.073 54.5632 148.132 55.9696 148.627 57.4101C148.777 57.8299 148.871 58.2671 148.909 58.7111L148.573 60.1202Z" fill="#E6E6E6"/>
<path d="M111.907 104.94C112.224 104.764 112.5 104.522 112.714 104.23C112.929 103.937 113.078 103.602 113.15 103.246C113.222 102.891 113.216 102.524 113.132 102.171C113.049 101.818 112.889 101.488 112.666 101.203L118.674 90.2634L116.057 87.8574L109.016 100.902C108.563 101.315 108.278 101.879 108.214 102.488C108.15 103.096 108.311 103.708 108.668 104.205C109.024 104.703 109.551 105.053 110.148 105.188C110.745 105.323 111.371 105.235 111.907 104.94Z" fill="#E6E6E6"/>
<path d="M126.562 53.7842L125.162 78.8746L118.414 94.6422L114.022 100.466L114.521 97.8272L111.494 96.3125L111.21 96.1714L117.022 73.6166L117.557 64.852C117.649 63.3437 118.054 61.871 118.744 60.527C119.435 59.183 120.397 57.997 121.57 57.0439L124.931 54.3133L126.562 53.7842Z" fill="#E6E6E6"/>
<path d="M111.907 104.94C112.224 104.764 112.5 104.522 112.714 104.23C112.929 103.937 113.078 103.602 113.15 103.246C113.222 102.891 113.216 102.524 113.132 102.171C113.049 101.818 112.889 101.488 112.666 101.203L118.674 90.2634L116.057 87.8574L109.016 100.902C108.563 101.315 108.278 101.879 108.214 102.488C108.15 103.096 108.311 103.708 108.668 104.205C109.024 104.703 109.551 105.053 110.148 105.188C110.745 105.323 111.371 105.235 111.907 104.94Z" fill="#A0616A"/>
<path d="M126.562 53.7842L125.162 78.8746L118.414 94.6422L114.022 100.466L114.521 97.8272L111.494 96.3125L111.21 96.1714L117.022 73.6166L117.557 64.852C117.649 63.3437 118.054 61.871 118.744 60.527C119.435 59.183 120.397 57.997 121.57 57.0439L124.931 54.3133L126.562 53.7842Z" fill="#E6E6E6"/>
<path d="M133.066 54.6494H68.445C64.2401 54.6494 60.8314 58.0581 60.8314 62.263V95.5999C60.8314 99.8047 64.2401 103.213 68.445 103.213H133.066C137.271 103.213 140.679 99.8047 140.679 95.5999V62.263C140.679 58.0581 137.271 54.6494 133.066 54.6494Z" fill="white"/>
<path d="M133.066 103.499H68.445C66.351 103.496 64.3434 102.663 62.8627 101.183C61.382 99.702 60.5491 97.6945 60.5468 95.6005V62.2635C60.5491 60.1695 61.382 58.1619 62.8627 56.6812C64.3434 55.2005 66.351 54.3676 68.445 54.3652H133.066C135.16 54.3676 137.167 55.2006 138.648 56.6812C140.129 58.1619 140.962 60.1695 140.964 62.2635V95.6005C140.962 97.6945 140.129 99.702 138.648 101.183C137.167 102.663 135.16 103.496 133.066 103.499ZM68.445 54.9346C66.5013 54.9346 64.6371 55.7068 63.2627 57.0812C61.8883 58.4556 61.1161 60.3197 61.1161 62.2635V74.7239C61.1161 82.2045 64.0878 89.3786 69.3773 94.6682C74.6668 99.9577 81.841 102.929 89.3216 102.929H133.066C135.01 102.929 136.874 102.157 138.248 100.783C139.622 99.4084 140.395 97.5443 140.395 95.6006V62.2635C140.395 61.3011 140.205 60.348 139.837 59.4589C139.468 58.5697 138.929 57.7617 138.248 57.0812C137.567 56.4006 136.76 55.8608 135.87 55.4925C134.981 55.1242 134.028 54.9346 133.066 54.9346L68.445 54.9346Z" fill="#3F3D56"/>
<path d="M85.5248 90.0342H70.4367C69.8864 90.0342 69.4403 90.4803 69.4403 91.0306C69.4403 91.5809 69.8864 92.027 70.4367 92.027H85.5248C86.0751 92.027 86.5212 91.5809 86.5212 91.0306C86.5212 90.4803 86.0751 90.0342 85.5248 90.0342Z" fill="url(#paint0_linear_82_1044)"/>
<path d="M131.074 87.3301H120.541C119.99 87.3301 119.544 87.7762 119.544 88.3265V93.7354C119.544 94.2857 119.99 94.7318 120.541 94.7318H131.074C131.624 94.7318 132.07 94.2857 132.07 93.7354V88.3265C132.07 87.7762 131.624 87.3301 131.074 87.3301Z" fill="url(#paint1_linear_82_1044)"/>
<path d="M74.5646 73.3804C77.3946 73.3804 79.6889 71.0862 79.6889 68.2561C79.6889 65.4261 77.3946 63.1318 74.5646 63.1318C71.7345 63.1318 69.4403 65.4261 69.4403 68.2561C69.4403 71.0862 71.7345 73.3804 74.5646 73.3804Z" fill="url(#paint2_linear_82_1044)"/>
<path d="M133.173 45.9428C136.727 45.9428 139.607 43.0621 139.607 39.5085C139.607 35.9549 136.727 33.0742 133.173 33.0742C129.62 33.0742 126.739 35.9549 126.739 39.5085C126.739 43.0621 129.62 45.9428 133.173 45.9428Z" fill="#A0616A"/>
<path d="M138.452 42.8337C138.502 43.2181 137.807 43.2587 137.65 42.9042C137.493 42.5496 137.696 42.1478 137.894 41.8144L138.353 41.0404C138.439 40.8947 138.49 40.7304 138.5 40.5612C138.51 40.3921 138.479 40.2229 138.411 40.068C138.342 39.913 138.238 39.7766 138.106 39.6702C137.974 39.5639 137.819 39.4906 137.653 39.4564C138.073 38.5119 137.617 37.3329 136.78 36.726C135.943 36.119 134.698 37.2546 133.683 37.4494C132.668 37.6441 131.855 36.8671 130.929 37.3277L131.485 36.0461L128.408 37.372L129.123 35.9302C128.346 35.9725 128.016 36.9184 127.861 37.6807C127.696 38.4929 127.263 39.5082 126.38 39.34C126.171 39.2933 125.979 39.1884 125.826 39.0374C125.674 38.8864 125.567 38.6954 125.519 38.4865C124.837 35.8557 126.817 32.9797 129.443 32.5183C129.724 31.743 130.246 31.078 130.932 30.6207C131.618 30.1634 132.433 29.9378 133.256 29.977C134.08 30.0162 134.87 30.3182 135.509 30.8386C136.149 31.359 136.605 32.0706 136.811 32.8691L137.672 31.815L137.84 33.3085C138.458 33.2428 139.043 33.6796 139.344 34.2243C139.644 34.769 139.502 35.4722 139.791 36.0234C141.085 38.4936 140.657 41.2745 138.659 43.169" fill="#2F2E41"/>
<path d="M161.019 155.066C161.151 155.072 161.282 155.037 161.394 154.966C161.506 154.895 161.593 154.792 161.644 154.67C161.696 154.547 161.708 154.412 161.68 154.283C161.652 154.154 161.584 154.036 161.487 153.946L161.443 153.77C161.449 153.756 161.454 153.742 161.46 153.728C161.594 153.413 161.817 153.144 162.102 152.956C162.388 152.768 162.722 152.668 163.064 152.669C163.406 152.67 163.74 152.773 164.024 152.963C164.308 153.154 164.53 153.424 164.66 153.74C165.184 155 165.85 156.263 166.014 157.596C166.087 158.185 166.056 158.782 165.924 159.361C167.154 156.679 167.792 153.765 167.796 150.815C167.796 150.074 167.755 149.335 167.673 148.599C167.605 147.996 167.51 147.397 167.39 146.803C166.731 143.577 165.316 140.553 163.262 137.98C162.268 137.438 161.463 136.604 160.958 135.59C160.775 135.226 160.645 134.837 160.574 134.435C160.686 134.45 160.997 132.742 160.912 132.637C161.068 132.4 161.348 132.282 161.519 132.051C162.368 130.899 163.537 131.1 164.148 132.665C165.453 133.323 165.465 134.415 164.665 135.465C164.156 136.133 164.086 137.037 163.639 137.752C163.685 137.811 163.733 137.868 163.779 137.927C164.619 139.008 165.351 140.168 165.965 141.391C165.816 140.021 165.994 138.634 166.485 137.346C166.983 136.145 167.916 135.134 168.737 134.096C168.954 133.818 169.249 133.609 169.585 133.498C169.92 133.387 170.281 133.378 170.622 133.472C170.963 133.566 171.268 133.759 171.499 134.026C171.731 134.293 171.877 134.623 171.921 134.974C171.923 134.989 171.924 135.005 171.926 135.02C171.804 135.089 171.684 135.162 171.568 135.239C171.421 135.337 171.307 135.477 171.241 135.641C171.175 135.805 171.161 135.985 171.199 136.157C171.237 136.33 171.326 136.487 171.455 136.607C171.584 136.728 171.746 136.807 171.921 136.834L171.939 136.837C171.895 137.276 171.818 137.712 171.709 138.14C172.763 142.216 170.488 143.7 167.239 143.767C167.167 143.804 167.097 143.84 167.026 143.875C167.643 145.623 168.029 147.444 168.177 149.292C168.26 150.382 168.255 151.478 168.162 152.567L168.168 152.528C168.403 151.317 169.049 150.224 169.997 149.434C171.405 148.277 173.394 147.851 174.913 146.922C175.074 146.818 175.262 146.763 175.454 146.762C175.646 146.762 175.834 146.816 175.996 146.919C176.158 147.022 176.287 147.169 176.368 147.343C176.449 147.517 176.479 147.71 176.454 147.9L176.447 147.941C176.221 148.033 176 148.139 175.787 148.259C175.665 148.328 175.546 148.401 175.429 148.478C175.282 148.576 175.168 148.716 175.103 148.88C175.037 149.044 175.022 149.224 175.06 149.396C175.098 149.569 175.188 149.725 175.317 149.846C175.445 149.967 175.608 150.046 175.782 150.073L175.8 150.076C175.813 150.077 175.824 150.079 175.837 150.081C175.45 151.005 174.907 151.855 174.232 152.595C173.573 156.152 170.743 156.49 167.715 155.454H167.713C167.381 156.897 166.9 158.302 166.277 159.646H161.147C161.129 159.589 161.112 159.53 161.096 159.473C161.571 159.503 162.047 159.475 162.515 159.389C162.135 158.922 161.754 158.451 161.373 157.984C161.365 157.975 161.357 157.966 161.35 157.956C161.156 157.717 160.962 157.48 160.768 157.241L160.768 157.241C160.758 156.508 160.842 155.777 161.019 155.066Z" fill="#F2F2F2"/>
<path d="M81.7202 159.661C81.7201 159.706 81.7287 159.75 81.7457 159.791C81.7627 159.832 81.7877 159.869 81.8192 159.901C81.8506 159.932 81.888 159.957 81.9292 159.974C81.9704 159.991 82.0145 160 82.059 160H176.087C176.176 160 176.263 159.964 176.326 159.901C176.39 159.837 176.425 159.751 176.425 159.661C176.425 159.571 176.39 159.485 176.326 159.421C176.263 159.358 176.176 159.322 176.087 159.322H82.059C82.0145 159.322 81.9703 159.331 81.9292 159.348C81.888 159.365 81.8506 159.39 81.8191 159.421C81.7877 159.453 81.7627 159.49 81.7457 159.531C81.7287 159.572 81.7201 159.617 81.7202 159.661Z" fill="#CCCCCC"/>
<path d="M135.914 103.417C136.225 103.231 136.491 102.979 136.695 102.679C136.899 102.379 137.036 102.039 137.095 101.681C137.155 101.323 137.136 100.957 137.04 100.607C136.944 100.257 136.773 99.9326 136.539 99.6554L142.155 88.5097L139.454 86.1982L132.881 99.485C132.443 99.9134 132.178 100.487 132.136 101.098C132.093 101.709 132.277 102.314 132.65 102.798C133.024 103.283 133.563 103.614 134.164 103.728C134.766 103.842 135.388 103.731 135.914 103.417Z" fill="#A0616A"/>
<path d="M148.627 57.4103L148.909 58.7113L148.235 76.8968L145.351 84.3554L142.413 91.9593L142.051 92.8959L137.869 98.8713L138.274 96.2153L135.193 94.8089L134.906 94.6808L136.016 91.5436L138.57 84.3355L139.674 81.2154L139.913 71.9319L140.135 63.1552C140.174 61.6447 140.526 60.1586 141.168 58.791C141.81 57.4233 142.73 56.2039 143.868 55.2097L145.877 53.4561C147.073 54.5635 148.132 55.9698 148.627 57.4103Z" fill="#E6E6E6"/>
<path d="M81.4396 102.84L68.0943 102.556C66.4342 102.553 64.8428 101.893 63.6692 100.719C62.4955 99.5445 61.8354 97.9529 61.8335 96.2928L61.2642 82.3398C62.9028 93.7153 69.1999 100.931 81.4396 102.84Z" fill="url(#paint3_linear_82_1044)"/>
</g>
<defs>
<linearGradient id="paint0_linear_82_1044" x1="77.9808" y1="90.0342" x2="77.9808" y2="92.027" gradientUnits="userSpaceOnUse">
<stop stop-color="#22DCD9"/>
<stop offset="0.28" stop-color="#5456AB"/>
<stop offset="0.63" stop-color="#97238A"/>
<stop offset="1" stop-color="#F73E94"/>
</linearGradient>
<linearGradient id="paint1_linear_82_1044" x1="125.807" y1="87.3301" x2="125.807" y2="94.7318" gradientUnits="userSpaceOnUse">
<stop stop-color="#22DCD9"/>
<stop offset="0.28" stop-color="#5456AB"/>
<stop offset="0.63" stop-color="#97238A"/>
<stop offset="1" stop-color="#F73E94"/>
</linearGradient>
<linearGradient id="paint2_linear_82_1044" x1="74.5646" y1="63.1318" x2="74.5646" y2="73.3804" gradientUnits="userSpaceOnUse">
<stop stop-color="#22DCD9"/>
<stop offset="0.28" stop-color="#5456AB"/>
<stop offset="0.63" stop-color="#97238A"/>
<stop offset="1" stop-color="#F73E94"/>
</linearGradient>
<linearGradient id="paint3_linear_82_1044" x1="71.3519" y1="82.3398" x2="71.3519" y2="102.84" gradientUnits="userSpaceOnUse">
<stop stop-color="#22DCD9"/>
<stop offset="0.28" stop-color="#5456AB"/>
<stop offset="0.63" stop-color="#97238A"/>
<stop offset="1" stop-color="#F73E94"/>
</linearGradient>
<clipPath id="clip0_82_1044">
<rect width="176.465" height="160" fill="white"/>
</clipPath>
</defs>
</svg>
