<svg width="219" height="160" viewBox="0 0 219 160" fill="none" xmlns="http://www.w3.org/2000/svg">
<g clip-path="url(#clip0_82_872)">
<path d="M197.381 56.2791H197.149C194.621 56.2762 192.197 55.2707 190.41 53.4832C188.622 51.6957 187.617 49.2721 187.614 46.7442V43.4884H159.242V43.0233H188.079V46.7442C188.082 49.1085 189.006 51.3786 190.657 53.0717C192.307 54.7649 194.553 55.7476 196.916 55.811V43.0233H203.66C204.585 43.0222 205.472 42.6543 206.126 42.0004C206.78 41.3464 207.148 40.4597 207.149 39.5349V3.95349C207.148 3.02864 206.78 2.14196 206.126 1.48799C205.472 0.834023 204.585 0.466163 203.66 0.465116H114.823C113.898 0.466163 113.011 0.834023 112.358 1.48799C111.704 2.14196 111.336 3.02864 111.335 3.95349V29.7674H110.87V3.95349C110.871 2.90532 111.288 1.90042 112.029 1.15925C112.77 0.418086 113.775 0.00117997 114.823 0H203.66C204.708 0.00117997 205.713 0.418086 206.454 1.15925C207.196 1.90042 207.613 2.90532 207.614 3.95349V39.5349C207.613 40.583 207.196 41.5879 206.454 42.3291C205.713 43.0703 204.708 43.4872 203.66 43.4884H197.381V56.2791Z" fill="#CCCCCC"/>
<path d="M189.004 11.7461C188.975 10.9958 188.657 10.286 188.116 9.76528C187.575 9.24461 186.853 8.95356 186.102 8.95312H132.381C131.61 8.95312 130.871 9.25939 130.326 9.80456C129.781 10.3497 129.474 11.0891 129.474 11.8601C129.474 12.6311 129.781 13.3705 130.326 13.9156C130.871 14.4608 131.61 14.7671 132.381 14.7671H186.102C186.873 14.766 187.612 14.4594 188.157 13.9145C188.701 13.3695 189.008 12.6308 189.009 11.8601C189.01 11.8221 189.008 11.784 189.004 11.7461Z" fill="#CCCCCC"/>
<path d="M189.004 21.5137C188.975 20.7634 188.657 20.0535 188.116 19.5329C187.575 19.0122 186.853 18.7211 186.102 18.7207H132.381C131.61 18.7207 130.871 19.027 130.326 19.5721C129.781 20.1173 129.474 20.8567 129.474 21.6277C129.474 22.3987 129.781 23.1381 130.326 23.6832C130.871 24.2284 131.61 24.5347 132.381 24.5347H186.102C186.873 24.5336 187.612 24.227 188.157 23.682C188.701 23.1371 189.008 22.3983 189.009 21.6277C189.01 21.5896 189.008 21.5516 189.004 21.5137Z" fill="#CCCCCC"/>
<path d="M189.004 31.2813C188.975 30.531 188.657 29.8211 188.116 29.3004C187.575 28.7798 186.853 28.4887 186.102 28.4883H132.381C131.955 28.4883 131.534 28.5821 131.148 28.7629C130.763 28.9438 130.421 29.2073 130.149 29.5348C130.029 29.6797 129.923 29.8354 129.832 29.9999H155.521C156.446 30.001 157.332 30.3689 157.986 31.0229C158.64 31.6768 159.008 32.5635 159.009 33.4883V34.3022H186.102C186.873 34.3012 187.612 33.9946 188.157 33.4496C188.701 32.9047 189.008 32.1659 189.009 31.3953C189.01 31.3572 189.008 31.3192 189.004 31.2813Z" fill="#CCCCCC"/>
<path d="M5.70182 159.234C5.82833 159.338 5.9549 159.437 6.08442 159.535H38.0389C38.2769 159.437 38.5138 159.337 38.7498 159.234C42.1232 157.766 45.2631 155.811 48.0692 153.432C49.9325 151.853 51.6467 150.223 52.8894 148.696C54.6231 146.565 56.2197 144.242 56.9624 141.595C57.7035 138.949 57.4821 135.915 55.8266 133.721C55.314 133.045 54.6838 132.468 53.9663 132.017C53.8473 131.942 53.7269 131.869 53.6034 131.802C51.5438 130.693 49.1414 130.404 46.8777 130.993C43.6769 131.82 41.0168 134.129 39.1189 136.837C37.2209 139.544 35.9888 142.653 34.7748 145.727C33.5426 140.24 29.8115 135.325 24.7715 132.826C19.7329 130.327 13.4727 130.357 8.54119 133.064C6.9895 133.921 5.58783 135.025 4.39132 136.332C4.27239 136.46 4.15633 136.592 4.04189 136.724C1.63639 139.509 0.131569 143.076 0.00807845 146.754C-0.0474426 149.13 0.436038 151.486 1.4222 153.648C2.40835 155.809 3.87154 157.719 5.70182 159.234Z" fill="#F2F2F2"/>
<path d="M36.7615 159.535H37.2134C37.2193 159.434 37.2269 159.334 37.2359 159.233C37.3939 157.263 37.7245 155.31 38.2241 153.398C39.3702 149.032 41.3278 144.92 43.9947 141.278C46.654 137.625 50.0064 134.53 53.8609 132.171C53.8891 132.155 53.9132 132.133 53.9315 132.106C53.9497 132.079 53.9616 132.048 53.9663 132.016C53.9736 131.974 53.9689 131.931 53.9526 131.891C53.9363 131.852 53.9092 131.818 53.8743 131.793C53.8394 131.769 53.7982 131.754 53.7556 131.752C53.7129 131.75 53.6705 131.76 53.6334 131.781C53.623 131.787 53.613 131.794 53.6033 131.801C51.4195 133.132 49.3924 134.704 47.56 136.488C44.2825 139.686 41.6396 143.474 39.771 147.654C38.1225 151.315 37.1128 155.232 36.7855 159.233C36.7765 159.334 36.769 159.435 36.7615 159.535Z" fill="white"/>
<path d="M4.04178 136.724C4.04505 136.725 4.04863 136.726 4.0523 136.727C4.38217 136.787 4.71358 136.85 5.04198 136.918C7.73751 137.472 10.3762 138.273 12.9244 139.311C15.4659 140.349 17.9106 141.609 20.2299 143.077C22.5522 144.545 24.7421 146.212 26.7747 148.06C28.8074 149.905 30.672 151.928 32.3465 154.103C33.598 155.733 34.7359 157.447 35.7522 159.234C35.8094 159.333 35.8652 159.434 35.9209 159.535H36.4375C36.3833 159.434 36.3276 159.333 36.2704 159.234C35.0409 157.045 33.6311 154.963 32.0558 153.008C30.3136 150.845 28.3825 148.841 26.2852 147.021C24.2012 145.21 21.9646 143.583 19.6003 142.158C17.2261 140.728 14.73 139.51 12.1411 138.519C9.62879 137.559 7.03499 136.827 4.39122 136.332C4.31745 136.319 4.24515 136.305 4.1713 136.291C3.88968 136.24 3.76914 136.665 4.04178 136.724Z" fill="white"/>
<path d="M13.0275 152.447C16.1742 152.015 19.3698 152.087 22.4938 152.661C25.6086 153.23 28.6158 154.282 31.4069 155.777C32.9755 156.62 34.4642 157.604 35.8548 158.716C36.082 158.897 35.7604 159.215 35.5353 159.035C33.0952 157.094 30.3599 155.557 27.4334 154.481C24.53 153.407 21.4783 152.788 18.386 152.646C16.6362 152.565 14.8828 152.645 13.1476 152.883C13.0899 152.897 13.0291 152.888 12.9775 152.859C12.9259 152.83 12.8873 152.782 12.8696 152.725C12.8541 152.668 12.8619 152.606 12.8915 152.554C12.921 152.502 12.9699 152.464 13.0275 152.447Z" fill="white"/>
<path d="M155.288 30H66.4509C65.4028 30.0015 64.3981 30.4185 63.657 31.1596C62.9159 31.9007 62.4989 32.9054 62.4974 33.9535V69.5349C62.4989 70.583 62.9159 71.5877 63.657 72.3288C64.3981 73.0699 65.4028 73.4869 66.4509 73.4884H72.73V86.2791H72.9626C75.4905 86.2764 77.9142 85.271 79.7018 83.4834C81.4893 81.6959 82.4948 79.2722 82.4974 76.7442V73.4884H155.288C156.336 73.4869 157.341 73.0699 158.082 72.3288C158.823 71.5877 159.24 70.583 159.242 69.5349V33.9535C159.24 32.9054 158.823 31.9007 158.082 31.1596C157.341 30.4185 156.336 30.0015 155.288 30ZM158.777 69.5349C158.775 70.4597 158.408 71.3463 157.754 72.0003C157.1 72.6542 156.213 73.0221 155.288 73.0233H82.0323V76.7442C82.0291 79.1085 81.1042 81.3783 79.454 83.0715C77.8039 84.7646 75.5585 85.7476 73.1951 85.8116V73.0233H66.4509C65.5261 73.0221 64.6395 72.6542 63.9855 72.0003C63.3316 71.3463 62.9637 70.4597 62.9626 69.5349V33.9535C62.9637 33.0287 63.3316 32.142 63.9855 31.4881C64.6395 30.8341 65.5261 30.4662 66.4509 30.4651H155.288C156.213 30.4662 157.1 30.8341 157.754 31.4881C158.408 32.142 158.775 33.0287 158.777 33.9535V69.5349Z" fill="#3F3D56"/>
<path d="M137.73 38.9531H84.0091C83.2582 38.9536 82.5366 39.2446 81.9956 39.7653C81.4545 40.286 81.136 40.9958 81.1068 41.7462C81.1029 41.784 81.1013 41.8221 81.1021 41.8601C81.1032 42.6307 81.4098 43.3695 81.9548 43.9144C82.4997 44.4594 83.2385 44.766 84.0091 44.7671H137.73C138.501 44.7671 139.24 44.4608 139.786 43.9156C140.331 43.3705 140.637 42.6311 140.637 41.8601C140.637 41.0891 140.331 40.3497 139.786 39.8046C139.24 39.2594 138.501 38.9531 137.73 38.9531Z" fill="url(#paint0_linear_82_872)"/>
<path d="M137.73 48.7207H84.0091C83.2582 48.7211 82.5366 49.0122 81.9956 49.5329C81.4545 50.0535 81.136 50.7634 81.1068 51.5137C81.1029 51.5516 81.1013 51.5896 81.1021 51.6277C81.1032 52.3983 81.4098 53.1371 81.9548 53.682C82.4997 54.227 83.2385 54.5336 84.0091 54.5347H137.73C138.501 54.5347 139.24 54.2284 139.786 53.6832C140.331 53.1381 140.637 52.3987 140.637 51.6277C140.637 50.8567 140.331 50.1173 139.786 49.5721C139.24 49.027 138.501 48.7207 137.73 48.7207Z" fill="url(#paint1_linear_82_872)"/>
<path d="M137.73 58.4883H84.0091C83.2582 58.4887 82.5366 58.7798 81.9956 59.3004C81.4545 59.8211 81.136 60.531 81.1068 61.2813C81.1029 61.3192 81.1013 61.3572 81.1021 61.3953C81.1032 62.1659 81.4098 62.9047 81.9548 63.4496C82.4997 63.9945 83.2385 64.3012 84.0091 64.3022H137.73C138.501 64.3022 139.24 63.996 139.786 63.4508C140.331 62.9056 140.637 62.1662 140.637 61.3953C140.637 60.6243 140.331 59.8849 139.786 59.3397C139.24 58.7946 138.501 58.4883 137.73 58.4883Z" fill="url(#paint2_linear_82_872)"/>
<path d="M52.2618 109.935C52.1571 109.935 52.0525 109.929 51.9486 109.915C51.5908 109.872 51.2463 109.753 50.9376 109.566C50.629 109.38 50.3632 109.131 50.1577 108.834C49.9522 108.538 49.8116 108.202 49.7451 107.848C49.6786 107.493 49.6877 107.129 49.7719 106.778C49.7918 106.697 49.8159 106.617 49.8441 106.538L42.0849 96.6043C41.7433 96.1635 41.5529 95.6243 41.542 95.0668C41.5311 94.5092 41.7002 93.963 42.0243 93.5092L44.7423 89.7344L48.2947 92.475L46.8675 94.9267L52.5193 104.833C52.633 104.844 52.7457 104.862 52.8568 104.888C53.4657 105.035 53.9998 105.399 54.358 105.913C54.7161 106.427 54.8735 107.054 54.8001 107.676C54.7268 108.298 54.4279 108.871 53.9601 109.288C53.4923 109.704 52.8881 109.934 52.2618 109.935Z" fill="#A0616A"/>
<path d="M65.69 157.004L68.5412 157.004L69.8975 146.007L65.6896 146.007L65.69 157.004Z" fill="#A0616A"/>
<path d="M74.0398 159.651L65.0792 159.652L65.079 156.19L70.5776 156.189C71.0322 156.189 71.4824 156.279 71.9025 156.453C72.3225 156.627 72.7042 156.882 73.0257 157.203C73.3472 157.525 73.6022 157.906 73.7762 158.327C73.9502 158.747 74.0398 159.197 74.0398 159.651Z" fill="#2F2E41"/>
<path d="M42.2016 157.004L45.0528 157.004L46.4091 146.007L42.2012 146.007L42.2016 157.004Z" fill="#A0616A"/>
<path d="M50.5514 159.651L41.5908 159.652L41.5906 156.19L47.0892 156.189C47.5438 156.189 47.994 156.279 48.4141 156.453C48.8341 156.627 49.2158 156.882 49.5373 157.203C49.8588 157.525 50.1138 157.906 50.2878 158.327C50.4618 158.747 50.5514 159.197 50.5514 159.651Z" fill="#2F2E41"/>
<path d="M43.9515 90.2695L50.3526 92.7019L51.9154 88.3608C52.1229 87.7844 52.12 87.1531 51.9071 86.5786C51.6943 86.0042 51.2852 85.5234 50.7522 85.2214C50.213 84.9158 49.5823 84.8132 48.974 84.9319C48.3657 85.0507 47.82 85.383 47.4353 85.8689L43.9515 90.2695Z" fill="#2D1E2C"/>
<path d="M65.1831 148.126C64.9275 148.126 64.6793 148.041 64.4775 147.884C64.2757 147.727 64.1318 147.507 64.0685 147.26C60.8765 135.048 57.6355 128.927 54.1601 121.849C54.0732 121.673 53.9322 121.528 53.7578 121.438C53.5833 121.347 53.3844 121.314 53.19 121.344C52.9955 121.374 52.8158 121.465 52.6768 121.604C52.5378 121.744 52.4468 121.923 52.4171 122.118L48.1092 147.013C48.0662 147.291 47.9237 147.543 47.7083 147.724C47.4929 147.904 47.2192 148 46.9383 147.994L40.5426 147.838C40.3874 147.835 40.2345 147.8 40.0931 147.736C39.9517 147.672 39.8247 147.58 39.7199 147.466C39.6092 147.356 39.5244 147.223 39.472 147.076C39.4195 146.929 39.4006 146.773 39.4167 146.618C42.3134 127.514 44.5942 110.222 48.9802 104.947C49.1018 104.832 49.2411 104.737 49.3929 104.666L49.2599 104.646C49.2218 104.64 49.1205 104.624 49.1193 104.523L49.118 104.424L49.2181 104.405C49.3778 104.399 49.5372 104.423 49.6882 104.476L59.6985 106.016C59.9758 106.059 60.2281 106.201 60.4084 106.416C60.5887 106.631 60.6847 106.904 60.6785 107.185C61.2228 109.731 62.0567 113.573 62.1313 113.763C67.4722 123.917 69.5447 131.912 71.6988 145.566C71.7434 145.855 71.6768 146.151 71.5123 146.393C71.3479 146.636 71.0978 146.807 70.8123 146.872L65.4438 148.097C65.3583 148.116 65.2708 148.126 65.1831 148.126Z" fill="#2F2E41"/>
<path d="M59.5656 107.682C59.4757 107.682 59.3862 107.672 59.2988 107.651L49.4434 105.306C49.2923 105.271 49.1501 105.205 49.0255 105.113C48.9009 105.02 48.7965 104.903 48.7188 104.769C48.6386 104.63 48.5874 104.477 48.568 104.318C48.5487 104.158 48.5617 103.997 48.6063 103.843C49.669 100.158 48.2755 95.591 46.6112 91.2042C46.3995 89.9214 46.6069 88.6046 47.2025 87.4489C47.7982 86.2932 48.7504 85.3602 49.918 84.7883L49.9448 84.7754L55.1191 85.0366C55.9688 85.2593 56.7568 85.6718 57.4241 86.243C58.0914 86.8141 58.6206 87.5291 58.9719 88.3342C60.9662 93.0018 61.5373 98.9912 60.7174 106.645C60.6873 106.929 60.553 107.193 60.3404 107.384C60.1277 107.576 59.8517 107.682 59.5656 107.682Z" fill="#2D1E2C"/>
<path d="M60.8913 97.027C60.3652 97.0282 59.8519 96.865 59.4231 96.5603L55.6058 93.8396L58.3293 90.274L60.7879 91.6895L70.6673 85.9901C70.6772 85.8764 70.695 85.7636 70.7205 85.6524C70.8363 85.1599 71.0956 84.7127 71.4655 84.3675C71.8354 84.0224 72.2993 83.7946 72.7987 83.7131C73.298 83.6316 73.8103 83.7 74.2708 83.9096C74.7312 84.1193 75.1192 84.4608 75.3856 84.8909C75.652 85.321 75.7848 85.8205 75.7674 86.3262C75.7499 86.8318 75.5829 87.3209 75.2874 87.7316C74.992 88.1424 74.5814 88.4563 74.1075 88.6336C73.6337 88.811 73.1179 88.8439 72.6254 88.7281C72.5439 88.7085 72.4635 88.6848 72.3844 88.657L62.4602 96.4863C62.0128 96.8377 61.4602 97.0282 60.8913 97.027Z" fill="#A0616A"/>
<path d="M54.3949 94.9503L60.0574 91.0997L57.3962 87.3307C57.0429 86.8302 56.524 86.4707 55.9312 86.3158C55.3385 86.1609 54.71 86.2206 54.157 86.4842C53.5976 86.7508 53.1519 87.2087 52.9005 87.7752C52.6491 88.3417 52.6086 88.9794 52.7862 89.5731L54.3949 94.9503Z" fill="#2D1E2C"/>
<path d="M51.6716 82.8427C54.8262 82.8427 57.3835 80.2854 57.3835 77.1308C57.3835 73.9762 54.8262 71.4189 51.6716 71.4189C48.517 71.4189 45.9597 73.9762 45.9597 77.1308C45.9597 80.2854 48.517 82.8427 51.6716 82.8427Z" fill="#A0616A"/>
<path d="M52.195 82.9742C51.3377 82.9705 50.6763 82.0679 50.7148 81.2115C50.7532 80.355 51.3284 79.6015 52.0214 79.0968C52.7144 78.5922 53.5272 78.2848 54.3 77.9137C55.0729 77.5427 55.839 77.0798 56.3161 76.3676C56.6044 75.9014 56.7765 75.3729 56.8179 74.8263C56.8593 74.2798 56.7688 73.7313 56.5541 73.2271C56.1101 72.2185 55.3476 71.3833 54.3836 70.8493C52.9516 70.0111 51.2563 69.7431 49.6355 70.0986C48.0147 70.4542 46.5874 71.4073 45.6378 72.768L44.6591 75.4327C43.662 76.6318 43.5038 78.4125 44.1168 79.8465C44.7298 81.2806 46.035 82.3595 47.5077 82.8724C49.002 83.3526 50.6016 83.4006 52.1219 83.0108" fill="#2F2E41"/>
<path d="M46.0232 74.4222C45.6319 73.8188 45.0982 73.321 44.4691 72.9726C43.84 72.6242 43.1348 72.4359 42.4158 72.4244C41.6967 72.4128 40.9859 72.5784 40.3459 72.9064C39.7059 73.2344 39.1565 73.7149 38.746 74.3054C38.0589 75.2938 37.8094 76.5123 37.3369 77.6196C36.4812 79.6024 34.925 81.2005 32.9656 82.1086C34.6812 82.4103 36.3905 81.5375 37.7621 80.4636C39.1337 79.3898 40.34 78.0791 41.8762 77.2576C43.0846 76.6138 44.4422 76.302 45.8105 76.354" fill="#2F2E41"/>
<path d="M94.1006 160H5.49599C5.43431 160 5.37516 159.976 5.33154 159.932C5.28793 159.889 5.26343 159.829 5.26343 159.768C5.26343 159.706 5.28793 159.647 5.33154 159.603C5.37516 159.56 5.43431 159.535 5.49599 159.535H94.1006C94.1623 159.535 94.2215 159.56 94.2651 159.603C94.3087 159.647 94.3332 159.706 94.3332 159.768C94.3332 159.829 94.3087 159.889 94.2651 159.932C94.2215 159.976 94.1623 160 94.1006 160Z" fill="#3F3D56"/>
<path d="M205.288 85.1167C212.866 85.1167 219.009 78.9736 219.009 71.3957C219.009 63.8179 212.866 57.6748 205.288 57.6748C197.71 57.6748 191.567 63.8179 191.567 71.3957C191.567 78.9736 197.71 85.1167 205.288 85.1167Z" fill="#E6E6E6"/>
<path d="M206.597 81.1753C206.038 81.1597 205.342 81.1401 204.807 80.749C204.647 80.6277 204.516 80.4729 204.423 80.2956C204.329 80.1183 204.276 79.9227 204.266 79.7226C204.256 79.5803 204.28 79.4378 204.334 79.3061C204.389 79.1743 204.473 79.057 204.58 78.9633C204.74 78.8441 204.927 78.7668 205.124 78.7384C205.321 78.71 205.522 78.7315 205.709 78.8008L205.253 75.4668L205.588 75.4209L206.124 79.3404L205.845 79.2121C205.52 79.0634 205.075 78.9878 204.799 79.2214C204.731 79.2825 204.678 79.3584 204.644 79.4432C204.61 79.5281 204.597 79.6196 204.604 79.7106C204.612 79.8596 204.652 80.0051 204.722 80.1371C204.791 80.2692 204.888 80.3848 205.006 80.476C205.423 80.7805 205.977 80.8198 206.606 80.8374L206.597 81.1753Z" fill="#3F3D56"/>
<path d="M203.597 75.7539H201.776V76.0919H203.597V75.7539Z" fill="#3F3D56"/>
<path d="M209.343 75.7539H207.523V76.0919H209.343V75.7539Z" fill="#3F3D56"/>
<path d="M198.613 71.086C197.147 70.9189 196.012 69.5142 195.887 68.0889C195.739 66.3933 196.726 64.7829 198.081 63.8315C199.498 62.8364 201.263 62.4209 202.97 62.3295C206.302 62.1637 209.576 63.2428 212.156 65.3571C213.436 66.4199 214.631 67.7738 215.084 69.4091C215.477 70.8293 215.157 72.4382 214.015 73.4329C213.732 73.6766 213.402 73.8592 213.046 73.969C212.689 74.0788 212.313 74.1135 211.943 74.0709C211.056 73.9788 210.239 73.5128 209.531 72.9981C208.154 71.997 207.023 70.6023 205.346 70.0792C204.116 69.6956 202.52 70.0332 201.768 71.1455C201.597 71.4002 201.487 71.6902 201.445 71.9938C201.429 72.0585 201.439 72.1267 201.472 72.1846C201.505 72.2425 201.558 72.2858 201.622 72.3056C201.687 72.3231 201.756 72.3143 201.814 72.2811C201.873 72.248 201.915 72.1932 201.934 72.1286C202.131 70.7275 203.854 70.2048 205.063 70.5247C206.825 70.9912 208.008 72.564 209.454 73.5633C210.203 74.1215 211.085 74.4735 212.012 74.5842C212.816 74.6472 213.614 74.4022 214.244 73.8986C215.479 72.9231 215.951 71.2452 215.678 69.7346C215.362 67.9852 214.185 66.4859 212.893 65.3251C210.274 62.9968 206.873 61.7407 203.37 61.8072C201.583 61.8482 199.718 62.2172 198.178 63.1617C196.685 64.0779 195.531 65.6107 195.38 67.3925C195.247 68.9607 196.089 70.6011 197.533 71.2881C197.873 71.4494 198.239 71.5525 198.613 71.5931C198.937 71.63 198.934 71.1226 198.613 71.086Z" fill="#3F3D56"/>
</g>
<defs>
<linearGradient id="paint0_linear_82_872" x1="81.1019" y1="41.8601" x2="140.637" y2="41.8601" gradientUnits="userSpaceOnUse">
<stop stop-color="#22DCD9"/>
<stop offset="0.333333" stop-color="#5456AB"/>
<stop offset="0.666667" stop-color="#97238A"/>
<stop offset="1" stop-color="#F73E94"/>
</linearGradient>
<linearGradient id="paint1_linear_82_872" x1="81.1019" y1="51.6277" x2="140.637" y2="51.6277" gradientUnits="userSpaceOnUse">
<stop stop-color="#22DCD9"/>
<stop offset="0.333333" stop-color="#5456AB"/>
<stop offset="0.666667" stop-color="#97238A"/>
<stop offset="1" stop-color="#F73E94"/>
</linearGradient>
<linearGradient id="paint2_linear_82_872" x1="81.1019" y1="61.3953" x2="140.637" y2="61.3953" gradientUnits="userSpaceOnUse">
<stop stop-color="#22DCD9"/>
<stop offset="0.333333" stop-color="#5456AB"/>
<stop offset="0.666667" stop-color="#97238A"/>
<stop offset="1" stop-color="#F73E94"/>
</linearGradient>
<clipPath id="clip0_82_872">
<rect width="219.009" height="160" fill="white"/>
</clipPath>
</defs>
</svg>
