<svg width="260" height="145" viewBox="0 0 260 145" fill="none" xmlns="http://www.w3.org/2000/svg">
<g clip-path="url(#clip0_2642_1276)">
<path d="M39.7344 39.4032L45.5129 41.3084V32.9658H40.2699L39.7344 39.4032Z" fill="#EFA4A7"/>
<path d="M44.7966 35.2752C47.9766 35.2752 50.5546 32.6901 50.5546 29.5014C50.5546 26.3126 47.9766 23.7275 44.7966 23.7275C41.6165 23.7275 39.0386 26.3126 39.0386 29.5014C39.0386 32.6901 41.6165 35.2752 44.7966 35.2752Z" fill="#EFA4A7"/>
<path d="M43.2172 28.9303C44.1825 28.8996 44.8136 27.9247 45.1888 27.032C45.5641 26.1392 45.9495 25.1165 46.8432 24.7471C47.5732 24.4461 48.8626 26.4813 49.4425 25.9374C50.0429 25.373 49.4562 22.4724 48.8183 21.9491C48.1804 21.4258 47.3072 21.3266 46.4851 21.2889C44.4793 21.1966 42.4599 21.3574 40.4917 21.7712C39.2739 22.0244 38.022 22.4074 37.1454 23.2899C36.0333 24.4084 35.7502 26.0982 35.6683 27.675C35.5865 29.2895 35.6786 30.9792 36.4631 32.3919C37.2477 33.8046 38.885 34.8478 40.4542 34.4853C40.6111 33.6301 40.4542 32.7511 40.3894 31.8822C40.328 31.0134 40.3894 30.0762 40.9215 29.3819C41.4536 28.6875 42.5793 28.4173 43.1967 29.0296" fill="#36344E"/>
<path d="M36.1322 30.9314C35.5557 30.5072 34.8666 30.1549 34.1571 30.2404C33.3896 30.3328 32.7449 30.9656 32.5471 31.7147C32.3492 32.4638 32.5709 33.2881 33.0451 33.9004C33.5192 34.5126 34.2219 34.9163 34.969 35.1181C35.3988 35.2344 35.8729 35.2823 36.2823 35.1078C36.8894 34.8479 37.2135 34.0714 36.9781 33.4523" fill="#36344E"/>
<path d="M47.0547 132.223H41.6412V139.922H47.0547V132.223Z" fill="#EFA4A7"/>
<path d="M52.3283 144.585C52.898 144.585 53.4028 144.571 53.7848 144.537C55.2243 144.403 56.5956 143.34 57.2847 142.717C57.5951 142.437 57.694 141.992 57.5337 141.609C57.4177 141.332 57.1858 141.127 56.8992 141.044L53.0992 139.957L46.9455 135.794L46.8773 135.917C46.85 135.962 46.2462 137.053 46.045 137.792C45.9665 138.072 45.987 138.305 46.1064 138.486C46.1882 138.612 46.3008 138.684 46.3929 138.725C46.2803 138.842 45.9324 139.078 44.8579 139.252C43.2887 139.502 42.9579 137.87 42.9442 137.802L42.934 137.747L42.8862 137.716C42.1392 137.234 41.6787 137.015 41.5218 137.063C41.4229 137.094 41.2557 137.142 40.8123 141.585C40.7679 141.725 40.4541 142.748 40.669 143.723C40.9009 144.786 45.5333 144.42 46.4577 144.335C46.485 144.335 49.9541 144.585 52.3283 144.585Z" fill="#36344E"/>
<path d="M26.2294 126.17L22.1661 132.703L26.7595 135.576L30.8228 129.043L26.2294 126.17Z" fill="#EFA4A7"/>
<path d="M32.3288 143.527C32.9633 143.527 33.5466 143.452 33.9628 143.377C34.3721 143.305 34.6928 142.98 34.7576 142.566C34.8053 142.272 34.7167 141.974 34.5188 141.752L31.8683 138.814L28.8461 132.017L28.7233 132.086C28.6755 132.11 27.5874 132.715 27.0279 133.235C26.813 133.433 26.7073 133.642 26.7107 133.857C26.7107 134.008 26.7687 134.128 26.8267 134.213C26.6698 134.254 26.2502 134.268 25.2473 133.844C23.7839 133.225 24.3638 131.665 24.3911 131.6L24.4116 131.549L24.3877 131.497C24.0091 130.69 23.7362 130.263 23.5759 130.218C23.4769 130.191 23.3098 130.146 20.5877 133.676C20.4751 133.769 19.6701 134.473 19.3358 135.414C18.9708 136.44 23.0949 138.585 23.9238 139.005C23.9477 139.026 28.2662 142.173 30.0366 143.065C30.7393 143.421 31.5716 143.531 32.3289 143.531L32.3288 143.527Z" fill="#36344E"/>
<path d="M37.657 67.8242H52.8127L54.1874 81.9612L48.1701 134.196H40.4336L43.5275 104.027L30.9779 131.264L24.1011 126.438L33.9013 101.01C33.9013 101.01 30.4015 78.8588 33.1508 73.3415C35.9002 67.8242 37.657 67.8242 37.657 67.8242Z" fill="#36344E"/>
<path d="M30.1184 68.6867H54.1874L46.9661 37.4814H36.4802L30.1184 68.6867Z" fill="url(#paint0_linear_2642_1276)"/>
<path d="M60.1637 36.8694C60.5492 34.971 59.843 33.2368 58.5946 32.9973C57.3427 32.7579 56.0192 34.1022 55.6337 36.0005C55.47 36.7565 55.4938 37.5398 55.7087 38.2889L54.1874 46.351L58.1204 46.9735L59.2018 38.9593C59.6895 38.347 60.0204 37.6321 60.1637 36.8694Z" fill="#EFA4A7"/>
<path d="M36.736 37.4814H45.9836L52.2192 49.9834L54.5695 40.6146L59.7374 41.1653C59.7374 41.1653 58.5162 59.4719 53.1709 58.8528C47.8256 58.2337 35.3647 41.74 36.736 37.4814Z" fill="url(#paint1_linear_2642_1276)"/>
<path d="M26.4071 85.0329C26.0216 86.9313 26.7277 88.6655 27.9762 88.9049C29.2281 89.1443 30.5516 87.8001 30.9371 85.9017C31.1008 85.1458 31.0769 84.3625 30.862 83.6134L32.3834 75.5513L28.4504 74.9287L27.369 82.943C26.8812 83.5552 26.5504 84.2701 26.4071 85.0329Z" fill="#EFA4A7"/>
<path d="M42.0062 37.4816C42.0062 37.4816 36.7496 37.2593 36.4768 37.4816C35.0441 38.6583 26.6288 81.0383 26.6288 81.0383H31.957L42.0028 37.4816H42.0062Z" fill="url(#paint2_linear_2642_1276)"/>
<path d="M85.166 144.593C85.166 144.818 84.9852 145 84.7601 145H0.405926C0.180801 145 0 144.818 0 144.593C0 144.367 0.180801 144.186 0.405926 144.186H84.7601C84.9852 144.186 85.166 144.367 85.166 144.593Z" fill="#484565"/>
<path d="M130.888 18.2998H60.2776V38.4808H130.888V18.2998Z" fill="#D5D5D5"/>
<path d="M66.5881 22.5752H77.2845" stroke="black" stroke-width="2" stroke-miterlimit="10"/>
<path d="M66.5881 28.3906H124.236" stroke="black" stroke-width="2" stroke-miterlimit="10"/>
<path d="M141.359 28.3906H155.499" stroke="black" stroke-width="2" stroke-miterlimit="10"/>
<path d="M66.5881 33.1289H91.7046" stroke="black" stroke-width="2" stroke-miterlimit="10"/>
<path d="M66.5881 62.5957H103.94" stroke="black" stroke-width="2" stroke-miterlimit="10"/>
<path d="M66.5881 68.4102H98.1412" stroke="black" stroke-width="2" stroke-miterlimit="10"/>
<path d="M66.5881 73.1494H91.7046" stroke="black" stroke-width="2" stroke-miterlimit="10"/>
<path d="M66.5881 42.9971H100.966" stroke="black" stroke-width="2" stroke-miterlimit="10"/>
<path d="M66.5881 47.9307H124.236" stroke="black" stroke-width="2" stroke-miterlimit="10"/>
<path d="M66.5881 53.4453H91.7046" stroke="black" stroke-width="2" stroke-miterlimit="10"/>
<path d="M133.447 0V99.5367" stroke="black" stroke-width="2" stroke-miterlimit="10"/>
<path d="M141.359 39.5068H239.322" stroke="black" stroke-width="2" stroke-miterlimit="10"/>
<path d="M141.359 45.6729H198.599" stroke="black" stroke-width="2" stroke-miterlimit="10"/>
<path d="M141.359 50.7949H207.002" stroke="black" stroke-width="2" stroke-miterlimit="10"/>
<path d="M141.359 56.4766H260" stroke="black" stroke-width="2" stroke-miterlimit="10"/>
</g>
<defs>
<linearGradient id="paint0_linear_2642_1276" x1="37" y1="38" x2="42.1529" y2="68.6867" gradientUnits="userSpaceOnUse">
<stop stop-color="#F73E94"/>
<stop offset="1" stop-color="#97238A"/>
</linearGradient>
<linearGradient id="paint1_linear_2642_1276" x1="42.0685" y1="37.4814" x2="54.3002" y2="58.8681" gradientUnits="userSpaceOnUse">
<stop stop-color="#F73E94"/>
<stop offset="1" stop-color="#97238A"/>
</linearGradient>
<linearGradient id="paint2_linear_2642_1276" x1="41.4099" y1="37.389" x2="36" y2="65.5" gradientUnits="userSpaceOnUse">
<stop stop-color="#F73E94"/>
<stop offset="1" stop-color="#97238A"/>
</linearGradient>
<clipPath id="clip0_2642_1276">
<rect width="260" height="145" fill="white"/>
</clipPath>
</defs>
</svg>
