<svg width="251" height="160" viewBox="0 0 251 160" fill="none" xmlns="http://www.w3.org/2000/svg">
<g clip-path="url(#clip0_82_944)">
<path d="M37.6449 43.692C38.062 39.2002 39.214 34.8074 41.0548 30.689C41.5678 29.5429 42.1325 28.422 42.7488 27.3263C42.7797 27.269 42.7872 27.202 42.7696 27.1393C42.752 27.0766 42.7107 27.0232 42.6545 26.9904C42.5983 26.9575 42.5316 26.9478 42.4683 26.9632C42.4051 26.9786 42.3503 27.018 42.3155 27.0731C40.0742 31.0637 38.504 35.3956 37.6677 39.8955C37.435 41.1521 37.2602 42.4176 37.1431 43.692C37.1134 44.0134 37.6154 44.0114 37.6449 43.692Z" fill="#E6E6E6"/>
<path d="M43.9642 28.1308C45.7195 28.1308 47.1424 26.7079 47.1424 24.9526C47.1424 23.1973 45.7195 21.7744 43.9642 21.7744C42.2089 21.7744 40.786 23.1973 40.786 24.9526C40.786 26.7079 42.2089 28.1308 43.9642 28.1308Z" fill="#E6E6E6"/>
<path d="M37.9701 43.7763C38.2406 40.8623 38.9879 38.0125 40.1822 35.3407C40.515 34.5971 40.8813 33.87 41.2812 33.1592C41.3012 33.122 41.3061 33.0785 41.2946 33.0378C41.2832 32.9972 41.2565 32.9625 41.22 32.9412C41.1836 32.9199 41.1402 32.9136 41.0992 32.9236C41.0582 32.9336 41.0226 32.9591 41.0001 32.9949C39.546 35.5838 38.5273 38.3941 37.9848 41.3134C37.8339 42.1286 37.7204 42.9496 37.6445 43.7763C37.6252 43.9849 37.9509 43.9835 37.9701 43.7763Z" fill="#E6E6E6"/>
<path d="M42.0697 33.6813C43.2084 33.6813 44.1315 32.7582 44.1315 31.6195C44.1315 30.4807 43.2084 29.5576 42.0697 29.5576C40.9309 29.5576 40.0078 30.4807 40.0078 31.6195C40.0078 32.7582 40.9309 33.6813 42.0697 33.6813Z" fill="#E6E6E6"/>
<path d="M37.5591 43.5818C35.9801 41.1177 34.8166 38.411 34.1149 35.5698C33.92 34.7788 33.7616 33.9802 33.6397 33.1738C33.6326 33.1321 33.6097 33.0949 33.5757 33.0698C33.5417 33.0448 33.4992 33.0339 33.4574 33.0395C33.4155 33.0452 33.3775 33.0668 33.3513 33.0999C33.3251 33.1331 33.3128 33.1751 33.317 33.2171C33.7628 36.1528 34.6881 38.9952 36.0558 41.6307C36.4383 42.3663 36.8538 43.0834 37.3024 43.782C37.4155 43.9583 37.6714 43.7569 37.5591 43.5818Z" fill="#E6E6E6"/>
<path d="M33.3144 33.5368C34.4531 33.5368 35.3763 32.6137 35.3763 31.4749C35.3763 30.3362 34.4531 29.4131 33.3144 29.4131C32.1757 29.4131 31.2526 30.3362 31.2526 31.4749C31.2526 32.6137 32.1757 33.5368 33.3144 33.5368Z" fill="#E6E6E6"/>
<path d="M31.2294 45.4062V41.3551C31.2298 40.9523 31.39 40.5662 31.6748 40.2814C31.9596 39.9966 32.3458 39.8364 32.7485 39.8359H42.201C42.6038 39.8364 42.9899 39.9966 43.2747 40.2814C43.5595 40.5662 43.7197 40.9523 43.7202 41.3551V45.4062C43.7197 45.8089 43.5595 46.1951 43.2747 46.4799C42.9899 46.7647 42.6038 46.9249 42.201 46.9253H32.7485C32.3458 46.9249 31.9596 46.7647 31.6748 46.4799C31.39 46.1951 31.2298 45.8089 31.2294 45.4062Z" fill="#F2F2F2"/>
<path d="M41.8634 19.5802H37.8124C37.4096 19.5797 37.0235 19.4195 36.7387 19.1347C36.4539 18.8499 36.2937 18.4638 36.2932 18.061V1.51915C36.2937 1.11639 36.4539 0.730248 36.7387 0.44545C37.0235 0.160653 37.4096 0.000453909 37.8124 0H41.8634C42.2662 0.000453909 42.6523 0.160653 42.9371 0.44545C43.2219 0.730248 43.3821 1.11639 43.3826 1.51915V18.061C43.3821 18.4638 43.2219 18.8499 42.9371 19.1347C42.6523 19.4195 42.2662 19.5797 41.8634 19.5802Z" fill="#F2F2F2"/>
<path d="M43.2138 3.20703H36.462V4.55739H43.2138V3.20703Z" fill="#CCCCCC"/>
<path d="M43.2138 13.6729H36.462V15.0232H43.2138V13.6729Z" fill="#CCCCCC"/>
<path d="M51.9911 19.5802H47.9401C47.5373 19.5797 47.1512 19.4195 46.8664 19.1347C46.5816 18.8499 46.4214 18.4638 46.4209 18.061V1.51915C46.4214 1.11639 46.5816 0.730248 46.8664 0.44545C47.1512 0.160653 47.5373 0.000453909 47.9401 0H51.9911C52.3939 0.000453909 52.78 0.160653 53.0648 0.44545C53.3496 0.730248 53.5098 1.11639 53.5103 1.51915V18.061C53.5098 18.4638 53.3496 18.8499 53.0648 19.1347C52.78 19.4195 52.3939 19.5797 51.9911 19.5802Z" fill="#F2F2F2"/>
<path d="M53.3415 3.20703H46.5897V4.55739H53.3415V3.20703Z" fill="#CCCCCC"/>
<path d="M53.3415 13.6729H46.5897V15.0232H53.3415V13.6729Z" fill="#CCCCCC"/>
<path d="M62.1188 19.5802H58.0677C57.665 19.5797 57.2788 19.4195 56.994 19.1347C56.7092 18.8499 56.549 18.4638 56.5486 18.061V1.51915C56.549 1.11639 56.7092 0.730248 56.994 0.44545C57.2788 0.160653 57.665 0.000453909 58.0677 0H62.1188C62.5216 0.000453909 62.9077 0.160653 63.1925 0.44545C63.4773 0.730248 63.6375 1.11639 63.638 1.51915V18.061C63.6375 18.4638 63.4773 18.8499 63.1925 19.1347C62.9077 19.4195 62.5216 19.5797 62.1188 19.5802Z" fill="#F2F2F2"/>
<path d="M63.4692 3.20703H56.7174V4.55739H63.4692V3.20703Z" fill="#CCCCCC"/>
<path d="M63.4692 13.6729H56.7174V15.0232H63.4692V13.6729Z" fill="#CCCCCC"/>
<path d="M67.5202 46.9249H63.4691C63.0663 46.9245 62.6802 46.7643 62.3954 46.4795C62.1106 46.1947 61.9504 45.8085 61.95 45.4058V28.8639C61.9504 28.4611 62.1106 28.075 62.3954 27.7902C62.6802 27.5054 63.0663 27.3452 63.4691 27.3447H67.5202C67.9229 27.3452 68.3091 27.5054 68.5939 27.7902C68.8787 28.075 69.0389 28.4611 69.0393 28.8639V45.4058C69.0389 45.8085 68.8787 46.1947 68.5939 46.4795C68.3091 46.7643 67.9229 46.9245 67.5202 46.9249Z" fill="#F2F2F2"/>
<path d="M68.8706 30.5518H62.1188V31.9021H68.8706V30.5518Z" fill="#CCCCCC"/>
<path d="M68.8706 41.0176H62.1188V42.3679H68.8706V41.0176Z" fill="#CCCCCC"/>
<path d="M77.6479 46.9249H73.5968C73.194 46.9245 72.8079 46.7643 72.5231 46.4795C72.2383 46.1947 72.0781 45.8085 72.0776 45.4058V28.8639C72.0781 28.4611 72.2383 28.075 72.5231 27.7902C72.8079 27.5054 73.194 27.3452 73.5968 27.3447H77.6479C78.0506 27.3452 78.4368 27.5054 78.7216 27.7902C79.0064 28.075 79.1666 28.4611 79.167 28.8639V45.4058C79.1666 45.8085 79.0064 46.1947 78.7216 46.4795C78.4368 46.7643 78.0506 46.9245 77.6479 46.9249Z" fill="#F2F2F2"/>
<path d="M78.9982 30.5518H72.2465V31.9021H78.9982V30.5518Z" fill="#CCCCCC"/>
<path d="M78.9982 41.0176H72.2465V42.3679H78.9982V41.0176Z" fill="#CCCCCC"/>
<path d="M87.7755 46.9249H83.7245C83.3217 46.9245 82.9356 46.7643 82.6508 46.4795C82.366 46.1947 82.2058 45.8085 82.2053 45.4058V28.8639C82.2058 28.4611 82.366 28.075 82.6508 27.7902C82.9356 27.5054 83.3217 27.3452 83.7245 27.3447H87.7755C88.1783 27.3452 88.5645 27.5054 88.8493 27.7902C89.1341 28.075 89.2942 28.4611 89.2947 28.8639V45.4058C89.2942 45.8085 89.1341 46.1947 88.8493 46.4795C88.5645 46.7643 88.1783 46.9245 87.7755 46.9249Z" fill="#F2F2F2"/>
<path d="M89.1259 30.5518H82.3741V31.9021H89.1259V30.5518Z" fill="#CCCCCC"/>
<path d="M89.1259 41.0176H82.3741V42.3679H89.1259V41.0176Z" fill="#CCCCCC"/>
<path d="M40.8506 74.2696H36.7995C36.3968 74.2692 36.0106 74.109 35.7259 73.8242C35.4411 73.5394 35.2808 73.1532 35.2804 72.7505V56.2086C35.2808 55.8058 35.4411 55.4197 35.7259 55.1349C36.0106 54.8501 36.3968 54.6899 36.7995 54.6895H40.8506C41.2534 54.6899 41.6395 54.8501 41.9243 55.1349C42.2091 55.4197 42.3693 55.8058 42.3698 56.2086V72.7505C42.3693 73.1532 42.2091 73.5394 41.9243 73.8242C41.6395 74.109 41.2534 74.2692 40.8506 74.2696Z" fill="#F2F2F2"/>
<path d="M42.201 57.8965H35.4492V59.2468H42.201V57.8965Z" fill="#CCCCCC"/>
<path d="M42.201 68.3623H35.4492V69.7127H42.201V68.3623Z" fill="#CCCCCC"/>
<path d="M50.9783 74.2696H46.9272C46.5245 74.2692 46.1383 74.109 45.8535 73.8242C45.5687 73.5394 45.4085 73.1532 45.4081 72.7505V56.2086C45.4085 55.8058 45.5687 55.4197 45.8535 55.1349C46.1383 54.8501 46.5245 54.6899 46.9272 54.6895H50.9783C51.3811 54.6899 51.7672 54.8501 52.052 55.1349C52.3368 55.4197 52.497 55.8058 52.4975 56.2086V72.7505C52.497 73.1532 52.3368 73.5394 52.052 73.8242C51.7672 74.109 51.3811 74.2692 50.9783 74.2696Z" fill="#F2F2F2"/>
<path d="M52.3287 57.8965H45.5769V59.2468H52.3287V57.8965Z" fill="#CCCCCC"/>
<path d="M52.3287 68.3623H45.5769V69.7127H52.3287V68.3623Z" fill="#CCCCCC"/>
<path d="M61.106 74.2696H57.0549C56.6522 74.2692 56.266 74.109 55.9812 73.8242C55.6964 73.5394 55.5362 73.1532 55.5358 72.7505V56.2086C55.5362 55.8058 55.6964 55.4197 55.9812 55.1349C56.266 54.8501 56.6522 54.6899 57.0549 54.6895H61.106C61.5088 54.6899 61.8949 54.8501 62.1797 55.1349C62.4645 55.4197 62.6247 55.8058 62.6251 56.2086V72.7505C62.6247 73.1532 62.4645 73.5394 62.1797 73.8242C61.8949 74.109 61.5088 74.2692 61.106 74.2696Z" fill="#F2F2F2"/>
<path d="M62.4564 57.8965H55.7046V59.2468H62.4564V57.8965Z" fill="#CCCCCC"/>
<path d="M62.4564 68.3623H55.7046V69.7127H62.4564V68.3623Z" fill="#CCCCCC"/>
<path d="M72.2465 19.5802H68.1954C67.7927 19.5797 67.4065 19.4195 67.1217 19.1347C66.8369 18.8499 66.6767 18.4638 66.6763 18.061V1.51915C66.6767 1.11639 66.8369 0.730248 67.1217 0.44545C67.4065 0.160653 67.7927 0.000453909 68.1954 0H72.2465C72.6493 0.000453909 73.0354 0.160653 73.3202 0.44545C73.605 0.730248 73.7652 1.11639 73.7656 1.51915V18.061C73.7652 18.4638 73.605 18.8499 73.3202 19.1347C73.0354 19.4195 72.6493 19.5797 72.2465 19.5802Z" fill="#F2F2F2"/>
<path d="M73.5969 3.20703H66.8451V4.55739H73.5969V3.20703Z" fill="#CCCCCC"/>
<path d="M73.5969 13.6729H66.8451V15.0232H73.5969V13.6729Z" fill="#CCCCCC"/>
<path d="M82.3742 19.5802H78.3231C77.9203 19.5797 77.5342 19.4195 77.2494 19.1347C76.9646 18.8499 76.8044 18.4638 76.804 18.061V1.51915C76.8044 1.11639 76.9646 0.730248 77.2494 0.44545C77.5342 0.160653 77.9203 0.000453909 78.3231 0H82.3742C82.7769 0.000453909 83.1631 0.160653 83.4479 0.44545C83.7327 0.730248 83.8929 1.11639 83.8933 1.51915V18.061C83.8929 18.4638 83.7327 18.8499 83.4479 19.1347C83.1631 19.4195 82.7769 19.5797 82.3742 19.5802Z" fill="#F2F2F2"/>
<path d="M83.7246 3.20703H76.9728V4.55739H83.7246V3.20703Z" fill="#CCCCCC"/>
<path d="M83.7246 13.6729H76.9728V15.0232H83.7246V13.6729Z" fill="#CCCCCC"/>
<path d="M92.5019 19.5802H88.4508C88.048 19.5797 87.6619 19.4195 87.3771 19.1347C87.0923 18.8499 86.9321 18.4638 86.9316 18.061V1.51915C86.9321 1.11639 87.0923 0.730248 87.3771 0.44545C87.6619 0.160653 88.048 0.000453909 88.4508 0H92.5019C92.9046 0.000453909 93.2908 0.160653 93.5756 0.44545C93.8604 0.730248 94.0206 1.11639 94.021 1.51915V18.061C94.0206 18.4638 93.8604 18.8499 93.5756 19.1347C93.2908 19.4195 92.9046 19.5797 92.5019 19.5802Z" fill="#F2F2F2"/>
<path d="M93.8523 3.20703H87.1005V4.55739H93.8523V3.20703Z" fill="#CCCCCC"/>
<path d="M93.8523 13.6729H87.1005V15.0232H93.8523V13.6729Z" fill="#CCCCCC"/>
<path d="M102.63 19.5802H98.5785C98.1757 19.5797 97.7896 19.4195 97.5048 19.1347C97.22 18.8499 97.0598 18.4638 97.0593 18.061V1.51915C97.0598 1.11639 97.22 0.730248 97.5048 0.44545C97.7896 0.160653 98.1757 0.000453909 98.5785 0H102.63C103.032 0.000453909 103.418 0.160653 103.703 0.44545C103.988 0.730248 104.148 1.11639 104.149 1.51915V18.061C104.148 18.4638 103.988 18.8499 103.703 19.1347C103.418 19.4195 103.032 19.5797 102.63 19.5802Z" fill="#F2F2F2"/>
<path d="M103.98 3.20703H97.2281V4.55739H103.98V3.20703Z" fill="#CCCCCC"/>
<path d="M103.98 13.6729H97.2281V15.0232H103.98V13.6729Z" fill="#CCCCCC"/>
<path d="M117.801 20.0863H21.5881C21.4985 20.0863 21.4127 20.0507 21.3494 19.9874C21.2861 19.9241 21.2505 19.8383 21.2505 19.7487C21.2505 19.6592 21.2861 19.5733 21.3494 19.51C21.4127 19.4467 21.4985 19.4111 21.5881 19.4111H117.801C117.891 19.4111 117.976 19.4467 118.04 19.51C118.103 19.5733 118.139 19.6592 118.139 19.7487C118.139 19.8383 118.103 19.9241 118.04 19.9874C117.976 20.0507 117.891 20.0863 117.801 20.0863Z" fill="#CCCCCC"/>
<path d="M117.801 47.431H21.5881C21.4985 47.431 21.4127 47.3955 21.3494 47.3322C21.2861 47.2688 21.2505 47.183 21.2505 47.0934C21.2505 47.0039 21.2861 46.918 21.3494 46.8547C21.4127 46.7914 21.4985 46.7559 21.5881 46.7559H117.801C117.891 46.7559 117.976 46.7914 118.04 46.8547C118.103 46.918 118.139 47.0039 118.139 47.0934C118.139 47.183 118.103 47.2688 118.04 47.3322C117.976 47.3955 117.891 47.431 117.801 47.431Z" fill="#CCCCCC"/>
<path d="M117.801 74.7758H21.5881C21.4985 74.7758 21.4127 74.7402 21.3494 74.6769C21.2861 74.6136 21.2505 74.5277 21.2505 74.4382C21.2505 74.3486 21.2861 74.2628 21.3494 74.1995C21.4127 74.1361 21.4985 74.1006 21.5881 74.1006H117.801C117.891 74.1006 117.976 74.1361 118.04 74.1995C118.103 74.2628 118.139 74.3486 118.139 74.4382C118.139 74.5277 118.103 74.6136 118.04 74.6769C117.976 74.7402 117.891 74.7758 117.801 74.7758Z" fill="#CCCCCC"/>
<path d="M112.103 127.771C112.103 125.161 102.279 123.045 90.16 123.045C78.0411 123.045 68.2167 125.161 68.2167 127.771C68.2167 129.444 72.2557 130.913 78.3444 131.753V157.648C78.3444 158.23 78.5755 158.788 78.9871 159.199C79.3986 159.611 79.9567 159.842 80.5387 159.842C81.1207 159.842 81.6788 159.611 82.0903 159.199C82.5018 158.788 82.733 158.23 82.733 157.648V132.219C85.053 132.399 87.5527 132.497 90.16 132.497C92.7672 132.497 95.267 132.399 97.587 132.219V157.648C97.587 158.23 97.8181 158.788 98.2297 159.199C98.6412 159.611 99.1993 159.842 99.7813 159.842C100.363 159.842 100.921 159.611 101.333 159.199C101.744 158.788 101.976 158.23 101.976 157.648V131.753C108.064 130.913 112.103 129.444 112.103 127.771Z" fill="#CCCCCC"/>
<path d="M107.881 155.597H112.02L113.989 139.633H107.88L107.881 155.597Z" fill="#A0616A"/>
<path d="M120.002 159.439L106.994 159.44L106.994 154.414L114.976 154.414C116.309 154.414 117.587 154.943 118.53 155.886C119.472 156.828 120.002 158.107 120.002 159.439Z" fill="#2F2E41"/>
<path d="M114.342 153.287L118.291 152.048L115.39 136.227L109.562 138.055L114.342 153.287Z" fill="#A0616A"/>
<path d="M127.057 153.324L114.646 157.219L113.142 152.424L120.757 150.034C122.029 149.635 123.407 149.757 124.589 150.374C125.77 150.991 126.658 152.052 127.057 153.324Z" fill="#2F2E41"/>
<path d="M111.573 145.939L104.002 126.065C102.303 126.464 88.0585 129.616 83.2876 124.536C81.6526 122.795 81.3337 120.273 82.3398 117.039L85.1241 113.54L85.2106 113.545C86.2634 113.6 111.014 114.987 112.711 122.453C114.142 128.747 116.754 140.482 117.521 143.929C117.599 144.286 117.545 144.659 117.371 144.981C117.197 145.302 116.913 145.55 116.571 145.679L113.526 146.821C113.356 146.884 113.177 146.917 112.995 146.917C112.687 146.917 112.386 146.824 112.132 146.649C111.878 146.474 111.683 146.227 111.573 145.939Z" fill="#2F2E41"/>
<path d="M107.184 148.302L99.6131 128.428C97.9144 128.827 83.6699 131.979 78.899 126.899C77.2639 125.158 76.945 122.636 77.9511 119.402L80.7354 115.903L80.822 115.908C81.8747 115.963 106.626 117.351 108.322 124.816C109.753 131.111 112.366 142.846 113.132 146.292C113.21 146.649 113.157 147.023 112.982 147.344C112.808 147.665 112.524 147.913 112.182 148.042L109.137 149.184C108.968 149.248 108.788 149.28 108.607 149.28C108.298 149.28 107.998 149.187 107.744 149.012C107.49 148.838 107.295 148.59 107.184 148.302Z" fill="#2F2E41"/>
<path d="M117.416 100.661C117.304 100.811 117.204 100.969 117.117 101.134L100.467 102.888L98.0705 99.6024L92.6384 102.571L97.3459 110.546L117.766 105.339C118.281 105.841 118.937 106.175 119.646 106.295C120.356 106.416 121.085 106.317 121.737 106.013C122.389 105.709 122.933 105.214 123.297 104.593C123.66 103.972 123.826 103.255 123.773 102.538C123.719 101.82 123.448 101.136 122.996 100.576C122.544 100.016 121.933 99.6075 121.243 99.4038C120.552 99.2001 119.817 99.2113 119.133 99.4359C118.45 99.6605 117.851 100.088 117.416 100.661Z" fill="#A0616A"/>
<path d="M77.844 120.452C77.6161 120.288 77.4382 120.064 77.3298 119.805C77.2214 119.546 77.1869 119.262 77.23 118.984C78.1694 112.792 77.0886 103.921 76.0165 97.57C75.7971 96.2813 75.8824 94.9592 76.2659 93.7095C76.6493 92.4597 77.32 91.3172 78.2244 90.3733C79.1288 89.4295 80.2417 88.7106 81.4739 88.2742C82.7061 87.8378 84.0234 87.696 85.3202 87.8603C86.4485 88.0093 87.5663 88.2297 88.6667 88.52C90.4947 88.9803 92.1116 90.0489 93.2516 91.5501C94.3917 93.0512 94.987 94.8956 94.9398 96.78C94.7795 102.909 96.0239 110.556 96.5664 113.559C96.6035 113.765 96.5976 113.977 96.5491 114.181C96.5007 114.384 96.4108 114.576 96.285 114.744C96.1616 114.91 96.0049 115.048 95.8249 115.15C95.645 115.251 95.4457 115.314 95.24 115.335C89.2282 115.948 82.7451 118.88 79.4156 120.573C79.2017 120.683 78.9645 120.741 78.7237 120.742C78.4072 120.741 78.0992 120.639 77.844 120.452Z" fill="url(#paint0_linear_82_944)"/>
<path d="M94.0722 104.48C93.8864 104.407 93.7169 104.298 93.5736 104.159C93.4303 104.02 93.3159 103.854 93.2372 103.67L89.8844 95.9253C89.6814 95.4573 89.5726 94.9539 89.5642 94.4439C89.5559 93.9339 89.6481 93.4272 89.8356 92.9529C90.0232 92.4785 90.3024 92.0458 90.6572 91.6794C91.0121 91.313 91.4357 91.0201 91.9038 90.8174C92.372 90.6148 92.8754 90.5065 93.3855 90.4985C93.8955 90.4906 94.4021 90.5832 94.8763 90.7712C95.3505 90.9591 95.783 91.2386 96.1491 91.5938C96.5152 91.949 96.8077 92.3729 97.01 92.8411L100.363 100.586C100.522 100.956 100.529 101.374 100.38 101.748C100.232 102.123 99.9415 102.423 99.5722 102.584L95.2348 104.461C95.0519 104.541 94.855 104.584 94.6554 104.587C94.4558 104.59 94.2576 104.554 94.0722 104.48Z" fill="url(#paint1_linear_82_944)"/>
<path d="M101.549 99.9864C101.437 100.136 101.337 100.294 101.251 100.46L84.6005 102.214L82.2038 98.9276L76.7717 101.897L81.4792 109.871L101.899 104.664C102.414 105.167 103.07 105.5 103.78 105.621C104.489 105.741 105.218 105.643 105.87 105.338C106.522 105.034 107.066 104.539 107.43 103.918C107.794 103.297 107.96 102.58 107.906 101.863C107.852 101.145 107.582 100.461 107.13 99.9015C106.678 99.3417 106.066 98.9327 105.376 98.729C104.686 98.5253 103.95 98.5365 103.266 98.7611C102.583 98.9857 101.984 99.4131 101.549 99.9864Z" fill="#A0616A"/>
<path d="M78.2055 104.818C78.0197 104.745 77.8502 104.636 77.7069 104.497C77.5636 104.358 77.4492 104.192 77.3705 104.008L74.0177 96.2632C73.8147 95.7952 73.7059 95.2918 73.6975 94.7818C73.6892 94.2718 73.7814 93.7651 73.969 93.2908C74.1565 92.8164 74.4357 92.3837 74.7905 92.0172C75.1454 91.6508 75.569 91.358 76.0371 91.1553C76.5053 90.9527 77.0087 90.8444 77.5188 90.8364C78.0288 90.8285 78.5354 90.9211 79.0096 91.1091C79.4838 91.297 79.9163 91.5765 80.2824 91.9317C80.6485 92.2869 80.9411 92.7107 81.1433 93.179L84.4961 100.924C84.6556 101.294 84.6619 101.712 84.5137 102.086C84.3655 102.461 84.0748 102.761 83.7055 102.922L79.3681 104.799C79.1852 104.879 78.9883 104.922 78.7887 104.925C78.5891 104.928 78.3909 104.892 78.2055 104.818Z" fill="url(#paint2_linear_82_944)"/>
<path d="M84.7033 85.2247C89.2826 85.2247 92.9948 81.5124 92.9948 76.9331C92.9948 72.3539 89.2826 68.6416 84.7033 68.6416C80.124 68.6416 76.4117 72.3539 76.4117 76.9331C76.4117 81.5124 80.124 85.2247 84.7033 85.2247Z" fill="#A0616A"/>
<path d="M78.7751 82.6239C78.7395 82.5198 78.7282 82.409 78.7421 82.2999C78.756 82.1908 78.7946 82.0863 78.8551 81.9944C78.9156 81.9026 78.9963 81.8258 79.0911 81.7699C79.1858 81.7141 79.2921 81.6807 79.4018 81.6722C79.6263 81.6844 79.8461 81.742 80.0478 81.8415C80.2495 81.9411 80.4289 82.0804 80.5752 82.2512C80.8753 82.5972 81.2247 82.8971 81.612 83.1414C82.0131 83.3436 82.5571 83.3148 82.7858 82.9294C83.0005 82.5674 82.8534 82.0827 82.7234 81.6622C82.3926 80.5925 82.2075 79.4831 82.1732 78.364C82.1357 77.1148 82.312 75.8111 83.0035 74.8368C83.8961 73.5794 85.492 73.102 87.0024 73.1366C88.5128 73.1712 89.9987 73.6375 91.4948 73.9322C92.0113 74.0339 92.6183 74.086 92.9638 73.6857C93.3311 73.26 93.1962 72.5712 93.04 71.9965C92.6345 70.5052 92.2044 68.9634 91.2625 67.759C90.244 66.5075 88.7891 65.6884 87.1909 65.4667C85.6565 65.2766 84.0989 65.4534 82.6461 65.9826C80.2792 66.7287 78.1965 68.1795 76.6766 70.1413C75.1097 72.2275 74.4327 74.8492 74.7935 77.4333C75.146 79.6838 76.3385 81.7171 78.1308 83.1232L78.7751 82.6239Z" fill="#2F2E41"/>
<path d="M47.116 102.586C47.5331 98.0938 48.685 93.701 50.5258 89.5825C51.0389 88.4364 51.6036 87.3155 52.2199 86.2199C52.2508 86.1626 52.2582 86.0955 52.2407 86.0329C52.2231 85.9702 52.1818 85.9168 52.1256 85.8839C52.0694 85.8511 52.0026 85.8413 51.9394 85.8568C51.8761 85.8722 51.8214 85.9116 51.7866 85.9666C49.5452 89.9572 47.975 94.2891 47.1387 98.789C46.9061 100.046 46.7312 101.311 46.6142 102.586C46.5844 102.907 47.0864 102.905 47.116 102.586Z" fill="#3F3D56"/>
<path d="M53.4353 87.0244C55.1906 87.0244 56.6135 85.6014 56.6135 83.8462C56.6135 82.0909 55.1906 80.668 53.4353 80.668C51.68 80.668 50.2571 82.0909 50.2571 83.8462C50.2571 85.6014 51.68 87.0244 53.4353 87.0244Z" fill="url(#paint3_linear_82_944)"/>
<path d="M47.4411 102.67C47.7117 99.7559 48.459 96.906 49.6532 94.2342C49.9861 93.4907 50.3524 92.7635 50.7523 92.0527C50.7723 92.0156 50.7771 91.972 50.7657 91.9314C50.7543 91.8907 50.7275 91.8561 50.6911 91.8348C50.6546 91.8135 50.6113 91.8071 50.5703 91.8171C50.5292 91.8271 50.4937 91.8527 50.4711 91.8884C49.0171 94.4773 47.9984 97.2876 47.4559 100.207C47.3049 101.022 47.1915 101.843 47.1156 102.67C47.0963 102.878 47.422 102.877 47.4411 102.67Z" fill="#3F3D56"/>
<path d="M51.5407 92.5749C52.6795 92.5749 53.6026 91.6518 53.6026 90.513C53.6026 89.3743 52.6795 88.4512 51.5407 88.4512C50.402 88.4512 49.4789 89.3743 49.4789 90.513C49.4789 91.6518 50.402 92.5749 51.5407 92.5749Z" fill="url(#paint4_linear_82_944)"/>
<path d="M47.0302 102.475C45.4512 100.011 44.2877 97.3046 43.5859 94.4634C43.3911 93.6724 43.2327 92.8737 43.1107 92.0673C43.1037 92.0257 43.0807 91.9884 43.0467 91.9634C43.0127 91.9383 42.9703 91.9275 42.9284 91.9331C42.8866 91.9387 42.8485 91.9604 42.8224 91.9935C42.7962 92.0266 42.7839 92.0686 42.788 92.1107C43.2339 95.0463 44.1591 97.8887 45.5269 100.524C45.9093 101.26 46.3248 101.977 46.7735 102.676C46.8865 102.852 47.1425 102.65 47.0302 102.475Z" fill="#3F3D56"/>
<path d="M42.7855 92.4303C43.9242 92.4303 44.8473 91.5072 44.8473 90.3685C44.8473 89.2298 43.9242 88.3066 42.7855 88.3066C41.6468 88.3066 40.7236 89.2298 40.7236 90.3685C40.7236 91.5072 41.6468 92.4303 42.7855 92.4303Z" fill="url(#paint5_linear_82_944)"/>
<path d="M40.7004 104.3V100.249C40.7009 99.8459 40.8611 99.4597 41.1459 99.1749C41.4307 98.8901 41.8168 98.7299 42.2196 98.7295H51.6721C52.0749 98.7299 52.461 98.8901 52.7458 99.1749C53.0306 99.4597 53.1908 99.8459 53.1912 100.249V104.3C53.1908 104.702 53.0306 105.089 52.7458 105.373C52.461 105.658 52.0749 105.818 51.6721 105.819H42.2196C41.8168 105.818 41.4307 105.658 41.1459 105.373C40.8611 105.089 40.7009 104.702 40.7004 104.3Z" fill="#CCCCCC"/>
<path d="M125.438 103.128H98.7685C98.1159 103.128 97.5869 103.657 97.5869 104.309C97.5869 104.962 98.1159 105.491 98.7685 105.491H125.438C126.091 105.491 126.62 104.962 126.62 104.309C126.62 103.657 126.091 103.128 125.438 103.128Z" fill="#CCCCCC"/>
<path d="M143.33 105.491H113.285C112.703 105.49 112.145 105.259 111.734 104.848C111.323 104.436 111.091 103.879 111.091 103.297V86.7549C111.091 86.1731 111.323 85.6154 111.734 85.204C112.145 84.7926 112.703 84.5612 113.285 84.5605H143.33C143.912 84.5612 144.47 84.7926 144.881 85.204C145.293 85.6154 145.524 86.1731 145.525 86.7549V103.297C145.524 103.879 145.293 104.436 144.881 104.848C144.47 105.259 143.912 105.49 143.33 105.491Z" fill="#CCCCCC"/>
<path d="M128.308 97.0511C129.426 97.0511 130.333 96.1442 130.333 95.0255C130.333 93.9069 129.426 93 128.308 93C127.189 93 126.282 93.9069 126.282 95.0255C126.282 96.1442 127.189 97.0511 128.308 97.0511Z" fill="white"/>
<path d="M219.794 127.771C219.794 125.161 209.97 123.045 197.851 123.045C185.732 123.045 175.908 125.161 175.908 127.771C175.908 129.444 179.947 130.913 186.035 131.753V157.648C186.035 158.23 186.267 158.788 186.678 159.199C187.09 159.611 187.648 159.842 188.23 159.842C188.812 159.842 189.37 159.611 189.781 159.199C190.193 158.788 190.424 158.23 190.424 157.648V132.219C192.744 132.399 195.244 132.497 197.851 132.497C200.458 132.497 202.958 132.399 205.278 132.219V157.648C205.278 158.23 205.509 158.788 205.921 159.199C206.332 159.611 206.89 159.842 207.472 159.842C208.054 159.842 208.612 159.611 209.024 159.199C209.435 158.788 209.667 158.23 209.667 157.648V131.753C215.755 130.913 219.794 129.444 219.794 127.771Z" fill="#CCCCCC"/>
<path d="M200.277 84.5124C205.498 84.5124 209.73 80.2804 209.73 75.0599C209.73 69.8395 205.498 65.6074 200.277 65.6074C195.057 65.6074 190.825 69.8395 190.825 75.0599C190.825 80.2804 195.057 84.5124 200.277 84.5124Z" fill="#2F2E41"/>
<path d="M176.754 155.935H172.615L170.646 139.971H176.755L176.754 155.935Z" fill="#FFB8B8"/>
<path d="M169.659 154.752H177.641V159.778H164.633C164.633 159.118 164.763 158.464 165.016 157.854C165.268 157.245 165.639 156.691 166.105 156.224C166.572 155.757 167.126 155.387 167.736 155.135C168.345 154.882 168.999 154.752 169.659 154.752Z" fill="#2F2E41"/>
<path d="M170.293 153.625L166.344 152.386L169.245 136.564L175.073 138.393L170.293 153.625Z" fill="#FFB8B8"/>
<path d="M163.878 150.372L171.494 152.762L169.989 157.557L157.578 153.662C157.776 153.033 158.095 152.448 158.519 151.942C158.942 151.436 159.461 151.018 160.046 150.712C160.631 150.407 161.271 150.22 161.928 150.161C162.586 150.103 163.248 150.174 163.878 150.372Z" fill="#2F2E41"/>
<path d="M171.64 147.255C171.459 147.255 171.279 147.222 171.109 147.159L168.064 146.017C167.722 145.887 167.439 145.64 167.264 145.318C167.09 144.997 167.037 144.624 167.114 144.267C167.881 140.82 170.494 129.085 171.924 122.791C173.621 115.325 198.372 113.938 199.425 113.883L199.511 113.878L202.295 117.377C203.301 120.611 202.983 123.133 201.348 124.874C196.577 129.954 182.332 126.802 180.633 126.403L173.062 146.277C172.952 146.565 172.757 146.812 172.503 146.987C172.249 147.162 171.948 147.255 171.64 147.255Z" fill="#2F2E41"/>
<path d="M176.029 149.618C175.847 149.618 175.667 149.586 175.498 149.522L172.453 148.38C172.111 148.251 171.827 148.003 171.653 147.682C171.478 147.36 171.425 146.987 171.503 146.63C172.27 143.183 174.882 131.449 176.313 125.154C178.009 117.688 202.76 116.301 203.813 116.246L203.9 116.241L206.684 119.74C207.69 122.974 207.371 125.496 205.736 127.237C200.965 132.317 186.721 129.165 185.022 128.766L177.451 148.64C177.341 148.928 177.146 149.176 176.892 149.35C176.638 149.525 176.337 149.618 176.029 149.618Z" fill="#2F2E41"/>
<path d="M167.219 100.999C167.331 101.149 167.431 101.307 167.518 101.472L184.168 103.226L186.565 99.9403L191.997 102.909L187.289 110.883L166.869 105.677C166.354 106.179 165.698 106.513 164.989 106.633C164.28 106.754 163.55 106.655 162.898 106.351C162.246 106.047 161.702 105.552 161.338 104.931C160.975 104.31 160.809 103.593 160.862 102.876C160.916 102.158 161.187 101.474 161.639 100.914C162.091 100.354 162.703 99.9454 163.393 99.7417C164.083 99.538 164.818 99.5491 165.502 99.7737C166.185 99.9984 166.784 100.426 167.219 100.999Z" fill="#FFB8B8"/>
<path d="M205.911 121.079C205.671 121.078 205.433 121.02 205.219 120.91C201.89 119.217 195.407 116.285 189.395 115.672C189.189 115.651 188.99 115.588 188.81 115.487C188.63 115.385 188.474 115.247 188.35 115.081C188.224 114.913 188.134 114.721 188.086 114.517C188.038 114.314 188.032 114.102 188.069 113.896C188.611 110.893 189.856 103.246 189.695 97.117C189.648 95.2325 190.243 93.3881 191.383 91.887C192.524 90.3858 194.14 89.3172 195.968 88.8569C197.069 88.5666 198.187 88.3463 199.315 88.1972C200.612 88.0329 201.929 88.1747 203.161 88.6111C204.393 89.0475 205.506 89.7664 206.411 90.7103C207.315 91.6541 207.986 92.7967 208.369 94.0464C208.753 95.2961 208.838 96.6182 208.619 97.9069C207.546 104.258 206.466 113.129 207.405 119.321C207.448 119.599 207.414 119.883 207.305 120.142C207.197 120.401 207.019 120.625 206.791 120.789C206.536 120.976 206.228 121.078 205.911 121.079Z" fill="url(#paint6_linear_82_944)"/>
<path d="M190.003 104.925C189.796 104.925 189.591 104.882 189.4 104.799L185.063 102.922C184.694 102.761 184.403 102.461 184.255 102.086C184.107 101.712 184.113 101.294 184.272 100.924L187.625 93.179C187.827 92.7107 188.12 92.2869 188.486 91.9317C188.852 91.5765 189.285 91.297 189.759 91.1091C190.233 90.9211 190.74 90.8285 191.25 90.8364C191.76 90.8444 192.263 90.9527 192.731 91.1553C193.199 91.358 193.623 91.6508 193.978 92.0172C194.333 92.3837 194.612 92.8164 194.799 93.2908C194.987 93.7651 195.079 94.2718 195.071 94.7818C195.062 95.2918 194.954 95.7952 194.751 96.2632L191.398 104.008C191.28 104.28 191.085 104.512 190.837 104.675C190.59 104.838 190.3 104.925 190.003 104.925Z" fill="url(#paint7_linear_82_944)"/>
<path d="M199.932 85.5626C204.511 85.5626 208.223 81.8503 208.223 77.271C208.223 72.6917 204.511 68.9795 199.932 68.9795C195.352 68.9795 191.64 72.6917 191.64 77.271C191.64 81.8503 195.352 85.5626 199.932 85.5626Z" fill="#FFB8B8"/>
<path d="M191.491 73.1977C195.419 75.5952 199.846 77.0541 204.43 77.4609L203.066 75.8268C204.059 76.1939 205.104 76.4014 206.162 76.4415C207.218 76.4251 208.326 76.0182 208.925 75.148C209.193 74.7154 209.352 74.2245 209.389 73.7173C209.425 73.21 209.339 72.7013 209.136 72.2347C208.721 71.304 208.074 70.4951 207.257 69.885C205.81 68.74 204.102 67.9709 202.285 67.6462C200.468 67.3215 198.599 67.4513 196.845 68.0241C195.641 68.3837 194.563 69.0751 193.735 70.019C192.949 70.9887 191.435 71.8527 191.838 73.0343L191.491 73.1977Z" fill="#2F2E41"/>
<path d="M201.326 66.5059C198.711 63.854 195.546 61.8075 192.055 60.5106C189.814 59.6803 187.374 59.1673 185.031 59.6389C182.688 60.1104 180.472 61.7313 179.819 64.0301C179.284 65.91 179.836 67.934 180.666 69.7035C181.495 71.4731 182.603 73.114 183.273 74.9496C183.958 76.8226 184.164 78.8368 183.872 80.8095C183.581 82.7822 182.801 84.6508 181.604 86.2458C180.408 87.8408 178.831 89.1116 177.019 89.9429C175.206 90.7742 173.215 91.1397 171.225 91.0061C173.527 91.3148 175.649 92.3966 177.899 92.9725C180.15 93.5484 182.806 93.5093 184.478 91.8972C186.247 90.1916 186.283 87.4184 186.197 84.9623L185.816 74.0092C185.751 72.1473 185.695 70.2257 186.367 68.4878C187.038 66.7499 188.634 65.2281 190.497 65.2439C191.909 65.2559 193.159 66.1113 194.291 66.9548C195.423 67.7984 196.622 68.6984 198.028 68.8239C199.435 68.9493 201.041 67.9085 200.936 66.5004" fill="#2F2E41"/>
<path d="M162.785 94.8916L181.876 95.3423L184.642 115.752L167.011 116.147L162.785 94.8916Z" fill="#E6E6E6"/>
<path d="M183.086 100.323C183.198 100.473 183.298 100.631 183.385 100.796L200.035 102.551L202.431 99.2645L207.863 102.233L203.156 110.208L182.736 105.001C182.221 105.504 181.565 105.837 180.856 105.957C180.146 106.078 179.417 105.98 178.765 105.675C178.113 105.371 177.569 104.876 177.205 104.255C176.841 103.634 176.675 102.917 176.729 102.2C176.783 101.482 177.054 100.798 177.506 100.238C177.958 99.6786 178.569 99.2696 179.259 99.0659C179.949 98.8622 180.685 98.8734 181.369 99.098C182.052 99.3226 182.651 99.75 183.086 100.323Z" fill="#FFB8B8"/>
<path d="M205.87 105.263C205.663 105.263 205.457 105.22 205.267 105.137L200.93 103.26C200.56 103.099 200.27 102.799 200.121 102.424C199.973 102.05 199.98 101.632 200.139 101.262L203.492 93.5169C203.694 93.0486 203.987 92.6248 204.353 92.2696C204.719 91.9144 205.151 91.6349 205.626 91.4469C206.1 91.259 206.606 91.1664 207.116 91.1743C207.626 91.1822 208.13 91.2906 208.598 91.4932C209.066 91.6958 209.49 91.9887 209.845 92.3551C210.199 92.7215 210.479 93.1543 210.666 93.6287C210.854 94.103 210.946 94.6097 210.938 95.1197C210.929 95.6297 210.82 96.1331 210.617 96.6011L207.265 104.346C207.147 104.618 206.952 104.85 206.704 105.013C206.456 105.175 206.167 105.262 205.87 105.263Z" fill="url(#paint8_linear_82_944)"/>
<path d="M166.624 105.153H32.2634C31.6815 105.153 31.1233 105.385 30.7118 105.796C30.3003 106.208 30.0691 106.766 30.0691 107.348C30.0691 107.93 30.3003 108.488 30.7118 108.899C31.1233 109.311 31.6815 109.542 32.2634 109.542H36.1457V157.311C36.1457 157.893 36.3769 158.451 36.7884 158.863C37.1999 159.274 37.7581 159.505 38.34 159.505C38.922 159.505 39.4801 159.274 39.8917 158.863C40.3032 158.451 40.5344 157.893 40.5344 157.311V113.758L65.1349 158.347C65.4265 158.849 65.9057 159.216 66.4672 159.366C67.0288 159.516 67.6268 159.437 68.1302 159.146C68.6335 158.855 69.001 158.377 69.152 157.816C69.303 157.254 69.2252 156.656 68.9356 156.152L43.2194 109.542H160.716V109.57L135.016 156.152C134.725 156.656 134.646 157.255 134.797 157.817C134.947 158.379 135.315 158.859 135.819 159.15C136.323 159.441 136.922 159.52 137.484 159.369C138.046 159.218 138.525 158.851 138.816 158.347L160.716 118.653V157.311C160.716 157.893 160.947 158.451 161.359 158.863C161.77 159.274 162.329 159.505 162.911 159.505C163.492 159.505 164.051 159.274 164.462 158.863C164.874 158.451 165.105 157.893 165.105 157.311V110.699L165.743 109.542H166.624C167.206 109.542 167.764 109.311 168.176 108.899C168.587 108.488 168.818 107.93 168.818 107.348C168.818 106.766 168.587 106.208 168.176 105.796C167.764 105.385 167.206 105.153 166.624 105.153Z" fill="#3F3D56"/>
<path d="M249.642 160H0.402021C0.295615 160 0.193676 159.957 0.118545 159.882C0.0434134 159.807 0.0012207 159.705 0.0012207 159.598C0.0012207 159.492 0.0434134 159.39 0.118545 159.314C0.193676 159.239 0.295615 159.197 0.402021 159.196H249.642C249.749 159.196 249.851 159.239 249.926 159.314C250.002 159.389 250.044 159.492 250.044 159.598C250.044 159.705 250.002 159.807 249.926 159.882C249.851 159.958 249.749 160 249.642 160Z" fill="#3F3D56"/>
</g>
<defs>
<linearGradient id="paint0_linear_82_944" x1="86.2441" y1="87.7939" x2="86.2441" y2="120.742" gradientUnits="userSpaceOnUse">
<stop stop-color="#22DCD9"/>
<stop offset="1" stop-color="#5456AB"/>
</linearGradient>
<linearGradient id="paint1_linear_82_944" x1="95.0254" y1="90.498" x2="95.0254" y2="104.587" gradientUnits="userSpaceOnUse">
<stop stop-color="#22DCD9"/>
<stop offset="1" stop-color="#5456AB"/>
</linearGradient>
<linearGradient id="paint2_linear_82_944" x1="79.1587" y1="90.8359" x2="79.1587" y2="104.925" gradientUnits="userSpaceOnUse">
<stop stop-color="#22DCD9"/>
<stop offset="1" stop-color="#5456AB"/>
</linearGradient>
<linearGradient id="paint3_linear_82_944" x1="53.4353" y1="80.668" x2="53.4353" y2="87.0244" gradientUnits="userSpaceOnUse">
<stop stop-color="#F73E94"/>
<stop offset="0.333333" stop-color="#97238A"/>
<stop offset="0.666667" stop-color="#5456AB"/>
<stop offset="1" stop-color="#22DCD9"/>
</linearGradient>
<linearGradient id="paint4_linear_82_944" x1="51.5407" y1="88.4512" x2="51.5407" y2="92.5749" gradientUnits="userSpaceOnUse">
<stop stop-color="#F73E94"/>
<stop offset="0.333333" stop-color="#97238A"/>
<stop offset="0.666667" stop-color="#5456AB"/>
<stop offset="1" stop-color="#22DCD9"/>
</linearGradient>
<linearGradient id="paint5_linear_82_944" x1="42.7855" y1="88.3066" x2="42.7855" y2="92.4303" gradientUnits="userSpaceOnUse">
<stop stop-color="#F73E94"/>
<stop offset="0.333333" stop-color="#97238A"/>
<stop offset="0.666667" stop-color="#5456AB"/>
<stop offset="1" stop-color="#22DCD9"/>
</linearGradient>
<linearGradient id="paint6_linear_82_944" x1="198.391" y1="88.1309" x2="198.391" y2="121.079" gradientUnits="userSpaceOnUse">
<stop stop-color="#F73E94"/>
<stop offset="1" stop-color="#97238A"/>
</linearGradient>
<linearGradient id="paint7_linear_82_944" x1="189.61" y1="90.8359" x2="189.61" y2="104.925" gradientUnits="userSpaceOnUse">
<stop stop-color="#F73E94"/>
<stop offset="1" stop-color="#97238A"/>
</linearGradient>
<linearGradient id="paint8_linear_82_944" x1="205.476" y1="91.1738" x2="205.476" y2="105.263" gradientUnits="userSpaceOnUse">
<stop stop-color="#F73E94"/>
<stop offset="1" stop-color="#97238A"/>
</linearGradient>
<clipPath id="clip0_82_944">
<rect width="250.044" height="160" fill="white"/>
</clipPath>
</defs>
</svg>
