<svg width="265" height="174" viewBox="0 0 265 174" fill="none" xmlns="http://www.w3.org/2000/svg">
<g clip-path="url(#clip0_2644_4137)">
<path d="M47.7245 47.2835L54.6649 49.5697V39.5586H48.3677L47.7245 47.2835Z" fill="#EFA4A7"/>
<path d="M53.8044 42.3298C57.6239 42.3298 60.7203 39.2278 60.7203 35.4012C60.7203 31.5747 57.6239 28.4727 53.8044 28.4727C49.9849 28.4727 46.8885 31.5747 46.8885 35.4012C46.8885 39.2278 49.9849 42.3298 53.8044 42.3298Z" fill="#EFA4A7"/>
<path d="M51.9075 34.7166C53.067 34.6797 53.8249 33.5099 54.2756 32.4386C54.7263 31.3673 55.1893 30.14 56.2627 29.6967C57.1395 29.3355 58.6882 31.7777 59.3847 31.1251C60.1058 30.4478 59.4011 26.9671 58.6349 26.3391C57.8688 25.7111 56.8199 25.5921 55.8325 25.5469C53.4234 25.4361 50.998 25.629 48.634 26.1257C47.1713 26.4294 45.6677 26.8891 44.6147 27.9481C43.2791 29.2903 42.939 31.318 42.8407 33.2102C42.7424 35.1476 42.853 37.1753 43.7953 38.8705C44.7376 40.5657 46.7042 41.8176 48.5889 41.3825C48.7774 40.3563 48.5889 39.3015 48.5111 38.2589C48.4373 37.2163 48.511 36.0917 49.1502 35.2584C49.7893 34.4252 51.1414 34.1009 51.8829 34.8357" fill="#36344E"/>
<path d="M43.3978 37.118C42.7054 36.6091 41.8778 36.1863 41.0256 36.2889C40.1037 36.3997 39.3294 37.1591 39.0918 38.058C38.8541 38.9569 39.1204 39.9461 39.6899 40.6808C40.2594 41.4156 41.1034 41.8999 42.0007 42.1421C42.5169 42.2816 43.0864 42.3391 43.5781 42.1298C44.3073 41.8178 44.6966 40.8861 44.4139 40.1431" fill="#36344E"/>
<path d="M56.5167 158.667H50.0146V167.906H56.5167V158.667Z" fill="#EFA4A7"/>
<path d="M62.8507 173.502C63.535 173.502 64.1413 173.486 64.6002 173.444C66.3292 173.284 67.9762 172.008 68.8038 171.261C69.1766 170.924 69.2955 170.391 69.1029 169.931C68.9636 169.598 68.685 169.352 68.3408 169.254L63.7767 167.948L56.3856 162.953L56.3036 163.101C56.2708 163.154 55.5457 164.464 55.3039 165.35C55.2097 165.687 55.2343 165.966 55.3777 166.183C55.476 166.335 55.6112 166.422 55.7218 166.471C55.5866 166.61 55.1687 166.894 53.8781 167.103C51.9935 167.403 51.5961 165.445 51.5797 165.363L51.5674 165.297L51.51 165.26C50.6128 164.681 50.0597 164.418 49.8712 164.476C49.7524 164.513 49.5516 164.57 49.019 169.902C48.9658 170.071 48.5888 171.298 48.8469 172.468C49.1255 173.744 54.6894 173.305 55.7997 173.202C55.8324 173.202 59.9992 173.502 62.8507 173.502Z" fill="#36344E"/>
<path d="M31.5038 151.404L26.6234 159.244L32.1405 162.691L37.0208 154.851L31.5038 151.404Z" fill="#EFA4A7"/>
<path d="M38.8297 172.232C39.5917 172.232 40.2924 172.142 40.7922 172.052C41.2838 171.965 41.669 171.575 41.7468 171.079C41.8042 170.726 41.6976 170.369 41.46 170.102L38.2766 166.576L34.6466 158.42L34.4991 158.502C34.4417 158.531 33.1348 159.257 32.4628 159.881C32.2047 160.119 32.0777 160.37 32.0818 160.628C32.0818 160.809 32.1515 160.953 32.2211 161.055C32.0327 161.105 31.5287 161.121 30.3242 160.612C28.5665 159.869 29.263 157.997 29.2958 157.919L29.3204 157.858L29.2917 157.796C28.8369 156.828 28.5092 156.314 28.3166 156.261C28.1978 156.228 27.997 156.175 24.7276 160.411C24.5924 160.522 23.6254 161.367 23.2239 162.496C22.7855 163.727 27.7389 166.301 28.7345 166.806C28.7632 166.83 33.9501 170.607 36.0765 171.678C36.9205 172.105 37.9201 172.236 38.8297 172.236L38.8297 172.232Z" fill="#36344E"/>
<path d="M45.2293 81.3896H63.4326L65.0837 98.354L57.8565 161.035H48.5643L52.2804 124.833L37.2072 157.518L28.9475 151.726L40.7184 121.213C40.7184 121.213 36.5148 94.6311 39.817 88.0104C43.1193 81.3897 45.2293 81.3896 45.2293 81.3896Z" fill="#36344E"/>
<path d="M36.1747 82.4239H65.0836L56.4101 44.9775H43.8157L36.1747 82.4239Z" fill="url(#paint0_linear_2644_4137)"/>
<path d="M72.2617 44.243C72.7247 41.965 71.8766 39.8839 70.377 39.5966C68.8734 39.3093 67.2837 40.9224 66.8208 43.2005C66.6241 44.1076 66.6528 45.0475 66.9109 45.9464L65.0836 55.621L69.8075 56.368L71.1063 46.751C71.6922 46.0162 72.0896 45.1584 72.2617 44.243Z" fill="#EFA4A7"/>
<path d="M44.123 44.9775H55.2302L62.7196 59.9799L65.5425 48.7374L71.7496 49.3982C71.7496 49.3982 70.2828 71.3661 63.8627 70.6231C57.4426 69.8802 42.476 50.0878 44.123 44.9775Z" fill="url(#paint1_linear_2644_4137)"/>
<path d="M31.7172 102.039C31.2542 104.317 32.1023 106.398 33.6019 106.685C35.1055 106.973 36.6952 105.36 37.1581 103.082C37.3548 102.175 37.3261 101.235 37.068 100.336L38.8953 90.6611L34.1714 89.9141L32.8726 99.5312C32.2867 100.266 31.8893 101.124 31.7172 102.039Z" fill="#EFA4A7"/>
<path d="M50.453 44.978C50.453 44.978 44.1394 44.7112 43.8117 44.978C42.0909 46.3899 31.9834 97.246 31.9834 97.246H38.383L50.4489 44.978H50.453Z" fill="url(#paint2_linear_2644_4137)"/>
<path d="M102.292 173.511C102.292 173.782 102.075 173.999 101.804 173.999H0.487552C0.217157 173.999 0 173.782 0 173.511C0 173.24 0.217157 173.022 0.487552 173.022H101.804C102.075 173.022 102.292 173.24 102.292 173.511Z" fill="#484565"/>
<path d="M157.208 21.96H72.3984V46.1771H157.208V21.96Z" fill="#D5D5D5"/>
<path d="M79.978 27.0908H92.8253" stroke="black" stroke-width="2" stroke-miterlimit="10"/>
<path d="M79.978 34.0684H149.219" stroke="black" stroke-width="2" stroke-miterlimit="10"/>
<path d="M169.784 34.0684H186.768" stroke="black" stroke-width="2" stroke-miterlimit="10"/>
<path d="M79.978 39.7539H110.145" stroke="black" stroke-width="2" stroke-miterlimit="10"/>
<path d="M79.978 75.1152H124.841" stroke="black" stroke-width="2" stroke-miterlimit="10"/>
<path d="M79.978 82.0918H117.876" stroke="black" stroke-width="2" stroke-miterlimit="10"/>
<path d="M79.978 87.7783H110.145" stroke="black" stroke-width="2" stroke-miterlimit="10"/>
<path d="M79.978 51.5967H121.269" stroke="black" stroke-width="2" stroke-miterlimit="10"/>
<path d="M79.978 57.5166H149.219" stroke="black" stroke-width="2" stroke-miterlimit="10"/>
<path d="M79.978 64.1348H110.145" stroke="black" stroke-width="2" stroke-miterlimit="10"/>
<path d="M160.281 0V119.444" stroke="black" stroke-width="2" stroke-miterlimit="10"/>
<path d="M169.784 47.4082H287.446" stroke="black" stroke-width="2" stroke-miterlimit="10"/>
<path d="M169.784 54.8076H238.535" stroke="black" stroke-width="2" stroke-miterlimit="10"/>
<path d="M169.784 60.9531H248.627" stroke="black" stroke-width="2" stroke-miterlimit="10"/>
<path d="M169.784 67.7715H312.282" stroke="black" stroke-width="2" stroke-miterlimit="10"/>
</g>
<defs>
<linearGradient id="paint0_linear_2644_4137" x1="44.4401" y1="45.5998" x2="50.6183" y2="82.4257" gradientUnits="userSpaceOnUse">
<stop stop-color="#F73E94"/>
<stop offset="1" stop-color="#97238A"/>
</linearGradient>
<linearGradient id="paint1_linear_2644_4137" x1="50.5279" y1="44.9775" x2="65.1991" y2="70.653" gradientUnits="userSpaceOnUse">
<stop stop-color="#F73E94"/>
<stop offset="1" stop-color="#97238A"/>
</linearGradient>
<linearGradient id="paint2_linear_2644_4137" x1="49.7368" y1="44.8668" x2="43.2503" y2="78.6022" gradientUnits="userSpaceOnUse">
<stop stop-color="#F73E94"/>
<stop offset="1" stop-color="#97238A"/>
</linearGradient>
<clipPath id="clip0_2644_4137">
<rect width="265" height="174" fill="white"/>
</clipPath>
</defs>
</svg>
