<svg width="169" height="160" viewBox="0 0 169 160" fill="none" xmlns="http://www.w3.org/2000/svg">
<g clip-path="url(#clip0_2644_4232)">
<path d="M7.38908 30.1656C6.11574 30.1656 4.99608 29.2516 4.75136 27.9868L0.0493591 3.69226C-0.101685 2.91167 0.0976583 2.10908 0.596164 1.49036C1.09438 0.871923 1.83526 0.507139 2.62883 0.490132L25.3505 0.00072046C26.6774 -0.0294831 27.8021 0.893037 28.0474 2.19002L32.5038 25.7503C32.6478 26.5127 32.4567 27.3001 31.9786 27.9109C31.5009 28.5214 30.7835 28.8959 30.0104 28.9378L7.53427 30.1615C7.48568 30.1641 7.43709 30.1656 7.38908 30.1656Z" fill="#D6D6E3"/>
<path d="M5.9187 26.2284L10.8645 12.8662L19.1076 19.0218L21.8053 16.3194L31.2474 26.0782L5.9187 26.2284Z" fill="url(#paint0_linear_2644_4232)"/>
<path d="M21.2059 11.6652C19.9662 11.6652 18.9578 10.655 18.9578 9.41318C18.9578 8.17133 19.9662 7.16113 21.2059 7.16113C22.4455 7.16113 23.454 8.17133 23.454 9.41318C23.454 10.655 22.4455 11.6652 21.2059 11.6652Z" fill="url(#paint1_linear_2644_4232)"/>
<path d="M8.23036 121.934C7.52197 121.934 6.8291 121.727 6.22287 121.325C5.39446 120.776 4.83566 119.935 4.65007 118.957L0.109069 95.0465C-0.26064 93.0988 0.961476 91.2303 2.8914 90.7928L23.2344 86.1767C24.1998 85.9582 25.1886 86.133 26.02 86.669C26.8519 87.2056 27.4201 88.0358 27.62 89.0061L32.5696 113.026C32.973 114.984 31.7149 116.92 29.7654 117.344L9.0134 121.85C8.75287 121.906 8.49059 121.934 8.23036 121.934Z" fill="#D6D6E3"/>
<path d="M6.66694 100.396C6.17165 100.396 5.7311 100.044 5.63685 99.5381C5.53029 98.9675 5.90586 98.4186 6.47549 98.3121L22.9218 95.2343C23.4912 95.1261 24.0391 95.5038 24.1457 96.0744C24.2522 96.6451 23.8767 97.194 23.307 97.3005L6.86072 100.378C6.79573 100.391 6.73075 100.396 6.66694 100.396Z" fill="#090814"/>
<path d="M8.166 106.702C7.6912 106.702 7.26119 106.377 7.14615 105.894C7.01209 105.33 7.36013 104.763 7.92392 104.629L23.4054 100.936C23.9686 100.802 24.5344 101.15 24.6691 101.715C24.8032 102.279 24.4551 102.846 23.8913 102.981L8.40984 106.674C8.32817 106.693 8.2465 106.702 8.166 106.702Z" fill="#090814"/>
<path d="M9.21484 112.803C8.72979 112.803 8.29422 112.464 8.18972 111.969C8.06971 111.401 8.4318 110.844 8.99851 110.724L19.5605 108.483C20.1305 108.363 20.6846 108.725 20.8043 109.293C20.9243 109.861 20.5622 110.419 19.9955 110.539L9.4335 112.78C9.36003 112.795 9.28685 112.803 9.21484 112.803Z" fill="#090814"/>
<path d="M161.309 48.3736C161.122 48.3736 160.934 48.3589 160.744 48.3293L139.767 45.0324C138.786 44.8779 137.928 44.346 137.354 43.534C136.779 42.7223 136.561 41.7359 136.739 40.7571L141.116 16.8158C141.473 14.8658 143.284 13.568 145.243 13.8539L165.878 16.9009C166.857 17.0455 167.716 17.5662 168.299 18.3674C168.881 19.1682 169.112 20.1476 168.949 21.1249L164.914 45.3163C164.618 47.098 163.061 48.3736 161.309 48.3736Z" fill="#D6D6E3"/>
<path d="M162.133 27.3199C162.069 27.3199 162.005 27.3141 161.94 27.3017L145.492 24.2283C144.923 24.1219 144.547 23.5732 144.653 23.0026C144.759 22.432 145.306 22.0534 145.877 22.1622L162.324 25.2356C162.894 25.342 163.27 25.8907 163.163 26.4613C163.069 26.9669 162.629 27.3199 162.133 27.3199Z" fill="#090814"/>
<path d="M160.582 32.8197C160.534 32.8197 160.487 32.8168 160.439 32.81L144.67 30.6588C144.096 30.5805 143.694 30.051 143.772 29.4756C143.85 28.9003 144.381 28.4974 144.953 28.5763L160.722 30.7274C161.296 30.8057 161.698 31.3353 161.62 31.9107C161.548 32.4376 161.098 32.8197 160.582 32.8197Z" fill="#090814"/>
<path d="M154.251 38.4665C154.196 38.4665 154.139 38.4619 154.082 38.4528L143.425 36.725C142.853 36.6324 142.464 36.0925 142.557 35.5195C142.65 34.9465 143.185 34.5586 143.76 34.6501L154.418 36.3778C154.99 36.4705 155.378 37.0103 155.286 37.5833C155.202 38.0994 154.757 38.4665 154.251 38.4665Z" fill="#090814"/>
<path d="M47.2216 61.0078L37.1908 95.3568C35.8588 99.918 39.0251 104.56 43.7511 104.974L54.6968 105.934L47.2216 61.0078Z" fill="url(#paint2_linear_2644_4232)"/>
<path d="M138.266 54.6711L124.848 76.8998L118.531 68.8821L130.878 49.5177C130.439 47.2649 130.97 44.6499 132.54 42.3918C135.286 38.4405 140.159 37.0832 143.423 39.3601C146.687 41.637 147.107 46.6858 144.361 50.6371C142.791 52.8953 140.527 54.3015 138.266 54.6711Z" fill="#9D616A"/>
<path d="M54.6165 108.558L53.0052 114.047L53.0599 119.613C53.0599 119.613 42.4623 132.382 46.3665 160L96.0218 159.376L90.1068 114.935L54.6165 108.558Z" fill="#090814"/>
<path d="M60.2056 32.4871C60.2056 24.6964 66.5101 18.3809 74.2871 18.3809C82.0642 18.3809 88.3687 24.6964 88.3687 32.4871C88.3687 38.8053 84.2217 44.1526 78.506 45.9485L76.4065 47.643L80.1757 60.8581L75.7838 63.9705L61.9062 52.3857C61.9062 52.3857 64.9042 48.5604 66.512 44.247C62.7121 41.7208 60.2056 37.398 60.2056 32.4871Z" fill="#9D616A"/>
<path d="M128.085 53.9652C123.114 53.8893 113.923 69.8717 113.923 69.8717L106.374 67.1972L90.8473 61.6907L78.9477 56.7845L79 57.1448C78.9531 57.0318 78.9022 56.9177 78.8462 56.8025C77.5952 54.2202 73.9613 51.1821 63.6444 51.7842L58.7866 55.6252L58.1259 56.1515C58.1259 56.1515 55.0606 55.8857 52.0062 57.1063C49.7966 57.9961 47.587 59.6563 46.5418 62.7593C46.0002 64.3599 46.0002 67.6691 46.3251 71.8736C47.5004 87.0966 52.9775 119.459 52.9775 119.459L87.5545 114.873L90.1053 114.933C90.1053 114.933 90.4086 111.445 90.6794 106.877C90.8473 104.197 90.9989 101.153 91.0856 98.2236C91.1451 96.0753 91.1614 93.992 91.1235 92.1583C91.1181 92.0443 91.118 91.9303 91.1126 91.8164C91.0097 88.4692 90.674 86.0441 89.9537 85.7783C89.9537 85.7783 92.1903 85.7186 95.4181 85.5993C103.217 85.3063 116.81 84.6498 118.749 83.592C121.489 82.1001 135.857 62.0758 135.857 62.0758C135.857 62.0758 133.062 54.0466 128.085 53.9652Z" fill="url(#paint3_linear_2644_4232)"/>
<path d="M88.7849 33.5285C87.7212 28.3154 87.211 25.645 83.3445 21.9572C82.4268 22.0874 83.5867 26.8542 78.5284 33.4943C71.1751 43.1469 71.9081 34.2966 69.7337 37.27C69.2617 37.9155 69.1598 40.2446 69.3149 41.0458C69.9279 44.2118 73.5554 41.1204 69.7337 51.9535C69.1651 52.7961 68.4947 52.5913 67.6397 52.5828C67.5735 52.5822 68.0072 52.4992 66.3833 52.1633C65.6083 52.003 64.5234 51.8136 63.2229 51.5941C48.1148 49.0444 42.78 29.9476 54.4577 20.0123C57.1146 17.7518 59.7221 16.0386 61.986 15.2448C68.8046 12.8538 84.3404 14.4079 87.323 22.167C88.7458 25.8682 89.2211 29.6607 88.7849 33.5285Z" fill="#010102"/>
<path d="M57.6682 64.1832C63.6192 64.1832 68.4435 59.3505 68.4435 53.389C68.4435 47.4275 63.6192 42.5947 57.6682 42.5947C51.7171 42.5947 46.8928 47.4275 46.8928 53.389C46.8928 59.3505 51.7171 64.1832 57.6682 64.1832Z" fill="#010102"/>
</g>
<defs>
<linearGradient id="paint0_linear_2644_4232" x1="18.583" y1="12.8662" x2="18.583" y2="26.2284" gradientUnits="userSpaceOnUse">
<stop stop-color="#22DCD9"/>
<stop offset="1" stop-color="#5456AB"/>
</linearGradient>
<linearGradient id="paint1_linear_2644_4232" x1="21.2059" y1="7.16113" x2="21.2059" y2="11.6652" gradientUnits="userSpaceOnUse">
<stop stop-color="#F73E94"/>
<stop offset="1" stop-color="#97238A"/>
</linearGradient>
<linearGradient id="paint2_linear_2644_4232" x1="52" y1="59.5" x2="45.7907" y2="105.934" gradientUnits="userSpaceOnUse">
<stop stop-color="#22DCD9"/>
<stop offset="0.5" stop-color="#5456AB"/>
<stop offset="1" stop-color="#97238A"/>
</linearGradient>
<linearGradient id="paint3_linear_2644_4232" x1="90.9801" y1="51.707" x2="90.9801" y2="119.459" gradientUnits="userSpaceOnUse">
<stop stop-color="#22DCD9"/>
<stop offset="0.5" stop-color="#5456AB"/>
<stop offset="0.75" stop-color="#97238A"/>
<stop offset="1" stop-color="#F73E94"/>
</linearGradient>
<clipPath id="clip0_2644_4232">
<rect width="169" height="160" fill="white"/>
</clipPath>
</defs>
</svg>
