<svg width="260" height="167" viewBox="0 0 260 167" fill="none" xmlns="http://www.w3.org/2000/svg">
<g clip-path="url(#clip0_2644_4206)">
<path d="M48.3205 97.2077H2.41892C1.08512 97.2077 0 96.1198 0 94.7826V20.6477C0 19.3106 1.08512 18.2227 2.41892 18.2227H48.3205C49.6543 18.2227 50.7394 19.3106 50.7394 20.6477V94.7826C50.7394 96.1198 49.6543 97.2077 48.3205 97.2077Z" fill="#D3D3D3"/>
<path d="M100.636 97.2077H54.7341C53.4003 97.2077 52.3152 96.1198 52.3152 94.7826V20.6477C52.3152 19.3106 53.4003 18.2227 54.7341 18.2227H100.636C101.969 18.2227 103.055 19.3106 103.055 20.6477V94.7826C103.055 96.1198 101.969 97.2077 100.636 97.2077Z" fill="#D3D3D3"/>
<path d="M152.951 97.2077H107.049C105.716 97.2077 104.63 96.1198 104.63 94.7826V20.6477C104.63 19.3106 105.716 18.2227 107.049 18.2227H152.951C154.285 18.2227 155.37 19.3106 155.37 20.6477V94.7826C155.37 96.1198 154.285 97.2077 152.951 97.2077Z" fill="url(#paint0_linear_2644_4206)"/>
<path d="M205.266 97.2077H159.364C158.031 97.2077 156.945 96.1198 156.945 94.7826V20.6477C156.945 19.3106 158.031 18.2227 159.364 18.2227H205.266C206.6 18.2227 207.685 19.3106 207.685 20.6477V94.7826C207.685 96.1198 206.6 97.2077 205.266 97.2077Z" fill="#D3D3D3"/>
<path d="M257.581 97.2077H211.68C210.346 97.2077 209.261 96.1198 209.261 94.7826V20.6477C209.261 19.3106 210.346 18.2227 211.68 18.2227H257.581C258.915 18.2227 260 19.3106 260 20.6477V94.7826C260 96.1198 258.915 97.2077 257.581 97.2077Z" fill="#D3D3D3"/>
<path d="M166.271 7.04101L171.204 3.19336C171.204 3.19336 176.832 4.95191 176.977 5.02463C177.122 5.09735 185.712 25.0661 185.712 25.0661C185.712 25.0661 163.709 36.3546 165.318 35.2538C166.927 34.1564 166.594 19.2781 165.097 17.3378C163.597 15.3941 164.876 10.5218 164.876 10.5218L166.264 7.04101H166.271Z" fill="#2F2E43"/>
<path d="M179.905 16.0391H173.218V26.6763L180.591 24.2467L179.905 16.0391Z" fill="#E7979A"/>
<path d="M174.132 18.9805C178.189 18.9805 181.478 15.6832 181.478 11.6157C181.478 7.54829 178.189 4.25098 174.132 4.25098C170.074 4.25098 166.785 7.54829 166.785 11.6157C166.785 15.6832 170.074 18.9805 174.132 18.9805Z" fill="#E7979A"/>
<path d="M164.982 10.2739L166.782 10.5813C168.464 3.83801 172.269 6.0395 172.631 5.96347C172.994 5.88744 178.405 11.8242 177.967 17.8337C177.528 23.8432 185.277 26.6595 185.277 26.6595C185.277 26.6595 187.984 31.7599 185.57 40.9923C183.156 50.2247 188.274 53.322 188.274 53.322C198.364 52.4626 192.297 38.3545 190.687 35.7894C189.078 33.2243 190.176 28.7552 190.176 28.7552C192.663 26.557 189.738 21.721 189.738 21.721C189.738 21.721 190.252 15.2719 188.716 14.0257C187.179 12.7795 187.107 9.70205 187.107 9.70205C184.4 -2.09544 175.556 0.175465 175.556 0.175465C164.227 -1.07073 164.982 10.2739 164.982 10.2739Z" fill="#2F2E43"/>
<path d="M177.121 149.747H169.788V160.175H177.121V149.747Z" fill="#E69B9E"/>
<path d="M162.646 166.489C161.875 166.489 161.189 166.47 160.672 166.422C158.724 166.243 156.866 164.802 155.932 163.959C155.513 163.581 155.378 162.977 155.596 162.456C155.753 162.083 156.066 161.804 156.454 161.693L161.601 160.219L169.935 154.582L170.028 154.749C170.062 154.812 170.881 156.289 171.155 157.288C171.259 157.668 171.231 157.985 171.073 158.229C170.963 158.399 170.811 158.497 170.687 158.553C170.838 158.712 171.31 159.033 172.767 159.266C174.891 159.604 175.34 157.396 175.358 157.302L175.372 157.228L175.435 157.187C176.447 156.534 177.069 156.238 177.284 156.3C177.418 156.341 177.643 156.408 178.245 162.423C178.307 162.611 178.73 163.996 178.442 165.319C178.129 166.759 171.854 166.264 170.6 166.15C170.564 166.154 165.865 166.489 162.646 166.489Z" fill="#36344E"/>
<path d="M197.999 141.556L191.776 145.446L197.281 154.295L203.503 150.404L197.999 141.556Z" fill="#E69B9E"/>
<path d="M189.736 165.06C188.875 165.06 188.084 164.956 187.52 164.856C186.966 164.758 186.532 164.317 186.443 163.759C186.378 163.359 186.497 162.957 186.768 162.656L190.357 158.675L194.453 149.472L194.62 149.564C194.682 149.598 196.157 150.418 196.916 151.12C197.205 151.388 197.349 151.671 197.344 151.962C197.34 152.164 197.263 152.329 197.187 152.442C197.399 152.497 197.969 152.518 199.328 151.943C201.309 151.105 200.524 148.992 200.49 148.902L200.463 148.832L200.495 148.764C201.009 147.673 201.379 147.09 201.596 147.031C201.731 146.993 201.957 146.932 205.643 151.716C205.794 151.843 206.885 152.793 207.339 154.069C207.833 155.457 202.248 158.365 201.123 158.934C201.088 158.962 195.243 163.221 192.843 164.432C191.891 164.912 190.764 165.06 189.736 165.06Z" fill="#36344E"/>
<path d="M182.52 62.5332H161.99L160.127 81.6772L168.278 152.417H178.758L174.566 111.561L191.566 148.448L200.882 141.911L187.607 107.475C187.607 107.475 192.35 77.4749 188.624 70.0041C184.898 62.5332 182.52 62.5332 182.52 62.5332Z" fill="#36344E"/>
<path d="M192.731 63.7003H160.127L169.908 21.4434H184.114L192.731 63.7003Z" fill="url(#paint1_linear_2644_4206)"/>
<path d="M152.031 20.6112C151.511 18.0404 152.464 15.6924 154.159 15.3668C155.854 15.0412 157.649 16.8612 158.169 19.433C158.391 20.4575 158.356 21.5195 158.066 22.5301L160.127 33.4501L154.798 34.2943L153.332 23.4395C152.671 22.6115 152.225 21.6417 152.031 20.6112Z" fill="#E69B9E"/>
<path d="M183.766 21.4434H171.237L162.791 38.3766L159.606 25.6885L152.608 26.4335C152.608 26.4335 154.264 51.2259 161.503 50.3886C168.742 49.5512 185.622 27.2118 183.766 21.4434Z" fill="url(#paint2_linear_2644_4206)"/>
<path d="M197.758 85.8404C198.278 88.4112 197.325 90.7592 195.631 91.0848C193.936 91.4104 192.141 89.5903 191.621 87.0185C191.398 85.994 191.433 84.9321 191.723 83.9215L189.662 73.0015L194.991 72.1572L196.457 83.0121C197.119 83.8401 197.565 84.8099 197.758 85.8404Z" fill="#E69B9E"/>
<path d="M176.626 21.4439C176.626 21.4439 183.746 21.1417 184.114 21.4439C186.056 23.0356 197.455 80.4302 197.455 80.4302H190.236L176.626 21.4439Z" fill="url(#paint3_linear_2644_4206)"/>
<path d="M119.386 166.63C119.386 166.835 119.55 167 119.755 167H249.346C249.551 167 249.715 166.835 249.715 166.63C249.715 166.425 249.551 166.26 249.346 166.26H119.755C119.55 166.26 119.386 166.425 119.386 166.63Z" fill="#3F3D58"/>
</g>
<defs>
<linearGradient id="paint0_linear_2644_4206" x1="105" y1="18" x2="150.5" y2="97" gradientUnits="userSpaceOnUse">
<stop stop-color="#22DCD9"/>
<stop offset="0.45" stop-color="#5456AB"/>
<stop offset="0.75" stop-color="#97238A"/>
<stop offset="1" stop-color="#F73E94"/>
</linearGradient>
<linearGradient id="paint1_linear_2644_4206" x1="176.429" y1="21.4434" x2="176.429" y2="63.7003" gradientUnits="userSpaceOnUse">
<stop stop-color="#22DCD9"/>
<stop offset="1" stop-color="#5456AB"/>
</linearGradient>
<linearGradient id="paint2_linear_2644_4206" x1="177" y1="21" x2="159" y2="45" gradientUnits="userSpaceOnUse">
<stop stop-color="#22DCD9"/>
<stop offset="1" stop-color="#5456AB"/>
</linearGradient>
<linearGradient id="paint3_linear_2644_4206" x1="179" y1="23" x2="191" y2="60" gradientUnits="userSpaceOnUse">
<stop stop-color="#22DCD9"/>
<stop offset="1" stop-color="#5456AB"/>
</linearGradient>
<clipPath id="clip0_2644_4206">
<rect width="260" height="167" fill="white"/>
</clipPath>
</defs>
</svg>
