<svg width="191" height="160" viewBox="0 0 191 160" fill="none" xmlns="http://www.w3.org/2000/svg">
<g clip-path="url(#clip0_2644_4175)">
<path d="M96.0823 79.6675C96.7505 82.3513 95.8554 84.8689 94.0855 85.2932C92.3156 85.715 90.3392 83.8823 89.6711 81.1986C89.388 80.1302 89.3752 79.0081 89.6353 77.932L86.9525 66.5247L92.5273 65.3848L94.5802 76.7512C95.3173 77.5921 95.8324 78.594 96.0823 79.6701L96.0823 79.6675Z" fill="#F1A1A4"/>
<path d="M72.7045 144.896L73.0487 152.372L72.7045 154.439L73.9082 156.855L83.3695 157.888L83.8872 153.407L78.899 150.82L78.7536 146.595L72.7045 144.896Z" fill="#F1A1A4"/>
<path d="M82.6835 156.165L82.1684 156.855L72.2607 153.993C72.2607 153.993 72.707 158.407 72.707 159.268C72.707 160.13 89.0489 160.13 91.5073 159.784C93.9657 159.439 93.1777 157.198 93.1777 157.198L82.9793 152.359L82.6835 156.163V156.165Z" fill="#2F2E43"/>
<path d="M48.0564 139.393L45.9933 146.585L45.0089 148.436L45.3787 151.107L54.0112 155.122L55.9315 151.04L52.0297 146.991L54.4779 140.632L48.0564 139.393Z" fill="#F1A1A4"/>
<path d="M53.9093 153.269L53.2003 153.757L44.7259 147.868C44.7259 147.868 43.739 152.193 43.4661 153.008C43.1932 153.824 58.6731 159.066 61.1137 159.528C63.5542 159.991 63.5211 157.614 63.5211 157.614L55.4037 149.76L53.9093 153.269Z" fill="#2F2E43"/>
<path d="M73.3726 21.4606L73.7347 27.3394L62.7789 27.8966L66.1707 20.1494L73.3726 21.4606Z" fill="#F1A1A4"/>
<path d="M74.0127 26.46C71.0774 27.7737 66.3799 27.4133 61.0576 26.46L60.2262 63.4193C60.2262 63.4193 76.8766 66.7753 82.6019 60.5847L79.5901 30.3885L74.0153 26.4625V26.46H74.0127Z" fill="#2F2E43"/>
<path d="M80.7937 61.4893L57.2857 63.8177L45.6873 142.759H54.5748L69.7945 88.6669L71.0008 149.967H79.136L86.065 74.926L80.7937 61.4893Z" fill="#2F2E43"/>
<path d="M64.3983 24.1953L56.5002 28.8804C53.5088 30.6543 52.0985 34.2377 53.0753 37.5809L59.178 58.476C59.178 58.476 49.2397 75.5908 52.4683 77.0988C59.7263 80.4906 70.5571 79.665 70.5571 79.665L68.1369 38.6902L64.3983 24.1953Z" fill="#D4D5D6"/>
<path d="M73.6709 26.3037L82.6018 29.7798L84.7108 55.5977L90.6172 76.3982C80.6126 80.0584 81.546 78.3535 81.546 78.3535L79.8883 42.4626L73.6709 26.3037Z" fill="#D4D5D6"/>
<path d="M86.7153 75.9609L86.6847 75.8203L77.5575 33.5062C77.3024 32.3228 77.6289 31.1394 78.4526 30.255C79.2763 29.3706 80.4341 28.9642 81.6276 29.138C83.1017 29.3527 84.2799 30.4288 84.6318 31.878L94.6593 73.1851L86.7153 75.9634L86.7153 75.9609Z" fill="#D4D5D6"/>
<path d="M68.619 23.0222C73.5274 23.0222 77.5065 19.0341 77.5065 14.1146C77.5065 9.19508 73.5274 5.20703 68.619 5.20703C63.7105 5.20703 59.7314 9.19508 59.7314 14.1146C59.7314 19.0341 63.7105 23.0222 68.619 23.0222Z" fill="#F1A1A4"/>
<path d="M72.8472 2.57166C74.8058 3.26177 75.9253 3.65539 76.9505 4.64711C78.6847 6.32127 78.9703 8.55774 79.2355 10.6357C79.4446 12.2613 79.7124 14.3624 78.7612 16.765C78.4373 17.5854 76.8638 21.2354 73.8545 21.698C73.2629 21.7875 71.8756 21.813 72.2759 21.5165C75.9789 18.7765 77.5575 17.1228 77.4274 12.9029C77.3458 10.2805 73.347 7.44845 70.9728 6.93982C69.9731 6.72512 68.6419 6.92192 67.6855 7.70661C65.6887 9.34754 65.7754 16.1388 63.6715 17.5573C62.8069 18.1401 63.3833 14.0326 62.7738 14.6972C61.5701 16.011 62.3428 18.0251 62.5596 18.7919C63.5848 22.429 65.5178 22.7843 66.5201 25.8923C67.6014 29.2458 66.2396 32.4024 65.9182 33.1513C65.3572 34.4548 64.3932 36.6888 62.1923 37.7623C59.3973 39.1246 57.1939 37.3508 55.8958 38.8716C55.169 39.7201 55.5618 40.6199 54.2509 43.2627C53.8225 44.1241 53.6083 44.556 53.4196 44.5407C52.5219 44.4691 51.0708 37.2715 53.4196 30.5698C54.4065 27.7582 55.3705 25.0029 57.959 22.8482C59.3284 21.7082 60.476 21.2993 60.8025 19.9676C61.2692 18.066 59.331 17.2557 58.9434 14.2576C58.6781 12.2077 58.492 9.27342 59.2137 7.39478C59.8971 5.61838 60.4888 4.07713 62.0393 2.68157C62.4117 2.34673 65.4158 0.0642474 68.6036 0.000347865C70.07 -0.030325 71.1488 1.97611 72.8497 2.57421H72.8472C72.8472 2.57421 72.8472 2.57166 72.8472 2.57166Z" fill="#2F2E43"/>
<path d="M0 159.587C0 159.756 0.135162 159.892 0.303478 159.892H186.289C186.457 159.892 186.592 159.756 186.592 159.587C186.592 159.419 186.457 159.283 186.289 159.283H0.303478C0.135162 159.283 0 159.419 0 159.587Z" fill="#3F3D58"/>
<path d="M93.3385 44.6719H71.231V66.8292H93.3385V44.6719Z" fill="#22DCD9"/>
<path d="M117.754 44.6719H95.6464V66.8292H117.754V44.6719Z" fill="#F73E94"/>
<path d="M142.169 44.6719H120.062V66.8292H142.169V44.6719Z" fill="#2F2E41"/>
<path d="M166.585 44.6719H144.477V66.8292H166.585V44.6719Z" fill="#C5C5C6"/>
<path d="M191 44.6719H168.892V66.8292H191V44.6719Z" fill="#6C63FF"/>
<path opacity="0.4" d="M191 44.6719H168.892V66.8292H191V44.6719Z" fill="#5456AB"/>
<path d="M73.2782 54.159C76.0223 53.8702 78.3863 55.1073 78.5572 56.9246C78.7281 58.7419 76.642 60.4467 73.8954 60.7355C72.7988 60.8659 71.692 60.7228 70.6617 60.3164L59.0173 61.3899L58.668 55.6977L70.1848 55.2428C71.1182 54.6293 72.1791 54.2562 73.2782 54.1565V54.159Z" fill="#F1A1A4"/>
<path d="M59.0913 29.1485C56.2733 28.7498 53.6287 30.608 53.0421 33.3991C50.9994 43.1399 47.3296 63.8867 53.0906 64.2343C60.624 64.6867 67.8539 62.8745 67.8539 62.8745L66.0457 52.4564L60.17 51.8532L63.6256 35.6509C64.281 32.5735 62.1974 29.5856 59.0887 29.1485H59.0913Z" fill="#D4D5D6"/>
</g>
<defs>
<clipPath id="clip0_2644_4175">
<rect width="191" height="160" fill="white"/>
</clipPath>
</defs>
</svg>
