<svg width="174" height="160" viewBox="0 0 174 160" fill="none" xmlns="http://www.w3.org/2000/svg">
<g clip-path="url(#clip0_82_909)">
<path d="M79.7589 88.0301C79.7278 88.0301 79.7083 88.0293 79.7015 88.0289L75.9874 88.0293V87.4817H79.7149C79.8012 87.4848 81.562 87.5345 83.1843 85.566C85.6019 82.6322 87.5873 75.3694 83.3162 57.4306C77.573 33.3092 82.363 11.9993 84.689 3.95699C84.8036 3.5591 84.8241 3.14002 84.7489 2.73284C84.6737 2.32567 84.5048 1.94157 84.2556 1.61089C84.0064 1.2802 83.6837 1.012 83.3131 0.827465C82.9424 0.642932 82.5339 0.547127 82.1198 0.547619H26.6529C26.2312 0.548184 25.8156 0.648173 25.4398 0.839468C25.064 1.03076 24.7386 1.30798 24.49 1.64861C23.5046 3.00401 22.1524 5.60788 21.3063 10.3161L20.7673 10.2193C21.6318 5.40879 23.028 2.72833 24.047 1.32667C24.3465 0.916225 24.7385 0.582189 25.1913 0.351679C25.6441 0.12117 26.1449 0.000682005 26.6529 1.49007e-06H82.1199C82.6188 -0.000478643 83.1111 0.115079 83.5577 0.337545C84.0043 0.560011 84.3931 0.883291 84.6933 1.28184C84.9935 1.68039 85.197 2.1433 85.2875 2.63398C85.3781 3.12466 85.3533 3.62968 85.2151 4.10914C82.9011 12.1098 78.1359 33.3091 83.8489 57.3038C88.1802 75.495 86.098 82.9151 83.5886 85.9365C81.9335 87.9292 80.1098 88.0301 79.7589 88.0301Z" fill="#E6E6E6"/>
<path d="M69.7648 98.0243C69.7337 98.0243 69.7142 98.0235 69.7074 98.0231L65.9933 98.0235V97.4759H69.7208C69.8076 97.4785 71.5679 97.5287 73.1902 95.5601C75.6078 92.6263 77.5932 85.3636 73.322 67.4247C67.5789 43.3033 72.3689 21.9935 74.6949 13.9511C74.8095 13.5532 74.83 13.1342 74.7548 12.727C74.6796 12.3198 74.5107 11.9357 74.2615 11.605C74.0123 11.2743 73.6896 11.0061 73.319 10.8216C72.9483 10.6371 72.5398 10.5413 72.1257 10.5418H16.6588C16.2371 10.5423 15.8215 10.6423 15.4457 10.8336C15.0699 11.0249 14.7445 11.3021 14.4958 11.6427C13.5105 12.9982 12.1583 15.602 11.3122 20.3102L10.7732 20.2134C11.6377 15.4029 13.0339 12.7225 14.0529 11.3208C14.3524 10.9104 14.7444 10.5763 15.1972 10.3458C15.65 10.1153 16.1508 9.99482 16.6588 9.99414H72.1258C72.6247 9.99366 73.117 10.1092 73.5636 10.3317C74.0102 10.5542 74.399 10.8774 74.6992 11.276C74.9994 11.6745 75.2029 12.1374 75.2934 12.6281C75.384 13.1188 75.3592 13.6238 75.221 14.1033C72.907 22.1039 68.1418 43.3032 73.8548 67.298C78.186 85.4891 76.1039 92.9092 73.5945 95.9306C71.9394 97.9233 70.1157 98.0243 69.7648 98.0243Z" fill="#CCCCCC"/>
<path d="M59.7708 108.018C59.7398 108.018 59.7203 108.018 59.7135 108.017L5.10148 108.018C4.57569 108.018 4.05776 107.89 3.59302 107.644C3.12827 107.398 2.73087 107.042 2.4356 106.607C2.14034 106.172 1.95619 105.671 1.89929 105.149C1.84239 104.626 1.91446 104.097 2.1092 103.609C4.09071 98.6581 6.7587 86.7807 2.36426 62.8552C-2.8248 34.6036 1.82079 24.3934 4.05895 21.3149C4.35844 20.9045 4.75049 20.5705 5.20329 20.34C5.65608 20.1094 6.15686 19.989 6.66495 19.9883H62.1318C62.6308 19.9878 63.123 20.1034 63.5697 20.3258C64.0163 20.5483 64.4051 20.8716 64.7053 21.2701C65.0055 21.6687 65.2089 22.1316 65.2995 22.6223C65.39 23.1129 65.3653 23.618 65.2271 24.0974C62.9131 32.098 58.1478 53.2973 63.8609 77.2921C68.1921 95.4833 66.11 102.903 63.6006 105.925C61.9455 107.917 60.1218 108.018 59.7708 108.018ZM6.66495 20.5359C6.24323 20.5365 5.8276 20.6364 5.45177 20.8277C5.07594 21.019 4.7505 21.2963 4.50189 21.6369C2.30523 24.6583 -2.2479 34.7132 2.90284 62.7563C7.10085 85.6121 5.06484 97.6981 2.61757 103.812C2.45264 104.216 2.39073 104.654 2.43743 105.087C2.48414 105.52 2.63799 105.935 2.8851 106.294C3.13012 106.657 3.46033 106.953 3.84676 107.158C4.23319 107.363 4.66403 107.47 5.10147 107.47H59.7269C59.8131 107.474 61.574 107.523 63.1963 105.554C65.6139 102.62 67.5993 95.3577 63.3281 77.4188C57.585 53.2975 62.375 31.9876 64.701 23.9453C64.8156 23.5474 64.8361 23.1283 64.7608 22.7211C64.6856 22.314 64.5168 21.9299 64.2676 21.5992C64.0184 21.2685 63.6957 21.0003 63.325 20.8157C62.9544 20.6312 62.5459 20.5354 62.1318 20.5359H6.66495Z" fill="#3F3D56"/>
<path d="M52.6975 44.6309H9.1619C8.58096 44.6309 8.0238 44.4002 7.61301 43.9894C7.20221 43.5786 6.97144 43.0214 6.97144 42.4405C6.97144 41.8595 7.20221 41.3024 7.61301 40.8916C8.0238 40.4808 8.58096 40.25 9.1619 40.25H52.6975C53.2784 40.25 53.8356 40.4808 54.2464 40.8916C54.6572 41.3024 54.8879 41.8595 54.8879 42.4405C54.8879 43.0214 54.6572 43.5786 54.2464 43.9894C53.8356 44.4002 53.2784 44.6309 52.6975 44.6309Z" fill="url(#paint0_linear_82_909)"/>
<path d="M52.6975 53.9405H9.1619C8.58096 53.9405 8.0238 53.7097 7.61301 53.2989C7.20221 52.8881 6.97144 52.331 6.97144 51.75C6.97144 51.1691 7.20221 50.6119 7.61301 50.2011C8.0238 49.7903 8.58096 49.5596 9.1619 49.5596H52.6975C53.2784 49.5596 53.8356 49.7903 54.2464 50.2011C54.6572 50.6119 54.8879 51.1691 54.8879 51.75C54.8879 52.331 54.6572 52.8881 54.2464 53.2989C53.8356 53.7097 53.2784 53.9405 52.6975 53.9405Z" fill="#CCCCCC"/>
<path d="M52.6975 63.2501H9.1619C8.58096 63.2501 8.0238 63.0193 7.61301 62.6085C7.20221 62.1977 6.97144 61.6406 6.97144 61.0596C6.97144 60.4787 7.20221 59.9215 7.61301 59.5107C8.0238 59.0999 8.58096 58.8691 9.1619 58.8691H52.6975C53.2784 58.8691 53.8356 59.0999 54.2464 59.5107C54.6572 59.9215 54.8879 60.4787 54.8879 61.0596C54.8879 61.6406 54.6572 62.1977 54.2464 62.6085C53.8356 63.0193 53.2784 63.2501 52.6975 63.2501Z" fill="#CCCCCC"/>
<path d="M55.9831 72.5596H12.4475C11.8666 72.5596 11.3094 72.3289 10.8987 71.9181C10.4879 71.5073 10.2571 70.9501 10.2571 70.3692C10.2571 69.7882 10.4879 69.2311 10.8987 68.8203C11.3094 68.4095 11.8666 68.1787 12.4475 68.1787H55.9831C56.5641 68.1787 57.1212 68.4095 57.532 68.8203C57.9428 69.2311 58.1736 69.7882 58.1736 70.3692C58.1736 70.9501 57.9428 71.5073 57.532 71.9181C57.1212 72.3289 56.5641 72.5596 55.9831 72.5596Z" fill="#CCCCCC"/>
<path d="M55.9831 81.8692H12.4475C11.8666 81.8692 11.3094 81.6384 10.8987 81.2276C10.4879 80.8169 10.2571 80.2597 10.2571 79.6788C10.2571 79.0978 10.4879 78.5406 10.8987 78.1299C11.3094 77.7191 11.8666 77.4883 12.4475 77.4883H55.9831C56.5641 77.4883 57.1212 77.7191 57.532 78.1299C57.9428 78.5406 58.1736 79.0978 58.1736 79.6788C58.1736 80.2597 57.9428 80.8169 57.532 81.2276C57.1212 81.6384 56.5641 81.8692 55.9831 81.8692Z" fill="#CCCCCC"/>
<path d="M29.6976 35.3214H9.1619C8.58096 35.3214 8.0238 35.0906 7.61301 34.6798C7.20221 34.269 6.97144 33.7118 6.97144 33.1309C6.97144 32.55 7.20221 31.9928 7.61301 31.582C8.0238 31.1712 8.58096 30.9404 9.1619 30.9404H29.6976C30.2785 30.9404 30.8357 31.1712 31.2464 31.582C31.6572 31.9928 31.888 32.55 31.888 33.1309C31.888 33.7118 31.6572 34.269 31.2464 34.6798C30.8357 35.0906 30.2785 35.3214 29.6976 35.3214Z" fill="url(#paint1_linear_82_909)"/>
<path d="M27.0459 96.879C27.4879 95.0075 29.5644 94.3941 31.2621 94.4627C32.3347 94.5351 33.3987 94.7034 34.4413 94.9657C35.5321 95.2098 36.6124 95.4988 37.6872 95.8053C39.6582 96.3673 41.6089 97.0472 43.6124 97.4866C45.2803 97.8525 47.0928 98.0671 48.7561 97.562C50.355 97.0765 51.7114 95.8846 52.1465 94.2367C52.5564 92.6838 51.9936 90.9858 50.4888 90.2762C49.1165 89.629 47.3831 89.9581 46.703 91.4217C45.9361 93.0718 46.7023 94.8714 47.9166 96.0655C48.6068 96.7136 49.3628 97.2878 50.1722 97.7788C50.9938 98.3387 51.9082 98.7482 52.873 98.9884C54.457 99.3268 56.3438 98.8282 57.1607 97.3149C57.3423 96.9724 57.4515 96.5961 57.4816 96.2096C57.5299 95.6834 56.7082 95.6867 56.6601 96.2096C56.5216 97.7164 54.757 98.4222 53.4373 98.2569C52.5465 98.1093 51.6958 97.7791 50.9387 97.2871C50.208 96.8611 49.5156 96.3725 48.8692 95.8269C47.7499 94.8583 46.7007 93.2643 47.4525 91.7528C48.0646 90.5221 49.6602 90.5343 50.6307 91.3281C51.8061 92.2893 51.5965 94.034 50.8213 95.1756C49.963 96.4395 48.4072 96.9694 46.9403 97.0265C45.3465 97.0886 43.766 96.7229 42.2427 96.2903C40.35 95.7528 38.4761 95.1513 36.5743 94.6453C35.4946 94.358 34.4066 94.0988 33.3074 93.897C32.2681 93.668 31.2005 93.5941 30.1396 93.6778C28.4255 93.8757 26.6759 94.8734 26.2538 96.6606C26.1324 97.1747 26.9243 97.3941 27.0459 96.879Z" fill="#3F3D56"/>
<path d="M110.968 143.322C111.015 148.714 111.41 154.097 112.15 159.437C112.176 159.625 112.205 159.812 112.231 160L162.722 159.718C162.87 159.531 163.016 159.343 163.157 159.152C163.628 158.521 164.07 157.872 164.476 157.2C166.425 153.964 167.318 150.176 166.423 147.562L166.407 147.522C166.214 146.949 165.91 146.421 165.512 145.966C163.473 143.671 159.35 144.054 155.609 145.906C158.965 142.233 161.637 137.598 161.84 133.461C162.039 129.426 159.929 126.543 157.64 124.093C157.565 124.012 157.49 123.933 157.415 123.854C157.378 123.814 157.34 123.776 157.303 123.735C155.518 121.868 153.436 120.028 150.423 120.25C147.118 120.495 143.454 123.263 140.885 126.489C138.316 129.712 136.609 133.374 134.879 136.947C133.146 140.519 131.271 144.181 128.491 147.234C132.257 142.471 135.293 137.051 136.415 131.78C137.536 126.51 136.549 121.447 133.193 118.965C132.174 118.235 130.995 117.759 129.754 117.578C129.61 117.553 129.463 117.534 129.313 117.517C126.206 117.163 122.497 118.238 119.341 120.806C115.865 123.634 113.455 127.827 112.256 131.807C111.057 135.787 110.929 139.618 110.968 143.322Z" fill="#F2F2F2"/>
<path d="M144.002 159.822L144.968 159.817C145.274 159.625 145.582 159.436 145.892 159.249C146.083 159.128 146.277 159.011 146.471 158.893C149.674 156.937 152.896 155.061 156.139 153.264C159.378 151.466 162.634 149.751 165.906 148.119C165.993 148.081 166.064 148.015 166.106 147.93C166.149 147.845 166.16 147.749 166.139 147.657C166.136 147.645 166.13 147.633 166.123 147.623C166.077 147.537 165.975 147.502 165.826 147.575C165.425 147.776 165.021 147.977 164.62 148.183C161.339 149.843 158.072 151.586 154.819 153.412C151.568 155.237 148.336 157.142 145.122 159.129C145.055 159.17 144.987 159.213 144.92 159.254C144.613 159.443 144.309 159.633 144.002 159.822Z" fill="white"/>
<path d="M131.554 159.892L132.151 159.889C132.285 159.7 132.418 159.512 132.552 159.323C135.716 154.887 138.879 150.45 142.041 146.014C147.22 138.751 152.397 131.488 157.573 124.224C157.604 124.185 157.626 124.141 157.64 124.093C157.684 123.932 157.566 123.838 157.415 123.854C157.351 123.864 157.29 123.886 157.236 123.921C157.181 123.955 157.135 124.001 157.099 124.055C154.196 128.128 151.293 132.2 148.391 136.27C143.239 143.497 138.088 150.723 132.938 157.948C132.61 158.407 132.283 158.868 131.955 159.327C131.821 159.515 131.686 159.703 131.554 159.892Z" fill="white"/>
<path d="M118.253 156.425C118.283 157.431 118.35 158.421 118.437 159.402C118.454 159.59 118.471 159.778 118.488 159.965L119.114 159.962C119.095 159.774 119.076 159.587 119.059 159.399C118.927 157.982 118.833 156.549 118.82 155.076C118.803 150.995 119.201 146.923 120.007 142.922C120.864 138.614 122.094 134.388 123.684 130.294C125.352 125.975 127.364 121.797 129.699 117.8C129.743 117.735 129.763 117.656 129.754 117.578C129.729 117.399 129.491 117.346 129.313 117.517C129.278 117.55 129.248 117.589 129.223 117.631C128.934 118.127 128.651 118.626 128.372 119.126C126.123 123.145 124.198 127.338 122.615 131.663C121.107 135.771 119.96 140.003 119.187 144.31C118.463 148.306 118.15 152.366 118.253 156.425Z" fill="white"/>
<path d="M57.2272 97.0742C57.1234 96.9877 57.0474 96.8725 57.009 96.7429C56.9705 96.6133 56.9713 96.4753 57.0112 96.3462C57.0511 96.2171 57.1283 96.1026 57.2331 96.0173C57.3379 95.932 57.4656 95.8797 57.6002 95.8668C59.0936 95.7226 60.6008 95.8771 62.0339 96.3212L76.6321 100.83C76.821 100.888 76.9966 100.983 77.1489 101.109C77.3011 101.235 77.427 101.39 77.5194 101.565C77.6117 101.74 77.6687 101.932 77.6871 102.128C77.7055 102.325 77.6849 102.524 77.6266 102.713C77.5682 102.902 77.4732 103.078 77.347 103.23C77.2208 103.382 77.0658 103.508 76.8909 103.6C76.716 103.693 76.5247 103.75 76.3278 103.768C76.1309 103.786 75.9323 103.766 75.7433 103.707L61.1451 99.199C59.7111 98.7577 58.3792 98.0354 57.2272 97.0742Z" fill="#3F3D56"/>
<path d="M117.067 115.802C116.671 115.636 116.316 115.384 116.027 115.066C115.738 114.748 115.522 114.37 115.395 113.959C115.268 113.548 115.232 113.114 115.291 112.688C115.35 112.262 115.501 111.854 115.734 111.493L113.232 98.4074L119.61 97.9102L119.995 110.71C120.575 111.142 120.977 111.772 121.125 112.481C121.272 113.19 121.154 113.928 120.793 114.556C120.432 115.184 119.853 115.657 119.167 115.887C118.48 116.117 117.733 116.086 117.067 115.802Z" fill="#FFB8B8"/>
<path d="M112.839 109.048L106.343 78.7974C106.076 77.5549 106.314 76.2573 107.004 75.1901C107.694 74.1229 108.78 73.3735 110.022 73.1068C111.265 72.84 112.562 73.0778 113.629 73.7677C114.697 74.4577 115.446 75.5433 115.713 76.7858L122.208 107.037C122.277 107.356 122.215 107.69 122.038 107.964C121.861 108.238 121.582 108.431 121.262 108.5L114.302 109.994C114.144 110.028 113.98 110.031 113.821 110.002C113.662 109.973 113.51 109.913 113.374 109.825C113.238 109.737 113.121 109.623 113.029 109.49C112.937 109.357 112.873 109.207 112.839 109.048Z" fill="#CCCCCC"/>
<path d="M102.177 156.636H98.8205L97.2234 143.688L102.178 143.689L102.177 156.636Z" fill="#FFB8B8"/>
<path d="M96.4226 155.677H102.896V159.753H92.3464C92.3464 159.218 92.4519 158.688 92.6567 158.193C92.8616 157.699 93.1618 157.249 93.5403 156.871C93.9188 156.492 94.3682 156.192 94.8627 155.987C95.3573 155.782 95.8873 155.677 96.4226 155.677Z" fill="#2F2E41"/>
<path d="M113.403 156.362H110.047L108.45 143.414L113.404 143.414L113.403 156.362Z" fill="#FFB8B8"/>
<path d="M107.649 155.403H114.123V159.479H103.573C103.573 158.944 103.678 158.414 103.883 157.92C104.088 157.425 104.388 156.976 104.767 156.597C105.145 156.219 105.594 155.918 106.089 155.714C106.584 155.509 107.114 155.403 107.649 155.403Z" fill="#2F2E41"/>
<path d="M98.1552 154.221C98.0294 154.117 97.9255 153.99 97.8495 153.846C97.7735 153.702 97.727 153.544 97.7127 153.382L93.8102 110.455C93.7951 110.288 93.8141 110.12 93.866 109.961C93.9179 109.802 94.0016 109.655 94.1121 109.529C94.2226 109.404 94.3575 109.302 94.5087 109.23C94.6598 109.158 94.824 109.118 94.9912 109.112L114.563 108.378C114.732 108.372 114.901 108.4 115.059 108.462C115.217 108.524 115.36 108.618 115.48 108.738C115.6 108.857 115.694 109.001 115.756 109.158C115.818 109.316 115.847 109.485 115.84 109.654L114.276 152.417C114.264 152.716 114.145 153.001 113.939 153.219C113.732 153.436 113.454 153.571 113.156 153.599L109.21 153.958C109.046 153.972 108.881 153.954 108.725 153.905C108.568 153.855 108.423 153.774 108.298 153.667C108.173 153.561 108.071 153.43 107.997 153.283C107.923 153.136 107.88 152.976 107.869 152.812L106.058 125.646C106.057 125.594 106.045 125.542 106.023 125.495C106.002 125.447 105.971 125.404 105.933 125.368C105.895 125.333 105.85 125.305 105.801 125.287C105.752 125.269 105.7 125.261 105.648 125.263H105.647C105.594 125.261 105.542 125.269 105.493 125.288C105.444 125.306 105.399 125.334 105.361 125.37C105.323 125.406 105.292 125.449 105.271 125.497C105.25 125.545 105.239 125.597 105.238 125.649L103.617 152.999C103.601 153.292 103.48 153.569 103.277 153.78C103.074 153.992 102.802 154.124 102.51 154.152L99.0624 154.497C98.9004 154.513 98.7368 154.497 98.581 154.45C98.4252 154.403 98.2805 154.325 98.1552 154.221Z" fill="#2F2E41"/>
<path d="M105.684 66.6786C109.398 66.6786 112.409 63.6677 112.409 59.9535C112.409 56.2394 109.398 53.2285 105.684 53.2285C101.97 53.2285 98.9587 56.2394 98.9587 59.9535C98.9587 63.6677 101.97 66.6786 105.684 66.6786Z" fill="#FFB8B8"/>
<path d="M92.7331 110.746C92.6133 110.609 92.5253 110.449 92.4755 110.274C92.4256 110.1 92.4152 109.917 92.4448 109.738C93.6864 102.192 92.9866 91.0989 92.1809 83.1221C91.9706 81.0061 92.3216 78.8721 93.1984 76.9348C94.0752 74.9976 95.447 73.3256 97.1755 72.0872L100.688 69.0769C100.921 68.8791 101.219 68.7737 101.525 68.7806L110.25 69.0298C110.565 69.0384 110.864 69.1675 111.086 69.3905L112.434 72.3762L112.448 72.3864C114.055 73.5673 115.344 75.128 116.2 76.9289C117.056 78.7298 117.452 80.7148 117.353 82.7063L116.069 109.248C116.053 109.557 115.922 109.848 115.701 110.065C115.481 110.282 115.188 110.409 114.879 110.42L93.7006 111.165C93.6869 111.165 93.6733 111.165 93.6596 111.165C93.4842 111.165 93.3108 111.128 93.1509 111.056C92.9911 110.983 92.8486 110.878 92.7331 110.746Z" fill="#CCCCCC"/>
<path d="M67.3302 99.6693C67.3197 99.2395 67.4035 98.8125 67.5758 98.4185C67.7481 98.0245 68.0047 97.6731 68.3275 97.389C68.6503 97.1049 69.0315 96.8951 69.4442 96.7742C69.8569 96.6534 70.2911 96.6245 70.7161 96.6896L81.6316 89.0508L84.6954 94.666L73.1744 100.256C73.0177 100.963 72.6071 101.588 72.0205 102.012C71.434 102.436 70.7121 102.631 69.9917 102.558C69.2713 102.486 68.6025 102.152 68.112 101.62C67.6215 101.087 67.3433 100.393 67.3302 99.6693Z" fill="#FFB8B8"/>
<path d="M76.5161 100.998C76.3561 100.973 76.2024 100.918 76.064 100.834C75.9256 100.75 75.8051 100.639 75.7097 100.509L71.4973 94.7697C71.3043 94.5061 71.2238 94.1767 71.2733 93.8538C71.3228 93.5309 71.4984 93.2408 71.7615 93.0472L96.704 74.7394C97.7285 73.9875 99.0097 73.6733 100.266 73.866C100.888 73.9614 101.485 74.1784 102.023 74.5046C102.561 74.8307 103.03 75.2597 103.402 75.767C103.774 76.2743 104.043 76.8499 104.193 77.4611C104.343 78.0722 104.371 78.7069 104.276 79.3289C104.18 79.9509 103.963 80.548 103.637 81.0861C103.311 81.6242 102.882 82.0928 102.375 82.4652L77.432 100.773C77.2217 100.928 76.9671 101.012 76.7057 101.012C76.6422 101.012 76.5789 101.007 76.5161 100.998Z" fill="#CCCCCC"/>
<path d="M106.028 65.9401C106.92 64.8466 106.822 63.181 106.107 61.965C105.391 60.7489 104.176 59.9114 102.925 59.2573C101.675 58.6031 100.347 58.0887 99.1703 57.3098C97.9937 56.5309 98.045 53.2335 97.7317 51.8576L98.4789 52.1065C98.1917 51.7391 98.0996 50.6535 97.8124 50.2861C98.6568 50.3695 99.306 51.1712 100.15 51.2546L99.6631 49.9468C102.558 49.7683 104.359 51.7802 107.254 51.6017C108.689 51.5133 110.246 51.4573 111.426 52.2789C112.451 52.9928 112.969 54.2285 113.31 55.4302C114.041 58.0103 114.154 60.9005 112.892 63.2665C111.629 65.6325 108.72 67.2268 106.178 66.3725L106.028 65.9401Z" fill="#2F2E41"/>
<path d="M69.1058 159.904H173.427C173.5 159.904 173.569 159.875 173.621 159.824C173.672 159.773 173.701 159.703 173.701 159.63C173.701 159.558 173.672 159.488 173.621 159.437C173.569 159.385 173.5 159.356 173.427 159.356H69.1058C69.0332 159.356 68.9636 159.385 68.9122 159.437C68.8609 159.488 68.832 159.558 68.832 159.63C68.832 159.703 68.8609 159.773 68.9122 159.824C68.9636 159.875 69.0332 159.904 69.1058 159.904Z" fill="#3F3D56"/>
</g>
<defs>
<linearGradient id="paint0_linear_82_909" x1="6.97144" y1="42.4405" x2="54.8879" y2="42.4405" gradientUnits="userSpaceOnUse">
<stop stop-color="#22DCD9"/>
<stop offset="0.333333" stop-color="#5456AB"/>
<stop offset="0.666667" stop-color="#97238A"/>
<stop offset="1" stop-color="#F73E94"/>
</linearGradient>
<linearGradient id="paint1_linear_82_909" x1="6.97144" y1="33.1309" x2="31.888" y2="33.1309" gradientUnits="userSpaceOnUse">
<stop stop-color="#22DCD9"/>
<stop offset="0.333333" stop-color="#5456AB"/>
<stop offset="0.666667" stop-color="#97238A"/>
<stop offset="1" stop-color="#F73E94"/>
</linearGradient>
<clipPath id="clip0_82_909">
<rect width="173.701" height="160" fill="white"/>
</clipPath>
</defs>
</svg>
