<svg width="213" height="160" viewBox="0 0 213 160" fill="none" xmlns="http://www.w3.org/2000/svg">
<g clip-path="url(#clip0_2049_4426)">
<path d="M122.563 7.78724C124.387 11.6562 120.521 12.7521 116.093 14.8258C111.665 16.8996 108.351 19.1658 106.527 15.2969C104.702 11.4279 103.222 3.74866 109.487 0.815016C115.967 -2.21969 120.738 3.91826 122.563 7.78724Z" fill="#2F2E41"/>
<path d="M113.529 15.396C116.821 15.396 119.49 12.7362 119.49 9.45509C119.49 6.17401 116.821 3.51416 113.529 3.51416C110.236 3.51416 107.567 6.17401 107.567 9.45509C107.567 12.7362 110.236 15.396 113.529 15.396Z" fill="#FFB8B8"/>
<path d="M143.061 35.8018C142.855 35.5333 142.649 35.2697 142.44 35.0133C142.17 34.6795 141.899 34.3562 141.627 34.0433C138.537 30.49 135.251 28.2526 131.632 28.0131H131.627L131.574 28.0083L124.363 35.0133L121.911 37.3934L121.965 37.524L123.287 40.8064H146.464C145.42 39.0792 144.284 37.4086 143.061 35.8018Z" fill="#2F2E41"/>
<path d="M107.045 11.8467L109.179 10.8473L108.882 7.77943L110.309 10.3183L111.329 9.84067L111.156 8.05106L111.988 9.53205L119.567 5.98298C118.855 4.4734 117.57 3.30744 115.996 2.7416C114.422 2.17576 112.686 2.25639 111.171 2.96575L110.073 3.48012C108.558 4.18948 107.388 5.46947 106.821 7.0385C106.253 8.60753 106.334 10.3371 107.045 11.8467Z" fill="#2F2E41"/>
<path d="M156.436 119.685H31.9628C30.901 119.683 29.8831 119.263 29.1323 118.514C28.3815 117.766 27.9592 116.752 27.958 115.694V41.1559C27.9589 40.3807 28.2683 39.6375 28.8183 39.0893C29.3683 38.5412 30.114 38.2328 30.8919 38.2319H157.456C158.247 38.2328 159.006 38.5465 159.565 39.1042C160.125 39.6618 160.439 40.4179 160.44 41.2065V115.694C160.439 116.752 160.017 117.766 159.266 118.514C158.515 119.263 157.497 119.683 156.436 119.685Z" fill="#F2F2F2"/>
<path d="M35.8453 115.693H152.551C153.581 115.693 154.569 115.285 155.297 114.56C156.026 113.834 156.435 112.849 156.435 111.823V48.5586C156.435 47.5322 156.026 46.5478 155.297 45.822C154.569 45.0962 153.581 44.6885 152.551 44.6885H35.8453C34.8154 44.6885 33.8276 45.0962 33.0993 45.822C32.3711 46.5478 31.9619 47.5322 31.9619 48.5586V111.823C31.9619 112.849 32.3711 113.834 33.0993 114.56C33.8276 115.285 34.8154 115.693 35.8453 115.693Z" fill="white"/>
<path d="M160.384 40.9276H27.9014V38.8957C27.9029 37.8341 28.327 36.8164 29.0805 36.0659C29.834 35.3154 30.8554 34.8935 31.9207 34.8926H156.365C157.43 34.8934 158.452 35.3154 159.205 36.0659C159.959 36.8164 160.383 37.8341 160.384 38.8957V40.9276Z" fill="url(#paint0_linear_2049_4426)"/>
<path d="M35.2057 38.9521C35.7798 38.9521 36.2453 38.4882 36.2453 37.916C36.2453 37.3438 35.7798 36.8799 35.2057 36.8799C34.6315 36.8799 34.166 37.3438 34.166 37.916C34.166 38.4882 34.6315 38.9521 35.2057 38.9521Z" fill="white"/>
<path d="M39.1519 38.9521C39.7261 38.9521 40.1916 38.4882 40.1916 37.916C40.1916 37.3438 39.7261 36.8799 39.1519 36.8799C38.5778 36.8799 38.1123 37.3438 38.1123 37.916C38.1123 38.4882 38.5778 38.9521 39.1519 38.9521Z" fill="white"/>
<path d="M43.0982 38.9521C43.6724 38.9521 44.1379 38.4882 44.1379 37.916C44.1379 37.3438 43.6724 36.8799 43.0982 36.8799C42.5241 36.8799 42.0586 37.3438 42.0586 37.916C42.0586 38.4882 42.5241 38.9521 43.0982 38.9521Z" fill="white"/>
<path d="M97.8401 101.973H87.4034C86.7921 101.973 86.206 101.73 85.7738 101.3C85.3415 100.869 85.0984 100.285 85.0977 99.6755V89.2745C85.0984 88.6652 85.3415 88.0812 85.7738 87.6504C86.206 87.2196 86.7921 86.9773 87.4034 86.9766H97.8401C98.4514 86.9773 99.0375 87.2196 99.4698 87.6504C99.902 88.0812 100.145 88.6652 100.146 89.2745V99.6755C100.145 100.285 99.902 100.869 99.4698 101.3C99.0375 101.73 98.4514 101.973 97.8401 101.973ZM87.4034 87.4603C86.9208 87.4609 86.4581 87.6522 86.1168 87.9923C85.7756 88.3324 85.5836 88.7935 85.5831 89.2745V99.6755C85.5836 100.156 85.7756 100.618 86.1168 100.958C86.4581 101.298 86.9208 101.489 87.4034 101.49H97.8401C98.3227 101.489 98.7854 101.298 99.1267 100.958C99.468 100.618 99.6599 100.156 99.6605 99.6755V89.2745C99.6599 88.7935 99.468 88.3324 99.1267 87.9923C98.7854 87.6522 98.3227 87.4609 97.8401 87.4603H87.4034Z" fill="#CCCCCC"/>
<path d="M95.777 99.071H89.4664C89.2734 99.0708 89.0883 98.9943 88.9518 98.8582C88.8153 98.7222 88.7385 98.5377 88.7383 98.3454V90.605C88.7385 90.4127 88.8153 90.2282 88.9518 90.0922C89.0883 89.9561 89.2734 89.8796 89.4664 89.8794H94.039C94.2049 89.8795 94.3658 89.936 94.4951 90.0394L96.233 91.4312C96.3181 91.499 96.3868 91.5851 96.4339 91.683C96.481 91.781 96.5054 91.8882 96.5051 91.9968V98.3454C96.5049 98.5377 96.4281 98.7222 96.2916 98.8582C96.1551 98.9943 95.97 99.0708 95.777 99.071ZM89.4664 90.3632C89.4021 90.3632 89.3404 90.3888 89.2949 90.4341C89.2494 90.4794 89.2238 90.5409 89.2237 90.605V98.3454C89.2238 98.4095 89.2494 98.471 89.2949 98.5163C89.3404 98.5616 89.4021 98.5872 89.4664 98.5872H95.777C95.8413 98.5872 95.903 98.5616 95.9485 98.5163C95.994 98.471 96.0196 98.4095 96.0197 98.3454V91.9968C96.0198 91.9606 96.0117 91.9249 95.996 91.8923C95.9803 91.8596 95.9574 91.8309 95.929 91.8083L94.1909 90.4164C94.1478 90.382 94.0942 90.3632 94.039 90.3632H89.4664Z" fill="#CCCCCC"/>
<path d="M94.5636 93.2655H90.6802C90.6158 93.2655 90.5541 93.24 90.5086 93.1947C90.4631 93.1493 90.4375 93.0878 90.4375 93.0236C90.4375 92.9595 90.4631 92.8979 90.5086 92.8526C90.5541 92.8072 90.6158 92.7817 90.6802 92.7817H94.5636C94.628 92.7817 94.6897 92.8072 94.7352 92.8526C94.7808 92.8979 94.8063 92.9595 94.8063 93.0236C94.8063 93.0878 94.7808 93.1493 94.7352 93.1947C94.6897 93.24 94.628 93.2655 94.5636 93.2655Z" fill="#CCCCCC"/>
<path d="M94.5636 94.7167H90.6802C90.6158 94.7167 90.5541 94.6912 90.5086 94.6458C90.4631 94.6005 90.4375 94.5389 90.4375 94.4748C90.4375 94.4106 90.4631 94.3491 90.5086 94.3038C90.5541 94.2584 90.6158 94.2329 90.6802 94.2329H94.5636C94.628 94.2329 94.6897 94.2584 94.7352 94.3038C94.7808 94.3491 94.8063 94.4106 94.8063 94.4748C94.8063 94.5389 94.7808 94.6005 94.7352 94.6458C94.6897 94.6912 94.628 94.7167 94.5636 94.7167Z" fill="#CCCCCC"/>
<path d="M94.5636 96.1683H90.6802C90.6158 96.1683 90.5541 96.1429 90.5086 96.0975C90.4631 96.0521 90.4375 95.9906 90.4375 95.9265C90.4375 95.8623 90.4631 95.8008 90.5086 95.7554C90.5541 95.7101 90.6158 95.6846 90.6802 95.6846H94.5636C94.628 95.6846 94.6897 95.7101 94.7352 95.7554C94.7808 95.8008 94.8063 95.8623 94.8063 95.9265C94.8063 95.9906 94.7808 96.0521 94.7352 96.0975C94.6897 96.1429 94.628 96.1683 94.5636 96.1683Z" fill="#CCCCCC"/>
<path d="M122.597 101.973H112.16C111.549 101.973 110.963 101.73 110.531 101.3C110.098 100.869 109.855 100.285 109.854 99.6755V89.2745C109.855 88.6652 110.098 88.0812 110.531 87.6504C110.963 87.2196 111.549 86.9773 112.16 86.9766H122.597C123.208 86.9773 123.794 87.2196 124.227 87.6504C124.659 88.0812 124.902 88.6652 124.903 89.2745V99.6755C124.902 100.285 124.659 100.869 124.227 101.3C123.794 101.73 123.208 101.973 122.597 101.973ZM112.16 87.4603C111.678 87.4609 111.215 87.6522 110.874 87.9923C110.532 88.3324 110.34 88.7935 110.34 89.2745V99.6755C110.34 100.156 110.532 100.618 110.874 100.958C111.215 101.298 111.678 101.489 112.16 101.49H122.597C123.08 101.489 123.542 101.298 123.884 100.958C124.225 100.618 124.417 100.156 124.417 99.6755V89.2745C124.417 88.7935 124.225 88.3324 123.884 87.9923C123.542 87.6522 123.08 87.4609 122.597 87.4603H112.16Z" fill="#CCCCCC"/>
<path d="M120.777 97.1359H113.981C113.788 97.1357 113.603 97.0592 113.466 96.9231C113.33 96.7871 113.253 96.6026 113.253 96.4103V92.5401C113.253 92.3477 113.33 92.1633 113.466 92.0272C113.603 91.8912 113.788 91.8147 113.981 91.8145H120.777C120.97 91.8147 121.155 91.8912 121.292 92.0272C121.428 92.1633 121.505 92.3477 121.505 92.5401V96.4103C121.505 96.6026 121.428 96.7871 121.292 96.9231C121.155 97.0592 120.97 97.1357 120.777 97.1359ZM113.981 92.2982C113.917 92.2983 113.855 92.3238 113.81 92.3691C113.764 92.4145 113.738 92.476 113.738 92.5401V96.4103C113.738 96.4744 113.764 96.5359 113.81 96.5812C113.855 96.6266 113.917 96.6521 113.981 96.6521H120.777C120.841 96.6521 120.903 96.6266 120.949 96.5812C120.994 96.5359 121.02 96.4744 121.02 96.4103V92.5401C121.02 92.476 120.994 92.4145 120.949 92.3691C120.903 92.3238 120.841 92.2983 120.777 92.2982H113.981Z" fill="#CCCCCC"/>
<path d="M117.379 95.1133C117.242 95.1134 117.109 95.0755 116.993 95.0038L113.367 92.7452C113.312 92.7111 113.273 92.6569 113.259 92.5944C113.245 92.532 113.256 92.4664 113.29 92.412C113.324 92.3577 113.378 92.319 113.441 92.3046C113.504 92.2901 113.569 92.301 113.624 92.3349L117.25 94.5935C117.289 94.6173 117.333 94.63 117.379 94.63C117.424 94.63 117.469 94.6173 117.507 94.5935L121.133 92.3349C121.188 92.301 121.254 92.2901 121.317 92.3046C121.379 92.319 121.433 92.3577 121.468 92.412C121.502 92.4664 121.513 92.532 121.498 92.5944C121.484 92.6569 121.445 92.7111 121.391 92.7452L117.765 95.0038C117.649 95.0755 117.515 95.1135 117.379 95.1133Z" fill="#CCCCCC"/>
<path d="M73.0833 101.973H62.6466C62.0353 101.973 61.4492 101.73 61.0169 101.3C60.5847 100.869 60.3415 100.285 60.3408 99.6755V89.2745C60.3415 88.6652 60.5847 88.0812 61.0169 87.6504C61.4492 87.2196 62.0353 86.9773 62.6466 86.9766H73.0833C73.6946 86.9773 74.2807 87.2196 74.7129 87.6504C75.1452 88.0812 75.3884 88.6652 75.3891 89.2745V99.6755C75.3884 100.285 75.1452 100.869 74.7129 101.3C74.2807 101.73 73.6946 101.973 73.0833 101.973ZM62.6466 87.4603C62.164 87.4609 61.7013 87.6522 61.36 87.9923C61.0187 88.3324 60.8268 88.7935 60.8262 89.2745V99.6755C60.8268 100.156 61.0187 100.618 61.36 100.958C61.7013 101.298 62.164 101.489 62.6466 101.49H73.0833C73.5659 101.489 74.0286 101.298 74.3699 100.958C74.7111 100.618 74.9031 100.156 74.9036 99.6755V89.2745C74.9031 88.7935 74.7111 88.3324 74.3699 87.9923C74.0286 87.6522 73.5659 87.4609 73.0833 87.4603H62.6466Z" fill="#CCCCCC"/>
<path d="M71.2634 97.1359H64.4674C64.2743 97.1357 64.0893 97.0592 63.9528 96.9231C63.8163 96.7871 63.7395 96.6026 63.7393 96.4103V92.5401C63.7395 92.3477 63.8163 92.1633 63.9528 92.0272C64.0893 91.8912 64.2743 91.8147 64.4674 91.8145H71.2634C71.4564 91.8147 71.6415 91.8912 71.778 92.0272C71.9145 92.1633 71.9913 92.3477 71.9915 92.5401V96.4103C71.9913 96.6026 71.9145 96.7871 71.778 96.9231C71.6415 97.0592 71.4564 97.1357 71.2634 97.1359ZM64.4674 92.2982C64.403 92.2983 64.3414 92.3238 64.2959 92.3691C64.2503 92.4145 64.2247 92.476 64.2247 92.5401V96.4103C64.2247 96.4744 64.2503 96.5359 64.2959 96.5812C64.3414 96.6266 64.403 96.6521 64.4674 96.6521H71.2634C71.3277 96.6521 71.3894 96.6266 71.4349 96.5812C71.4804 96.5359 71.506 96.4744 71.5061 96.4103V92.5401C71.506 92.476 71.4804 92.4145 71.4349 92.3691C71.3894 92.3238 71.3277 92.2983 71.2634 92.2982H64.4674Z" fill="#CCCCCC"/>
<path d="M70.1862 97.1357H65.3019C65.2167 97.1358 65.1329 97.1134 65.0591 97.071C64.9853 97.0285 64.924 96.9674 64.8814 96.8939C64.8388 96.8203 64.8164 96.7369 64.8164 96.652C64.8164 96.5671 64.8389 96.4836 64.8815 96.4101L66.3527 93.8703C66.3953 93.7968 66.4566 93.7357 66.5304 93.6932C66.6042 93.6508 66.6879 93.6284 66.7732 93.6284C66.8584 93.6284 66.9421 93.6508 67.0159 93.6932C67.0897 93.7357 67.151 93.7968 67.1936 93.8703L68.1438 95.5106L68.6943 94.5603C68.7369 94.4867 68.7982 94.4257 68.872 94.3832C68.9458 94.3408 69.0295 94.3184 69.1147 94.3184C69.1999 94.3184 69.2836 94.3408 69.3574 94.3832C69.4312 94.4257 69.4925 94.4867 69.5351 94.5603L70.6067 96.4101C70.6493 96.4836 70.6718 96.5671 70.6718 96.652C70.6717 96.7369 70.6493 96.8204 70.6067 96.8939C70.5641 96.9674 70.5028 97.0285 70.429 97.071C70.3552 97.1134 70.2715 97.1358 70.1862 97.1357ZM70.1862 96.652L69.1147 94.8022L68.3541 96.1153C68.3328 96.1521 68.3021 96.1826 68.2652 96.2038C68.2283 96.2251 68.1864 96.2362 68.1438 96.2362C68.1012 96.2362 68.0593 96.2251 68.0224 96.2038C67.9855 96.1826 67.9549 96.1521 67.9336 96.1153L66.7732 94.1122L65.3019 96.652H70.1862Z" fill="#CCCCCC"/>
<path d="M70.5352 93.7493C70.8033 93.7493 71.0207 93.5327 71.0207 93.2655C71.0207 92.9983 70.8033 92.7817 70.5352 92.7817C70.2671 92.7817 70.0498 92.9983 70.0498 93.2655C70.0498 93.5327 70.2671 93.7493 70.5352 93.7493Z" fill="#CCCCCC"/>
<path d="M186.604 156.777L183.628 156.777L182.213 145.339L186.605 145.339L186.604 156.777Z" fill="#FFB8B8"/>
<path d="M187.363 159.652L177.769 159.652V159.531C177.769 159.042 177.865 158.558 178.053 158.107C178.24 157.655 178.516 157.245 178.862 156.899C179.209 156.554 179.621 156.279 180.074 156.092C180.527 155.905 181.013 155.809 181.503 155.809H181.503L187.363 155.809L187.363 159.652Z" fill="#2F2E41"/>
<path d="M198.74 156.777L195.764 156.777L194.349 145.339L198.74 145.339L198.74 156.777Z" fill="#FFB8B8"/>
<path d="M199.499 159.652L189.904 159.652V159.531C189.904 159.042 190.001 158.558 190.189 158.107C190.376 157.655 190.651 157.245 190.998 156.899C191.345 156.554 191.757 156.279 192.21 156.092C192.663 155.905 193.148 155.809 193.639 155.809H193.639L199.499 155.809L199.499 159.652Z" fill="#2F2E41"/>
<path d="M197.848 151.819L195.092 150.983C194.887 150.921 194.704 150.8 194.568 150.635C194.431 150.47 194.346 150.269 194.324 150.056L191.755 125.789C191.753 125.76 191.74 125.732 191.718 125.712C191.696 125.692 191.668 125.681 191.638 125.681C191.609 125.678 191.58 125.687 191.556 125.705C191.533 125.724 191.518 125.75 191.515 125.78L187.211 149.291C187.185 149.433 187.13 149.569 187.051 149.691C186.971 149.812 186.868 149.916 186.747 149.998C186.627 150.079 186.491 150.135 186.348 150.163C186.206 150.191 186.059 150.191 185.916 150.161L182.394 149.438C182.136 149.384 181.906 149.24 181.746 149.03C181.586 148.821 181.508 148.561 181.525 148.299L184.143 109.763L201.894 107.854L199.256 150.844C199.239 151.12 199.117 151.38 198.915 151.57C198.713 151.76 198.446 151.866 198.168 151.866C198.06 151.866 197.952 151.85 197.848 151.819Z" fill="#2F2E41"/>
<path d="M197.831 76.2051C201.124 76.2051 203.793 73.5453 203.793 70.2642C203.793 66.9831 201.124 64.3232 197.831 64.3232C194.539 64.3232 191.87 66.9831 191.87 70.2642C191.87 73.5453 194.539 76.2051 197.831 76.2051Z" fill="#FFB8B8"/>
<path d="M184.115 109.99L187.964 85.8373C188.169 84.5532 188.646 83.3272 189.363 82.2409C190.08 81.1547 191.021 80.2331 192.123 79.5374C193.225 78.8418 194.464 78.3881 195.756 78.2065C197.048 78.0249 198.363 78.1195 199.616 78.4842C201.805 79.1153 203.68 80.5373 204.874 82.4723C206.068 84.4074 206.495 86.7165 206.072 88.9486L202.045 110.518L184.115 109.99Z" fill="#3F3D56"/>
<path d="M199.476 114.311C199.774 114.115 200.025 113.857 200.212 113.553C200.398 113.25 200.516 112.91 200.557 112.557C200.597 112.204 200.559 111.846 200.446 111.509C200.333 111.171 200.146 110.863 199.901 110.605L203.88 102.925L199.398 103.402L196.306 110.622C195.899 111.062 195.669 111.636 195.658 112.235C195.647 112.833 195.857 113.415 196.247 113.87C196.638 114.325 197.183 114.621 197.778 114.702C198.373 114.783 198.977 114.644 199.476 114.311Z" fill="#FFB8B8"/>
<path d="M200.329 109.251C200.109 109.22 199.903 109.123 199.74 108.973L198.217 107.571C198.053 107.418 197.939 107.219 197.892 107.001C197.845 106.782 197.866 106.554 197.952 106.348L200.995 99.1596L200.564 84.9562C200.626 84.4996 200.778 84.0597 201.01 83.6616C201.243 83.2635 201.552 82.915 201.92 82.6361C202.288 82.3571 202.708 82.1532 203.155 82.0359C203.602 81.9186 204.068 81.8903 204.526 81.9526C204.984 82.0149 205.425 82.1665 205.825 82.3988C206.224 82.6312 206.573 82.9396 206.853 83.3066C207.132 83.6736 207.337 84.0919 207.454 84.5375C207.571 84.9832 207.599 85.4476 207.536 85.904L208.274 94.8325C208.499 97.5424 207.728 100.241 206.105 102.427L201.359 108.821C201.268 108.943 201.152 109.046 201.018 109.121C200.885 109.196 200.737 109.242 200.584 109.257C200.499 109.265 200.413 109.263 200.329 109.251Z" fill="#3F3D56"/>
<path d="M163.502 67.0274C163.567 67.377 163.708 67.7082 163.915 67.9977C164.123 68.2871 164.391 68.5277 164.702 68.7025C165.012 68.8774 165.358 68.9822 165.714 69.0097C166.069 69.0371 166.427 68.9865 166.761 68.8613L172.306 75.5079L173.613 71.2091L168.147 65.5565C167.899 65.0113 167.458 64.5757 166.91 64.3323C166.361 64.0889 165.741 64.0546 165.169 64.2359C164.596 64.4172 164.11 64.8015 163.803 65.316C163.496 65.8305 163.389 66.4394 163.502 67.0274Z" fill="#FFB8B8"/>
<path d="M167.845 69.7827C167.96 69.5927 168.129 69.442 168.332 69.3507L170.221 68.5001C170.426 68.4085 170.654 68.3817 170.874 68.4235C171.095 68.4652 171.297 68.5735 171.454 68.7336L176.91 74.3289L190.202 79.4705C190.6 79.7054 190.948 80.0162 191.225 80.385C191.502 80.7538 191.703 81.1735 191.818 81.62C191.932 82.0665 191.957 82.5311 191.891 82.9872C191.825 83.4433 191.67 83.882 191.434 84.2782C191.197 84.6743 190.885 85.0202 190.515 85.2961C190.144 85.5719 189.723 85.7723 189.275 85.8857C188.827 85.9992 188.36 86.0235 187.903 85.9572C187.445 85.891 187.005 85.7355 186.608 85.4996L178.07 82.6958C175.479 81.8452 173.286 80.0855 171.899 77.744L167.841 70.8962C167.763 70.7645 167.714 70.6179 167.696 70.466C167.679 70.314 167.694 70.1602 167.74 70.0144C167.766 69.9333 167.801 69.8555 167.845 69.7827Z" fill="#3F3D56"/>
<path opacity="0.1" d="M202.666 90.8643L202.423 98.6046L197.952 106.348L201.686 97.7188L202.666 90.8643Z" fill="black"/>
<path d="M197.148 71.3806C196.774 71.4291 196.394 71.3406 196.08 71.1314C195.767 70.9222 195.54 70.6066 195.442 70.2433C195.347 69.825 195.14 69.4403 194.843 69.1304C194.546 68.8204 194.17 68.5969 193.755 68.4839C192.661 68.2349 191.324 68.7478 190.523 67.9221C190.352 67.7337 190.228 67.5072 190.161 67.2615C190.095 67.0158 190.088 66.7579 190.141 66.509C190.288 65.7066 190.864 65.1004 191.491 64.6156C192.81 63.6001 194.406 63.0057 196.07 62.9102C196.931 62.8853 197.793 62.9281 198.648 63.038C199.543 63.0943 200.428 63.2554 201.285 63.5182C202.261 63.8854 203.129 64.4918 203.807 65.2816C204.486 66.0714 204.954 67.0189 205.169 68.0367C205.364 69.0576 205.334 70.1088 205.08 71.1169C204.827 72.125 204.355 73.0657 203.698 73.8734C202.913 74.8487 201.899 75.6175 200.747 76.113C200.472 76.2421 200.158 76.258 199.872 76.1572C199.154 75.8728 199.271 74.9867 199.598 74.3957C199.949 73.7632 200.488 73.1508 200.206 72.3811C200.065 72.0242 199.794 71.7334 199.447 71.5669C198.733 71.2042 197.935 71.29 197.168 71.3783L197.148 71.3806Z" fill="#2F2E41"/>
<path d="M161.509 74.7359H87.7245C86.6627 74.7347 85.6448 74.3139 84.894 73.5656C84.1432 72.8174 83.7209 71.803 83.7197 70.7448V55.0223C83.7209 53.9642 84.1432 52.9498 84.894 52.2015C85.6448 51.4533 86.6627 51.0324 87.7245 51.0312H161.509C162.571 51.0325 163.589 51.4533 164.34 52.2016C165.091 52.9498 165.513 53.9642 165.514 55.0223V70.7448C165.513 71.803 165.091 72.8174 164.34 73.5656C163.589 74.3138 162.571 74.7347 161.509 74.7359Z" fill="white"/>
<path d="M161.51 74.8567H87.7248C86.6308 74.8555 85.582 74.4219 84.8085 73.651C84.035 72.8801 83.5999 71.8349 83.5986 70.7447V55.0222C83.5999 53.932 84.035 52.8868 84.8085 52.1159C85.582 51.345 86.6308 50.9114 87.7248 50.9102H161.51C162.604 50.9114 163.652 51.345 164.426 52.1159C165.199 52.8868 165.635 53.932 165.636 55.0222V70.7447C165.635 71.8349 165.199 72.8801 164.426 73.651C163.652 74.4219 162.604 74.8555 161.51 74.8567ZM87.7248 51.3939C86.7595 51.395 85.8341 51.7776 85.1516 52.4578C84.4691 53.138 84.0852 54.0603 84.0841 55.0222V70.7447C84.0852 71.7066 84.4691 72.6289 85.1516 73.3091C85.8341 73.9893 86.7595 74.3719 87.7248 74.373H161.51C162.475 74.3719 163.4 73.9893 164.083 73.3091C164.765 72.6289 165.149 71.7066 165.15 70.7447V55.0222C165.149 54.0603 164.765 53.138 164.083 52.4578C163.4 51.7776 162.475 51.395 161.51 51.3939H87.7248Z" fill="#3F3D56"/>
<path d="M152.529 70.8654H96.705C95.6432 70.8642 94.6253 70.4434 93.8745 69.6952C93.1237 68.9469 92.7014 67.9325 92.7002 66.8743V58.6503C92.7014 57.5921 93.1237 56.5777 93.8745 55.8295C94.6253 55.0812 95.6432 54.6604 96.705 54.6592H152.529C153.591 54.6604 154.609 55.0812 155.36 55.8295C156.11 56.5777 156.533 57.5921 156.534 58.6503V66.8743C156.533 67.9325 156.11 68.9469 155.36 69.6952C154.609 70.4434 153.591 70.8642 152.529 70.8654Z" fill="#F2F2F2"/>
<path d="M108.718 66.4331C111.363 66.4331 113.507 64.2962 113.507 61.6601C113.507 59.0241 111.363 56.8872 108.718 56.8872C106.073 56.8872 103.929 59.0241 103.929 61.6601C103.929 64.2962 106.073 66.4331 108.718 66.4331Z" fill="url(#paint1_linear_2049_4426)"/>
<path d="M149.06 70.3839L142.299 64.7336L135.656 59.1808C135.481 59.0343 135.259 58.9542 135.03 58.9546C134.801 58.955 134.58 59.036 134.405 59.1832L127.783 64.7615L126.166 66.1241L123.727 64.0856L116.315 57.8908C116.14 57.7442 115.918 57.6641 115.689 57.6646C115.461 57.665 115.239 57.746 115.065 57.8932L107.677 64.1164L100.173 70.4377C100.135 70.4697 100.108 70.5126 100.095 70.5606C100.082 70.6086 100.085 70.6593 100.102 70.7058C100.119 70.7524 100.15 70.7926 100.191 70.8209C100.232 70.8493 100.28 70.8644 100.33 70.8643L115.715 70.8348L120.585 70.8255L120.537 70.8656L135.053 70.8377L148.904 70.8111C148.954 70.8111 149.002 70.7957 149.043 70.7672C149.084 70.7387 149.115 70.6984 149.132 70.6518C149.149 70.6051 149.151 70.5544 149.138 70.5065C149.125 70.4586 149.098 70.4158 149.06 70.3839Z" fill="#3F3D56"/>
<path d="M212.44 160H165.839C165.775 160 165.713 159.974 165.668 159.929C165.622 159.884 165.597 159.822 165.597 159.758C165.597 159.694 165.622 159.632 165.668 159.587C165.713 159.542 165.775 159.516 165.839 159.516H212.44C212.505 159.516 212.566 159.542 212.612 159.587C212.658 159.632 212.683 159.694 212.683 159.758C212.683 159.822 212.658 159.884 212.612 159.929C212.566 159.974 212.505 160 212.44 160Z" fill="#CCCCCC"/>
<path d="M146.612 31.9078C146.418 31.5938 146.162 31.3226 145.86 31.1105C145.557 30.8984 145.215 30.7499 144.853 30.6742C144.72 30.6464 144.585 30.6294 144.45 30.6234L125.957 14.1462C125.594 13.7741 125.109 13.5434 124.591 13.4955C124.489 13.4838 124.385 13.4806 124.283 13.4859C123.856 13.5052 123.444 13.648 123.098 13.8968C122.751 14.1456 122.485 14.4897 122.331 14.8869C122.178 15.2841 122.144 15.7173 122.234 16.1334C122.323 16.5496 122.532 16.9307 122.836 17.2302L129.916 23.3813L141.542 33.48C141.551 33.6702 141.58 33.859 141.627 34.0436C141.766 34.5784 142.065 35.0584 142.484 35.42C142.903 35.7815 143.423 36.0076 143.974 36.0682C144.476 36.1267 144.985 36.0429 145.442 35.8263C145.805 35.6574 146.126 35.4123 146.384 35.1079C146.411 35.0765 146.435 35.0474 146.459 35.0136C146.799 34.5728 146.995 34.0394 147.022 33.4845C147.05 32.9296 146.907 32.3795 146.612 31.9078Z" fill="#FFB8B8"/>
<path d="M114.982 47.7871L114.81 40.8063L114.664 35.0131L114.565 30.9592L114.368 23.0568C114.329 22.6337 114.168 22.231 113.903 21.898C113.638 21.5649 113.282 21.3158 112.878 21.1812C112.473 21.0465 112.038 21.0321 111.626 21.1396C111.213 21.2472 110.841 21.4721 110.555 21.7869C110.488 21.8588 110.427 21.9365 110.373 22.0191C110.074 22.4456 109.94 22.9652 109.994 23.4825L110.426 35.0131L110.642 40.8063L110.919 48.1959C110.839 48.3044 110.767 48.4184 110.703 48.5369C110.531 48.8631 110.426 49.2208 110.397 49.5884C110.367 49.956 110.413 50.3257 110.531 50.6752C110.654 51.0416 110.854 51.3779 111.117 51.6618C111.38 51.9458 111.701 52.1709 112.058 52.3224C112.414 52.4739 112.799 52.5484 113.187 52.5409C113.575 52.5334 113.957 52.4441 114.307 52.2789C114.715 52.087 115.068 51.798 115.337 51.4376C115.605 51.0772 115.781 50.6564 115.848 50.2124C115.914 49.7684 115.87 49.3149 115.719 48.8919C115.568 48.4689 115.315 48.0894 114.982 47.7871Z" fill="#FFB8B8"/>
<path d="M131.633 28.0132L129.917 23.3811L127.14 15.8779C126.94 15.3319 126.619 14.838 126.2 14.4326C125.782 14.0273 125.278 13.721 124.725 13.5364C124.681 13.5219 124.635 13.5074 124.591 13.4953C124.056 13.3332 123.491 13.2886 122.936 13.3646C122.382 13.4406 121.85 13.6354 121.378 13.9355L112.026 19.8472C111.17 20.3873 110.558 21.2381 110.319 22.2198C110.08 23.2015 110.234 24.2372 110.747 25.1082C111.917 27.1235 113.191 29.0765 114.565 30.9593C115.655 32.4373 117.684 32.5945 118.036 35.0133H124.931L131.912 28.7679L131.633 28.0132Z" fill="#CCCCCC"/>
<path d="M24.5538 84.6243C27.6599 84.6243 30.1778 82.1149 30.1778 79.0194C30.1778 75.9239 27.6599 73.4146 24.5538 73.4146C21.4477 73.4146 18.9297 75.9239 18.9297 79.0194C18.9297 82.1149 21.4477 84.6243 24.5538 84.6243Z" fill="#A0616A"/>
<path d="M38.3612 75.1611C38.4166 75.205 38.4704 75.2516 38.5224 75.3009C38.7807 75.5434 38.9848 75.8376 39.1211 76.1642C39.2574 76.4908 39.3229 76.8425 39.3133 77.1961C39.3038 77.5497 39.2194 77.8973 39.0656 78.2161C38.9118 78.5349 38.6922 78.8178 38.4211 79.0461C38.3579 79.099 38.292 79.1485 38.2236 79.1945L38.6042 92.001C38.6151 92.4203 38.49 92.8318 38.2476 93.1746C38.0051 93.5174 37.6582 93.7732 37.2584 93.9039L37.2352 93.9089L26.8013 95.0163C26.5176 95.0463 26.2308 95.0201 25.9573 94.9391C25.6839 94.858 25.4293 94.7238 25.2082 94.5442C24.9871 94.3646 24.8039 94.1431 24.6691 93.8925C24.5344 93.6419 24.4508 93.3672 24.4232 93.0842C24.3956 92.8012 24.4245 92.5156 24.5083 92.2439C24.5921 91.9721 24.729 91.7196 24.9113 91.5009C25.0935 91.2821 25.3174 91.1016 25.5701 90.9696C25.8227 90.8376 26.0991 90.7568 26.3833 90.7318L33.8211 90.079L35.1073 78.9883C35.0232 78.9141 34.9444 78.8341 34.8715 78.7489C34.4682 78.2732 34.2567 77.6651 34.278 77.0427C34.2994 76.4204 34.552 75.8281 34.987 75.3809C35.4219 74.9338 36.008 74.6637 36.6316 74.623C37.2551 74.5824 37.8716 74.7742 38.3612 75.1611Z" fill="#A0616A"/>
<path d="M33.8169 157.025H36.6244L37.9598 146.234H33.8164L33.8169 157.025Z" fill="#A0616A"/>
<path d="M33.1006 156.112L38.6291 156.111C39.0918 156.111 39.5502 156.202 39.9776 156.379C40.4051 156.555 40.7935 156.814 41.1207 157.14C41.4478 157.466 41.7074 157.853 41.8844 158.279C42.0615 158.705 42.1526 159.161 42.1526 159.622V159.737L33.1007 159.737L33.1006 156.112Z" fill="#2F2E41"/>
<path d="M5.91406 153.157L8.32615 154.588L15.0136 145.997L11.4535 143.885L5.91406 153.157Z" fill="#A0616A"/>
<path d="M5.76728 152.007L10.5176 154.825C10.9151 155.061 11.2623 155.373 11.539 155.743C11.8157 156.112 12.0167 156.532 12.1304 156.979C12.2441 157.426 12.2684 157.891 12.2018 158.348C12.1353 158.804 11.9792 159.243 11.7425 159.639L11.6839 159.737L3.90625 155.122L5.76728 152.007Z" fill="#2F2E41"/>
<path d="M37.2866 153.214H34.143C33.8885 153.214 33.6428 153.121 33.4536 152.951C33.2643 152.781 33.1449 152.548 33.1184 152.295L29.9493 122.607C29.9413 122.532 29.9088 122.462 29.8569 122.408C29.805 122.353 29.7366 122.317 29.6621 122.305C29.5876 122.294 29.5113 122.306 29.4449 122.342C29.3785 122.378 29.3257 122.434 29.2946 122.502L23.5774 135.119L13.4554 151.568C13.3244 151.778 13.1215 151.935 12.884 152.009C12.6465 152.083 12.3902 152.069 12.162 151.971L8.11833 150.198C7.98462 150.139 7.86496 150.053 7.76727 149.944C7.66959 149.836 7.5961 149.708 7.5517 149.57C7.50729 149.431 7.49298 149.284 7.50971 149.14C7.52644 148.995 7.57382 148.856 7.64873 148.731L16.9537 133.204L19.8074 120.121C18.9099 114.448 22.7576 106.013 22.7966 105.928L22.8157 105.887L33.4144 101.759L33.4675 101.824C37.6473 115.493 40.1943 130.204 38.3137 152.273C38.2905 152.529 38.1724 152.767 37.9825 152.941C37.7926 153.115 37.5445 153.212 37.2866 153.214Z" fill="#2F2E41"/>
<path d="M22.3887 107.27L22.3394 107.166C22.3158 107.117 19.9591 102.163 18.1424 96.8688C17.7932 95.845 17.6612 94.76 17.7548 93.6827C17.8483 92.6054 18.1653 91.5592 18.6857 90.6104C19.2129 89.6517 19.9341 88.8126 20.8036 88.1463C21.6732 87.4799 22.6721 87.0007 23.7372 86.7392C25.5862 86.2975 27.5328 86.5325 29.2225 87.4014C30.9122 88.2703 32.2325 89.7151 32.9428 91.4728C34.3838 95.0641 33.9245 98.8973 33.4923 101.912L33.4837 101.972L33.4286 101.999L22.3887 107.27Z" fill="#3F3D56"/>
<path d="M31.3727 75.8531H22.4424V71.9737C24.4025 71.1977 26.3206 70.5377 27.48 71.9737C28.5124 71.9737 29.5026 72.3824 30.2326 73.11C30.9626 73.8375 31.3727 74.8243 31.3727 75.8531Z" fill="#2F2E41"/>
<path d="M21.9483 71.2891C16.6095 71.2891 15.1152 77.9581 15.1152 81.7205C15.1152 83.8187 16.0674 84.5691 17.5636 84.8231L18.092 82.0145L19.3296 84.9439C19.7499 84.946 20.1914 84.9379 20.6492 84.9294L21.0688 84.0684L22.0045 84.914C25.7522 84.9195 28.7812 85.464 28.7812 81.7205C28.7812 77.9581 27.4707 71.2891 21.9483 71.2891Z" fill="#2F2E41"/>
<path d="M46.8437 160H0.242713C0.178342 160 0.116607 159.974 0.0710889 159.929C0.0255713 159.884 0 159.822 0 159.758C0 159.694 0.0255713 159.632 0.0710889 159.587C0.116607 159.542 0.178342 159.516 0.242713 159.516H46.8437C46.9081 159.516 46.9698 159.542 47.0153 159.587C47.0608 159.632 47.0864 159.694 47.0864 159.758C47.0864 159.822 47.0608 159.884 47.0153 159.929C46.9698 159.974 46.9081 160 46.8437 160Z" fill="#CCCCCC"/>
<path d="M47.72 80.4202H37.2833C36.672 80.4195 36.0859 80.1772 35.6537 79.7464C35.2214 79.3156 34.9782 78.7315 34.9775 78.1223V67.7212C34.9782 67.112 35.2214 66.5279 35.6537 66.0971C36.0859 65.6664 36.672 65.424 37.2833 65.4233H47.72C48.3313 65.424 48.9174 65.6664 49.3497 66.0971C49.7819 66.5279 50.0251 67.112 50.0258 67.7212V78.1223C50.0251 78.7315 49.7819 79.3156 49.3497 79.7464C48.9174 80.1772 48.3313 80.4195 47.72 80.4202Z" fill="white"/>
<path d="M47.72 80.4202H37.2833C36.672 80.4195 36.0859 80.1772 35.6537 79.7464C35.2214 79.3156 34.9782 78.7315 34.9775 78.1223V67.7212C34.9782 67.112 35.2214 66.5279 35.6537 66.0971C36.0859 65.6664 36.672 65.424 37.2833 65.4233H47.72C48.3313 65.424 48.9174 65.6664 49.3497 66.0971C49.7819 66.5279 50.0251 67.112 50.0258 67.7212V78.1223C50.0251 78.7315 49.7819 79.3156 49.3497 79.7464C48.9174 80.1772 48.3313 80.4195 47.72 80.4202ZM37.2833 65.9071C36.8007 65.9076 36.338 66.099 35.9967 66.4391C35.6555 66.7792 35.4635 67.2403 35.463 67.7212V78.1223C35.4635 78.6032 35.6555 79.0644 35.9967 79.4045C36.338 79.7446 36.8007 79.9359 37.2833 79.9364H47.72C48.2026 79.9359 48.6653 79.7446 49.0066 79.4045C49.3479 79.0644 49.5398 78.6032 49.5403 78.1223V67.7212C49.5398 67.2403 49.3479 66.7792 49.0066 66.4391C48.6653 66.099 48.2026 65.9076 47.72 65.9071H37.2833Z" fill="#3F3D56"/>
<path d="M45.8991 76.1871H39.1031C38.9101 76.1869 38.725 76.1104 38.5885 75.9744C38.452 75.8383 38.3752 75.6539 38.375 75.4615V70.3819C38.3752 70.1895 38.452 70.0051 38.5885 69.869C38.725 69.733 38.9101 69.6565 39.1031 69.6563H41.0163C41.1407 69.6558 41.2632 69.6873 41.3718 69.7478C41.4805 69.8083 41.5716 69.8957 41.6365 70.0015L42.17 70.8657H45.8991C46.0922 70.8659 46.2773 70.9424 46.4138 71.0784C46.5503 71.2145 46.627 71.3989 46.6273 71.5913V75.4615C46.627 75.6539 46.5503 75.8383 46.4138 75.9744C46.2773 76.1104 46.0922 76.1869 45.8991 76.1871Z" fill="url(#paint2_linear_2049_4426)"/>
<path d="M45.6782 78.753C45.7121 78.8149 45.7435 78.8786 45.7722 78.9441C45.9159 79.2676 45.9894 79.6177 45.9879 79.9714C45.9863 80.3251 45.9098 80.6745 45.7633 80.9967C45.6168 81.3189 45.4037 81.6066 45.1378 81.841C44.872 82.0754 44.5594 82.2512 44.2207 82.3568C44.1418 82.3811 44.0618 82.4012 43.9808 82.4171L39.3451 94.3674C39.1919 94.758 38.9164 95.0889 38.5594 95.3111C38.2025 95.5332 37.7832 95.6348 37.3638 95.6007L37.3405 95.5963L27.293 92.5819C27.0198 92.5 26.7656 92.3649 26.5452 92.1845C26.3247 92.0041 26.1422 91.7819 26.0084 91.5308C25.8745 91.2797 25.7919 91.0047 25.7653 90.7217C25.7387 90.4386 25.7686 90.1531 25.8533 89.8816C25.9381 89.6101 26.0759 89.358 26.259 89.1399C26.442 88.9219 26.6666 88.7421 26.9197 88.611C27.1729 88.4799 27.4496 88.4001 27.7339 88.3761C28.0182 88.3522 28.3044 88.3846 28.576 88.4716L35.6852 90.7462L41.189 81.022C41.1404 80.9211 41.0989 80.8169 41.0649 80.7101C40.8785 80.1158 40.9203 79.4736 41.1823 78.9082C41.4443 78.3429 41.9078 77.8947 42.4827 77.6508C43.0577 77.4069 43.703 77.3846 44.2935 77.5883C44.884 77.792 45.3775 78.2071 45.6782 78.753Z" fill="#A0616A"/>
</g>
<defs>
<linearGradient id="paint0_linear_2049_4426" x1="27.9014" y1="37.9101" x2="160.384" y2="37.9101" gradientUnits="userSpaceOnUse">
<stop stop-color="#F73E94"/>
<stop offset="0.333333" stop-color="#97238A"/>
<stop offset="0.666667" stop-color="#5456AB"/>
<stop offset="1" stop-color="#22DCD9"/>
</linearGradient>
<linearGradient id="paint1_linear_2049_4426" x1="108.718" y1="56.8872" x2="108.718" y2="66.4331" gradientUnits="userSpaceOnUse">
<stop stop-color="#F73E94"/>
<stop offset="1" stop-color="#97238A"/>
</linearGradient>
<linearGradient id="paint2_linear_2049_4426" x1="42.5011" y1="69.6562" x2="42.5011" y2="76.1871" gradientUnits="userSpaceOnUse">
<stop stop-color="#22DCD9"/>
<stop offset="1" stop-color="#5456AB"/>
</linearGradient>
<clipPath id="clip0_2049_4426">
<rect width="212.683" height="160" fill="white"/>
</clipPath>
</defs>
</svg>
