<svg width="154" height="160" viewBox="0 0 154 160" fill="none" xmlns="http://www.w3.org/2000/svg">
<g clip-path="url(#clip0_82_836)">
<path d="M140.87 136.886L133.834 143.362L139.426 133.981C135.021 125.993 127.816 119.089 127.816 119.089C127.816 119.089 112.87 133.409 112.87 144.665C112.87 155.922 119.561 159.852 127.816 159.852C136.071 159.852 142.763 155.922 142.763 144.665C142.763 142.16 142.021 139.503 140.87 136.886Z" fill="#F2F2F2"/>
<path d="M132.025 143.712V144.267C131.992 150.717 130.904 155.749 128.77 159.292C128.74 159.344 128.707 159.394 128.677 159.446L128.438 159.3L128.21 159.157C130.577 155.331 131.415 149.923 131.445 144.297C131.448 144.116 131.451 143.932 131.448 143.748C131.44 141.367 131.294 138.958 131.061 136.617C131.044 136.436 131.025 136.252 131.006 136.068C130.682 132.981 130.215 130.031 129.737 127.468C129.704 127.287 129.668 127.105 129.633 126.927C128.806 122.592 127.963 119.453 127.77 118.758C127.748 118.673 127.735 118.626 127.732 118.615L127.993 118.541L127.996 118.538L128.259 118.464C128.262 118.475 128.309 118.631 128.386 118.923C128.679 120.01 129.443 122.963 130.193 126.858C130.226 127.034 130.262 127.215 130.295 127.396C130.685 129.476 131.066 131.799 131.369 134.239C131.445 134.851 131.514 135.455 131.575 136.052C131.597 136.236 131.616 136.42 131.632 136.601C131.885 139.131 132.016 141.501 132.025 143.712Z" fill="white"/>
<path d="M130.193 126.858C130.009 126.883 129.822 126.908 129.633 126.927C129.118 126.98 128.601 127.007 128.083 127.007C125.878 127.01 123.701 126.518 121.711 125.567C121.596 125.713 121.48 125.859 121.362 126.007C123.455 127.029 125.754 127.558 128.083 127.556C128.636 127.556 129.188 127.527 129.737 127.468C129.924 127.449 130.111 127.424 130.295 127.397C131.814 127.179 133.291 126.732 134.676 126.07C134.558 125.919 134.442 125.771 134.33 125.625C133.019 126.238 131.625 126.653 130.193 126.858Z" fill="white"/>
<path d="M131.575 136.052C131.385 136.063 131.195 136.068 131.006 136.068C130.948 136.071 130.888 136.071 130.83 136.071C128.441 136.071 126.087 135.493 123.969 134.387C121.851 133.281 120.032 131.679 118.667 129.718C118.558 129.88 118.448 130.042 118.341 130.207C119.763 132.191 121.638 133.808 123.81 134.923C125.982 136.039 128.389 136.62 130.83 136.62C130.907 136.62 130.984 136.62 131.061 136.618C131.253 136.615 131.443 136.609 131.632 136.601C134.565 136.451 137.392 135.459 139.776 133.745C139.689 133.582 139.601 133.42 139.51 133.258C137.193 134.942 134.435 135.913 131.575 136.052Z" fill="white"/>
<path d="M132.025 143.712C131.833 143.729 131.641 143.74 131.448 143.748C131.242 143.756 131.036 143.762 130.83 143.762C127.62 143.758 124.496 142.715 121.929 140.787C119.361 138.86 117.486 136.153 116.585 133.071C116.462 133.294 116.338 133.514 116.22 133.736C117.235 136.811 119.193 139.487 121.815 141.386C124.438 143.284 127.592 144.308 130.83 144.311C131.036 144.311 131.242 144.308 131.445 144.297C131.641 144.292 131.833 144.281 132.025 144.267C135.909 143.963 139.532 142.195 142.161 139.32C142.103 139.117 142.037 138.916 141.971 138.713C139.432 141.609 135.864 143.403 132.025 143.712Z" fill="white"/>
<path d="M115.57 34.5951L39.0478 24.8392C38.8417 24.8127 38.6341 24.7993 38.4262 24.7988C38.2214 24.7985 38.0167 24.8114 37.8135 24.8375C37.6107 24.8636 37.4098 24.9029 37.2121 24.9552C37.0121 25.0086 36.8157 25.0749 36.6242 25.1536C36.4366 25.2306 36.2539 25.319 36.077 25.4181C35.8977 25.518 35.7245 25.6284 35.5582 25.7488C35.3881 25.8722 35.2252 26.0053 35.0702 26.1472C34.9102 26.2933 34.7581 26.4478 34.6146 26.6101C34.4673 26.7773 34.3287 26.9518 34.1993 27.1332C34.0686 27.3168 33.9459 27.5078 33.8313 27.7062C33.7167 27.9052 33.6103 28.1122 33.5122 28.3271C33.4141 28.542 33.3246 28.7642 33.2437 28.9937C33.16 29.2309 33.0866 29.4734 33.0235 29.7211C32.9605 29.9689 32.9078 30.2209 32.8655 30.4773C32.824 30.7335 32.7923 30.9938 32.7703 31.2583C32.7482 31.5228 32.7372 31.7905 32.7372 32.0614C32.7381 32.3321 32.7491 32.6019 32.7703 32.8708C32.7914 33.1398 32.8232 33.4065 32.8655 33.671C32.9082 33.9366 32.9611 34.1996 33.0242 34.4599C33.0872 34.7202 33.1606 34.9776 33.2444 35.232C33.3253 35.4777 33.4148 35.7179 33.5129 35.9524C33.611 36.1872 33.7173 36.4156 33.8319 36.6375C33.9466 36.8595 34.0692 37.0751 34.1999 37.2843C34.3304 37.4943 34.4689 37.6965 34.6152 37.8907C34.7616 38.0849 34.9135 38.2701 35.0709 38.4465C35.2283 38.6217 35.3909 38.7871 35.5589 38.9425C35.7269 39.0979 35.8998 39.243 36.0777 39.3779C36.2536 39.5115 36.4363 39.6359 36.6249 39.7509C36.8148 39.8668 37.0111 39.972 37.2128 40.066C37.4084 40.1572 37.6092 40.2367 37.8142 40.3044C38.015 40.3706 38.2196 40.4246 38.4269 40.4661C38.6322 40.507 38.8398 40.5351 39.0485 40.5504L115.571 46.1478C115.793 46.164 116.017 46.1416 116.232 46.0817C116.341 46.0513 116.448 46.0119 116.551 45.964C116.658 45.914 116.762 45.8559 116.861 45.7904C116.961 45.724 117.057 45.6511 117.147 45.5722C117.242 45.4894 117.332 45.401 117.417 45.3076C117.506 45.209 117.591 45.1057 117.669 44.9982C117.751 44.8875 117.829 44.7696 117.904 44.6444C117.979 44.5192 118.049 44.3886 118.116 44.2526C118.183 44.1166 118.246 43.9753 118.304 43.8287C118.362 43.6823 118.416 43.5309 118.466 43.3744C118.515 43.2179 118.561 43.0567 118.601 42.891C118.644 42.7195 118.681 42.5449 118.712 42.3672C118.743 42.1896 118.77 42.0093 118.792 41.8263C118.813 41.6434 118.829 41.458 118.84 41.2702C118.851 41.0824 118.856 40.8925 118.856 40.7005C118.855 40.5087 118.85 40.3178 118.84 40.1278C118.83 39.9378 118.814 39.7492 118.792 39.5621C118.771 39.3749 118.744 39.1893 118.712 39.0053C118.681 38.8212 118.644 38.6391 118.601 38.459C118.561 38.2849 118.515 38.1147 118.466 37.9485C118.417 37.7845 118.363 37.6229 118.304 37.4638C118.245 37.3046 118.182 37.1503 118.116 37.0009C118.05 36.8517 117.979 36.7068 117.904 36.5664C117.828 36.426 117.75 36.2924 117.669 36.1657C117.588 36.0389 117.504 35.9188 117.417 35.8053C117.33 35.6918 117.24 35.5855 117.147 35.4865C117.057 35.3896 116.961 35.2975 116.861 35.2108C116.763 35.1258 116.659 35.0471 116.551 34.975C116.449 34.907 116.342 34.8462 116.232 34.7932C116.126 34.7425 116.017 34.7 115.905 34.6662C115.795 34.6334 115.683 34.6096 115.57 34.5951Z" fill="url(#paint0_linear_82_836)"/>
<path d="M115.57 56.5989L39.0478 54.7662C38.6327 54.7559 38.218 54.7982 37.8135 54.8921C37.6095 54.9396 37.4086 54.9998 37.2121 55.0723C37.0111 55.1464 36.8148 55.2325 36.6242 55.3302C36.436 55.4267 36.2533 55.5335 36.077 55.6503C35.8973 55.7693 35.7241 55.8979 35.5582 56.0355C35.388 56.1767 35.2251 56.3266 35.0702 56.4845C34.9126 56.645 34.7607 56.8156 34.6146 56.9963C34.4684 57.1775 34.33 57.3663 34.1993 57.5627C34.0686 57.7591 33.9459 57.9628 33.8313 58.1737C33.7167 58.3847 33.6103 58.6027 33.5122 58.8278C33.4141 59.0528 33.3246 59.2843 33.2437 59.5221C33.16 59.7683 33.0866 60.0185 33.0235 60.2727C32.9605 60.5268 32.9078 60.7843 32.8655 61.0451C32.824 61.3058 32.7923 61.5696 32.7702 61.8363C32.7482 62.103 32.7372 62.3718 32.7372 62.6427C32.7381 62.9136 32.7491 63.1823 32.7702 63.4488C32.7914 63.7153 32.8232 63.9789 32.8655 64.2394C32.9082 64.4986 32.9611 64.7551 33.0242 65.0088C33.0872 65.2625 33.1606 65.5123 33.2444 65.7581C33.3253 65.9966 33.4148 66.228 33.5129 66.4524C33.611 66.6768 33.7173 66.8941 33.8319 67.1044C33.9466 67.3147 34.0692 67.5176 34.1999 67.7131C34.3304 67.908 34.4689 68.0954 34.6152 68.2752C34.7616 68.4551 34.9135 68.6247 35.0709 68.7841C35.2258 68.9411 35.3887 69.09 35.5589 69.2301C35.7248 69.3667 35.898 69.4942 36.0777 69.612C36.254 69.7276 36.4367 69.8333 36.6249 69.9285C36.8155 70.025 37.0119 70.1099 37.2128 70.1827C37.4094 70.254 37.6102 70.3128 37.8142 70.359C38.0161 70.405 38.2208 70.4381 38.4269 70.4582C38.6335 70.4779 38.8411 70.4846 39.0485 70.4783L115.57 68.1503C115.682 68.1468 115.794 68.1339 115.905 68.1116C116.016 68.0889 116.126 68.0572 116.232 68.0167C116.342 67.9746 116.449 67.9242 116.551 67.8659C116.659 67.8045 116.762 67.7358 116.861 67.6602C116.961 67.5833 117.057 67.5005 117.147 67.4123C117.242 67.3197 117.332 67.2221 117.417 67.12C117.504 67.0159 117.588 66.9041 117.669 66.7844C117.751 66.6647 117.829 66.5387 117.904 66.4065C117.979 66.2733 118.049 66.1353 118.116 65.9925C118.183 65.8496 118.246 65.702 118.304 65.5494C118.362 65.3945 118.416 65.2367 118.466 65.0763C118.515 64.9158 118.561 64.7505 118.601 64.5803C118.644 64.4062 118.681 64.2286 118.712 64.0476C118.743 63.8667 118.77 63.6836 118.792 63.4984C118.813 63.3126 118.829 63.1253 118.84 62.9364C118.851 62.7474 118.856 62.557 118.856 62.365C118.855 62.1748 118.85 61.9848 118.84 61.795C118.83 61.6052 118.814 61.4178 118.792 61.2329C118.771 61.0473 118.744 60.8644 118.712 60.6843C118.681 60.5043 118.644 60.326 118.601 60.1497C118.56 59.9795 118.515 59.8138 118.465 59.6524C118.416 59.491 118.362 59.3343 118.304 59.1822C118.246 59.0301 118.183 58.8828 118.117 58.7402C118.05 58.5975 117.979 58.4601 117.904 58.3278C117.829 58.1954 117.751 58.0697 117.67 57.9509C117.588 57.8321 117.504 57.7207 117.417 57.6166C117.333 57.515 117.243 57.418 117.147 57.326C117.057 57.2384 116.961 57.1563 116.861 57.08C116.763 57.0051 116.659 56.937 116.551 56.8763C116.449 56.8189 116.342 56.7693 116.232 56.7282C116.126 56.6883 116.016 56.6572 115.905 56.6353C115.794 56.6137 115.682 56.6016 115.57 56.5989Z" fill="#E4E4E4"/>
<path d="M115.57 77.2268L39.0478 82.8233C38.8391 82.8385 38.6315 82.8667 38.4262 82.9076C38.2189 82.949 38.0143 83.003 37.8135 83.0693C37.6086 83.1369 37.4078 83.2165 37.2121 83.3077C37.0104 83.4017 36.8142 83.5069 36.6242 83.6228C36.4356 83.7377 36.253 83.8622 36.077 83.9957C35.8989 84.1317 35.726 84.2769 35.5582 84.4312C35.3905 84.5862 35.2278 84.7515 35.0702 84.9272C34.9126 85.1028 34.7607 85.2881 34.6146 85.483C34.4684 85.6785 34.33 85.8808 34.1993 86.09C34.0686 86.2992 33.9459 86.5148 33.8313 86.7368C33.7167 86.959 33.6103 87.1873 33.5122 87.4219C33.4141 87.6564 33.3246 87.8966 33.2437 88.1423C33.16 88.3963 33.0866 88.6536 33.0235 88.9144C32.9605 89.1752 32.9078 89.4378 32.8655 89.7023C32.824 89.9673 32.7923 90.2341 32.7703 90.5028C32.7482 90.7715 32.7372 91.0413 32.7372 91.3122C32.7381 91.5831 32.7491 91.8508 32.7703 92.1154C32.7914 92.3799 32.8232 92.6403 32.8655 92.8967C32.9082 93.1537 32.9611 93.4059 33.0242 93.6532C33.0872 93.9005 33.1606 94.143 33.2444 94.3806C33.3253 94.6103 33.4148 94.8325 33.5129 95.0472C33.611 95.2621 33.7173 95.4691 33.8319 95.6681C33.9466 95.8672 34.0692 96.0582 34.1999 96.2411C34.3294 96.4225 34.468 96.597 34.6152 96.7642C34.7587 96.9265 34.9108 97.081 35.0709 97.2271C35.2259 97.369 35.3888 97.5021 35.5589 97.6255C35.7252 97.7459 35.8984 97.8563 36.0777 97.9562C36.2546 98.0553 36.4373 98.1437 36.6249 98.2207C36.8164 98.2994 37.0127 98.3657 37.2128 98.4191C37.4105 98.4714 37.6114 98.5107 37.8142 98.5368C38.0174 98.5629 38.222 98.5758 38.4269 98.5755C38.6347 98.575 38.8423 98.5616 39.0485 98.5351L115.57 88.7815C115.683 88.767 115.795 88.7432 115.905 88.7104C116.017 88.6766 116.126 88.6341 116.232 88.5834C116.342 88.5304 116.449 88.4696 116.551 88.4016C116.659 88.3295 116.763 88.2508 116.861 88.1658C116.961 88.0791 117.057 87.987 117.147 87.8901C117.239 87.7909 117.329 87.6846 117.417 87.5713C117.504 87.458 117.588 87.3379 117.669 87.2109C117.751 87.084 117.829 86.9504 117.904 86.8102C117.979 86.6709 118.049 86.526 118.116 86.3757C118.183 86.2254 118.246 86.0711 118.304 85.9128C118.362 85.7539 118.416 85.5913 118.466 85.4251C118.515 85.2589 118.561 85.0887 118.601 84.9146C118.644 84.7343 118.681 84.5521 118.712 84.3681C118.743 84.184 118.77 83.9984 118.792 83.8112C118.813 83.6241 118.829 83.4355 118.84 83.2455C118.851 83.0555 118.856 82.8645 118.856 82.6725C118.855 82.4816 118.85 82.2923 118.84 82.1045C118.83 81.9167 118.814 81.7313 118.792 81.5483C118.771 81.3647 118.744 81.1841 118.712 81.0064C118.681 80.8287 118.644 80.6541 118.601 80.4827C118.561 80.3167 118.515 80.1555 118.466 79.9993C118.417 79.843 118.363 79.6915 118.304 79.5449C118.245 79.3983 118.183 79.2571 118.117 79.1211C118.049 78.9862 117.978 78.8559 117.903 78.7302C117.828 78.6046 117.75 78.4867 117.669 78.3764C117.59 78.2689 117.506 78.1656 117.416 78.067C117.332 77.9736 117.242 77.8852 117.146 77.8025C117.056 77.7235 116.96 77.6507 116.86 77.5842C116.761 77.5187 116.658 77.4606 116.55 77.4106C116.447 77.3627 116.341 77.3234 116.231 77.2929C116.016 77.233 115.793 77.2106 115.57 77.2268Z" fill="#E4E4E4"/>
<path d="M73.8612 78.2523C74.3459 79.0582 75.1097 79.6581 76.0076 79.938C76.9054 80.2179 77.8748 80.1584 78.7317 79.7708C79.5886 79.3832 80.2733 78.6944 80.6558 77.8353C81.0384 76.9761 81.0921 76.0064 80.8069 75.1102L95.6376 44.6414L88.5386 40.3379L75.7305 72.7019C75.6816 72.721 75.6334 72.7409 75.5859 72.7618C75.5385 72.7826 75.4912 72.8044 75.4441 72.8271C75.3969 72.8498 75.3502 72.8736 75.3038 72.8987C75.2574 72.9238 75.2113 72.9501 75.1656 72.9778C74.2933 73.5043 73.6658 74.3557 73.4211 75.3447C73.1765 76.3338 73.3347 77.3795 73.8609 78.252L73.8612 78.2523Z" fill="#9E616A"/>
<path d="M92.8066 56.3902L82.2706 53.6898C82.2706 53.6898 82.6146 52.9121 83.1737 51.6239C83.7328 50.3356 84.5139 48.5392 85.3926 46.4996C86.2713 44.46 87.2463 42.1811 88.1985 39.9284C89.1508 37.6757 90.0768 35.4501 90.8568 33.5209C91.6368 31.5917 92.5229 30.4363 93.4135 29.7888C94.1505 29.2286 95.0788 28.9818 95.9968 29.102C96.7102 29.2083 97.3922 29.4679 97.9957 29.8629C98.2814 30.0407 98.5501 30.2446 98.7982 30.472L101.241 34.9144L92.8066 56.3902Z" fill="#CCCCCC"/>
<path d="M8.48808 53.9773C8.23293 53.9961 7.97904 54.0292 7.7276 54.0765C7.47454 54.1239 7.2243 54.1852 6.97804 54.2603C6.72802 54.3367 6.48232 54.4265 6.24202 54.5295C5.99609 54.6348 5.75583 54.7529 5.52221 54.8833C5.29363 55.0118 5.07023 55.1515 4.852 55.3025C4.63377 55.4535 4.42183 55.6158 4.21617 55.7892C4.01073 55.9623 3.81135 56.1468 3.61803 56.3427C3.42472 56.5387 3.23846 56.7453 3.05926 56.9627C2.88005 57.18 2.7102 57.4052 2.54973 57.6382C2.38925 57.8712 2.2387 58.1112 2.09807 58.3583C1.95876 58.6059 1.82848 58.8601 1.70724 59.1211C1.58601 59.3821 1.4758 59.6491 1.3766 59.9223C1.27322 60.2055 1.18274 60.4917 1.10514 60.7809C1.02755 61.0701 0.962853 61.3618 0.911054 61.6558C0.859031 61.9499 0.820019 62.2459 0.794009 62.5439C0.767999 62.8419 0.754998 63.1412 0.755005 63.4416C0.755005 63.7421 0.768006 64.0387 0.794009 64.3314C0.820012 64.6241 0.859024 64.9123 0.911054 65.196C0.962854 65.4797 1.02755 65.7583 1.10514 66.0319C1.18273 66.3054 1.27289 66.5734 1.37561 66.8357C1.47569 67.089 1.5859 67.334 1.70625 67.5707C1.82522 67.805 1.95587 68.0332 2.09773 68.2545C2.23737 68.4715 2.38813 68.6812 2.5494 68.8827C2.70913 69.083 2.87931 69.2747 3.05925 69.457C3.23621 69.6363 3.42274 69.8058 3.61803 69.9649C3.80927 70.1207 4.00907 70.2656 4.2165 70.399C4.62585 70.6625 5.06406 70.8782 5.52254 71.0418C5.99254 71.2097 6.48096 71.3207 6.97737 71.3724C7.22636 71.3981 7.47665 71.4092 7.72694 71.4055C7.98125 71.4019 8.23515 71.3839 8.48742 71.3516C8.74196 71.3192 8.99452 71.2727 9.24393 71.2124C9.4941 71.1519 9.74079 71.0778 9.98292 70.9906C10.2278 70.9022 10.4679 70.801 10.7021 70.6874C10.9407 70.5716 11.1733 70.4438 11.3991 70.3045C11.6188 70.1674 11.8329 70.0203 12.0412 69.8634C12.2495 69.7064 12.4513 69.5391 12.6466 69.3615C12.8419 69.1838 13.0305 68.9964 13.2123 68.7994C13.3942 68.6023 13.569 68.3956 13.7367 68.1791C13.9056 67.9629 14.0645 67.7401 14.2135 67.5109C14.3625 67.2816 14.502 67.0463 14.6321 66.8049C14.7622 66.5636 14.8825 66.3166 14.9932 66.064C15.1038 65.8114 15.2047 65.5535 15.2957 65.2903C15.3901 65.0178 15.4726 64.743 15.5434 64.466C15.6141 64.1889 15.6732 63.9098 15.7206 63.6288C15.7678 63.3475 15.8032 63.0648 15.8271 62.7807C15.8509 62.4965 15.8628 62.2112 15.8628 61.9246C15.8625 61.6381 15.8506 61.3551 15.8271 61.0756C15.8035 60.796 15.768 60.5205 15.7206 60.2489C15.6734 59.9778 15.6143 59.7107 15.5434 59.4475C15.4724 59.1843 15.3898 58.926 15.2957 58.6728C15.2042 58.4277 15.1034 58.1899 14.9932 57.9596C14.8814 57.7299 14.7605 57.507 14.6305 57.291C14.373 56.8641 14.0736 56.4639 13.7367 56.0964C13.5714 55.9156 13.3968 55.7436 13.2136 55.5809C13.0333 55.4213 12.8444 55.2715 12.6479 55.1322C12.4533 54.9943 12.2512 54.8673 12.0425 54.7517C11.834 54.6362 11.6192 54.5324 11.3991 54.4409C10.9446 54.2516 10.4694 54.1167 9.98326 54.0391C9.73858 54.0001 9.49183 53.9755 9.24428 53.9654C8.99207 53.9552 8.73949 53.9594 8.48776 53.978" fill="#E4E4E4"/>
<path d="M8.48808 85.0574C8.23293 85.0762 7.97904 85.1093 7.7276 85.1566C7.47454 85.204 7.2243 85.2653 6.97804 85.3404C6.72802 85.4168 6.48232 85.5066 6.24202 85.6096C5.99609 85.7149 5.75583 85.833 5.52221 85.9633C5.29363 86.0919 5.07023 86.2316 4.852 86.3826C4.63377 86.5336 4.42183 86.6958 4.21617 86.8693C4.01073 87.0423 3.81135 87.2268 3.61803 87.4228C3.42472 87.6188 3.23846 87.8254 3.05926 88.0428C2.88005 88.2601 2.7102 88.4853 2.54973 88.7183C2.38925 88.9513 2.2387 89.1913 2.09807 89.4384C1.95876 89.6859 1.82848 89.9402 1.70724 90.2012C1.58601 90.4622 1.4758 90.7292 1.3766 91.0023C1.27322 91.2856 1.18274 91.5718 1.10514 91.861C1.02755 92.1502 0.962853 92.4418 0.911054 92.7359C0.859031 93.0299 0.820019 93.326 0.794009 93.624C0.767999 93.922 0.754998 94.2213 0.755005 94.5217C0.755005 94.8221 0.768006 95.1187 0.794009 95.4115C0.820012 95.7042 0.859024 95.9924 0.911054 96.2761C0.962854 96.5598 1.02755 96.8384 1.10514 97.112C1.18273 97.3855 1.27289 97.6534 1.37561 97.9158C1.47569 98.169 1.5859 98.414 1.70625 98.6508C1.82522 98.8851 1.95587 99.1133 2.09773 99.3345C2.23737 99.5516 2.38813 99.7613 2.5494 99.9628C2.70913 100.163 2.87931 100.355 3.05925 100.537C3.23621 100.716 3.42274 100.886 3.61803 101.045C3.80927 101.201 4.00907 101.346 4.2165 101.479C4.62585 101.743 5.06406 101.958 5.52254 102.122C5.99254 102.29 6.48096 102.401 6.97737 102.453C7.22636 102.478 7.47665 102.489 7.72694 102.486C7.98125 102.482 8.23515 102.464 8.48742 102.432C8.74196 102.399 8.99452 102.353 9.24393 102.292C9.4941 102.232 9.74079 102.158 9.98292 102.071C10.2278 101.982 10.4679 101.881 10.7021 101.767C10.9407 101.652 11.1733 101.524 11.3991 101.385C11.6188 101.247 11.8329 101.1 12.0412 100.943C12.2495 100.787 12.4513 100.619 12.6466 100.442C12.8419 100.264 13.0305 100.077 13.2123 99.8795C13.3942 99.6824 13.569 99.4756 13.7367 99.2592C13.9056 99.0429 14.0645 98.8202 14.2135 98.5909C14.3625 98.3617 14.502 98.1264 14.6321 97.885C14.7622 97.6437 14.8825 97.3967 14.9932 97.144C15.1038 96.8914 15.2047 96.6335 15.2957 96.3703C15.3901 96.0979 15.4726 95.8231 15.5434 95.546C15.6141 95.269 15.6732 94.9899 15.7206 94.7089C15.7678 94.4276 15.8032 94.1449 15.8271 93.8608C15.8509 93.5766 15.8628 93.2913 15.8628 93.0047C15.8625 92.7182 15.8506 92.4351 15.8271 92.1556C15.8035 91.8761 15.768 91.6006 15.7206 91.329C15.6734 91.0579 15.6143 90.7907 15.5434 90.5275C15.4724 90.2643 15.3898 90.0061 15.2957 89.7528C15.2042 89.5077 15.1034 89.27 14.9932 89.0396C14.8814 88.81 14.7605 88.5871 14.6305 88.3711C14.373 87.9442 14.0736 87.544 13.7367 87.1765C13.5714 86.9957 13.3968 86.8237 13.2136 86.661C13.0333 86.5014 12.8444 86.3516 12.6479 86.2123C12.4533 86.0744 12.2512 85.9473 12.0425 85.8317C11.834 85.7162 11.6192 85.6125 11.3991 85.5209C10.9446 85.3317 10.4694 85.1968 9.98326 85.1192C9.73858 85.0802 9.49183 85.0556 9.24428 85.0455C8.99207 85.0353 8.73949 85.0394 8.48776 85.058" fill="#E4E4E4"/>
<path d="M8.48943 20.3067C8.23568 20.3005 7.98177 20.3088 7.72896 20.3315C7.47717 20.3541 7.22691 20.3912 6.97939 20.4426C6.73047 20.4946 6.48472 20.5608 6.24337 20.641C5.99831 20.7221 5.758 20.8169 5.52357 20.925C5.2941 21.0307 5.07038 21.1485 4.85335 21.2778C4.63418 21.4084 4.42195 21.5503 4.21752 21.703C4.00979 21.8581 3.81005 22.0236 3.61906 22.199C3.42486 22.3773 3.23827 22.5663 3.05928 22.766C2.88008 22.9659 2.71023 23.1747 2.54975 23.3922C2.38928 23.6098 2.23873 23.8353 2.0981 24.0687C1.95812 24.3053 1.82751 24.5476 1.70628 24.7958C1.58505 25.044 1.47484 25.3004 1.37564 25.5649C1.27292 25.8376 1.18276 26.1147 1.10517 26.3965C1.02758 26.6782 0.962881 26.9635 0.911082 27.2525C0.85906 27.5424 0.820047 27.8347 0.794037 28.1294C0.768027 28.4241 0.755026 28.7217 0.755033 29.0221C0.755033 29.3221 0.768034 29.6197 0.794037 29.9148C0.82004 30.21 0.859053 30.502 0.911082 30.7907C0.962883 31.0795 1.02758 31.3644 1.10517 31.6454C1.18276 31.9265 1.27292 32.2031 1.37564 32.4753C1.47571 32.7383 1.58592 32.994 1.70628 33.2424C1.82752 33.49 1.95845 33.7301 2.09907 33.9629C2.23969 34.1957 2.39025 34.4202 2.55073 34.6364C2.71099 34.8533 2.88082 35.061 3.06026 35.2594C3.23969 35.4577 3.42595 35.6451 3.61904 35.8215C3.80904 35.9961 4.00779 36.161 4.21453 36.3154C4.41898 36.4667 4.63122 36.6072 4.85036 36.7363C5.06743 36.8643 5.29115 36.9806 5.52058 37.0848C5.75507 37.1914 5.99539 37.2847 6.24039 37.3642C6.72249 37.5202 7.22097 37.6201 7.72596 37.6618C8.23163 37.7037 8.74043 37.6883 9.24263 37.6158C9.4916 37.5799 9.73834 37.5297 9.98162 37.4657C10.2255 37.4015 10.4656 37.3235 10.7008 37.2323C10.9387 37.1401 11.1714 37.0349 11.3978 36.9172C11.6185 36.8025 11.8333 36.6766 12.0412 36.5399C12.2503 36.4024 12.4524 36.2544 12.6466 36.0965C12.8419 35.9378 13.0305 35.7688 13.2123 35.5893C13.3942 35.4099 13.569 35.2201 13.7367 35.02C13.9056 34.8198 14.0645 34.6124 14.2135 34.3977C14.3625 34.183 14.5021 33.9612 14.6321 33.7324C14.7626 33.5036 14.883 33.2683 14.9932 33.0265C15.1034 32.7847 15.2043 32.5371 15.2957 32.2836C15.3901 32.0204 15.4726 31.7537 15.5434 31.4834C15.6141 31.2132 15.6732 30.9398 15.7206 30.6634C15.7678 30.3859 15.8033 30.1062 15.8271 29.8242C15.8509 29.5423 15.8628 29.2581 15.8628 28.9715C15.8626 28.6852 15.8507 28.401 15.8271 28.1191C15.8035 27.8372 15.768 27.5582 15.7206 27.2823C15.6734 27.0061 15.6144 26.7329 15.5434 26.4629C15.4724 26.1929 15.3899 25.9266 15.2957 25.6641C15.2043 25.4104 15.1034 25.1629 14.9932 24.9218C14.883 24.6806 14.7621 24.4458 14.6305 24.2172C14.5004 23.9906 14.3609 23.7702 14.2119 23.5559C14.0628 23.3416 13.9045 23.1353 13.7367 22.9369C13.5701 22.7388 13.3957 22.5504 13.2137 22.3719C13.0316 22.1933 12.843 22.0255 12.6479 21.8683C12.4538 21.7114 12.2518 21.5644 12.0428 21.4279C11.8349 21.2925 11.6202 21.1679 11.3994 21.0546C11.173 20.9383 10.9403 20.8345 10.7024 20.7438C10.4672 20.6541 10.2271 20.5777 9.98327 20.515C9.73991 20.4525 9.49317 20.4039 9.24428 20.3695C8.99346 20.3349 8.74088 20.3146 8.48777 20.3087M8.48777 19.4814C9.59848 19.5118 10.6878 19.7937 11.6738 20.306C12.6537 20.8184 13.5222 21.52 14.2291 22.3702C14.968 23.2563 15.5434 24.2667 15.9286 25.3543C16.7534 27.6951 16.7534 30.2476 15.9286 32.5884C15.543 33.6791 14.9677 34.6931 14.2291 35.5834C13.5221 36.4377 12.6537 37.1443 11.6735 37.6628C10.6888 38.1812 9.59962 38.4702 8.48744 38.5083C7.3684 38.545 6.25597 38.3232 5.23655 37.8602C4.20742 37.3888 3.28674 36.7099 2.53222 35.8661C1.73099 34.9725 1.1039 33.937 0.683262 32.8129C-0.227754 30.3659 -0.227754 27.6727 0.683262 25.2257C1.10431 24.0982 1.73128 23.0589 2.53222 22.1606C3.28651 21.3121 4.20695 20.6274 5.23655 20.149C6.25518 19.6794 7.36818 19.4506 8.48943 19.4801L8.48777 19.4814Z" fill="url(#paint1_linear_82_836)"/>
<path d="M8.48876 31.3334L5.88428 25.9075L6.50258 25.5048L8.64779 29.9622L17.6552 19.375L18.2004 19.9559L8.48876 31.3334Z" fill="url(#paint2_linear_82_836)"/>
<path d="M103.276 138.455L96.8287 138.43L98.9078 155.277L103.276 155.299V138.455Z" fill="#9E616A"/>
<path d="M104.39 159.538L90.3121 159.463V159.285C90.3119 158.924 90.3471 158.564 90.4173 158.209C90.5557 157.51 90.8316 156.845 91.229 156.253C91.6326 155.654 92.1499 155.139 92.7516 154.738C93.3453 154.344 94.0114 154.071 94.7113 153.935C95.0662 153.867 95.4269 153.834 95.7882 153.836L104.39 153.878V159.538Z" fill="#2F2E41"/>
<path d="M82.6319 138.375L76.2029 138.35L78.2754 155.174L82.6319 155.196V138.375Z" fill="#9E616A"/>
<path d="M83.7429 159.429L69.7018 159.355V159.177C69.7017 158.816 69.7369 158.456 69.8069 158.103C69.9449 157.404 70.2201 156.741 70.6163 156.149C71.0187 155.55 71.5348 155.036 72.1353 154.636C72.7274 154.242 73.3918 153.97 74.0901 153.835C74.4441 153.766 74.8039 153.733 75.1643 153.735L83.7429 153.777V159.429Z" fill="#2F2E41"/>
<path d="M82.3588 69.5156L71.5477 109.861L75.5049 148.536L84.2669 148.777L82.3591 113.857L93.2899 96.4297L95.6606 149.015L103.609 148.453L108.03 103.24C109.532 99.7099 110.633 96.0224 111.313 92.2467C111.848 89.283 112.108 86.2763 112.09 83.2648C112.081 81.2374 111.925 79.2133 111.624 77.2084C111.516 76.4612 111.37 75.72 111.187 74.9878L107.963 71.72L82.3588 69.5156Z" fill="#2F2E41"/>
<path d="M96.6826 76.2633C94.8645 76.2633 93.1586 76.205 91.6116 76.0898C90.0315 75.9814 88.4596 75.7745 86.9052 75.4703C85.5818 75.2231 84.2929 74.8173 83.0666 74.2617C82.0793 73.8353 81.2209 73.1578 80.5768 72.2967L80.5031 72.1896L83.4581 52.9585L86.6446 31.3354C86.8544 29.9044 87.583 28.6006 88.6917 27.672C89.8004 26.7435 91.2119 26.255 92.6574 26.2997L102.637 26.6055C103.386 26.6284 104.122 26.8014 104.802 27.1141C105.482 27.4269 106.093 27.873 106.598 28.4261C107.102 28.9792 107.491 29.628 107.74 30.334C107.989 31.04 108.094 31.7889 108.049 32.5363L106.739 54.0407L111.571 75.2525L111.229 75.3002C111.091 75.3185 110.561 75.3885 109.73 75.482C108.644 75.604 107.536 75.714 106.435 75.8089C104.877 75.9432 103.353 76.0487 101.905 76.1228C100.069 76.2164 98.3082 76.2617 96.6826 76.2633Z" fill="#CCCCCC"/>
<path d="M91.1447 22.4783C91.142 22.4783 91.1393 22.4783 91.1367 22.4783C90.9273 22.4782 90.72 22.4368 90.5266 22.3566C90.3332 22.2763 90.1576 22.1588 90.0096 22.0106C89.8617 21.8625 89.7443 21.6866 89.6643 21.4932C89.5843 21.2997 89.5432 21.0923 89.5433 20.8829V11.9853C89.5418 10.3912 89.8608 8.81311 90.4814 7.34476C91.6966 4.47935 93.9707 2.19341 96.8297 0.963346C98.638 0.187762 100.61 -0.127262 102.57 0.0464798C104.53 0.220222 106.416 0.877305 108.06 1.9589C109.703 3.04049 111.053 4.51281 111.988 6.24403C112.923 7.97526 113.414 9.91133 113.417 11.8789V20.79C113.417 21.0045 113.374 21.2168 113.291 21.4143C113.127 21.7996 112.821 22.1066 112.436 22.2713C112.238 22.3556 112.026 22.3994 111.811 22.3999L91.1433 22.4783H91.1447Z" fill="#2F2E41"/>
<path d="M106.87 8.93386C107.703 10.4544 108.066 12.1876 107.914 13.9145C107.762 15.6413 107.102 17.2845 106.017 18.6363C104.931 19.9882 103.47 20.9881 101.817 21.5099C100.164 22.0316 98.3928 22.0518 96.7282 21.5678C95.6259 21.251 94.5975 20.7187 93.7024 20.0016C92.8074 19.2846 92.0635 18.397 91.514 17.3904C90.6834 15.8705 90.3215 14.1387 90.4738 12.4134C90.6261 10.6881 91.2858 9.04657 92.3698 7.69569C93.4538 6.34481 94.9134 5.34511 96.5647 4.82263C98.2161 4.30016 99.9851 4.27831 101.649 4.75983C102.752 5.07541 103.782 5.6069 104.678 6.32348C105.574 7.04005 106.319 7.92745 106.87 8.9342V8.93386Z" fill="#9E616A"/>
<path d="M86.7213 12.7099C86.7202 11.4492 86.9725 10.2011 87.4633 9.03979C88.4241 6.77397 90.2225 4.96647 92.4834 3.99418C93.6435 3.49715 94.8916 3.23853 96.1536 3.23369L97.9344 3.22477C97.9544 3.22465 97.9744 3.2246 97.9944 3.22461C99.2276 3.22537 100.448 3.46901 101.587 3.94161C102.726 4.41422 103.761 5.10654 104.633 5.97905C105.504 6.85155 106.195 7.88715 106.666 9.02672C107.138 10.1663 107.38 11.3875 107.379 12.6207V12.7989L103.612 12.8141L102.327 9.22527L102.07 12.821L100.124 12.8296L99.4765 11.019L99.3466 12.8319L86.723 12.8885L86.7213 12.7099Z" fill="#2F2E41"/>
<path d="M71.5546 31.4271C70.975 31.5689 70.4329 31.8346 69.9656 32.2059C69.6005 32.4948 69.2883 32.8449 69.0428 33.2406C68.5588 34.0236 68.3456 34.944 68.4359 35.8602C68.4815 36.323 68.607 36.7744 68.8069 37.1943C69.0533 37.7176 69.408 38.1826 69.8474 38.5588C70.2868 38.9349 70.801 39.2136 71.356 39.3764C71.911 39.5392 72.4943 39.5824 73.0672 39.5031C73.6402 39.4239 74.1898 39.224 74.6799 38.9167C74.716 38.8934 74.7517 38.8697 74.7872 38.8457C74.8226 38.8217 74.8573 38.7972 74.8915 38.7722C74.9259 38.7472 74.9596 38.7218 74.9928 38.696C75.026 38.6701 75.0589 38.6439 75.0916 38.6174L95.88 46.0161C96.5197 46.2436 97.2159 46.2572 97.8639 46.0548C98.5119 45.8524 99.0767 45.445 99.4731 44.8938L104.402 38.0701L98.443 34.0576L95.3161 37.6098L76.2912 33.8252C76.2704 33.7759 76.2489 33.7269 76.2267 33.6781C76.2045 33.6293 76.1813 33.5807 76.1571 33.5323C76.1325 33.4841 76.1072 33.4361 76.0811 33.3884C76.055 33.3406 76.0275 33.2932 75.9984 33.2463C75.5445 32.5129 74.8701 31.9419 74.0719 31.6152C73.2737 31.2884 72.3925 31.2226 71.5546 31.4271Z" fill="#9E616A"/>
<path d="M95.6515 35.3695C96.2734 34.5934 97.1429 33.5858 98.0262 32.5863C98.9096 31.5869 99.806 30.5964 100.482 29.8554C101.158 29.1144 101.614 28.6232 101.614 28.6232C102.238 27.6795 103.169 26.9809 104.25 26.6461C105.331 26.3113 106.494 26.361 107.543 26.7867C108.591 27.2124 109.46 27.9879 110.001 28.9814C110.542 29.975 110.723 31.1253 110.513 32.237C110.392 32.877 110.144 33.4861 109.782 34.0275C109.782 34.0275 109.104 34.915 108.08 36.2397C107.056 37.5644 105.687 39.3278 104.305 41.0809C102.923 42.834 101.528 44.578 100.453 45.8654C99.377 47.1528 98.62 47.9845 98.5134 47.9132L94.7612 36.7599C94.6546 36.6886 95.0297 36.1456 95.6515 35.3695Z" fill="#CCCCCC"/>
<path d="M97.8785 22.1978C97.8196 22.4854 97.8425 22.7838 97.9447 23.0591C97.996 23.2 98.0668 23.333 98.155 23.4542C98.2305 23.5575 98.3179 23.6515 98.4155 23.7343C98.7046 23.9785 99.0713 24.1118 99.4498 24.1102C99.4734 24.11 99.4969 24.1093 99.5205 24.1082C99.5441 24.1071 99.5677 24.1055 99.5913 24.1033C99.6151 24.1013 99.6388 24.0986 99.6624 24.0953C99.6859 24.092 99.7097 24.0883 99.7335 24.0841L101.071 23.8411L102.912 19.9064V23.5104L108.991 22.416V7.12207L98.8001 7.171L99.052 7.46362C99.8883 8.44548 100.437 9.63903 100.639 10.9129C100.837 12.2032 100.812 13.5177 100.566 14.7996C100.326 16.0967 99.9629 17.3678 99.4805 18.5954C99.0589 19.6829 98.5749 20.7453 98.031 21.7772C97.9608 21.9095 97.9094 22.0511 97.8785 22.1978Z" fill="#2F2E41"/>
<path d="M27.2872 160H153.262C153.35 160 153.434 159.965 153.496 159.903C153.558 159.841 153.593 159.757 153.593 159.67C153.593 159.582 153.558 159.498 153.496 159.436C153.434 159.374 153.35 159.339 153.262 159.339H27.2872C27.1995 159.339 27.1154 159.374 27.0534 159.436C26.9914 159.498 26.9565 159.582 26.9565 159.67C26.9565 159.757 26.9914 159.841 27.0534 159.903C27.1154 159.965 27.1995 160 27.2872 160Z" fill="#CACACA"/>
</g>
<defs>
<linearGradient id="paint0_linear_82_836" x1="36" y1="33" x2="119" y2="41.5" gradientUnits="userSpaceOnUse">
<stop stop-color="#F73E94"/>
<stop offset="0.333333" stop-color="#97238A"/>
<stop offset="0.666667" stop-color="#5456AB"/>
<stop offset="1" stop-color="#22DCD9"/>
</linearGradient>
<linearGradient id="paint1_linear_82_836" x1="8.27359" y1="19.4775" x2="8.27359" y2="38.5122" gradientUnits="userSpaceOnUse">
<stop stop-color="#F73E94"/>
<stop offset="0.333333" stop-color="#97238A"/>
<stop offset="0.666667" stop-color="#5456AB"/>
<stop offset="1" stop-color="#22DCD9"/>
</linearGradient>
<linearGradient id="paint2_linear_82_836" x1="12.0423" y1="19.375" x2="12.0423" y2="31.3334" gradientUnits="userSpaceOnUse">
<stop stop-color="#F73E94"/>
<stop offset="0.333333" stop-color="#97238A"/>
<stop offset="0.666667" stop-color="#5456AB"/>
<stop offset="1" stop-color="#22DCD9"/>
</linearGradient>
<clipPath id="clip0_82_836">
<rect width="153.593" height="160" fill="white"/>
</clipPath>
</defs>
</svg>
