<svg width="176" height="160" viewBox="0 0 176 160" fill="none" xmlns="http://www.w3.org/2000/svg">
<g clip-path="url(#clip0_2644_4279)">
<path d="M41.1643 29.1142C43.2326 17.5609 54.3061 9.86623 65.8975 11.9278C77.489 13.9893 85.209 25.0264 83.1407 36.5797C81.4633 45.9495 73.8627 52.7802 64.8666 53.9282L56.0246 79.9328L38.4163 59.0742C38.4163 59.0742 43.9002 54.196 47.4417 48.2257C42.4486 43.4722 39.8605 36.397 41.1643 29.1142Z" fill="#ED9DA0"/>
<path d="M42.8838 53.0371C42.8838 53.0371 14.7185 57.7707 11.0023 63.4501C7.28612 69.1295 3.32221 77.2782 3.32221 77.2782C3.32221 77.2782 -7.33079 130.121 9.51582 137.529L77.568 127.857L69.2222 102.959L77.6455 127.899L97.3496 124.755C97.3496 124.755 85.5733 66.6602 78.8842 62.7093C72.1951 58.7584 63.8335 59.8201 63.8335 59.8201C63.8335 59.8201 50.5178 73.007 43.0234 53.0424L42.8838 53.0371Z" fill="url(#paint0_linear_2644_4279)"/>
<path d="M58.0593 20.6349C58.0593 20.6349 64.0195 22.4602 66.497 19.4971C66.497 19.4971 72.4428 19.744 73.6815 22.9541C74.9203 26.1642 82.3526 27.6458 84.83 24.9295C87.3075 22.2133 91.0236 17.2747 86.3165 12.83C86.3165 12.83 85.5733 8.13832 81.6094 7.15061L79.3797 9.12604C79.3797 9.12604 49.9288 -4.67887 46.445 9.38454C46.445 9.38454 41.1119 8.3825 43.6469 11.594C43.6469 11.594 40.7905 14.8952 38.9784 21.1554C36.1343 30.9805 39.4615 41.5525 47.3432 48.099C47.3432 48.099 41.01 31.5294 46.445 36.3782C51.88 41.2269 51.6323 30.1151 51.6323 30.1151C51.6323 30.1151 59.7792 25.2298 58.0593 20.6349Z" fill="#090814"/>
<path d="M172.32 29.9322L91.3044 36.7754C89.5902 36.9202 88.2558 38.3206 88.1992 40.0344L85.8097 112.328C85.751 114.103 87.0806 115.621 88.8536 115.804L172.258 124.371C174.26 124.577 176 123.012 176 121.007V33.3026C176 31.3219 174.3 29.765 172.32 29.9322Z" fill="#D6D6E3"/>
<path d="M95.0717 43.7097L93.0056 107.968L165.842 114.565L167.577 38.7578L95.0717 43.7097Z" fill="white"/>
<path d="M98.8361 52.0153L162.079 48.474C162.912 48.4274 163.613 49.088 163.613 49.9195V62.3558C163.613 63.1348 162.994 63.7741 162.213 63.8026L98.9708 66.1121C98.1483 66.1421 97.4651 65.4856 97.4651 64.6653V53.4608C97.4651 52.6927 98.0668 52.0584 98.8361 52.0153Z" fill="#D6D6E3"/>
<path d="M143.297 56.043C143.035 56.043 142.816 55.8378 142.803 55.5737C142.789 55.3015 143 55.0695 143.273 55.056L158.138 54.3152C158.414 54.3005 158.644 54.5112 158.657 54.7837C158.671 55.056 158.46 55.2879 158.187 55.3015L143.323 56.0422C143.314 56.0427 143.306 56.043 143.297 56.043Z" fill="#090814"/>
<path d="M135.865 59.2526C135.599 59.2526 135.379 59.042 135.37 58.7751C135.361 58.5026 135.575 58.2743 135.849 58.2651L158.146 57.5255C158.419 57.5197 158.649 57.7302 158.658 58.0027C158.667 58.2752 158.452 58.5036 158.179 58.5127L135.882 59.2523C135.876 59.2526 135.871 59.2526 135.865 59.2526Z" fill="#090814"/>
<path d="M100.722 59.6422L98.8567 80.5072C98.7739 81.4336 99.4928 82.2375 100.426 82.2615L125.917 82.9186C126.773 82.9407 127.498 82.2933 127.57 81.4424L129.446 59.2145C129.565 57.7979 128.403 56.6018 126.979 56.6751L102.5 57.9351C101.564 57.9833 100.806 58.7112 100.722 59.6422Z" fill="white"/>
<path d="M127.103 57.6596C127.487 57.6596 127.842 57.8156 128.104 58.099C128.365 58.3818 128.491 58.7486 128.458 59.1318L126.582 81.3596C126.555 81.6804 126.282 81.9315 125.959 81.9315L125.942 81.9313L100.451 81.2742C100.215 81.268 100.067 81.1408 100 81.0656C99.9326 80.9902 99.8228 80.8289 99.8437 80.5949L101.709 59.7298C101.749 59.2916 102.11 58.9442 102.551 58.9215L127.03 57.6615C127.055 57.6603 127.079 57.6596 127.103 57.6596ZM127.103 56.6719C127.062 56.6719 127.021 56.673 126.979 56.6751L102.5 57.9351C101.564 57.9833 100.806 58.7112 100.722 59.6421L98.8566 80.5072C98.7738 81.4336 99.4927 82.2375 100.426 82.2615L125.917 82.9186C125.931 82.919 125.945 82.9192 125.959 82.9192C126.797 82.9192 127.499 82.2791 127.57 81.4425L129.446 59.2146C129.562 57.8394 128.47 56.6719 127.103 56.6719Z" fill="#090814"/>
<path d="M99.9425 77.5255L108.118 67.4014L113.073 73.5746L119.267 68.636L127.194 78.5132L126.699 82.2171L99.6173 81.1875L99.9425 77.5255Z" fill="#090814"/>
<path d="M137.352 71.8425V86.7906C137.352 88.4543 138.705 89.803 140.374 89.803H159.637C161.306 89.803 162.659 88.4543 162.659 86.7906V71.5055C162.659 69.8212 161.273 68.4641 159.584 68.4936L140.321 68.8306C138.673 68.8595 137.352 70.1995 137.352 71.8425Z" fill="#D6D6E3"/>
<path d="M152.465 96.0452C152.458 96.0452 152.451 96.0449 152.444 96.0447L126.678 94.9861C126.405 94.975 126.192 94.7449 126.204 94.4724C126.215 94.1997 126.446 93.9899 126.719 93.9993L152.485 95.0579C152.758 95.069 152.971 95.2991 152.959 95.5716C152.948 95.8373 152.729 96.0452 152.465 96.0452Z" fill="#090814"/>
<path d="M158.163 101.552C158.155 101.552 158.146 101.552 158.138 101.551L126.674 99.9881C126.401 99.9746 126.19 99.7428 126.204 99.4704C126.218 99.1979 126.446 98.9859 126.724 99.0018L158.187 100.565C158.46 100.578 158.671 100.81 158.657 101.083C158.644 101.347 158.425 101.552 158.163 101.552Z" fill="#090814"/>
<path d="M153.951 108.639C153.94 108.639 153.93 108.639 153.919 108.638L123.198 106.662C122.925 106.645 122.718 106.41 122.736 106.138C122.754 105.865 122.99 105.661 123.262 105.677L153.983 107.652C154.256 107.67 154.463 107.905 154.445 108.177C154.428 108.438 154.21 108.639 153.951 108.639Z" fill="#090814"/>
<path d="M115.427 67.4009C116.59 67.4009 117.532 66.4612 117.532 65.302C117.532 64.1428 116.59 63.2031 115.427 63.2031C114.263 63.2031 113.321 64.1428 113.321 65.302C113.321 66.4612 114.263 67.4009 115.427 67.4009Z" fill="#090814"/>
<path d="M98.2083 47.4002C98.6188 47.4002 98.9516 46.958 98.9516 46.4125C98.9516 45.867 98.6188 45.4248 98.2083 45.4248C97.7978 45.4248 97.4651 45.867 97.4651 46.4125C97.4651 46.958 97.7978 47.4002 98.2083 47.4002Z" fill="#D6D6E3"/>
<path d="M101.677 47.1532C102.087 47.1532 102.42 46.711 102.42 46.1655C102.42 45.62 102.087 45.1777 101.677 45.1777C101.266 45.1777 100.933 45.62 100.933 46.1655C100.933 46.711 101.266 47.1532 101.677 47.1532Z" fill="#D6D6E3"/>
<path d="M104.65 46.9061C105.06 46.9061 105.393 46.4639 105.393 45.9184C105.393 45.3729 105.06 44.9307 104.65 44.9307C104.239 44.9307 103.906 45.3729 103.906 45.9184C103.906 46.4639 104.239 46.9061 104.65 46.9061Z" fill="#D6D6E3"/>
<path d="M168.172 6.66741C168.663 6.66741 169.063 7.0677 169.063 7.55975V23.2101C169.063 23.6754 168.713 24.0574 168.248 24.0986L146.942 25.9909C146.914 25.9934 146.887 25.9946 146.86 25.9946C146.381 25.9946 145.981 25.6053 145.968 25.1268L145.573 10.7675C145.561 10.3161 145.889 9.92632 146.337 9.86061L168.038 6.67729C168.083 6.67066 168.128 6.66741 168.172 6.66741ZM168.172 5.67969C168.08 5.67969 167.987 5.68632 167.894 5.70006L146.193 8.88338C145.248 9.02192 144.556 9.84289 144.582 10.7946L144.977 25.1539C145.005 26.1799 145.85 26.9823 146.86 26.9823C146.916 26.9823 146.973 26.9798 147.03 26.9747L168.336 25.0825C169.308 24.996 170.054 24.1836 170.054 23.2101V7.55975C170.054 6.50717 169.194 5.67969 168.172 5.67969Z" fill="#D6D6E3"/>
<path d="M150.234 15.2993C149.987 15.2993 149.773 15.1153 149.743 14.8646C149.71 14.5938 149.903 14.3478 150.175 14.3152L164.544 12.5867C164.815 12.5535 165.063 12.7469 165.096 13.0179C165.128 13.2887 164.935 13.5347 164.663 13.5672L150.294 15.2957C150.274 15.2981 150.254 15.2993 150.234 15.2993Z" fill="#D6D6E3"/>
<path d="M150.234 19.4824C149.982 19.4824 149.766 19.2909 149.741 19.0353C149.715 18.7638 149.915 18.5227 150.188 18.4969L163.07 17.2764C163.342 17.2521 163.585 17.4498 163.611 17.7214C163.636 17.9929 163.437 18.234 163.164 18.2598L150.282 19.4802C150.266 19.4817 150.25 19.4824 150.234 19.4824Z" fill="#D6D6E3"/>
<path d="M129.942 0.987718C130.433 0.987718 130.833 1.38801 130.833 1.88007V17.5304C130.833 17.9957 130.482 18.3777 130.018 18.4189L108.712 20.3112C108.684 20.3137 108.657 20.3149 108.63 20.3149C108.151 20.3149 107.751 19.9256 107.738 19.4472L107.343 5.08786C107.33 4.63644 107.659 4.24663 108.107 4.18092L129.808 0.997605C129.853 0.990973 129.898 0.987718 129.942 0.987718ZM129.942 0C129.85 0 129.757 0.00663253 129.663 0.0203766L107.963 3.20369C107.018 3.34223 106.326 4.1632 106.352 5.11487L106.747 19.4742C106.775 20.5002 107.62 21.3026 108.63 21.3026C108.686 21.3026 108.743 21.3001 108.8 21.295L130.105 19.4028C131.078 19.3163 131.824 18.5039 131.824 17.5304V1.88007C131.824 0.827478 130.963 0 129.942 0Z" fill="#D6D6E3"/>
<path d="M112.004 9.61965C111.757 9.61965 111.543 9.43566 111.513 9.18488C111.48 8.91407 111.673 8.66811 111.945 8.63555L126.314 6.90705C126.585 6.87377 126.833 7.06716 126.866 7.33821C126.898 7.60901 126.705 7.85497 126.433 7.88753L112.064 9.61604C112.044 9.61845 112.024 9.61965 112.004 9.61965Z" fill="#D6D6E3"/>
<path d="M112.004 13.8037C111.751 13.8037 111.536 13.6122 111.511 13.3566C111.485 13.0851 111.685 12.844 111.958 12.8182L124.84 11.5977C125.112 11.5734 125.355 11.7711 125.38 12.0426C125.406 12.3142 125.207 12.5553 124.934 12.5811L112.051 13.8015C112.035 13.803 112.02 13.8037 112.004 13.8037Z" fill="#D6D6E3"/>
<path d="M40.646 144.046L92.2625 160L137.352 144.664L86.3166 134.566L40.646 144.046Z" fill="#D6D6E3"/>
<path d="M78.141 138.764L87.3075 136.542L108.159 141.112L98.7038 144.046L78.141 138.764Z" fill="white"/>
<path d="M99.6947 145.899L80.1229 151.852L93.7489 156.296L112.33 149.382L99.6947 145.899Z" fill="white"/>
<path d="M84.9327 107.721L43.4795 129.737L35.5095 118.024L78.8311 96.366C79.7345 93.2137 82.1139 90.2299 85.59 88.3743C91.6723 85.1275 98.7883 86.5626 101.484 91.5797C104.18 96.5967 101.435 103.296 95.3526 106.543C91.8765 108.398 88.066 108.719 84.9327 107.721Z" fill="#ED9DA0"/>
<path d="M26.858 98.0205L24.876 103.947C24.876 103.947 29.5832 108.956 24.876 111.761L41.4749 109.626C41.4749 109.626 48.1947 104.686 48.6748 108.761C48.6748 108.761 57.0828 103.206 58.817 106.663C58.817 106.663 53.8441 117.381 61.6571 122.887L51.2608 127.546L43.8557 132.541L9.51587 137.529" fill="url(#paint1_linear_2644_4279)"/>
<path d="M115.143 105.114C115.057 105.114 114.969 105.11 114.881 105.102L100.725 103.748C99.2438 103.606 98.1331 102.288 98.2486 100.81L99.1611 89.1416C99.2779 87.6497 100.595 86.5252 102.089 86.6231L116.612 87.6231C117.363 87.675 118.043 88.0201 118.527 88.5949C119.011 89.1698 119.234 89.8971 119.154 90.6432L117.875 102.665C117.726 104.064 116.528 105.114 115.143 105.114ZM100.396 89.2376L99.4837 100.905C99.4202 101.717 100.03 102.441 100.843 102.519L114.999 103.873C115.82 103.952 116.556 103.352 116.643 102.535L117.922 90.513C117.966 90.1033 117.844 89.704 117.578 89.3885C117.312 89.0729 116.939 88.8833 116.527 88.8549L102.004 87.8549C101.182 87.8006 100.46 88.4182 100.396 89.2376Z" fill="url(#paint2_linear_2644_4279)"/>
<path d="M99.6947 101.971L105.145 96.5388L106.879 99.0081L111.091 94.3164L116.623 101.971L116.294 104.687L99.9424 103.415L99.6947 101.971Z" fill="url(#paint3_linear_2644_4279)"/>
</g>
<defs>
<linearGradient id="paint0_linear_2644_4279" x1="48.6748" y1="53.0371" x2="48.6748" y2="137.529" gradientUnits="userSpaceOnUse">
<stop stop-color="#22DCD9"/>
<stop offset="1" stop-color="#5456AB"/>
</linearGradient>
<linearGradient id="paint1_linear_2644_4279" x1="9.53638" y1="133.629" x2="67" y2="98" gradientUnits="userSpaceOnUse">
<stop offset="0.0432692" stop-color="#5456AB"/>
<stop offset="1" stop-color="#22DCD9"/>
</linearGradient>
<linearGradient id="paint2_linear_2644_4279" x1="100.5" y1="87" x2="115" y2="104" gradientUnits="userSpaceOnUse">
<stop stop-color="#22DCD9"/>
<stop offset="0.35" stop-color="#5456AB"/>
<stop offset="0.7" stop-color="#97238A"/>
<stop offset="1" stop-color="#F73E94"/>
</linearGradient>
<linearGradient id="paint3_linear_2644_4279" x1="101.522" y1="94.531" x2="108.736" y2="106.732" gradientUnits="userSpaceOnUse">
<stop stop-color="#22DCD9"/>
<stop offset="0.35" stop-color="#5456AB"/>
<stop offset="0.7" stop-color="#97238A"/>
<stop offset="1" stop-color="#F73E94"/>
</linearGradient>
<clipPath id="clip0_2644_4279">
<rect width="176" height="160" fill="white"/>
</clipPath>
</defs>
</svg>
