<svg width="264" height="160" viewBox="0 0 264 160" fill="none" xmlns="http://www.w3.org/2000/svg">
<g clip-path="url(#clip0_2644_4372)">
<path d="M209.726 24.2443C211.492 23.3687 213.782 24.3891 214.839 26.5233C215.444 27.7431 215.514 29.0615 215.134 30.1318L215.158 30.1804L222.099 42.5381L234.519 36.0071C236.847 34.5724 239.652 34.186 241.274 36.3884C243.283 39.1175 242.223 43.0071 239.108 44.3394L222.901 51.2694C220.599 52.2539 217.934 51.1828 216.954 48.8784L211.137 32.1136C210.056 31.7675 209.049 30.9139 208.444 29.6941C207.386 27.5599 207.961 25.1199 209.726 24.2443Z" fill="#9B616A"/>
<path d="M239.649 32.3076L225.338 39.43L230.761 49.9421L245.167 41.4293" fill="#CACACB"/>
<path d="M223.97 147.522H218.603V154.597H223.97V147.522Z" fill="#9B616A"/>
<path d="M223.054 159.48H211.646C210.671 159.48 209.691 159.257 208.813 158.834L206.71 157.823C206.275 157.614 205.994 157.167 205.994 156.684C205.994 156.119 206.375 155.618 206.92 155.467L211.259 154.266L218.681 150.364L218.687 150.392C218.825 151.095 219.04 152.158 219.068 152.222C219.829 153.094 220.611 153.496 221.392 153.417C222.754 153.279 223.66 151.706 223.669 151.69L223.676 151.678L223.689 151.679C224.008 151.712 224.244 151.841 224.391 152.061C224.701 152.53 224.512 153.252 224.481 153.361C224.853 153.725 225.02 155.759 225.033 155.923C225.571 156.493 225.827 157.042 225.793 157.553C225.763 158 225.515 158.415 225.056 158.786C224.504 159.234 223.793 159.48 223.054 159.48Z" fill="#090814"/>
<path d="M259.365 144.297L254.212 145.796L256.187 152.589L261.34 151.089L259.365 144.297Z" fill="#9B616A"/>
<path d="M261.824 156.033L250.871 159.22C249.935 159.493 248.931 159.552 247.97 159.392L245.668 159.008C245.192 158.929 244.798 158.579 244.663 158.115C244.505 157.572 244.731 156.985 245.212 156.688L249.043 154.323L255.08 148.502L255.093 148.528C255.423 149.164 255.926 150.124 255.97 150.178C256.945 150.803 257.808 150.97 258.535 150.676C259.805 150.163 260.235 148.399 260.239 148.381L260.242 148.368L260.256 148.365C260.572 148.308 260.834 148.365 261.036 148.537C261.466 148.9 261.485 149.646 261.486 149.759C261.945 150.005 262.673 151.911 262.731 152.065C263.407 152.462 263.806 152.917 263.916 153.418C264.013 153.855 263.891 154.323 263.554 154.808C263.148 155.392 262.534 155.827 261.824 156.033Z" fill="#090814"/>
<path d="M244.082 20.3843C244.082 15.565 240.176 11.6582 235.358 11.6582C230.539 11.6582 226.633 15.565 226.633 20.3843C226.633 24.2928 229.202 27.6006 232.744 28.7115L234.43 39.8599L243.029 32.6936C243.029 32.6936 241.171 30.3272 240.175 27.659C242.529 26.0964 244.082 23.4222 244.082 20.3843Z" fill="#9B616A"/>
<path d="M247.525 63.4532L248.784 45.8182C248.893 44.2888 248.7 42.7529 248.215 41.2984L244.483 30.1006L233.49 33.6322L228.851 44.2462L226.325 48.8786C225.175 50.9875 225.551 53.6022 227.25 55.3008L228.851 56.9029L226.618 65.0923L226.853 65.084L226.537 65.1245C226.537 65.1245 211.613 110.035 212.147 148.229H231.305L232.442 103.892L235.77 149.95L261.016 148.496L247.525 63.4532Z" fill="#CACACB"/>
<path d="M246.884 31.8493C246.884 31.8493 246.476 34.9409 242.702 35.0418C237.597 35.1784 235.045 35.2466 235.045 35.2466C235.045 35.2466 241.517 19.4918 238.856 21.2667C236.194 23.0416 229.097 15.6007 229.097 15.6007L227.003 19.529C227.003 19.529 222 17.717 227.545 13.2797C227.545 13.2797 234.16 8.16412 241.184 11.236C248.207 14.308 246.884 31.8493 246.884 31.8493Z" fill="#090814"/>
<path d="M215.919 66.929C215.818 64.9602 217.663 63.2646 220.042 63.1417C221.401 63.0714 222.639 63.5315 223.47 64.3049L223.524 64.3021L237.62 62.842L236.563 48.8475C236.171 46.1405 236.931 43.4125 239.596 42.7992C242.899 42.0393 246.047 44.5574 246.031 47.9465L245.95 65.5747C245.939 68.0791 243.897 70.0989 241.393 70.0834L223.7 68.7608C222.953 69.6158 221.77 70.2009 220.41 70.2712C218.032 70.3941 216.021 68.8977 215.919 66.929Z" fill="#9B616A"/>
<path d="M235.207 42.6694L236.056 58.6347L247.855 57.8342L245.769 41.2295" fill="#CACACB"/>
<path d="M0 159.556C0 159.774 0.173722 159.952 0.395229 159.952H263.605C263.822 159.952 264 159.778 264 159.556C264 159.335 263.826 159.161 263.605 159.161H0.395229C0.178071 159.161 0 159.335 0 159.556Z" fill="#2F2E43"/>
<path d="M216.336 19.8008H148.8C146.941 19.8008 145.434 21.308 145.434 23.1673V23.1673C145.434 25.0266 146.941 26.5339 148.8 26.5339H216.336C218.195 26.5339 219.702 25.0266 219.702 23.1673C219.702 21.308 218.195 19.8008 216.336 19.8008Z" fill="url(#paint0_linear_2644_4372)"/>
<path d="M216.336 47.168H163.349C161.49 47.168 159.983 48.6752 159.983 50.5345V50.5345C159.983 52.3938 161.49 53.9011 163.349 53.9011H216.336C218.195 53.9011 219.702 52.3938 219.702 50.5345C219.702 48.6752 218.195 47.168 216.336 47.168Z" fill="url(#paint1_linear_2644_4372)"/>
<path d="M206.347 64.9775H216.336C218.195 64.9775 219.702 66.4848 219.702 68.3441C219.702 70.2034 218.195 71.7106 216.336 71.7106H206.347C204.488 71.7106 202.981 70.2034 202.981 68.3441C202.981 66.4848 204.488 64.9775 206.347 64.9775Z" fill="url(#paint2_linear_2644_4372)"/>
<path d="M112.317 38.4795H61.936C60.0771 38.4795 58.5701 39.9867 58.5701 41.846V41.8461C58.5701 43.7053 60.0771 45.2126 61.936 45.2126H112.317C114.176 45.2126 115.683 43.7053 115.683 41.846C115.683 39.9867 114.176 38.4795 112.317 38.4795Z" fill="#CACACB"/>
<path d="M61.936 55.8555H76.7028C78.5618 55.8555 80.0688 57.3627 80.0688 59.222C80.0688 61.0813 78.5618 62.5886 76.7028 62.5886H61.936C60.0771 62.5886 58.5701 61.0813 58.5701 59.222C58.5701 57.3627 60.0771 55.8555 61.936 55.8555Z" fill="#CACACB"/>
<path d="M216.336 29.3574H168.127C166.268 29.3574 164.761 30.8647 164.761 32.724V32.724C164.761 34.5833 166.268 36.0905 168.127 36.0905H216.336C218.195 36.0905 219.702 34.5833 219.702 32.724C219.702 30.8647 218.195 29.3574 216.336 29.3574Z" fill="url(#paint3_linear_2644_4372)"/>
<path d="M3.86991 142.262L8.32446 145.547L11.6085 141.092L7.15392 137.807L3.86991 142.262Z" fill="#E8989B"/>
<path d="M0.405141 145.074C0.251511 144.485 0.299752 143.989 0.548587 143.6C0.83319 143.155 1.38099 142.856 2.17666 142.712C2.28782 142.584 3.67077 140.998 4.20251 140.923C4.24322 140.814 4.52745 140.099 5.07212 139.9C5.32869 139.806 5.60328 139.844 5.88825 140.012L5.90066 140.019L5.89895 140.033C5.89669 140.052 5.6858 141.912 6.732 142.86C7.33181 143.404 8.22673 143.549 9.39212 143.291C9.45425 143.254 10.2827 142.504 10.8281 142.006L10.8499 141.986L14.6234 149.767L17.4901 153.419C17.8504 153.878 17.8602 154.527 17.514 154.997C17.2187 155.397 16.7121 155.596 16.2233 155.504L13.859 155.056C12.8712 154.869 11.9212 154.454 11.1119 153.857L1.64309 146.876C1.02961 146.423 0.58996 145.784 0.405141 145.074Z" fill="#090814"/>
<path d="M54.4411 154.965H59.9753V149.43H54.4411V154.965Z" fill="#E8989B"/>
<path d="M53.3206 159.285C52.8472 158.902 52.5917 158.474 52.5612 158.013C52.5262 157.486 52.7899 156.92 53.3448 156.332C53.3582 156.162 53.5304 154.065 53.9142 153.69C53.882 153.577 53.6865 152.833 54.007 152.35C54.1579 152.122 54.4012 151.989 54.7302 151.955L54.7445 151.954L54.7516 151.966C54.7609 151.983 55.6948 153.605 57.0995 153.748C57.9049 153.829 58.7113 153.415 59.4962 152.516C59.5244 152.449 59.7462 151.354 59.8894 150.629L59.8951 150.6L67.5493 154.624L72.0234 155.862C72.5858 156.017 72.9785 156.534 72.9785 157.117C72.9785 157.615 72.6888 158.076 72.2404 158.291L70.0716 159.334C69.1655 159.77 68.155 160 67.1495 160H55.3857C54.6235 160 53.8901 159.746 53.3206 159.285Z" fill="#090814"/>
<path d="M26.2506 61.5732H52.7743L61.6156 150.139H52.7743L39.1449 93.3088L35.0919 109.343L12.771 144.37L3.97974 135.808L22.936 105.856L26.2506 61.5732Z" fill="#090814"/>
<path d="M34.2185 11.6353C34.2185 6.66551 38.2466 2.63672 43.2155 2.63672C48.1845 2.63672 52.2126 6.66551 52.2126 11.6353C52.2126 15.6658 49.563 19.077 45.9111 20.2226L44.1718 31.7192L35.3051 24.3291C35.3051 24.3291 37.2206 21.8888 38.2479 19.1373C35.82 17.5257 34.2185 14.7681 34.2185 11.6353Z" fill="#E8989B"/>
<path d="M38.4973 19.4109C38.4973 19.4109 36.7818 10.7299 39.2613 11.7632C41.7408 12.7964 41.0773 14.5432 41.0773 14.5432L43.4534 11.03V7.00024L45.0031 5.24365L51.615 8.03352C51.615 8.03352 55.1276 -2.29932 45.1064 1.00719C45.1064 1.00719 36.5316 -2.50598 34.0521 3.5904C28.1738 17.3236 38.4973 19.4109 38.4973 19.4109Z" fill="#090814"/>
<path d="M26.3417 62.1572L49.8548 62.2615C51.8124 62.3603 53.4268 61.1967 53.2411 59.8209L48.7854 26.7981L40.8176 22.6212C39.1366 21.74 37.0768 22.066 35.7499 23.4232L31.0282 28.2528C29.7898 29.5195 28.994 30.9745 28.7059 32.499L26.5015 54.3616C26.3567 55.1281 26.4809 55.9079 26.8634 56.6327L27.7282 58.2714C28.6449 60.0084 23.7171 62.0247 26.3417 62.1572Z" fill="url(#paint4_linear_2644_4372)"/>
<path d="M54.8605 66.0875L47.5752 61.2924L50.3744 57.0381L57.6597 61.8331C58.9247 61.5517 60.4086 61.8134 61.7064 62.6676C63.9773 64.1623 64.8157 66.8978 63.5789 68.7774C62.3421 70.6571 59.4986 70.9693 57.2277 69.4746C55.9298 68.6203 55.1026 67.3608 54.8605 66.0875Z" fill="#E8989B"/>
<path d="M32.8674 38.1128L35.1546 56.2511L50.0652 65.5396L56.8175 58.9076L42.2969 51.0392L44.4789 29.6396" fill="url(#paint5_linear_2644_4372)"/>
</g>
<defs>
<linearGradient id="paint0_linear_2644_4372" x1="146" y1="23" x2="220" y2="23" gradientUnits="userSpaceOnUse">
<stop stop-color="#22DCD9"/>
<stop offset="0.35" stop-color="#5456AB"/>
<stop offset="0.75" stop-color="#97238A"/>
<stop offset="1" stop-color="#F73E94"/>
</linearGradient>
<linearGradient id="paint1_linear_2644_4372" x1="162" y1="51" x2="220" y2="51" gradientUnits="userSpaceOnUse">
<stop stop-color="#22DCD9"/>
<stop offset="0.35" stop-color="#5456AB"/>
<stop offset="0.75" stop-color="#97238A"/>
<stop offset="1" stop-color="#F73E94"/>
</linearGradient>
<linearGradient id="paint2_linear_2644_4372" x1="203" y1="68" x2="220" y2="68" gradientUnits="userSpaceOnUse">
<stop stop-color="#22DCD9"/>
<stop offset="0.35" stop-color="#5456AB"/>
<stop offset="0.75" stop-color="#97238A"/>
<stop offset="1" stop-color="#F73E94"/>
</linearGradient>
<linearGradient id="paint3_linear_2644_4372" x1="166.5" y1="33" x2="220" y2="33" gradientUnits="userSpaceOnUse">
<stop stop-color="#22DCD9"/>
<stop offset="0.35" stop-color="#5456AB"/>
<stop offset="0.75" stop-color="#97238A"/>
<stop offset="1" stop-color="#F73E94"/>
</linearGradient>
<linearGradient id="paint4_linear_2644_4372" x1="39.4093" y1="22.1299" x2="39.4093" y2="62.2673" gradientUnits="userSpaceOnUse">
<stop stop-color="#22DCD9"/>
<stop offset="1" stop-color="#5456AB"/>
</linearGradient>
<linearGradient id="paint5_linear_2644_4372" x1="38.5" y1="22.5" x2="44.8425" y2="65.5396" gradientUnits="userSpaceOnUse">
<stop stop-color="#22DCD9"/>
<stop offset="1" stop-color="#5456AB"/>
</linearGradient>
<clipPath id="clip0_2644_4372">
<rect width="264" height="160" fill="white"/>
</clipPath>
</defs>
</svg>
