<svg width="133" height="160" viewBox="0 0 133 160" fill="none" xmlns="http://www.w3.org/2000/svg">
<g clip-path="url(#clip0_2644_4346)">
<path d="M1.5911 90.167L0 99.4689C0 99.4689 0.367181 108.159 3.30462 107.914C6.24206 107.669 3.30462 98.8569 3.30462 98.8569L6.11965 91.1461L1.5911 90.167Z" fill="#FFB9B9"/>
<path d="M7.22126 76.336L6.11971 90.1664L0.856812 89.4321L2.69271 77.9271V68.0133L4.77339 65.9326L7.22126 76.336Z" fill="#E6E6E6"/>
<path d="M1.10144 91.1463L6.48682 92.1255L6.73173 89.5552L0.612061 89.3105L1.10144 91.1463Z" fill="#3F3D56"/>
<path d="M9.60779 53.1426L10.1587 57.3652L10.7094 61.5878L18.1755 60.4864L17.4409 53.1426H9.60779Z" fill="#FFB9B9"/>
<path d="M28.64 88.0859L26.9265 94.6951L25.4578 97.0206C25.4578 97.0206 26.5593 101.427 27.6608 101.304C28.7624 101.182 29.4967 97.0206 29.4967 97.0206L33.6581 88.0859H28.64Z" fill="#FFB9B9"/>
<path d="M8.2004 93.1045C8.2004 93.1045 7.34366 97.2658 5.38536 99.1017C3.42707 100.938 9.9139 149.65 9.9139 149.65C9.9139 149.65 14.4425 151.119 16.6455 151.364C18.8486 151.608 17.5023 125.539 17.5023 125.539V118.44C17.5023 118.44 21.9084 146.468 21.9084 146.835V148.671L24.1115 150.996C24.1115 150.996 27.9057 150.017 28.5176 150.996C29.1296 151.976 30.7207 152.098 31.2103 152.465C31.6998 152.832 28.3952 101.55 28.3952 101.55L24.9682 96.1643L8.2004 93.1045Z" fill="#2F2E41"/>
<path d="M13.3408 55.53C16.5854 55.53 19.2157 52.8997 19.2157 49.6551C19.2157 46.4105 16.5854 43.7803 13.3408 43.7803C10.0962 43.7803 7.46594 46.4105 7.46594 49.6551C7.46594 52.8997 10.0962 55.53 13.3408 55.53Z" fill="#FFB9B9"/>
<path d="M24.4786 69.6053C24.4786 69.8501 28.028 79.8863 27.7833 80.2535C27.5385 80.6206 28.028 86.9851 28.028 86.9851H34.3925C34.5582 86.5133 34.641 86.0164 34.6373 85.5164C34.6373 84.6596 33.5357 75.2354 32.3118 69.4829C31.0878 63.7304 27.2937 61.1602 27.2937 61.1602L26.4369 61.6497C26.4369 61.6497 24.4786 69.3605 24.4786 69.6053Z" fill="#E6E6E6"/>
<path d="M28.0279 88.9431L33.4133 88.8207L35.3717 86.9847L27.6608 86.4951L28.0279 88.9431Z" fill="#3F3D56"/>
<path d="M13.3408 97.0211L14.4424 101.305C14.4424 101.305 18.8485 100.448 20.562 99.8362C22.2755 99.2242 27.0488 98.6122 27.0488 98.6122L25.4577 95.6748L13.3408 97.0211Z" fill="#3F3D56"/>
<path d="M5.38537 96.1641L4.77332 99.9582L10.1587 101.06L11.505 97.0208L5.38537 96.1641Z" fill="#3F3D56"/>
<path d="M10.1586 59.569C10.1586 59.569 9.66905 60.6705 6.48682 61.7721C3.30459 62.8736 2.69263 68.0141 2.69263 68.0141C2.69263 68.0141 6.4868 78.2951 6.36441 79.0295C6.24202 79.7638 6.85398 81.4773 6.85398 81.4773L6.24202 91.8807L5.01809 96.5317C15.9111 100.571 26.3145 95.9197 26.3145 95.9197C26.3145 95.9197 25.8249 91.3912 26.0697 90.1672C26.3145 88.9433 26.6817 77.6831 26.6817 77.6831L27.2936 61.1601L20.0724 58.5899L18.8485 57.6107C18.8485 57.6107 18.6037 54.7957 18.2365 54.5509C17.8694 54.3061 16.8902 55.53 15.5439 56.9987C14.1976 58.4675 11.3825 58.2227 10.5258 57.7331C9.66902 57.2435 9.30184 57.4883 9.30184 57.4883C8.68989 57.9779 10.1586 59.569 10.1586 59.569Z" fill="#E6E6E6"/>
<path d="M17.6961 47.1807C16.9687 45.1627 13.9652 46.7348 11.173 47.2745C8.38075 47.8142 8.50635 53.1426 8.50635 53.1426C8.50635 53.1426 6.79285 50.3131 6.79285 47.1454C6.79285 43.9777 8.29861 44.7286 8.50979 44.2593C8.72096 43.7901 9.28411 44.1186 9.28411 44.1186C9.28411 44.1186 9.58915 42.9453 10.4339 43.1096C10.6643 43.163 10.9054 43.1469 11.1268 43.0634C11.3481 42.9798 11.5397 42.8326 11.6775 42.6403C15.7603 40.4581 15.1267 42.476 16.6754 42.7576C18.2241 43.0392 17.9894 43.4146 18.4822 44.3063C18.8757 45.1081 19.2052 45.9398 19.4677 46.7935C19.4363 47.3695 19.4917 47.9469 19.6319 48.5064C19.8666 49.4919 19.2565 50.407 19.2565 50.407C18.6124 49.396 18.0887 48.3132 17.6961 47.1807Z" fill="#2F2E41"/>
<path d="M8.44532 51.6738C8.74964 51.6738 8.99635 51.345 8.99635 50.9394C8.99635 50.5339 8.74964 50.2051 8.44532 50.2051C8.14099 50.2051 7.89429 50.5339 7.89429 50.9394C7.89429 51.345 8.14099 51.6738 8.44532 51.6738Z" fill="#FFB9B9"/>
<path d="M15.87 149.431L16.5156 154.596C16.5156 154.596 17.1611 155.887 16.5156 156.532C15.87 157.178 16.5156 158.899 16.5156 158.899C16.5156 158.899 15.0092 160.191 11.5661 159.975C8.12306 159.76 8.98384 156.963 9.8446 155.672C10.7054 154.38 10.7054 151.798 10.7054 151.798L11.5661 149.216L15.87 149.431Z" fill="#2F2E41"/>
<path d="M24.03 149.431L23.3845 154.596C23.3845 154.596 22.7389 155.887 23.3845 156.532C24.03 157.178 23.3845 158.899 23.3845 158.899C23.3845 158.899 24.8908 160.191 28.3339 159.975C31.777 159.76 30.9162 156.963 30.0554 155.672C29.1947 154.38 29.1947 151.798 29.1947 151.798L28.3339 149.216L24.03 149.431Z" fill="#2F2E41"/>
<path d="M132.938 38.022H132.059V13.9387C132.059 10.242 130.59 6.69658 127.976 4.08256C125.362 1.46855 121.817 2.91539e-06 118.12 0H67.0962C65.2658 -4.33058e-06 63.4532 0.360528 61.7621 1.06101C60.071 1.76149 58.5344 2.78821 57.24 4.08253C55.9457 5.37686 54.919 6.91345 54.2185 8.60458C53.518 10.2957 53.1575 12.1082 53.1575 13.9387V146.061C53.1575 149.758 54.626 153.303 57.24 155.917C59.854 158.531 63.3994 160 67.0962 160H118.12C121.817 160 125.362 158.531 127.976 155.917C130.59 153.303 132.059 149.758 132.059 146.061V55.1648H132.938V38.022Z" fill="#3F3D56"/>
<path d="M118.682 3.62599H112.022C112.328 4.37691 112.445 5.19163 112.362 5.99837C112.28 6.80512 112 7.57914 111.547 8.25224C111.095 8.92534 110.484 9.47687 109.768 9.85824C109.053 10.2396 108.254 10.4391 107.443 10.4392H78.2125C77.4015 10.4391 76.603 10.2396 75.8872 9.85824C75.1715 9.47687 74.5606 8.92535 74.1082 8.25224C73.6559 7.57914 73.376 6.80512 73.2932 5.99837C73.2105 5.19162 73.3274 4.3769 73.6337 3.62598H67.413C64.6523 3.62597 62.0046 4.72266 60.0525 6.67478C58.1004 8.62689 57.0037 11.2745 57.0037 14.0352V145.964C57.0037 147.331 57.2729 148.684 57.796 149.947C58.3191 151.21 59.0859 152.358 60.0525 153.324C61.0191 154.291 62.1666 155.058 63.4295 155.581C64.6924 156.104 66.046 156.373 67.413 156.373H118.682C120.049 156.373 121.403 156.104 122.666 155.581C123.929 155.058 125.076 154.291 126.043 153.324C127.009 152.358 127.776 151.21 128.299 149.947C128.822 148.684 129.092 147.331 129.092 145.964V14.0352C129.092 12.6683 128.822 11.3147 128.299 10.0518C127.776 8.78888 127.009 7.64137 126.043 6.67478C125.076 5.70819 123.929 4.94145 122.666 4.41834C121.403 3.89523 120.049 3.62598 118.682 3.62599Z" fill="white"/>
<path d="M65.1189 19.7803C64.8275 19.7806 64.5481 19.8965 64.342 20.1026C64.1359 20.3087 64.02 20.5881 64.0197 20.8795V141.759C64.02 142.051 64.1359 142.33 64.342 142.536C64.5481 142.742 64.8275 142.858 65.1189 142.859H120.976C121.268 142.858 121.547 142.742 121.753 142.536C121.959 142.33 122.075 142.051 122.076 141.759V20.8795C122.075 20.5881 121.959 20.3087 121.753 20.1026C121.547 19.8965 121.268 19.7806 120.976 19.7803H65.1189Z" fill="url(#paint0_linear_2644_4346)"/>
<path d="M87.4633 103.037C87.4633 94.4818 89.0924 85.0928 94.5896 77.7632C102.243 67.5582 101.835 54.9852 100.144 46.235C99.0116 40.4227 97.1325 34.7813 94.5534 29.4508L95.2925 29.0654C97.9051 34.4609 99.8095 40.1715 100.958 46.0551C102.685 54.9773 103.098 67.8079 95.2563 78.2633C80.5662 97.8502 93.76 132.923 93.8945 133.274L93.1164 133.573C90.7721 126.996 89.1161 120.194 88.1751 113.275C87.7122 109.882 87.4744 106.462 87.4633 103.037Z" fill="white"/>
<path opacity="0.3" d="M94.9229 29.2539C94.9229 29.2539 101.888 58.0093 92.3517 78.0131C82.8157 98.0169 92.4224 133.44 92.4224 133.44" fill="white"/>
<path opacity="0.3" d="M84.1039 56.4013C84.1195 52.9276 84.4654 49.4633 85.137 46.0551C86.2858 40.1715 88.1901 34.4609 90.8027 29.0654L91.5418 29.4508C88.9628 34.7813 87.0836 40.4227 85.9512 46.235C84.2606 54.9848 83.852 67.558 91.5056 77.7632C99.3403 88.2095 99.3184 102.842 97.9202 113.275C96.9791 120.194 95.3232 126.996 92.9789 133.573L92.2007 133.274C92.3356 132.922 105.53 97.8506 90.839 78.2633C85.6966 71.407 84.1039 63.5285 84.1039 56.4013Z" fill="white"/>
<path opacity="0.3" d="M87.4598 56.5431C87.4598 42.1094 92.638 29.2919 92.7172 29.0996L93.488 29.417C93.3704 29.7023 81.861 58.2093 93.4611 77.8012C105.263 97.7319 94.7284 133.189 94.6206 133.545L93.8229 133.303C93.9296 132.951 104.359 97.841 92.744 78.2257C88.7803 71.5317 87.4598 63.831 87.4598 56.5431Z" fill="white"/>
<path opacity="0.3" d="M93.7435 29.2578C93.7435 29.2578 84.2075 58.0091 93.7435 78.0128C103.279 98.0166 94.6445 133.423 94.6445 133.423" fill="white"/>
<path opacity="0.3" d="M94.923 29.2578C94.923 29.2578 109.926 58.0091 94.923 78.0128C79.9201 98.0166 93.5054 133.423 93.5054 133.423" fill="white"/>
</g>
<defs>
<linearGradient id="paint0_linear_2644_4346" x1="63.9701" y1="20" x2="121.987" y2="142.979" gradientUnits="userSpaceOnUse">
<stop stop-color="#22DCD9"/>
<stop offset="0.35" stop-color="#5456AB"/>
<stop offset="0.75" stop-color="#97238A"/>
<stop offset="1" stop-color="#F73E94"/>
</linearGradient>
<clipPath id="clip0_2644_4346">
<rect width="132.938" height="160" fill="white"/>
</clipPath>
</defs>
</svg>
