<svg width="196" height="160" viewBox="0 0 196 160" fill="none" xmlns="http://www.w3.org/2000/svg">
<g clip-path="url(#clip0_2644_4401)">
<path d="M158.063 79.8703H28.3853C26.4271 79.8703 24.8357 78.2829 24.8357 76.3295V3.54089C24.8357 1.5875 26.4271 0 28.3853 0H158.066C160.024 0 161.616 1.5875 161.616 3.54089V76.3295C161.616 78.2829 160.024 79.8703 158.066 79.8703H158.063ZM28.3853 2.30489C27.7008 2.30489 27.1463 2.85807 27.1463 3.54089V76.3295C27.1463 77.0123 27.7008 77.5655 28.3853 77.5655H158.066C158.751 77.5655 159.305 77.0123 159.305 76.3295V3.54089C159.305 2.85807 158.751 2.30489 158.066 2.30489H28.3853Z" fill="#D7D7D8"/>
<path d="M196 159.231C196 159.47 195.806 159.663 195.567 159.663H0.433232C0.19351 159.663 0 159.47 0 159.231C0 158.992 0.19351 158.799 0.433232 158.799H195.567C195.806 158.799 196 158.992 196 159.231Z" fill="#2F2E43"/>
<path d="M93.1016 79.5388C93.9854 81.5124 93.6272 83.5954 92.3044 84.1976C90.9816 84.7969 89.1909 83.6848 88.3072 81.7112C87.9432 80.9275 87.7815 80.0632 87.8364 79.1902L84.203 70.7831L88.3967 69.04L91.5333 77.5134C92.2207 78.0493 92.7579 78.7436 93.0987 79.5388H93.1016Z" fill="#A0616A"/>
<path d="M64.5024 31.4905C64.5024 31.4905 70.6803 29.1424 71.8558 30.8422C73.0313 32.5421 91.8885 75.2316 91.8885 75.2316L82.366 77.5135L64.5024 31.4934V31.4905Z" fill="#D7D7D8"/>
<path d="M66.3654 35.063L73.765 37.4889V26.8662H67.0528L66.3654 35.063Z" fill="#A0616A"/>
<path d="M72.8495 29.8048C76.9202 29.8048 80.2202 26.513 80.2202 22.4522C80.2202 18.3915 76.9202 15.0996 72.8495 15.0996C68.7787 15.0996 65.4788 18.3915 65.4788 22.4522C65.4788 26.513 68.7787 29.8048 72.8495 29.8048Z" fill="#A0616A"/>
<path d="M70.972 23.0292L71.9887 24.2595L73.8256 21.0499C73.8256 21.0499 76.1708 21.1709 76.1708 19.4336C76.1708 17.6963 78.3226 17.6473 78.3226 17.6473C78.3226 17.6473 81.3696 12.3403 75.0589 13.7376C75.0589 13.7376 70.6803 10.747 68.5055 13.3026C68.5055 13.3026 61.8309 16.6562 63.74 22.4933L66.9141 28.512L67.6333 27.1492C67.6333 27.1492 67.1972 21.4302 70.972 23.0235V23.0292Z" fill="#2F2E43"/>
<path d="M70.1981 145.312H64.1501V153.872H70.1981V145.312Z" fill="#A0616A"/>
<path d="M69.528 158.776C68.494 158.868 63.3183 159.277 63.0584 158.093C62.8215 157.006 63.171 155.871 63.2201 155.716C63.7169 150.778 63.9017 150.723 64.0144 150.691C64.1905 150.639 64.7046 150.884 65.5393 151.42L65.5913 151.455L65.6029 151.515C65.6173 151.593 65.987 153.405 67.7401 153.126C68.9416 152.935 69.3316 152.67 69.4557 152.541C69.3547 152.495 69.2276 152.414 69.138 152.276C69.0081 152.074 68.985 151.815 69.0716 151.504C69.2969 150.682 69.9727 149.469 70.0016 149.421L70.0796 149.282L76.9536 153.909L81.1992 155.119C81.5198 155.212 81.7769 155.439 81.9068 155.745C82.0859 156.171 81.9762 156.667 81.6296 156.978C80.8584 157.669 79.3277 158.853 77.7189 159C77.2915 159.041 76.7254 159.055 76.09 159.055C73.4357 159.055 69.5597 158.781 69.5308 158.776H69.528Z" fill="#2F2E43"/>
<path d="M77.9212 71.5147L62.0562 70.7051C62.0562 70.7051 59.6243 79.9016 62.6974 89.4842L63.0671 147.19H72.0321L80.483 87.6633L77.9212 71.5147Z" fill="#2F2E43"/>
<path d="M75.2438 33.0239L66.5358 28.4141C66.5358 28.4141 57.152 42.0936 58.4488 49.5038C59.7485 56.9141 62.0533 70.7089 62.0533 70.7089L81.2628 71.5185L77.9096 44.3524L75.2438 33.0239Z" fill="#D7D7D8"/>
<path d="M74.4986 145.312H68.4507V153.872H74.4986V145.312Z" fill="#A0616A"/>
<path d="M73.8285 158.776C72.7945 158.868 67.6188 159.277 67.3589 158.093C67.1221 157.006 67.4715 155.871 67.5206 155.716C68.0174 150.778 68.2023 150.723 68.3149 150.691C68.4911 150.639 69.0052 150.884 69.8399 151.42L69.8919 151.455L69.9034 151.515C69.9178 151.593 70.2875 153.405 72.0407 153.126C73.2422 152.935 73.6321 152.67 73.7563 152.541C73.6552 152.495 73.5281 152.414 73.4386 152.276C73.3086 152.074 73.2855 151.815 73.3722 151.504C73.5974 150.682 74.2733 149.469 74.3022 149.421L74.3801 149.282L81.2541 153.909L85.4998 155.119C85.8204 155.212 86.0774 155.439 86.2074 155.745C86.3865 156.171 86.2767 156.667 85.9301 156.978C85.159 157.669 83.6282 158.853 82.0195 159C81.592 159.041 81.0259 159.055 80.3905 159.055C77.7362 159.055 73.8603 158.781 73.8314 158.776H73.8285Z" fill="#2F2E43"/>
<path d="M81.2628 71.5147L62.0533 70.7051C62.0533 70.7051 59.6214 79.9016 62.6945 89.4842L66.4087 147.19H75.3737L83.8246 87.6633L81.2628 71.5147Z" fill="#2F2E43"/>
<path d="M102.061 27.4571L100.845 30.491C100.845 30.491 99.7242 34.7377 101.038 36.4318C102.35 38.123 102.641 51.0909 101.232 52.0475C99.8224 53.0069 119.095 43.1679 119.095 43.1679C119.095 43.1679 111.572 25.763 111.445 25.6997C111.318 25.6363 106.387 24.1035 106.387 24.1035L102.067 27.4571H102.061Z" fill="#2F2E43"/>
<path d="M114.61 42.4536L108.152 44.5712V35.2998H114.012L114.61 42.4536Z" fill="#F3A3A6"/>
<path d="M94.8721 95.0939C94.5226 97.2173 93.1016 98.7414 91.7008 98.4965C90.3 98.2516 89.4451 96.3299 89.7975 94.2036C89.9245 93.3537 90.2625 92.547 90.7823 91.8584L92.3824 82.8779L96.7378 83.7884L94.6959 92.5441C94.9645 93.3738 95.0251 94.2468 94.8721 95.0939Z" fill="#F3A3A6"/>
<path d="M112.184 146.257H106.136V154.817H112.184V146.257Z" fill="#F3A3A6"/>
<path d="M100.244 160C99.6087 160 99.0427 159.986 98.6152 159.946C97.0094 159.799 95.4757 158.614 94.7046 157.923C94.358 157.612 94.2482 157.116 94.4273 156.69C94.5573 156.384 94.8143 156.154 95.1349 156.065L99.3806 154.855L106.255 150.228L106.333 150.366C106.361 150.418 107.037 151.631 107.263 152.449C107.349 152.76 107.326 153.019 107.196 153.221C107.107 153.359 106.979 153.44 106.878 153.486C107.003 153.616 107.392 153.881 108.594 154.071C110.347 154.348 110.717 152.535 110.731 152.46L110.743 152.4L110.795 152.365C111.629 151.829 112.144 151.585 112.32 151.636C112.43 151.668 112.614 151.726 113.114 156.661C113.163 156.817 113.513 157.952 113.276 159.038C113.019 160.219 107.843 159.813 106.806 159.721C106.777 159.724 102.901 160 100.247 160H100.244Z" fill="#2F2E43"/>
<path d="M129.406 139.533L124.274 142.726L128.815 149.989L133.946 146.796L129.406 139.533Z" fill="#F3A3A6"/>
<path d="M122.59 158.824C121.88 158.824 121.227 158.738 120.762 158.657C120.306 158.576 119.948 158.213 119.873 157.758C119.821 157.43 119.916 157.098 120.141 156.853L123.102 153.586L126.481 146.032L126.619 146.107C126.671 146.136 127.887 146.807 128.514 147.383C128.754 147.602 128.872 147.835 128.866 148.075C128.864 148.242 128.8 148.374 128.736 148.469C128.91 148.515 129.38 148.533 130.501 148.06C132.136 147.372 131.489 145.637 131.46 145.565L131.437 145.508L131.463 145.453C131.887 144.557 132.191 144.078 132.37 144.03C132.482 143.998 132.667 143.949 135.709 147.876C135.833 147.98 136.731 148.76 137.106 149.806C137.514 150.944 132.907 153.333 131.98 153.799C131.951 153.822 127.131 157.317 125.149 158.311C124.364 158.706 123.434 158.827 122.587 158.827L122.59 158.824Z" fill="#2F2E43"/>
<path d="M116.638 74.6758H99.704L98.1675 90.3894L104.891 148.45H113.536L110.078 114.916L124.101 145.191L131.783 139.826L120.834 111.563C120.834 111.563 124.745 86.9407 121.672 80.8068C118.599 74.6758 116.638 74.6758 116.638 74.6758Z" fill="#2F2E43"/>
<path d="M125.06 75.635H95.6692L106.234 40.9521H117.952L125.06 75.635Z" fill="#D7D7D8"/>
<path d="M108.083 40.9576C108.083 40.9576 100.784 40.7645 100.016 42.6834C99.2477 44.5993 90.2191 90.2045 90.2191 90.2045H96.1746L108.086 40.9576H108.083Z" fill="#D7D7D8"/>
<path d="M108.952 37.8666C112.506 37.8666 115.387 34.9926 115.387 31.4475C115.387 27.9023 112.506 25.0283 108.952 25.0283C105.398 25.0283 102.517 27.9023 102.517 31.4475C102.517 34.9926 105.398 37.8666 108.952 37.8666Z" fill="#F3A3A6"/>
<path d="M110.2 21.4732C110.2 21.4732 117.946 19.4939 120.317 29.7766C120.317 29.7766 120.381 32.459 121.727 33.5451C123.073 34.6313 122.622 40.2524 122.622 40.2524C122.622 40.2524 125.184 44.4675 123.006 46.3834C123.006 46.3834 122.044 50.2787 123.454 52.5144C124.863 54.7502 130.178 67.0468 121.34 67.7959C121.34 67.7959 116.857 65.0963 118.971 57.0493C121.086 49.0023 118.714 44.5568 118.714 44.5568C118.714 44.5568 111.927 42.1021 112.311 36.8642C112.695 31.6263 107.956 26.4518 107.638 26.5181C107.32 26.5844 103.987 24.6655 102.514 30.543L100.937 30.2751C100.937 30.2751 100.273 20.3871 110.2 21.4732Z" fill="#2F2E43"/>
<path d="M130.077 94.0626C130.507 96.1716 129.718 98.0991 128.321 98.367C126.923 98.635 125.441 97.1397 125.014 95.0307C124.832 94.1894 124.86 93.3193 125.097 92.4895L123.396 83.5264L127.792 82.832L129.002 91.7405C129.548 92.4204 129.915 93.2156 130.077 94.0626Z" fill="#F3A3A6"/>
<path d="M112.834 40.9983C112.834 40.9983 119.263 40.1858 120.031 42.1017C120.8 44.0177 129.828 89.6229 129.828 89.6229H123.873L112.834 40.9983Z" fill="#D7D7D8"/>
<path d="M110.884 101.6C125.382 101.6 137.135 89.8754 137.135 75.413C137.135 60.9506 125.382 49.2266 110.884 49.2266C96.3863 49.2266 84.6333 60.9506 84.6333 75.413C84.6333 89.8754 96.3863 101.6 110.884 101.6Z" fill="url(#paint0_linear_2644_4401)"/>
<path d="M114.96 61.9929C113.178 67.9396 111.396 73.8862 109.611 79.8328C108.626 78.1733 107.641 76.5138 106.659 74.8542C105.677 73.1976 103.083 74.7015 104.071 76.3639C105.639 79.0059 107.205 81.6479 108.773 84.2899C109.44 85.4135 111.144 85.16 111.514 83.9326C113.628 76.8854 115.739 69.8353 117.854 62.7881C118.408 60.9413 115.514 60.149 114.962 61.9929H114.96Z" fill="white"/>
<path d="M95.9204 83.4518C97.0526 85.2841 96.9804 87.3643 95.7616 88.0961C94.5428 88.8279 92.6366 87.9348 91.5044 86.1024C91.0423 85.3763 90.7679 84.5466 90.7043 83.688L86.011 75.86L89.8985 73.6963L94.1124 81.6424C94.8605 82.0919 95.4814 82.7142 95.9233 83.4518H95.9204Z" fill="#A0616A"/>
<path d="M61.3919 39.569C61.3919 39.569 67.1452 36.5957 68.5287 38.1284C69.9122 39.6641 94.1501 79.3659 94.1501 79.3659L85.1013 82.6388L61.389 39.569H61.3919Z" fill="#D7D7D8"/>
</g>
<defs>
<linearGradient id="paint0_linear_2644_4401" x1="97" y1="53" x2="122.5" y2="102" gradientUnits="userSpaceOnUse">
<stop stop-color="#22DCD9"/>
<stop offset="0.5" stop-color="#5456AB"/>
<stop offset="0.75" stop-color="#97238A"/>
<stop offset="1" stop-color="#F73E94"/>
</linearGradient>
<clipPath id="clip0_2644_4401">
<rect width="196" height="160" fill="white"/>
</clipPath>
</defs>
</svg>
