<svg width="191" height="160" viewBox="0 0 191 160" fill="none" xmlns="http://www.w3.org/2000/svg">
<g clip-path="url(#clip0_2049_4535)">
<path d="M129.518 10.3755H60.9065C59.5306 10.3755 58.2111 9.82891 57.2382 8.85602C56.2653 7.88313 55.7188 6.56361 55.7188 5.18774C55.7188 3.81186 56.2653 2.49234 57.2382 1.51945C58.2111 0.546562 59.5306 0 60.9065 0H129.518C130.894 0 132.214 0.546562 133.187 1.51945C134.16 2.49234 134.706 3.81186 134.706 5.18774C134.706 6.56361 134.16 7.88313 133.187 8.85602C132.214 9.82891 130.894 10.3755 129.518 10.3755Z" fill="url(#paint0_linear_2049_4535)"/>
<path d="M189.62 18.6711H0.806069C0.590665 18.6663 0.385685 18.5774 0.235024 18.4234C0.0843642 18.2694 0 18.0625 0 17.847C0 17.6315 0.0843642 17.4247 0.235024 17.2706C0.385685 17.1166 0.590665 17.0277 0.806069 17.0229H189.62C189.835 17.0277 190.04 17.1166 190.191 17.2706C190.341 17.4247 190.426 17.6315 190.426 17.847C190.426 18.0625 190.341 18.2694 190.191 18.4234C190.04 18.5774 189.835 18.6663 189.62 18.6711Z" fill="#E6E6E6"/>
<path d="M10.2356 8.12966C11.7988 8.12966 13.066 6.83422 13.066 5.23622C13.066 3.63821 11.7988 2.34277 10.2356 2.34277C8.67247 2.34277 7.40527 3.63821 7.40527 5.23622C7.40527 6.83422 8.67247 8.12966 10.2356 8.12966Z" fill="#3F3D56"/>
<path d="M20.013 8.12966C21.5762 8.12966 22.8433 6.83422 22.8433 5.23622C22.8433 3.63821 21.5762 2.34277 20.013 2.34277C18.4498 2.34277 17.1826 3.63821 17.1826 5.23622C17.1826 6.83422 18.4498 8.12966 20.013 8.12966Z" fill="#3F3D56"/>
<path d="M29.7903 8.12966C31.3535 8.12966 32.6207 6.83422 32.6207 5.23622C32.6207 3.63821 31.3535 2.34277 29.7903 2.34277C28.2272 2.34277 26.96 3.63821 26.96 5.23622C26.96 6.83422 28.2272 8.12966 29.7903 8.12966Z" fill="#3F3D56"/>
<path d="M40.9398 7.52316C40.8952 7.52322 40.8511 7.51435 40.81 7.49705C40.7689 7.47976 40.7317 7.45441 40.7006 7.42249L38.7908 5.47023C38.7296 5.40771 38.6953 5.3237 38.6953 5.23621C38.6953 5.14872 38.7296 5.06471 38.7908 5.00219L40.7006 3.05008C40.7628 2.9876 40.8473 2.95223 40.9355 2.95167C41.0237 2.95111 41.1086 2.9854 41.1717 3.04709C41.2347 3.10878 41.2709 3.19287 41.2723 3.28108C41.2737 3.3693 41.2402 3.45449 41.1791 3.51813L39.4982 5.23621L41.1791 6.95445C41.2251 7.00155 41.2563 7.06119 41.2686 7.12591C41.2809 7.19062 41.2739 7.25753 41.2483 7.31826C41.2228 7.37898 41.1799 7.43081 41.125 7.46727C41.0701 7.50372 41.0057 7.52316 40.9398 7.52316Z" fill="#3F3D56"/>
<path d="M44.1491 7.52317C44.0832 7.52316 44.0188 7.50372 43.964 7.46727C43.9091 7.43082 43.8662 7.37898 43.8406 7.31826C43.8151 7.25753 43.808 7.19063 43.8204 7.12591C43.8327 7.06119 43.8638 7.00155 43.9099 6.95445L45.5905 5.23621L43.9099 3.51813C43.8488 3.45449 43.8153 3.3693 43.8167 3.28108C43.8181 3.19287 43.8542 3.10878 43.9173 3.04709C43.9804 2.9854 44.0652 2.95111 44.1534 2.95167C44.2417 2.95223 44.3261 2.9876 44.3884 3.05008L46.298 5.00219C46.3592 5.06471 46.3935 5.14872 46.3935 5.23621C46.3935 5.3237 46.3592 5.40771 46.298 5.47023L44.3884 7.4225C44.3572 7.45441 44.32 7.47976 44.2789 7.49705C44.2378 7.51435 44.1937 7.52322 44.1491 7.52317Z" fill="#E6E6E6"/>
<path d="M169.96 2.67773C169.765 2.67797 169.578 2.75538 169.441 2.89296C169.303 3.03055 169.226 3.21709 169.226 3.41167V6.96419C169.226 7.15877 169.303 7.34531 169.441 7.48289C169.578 7.62048 169.765 7.69789 169.96 7.69812H173.512C173.707 7.69789 173.893 7.62048 174.031 7.48289C174.168 7.34531 174.246 7.15877 174.246 6.96419V3.41167C174.246 3.21709 174.168 3.03055 174.031 2.89296C173.893 2.75538 173.707 2.67797 173.512 2.67773H169.96Z" fill="#E6E6E6"/>
<path d="M161.257 2.67773C161.063 2.67797 160.876 2.75538 160.739 2.89296C160.601 3.03055 160.524 3.21709 160.523 3.41167V6.96419C160.524 7.15877 160.601 7.34531 160.739 7.48289C160.876 7.62048 161.063 7.69789 161.257 7.69812H164.81C165.004 7.69789 165.191 7.62048 165.329 7.48289C165.466 7.34531 165.544 7.15877 165.544 6.96419V3.41167C165.544 3.21709 165.466 3.03055 165.329 2.89296C165.191 2.75538 165.004 2.67797 164.81 2.67773H161.257Z" fill="#E6E6E6"/>
<path d="M178.16 2.84473C177.965 2.84497 177.779 2.92237 177.641 3.05996C177.503 3.19754 177.426 3.38408 177.426 3.57866V7.13118C177.426 7.32576 177.503 7.5123 177.641 7.64989C177.779 7.78748 177.965 7.86488 178.16 7.86512H181.712C181.907 7.86488 182.093 7.78748 182.231 7.64989C182.369 7.5123 182.446 7.32576 182.446 7.13118V3.57866C182.446 3.38408 182.369 3.19754 182.231 3.05996C182.093 2.92237 181.907 2.84497 181.712 2.84473H178.16Z" fill="#E6E6E6"/>
<path d="M137.552 77.9834H52.8747C50.8338 77.9812 48.8771 77.1694 47.434 75.7262C45.9908 74.2831 45.1791 72.3264 45.1768 70.2855V38.8244C45.1791 36.7835 45.9909 34.8268 47.434 33.3837C48.8771 31.9406 50.8338 31.1288 52.8747 31.1265H137.552C139.593 31.1288 141.55 31.9406 142.993 33.3837C144.436 34.8268 145.248 36.7835 145.25 38.8244V70.2855C145.248 72.3264 144.436 74.2831 142.993 75.7262C141.55 77.1694 139.593 77.9812 137.552 77.9834Z" fill="#F2F2F2"/>
<path d="M91.3456 5.98579H62.9604C62.7233 5.98579 62.4959 5.8916 62.3283 5.72394C62.1606 5.55628 62.0664 5.32888 62.0664 5.09177C62.0664 4.85466 62.1606 4.62727 62.3283 4.45961C62.4959 4.29194 62.7233 4.19775 62.9604 4.19775H91.3456C91.5827 4.19775 91.8101 4.29194 91.9778 4.45961C92.1454 4.62727 92.2396 4.85466 92.2396 5.09177C92.2396 5.32888 92.1454 5.55628 91.9778 5.72394C91.8101 5.8916 91.5827 5.98579 91.3456 5.98579Z" fill="white"/>
<path d="M61.5102 160L61.2914 159.919C57.6298 158.538 54.3129 156.376 51.5712 153.583C48.8295 150.791 46.7288 147.435 45.4151 143.748C44.6946 141.675 44.2382 139.519 44.0564 137.331L44.0386 137.122L44.2447 137.159C46.7059 137.601 49.2896 137.845 50.4408 137.941L43.9824 133.667L43.9941 133.445C44.0432 132.425 44.3966 131.444 45.0087 130.627C45.6208 129.809 46.4636 129.194 47.4284 128.861C48.4025 128.501 49.4619 128.441 50.4702 128.689C51.4785 128.937 52.3896 129.481 53.086 130.251C53.728 130.948 54.4069 131.649 55.0632 132.328C57.3189 134.659 59.6515 137.07 61.1263 139.915C62.2216 142.081 62.8194 144.463 62.8761 146.889C62.9328 149.314 62.4469 151.722 61.454 153.936L61.5102 160Z" fill="#F2F2F2"/>
<path d="M163.511 159.416L33.0725 159.519C33.0201 159.519 32.9681 159.508 32.9197 159.489C32.8712 159.469 32.8271 159.439 32.79 159.402C32.7528 159.365 32.7234 159.321 32.7033 159.273C32.6832 159.224 32.6729 159.172 32.6729 159.12C32.6729 159.068 32.6832 159.016 32.7033 158.967C32.7234 158.919 32.7528 158.875 32.79 158.838C32.8271 158.801 32.8712 158.771 32.9197 158.752C32.9681 158.732 33.0201 158.721 33.0725 158.722L163.511 158.619C163.563 158.619 163.615 158.629 163.664 158.649C163.712 158.669 163.756 158.698 163.793 158.735C163.831 158.772 163.86 158.816 163.88 158.864C163.9 158.913 163.911 158.965 163.911 159.017C163.911 159.07 163.9 159.121 163.88 159.17C163.86 159.218 163.831 159.262 163.793 159.299C163.756 159.336 163.712 159.366 163.664 159.386C163.615 159.406 163.563 159.416 163.511 159.416Z" fill="#CACACA"/>
<path d="M135.685 61.6325L134.333 40.6776C134.273 39.79 133.866 38.9615 133.201 38.371C132.535 37.7805 131.664 37.4752 130.776 37.5211C130.316 37.5449 129.866 37.662 129.454 37.8653C129.041 38.0686 128.673 38.3539 128.374 38.7038C128.075 39.0536 127.851 39.4607 127.714 39.9002C127.578 40.3397 127.532 40.8024 127.58 41.2601L129.653 62.9841L130.355 76.2374C129.809 76.5031 129.358 76.9304 129.063 77.4614C128.768 77.9924 128.644 78.6013 128.707 79.2053C128.771 79.8093 129.018 80.3792 129.417 80.8376C129.815 81.296 130.345 81.6206 130.935 81.7673C131.524 81.914 132.144 81.8758 132.711 81.6577C133.278 81.4397 133.764 81.0524 134.103 80.5486C134.442 80.0447 134.618 79.4487 134.606 78.8414C134.595 78.2342 134.397 77.6452 134.039 77.1545L135.685 61.6325Z" fill="#A0616A"/>
<path d="M136.533 44.8236C136.681 44.6623 136.772 44.4568 136.792 44.2388C136.811 44.0209 136.759 43.8024 136.643 43.6171C136.503 43.3857 136.44 43.1165 136.461 42.8473C136.466 42.7953 136.474 42.7436 136.485 42.6927C136.562 42.3873 136.563 42.068 136.49 41.7619C136.416 41.4558 136.27 41.1719 136.064 40.9345C135.372 40.1626 135.009 38.9695 134.832 37.9007C134.638 36.7311 134.505 35.5335 134.037 34.4443C133.362 32.8731 131.834 31.5062 129.843 32.2584C129.001 32.5915 128.3 33.2045 127.857 33.9943C126.91 35.6332 126.969 37.5714 127.043 39.4251L126.655 38.7055C126.771 40.7288 126.478 42.7546 125.792 44.6616C126.238 44.5583 126.577 45.1504 126.448 45.5896C126.318 46.0288 125.927 46.3284 125.594 46.6427C125.174 47.0388 124.785 47.6187 125.213 48.1855C125.319 48.3182 125.452 48.4275 125.602 48.5066C125.752 48.5857 125.917 48.6328 126.087 48.645C129.284 48.9442 132.509 48.5789 135.558 47.5721C136.235 47.3481 136.959 47.0448 137.293 46.4146C137.627 45.7844 137.245 44.7881 136.533 44.8236Z" fill="#6C63FF"/>
<path d="M112.862 151.698H109.168L107.41 137.449H112.863L112.862 151.698Z" fill="#A0616A"/>
<path d="M114.812 158.098H112.163L111.69 155.597L110.479 158.098H103.453C103.116 158.098 102.788 157.99 102.517 157.791C102.245 157.591 102.045 157.31 101.945 156.989C101.844 156.667 101.85 156.322 101.959 156.004C102.069 155.685 102.278 155.41 102.555 155.219L108.166 151.344V148.815L114.068 149.167L114.812 158.098Z" fill="#2F2E41"/>
<path d="M132.724 148.444L129.284 149.789L122.459 137.158L127.537 135.173L132.724 148.444Z" fill="#A0616A"/>
<path d="M136.871 153.696L134.403 154.66L133.052 152.503L132.835 155.273L126.29 157.831C125.977 157.954 125.632 157.973 125.307 157.886C124.981 157.799 124.692 157.61 124.482 157.347C124.271 157.084 124.151 156.76 124.137 156.424C124.123 156.087 124.218 155.755 124.406 155.476L128.222 149.824L127.301 147.469L132.926 145.648L136.871 153.696Z" fill="#2F2E41"/>
<path d="M130.401 59.5752H113.165C113.165 59.5752 106.675 105.929 106.656 106.013C106.638 106.097 110.319 107.436 108.646 109.11L106.972 110.783C105.634 112.122 107.966 116.697 107.966 116.697L105.299 143.918H116.315L121.699 87.6894L114.415 114.646L123.905 143.918L130.735 139.901L132.074 136.22L129.415 133.56C129.415 133.56 128.727 129.563 128.727 127.202C128.727 124.84 130.735 126.848 128.727 124.84C127.859 123.971 125.412 113.311 125.412 113.311L133.413 87.6894L135.319 76.2522C135.81 73.3042 135.369 70.2765 134.057 67.5909C132.997 65.4173 131.662 62.5705 130.401 59.5752Z" fill="#2F2E41"/>
<path d="M131.405 31.1264L130.26 27.6901C130.005 26.9255 129.527 26.2545 128.889 25.7632C128.25 25.2719 127.479 24.9828 126.674 24.9328L125.656 24.8696C124.751 24.8134 123.853 25.0632 123.107 25.579C122.36 26.0947 121.809 26.8464 121.542 27.7133C121.307 28.4802 120.849 29.1596 120.226 29.6646C119.603 30.1696 118.843 30.4771 118.045 30.5477C115.07 30.8012 110.654 31.7007 110.654 34.808C110.654 39.4937 115.675 51.8773 114.671 52.8814C113.667 53.8855 111.324 58.023 112.662 59.2406C113.011 59.5578 112.73 61.0834 112.618 62.1763C112.416 64.1555 126.385 59.7798 130.401 60.914C134.417 62.0483 132.409 53.5508 133.079 52.8814C133.707 52.1154 134.267 51.2959 134.752 50.4323C134.99 50.0348 135.157 49.5994 135.246 49.1452L136.399 43.3108C136.418 43.2137 136.433 43.1185 136.445 43.0203C136.598 41.7715 137.489 33.3692 134.083 32.1305C130.401 30.7917 131.405 31.1264 131.405 31.1264Z" fill="#3F3D56"/>
<path d="M93.002 22.6956L108.267 37.1151C108.915 37.724 109.777 38.0536 110.667 38.0327C111.556 38.0118 112.402 37.642 113.021 37.0031C113.341 36.6726 113.591 36.2804 113.755 35.8503C113.918 35.4202 113.993 34.9612 113.973 34.5014C113.954 34.0416 113.841 33.5905 113.642 33.1757C113.442 32.7609 113.161 32.3911 112.814 32.0888L96.4978 17.5966L86.955 8.37273C87.1738 7.8062 87.213 7.18603 87.0671 6.59647C86.9213 6.00691 86.5974 5.47655 86.1397 5.07743C85.6819 4.67832 85.1123 4.42981 84.5084 4.36567C83.9044 4.30152 83.2954 4.42485 82.764 4.7189C82.2326 5.01295 81.8046 5.46346 81.5381 6.00923C81.2717 6.555 81.1797 7.16956 81.2747 7.76942C81.3697 8.36928 81.647 8.92536 82.0691 9.3621C82.4911 9.79885 83.0373 10.0951 83.6336 10.2106L93.002 22.6956Z" fill="#A0616A"/>
<path d="M103.831 35.5794C103.833 35.7982 103.907 36.0105 104.041 36.1835C104.175 36.3566 104.362 36.4808 104.573 36.5373C104.833 36.6118 105.063 36.7656 105.231 36.977C105.263 37.0183 105.292 37.0616 105.318 37.1067C105.47 37.3823 105.687 37.6172 105.949 37.7913C106.211 37.9654 106.512 38.0736 106.825 38.1067C107.856 38.201 108.935 38.827 109.793 39.4888C110.731 40.2131 111.645 40.999 112.729 41.4775C114.294 42.1678 116.344 42.1277 117.289 40.2208C117.678 39.4035 117.774 38.4769 117.56 37.5973C117.137 35.7521 115.774 34.3733 114.457 33.0667L115.231 33.3293C113.768 31.9273 112.602 30.2441 111.805 28.3809C111.549 28.7604 110.897 28.5582 110.693 28.1484C110.489 27.7385 110.571 27.2528 110.601 26.7959C110.638 26.2199 110.528 25.5304 109.829 25.4068C109.661 25.382 109.489 25.3921 109.325 25.4367C109.161 25.4812 109.008 25.5592 108.876 25.6657C106.331 27.6247 104.22 30.0887 102.673 32.903C102.33 33.5283 102.007 34.2432 102.192 34.932C102.376 35.6209 103.334 36.0906 103.831 35.5794Z" fill="#3F3D56"/>
<path d="M125.716 24.0981C129.782 24.0981 133.079 20.8014 133.079 16.7348C133.079 12.6682 129.782 9.37158 125.716 9.37158C121.649 9.37158 118.353 12.6682 118.353 16.7348C118.353 20.8014 121.649 24.0981 125.716 24.0981Z" fill="#A0616A"/>
<path d="M136.874 23.7396C136.492 22.9665 135.278 23.0569 134.658 23.6593C134.042 24.2618 133.818 25.1454 133.47 25.9319C133.122 26.7218 132.496 27.5217 131.636 27.5551C130.819 27.5853 130.16 26.9226 129.397 26.6347C128.537 26.3101 127.593 26.4808 126.723 26.8155C126.703 26.7318 126.683 26.6481 126.656 26.5678C126.529 26.1361 126.348 25.7222 126.117 25.3361C126.116 25.7635 126.048 26.1881 125.916 26.5946C125.833 26.852 125.723 27.0999 125.588 27.3342C124.755 27.7559 123.931 28.2078 123.014 28.3584C121.903 28.5458 120.574 28.1308 120.156 27.0799C119.848 26.3034 120.123 25.3997 120.591 24.7002C121.06 24.004 121.702 23.4451 122.228 22.7925C122.742 22.1834 123.128 21.4765 123.362 20.7144C123.596 19.9523 123.674 19.1506 123.59 18.3578C123.497 17.6626 123.241 16.9995 122.842 16.4228C122.442 15.8462 121.912 15.3726 121.294 15.041C120.647 15.2745 119.975 15.4362 119.293 15.5229C119.166 15.0912 118.985 14.6773 118.754 14.2913C118.753 14.7186 118.685 15.1432 118.553 15.5497C117.916 15.5403 117.304 15.2987 116.833 14.8703C115.828 13.9198 115.922 12.2597 116.498 11.0012C116.936 10.048 117.593 9.21232 118.417 8.56298C119.241 7.91364 120.207 7.46921 121.236 7.26627C122.265 7.06333 123.328 7.10768 124.336 7.39568C125.345 7.68367 126.271 8.20707 127.037 8.92279C128.138 7.48361 130.347 7.25602 131.987 8.03251C133.624 8.81234 134.762 10.3653 135.569 11.9886C137.368 15.6315 137.83 19.7907 136.874 23.7396Z" fill="#2F2E41"/>
</g>
<defs>
<linearGradient id="paint0_linear_2049_4535" x1="55.7188" y1="5.18774" x2="134.706" y2="5.18774" gradientUnits="userSpaceOnUse">
<stop stop-color="#F73E94"/>
<stop offset="0.333333" stop-color="#97238A"/>
<stop offset="0.666667" stop-color="#5456AB"/>
<stop offset="1" stop-color="#22DCD9"/>
</linearGradient>
<clipPath id="clip0_2049_4535">
<rect width="190.426" height="160" fill="white"/>
</clipPath>
</defs>
</svg>
