<svg width="260" height="133" viewBox="0 0 260 133" fill="none" xmlns="http://www.w3.org/2000/svg">
<g clip-path="url(#clip0_2644_4313)">
<path d="M223.167 115.892H218.346V131.884H223.167V115.892Z" fill="#D6D6E3"/>
<path d="M190.799 97.2451L186.667 100.008L185.29 104.151L238.318 122.799L240.384 115.202L190.799 97.2451Z" fill="#D6D6E3"/>
<path d="M205.606 14.714L186.667 100.007L240.384 115.201L255.879 4.35449L205.606 14.714Z" fill="#F2F2F2"/>
<path d="M253.161 6.96925L204.251 16.6499C203.066 16.8845 202.007 15.87 202.187 14.6721L202.415 13.1523C202.523 12.4302 203.067 11.8514 203.779 11.7001L253.242 1.18984C254.562 0.909381 255.686 2.1724 255.26 3.45597L254.479 5.80538C254.28 6.40286 253.777 6.8473 253.161 6.96925Z" fill="#D6D6E3"/>
<path d="M203.75 43.2784L203.75 43.8691L228.839 43.8994L228.84 43.3087L203.75 43.2784Z" fill="#6C63FF"/>
<path d="M238.472 29.6925L217.158 31.916L217.219 32.5038L238.533 30.2803L238.472 29.6925Z" fill="#6C63FF"/>
<path d="M150.847 57.666L143.339 83.4031C142.343 86.8208 144.712 90.2988 148.25 90.6093L156.442 91.3285L150.847 57.666Z" fill="url(#paint0_linear_2644_4313)"/>
<path d="M209.935 46.0934V43.4327C209.935 43.4327 227.83 42.2754 229.765 42.9017C229.765 42.9017 230.558 44.2497 226.535 44.4648C226.535 44.4648 214.014 46.355 209.935 46.0934Z" fill="#090814"/>
<path d="M218.991 52.9188L208.949 69.5744L204.22 63.5668L213.461 49.0575C213.133 47.3694 213.531 45.4101 214.705 43.7181C216.761 40.7575 220.408 39.7405 222.851 41.4465C225.294 43.1526 225.609 46.9356 223.553 49.8962C222.378 51.5882 220.684 52.6419 218.991 52.9188Z" fill="#FFB6B6"/>
<path d="M156.382 93.2949L155.176 97.4081L155.217 101.579C155.217 101.579 147.285 111.146 150.207 131.84L187.373 131.372L182.946 98.0737L156.382 93.2949Z" fill="#090814"/>
<path d="M160.565 36.2961C160.565 30.4587 165.284 25.7266 171.105 25.7266C176.926 25.7266 181.645 30.4587 181.645 36.2961C181.645 41.0302 178.541 45.0369 174.263 46.3825L172.691 47.6522L175.512 57.554L172.225 59.8861L161.838 51.2058C161.838 51.2058 164.082 48.3396 165.286 45.1076C162.441 43.2148 160.565 39.9758 160.565 36.2961Z" fill="#FFB6B6"/>
<path d="M211.371 52.3893C207.65 52.3324 200.772 64.3078 200.772 64.3078L195.121 62.3038L183.5 58.1779L174.593 54.5017L174.632 54.7717C174.597 54.687 174.559 54.6015 174.517 54.5152C173.581 52.5804 170.861 50.3039 163.139 50.7551L159.503 53.6331L159.009 54.0274C159.009 54.0274 156.714 53.8282 154.428 54.7428C152.775 55.4095 151.121 56.6535 150.338 58.9786C149.933 60.1778 149.933 62.6574 150.176 65.8077C151.056 77.214 155.155 101.462 155.155 101.462L181.035 98.0267L182.944 98.0715C182.944 98.0715 183.171 95.4578 183.374 92.035C183.5 90.0269 183.613 87.7464 183.678 85.5513C183.723 83.9416 183.735 82.3807 183.706 81.0067C183.702 80.9213 183.702 80.8359 183.698 80.7505C183.621 78.2425 183.37 76.4255 182.831 76.2263C182.831 76.2263 184.505 76.1815 186.921 76.0921C192.758 75.8726 202.932 75.3807 204.383 74.5881C206.434 73.4702 217.188 58.4664 217.188 58.4664C217.188 58.4664 215.096 52.4503 211.371 52.3893Z" fill="url(#paint1_linear_2644_4313)"/>
<path d="M181.956 37.0767C181.16 33.1705 180.778 31.1696 177.884 28.4065C177.197 28.504 178.065 32.0756 174.279 37.051C168.776 44.2835 169.324 37.6521 167.697 39.8801C167.344 40.3638 167.267 42.1088 167.383 42.7092C167.842 45.0814 170.557 42.7651 167.697 50.8822C167.271 51.5135 166.77 51.36 166.13 51.3537C166.08 51.3532 166.405 51.2911 165.189 51.0394C164.609 50.9192 163.797 50.7773 162.824 50.6129C151.516 48.7024 147.523 34.3935 156.263 26.9492C158.252 25.2554 160.203 23.9718 161.898 23.3769C167.001 21.5854 178.63 22.7499 180.862 28.5636C181.927 31.3369 182.283 34.1785 181.956 37.0767Z" fill="#010102"/>
<path d="M158.666 60.045C163.12 60.045 166.731 56.4239 166.731 51.9571C166.731 47.4902 163.12 43.8691 158.666 43.8691C154.212 43.8691 150.601 47.4902 150.601 51.9571C150.601 56.4239 154.212 60.045 158.666 60.045Z" fill="#010102"/>
<path d="M44.7814 132.211H49.6022V114.742H44.7814V132.211Z" fill="#D6D6E3"/>
<path d="M77.1492 96.0947L81.2813 98.8573L82.6587 103.001L29.6305 121.648L27.5645 114.051L77.1492 96.0947Z" fill="#D6D6E3"/>
<path d="M62.3427 13.5636L81.2813 98.8569L27.5645 114.051L12.0692 3.2041L62.3427 13.5636Z" fill="#F2F2F2"/>
<path d="M14.7878 5.81886L63.6974 15.4995C64.8826 15.7341 65.9413 14.7196 65.7617 13.5217L65.5337 12.0019C65.4254 11.2798 64.8816 10.701 64.1693 10.5497L14.7067 0.0394467C13.3868 -0.24101 12.2622 1.02201 12.6888 2.30558L13.4697 4.65499C13.6683 5.25246 14.1716 5.69691 14.7878 5.81886Z" fill="#D6D6E3"/>
<path d="M52.4514 36.1251C51.1078 36.1251 49.7609 35.5574 48.5793 34.4767C47.1518 33.1716 46.1337 31.2676 45.7122 29.1157C44.8359 24.6413 46.8454 20.4649 50.1917 19.8055C51.8297 19.4831 53.5312 20.0363 54.9829 21.3642C56.4103 22.6693 57.4285 24.5732 57.85 26.7252C58.7263 31.1996 56.7168 35.376 53.3704 36.0354C53.0656 36.0954 52.7585 36.1251 52.4514 36.1251ZM51.1072 20.3071C50.8387 20.3071 50.571 20.3328 50.3054 20.3853C47.2775 20.9817 45.4765 24.847 46.2903 29.002C46.6875 31.0303 47.6414 32.8197 48.9762 34.0403C50.2867 35.2387 51.8061 35.7426 53.2568 35.4556C56.2846 34.8592 58.0857 30.9939 57.2719 26.8388C56.8747 24.8106 55.9208 23.0212 54.586 21.8006C53.5155 20.8217 52.305 20.3071 51.1072 20.3071Z" fill="url(#paint2_linear_2644_4313)"/>
<path d="M51.8374 27.5101L51.7247 28.0898L58.0359 29.3229L58.1486 28.7431L51.8374 27.5101Z" fill="#F73E94"/>
<path d="M77.1093 31.5631V28.9025C77.1093 28.9025 59.2143 27.7451 57.2792 28.3714C57.2792 28.3714 56.4858 29.7194 60.5095 29.9345C60.5095 29.9345 73.0302 31.8247 77.1093 31.5631Z" fill="#090814"/>
<path d="M73.6055 32.2821L84.9767 49.4778L77.0935 51.3022L67.4107 35.8488C65.6487 35.3999 63.956 34.1305 62.8709 32.235C60.9721 28.9184 61.6517 24.9523 64.3887 23.3764C67.1257 21.8005 70.8837 23.2117 72.7825 26.5284C73.8677 28.4239 74.1073 30.5298 73.6055 32.2821Z" fill="#FFB6B6"/>
<path d="M130.097 34.8439C130.097 27.2985 123.997 21.1816 116.473 21.1816C108.949 21.1816 102.849 27.2985 102.849 34.8439C102.849 40.9633 106.861 46.1423 112.391 47.8817L114.422 49.5229L110.776 62.3222L115.025 65.3366L128.451 54.1163C128.451 54.1163 125.551 50.4114 123.995 46.2338C127.672 43.7871 130.097 39.6003 130.097 34.8439Z" fill="#FFB6B6"/>
<path d="M91.5946 106.626L107.621 93.6865L110.159 101.39L95.7068 112.483C95.4235 114.284 94.319 116.091 92.5369 117.35C89.4187 119.551 85.4181 119.238 83.6012 116.65C81.7842 114.062 82.8391 110.18 85.9573 107.978C87.7394 106.72 89.8084 106.286 91.5946 106.626Z" fill="#FFB6B6"/>
<path d="M132.933 87.2676L132.949 87.332L96.7156 112.879L91.5532 103.44L108.953 85.6943L132.933 87.2676Z" fill="url(#paint3_linear_2644_4313)"/>
<path d="M134.032 107.426L104.204 114.458L104.799 131.588H137.546L134.032 107.426Z" fill="#090814"/>
<path d="M125.374 49.1231C125.374 49.1231 119.909 50.1184 114.042 53.6426C108.175 57.1669 103.641 72.8743 103.641 72.8743C103.641 72.8743 98.815 110.034 104.128 114.353L134.032 107.426C134.032 107.426 137.927 104.375 139.546 93.7838C141.102 83.6102 134.998 48.3415 125.374 49.1231Z" fill="url(#paint4_linear_2644_4313)"/>
<path d="M120.888 57.2244L99.2529 55.5988L76.3378 37.1006C76.3378 37.1006 66.8088 41.4178 67.7243 43.7013C68.6399 45.9847 79.2631 65.1331 79.2631 65.1331C79.2631 65.1331 110.747 76.7969 114.53 77.2751C118.312 77.7534 120.888 57.2244 120.888 57.2244Z" fill="url(#paint5_linear_2644_4313)"/>
<path d="M121.68 44.9227L125.881 45.3104C126.029 46.1568 131.551 38.9301 131.694 34.4512C131.727 33.4006 132.587 21.1749 120.888 18.3304C109.189 15.4859 99.9294 24.2108 102.151 25.4396C104.373 26.6685 110.469 27.5041 110.469 27.5041C110.469 27.5041 105.91 34.967 111.604 37.4256C111.604 37.4256 111.838 41.1022 113.554 41.2556C115.271 41.4091 119.804 38.8479 120.705 41.9076L121.607 44.9672" fill="#090814"/>
<path d="M61.8368 57.3784L37.4175 59.5752L37.4701 60.1636L61.8894 57.9668L61.8368 57.3784Z" fill="url(#paint6_linear_2644_4313)"/>
<path d="M259.351 133H0.639606C0.258445 132.971 -0.0231776 132.639 0.00150561 132.256C-0.0231776 131.878 0.258445 131.546 0.639606 131.517H259.351C259.687 131.558 259.952 131.824 259.993 132.161C260.047 132.572 259.762 132.946 259.351 133Z" fill="#CCCCCC"/>
</g>
<defs>
<linearGradient id="paint0_linear_2644_4313" x1="149.776" y1="57.666" x2="149.776" y2="91.3285" gradientUnits="userSpaceOnUse">
<stop stop-color="#F73E94"/>
<stop offset="1" stop-color="#97238A"/>
</linearGradient>
<linearGradient id="paint1_linear_2644_4313" x1="168" y1="51" x2="183.599" y2="101.462" gradientUnits="userSpaceOnUse">
<stop stop-color="#F73E94"/>
<stop offset="1" stop-color="#97238A"/>
</linearGradient>
<linearGradient id="paint2_linear_2644_4313" x1="46" y1="22.5" x2="56" y2="34" gradientUnits="userSpaceOnUse">
<stop stop-color="#22DCD9"/>
<stop offset="0.35" stop-color="#5456AB"/>
<stop offset="0.75" stop-color="#97238A"/>
<stop offset="1" stop-color="#F73E94"/>
</linearGradient>
<linearGradient id="paint3_linear_2644_4313" x1="112.251" y1="85.6943" x2="112.251" y2="112.879" gradientUnits="userSpaceOnUse">
<stop stop-color="#22DCD9"/>
<stop offset="1" stop-color="#5456AB"/>
</linearGradient>
<linearGradient id="paint4_linear_2644_4313" x1="120.711" y1="49.1104" x2="120.711" y2="114.353" gradientUnits="userSpaceOnUse">
<stop stop-color="#22DCD9"/>
<stop offset="1" stop-color="#5456AB"/>
</linearGradient>
<linearGradient id="paint5_linear_2644_4313" x1="121" y1="57" x2="100" y2="85" gradientUnits="userSpaceOnUse">
<stop stop-color="#22DCD9"/>
<stop offset="1" stop-color="#5456AB"/>
</linearGradient>
<linearGradient id="paint6_linear_2644_4313" x1="37.4438" y1="59.8694" x2="61.8642" y2="57.6849" gradientUnits="userSpaceOnUse">
<stop stop-color="#22DCD9"/>
<stop offset="0.35" stop-color="#5456AB"/>
<stop offset="0.75" stop-color="#97238A"/>
<stop offset="1" stop-color="#F73E94"/>
</linearGradient>
<clipPath id="clip0_2644_4313">
<rect width="260" height="133" fill="white"/>
</clipPath>
</defs>
</svg>
