<svg width="142" height="160" viewBox="0 0 142 160" fill="none" xmlns="http://www.w3.org/2000/svg">
<g clip-path="url(#clip0_2049_4491)">
<path d="M54.4325 97.991C55.2393 99.5528 55.0876 101.235 54.0938 101.749C53.0999 102.262 51.6401 101.412 50.8334 99.8503C50.4802 99.1666 50.3107 98.4599 50.3151 97.8382L46.9795 91.1775L50.1385 89.6787L53.0915 96.4039C53.601 96.7602 54.0793 97.3074 54.4325 97.991Z" fill="#FFB6B6"/>
<path d="M29.61 158.09L32.454 158.09L33.8069 147.12L29.6094 147.12L29.61 158.09Z" fill="#FFB6B6"/>
<path d="M39.354 158.025C39.4426 158.174 39.4893 158.656 39.4893 158.829C39.4893 159.362 39.0571 159.794 38.524 159.794H29.7164C29.3528 159.794 29.0579 159.5 29.0579 159.136V158.769C29.0579 158.769 28.6222 157.667 29.5193 156.309C29.5193 156.309 30.6342 157.372 32.3001 155.706L32.7914 154.816L36.3475 157.417L38.3186 157.66C38.7499 157.713 39.1322 157.652 39.354 158.025Z" fill="#2F2E41"/>
<path d="M16.2672 158.09L19.1112 158.09L20.4641 147.12L16.2666 147.12L16.2672 158.09Z" fill="#FFB6B6"/>
<path d="M26.0112 158.025C26.0998 158.174 26.1465 158.656 26.1465 158.829C26.1465 159.362 25.7143 159.794 25.1812 159.794H16.3737C16.01 159.794 15.7152 159.5 15.7152 159.136V158.769C15.7152 158.769 15.2795 157.667 16.1765 156.309C16.1765 156.309 17.2914 157.372 18.9573 155.706L19.4486 154.816L23.0047 157.417L24.9758 157.66C25.4071 157.713 25.7894 157.652 26.0112 158.025Z" fill="#2F2E41"/>
<path d="M12.2421 93.3652L11.0439 100.687L14.7714 124.383L15.7033 153.004H20.7357L23.2913 125.98L23.025 108.142L29.0156 153.271H34.2451L34.7399 96.6933L12.2421 93.3652Z" fill="#2F2E41"/>
<path d="M18.4981 55.4253H27.9194L36.0703 60.2177C34.8017 59.8953 33.8217 71.6647 33.7884 82.0641C33.7861 82.7552 33.1014 83.5497 33.1077 84.2246C33.1132 84.8062 33.8086 85.2708 33.8207 85.835C33.832 86.3623 33.8462 86.8808 33.8635 87.3886C33.8778 87.8102 33.0891 88.3687 33.1077 88.7743C33.1315 89.2925 33.9639 89.6523 33.9948 90.1399C34.1848 93.1377 34.5124 95.5127 35.0053 96.6935C35.0053 96.6935 13.9719 102.551 12.3744 93.4986C12.3744 93.4986 12.4656 90.2448 12.4528 85.7516C12.4517 85.353 12.1122 84.9914 12.1092 84.5746C12.1071 84.2648 12.4419 83.9035 12.4387 83.585C12.436 83.3231 12.1128 83.0917 12.1092 82.8247C12.1072 82.6656 12.425 82.4725 12.4226 82.3117C12.2949 73.7676 11.7212 62.9998 9.71191 60.2177L18.4981 55.4253Z" fill="#3F3D56"/>
<path d="M27.8174 55.4253C27.8174 55.4253 33.9223 57.6438 35.8594 59.4112C36.8888 60.3503 43.7922 78.0563 43.7922 78.0563L53.3807 94.7551L48.3966 96.6483L38.201 81.2512L33.6748 71.1338L27.8174 55.4253Z" fill="#3F3D56"/>
<path d="M15.1547 98.623C16.0452 100.139 15.9851 101.827 15.0205 102.393C14.056 102.96 12.5523 102.191 11.6619 100.675C11.2721 100.012 11.0645 99.315 11.0351 98.694L7.34277 92.2242L10.4158 90.5562L13.7295 97.1111C14.2577 97.4392 14.765 97.9596 15.1547 98.623Z" fill="#FFB6B6"/>
<path d="M17.1673 63.6788L14.5048 57.5552C14.5048 57.5552 8.248 59.552 8.248 62.4807C8.248 62.4807 4.52055 84.8454 5.05304 90.4366L8.51425 96.5603L13.4398 92.6997L10.378 85.6442L17.1673 63.6788Z" fill="#3F3D56"/>
<path d="M11.6914 103.463L14.832 97.2261L18.4983 102.285L15.1986 105.48L11.6914 103.463Z" fill="#2F2E41"/>
<path d="M23.1206 53.666C26.4858 53.666 29.2139 50.938 29.2139 47.5728C29.2139 44.2075 26.4858 41.4795 23.1206 41.4795C19.7554 41.4795 17.0273 44.2075 17.0273 47.5728C17.0273 50.938 19.7554 53.666 23.1206 53.666Z" fill="#FFB6B6"/>
<path d="M27.8721 40.7661C26.8132 40.427 26.3122 39.1675 25.3436 38.6215C24.2724 38.0177 22.991 37.6408 21.8098 37.9824C21.0851 38.192 20.4536 38.6553 19.7284 38.8632C19.6016 38.8995 19.4682 38.9246 19.3328 38.9375C18.5528 39.0118 17.8832 39.4796 17.4934 40.1592L17.4832 40.1768C17.2543 40.5684 16.9291 40.8927 16.6404 41.2425C15.5869 42.5191 15.0168 44.1782 15.0285 45.8332C15.0411 47.6123 15.7257 49.3787 16.9152 50.7016L17.2191 50.5615C17.9535 51.1958 18.6878 51.8302 19.4222 52.4645C19.0226 51.0224 18.6192 49.5299 18.8308 48.0486C19.0423 46.5672 20.0385 45.0893 21.5073 44.8032C22.063 44.6951 22.649 44.7605 23.1884 44.5887C23.7278 44.4169 24.2246 43.8624 24.0396 43.3274C24.3735 44.2104 25.6193 44.1582 26.4767 44.5533C28.3958 45.4374 27.6933 44.071 29.3592 45.3708C29.9219 42.2522 32.0773 42.113 27.8721 40.7661Z" fill="#2F2E41"/>
<path d="M0 159.583C0 159.814 0.185497 160 0.416491 160H141.558C141.789 160 141.974 159.814 141.974 159.583C141.974 159.352 141.789 159.167 141.558 159.167H0.416491C0.185497 159.167 0 159.352 0 159.583Z" fill="#CCCCCC"/>
<path d="M123.093 160H61.349C53.8204 160 47.6953 153.875 47.6953 146.346V13.6537C47.6953 6.12505 53.8204 0 61.349 0H123.093C130.622 0 136.747 6.12505 136.747 13.6537V146.346C136.747 153.875 130.622 160 123.093 160Z" fill="#3F3D56"/>
<path d="M136.748 48.8086C136.429 48.8086 136.17 49.0676 136.17 49.3862V67.8699C136.17 68.1885 136.429 68.4476 136.748 68.4476C137.066 68.4476 137.325 68.1885 137.325 67.8699V49.3862C137.325 49.0676 137.066 48.8086 136.748 48.8086Z" fill="#3F3D56"/>
<path d="M135.447 13.6536V146.344C135.447 152.897 130.347 158.257 123.898 158.673H123.895C123.8 158.679 123.704 158.684 123.606 158.687C123.436 158.696 123.265 158.699 123.092 158.699C123.092 158.699 122.457 158.653 121.296 158.566C120.123 158.479 118.416 158.349 116.288 158.179C115.649 158.13 114.976 158.075 114.266 158.017C112.851 157.902 111.297 157.775 109.631 157.63C108.966 157.575 108.279 157.515 107.577 157.454C103.99 157.145 99.9729 156.784 95.7361 156.374C95.0198 156.308 94.2978 156.238 93.57 156.166C93.3794 156.146 93.1859 156.129 92.9924 156.108C89.9714 155.811 48.9951 147.892 48.9951 146.344V13.6536C48.9951 6.82903 54.5258 1.29834 61.3503 1.29834H68.7265C69.9049 1.29834 70.8521 2.21675 70.9532 3.3922C70.9619 3.47019 70.9706 3.54815 70.985 3.62614C71.1987 4.80737 72.2817 5.63047 73.4832 5.63047H110.959C112.161 5.63047 113.244 4.80737 113.457 3.62614C113.472 3.54815 113.48 3.47019 113.489 3.3922C113.59 2.21675 114.537 1.29834 115.716 1.29834H123.092C129.917 1.29834 135.447 6.82903 135.447 13.6536Z" fill="white"/>
<path d="M47.4067 34.9458C47.0882 34.9458 46.8291 35.2049 46.8291 35.5234V40.1444C46.8291 40.4629 47.0882 40.722 47.4067 40.722C47.7253 40.722 47.9843 40.4629 47.9843 40.1444V35.5234C47.9843 35.2049 47.7253 34.9458 47.4067 34.9458Z" fill="#3F3D56"/>
<path d="M47.4067 48.8086C47.0882 48.8086 46.8291 49.0676 46.8291 49.3862V58.3393C46.8291 58.6578 47.0882 58.9169 47.4067 58.9169C47.7253 58.9169 47.9843 58.6578 47.9843 58.3393V49.3862C47.9843 49.0676 47.7253 48.8086 47.4067 48.8086Z" fill="#3F3D56"/>
<path d="M47.4067 61.5161C47.0882 61.5161 46.8291 61.7752 46.8291 62.0937V71.0468C46.8291 71.3654 47.0882 71.6244 47.4067 71.6244C47.7253 71.6244 47.9843 71.3654 47.9843 71.0468V62.0937C47.9843 61.7752 47.7253 61.5161 47.4067 61.5161Z" fill="#3F3D56"/>
<path d="M68.5261 3.32129H57.4797C57.4197 3.32129 57.3711 3.3699 57.3711 3.42985V4.65677C57.3711 4.71673 57.4197 4.76533 57.4797 4.76533H68.5261C68.586 4.76533 68.6346 4.71673 68.6346 4.65677V3.42985C68.6346 3.3699 68.586 3.32129 68.5261 3.32129Z" fill="#E6E6E6"/>
<path d="M117.541 4.76555C118.179 4.76555 118.696 4.24833 118.696 3.61031C118.696 2.97229 118.179 2.45508 117.541 2.45508C116.903 2.45508 116.386 2.97229 116.386 3.61031C116.386 4.24833 116.903 4.76555 117.541 4.76555Z" fill="#E6E6E6"/>
<path d="M120.719 4.76555C121.357 4.76555 121.874 4.24833 121.874 3.61031C121.874 2.97229 121.357 2.45508 120.719 2.45508C120.081 2.45508 119.563 2.97229 119.563 3.61031C119.563 4.24833 120.081 4.76555 120.719 4.76555Z" fill="#E6E6E6"/>
<path d="M123.895 4.76555C124.533 4.76555 125.051 4.24833 125.051 3.61031C125.051 2.97229 124.533 2.45508 123.895 2.45508C123.257 2.45508 122.74 2.97229 122.74 3.61031C122.74 4.24833 123.257 4.76555 123.895 4.76555Z" fill="#E6E6E6"/>
<path d="M116.72 33.3032H67.7231C66.9512 33.3032 66.3232 32.6752 66.3232 31.9033C66.3232 31.1314 66.9512 30.5034 67.7231 30.5034H116.72C117.491 30.5034 118.119 31.1314 118.119 31.9033C118.119 32.6752 117.491 33.3032 116.72 33.3032Z" fill="#E6E6E6"/>
<path d="M124.958 144.07H106.759C105.987 144.07 105.359 143.442 105.359 142.67C105.359 141.899 105.987 141.271 106.759 141.271H124.958C125.73 141.271 126.358 141.899 126.358 142.67C126.358 143.442 125.73 144.07 124.958 144.07Z" fill="#E6E6E6"/>
<path d="M76.3115 144.07H58.1128C57.3409 144.07 56.7129 143.442 56.7129 142.67C56.7129 141.899 57.3409 141.271 58.1128 141.271H76.3115C77.0834 141.271 77.7114 141.899 77.7114 142.67C77.7114 143.442 77.0834 144.07 76.3115 144.07Z" fill="#E6E6E6"/>
<path d="M126.358 37.0649H58.085V37.4149H126.358V37.0649Z" fill="#3F3D56"/>
<path d="M116.72 54.6518H67.7231C66.9512 54.6518 66.3232 54.0238 66.3232 53.2519C66.3232 52.4801 66.9512 51.8521 67.7231 51.8521H116.72C117.491 51.8521 118.119 52.4801 118.119 53.2519C118.119 54.0238 117.491 54.6518 116.72 54.6518Z" fill="#E6E6E6"/>
<path d="M126.358 58.4131H58.085V58.7631H126.358V58.4131Z" fill="#3F3D56"/>
<path d="M116.72 76H67.7231C66.9512 76 66.3232 75.372 66.3232 74.6001C66.3232 73.8282 66.9512 73.2002 67.7231 73.2002H116.72C117.491 73.2002 118.119 73.8282 118.119 74.6001C118.119 75.372 117.491 76 116.72 76Z" fill="#E6E6E6"/>
<path d="M126.358 79.7617H58.085V80.1117H126.358V79.7617Z" fill="#3F3D56"/>
<path d="M126.358 97.9604H58.085V98.3104H126.358V97.9604Z" fill="#3F3D56"/>
<path d="M126.358 116.159H58.085V116.509H126.358V116.159Z" fill="#3F3D56"/>
<path d="M92.7018 128.961C103.912 128.961 113 119.873 113 108.662C113 97.4517 103.912 88.3638 92.7018 88.3638C81.4913 88.3638 72.4033 97.4517 72.4033 108.662C72.4033 119.873 81.4913 128.961 92.7018 128.961Z" fill="url(#paint0_linear_2049_4491)"/>
</g>
<defs>
<linearGradient id="paint0_linear_2049_4491" x1="81.4998" y1="88" x2="109" y2="126" gradientUnits="userSpaceOnUse">
<stop stop-color="#22DCD9"/>
<stop offset="0.333333" stop-color="#5456AB"/>
<stop offset="0.666667" stop-color="#97238A"/>
<stop offset="1" stop-color="#F73E94"/>
</linearGradient>
<clipPath id="clip0_2049_4491">
<rect width="141.974" height="160" fill="white"/>
</clipPath>
</defs>
</svg>
