<svg width="239" height="160" viewBox="0 0 239 160" fill="none" xmlns="http://www.w3.org/2000/svg">
<g clip-path="url(#clip0_2049_4584)">
<path d="M111.546 75.3641H3.27006C2.40307 75.3631 1.57187 75.0183 0.95882 74.4052C0.34577 73.7922 0.000945837 72.961 0 72.094V3.27006C0.000949874 2.40308 0.345775 1.57188 0.958825 0.958829C1.57187 0.34578 2.40308 0.000950683 3.27006 0H111.546C112.413 0.000947457 113.244 0.345777 113.857 0.958829C114.47 1.57188 114.815 2.40309 114.816 3.27007V72.094C114.815 72.961 114.47 73.7922 113.857 74.4052C113.244 75.0183 112.413 75.3631 111.546 75.3641ZM3.27006 0.726668C2.59576 0.727485 1.94932 0.995713 1.47251 1.47251C0.995713 1.94932 0.727489 2.59576 0.726672 3.27006V72.094C0.727488 72.7683 0.995709 73.4147 1.47251 73.8915C1.94931 74.3683 2.59576 74.6366 3.27006 74.6374H111.546C112.22 74.6366 112.867 74.3683 113.343 73.8915C113.82 73.4147 114.088 72.7683 114.089 72.094V3.27006C114.088 2.59576 113.82 1.94932 113.343 1.47251C112.867 0.995713 112.22 0.727484 111.546 0.726668H3.27006Z" fill="#3F3D56"/>
<path d="M66.2226 64.0649C77.3454 64.0649 86.3622 55.0481 86.3622 43.9253C86.3622 32.8025 77.3454 23.7856 66.2226 23.7856C55.0998 23.7856 46.083 32.8025 46.083 43.9253C46.083 55.0481 55.0998 64.0649 66.2226 64.0649Z" fill="#CCCCCC"/>
<path d="M221.344 159.561C222.104 151.367 224.206 143.353 227.564 135.84C228.5 133.749 229.53 131.705 230.654 129.706C230.943 129.192 230.153 128.73 229.864 129.244C225.775 136.524 222.911 144.426 221.385 152.636C220.961 154.928 220.642 157.237 220.428 159.561C220.374 160.148 221.29 160.144 221.344 159.561Z" fill="#E6E6E6"/>
<path d="M232.871 131.174C236.073 131.174 238.669 128.579 238.669 125.377C238.669 122.174 236.073 119.579 232.871 119.579C229.669 119.579 227.073 122.174 227.073 125.377C227.073 128.579 229.669 131.174 232.871 131.174Z" fill="#E6E6E6"/>
<path d="M221.936 159.716C222.43 154.4 223.793 149.201 225.972 144.327C226.579 142.97 227.247 141.644 227.977 140.347C228.013 140.279 228.022 140.2 228.001 140.126C227.98 140.051 227.932 139.988 227.865 139.949C227.799 139.91 227.72 139.899 227.645 139.917C227.57 139.935 227.505 139.982 227.464 140.047C224.811 144.77 222.953 149.897 221.963 155.222C221.688 156.71 221.481 158.207 221.342 159.716C221.307 160.096 221.901 160.094 221.936 159.716Z" fill="#E6E6E6"/>
<path d="M229.415 141.3C231.492 141.3 233.176 139.616 233.176 137.538C233.176 135.461 231.492 133.777 229.415 133.777C227.337 133.777 225.653 135.461 225.653 137.538C225.653 139.616 227.337 141.3 229.415 141.3Z" fill="#E6E6E6"/>
<path d="M221.187 159.361C218.306 154.865 216.183 149.928 214.903 144.745C214.548 143.302 214.259 141.845 214.036 140.374C214.024 140.298 213.982 140.23 213.92 140.184C213.858 140.138 213.78 140.118 213.704 140.129C213.628 140.139 213.558 140.178 213.51 140.239C213.463 140.299 213.44 140.376 213.448 140.453C214.261 145.808 215.949 150.993 218.444 155.801C219.142 157.143 219.9 158.451 220.718 159.726C220.925 160.047 221.392 159.68 221.187 159.361Z" fill="#E6E6E6"/>
<path d="M213.443 141.035C215.52 141.035 217.204 139.351 217.204 137.274C217.204 135.197 215.52 133.513 213.443 133.513C211.366 133.513 209.682 135.197 209.682 137.274C209.682 139.351 211.366 141.035 213.443 141.035Z" fill="#E6E6E6"/>
<path d="M191.096 105.123C191.343 104.748 191.505 104.324 191.571 103.88C191.636 103.437 191.603 102.984 191.475 102.554C191.346 102.124 191.125 101.728 190.827 101.393C190.528 101.058 190.16 100.792 189.748 100.615L190.539 89.7388L185.595 92.5072L185.602 102.411C185.35 103.123 185.367 103.902 185.652 104.602C185.936 105.302 186.467 105.873 187.144 106.207C187.822 106.542 188.598 106.616 189.326 106.416C190.055 106.216 190.685 105.756 191.096 105.123Z" fill="#FFB8B8"/>
<path d="M189.866 62.8451L191.218 97.455L185.725 97.1499L184.505 60.8366L185.663 60.2915C186.104 60.0841 186.589 59.9891 187.076 60.0149C187.562 60.0407 188.034 60.1866 188.451 60.4395C188.867 60.6924 189.214 61.0444 189.461 61.4642C189.708 61.884 189.847 62.3584 189.866 62.8451Z" fill="#2F2E41"/>
<path d="M172.878 156.3H169.137L167.357 141.87H172.879L172.878 156.3Z" fill="#FFB8B8"/>
<path d="M166.466 155.231H173.681V159.774H161.923C161.923 159.177 162.04 158.586 162.269 158.035C162.497 157.484 162.832 156.983 163.253 156.562C163.675 156.14 164.176 155.805 164.727 155.577C165.278 155.348 165.869 155.231 166.466 155.231Z" fill="#2F2E41"/>
<path d="M204.005 151.829L200.611 153.401L192.933 141.054L197.944 138.734L204.005 151.829Z" fill="#FFB8B8"/>
<path d="M197.737 153.553L204.284 150.522L206.193 154.645L195.523 159.584C195.272 159.043 195.131 158.458 195.106 157.862C195.082 157.265 195.175 156.67 195.381 156.11C195.586 155.55 195.9 155.036 196.304 154.598C196.709 154.159 197.195 153.804 197.737 153.553Z" fill="#2F2E41"/>
<path d="M163.996 109.207L167.854 153.237L173.042 152.627L176.876 112.407L198.064 150.796L203.557 149.27C203.557 149.27 185.878 96.3869 184.505 91.9621C182.999 87.1116 171.078 85.2487 171.078 85.2487L170.62 84.791C165.498 91.6867 163.446 100.634 163.996 109.207Z" fill="#2F2E41"/>
<path d="M184.55 56.4712C188.689 56.4712 192.044 53.1156 192.044 48.9763C192.044 44.837 188.689 41.4814 184.55 41.4814C180.41 41.4814 177.055 44.837 177.055 48.9763C177.055 53.1156 180.41 56.4712 184.55 56.4712Z" fill="#FFB8B8"/>
<path d="M189.825 60.4702L184.047 90.5889C184.047 90.5889 176.131 89.0081 173.311 87.104C172.195 86.3473 171.181 85.5661 170.327 84.858C169.366 84.0688 168.445 83.2316 167.568 82.3497C167.568 82.3497 169.595 72.3987 170.318 69.7347C171.158 66.6489 174.039 63.0546 176.282 60.6053C177.096 59.7179 178.136 59.0687 179.29 58.727C180.444 58.3853 181.67 58.3641 182.835 58.6656L189.825 60.4702Z" fill="#2F2E41"/>
<path opacity="0.2" d="M173.311 87.1041C172.195 86.3473 171.182 85.5661 170.327 84.858C170.635 80.299 177.352 70.7539 180.074 70.7539C180.074 70.7539 180.718 85.4653 173.311 87.1041Z" fill="black"/>
<path d="M159.487 99.0773C159.908 98.9244 160.291 98.6809 160.609 98.3639C160.926 98.0469 161.17 97.6642 161.324 97.2427C161.477 96.8212 161.537 96.3711 161.497 95.9242C161.458 95.4773 161.322 95.0445 161.097 94.6562L168.225 86.4038L162.606 85.6724L156.698 93.6211C156.071 94.0416 155.62 94.6777 155.43 95.4088C155.24 96.1399 155.325 96.9151 155.669 97.5877C156.013 98.2602 156.591 98.7833 157.295 99.0579C157.998 99.3324 158.778 99.3393 159.487 99.0773Z" fill="#FFB8B8"/>
<path d="M179.415 59.0129C179.104 59.0193 178.795 59.0547 178.491 59.1186C177.876 59.2592 177.306 59.5503 176.831 59.9657C176.356 60.3811 175.991 60.9079 175.77 61.4988L166.958 79.9083L157.498 89.9784L162.228 93.7928L177.18 80.366L183.154 64.107C183.345 63.5198 183.393 62.8957 183.295 62.2862C183.197 61.6767 182.955 61.0992 182.59 60.6016C182.225 60.1039 181.746 59.7003 181.194 59.424C180.642 59.1478 180.032 59.0069 179.415 59.0129Z" fill="#2F2E41"/>
<path d="M184.993 56.4023C186.06 54.8056 186.902 52.5917 185.727 51.0725C184.568 49.5729 182.281 49.7938 180.506 49.1303C178.033 48.2061 176.599 45.3008 177.046 42.699C177.493 40.0971 179.582 37.9403 182.07 37.0578C184.558 36.1753 187.364 36.4623 189.801 37.4786C192.8 38.7296 195.373 41.1496 196.452 44.2152C197.531 47.2808 196.954 50.9616 194.716 53.3178C192.316 55.844 188.55 56.5172 185.066 56.4764" fill="#2F2E41"/>
<path d="M196.763 47.5654C197.068 49.2715 198.94 50.2405 200.66 50.4535C202.38 50.6665 204.159 50.3934 205.834 50.8407C208.786 51.6294 210.733 54.4684 211.805 57.33C212.876 60.1915 213.352 63.2799 214.744 65.9999C216.136 68.7198 218.836 71.1177 221.881 70.8633C221.285 72.3651 220.239 73.6464 218.888 74.5322C217.536 75.418 215.944 75.8652 214.329 75.8128C212.714 75.7604 211.154 75.211 209.863 74.2395C208.572 73.268 207.612 71.9218 207.114 70.3844C205.995 66.931 207.279 62.8127 205.323 59.7549C204.24 58.0628 202.371 57.0675 200.569 56.1806C198.766 55.2938 196.875 54.3835 195.666 52.7789C194.458 51.1743 194.216 48.6401 195.705 47.292" fill="#2F2E41"/>
<path d="M233.26 159.934H135.522C135.474 159.934 135.426 159.925 135.382 159.907C135.338 159.889 135.298 159.862 135.264 159.828C135.23 159.794 135.203 159.754 135.185 159.71C135.167 159.666 135.157 159.619 135.157 159.571C135.157 159.523 135.167 159.476 135.185 159.432C135.203 159.387 135.23 159.347 135.264 159.314C135.298 159.28 135.338 159.253 135.382 159.235C135.426 159.217 135.474 159.207 135.522 159.208H233.26C233.308 159.207 233.356 159.217 233.4 159.235C233.444 159.253 233.484 159.28 233.518 159.314C233.552 159.347 233.579 159.387 233.597 159.432C233.615 159.476 233.625 159.523 233.625 159.571C233.625 159.619 233.615 159.666 233.597 159.71C233.579 159.754 233.552 159.794 233.518 159.828C233.484 159.862 233.444 159.889 233.4 159.907C233.356 159.925 233.308 159.934 233.26 159.934Z" fill="#3F3D56"/>
<path d="M60.1312 68.0956C56.0876 68.0956 52.1349 66.8965 48.7728 64.65C45.4106 62.4035 42.7902 59.2105 41.2428 55.4747C39.6954 51.7389 39.2905 47.6281 40.0794 43.6622C40.8682 39.6963 42.8154 36.0534 45.6747 33.1942C48.5339 30.3349 52.1768 28.3878 56.1427 27.5989C60.1086 26.81 64.2194 27.2149 67.9551 28.7623C71.6909 30.3097 74.884 32.9302 77.1305 36.2923C79.377 39.6544 80.5761 43.6072 80.5761 47.6508C80.57 53.0712 78.414 58.2679 74.5812 62.1007C70.7483 65.9335 65.5517 68.0895 60.1312 68.0956ZM60.1312 27.8164C56.2083 27.8164 52.3736 28.9797 49.1118 31.1591C45.8501 33.3386 43.3078 36.4363 41.8066 40.0606C40.3054 43.6849 39.9126 47.6729 40.678 51.5204C41.4433 55.3679 43.3324 58.9021 46.1063 61.676C48.8802 64.4499 52.4144 66.3389 56.2619 67.1042C60.1094 67.8695 64.0974 67.4767 67.7217 65.9755C71.346 64.4742 74.4437 61.932 76.6231 58.6702C78.8025 55.4084 79.9658 51.5736 79.9658 47.6507C79.9598 42.3922 77.8682 37.3506 74.1498 33.6323C70.4314 29.9139 65.3898 27.8223 60.1312 27.8164Z" fill="#3F3D56"/>
<path d="M47.2909 11.2993L28.4541 43.9254H66.1278L47.2909 11.2993L28.4541 43.9254H66.1278L47.2909 11.2993Z" fill="url(#paint0_linear_2049_4584)"/>
</g>
<defs>
<linearGradient id="paint0_linear_2049_4584" x1="38.5001" y1="26" x2="66.0001" y2="44" gradientUnits="userSpaceOnUse">
<stop stop-color="#F73E94"/>
<stop offset="0.333333" stop-color="#97238A"/>
<stop offset="0.666667" stop-color="#5456AB"/>
<stop offset="1" stop-color="#22DCD9"/>
</linearGradient>
<clipPath id="clip0_2049_4584">
<rect width="238.669" height="160" fill="white"/>
</clipPath>
</defs>
</svg>
