<svg width="227" height="160" viewBox="0 0 227 160" fill="none" xmlns="http://www.w3.org/2000/svg">
<g clip-path="url(#clip0_2049_4615)">
<path d="M171.753 79.6245C171.755 83.6339 171.288 87.6297 170.362 91.5306C164.993 114.087 144.712 130.863 120.514 130.863C92.2172 130.863 69.2754 107.921 69.2754 79.6245C69.2728 70.2915 71.8198 61.135 76.6412 53.1438C81.4626 45.1526 88.3754 38.6302 96.633 34.2809C96.6357 34.2809 96.6385 34.2783 96.6412 34.2783C98.0296 33.5426 99.4566 32.8723 100.922 32.2672C109.028 28.9291 117.852 27.7145 126.558 28.7383C127.305 28.8266 128.048 28.9312 128.784 29.0497C129.982 29.2453 131.165 29.4813 132.332 29.7576C132.627 29.8237 132.919 29.8953 133.208 29.9724C133.266 29.9863 133.321 30.0028 133.379 30.0166C133.437 30.0303 133.492 30.0441 133.547 30.0607H133.55C133.66 30.0883 133.77 30.1157 133.88 30.1461C134.15 30.2205 134.42 30.2949 134.69 30.3746C135.525 30.6116 136.35 30.8715 137.167 31.1543C137.296 31.1984 137.423 31.2425 137.552 31.2865C137.618 31.3114 137.682 31.3334 137.748 31.3582C137.817 31.3802 137.883 31.405 137.952 31.4297C139.785 32.0926 141.579 32.8606 143.324 33.73L140.638 32.865C149.23 37.2699 156.668 45.0466 162.874 56.096C162.921 55.8205 163.049 55.5657 163.244 55.3651C163.438 55.1645 163.689 55.0277 163.963 54.9728C164.237 54.9178 164.521 54.9474 164.777 55.0574C165.034 55.1675 165.251 55.3529 165.4 55.5891C165.437 55.648 165.47 55.7097 165.497 55.7737C165.569 55.9397 165.608 56.1183 165.611 56.2993C165.614 56.4803 165.581 56.6601 165.514 56.8285C165.448 56.9968 165.349 57.1504 165.223 57.2805C165.097 57.4105 164.947 57.5145 164.781 57.5863C164.771 57.5912 164.761 57.5949 164.75 57.5974L169.163 69.071C169.479 69.0599 169.793 69.1192 170.083 69.2445C170.156 68.8619 170.283 68.4917 170.461 68.1454C170.549 68.5255 170.632 68.9085 170.712 69.2941C170.739 69.4374 170.769 69.5778 170.794 69.7211V69.7239C170.946 70.4814 171.078 71.2464 171.191 72.0186C171.202 72.082 171.21 72.1425 171.221 72.2059V72.2087C171.265 72.5117 171.307 72.8175 171.345 73.1232C171.549 74.7403 171.677 76.3803 171.728 78.0432C171.745 78.5694 171.753 79.0956 171.753 79.6245Z" fill="#E5E5E5"/>
<path d="M169.195 71.545C169.642 82.9824 170.09 94.4386 169.574 105.882C169.061 117.246 167.444 128.528 166.028 139.805L163.621 158.967H164.448C164.45 157.072 162.643 155.404 160.737 155.697C158.914 155.978 157.681 157.926 158.083 159.693L158.839 159.375C157.583 156.841 155.649 153.566 152.316 153.963C150.75 154.15 149.741 155.331 148.598 156.284C147.367 157.275 145.891 157.915 144.326 158.135C142.761 158.356 141.165 158.148 139.709 157.535C139.226 157.325 138.804 158.037 139.292 158.249C140.581 158.804 141.976 159.072 143.379 159.033C144.783 158.995 146.161 158.652 147.419 158.028C148.05 157.711 148.641 157.322 149.182 156.868C149.754 156.391 150.269 155.839 150.881 155.41C152.211 154.476 153.772 154.656 155.08 155.545C156.548 156.542 157.361 158.25 158.125 159.792C158.34 160.226 158.98 159.913 158.88 159.473C158.755 158.821 158.891 158.147 159.257 157.593C159.623 157.04 160.192 156.652 160.841 156.513C162.263 156.272 163.623 157.572 163.621 158.967C163.62 159.514 164.383 159.479 164.448 158.967C165.876 147.597 167.356 136.233 168.719 124.855C169.391 119.245 169.98 113.624 170.294 107.981C170.613 102.267 170.676 96.5412 170.604 90.8194C170.523 84.3917 170.273 77.9678 170.022 71.545C170.001 71.015 169.174 71.0123 169.195 71.545Z" fill="#CCCCCC"/>
<path d="M207.813 82.4429C202.955 85.9733 197.891 89.2113 192.648 92.1397C191.216 92.9276 189.811 93.652 188.489 94.2663C186.439 95.2195 184.585 95.911 183.136 96.1671L183.133 96.1699C182.921 96.2085 182.715 96.236 182.519 96.2553C180.72 96.4289 179.246 95.349 178.045 93.5749C176.37 91.1067 175.222 87.294 174.448 83.6357C174.293 82.9139 174.155 82.2005 174.032 81.5034C173.453 78.2831 173.164 75.4347 173.045 74.0904C172.499 73.933 171.991 73.6659 171.552 73.3053V73.3025C171.48 73.2466 171.411 73.1869 171.346 73.1235C171.196 72.9837 171.057 72.8326 170.93 72.6716C170.33 71.9283 170.004 71.0014 170.007 70.0464C170.007 69.3859 170.162 68.7346 170.461 68.1456V68.1428C170.721 67.6284 171.084 67.1729 171.528 66.8044C171.971 66.4359 172.485 66.1623 173.038 66.0005C173.591 65.8387 174.172 65.7921 174.744 65.8636C175.316 65.9352 175.867 66.1233 176.363 66.4164C176.859 66.7095 177.29 67.1013 177.629 67.5676C177.968 68.0339 178.207 68.5648 178.333 69.1274C178.458 69.69 178.467 70.2723 178.358 70.8383C178.249 71.4044 178.026 71.9421 177.701 72.4182L179.186 76.0435L179.189 76.0462L183.591 86.7845V86.7871L183.637 86.9001L199.899 77.1785L202.169 75.8204L202.607 75.5588C203.479 74.8869 204.574 74.5735 205.669 74.6826C206.765 74.7916 207.777 75.315 208.499 76.1455H208.502C208.89 76.5955 209.181 77.1206 209.358 77.6881C209.534 78.2555 209.592 78.8532 209.527 79.444C209.463 80.0347 209.277 80.6058 208.982 81.1218C208.687 81.6377 208.289 82.0874 207.813 82.4429Z" fill="#FFB6B6"/>
<path d="M170.067 71.826L169.552 72.0189C169.197 71.0657 168.835 70.1282 168.467 69.2062C160.825 50.0633 150.599 37.6503 138.018 32.24C137.828 32.1573 137.638 32.0774 137.445 32.0003C137.189 31.8928 136.93 31.7882 136.671 31.6917C136.252 31.5264 135.828 31.3721 135.404 31.2262C134.836 31.0306 134.268 30.8497 133.699 30.6834C133.561 30.6421 133.42 30.6008 133.283 30.5651C132.79 30.4245 132.299 30.2951 131.806 30.1821C120.035 27.364 107.98 30.3006 96.6414 34.2785C96.6388 34.2785 96.6359 34.2812 96.6332 34.2812C93.1705 35.4961 89.771 36.8101 86.4708 38.0855C74.2673 42.8017 63.5374 46.9476 56.0582 43.3637C55.7717 43.2287 55.4907 43.0799 55.2152 42.9201C54.9177 42.7466 54.623 42.5593 54.3365 42.361C54.3007 42.3362 54.2648 42.3113 54.2318 42.2839C53.9232 42.0634 53.6202 41.8265 53.3255 41.5731C52.8875 41.196 52.4761 40.7892 52.094 40.3555C52.0197 40.2728 51.9453 40.1902 51.8737 40.1048C51.86 40.0854 51.8433 40.0662 51.8296 40.0496C51.2651 39.3681 50.7704 38.6317 50.3531 37.8513C47.7691 33.0581 47.8903 26.7221 48.0087 20.5514C48.1354 13.8738 48.2594 7.52412 44.8821 3.82992C44.3987 3.29703 43.8487 2.82853 43.2457 2.43598C42.644 2.04145 41.9976 1.71965 41.3202 1.47732C34.0558 -1.15625 21.5657 4.02549 4.11974 16.9179C3.54121 17.3448 2.95998 17.7801 2.37043 18.2236L2.03711 17.7828C2.62667 17.3393 3.21071 16.9014 3.78924 16.4743C12.0397 10.3808 19.2489 5.96217 25.2489 3.32025C32.1082 0.298341 37.582 -0.483969 41.5654 0.98152C42.2623 1.23498 42.9278 1.56775 43.5487 1.97326C44.1696 2.37903 44.7394 2.85811 45.2457 3.40015C48.8159 7.23477 48.6892 13.7305 48.5597 20.5596C48.4495 26.364 48.3338 32.317 50.5019 36.9147C50.9819 37.9461 51.595 38.9103 52.3254 39.7825C52.3695 39.8348 52.4163 39.8871 52.4605 39.9395C52.8404 40.3732 53.2501 40.78 53.6864 41.1571C53.9425 41.3802 54.2069 41.5868 54.477 41.7824C54.7915 42.0117 55.1179 42.2241 55.4549 42.4188C55.8325 42.6394 56.2224 42.8381 56.6229 43.0138C63.8928 46.2204 74.3746 42.168 86.2726 37.5703C90.9887 35.7466 95.8977 33.8514 100.922 32.2674C109.272 29.6338 117.941 27.8626 126.558 28.7385C127.247 28.8047 127.939 28.8928 128.627 29.0003C129.87 29.1876 131.109 29.4327 132.346 29.7441C132.635 29.8157 132.922 29.8927 133.208 29.9726C133.321 30.0002 133.432 30.0333 133.544 30.0664C133.655 30.0967 133.768 30.1269 133.878 30.16C134.445 30.328 135.016 30.5099 135.583 30.7055C136.065 30.8735 136.547 31.0498 137.024 31.2344C137.197 31.3032 137.374 31.3721 137.55 31.4465C137.707 31.5098 137.867 31.576 138.024 31.6421C138.905 32.0168 139.779 32.4217 140.638 32.8652C149.23 37.2701 156.668 45.0468 162.874 56.0962C163.15 56.5866 163.425 57.0852 163.695 57.5921C164.332 58.7739 164.953 59.9915 165.56 61.2448C166.764 63.7186 167.913 66.3301 169.007 69.0794C169.257 69.702 169.503 70.3329 169.745 70.9719C169.852 71.2558 169.96 71.5395 170.067 71.826Z" fill="#CCCCCC"/>
<path d="M2.20479 20.2065C3.42193 20.2065 4.40861 19.2198 4.40861 18.0026C4.40861 16.7855 3.42193 15.7988 2.20479 15.7988C0.987659 15.7988 0.000976562 16.7855 0.000976562 18.0026C0.000976562 19.2198 0.987659 20.2065 2.20479 20.2065Z" fill="url(#paint0_linear_2049_4615)"/>
<path d="M43.3972 4.40812C44.6143 4.40812 45.601 3.42144 45.601 2.20431C45.601 0.987171 44.6143 0.000488281 43.3972 0.000488281C42.18 0.000488281 41.1934 0.987171 41.1934 2.20431C41.1934 3.42144 42.18 4.40812 43.3972 4.40812Z" fill="url(#paint1_linear_2049_4615)"/>
<path d="M42.6126 31.5601L42.2393 31.9653L65.2796 53.1909L65.653 52.7857L42.6126 31.5601Z" fill="#3F3D56"/>
<path d="M42.4252 33.1395C43.1859 33.1395 43.8026 32.5229 43.8026 31.7622C43.8026 31.0014 43.1859 30.3848 42.4252 30.3848C41.6645 30.3848 41.0479 31.0014 41.0479 31.7622C41.0479 32.5229 41.6645 33.1395 42.4252 33.1395Z" fill="url(#paint2_linear_2049_4615)"/>
<path d="M65.1297 16.1602L61.4161 18.9865L56.3337 22.857C53.6987 24.8548 51.9409 27.7964 51.4301 31.0634L50.5018 36.9146L50.3531 37.8512L50.2374 38.584L50.1354 39.2396L49.8297 41.1597C49.8077 41.2932 49.8292 41.4303 49.8909 41.5507C49.9527 41.6711 50.0514 41.7685 50.1727 41.8286C50.2939 41.8887 50.4313 41.9082 50.5645 41.8844C50.6977 41.8605 50.8197 41.7945 50.9126 41.6961C50.8848 41.1254 51.0805 40.5663 51.4583 40.1376C51.836 39.7089 52.366 39.4443 52.9357 39.4C53.0804 35.091 55.4185 33.1648 58.9617 32.5482L58.9975 32.5069L58.9728 32.5566C59.5394 37.2949 58.1118 39.7459 55.1381 40.4242L55.0639 40.5767C55.088 40.6227 55.1124 40.6685 55.1334 40.7169C55.2635 41.0148 55.3259 41.3378 55.3162 41.6628C55.3065 41.9877 55.2249 42.3064 55.0773 42.596C54.9297 42.8856 54.7198 43.139 54.4626 43.3378C54.2054 43.5366 53.9074 43.6759 53.5899 43.7458C53.5885 43.8035 53.595 43.8612 53.6092 43.9172C53.6355 44.0124 53.6836 44.1001 53.7496 44.1736C53.8156 44.247 53.8978 44.3042 53.9897 44.3405C54.0815 44.3768 54.1805 44.3914 54.279 44.3829C54.3774 44.3745 54.4725 44.3433 54.5568 44.2919L55.1932 43.8979L55.6808 43.5976L56.0582 43.3635L56.6229 43.0137L63.3638 38.8456C66.1255 37.1435 68.1148 34.4318 68.9092 31.2865L70.5069 25.0029L71.6584 20.4795L65.1297 16.1602Z" fill="#E6E6E6"/>
<path d="M65.103 54.2221C65.8637 54.2221 66.4804 53.6054 66.4804 52.8447C66.4804 52.084 65.8637 51.4673 65.103 51.4673C64.3423 51.4673 63.7256 52.084 63.7256 52.8447C63.7256 53.6054 64.3423 54.2221 65.103 54.2221Z" fill="url(#paint3_linear_2049_4615)"/>
<path d="M183.907 91.0264L183.59 86.7868V86.7841L183.431 84.6545C183.19 81.3573 181.682 78.2816 179.221 76.0734L179.189 76.0458L179.186 76.0431L171.627 69.2306C171.525 69.1364 171.396 69.0785 171.258 69.066C171.121 69.0535 170.983 69.0872 170.866 69.1617C170.808 69.1967 170.756 69.2414 170.712 69.294C170.66 69.3558 170.621 69.4273 170.597 69.5043C171.068 69.8101 171.404 70.2843 171.537 70.8298C171.669 71.3753 171.588 71.9508 171.309 72.4383L171.552 73.3021V73.3049C174.074 75.1881 174.689 78.0242 173.869 81.5774L173.886 81.6326L173.858 81.5858C170.618 79.6589 168.681 77.1211 169.01 73.52C168.719 73.4686 168.441 73.3591 168.193 73.198C167.946 73.037 167.733 72.8277 167.568 72.5826C167.403 72.3375 167.289 72.0617 167.233 71.7716C167.177 71.4815 167.179 71.183 167.241 70.8941C167.183 70.876 167.123 70.8669 167.062 70.8669C167.006 70.8661 166.95 70.8735 166.897 70.889C166.763 70.9223 166.644 70.999 166.559 71.1073C166.474 71.2155 166.427 71.349 166.426 71.4867L166.194 81.8392C166.115 85.082 167.304 88.2278 169.508 90.6077L170.362 91.5304L173.908 95.3707L177.073 98.8003L183.133 96.1695L183.136 96.1667L184.254 95.6819L183.907 91.0264Z" fill="#CCCCCC"/>
<path d="M53.0876 43.039C53.9644 43.039 54.6752 42.3282 54.6752 41.4514C54.6752 40.5746 53.9644 39.8638 53.0876 39.8638C52.2108 39.8638 51.5 40.5746 51.5 41.4514C51.5 42.3282 52.2108 43.039 53.0876 43.039Z" fill="url(#paint4_linear_2049_4615)"/>
<path d="M59.4613 32.6696C60.0699 32.6696 60.5632 32.1763 60.5632 31.5677C60.5632 30.9592 60.0699 30.4658 59.4613 30.4658C58.8527 30.4658 58.3594 30.9592 58.3594 31.5677C58.3594 32.1763 58.8527 32.6696 59.4613 32.6696Z" fill="#3F3D56"/>
<path d="M169.877 70.9221L169.745 70.9717L169.362 71.1205L168.607 69.1591L165.566 61.2556L165.561 61.2446L164.2 57.702H164.197L163.762 56.567L164.277 56.3687L164.751 57.5973L169.164 69.0709L169.877 70.9221Z" fill="#3F3D56"/>
<path d="M164.781 57.5863C164.771 57.5912 164.761 57.5949 164.751 57.5973C164.576 57.6694 164.389 57.705 164.2 57.702H164.197C164.024 57.6962 163.855 57.6588 163.696 57.5918C163.371 57.4537 163.112 57.1964 162.971 56.8729C162.864 56.6289 162.83 56.3588 162.875 56.0959C162.921 55.8205 163.05 55.5656 163.244 55.3651C163.439 55.1645 163.689 55.0277 163.963 54.9727C164.237 54.9178 164.521 54.9473 164.778 55.0574C165.035 55.1674 165.252 55.3529 165.401 55.5891C165.438 55.6479 165.47 55.7097 165.497 55.7736C165.569 55.9397 165.608 56.1183 165.611 56.2993C165.614 56.4803 165.581 56.6601 165.515 56.8285C165.448 56.9968 165.349 57.1504 165.223 57.2804C165.097 57.4105 164.947 57.5144 164.781 57.5863Z" fill="url(#paint5_linear_2049_4615)"/>
<path d="M171.052 71.969C171.049 71.9773 171.046 71.9851 171.041 71.9923V71.9945C170.982 72.1228 170.906 72.2428 170.816 72.3512C170.645 72.5595 170.428 72.7241 170.181 72.8313C169.907 72.9506 169.607 72.996 169.31 72.963V72.9608C169.014 72.9271 168.732 72.8158 168.492 72.6383C168.253 72.4608 168.065 72.2234 167.946 71.9499C167.809 71.6391 167.77 71.2938 167.834 70.9601C167.884 70.6872 168.001 70.4309 168.174 70.2138C168.347 69.9968 168.571 69.8256 168.826 69.7154C168.855 69.7027 168.887 69.6899 168.917 69.6794C168.953 69.6666 168.989 69.6538 169.025 69.6432C169.126 69.6135 169.229 69.5929 169.333 69.5816C169.373 69.5774 169.414 69.5753 169.454 69.5752C169.698 69.5667 169.94 69.6124 170.164 69.709C170.302 69.7669 170.432 69.8426 170.55 69.9342V69.9363C170.607 69.9789 170.661 70.0258 170.712 70.0764V70.0786C170.859 70.2286 170.978 70.4042 171.062 70.5969C171.157 70.8135 171.205 71.0477 171.203 71.284C171.201 71.5204 171.149 71.7538 171.052 71.969Z" fill="url(#paint6_linear_2049_4615)"/>
<path d="M174.421 83.635C175.03 83.635 175.523 83.1416 175.523 82.5331C175.523 81.9245 175.03 81.4312 174.421 81.4312C173.813 81.4312 173.319 81.9245 173.319 82.5331C173.319 83.1416 173.813 83.635 174.421 83.635Z" fill="#3F3D56"/>
<path d="M152.316 36.0469L152.148 36.5703L150.746 36.1186L143.324 33.7302L140.639 32.8652L138.024 32.025L137.487 31.8514L136.73 31.6062L133.716 30.6366L133.305 30.5071L131.947 30.0691L128.785 29.0498L128.628 29.0002L104.391 21.1987L102.909 20.7221L103.077 20.1987L104.479 20.6505L132.457 29.6559L133.578 30.0167L133.892 30.1159L134.691 30.3749L137.145 31.1627L137.553 31.2949L137.944 31.4217L150.834 35.5704L152.316 36.0469Z" fill="#3F3D56"/>
<path d="M138.024 31.6418C138.014 31.5672 137.989 31.4953 137.952 31.4297L137.944 31.4215C137.867 31.2881 137.742 31.1887 137.594 31.1432C137.579 31.137 137.562 31.1332 137.545 31.1322H137.544C137.571 31.4304 137.538 31.7311 137.444 32.0158C137.351 32.3005 137.201 32.5631 137.003 32.7877C136.805 33.0122 136.563 33.1939 136.292 33.3216C136.021 33.4492 135.727 33.5202 135.427 33.5301L135.426 33.5317C135.573 37.6033 134.242 40.5833 130.066 41.4625L130.032 41.5095L130.049 41.4572C127.76 37.5582 130.143 34.6998 133.252 32.0028C133.116 31.5788 133.112 31.1236 133.24 30.6972C133.368 30.2707 133.622 29.8931 133.969 29.6139L133.969 29.6116C133.934 29.4568 133.841 29.321 133.71 29.2314C133.599 29.1505 133.463 29.1091 133.326 29.1136C133.188 29.1181 133.056 29.1683 132.95 29.2563L132.457 29.6556L132.347 29.7439L132.333 29.7576L131.947 30.0688L131.807 30.1818L124.9 35.774C122.376 37.8102 120.746 40.7502 120.355 43.9694L119.564 50.4073L118.994 55.0408L126.016 58.5008L129.344 55.2255L133.895 50.7435C136.257 48.429 137.629 45.2888 137.724 41.9832L138.019 32.2397L138.024 32.0247L138.032 31.7658C138.033 31.7243 138.03 31.6829 138.024 31.6418Z" fill="#CCCCCC"/>
<path d="M103.103 22.0897C103.864 22.0897 104.48 21.4731 104.48 20.7123C104.48 19.9516 103.864 19.335 103.103 19.335C102.342 19.335 101.726 19.9516 101.726 20.7123C101.726 21.4731 102.342 22.0897 103.103 22.0897Z" fill="url(#paint7_linear_2049_4615)"/>
<path d="M152.122 37.433C152.882 37.433 153.499 36.8163 153.499 36.0556C153.499 35.2949 152.882 34.6782 152.122 34.6782C151.361 34.6782 150.744 35.2949 150.744 36.0556C150.744 36.8163 151.361 37.433 152.122 37.433Z" fill="url(#paint8_linear_2049_4615)"/>
<path d="M129.691 43.6008C130.299 43.6008 130.793 43.1074 130.793 42.4989C130.793 41.8903 130.299 41.397 129.691 41.397C129.082 41.397 128.589 41.8903 128.589 42.4989C128.589 43.1074 129.082 43.6008 129.691 43.6008Z" fill="#3F3D56"/>
<path d="M222.692 48.088C222.568 47.9502 222.444 47.818 222.317 47.6858C219.201 44.4103 215.13 42.4683 211.328 42.4683C210.623 42.4683 209.948 42.5004 209.303 42.5646C206.634 42.8263 204.499 43.6307 202.899 44.9778C200.535 46.9668 199.35 50.1247 199.345 54.4515C199.345 54.6912 199.331 55.1374 199.309 55.7296C199.169 59.1814 198.656 67.5917 198.196 68.8369C197.45 70.8645 196.802 72.6165 197.767 73.9415C198.328 74.7156 199.433 75.2775 201.158 75.6412C201.474 75.7101 201.81 75.7706 202.169 75.8202C204.02 76.0655 205.886 76.176 207.753 76.1509C207.998 76.1509 208.243 76.1509 208.499 76.1454H208.502C209.386 76.1398 210.331 76.115 211.334 76.0765C213.678 75.9856 216.617 75.801 219.256 75.1922H219.259C219.604 75.115 219.942 75.0269 220.273 74.9331L220.334 74.9167L220.361 74.8616C220.833 73.901 221.102 72.8536 221.152 71.7845C221.656 72.4656 222.028 73.2356 222.248 74.0544L222.29 74.2115L222.438 74.1426C223.603 73.6416 224.613 72.839 225.364 71.8176C226.082 70.7525 226.513 69.5198 226.614 68.2391C226.992 64.7625 225.562 51.289 222.692 48.088Z" fill="#2F2E41"/>
<path d="M223.62 159.958H207.111L204.342 146.27L203.444 159.958H188.108C188.1 149.813 184.999 138.514 189.643 129.195C189.885 128.711 193.081 128.055 189.786 127.774L189.976 127.127L190.276 126.091L190.466 125.441C190.466 125.441 191.209 124.82 190.708 124.61C190.208 124.399 190.963 123.734 190.963 123.734L193.64 114.543L193.89 113.678H213C214.1 114.711 215.114 115.831 216.033 117.028C216.345 117.425 216.67 117.854 217.003 118.317C217.234 118.645 217.474 118.989 217.714 119.35C219.843 122.52 221.435 126.02 222.424 129.708V129.711C222.592 130.342 222.741 130.987 222.871 131.648V131.65C222.986 132.237 223.088 132.832 223.168 133.441C223.229 133.884 223.281 134.334 223.32 134.788C223.549 137.306 223.469 139.843 223.08 142.342L223.62 159.958Z" fill="#2F2E41"/>
<path d="M204.965 68.7234L214.06 68.2549L218.284 74.93C218.284 74.93 226.233 76.2589 225.682 85.6251C225.131 94.9913 216.011 103.21 216.011 103.21L223.012 123.514L222.335 125.449L222.422 126.535L223.346 127.686L223.441 128.876L222.622 130.758L223.735 132.56C215.723 134.56 210.317 132.525 207.448 126.56C204.159 118.352 198.62 117.57 191.86 120.818L192.871 111.75L194.119 110.076L193.422 107.893L194.47 105.794L195.016 99.1241C195.016 99.1241 189.037 90.1415 195.901 83.3759L198.656 78.6928L201.738 74.9322L204.965 68.7234Z" fill="#3F3D56"/>
<path d="M209.486 66.8382C214.809 66.8382 219.123 62.5234 219.123 57.2008C219.123 51.8783 214.809 47.5635 209.486 47.5635C204.163 47.5635 199.849 51.8783 199.849 57.2008C199.849 62.5234 204.163 66.8382 209.486 66.8382Z" fill="#FFB6B6"/>
<path d="M215.819 45.2227H206.384C205.242 44.9572 204.066 44.8744 202.899 44.9775C201.465 45.0869 200.094 45.6168 198.96 46.5009C197.271 47.8563 196.34 50.016 196.34 52.5834C196.344 53.4042 196.429 54.2226 196.593 55.0269L196.61 55.1123L196.693 55.1344C197.563 55.3575 198.435 55.5559 199.31 55.7293C199.519 55.7708 199.731 55.8121 199.943 55.8507C201.089 56.0626 202.235 56.2308 203.373 56.352L203.436 56.3602L203.483 56.3189C204.296 55.5712 204.941 54.6595 205.375 53.644C205.631 54.5359 205.7 55.471 205.577 56.3906L205.557 56.5393L205.706 56.5475C206.535 56.5944 207.365 56.6173 208.196 56.6164C211.816 56.6139 215.423 56.1745 218.937 55.3079C219.169 55.2527 219.397 55.1949 219.626 55.1344L219.731 55.1068V49.1344C219.729 48.0973 219.317 47.1031 218.584 46.3697C217.85 45.6364 216.856 45.2239 215.819 45.2227Z" fill="#2F2E41"/>
<path d="M223.504 44.4061C223.322 46.2027 222.467 47.8639 221.111 49.0569C219.755 50.2498 217.999 50.8864 216.194 50.839C214.388 50.7916 212.668 50.0638 211.376 48.8013C210.085 47.5389 209.318 45.8352 209.23 44.0315C209.142 42.2277 209.739 40.4573 210.901 39.0749C212.063 37.6925 213.704 36.8003 215.496 36.5769C217.288 36.3536 219.098 36.8157 220.564 37.8707C222.03 38.9256 223.043 40.4955 223.4 42.2657C222.307 42.4197 221.268 42.8376 220.372 43.4833C220.919 43.4158 221.473 43.4588 222.003 43.6098C222.532 43.7607 223.026 44.0166 223.455 44.3621C223.471 44.3758 223.488 44.3896 223.504 44.4061Z" fill="#2F2E41"/>
<path d="M72.7259 26.0385C72.1332 26.0382 71.5539 25.8627 71.0607 25.5341C65.7735 25.113 62.3108 22.8498 60.7227 18.6932C60.3775 18.4639 60.0827 18.1664 59.8565 17.8191C59.6304 17.4718 59.4776 17.0819 59.4075 16.6734C59.3365 16.264 59.3511 15.8444 59.4504 15.441C59.5498 15.0375 59.7316 14.659 59.9845 14.3294C60.4694 13.7158 61.1689 13.309 61.942 13.191C62.7151 13.073 63.5041 13.2527 64.1499 13.6937L64.7076 14.0628C64.7092 13.4755 64.8837 12.9016 65.2092 12.4127L65.2489 12.3543C65.4395 12.068 65.7169 11.8504 66.0403 11.7335C66.3638 11.6165 66.7162 11.6064 67.0458 11.7046C67.398 11.802 67.7105 12.0084 67.9384 12.2941C68.1663 12.5798 68.2981 12.9302 68.3149 13.2953C68.3233 13.4362 68.3406 13.5763 68.3668 13.715C68.4629 14.2084 68.6751 14.6719 68.9859 15.067C69.2966 15.4621 69.697 15.7776 70.1539 15.9873C70.6108 16.197 71.111 16.2949 71.6132 16.2729C72.1154 16.2508 72.6052 16.1096 73.042 15.8607C73.3047 15.7107 73.6016 15.6305 73.9041 15.6277C74.2067 15.625 74.5049 15.6998 74.7703 15.8451C75.0113 15.9747 75.2138 16.1656 75.3574 16.3985C75.5011 16.6314 75.5807 16.8981 75.5883 17.1716C75.6102 17.7802 75.4479 18.3812 75.1225 18.8959C74.7972 19.4106 74.324 19.8151 73.7649 20.0563L74.3252 20.4273C75.0018 20.8646 75.4811 21.5486 75.6614 22.3337C75.8417 23.1189 75.7087 23.9434 75.2907 24.6321C75.0756 24.9728 74.7943 25.2669 74.4634 25.4969C74.1326 25.7268 73.7589 25.888 73.3645 25.9708C73.1546 26.0157 72.9406 26.0385 72.7259 26.0385Z" fill="#3F3D56"/>
<path d="M124.752 63.449C124.589 63.4488 124.428 63.4244 124.273 63.3766C123.963 63.2832 123.687 63.1017 123.479 62.8543C123.271 62.607 123.139 62.3043 123.1 61.9834L123.095 61.9463C123.014 61.4056 122.795 60.8951 122.458 60.4644C122.121 60.0337 121.679 59.6974 121.174 59.4883C120.669 59.2792 120.118 59.2044 119.576 59.2711C119.033 59.3379 118.517 59.5439 118.078 59.8692C117.854 60.0307 117.592 60.1328 117.318 60.1657C117.043 60.1987 116.765 60.1615 116.509 60.0576C116.253 59.9537 116.028 59.7865 115.854 59.5717C115.68 59.3569 115.564 59.1015 115.516 58.8294C115.414 58.2269 115.498 57.6079 115.755 57.0539C116.013 56.4999 116.432 56.0368 116.958 55.7257L116.269 55.3862C115.897 55.2025 115.568 54.9448 115.299 54.6289C115.031 54.313 114.83 53.9456 114.709 53.5493C114.587 53.1521 114.548 52.7339 114.596 52.3211C114.643 51.9083 114.776 51.5098 114.985 51.1507C115.389 50.4807 116.031 49.9886 116.783 49.7739C117.535 49.5592 118.341 49.6379 119.037 49.994C123.826 49.3289 127.485 51.1814 130.068 55.4298C130.439 55.6135 130.769 55.8712 131.037 56.1871C131.306 56.503 131.506 56.8704 131.628 57.2667C131.75 57.6638 131.788 58.082 131.741 58.4948C131.693 58.9076 131.561 59.306 131.351 59.665C130.948 60.335 130.306 60.8271 129.554 61.0418C128.802 61.2566 127.996 61.178 127.3 60.822L126.7 60.5264C126.773 61.1092 126.672 61.7006 126.411 62.2266C126.292 62.4694 126.14 62.6952 125.961 62.8978C125.81 63.0704 125.624 63.2088 125.416 63.3039C125.207 63.3989 124.981 63.4484 124.752 63.449Z" fill="#3F3D56"/>
<path d="M178.375 103.752C177.981 103.757 177.593 103.646 177.261 103.433C176.929 103.219 176.666 102.913 176.506 102.553L176.487 102.511C176.251 101.973 176.179 101.377 176.28 100.798L175.576 101.104C175.206 101.265 174.809 101.35 174.406 101.355C174.003 101.36 173.604 101.285 173.23 101.134C172.857 100.982 172.518 100.758 172.232 100.474C171.946 100.191 171.72 99.8527 171.567 99.4804C171.275 98.7296 171.287 97.8946 171.601 97.1527C171.915 96.4109 172.506 95.8207 173.248 95.5075C175.221 90.9514 178.838 89.1418 184.439 90.6447C185.151 90.3229 185.96 90.2833 186.7 90.5338C187.441 90.7843 188.059 91.3063 188.43 91.9946C188.622 92.3632 188.735 92.7675 188.763 93.182C188.791 93.5966 188.732 94.0124 188.591 94.4032C188.451 94.7933 188.233 95.1506 187.95 95.4534C187.667 95.7561 187.325 95.9978 186.945 96.1636L186.241 96.4695C186.732 96.7909 187.119 97.2499 187.351 97.7893C187.385 97.8671 187.415 97.9453 187.442 98.0242C187.571 98.3992 187.586 98.804 187.485 99.1875C187.385 99.5711 187.173 99.9164 186.877 100.18C186.577 100.462 186.2 100.648 185.794 100.716C185.388 100.785 184.971 100.731 184.595 100.563C184.199 100.388 183.771 100.296 183.338 100.295H183.322C182.74 100.308 182.172 100.479 181.678 100.79C181.185 101.1 180.785 101.538 180.52 102.057C180.458 102.172 180.402 102.291 180.354 102.413C180.204 102.803 179.94 103.139 179.597 103.377C179.255 103.616 178.848 103.746 178.43 103.752C178.412 103.752 178.394 103.752 178.375 103.752Z" fill="#3F3D56"/>
<path d="M219.777 81.5078C219.118 81.3168 218.423 81.2859 217.749 81.4175C217.076 81.549 216.443 81.8393 215.904 82.2643C215.365 82.6892 214.936 83.2365 214.651 83.8608C214.366 84.4851 214.234 85.1684 214.266 85.8539L203.622 107.392L188.35 103.963C188.034 103.131 187.463 102.42 186.718 101.932C185.973 101.445 185.093 101.205 184.204 101.249C183.315 101.293 182.462 101.617 181.769 102.175C181.075 102.733 180.576 103.496 180.343 104.355C180.11 105.214 180.155 106.125 180.472 106.957C180.789 107.789 181.361 108.5 182.106 108.986C182.852 109.473 183.732 109.711 184.621 109.667C185.51 109.622 186.362 109.297 187.055 108.738C190.688 110.83 207.155 119.854 210.649 113.668C213.587 108.468 223.059 91.24 222.891 85.5283C222.864 84.6149 222.548 83.7334 221.989 83.0108C221.429 82.2883 220.655 81.762 219.777 81.5078Z" fill="#FFB6B6"/>
<path d="M135.227 32.6645C136.078 32.6645 136.768 31.9745 136.768 31.1233C136.768 30.2721 136.078 29.582 135.227 29.582C134.376 29.582 133.686 30.2721 133.686 31.1233C133.686 31.9745 134.376 32.6645 135.227 32.6645Z" fill="url(#paint9_linear_2049_4615)"/>
</g>
<defs>
<linearGradient id="paint0_linear_2049_4615" x1="2.20479" y1="15.7988" x2="2.20479" y2="20.2065" gradientUnits="userSpaceOnUse">
<stop stop-color="#22DCD9"/>
<stop offset="0.333333" stop-color="#5456AB"/>
<stop offset="0.666667" stop-color="#97238A"/>
<stop offset="1" stop-color="#F73E94"/>
</linearGradient>
<linearGradient id="paint1_linear_2049_4615" x1="43.3972" y1="0.000488281" x2="43.3972" y2="4.40812" gradientUnits="userSpaceOnUse">
<stop stop-color="#22DCD9"/>
<stop offset="0.333333" stop-color="#5456AB"/>
<stop offset="0.666667" stop-color="#97238A"/>
<stop offset="1" stop-color="#F73E94"/>
</linearGradient>
<linearGradient id="paint2_linear_2049_4615" x1="42.4252" y1="30.3848" x2="42.4252" y2="33.1395" gradientUnits="userSpaceOnUse">
<stop stop-color="#22DCD9"/>
<stop offset="0.333333" stop-color="#5456AB"/>
<stop offset="0.666667" stop-color="#97238A"/>
<stop offset="1" stop-color="#F73E94"/>
</linearGradient>
<linearGradient id="paint3_linear_2049_4615" x1="65.103" y1="51.4673" x2="65.103" y2="54.2221" gradientUnits="userSpaceOnUse">
<stop stop-color="#22DCD9"/>
<stop offset="0.333333" stop-color="#5456AB"/>
<stop offset="0.666667" stop-color="#97238A"/>
<stop offset="1" stop-color="#F73E94"/>
</linearGradient>
<linearGradient id="paint4_linear_2049_4615" x1="53.0876" y1="39.8638" x2="53.0876" y2="43.039" gradientUnits="userSpaceOnUse">
<stop stop-color="#22DCD9"/>
<stop offset="0.333333" stop-color="#5456AB"/>
<stop offset="0.666667" stop-color="#97238A"/>
<stop offset="1" stop-color="#F73E94"/>
</linearGradient>
<linearGradient id="paint5_linear_2049_4615" x1="164.233" y1="54.9458" x2="164.233" y2="57.7022" gradientUnits="userSpaceOnUse">
<stop stop-color="#22DCD9"/>
<stop offset="0.333333" stop-color="#5456AB"/>
<stop offset="0.666667" stop-color="#97238A"/>
<stop offset="1" stop-color="#F73E94"/>
</linearGradient>
<linearGradient id="paint6_linear_2049_4615" x1="169.503" y1="69.5742" x2="169.503" y2="72.9735" gradientUnits="userSpaceOnUse">
<stop stop-color="#22DCD9"/>
<stop offset="0.333333" stop-color="#5456AB"/>
<stop offset="0.666667" stop-color="#97238A"/>
<stop offset="1" stop-color="#F73E94"/>
</linearGradient>
<linearGradient id="paint7_linear_2049_4615" x1="103.103" y1="19.335" x2="103.103" y2="22.0897" gradientUnits="userSpaceOnUse">
<stop stop-color="#22DCD9"/>
<stop offset="0.333333" stop-color="#5456AB"/>
<stop offset="0.666667" stop-color="#97238A"/>
<stop offset="1" stop-color="#F73E94"/>
</linearGradient>
<linearGradient id="paint8_linear_2049_4615" x1="152.122" y1="34.6782" x2="152.122" y2="37.433" gradientUnits="userSpaceOnUse">
<stop stop-color="#22DCD9"/>
<stop offset="0.333333" stop-color="#5456AB"/>
<stop offset="0.666667" stop-color="#97238A"/>
<stop offset="1" stop-color="#F73E94"/>
</linearGradient>
<linearGradient id="paint9_linear_2049_4615" x1="135.227" y1="29.582" x2="135.227" y2="32.6645" gradientUnits="userSpaceOnUse">
<stop stop-color="#22DCD9"/>
<stop offset="0.333333" stop-color="#5456AB"/>
<stop offset="0.666667" stop-color="#97238A"/>
<stop offset="1" stop-color="#F73E94"/>
</linearGradient>
<clipPath id="clip0_2049_4615">
<rect width="226.674" height="160" fill="white"/>
</clipPath>
</defs>
</svg>
