<svg width="225" height="160" viewBox="0 0 225 160" fill="none" xmlns="http://www.w3.org/2000/svg">
<g clip-path="url(#clip0_2049_4654)">
<path d="M185.461 101.237C185.656 100.832 185.759 100.388 185.765 99.9377C185.77 99.4875 185.676 99.0416 185.49 98.6315C185.304 98.2214 185.031 97.857 184.689 97.564C184.347 97.271 183.945 97.0566 183.511 96.9358L182.83 86.0122L178.286 89.4329L179.63 99.2816C179.475 100.024 179.598 100.797 179.975 101.454C180.353 102.112 180.958 102.608 181.677 102.849C182.395 103.09 183.177 103.059 183.875 102.762C184.572 102.465 185.136 101.923 185.461 101.237Z" fill="#FFB8B8"/>
<path d="M205.269 144.176L208.878 145.211L214.588 131.781L209.261 130.254L205.269 144.176Z" fill="#FFB8B8"/>
<path d="M214.878 150.558L203.534 147.305L204.791 142.922L211.752 144.918C212.914 145.252 213.897 146.033 214.483 147.091C215.069 148.148 215.211 149.396 214.878 150.558Z" fill="#2F2E41"/>
<path d="M199.485 156.513L195.73 156.513L193.943 142.03L199.485 142.03L199.485 156.513Z" fill="#FFB8B8"/>
<path d="M193.048 155.44H200.289V160H188.488C188.488 159.401 188.606 158.808 188.835 158.255C189.065 157.702 189.4 157.199 189.824 156.776C190.247 156.352 190.75 156.017 191.303 155.788C191.856 155.558 192.449 155.44 193.048 155.44Z" fill="#2F2E41"/>
<path d="M189.1 97.4635C189.1 97.4635 186.956 106.039 190.632 123.497L193.388 153.512L200.432 153.819L199.514 121.353L201.964 107.877L208.089 126.56L205.945 139.73L211.152 142.18L216.971 124.11C216.971 124.11 216.359 98.9949 213.909 95.9321L189.1 97.4635Z" fill="#2F2E41"/>
<path d="M197.995 48.6129C202.15 48.6129 205.518 45.2449 205.518 41.0904C205.518 36.9358 202.15 33.5679 197.995 33.5679C193.841 33.5679 190.473 36.9358 190.473 41.0904C190.473 45.2449 193.841 48.6129 197.995 48.6129Z" fill="#FFB8B8"/>
<path d="M194 52.5138C194 52.5138 193.541 53.5241 199.054 52.8999C204.567 52.2758 205.792 50.4497 205.792 50.4497L215.44 92.7707L214.827 96.5155L188.487 98.0759V92.7707L193.081 64.6845L194 52.5138Z" fill="#E6E6E6"/>
<path d="M196.256 97.0061L187.906 96.8485L187.879 96.7322C186.801 90.929 186.905 84.9681 188.185 79.2062C189.871 71.7385 186.039 61.611 184.314 57.6034C184.111 57.1267 184.086 56.5927 184.246 56.0996C184.405 55.6065 184.737 55.1876 185.181 54.9199L191.091 51.3738C191.493 51.1324 191.946 50.9885 192.414 50.9533C192.882 50.9181 193.351 50.9928 193.785 51.1713C194.219 51.3498 194.605 51.6272 194.912 51.9813C195.22 52.3355 195.44 52.7566 195.556 53.2111L196.589 57.2651C201.349 62.383 201.015 72.8802 199.895 80.7929C199.094 86.243 197.889 91.626 196.29 96.8976L196.256 97.0061Z" fill="#2F2E41"/>
<path d="M186.803 54.125L186.081 54.6192C184.449 55.7283 183.224 57.3394 182.59 59.2079C182.223 60.2974 181.942 61.414 181.749 62.5476C181.137 66.223 178.38 81.8431 178.38 81.8431L177.155 97.157L183.893 95.6256L186.956 77.8615L190.019 66.8355L186.803 54.125Z" fill="#2F2E41"/>
<path d="M210.765 97.0788L210.701 96.9027C210.263 95.6886 200.042 67.0912 204.869 57.007L204.396 52.2777C204.346 51.7711 204.422 51.2598 204.618 50.7898C204.813 50.3198 205.123 49.9058 205.518 49.585C205.913 49.2641 206.382 49.0465 206.883 48.9517C207.383 48.8569 207.899 48.8878 208.384 49.0417L215.771 51.3837C216.076 51.4788 216.342 51.67 216.529 51.9287C216.717 52.1873 216.815 52.4997 216.811 52.8191C216.78 55.5376 216.63 62.4662 215.898 68.0803C214.992 75.0209 218.01 92.3621 218.041 92.5364L218.059 92.6393L210.765 97.0788Z" fill="#2F2E41"/>
<path d="M207.51 89.4754C207.519 89.0253 207.626 88.5825 207.824 88.1783C208.023 87.774 208.307 87.4182 208.658 87.1359C209.009 86.8536 209.417 86.6516 209.854 86.5441C210.291 86.4367 210.747 86.4265 211.189 86.5141L216.721 77.0703L219.235 82.1719L213.596 90.3577C213.4 91.0899 212.942 91.7246 212.308 92.1415C211.675 92.5585 210.911 92.7287 210.161 92.6199C209.411 92.5112 208.727 92.131 208.238 91.5514C207.749 90.9719 207.49 90.2332 207.51 89.4754Z" fill="#FFB8B8"/>
<path d="M214.674 51.3687L215.071 51.4601C215.56 51.5731 216.015 51.8063 216.392 52.1385C216.769 52.4708 217.058 52.8917 217.232 53.3633L224.016 71.7361L216.053 89.1939L213.143 81.9964L216.818 74.0332L210.233 65.6106L214.674 51.3687Z" fill="#2F2E41"/>
<path d="M205.619 42.1301C206.052 41.0149 206.375 39.8605 206.585 38.6831C206.794 37.499 206.655 36.2797 206.184 35.1733C205.679 34.2056 204.971 33.3576 204.11 32.6866C203.52 32.1846 202.9 31.7181 202.254 31.2898C200.434 30.0828 200.038 31.1811 197.855 30.934C195.672 30.687 193.226 30.0591 191.476 31.3621C190.344 32.2217 189.495 33.3993 189.036 34.7443C188.577 36.0893 188.53 37.5406 188.9 38.9126C189.388 40.5725 189 41.1196 190.506 42.0167C190.505 40.5229 191.073 39.0848 192.095 37.9951C193.139 36.9015 194.551 36.2336 196.058 36.1206C197.219 36.0365 198.375 36.2841 199.512 36.5303C200.615 36.7692 201.747 37.0202 202.682 37.6414C204.231 38.6707 204.958 40.5091 205.596 42.2335" fill="#2F2E41"/>
<path d="M133.537 71.3628H0V71.9753H133.537V71.3628Z" fill="#E6E6E6"/>
<path d="M133.537 47.4731H0V48.0857H133.537V47.4731Z" fill="#E6E6E6"/>
<path d="M133.537 23.5835H0V24.1961H133.537V23.5835Z" fill="#E6E6E6"/>
<path d="M107.136 0H106.523V95.5586H107.136V0Z" fill="#E6E6E6"/>
<path d="M80.429 0H79.8164V95.5586H80.429V0Z" fill="#E6E6E6"/>
<path d="M53.721 0H53.1084V95.5586H53.721V0Z" fill="#E6E6E6"/>
<path d="M27.0139 0H26.4014V95.5586H27.0139V0Z" fill="#E6E6E6"/>
<path d="M80.0913 48.0854C80.0269 48.0854 79.9595 48.0854 79.8952 48.0885C65.3226 48.1804 53.4788 58.6918 53.2981 71.6658C53.292 71.7699 53.292 71.871 53.292 71.9751C53.292 85.1481 65.3134 95.8647 80.0913 95.8647C94.8692 95.8647 106.891 85.1481 106.891 71.9751C106.891 58.8021 94.8692 48.0854 80.0913 48.0854ZM80.0913 95.2522C65.6533 95.2522 53.9045 84.8112 53.9045 71.9751C53.9045 71.6841 53.9107 71.3962 53.9259 71.1083C54.4253 58.9399 65.491 49.1268 79.1908 48.7133C79.488 48.7011 79.788 48.698 80.0913 48.698C94.5292 48.698 106.278 59.139 106.278 71.9751C106.278 84.8112 94.5292 95.2522 80.0913 95.2522Z" fill="#E6E6E6"/>
<path d="M65.3898 71.6738L63.8584 71.6652C63.8591 71.529 64.1043 58.0419 79.7699 57.1064L79.8611 58.6351C65.6535 59.4835 65.3939 71.1765 65.3898 71.6738Z" fill="#E6E6E6"/>
<path d="M95.5529 71.3627C95.4939 69.617 95.0844 67.901 94.3488 66.3167C93.6132 64.7325 92.5666 63.3123 91.2711 62.1407C88.2255 59.3635 84.2442 57.8377 80.1227 57.8681H80.092C71.6787 57.8681 64.8118 63.8926 64.6311 71.3627C64.625 71.4638 64.625 71.5679 64.625 71.669C64.625 75.5771 66.4535 79.1085 69.3875 81.6199C72.3834 84.137 76.1793 85.5022 80.092 85.4699H80.1227C88.6371 85.4545 95.559 79.2708 95.559 71.669C95.559 71.5679 95.559 71.4638 95.5529 71.3627Z" fill="#E6E6E6"/>
<path d="M80.245 23.8896H26.6465V47.7793H80.245V23.8896Z" fill="url(#paint0_linear_2049_4654)"/>
<path d="M26.6465 45.9414V71.6687L54.5177 46.8602L26.6465 45.9414Z" fill="url(#paint1_linear_2049_4654)"/>
<path d="M80.245 46.8602L80.245 47.7793L79.8958 48.0884L79.1915 48.7132C65.4917 49.1267 54.4259 58.9398 53.9266 71.1082L53.2988 71.6657L53.2926 71.6687V45.9414L80.245 46.8602Z" fill="url(#paint2_linear_2049_4654)"/>
<path d="M91.2711 62.1407L90.8116 62.548L69.8469 81.2126L69.3875 81.6199C66.4534 79.1085 64.6249 75.5771 64.6249 71.669C64.6249 71.5679 64.6249 71.4638 64.631 71.3627C64.8117 63.8926 71.6786 57.8681 80.0919 57.8681H80.1226C84.2442 57.8377 88.2255 59.3635 91.2711 62.1407Z" fill="url(#paint3_linear_2049_4654)"/>
</g>
<defs>
<linearGradient id="paint0_linear_2049_4654" x1="28.5003" y1="25.5" x2="79.5003" y2="71" gradientUnits="userSpaceOnUse">
<stop stop-color="#22DCD9"/>
<stop offset="0.333333" stop-color="#5456AB"/>
<stop offset="0.666667" stop-color="#97238A"/>
<stop offset="1" stop-color="#F73E94"/>
</linearGradient>
<linearGradient id="paint1_linear_2049_4654" x1="28.5003" y1="25.5" x2="79.5003" y2="71" gradientUnits="userSpaceOnUse">
<stop stop-color="#22DCD9"/>
<stop offset="0.333333" stop-color="#5456AB"/>
<stop offset="0.666667" stop-color="#97238A"/>
<stop offset="1" stop-color="#F73E94"/>
</linearGradient>
<linearGradient id="paint2_linear_2049_4654" x1="28.5003" y1="25.5" x2="79.5003" y2="71" gradientUnits="userSpaceOnUse">
<stop stop-color="#22DCD9"/>
<stop offset="0.333333" stop-color="#5456AB"/>
<stop offset="0.666667" stop-color="#97238A"/>
<stop offset="1" stop-color="#F73E94"/>
</linearGradient>
<linearGradient id="paint3_linear_2049_4654" x1="28.5003" y1="25.5" x2="79.5003" y2="71" gradientUnits="userSpaceOnUse">
<stop stop-color="#22DCD9"/>
<stop offset="0.333333" stop-color="#5456AB"/>
<stop offset="0.666667" stop-color="#97238A"/>
<stop offset="1" stop-color="#F73E94"/>
</linearGradient>
<clipPath id="clip0_2049_4654">
<rect width="224.015" height="160" fill="white"/>
</clipPath>
</defs>
</svg>
