<svg width="184" height="160" viewBox="0 0 184 160" fill="none" xmlns="http://www.w3.org/2000/svg">
<g clip-path="url(#clip0_59_6805)">
<path d="M85.9154 157.291C85.9809 157.294 86.0457 157.277 86.1011 157.242C86.1565 157.207 86.1998 157.156 86.2251 157.095C86.2504 157.035 86.2565 156.968 86.2425 156.904C86.2286 156.84 86.1953 156.782 86.1471 156.737L86.1252 156.65L86.1339 156.629C86.1999 156.473 86.3105 156.34 86.4518 156.247C86.593 156.154 86.7587 156.105 86.928 156.105C87.0972 156.106 87.2625 156.156 87.4031 156.251C87.5437 156.345 87.6533 156.479 87.7181 156.635C87.9772 157.259 88.3071 157.884 88.3883 158.544C88.4241 158.836 88.409 159.131 88.3437 159.418C88.9522 158.09 89.2682 156.647 89.2703 155.187C89.2704 154.821 89.25 154.455 89.2093 154.09C89.1756 153.792 89.1289 153.495 89.0691 153.201C88.7429 151.604 88.0426 150.108 87.0257 148.834C86.5335 148.565 86.1355 148.152 85.8852 147.651C85.7946 147.47 85.7305 147.278 85.695 147.079C85.8029 146.795 85.8596 146.493 85.8625 146.189C85.9399 146.071 86.0783 146.013 86.1628 145.899C86.5831 145.329 87.1622 145.428 87.4644 146.203C88.1102 146.528 88.1164 147.069 87.7202 147.589C87.4681 147.92 87.4335 148.367 87.2123 148.721C87.2351 148.75 87.2587 148.778 87.2815 148.808C87.6975 149.342 88.06 149.917 88.3639 150.522C88.29 149.844 88.3782 149.158 88.6213 148.52C88.8676 147.926 89.3294 147.425 89.7361 146.911C89.8436 146.773 89.9897 146.67 90.1558 146.615C90.3219 146.56 90.5006 146.556 90.6692 146.602C90.8379 146.649 90.989 146.744 91.1035 146.876C91.2179 147.009 91.2905 147.172 91.3121 147.346L91.3146 147.369C91.2542 147.403 91.1951 147.439 91.1372 147.477C91.0645 147.526 91.0082 147.595 90.9757 147.676C90.9431 147.757 90.9358 147.846 90.9547 147.932C90.9736 148.017 91.0178 148.094 91.0816 148.154C91.1454 148.214 91.2257 148.253 91.3121 148.266L91.3209 148.268C91.2994 148.485 91.2614 148.701 91.2072 148.913C91.7288 150.931 90.6026 151.665 88.9945 151.698C88.959 151.717 88.9244 151.735 88.8889 151.752C89.1942 152.617 89.3858 153.519 89.4587 154.433C89.4999 154.973 89.4975 155.515 89.4514 156.055L89.4541 156.035C89.5706 155.436 89.8905 154.895 90.3598 154.504C91.0567 153.931 92.0414 153.72 92.7933 153.26C92.8732 153.209 92.9661 153.181 93.061 153.181C93.156 153.181 93.249 153.208 93.3292 153.259C93.4094 153.31 93.4733 153.382 93.5134 153.468C93.5536 153.555 93.5683 153.65 93.5558 153.744L93.5528 153.764C93.4407 153.81 93.3315 153.863 93.226 153.922C93.1656 153.956 93.1065 153.992 93.0486 154.03C92.976 154.079 92.9197 154.148 92.8871 154.229C92.8545 154.311 92.8472 154.4 92.8661 154.485C92.885 154.57 92.9292 154.648 92.993 154.708C93.0568 154.767 93.1371 154.807 93.2235 154.82L93.2324 154.821L93.2506 154.824C93.0591 155.281 92.7903 155.702 92.456 156.068C92.1298 157.829 90.7288 157.996 89.2302 157.484H89.2293C89.0649 158.198 88.8266 158.894 88.5184 159.559H85.979C85.9699 159.531 85.9617 159.501 85.9535 159.473C86.1886 159.488 86.4245 159.474 86.6562 159.431C86.4678 159.2 86.2794 158.967 86.0909 158.736C86.0867 158.732 86.0828 158.727 86.0791 158.722C85.9835 158.604 85.8871 158.487 85.7915 158.368C85.7864 158.006 85.8281 157.644 85.9154 157.291Z" fill="#F2F2F2"/>
<path d="M22.6427 157.291C22.5772 157.294 22.5124 157.277 22.457 157.242C22.4016 157.207 22.3583 157.156 22.333 157.095C22.3077 157.035 22.3016 156.968 22.3156 156.904C22.3295 156.84 22.3628 156.782 22.411 156.737L22.4329 156.65L22.4242 156.629C22.3582 156.473 22.2476 156.34 22.1063 156.247C21.9651 156.154 21.7994 156.105 21.6301 156.105C21.4609 156.106 21.2956 156.156 21.155 156.251C21.0144 156.345 20.9049 156.479 20.84 156.635C20.5809 157.259 20.251 157.884 20.1698 158.544C20.134 158.836 20.1491 159.131 20.2144 159.418C19.6059 158.09 19.2899 156.647 19.2878 155.187C19.2877 154.821 19.3081 154.455 19.3488 154.09C19.3825 153.792 19.4292 153.495 19.489 153.201C19.8152 151.604 20.5155 150.108 21.5324 148.834C22.0246 148.565 22.4226 148.152 22.6729 147.651C22.7635 147.47 22.8276 147.278 22.8631 147.079C22.7553 146.795 22.6986 146.493 22.6956 146.189C22.6183 146.071 22.4798 146.013 22.3953 145.899C21.975 145.329 21.396 145.428 21.0937 146.203C20.4479 146.528 20.4417 147.069 20.8379 147.589C21.09 147.92 21.1246 148.367 21.3458 148.721C21.3231 148.75 21.2994 148.778 21.2766 148.808C20.8607 149.342 20.4981 149.917 20.1942 150.522C20.2681 149.844 20.1799 149.158 19.9368 148.52C19.6905 147.926 19.2287 147.425 18.8221 146.911C18.7145 146.773 18.5684 146.67 18.4024 146.615C18.2363 146.56 18.0576 146.556 17.8889 146.602C17.7202 146.649 17.5691 146.744 17.4547 146.876C17.3402 147.009 17.2676 147.172 17.246 147.346L17.2435 147.369C17.3039 147.403 17.3631 147.439 17.4209 147.477C17.4936 147.526 17.5499 147.595 17.5824 147.676C17.615 147.757 17.6223 147.846 17.6034 147.932C17.5845 148.017 17.5403 148.094 17.4765 148.154C17.4127 148.214 17.3324 148.253 17.246 148.266L17.2372 148.268C17.2587 148.485 17.2967 148.701 17.3509 148.913C16.8293 150.931 17.9555 151.665 19.5636 151.698C19.5991 151.717 19.6337 151.735 19.6692 151.752C19.3639 152.617 19.1723 153.519 19.0994 154.433C19.0582 154.973 19.0606 155.515 19.1067 156.055L19.104 156.035C18.9875 155.436 18.6676 154.895 18.1983 154.504C17.5014 153.931 16.5167 153.72 15.7649 153.26C15.685 153.209 15.592 153.181 15.4971 153.181C15.4021 153.181 15.3091 153.208 15.2289 153.259C15.1488 153.31 15.0848 153.382 15.0447 153.468C15.0045 153.555 14.9898 153.65 15.0023 153.744L15.0054 153.764C15.1175 153.81 15.2266 153.863 15.3321 153.922C15.3925 153.956 15.4517 153.992 15.5095 154.03C15.5822 154.079 15.6385 154.148 15.671 154.229C15.7036 154.311 15.7109 154.4 15.692 154.485C15.6731 154.57 15.6289 154.648 15.5651 154.708C15.5013 154.767 15.421 154.807 15.3346 154.82L15.3258 154.821L15.3076 154.824C15.4991 155.281 15.7679 155.702 16.1022 156.068C16.4283 157.829 17.8293 157.996 19.3279 157.484H19.3288C19.4932 158.198 19.7315 158.894 20.0397 159.559H22.5791C22.5882 159.531 22.5964 159.501 22.6046 159.473C22.3696 159.488 22.1336 159.474 21.902 159.431C22.0904 159.2 22.2788 158.967 22.4672 158.736C22.4714 158.732 22.4753 158.727 22.479 158.722C22.5746 158.604 22.6711 158.487 22.7666 158.368C22.7717 158.006 22.7301 157.644 22.6427 157.291Z" fill="#F2F2F2"/>
<path d="M61.0226 20.84C61.5363 19.8055 62.3575 18.9467 62.8598 17.9067C63.3621 16.8666 63.4598 15.4746 62.623 14.6786C61.9124 14.0026 60.7994 13.9932 59.9497 13.5036C57.7849 12.2562 57.7874 8.29439 55.3125 7.95207C54.109 7.7856 53.0201 8.68813 52.2927 9.66123C51.5653 10.6344 50.9857 11.7699 49.9769 12.4469C48.8349 13.2133 47.3585 13.2466 46.0904 13.7789C43.6591 14.7996 42.3844 17.424 41.3185 19.8359C40.6319 21.3897 39.9296 23.0655 40.2482 24.7341C39.5557 25.1649 39.8643 26.3238 40.5555 26.7566C41.2467 27.1895 42.1147 27.1799 42.9085 27.3674C44.5766 27.7615 45.9425 29.0894 46.59 30.6764C47.0947 31.9133 47.1979 33.2715 47.2953 34.6039C47.4643 36.9158 47.6332 39.2278 47.8022 41.5398C47.8774 42.5684 47.976 43.6615 48.6021 44.4811C49.2282 45.3006 50.584 45.6441 51.2878 44.8902C51.9604 44.1697 51.6575 43.0291 51.6438 42.0436C51.6302 41.0581 52.5211 39.8309 53.3611 40.3464L53.6574 39.6743C55.5761 38.9873 57.2562 37.7619 58.4966 36.1448C59.737 34.5277 60.4851 32.5874 60.6514 30.5562C60.866 27.2845 59.5641 23.7764 61.0226 20.84Z" fill="#E6E6E6"/>
<path d="M62.9833 41.5866C63.1686 41.4119 63.3001 41.1879 63.3623 40.9409C63.4244 40.694 63.4147 40.4344 63.3342 40.1928C63.2537 39.9511 63.1057 39.7376 62.9078 39.5773C62.7099 39.417 62.4703 39.3167 62.2172 39.2881L62.2204 39.3991C61.8593 39.61 61.4474 39.7182 61.0293 39.7122C60.6127 39.7056 60.198 39.7713 59.8038 39.9063C59.6078 39.9776 59.4379 40.1065 59.3166 40.2762C59.1953 40.4458 59.1282 40.6482 59.1241 40.8567C59.147 41.0165 59.2081 41.1685 59.3023 41.2996C59.3965 41.4308 59.5209 41.5373 59.665 41.61C59.9544 41.7526 60.2651 41.847 60.5849 41.8894C61.4088 42.0444 62.3732 42.1617 62.9833 41.5866Z" fill="#E6E6E6"/>
<path d="M79.0514 20.8948C79.3965 20.6601 79.6895 20.3567 79.912 20.0036C80.0198 19.8249 80.0711 19.6178 80.0592 19.4095C80.0472 19.2012 79.9725 19.0013 79.8449 18.8362C79.5851 18.6108 79.2507 18.49 78.9068 18.4973C77.973 18.4276 77.0344 18.5383 76.1423 18.8233C77.0583 19.6348 77.9743 20.4463 78.8902 21.2578L79.0514 20.8948Z" fill="#E6E6E6"/>
<path d="M74.4707 23.0055C74.8409 23.4141 74.7229 24.048 74.6181 24.5893C74.5133 25.1307 74.5 25.8072 74.9656 26.1025C75.3691 26.3585 75.9356 26.1496 76.2308 25.7737C76.4947 25.3729 76.6554 24.913 76.6988 24.4351C76.8439 23.7404 76.9094 23.0315 76.8942 22.322C76.8767 21.6072 76.6245 20.918 76.1766 20.3607C75.8587 19.9983 75.4353 19.7445 74.9658 19.6348C74.4964 19.5251 74.0043 19.5651 73.5587 19.7491L73.9843 19.7282C73.6749 20.1254 73.4404 20.5755 73.292 21.0567C73.221 21.2984 73.2159 21.5547 73.2774 21.799C73.339 22.0433 73.4648 22.2667 73.6418 22.4459C73.8942 22.6656 74.246 22.7575 74.4707 23.0055Z" fill="#E6E6E6"/>
<path d="M95.3508 16.152L95.4263 15.9189C95.1099 16.102 94.866 16.3882 94.7353 16.7296C94.6047 17.0711 94.5954 17.447 94.7088 17.7945C94.9522 17.6026 95.14 17.3492 95.2528 17.0604C95.3657 16.7717 95.3995 16.4581 95.3508 16.152Z" fill="#E6E6E6"/>
<path d="M91.2376 19.487C91.6405 19.2589 91.9844 18.9395 92.2416 18.5545C92.4988 18.1694 92.6623 17.7295 92.7188 17.2699C92.7625 16.9842 92.7294 16.692 92.623 16.4232C92.5683 16.2898 92.4816 16.1719 92.3704 16.0801C92.2592 15.9883 92.127 15.9254 91.9857 15.897L91.8134 16.1682C91.5662 15.9555 91.1511 16.1743 91.0471 16.4833C90.98 16.8043 91.0079 17.1377 91.1273 17.4431C91.2464 17.7502 91.241 18.0918 91.1122 18.395C90.9733 18.5733 90.8171 18.7375 90.6458 18.885C90.5621 18.9612 90.5074 19.064 90.4912 19.176C90.4749 19.288 90.4981 19.4022 90.5567 19.499C90.7189 19.6843 91.0223 19.6065 91.2376 19.487Z" fill="#E6E6E6"/>
<path d="M89.4839 17.972C89.6314 17.7065 89.701 17.4048 89.6846 17.1016L89.3077 16.9834C89.0668 17.0811 88.8532 17.2356 88.685 17.4338C88.634 17.485 88.5949 17.5469 88.5705 17.615C88.5462 17.683 88.5372 17.7557 88.5442 17.8277C88.5512 17.8996 88.574 17.9692 88.611 18.0313C88.648 18.0934 88.6983 18.1466 88.7583 18.187C88.8183 18.2274 88.8865 18.254 88.9579 18.265C89.0294 18.276 89.1024 18.271 89.1718 18.2505C89.2411 18.2299 89.305 18.1943 89.359 18.1462C89.4129 18.098 89.4556 18.0386 89.4839 17.972Z" fill="#E6E6E6"/>
<path d="M107.905 16.0645C107.939 16.093 107.973 16.1223 108.007 16.1511C108.037 16.1448 108.065 16.1335 108.096 16.1298L107.905 16.0645Z" fill="#E6E6E6"/>
<path d="M107.301 19.3722C107.647 19.0923 107.993 18.8124 108.339 18.5325C108.523 18.4024 108.679 18.2377 108.8 18.0477C108.883 17.8677 108.918 17.6698 108.904 17.4723C108.889 17.2749 108.825 17.0844 108.716 16.9185C108.525 16.6246 108.285 16.3652 108.007 16.1514C107.701 16.2237 107.433 16.4056 107.252 16.6626C107.072 16.9196 106.992 17.2338 107.027 17.5458C107.09 17.9427 107.339 18.3671 107.136 18.7135C107.057 18.8484 106.92 18.9403 106.829 19.0673C106.738 19.1943 106.708 19.3966 106.834 19.49C106.973 19.5937 107.166 19.4815 107.301 19.3722Z" fill="#E6E6E6"/>
<path d="M108.058 21.0853C108.186 21.0922 108.315 21.0714 108.435 21.0242C108.555 20.977 108.663 20.9046 108.752 20.8118C109.215 20.4328 109.62 19.9882 109.954 19.4922C109.175 19.7388 108.396 19.9854 107.618 20.232L107.861 20.5159C107.645 20.6566 107.805 21.0369 108.058 21.0853Z" fill="#E6E6E6"/>
<path d="M110.24 22.6883C110.287 22.8097 110.373 22.9122 110.484 22.9802C110.596 23.0481 110.726 23.0777 110.856 23.0645C110.985 23.0473 111.109 23.002 111.219 22.9317C111.328 22.8615 111.421 22.768 111.491 22.6579C111.609 22.4834 111.679 22.2804 111.693 22.07C111.706 21.8596 111.663 21.6493 111.569 21.461C111.474 21.2727 111.33 21.1132 111.153 20.9989C110.976 20.8846 110.771 20.8198 110.561 20.811L110.776 21.1394C110.83 21.7 110.068 22.1517 110.24 22.6883Z" fill="#E6E6E6"/>
<path d="M125.36 28.8276C125.571 28.9848 125.827 29.0694 126.089 29.0687C126.352 29.0681 126.607 28.9823 126.817 28.8242C126.953 28.708 127.064 28.5649 127.142 28.404C127.22 28.2431 127.264 28.0678 127.272 27.889C127.279 27.7102 127.249 27.5319 127.184 27.3651C127.12 27.1984 127.021 27.0468 126.895 26.9199L126.497 27.1419C126.277 27.0002 126.01 26.9495 125.753 27.0006C125.495 27.0517 125.268 27.2005 125.119 27.4158C124.984 27.6414 124.935 27.9075 124.979 28.1662C125.024 28.425 125.159 28.6595 125.36 28.8276Z" fill="#E6E6E6"/>
<path d="M129.984 29.351C130.178 29.2948 130.354 29.1898 130.495 29.0461C130.637 28.9024 130.739 28.7247 130.792 28.5302L130.019 28.4286C129.804 28.2662 129.554 28.1569 129.288 28.1095C129.155 28.0896 129.019 28.116 128.904 28.1842C128.788 28.2525 128.699 28.3585 128.652 28.4845C128.635 28.5917 128.647 28.7014 128.685 28.803C128.722 28.9046 128.786 28.9948 128.868 29.0649C129.014 29.2041 129.194 29.3035 129.389 29.3536C129.584 29.4037 129.789 29.4028 129.984 29.351Z" fill="#E6E6E6"/>
<path d="M126.792 30.8964C126.805 31.0222 126.854 31.1415 126.933 31.2403C127.012 31.3392 127.118 31.4136 127.237 31.4548C127.368 31.5168 127.514 31.5381 127.657 31.5159C127.8 31.4938 127.933 31.4293 128.039 31.3306C128.086 31.2779 128.119 31.2149 128.136 31.1467C128.154 31.0785 128.155 31.0071 128.139 30.9385C128.123 30.8699 128.091 30.806 128.046 30.7521C128.001 30.6983 127.943 30.656 127.878 30.6289L127.299 30.5235C127.075 30.4075 126.788 30.6442 126.792 30.8964Z" fill="#E6E6E6"/>
<path d="M93.1546 34.9727L92.7059 34.563C92.8253 34.7293 92.9781 34.8689 93.1546 34.9727Z" fill="#E6E6E6"/>
<path d="M89.7275 32.5604C90.0037 33.8432 91.3854 34.8882 92.6397 34.5028L92.7059 34.5632C92.3066 34.0166 92.2389 33.2079 92.3322 32.5046C92.5052 31.2995 92.979 30.1573 93.7099 29.1835C94.4407 28.2097 95.4051 27.4357 96.5139 26.9329C96.8176 26.8381 97.0892 26.6611 97.2987 26.4216C97.4774 26.1602 97.4107 25.7119 97.1027 25.638C96.9354 25.6189 96.7665 25.658 96.6246 25.7487L94.2936 26.896C93.1162 27.4754 91.9154 28.0715 90.9907 29.0025C90.0659 29.9335 89.4513 31.2775 89.7275 32.5604Z" fill="#E6E6E6"/>
<path d="M52.0998 76.6714C49.9279 75.1166 47.5491 73.8735 45.0326 72.9782C43.4859 72.4283 41.8239 72.0088 40.2123 72.3211C39.3285 72.5039 38.5003 72.8926 37.795 73.4556C37.0896 74.0187 36.5271 74.7401 36.153 75.5614C35.7926 76.3887 35.6231 77.2865 35.6571 78.1882C35.6911 79.0899 35.9277 79.9723 36.3494 80.7701C37.0926 82.1628 38.3795 83.2719 38.8098 84.7907C39.0998 85.8146 38.9624 86.9047 38.8228 87.9597C38.5375 90.1157 38.2522 92.2716 37.9668 94.4275C37.7071 96.3904 37.4539 98.4331 38.0754 100.313C38.6969 102.193 40.4703 103.85 42.4402 103.651L42.8306 103.621C41.5275 102.735 41.1623 100.901 41.5503 99.3733C41.9383 97.8459 42.923 96.5508 43.8845 95.3023C46.7378 91.5973 49.591 87.8923 52.4443 84.1873C53.5987 82.6883 54.8197 80.8355 54.2041 79.0465C53.8542 78.0295 52.9742 77.2976 52.0998 76.6714Z" fill="#E6E6E6"/>
<path d="M32.6549 67.3055C32.3659 67.2075 32.0607 67.4251 31.8908 67.6786C31.7535 67.9507 31.5921 68.2101 31.4087 68.4536C30.9642 68.9117 30.1542 68.8207 29.6748 68.3992C29.1954 67.9777 28.9877 67.3258 28.8947 66.6943C28.7831 65.9366 28.8313 65.0912 29.3314 64.5111C29.8462 63.9139 30.6923 63.7537 31.471 63.6297C32.2753 63.5015 33.1764 63.3947 33.8353 63.8733C34.2503 64.1748 34.4922 64.6614 34.8767 65.001C35.2612 65.3406 35.9451 65.4693 36.2344 65.0457C36.3102 64.8955 36.3485 64.7293 36.346 64.5612C36.3436 64.393 36.3006 64.228 36.2205 64.0801C36.0579 63.7855 35.96 63.4595 35.9335 63.124C35.9529 62.6583 36.3268 62.2883 36.7094 62.0221C37.092 61.756 37.524 61.5263 37.775 61.1336C38.0837 60.6506 38.051 60.0284 38.2425 59.4881C38.706 58.1804 40.3603 57.5986 40.8422 56.2975C40.9583 56.0239 40.9714 55.7174 40.879 55.4348C40.6772 54.9166 40.1321 55.0183 40.0986 54.3849C40.0666 53.7789 40.572 53.1848 41.0856 52.9317C41.7936 52.5828 42.6191 52.6111 43.4082 52.5899C44.1972 52.5687 45.0473 52.4638 45.6264 51.9274C45.8138 51.7342 45.9583 51.5036 46.0505 51.2507C46.1426 50.9978 46.1803 50.7283 46.1611 50.4598C46.142 50.1913 46.0663 49.9299 45.9391 49.6927C45.8119 49.4555 45.6361 49.2478 45.4231 49.0832C44.9916 48.7852 44.4461 48.6816 44.0262 48.3674C43.5033 47.9761 43.2558 47.3243 42.8485 46.8137C42.5097 46.4249 42.1219 46.0816 41.695 45.7924C41.3455 45.5331 40.996 45.2738 40.6465 45.0144C40.0147 44.5456 39.3573 44.0649 38.5885 43.8978C37.8197 43.7308 36.9042 43.9672 36.5192 44.6533C36.3673 44.959 36.2844 45.2944 36.2762 45.6357C36.2411 46.4393 36.2747 47.2444 36.3764 48.0423C36.4399 48.6846 36.5033 49.3268 36.5668 49.9691C36.6236 50.5449 36.5626 51.3039 36.0037 51.4534C34.7637 51.7849 35.1821 49.9515 34.9072 49.3899C34.4862 48.5302 32.5522 48.1173 31.7255 47.759C31.2091 47.5353 30.6642 47.2883 30.3524 46.8198C29.9644 46.2367 30.044 45.4431 30.3483 44.8123C30.6526 44.1815 31.1484 43.668 31.5988 43.1316C32.058 42.5849 32.4761 42.0052 32.8937 41.4261C33.378 40.7545 33.8623 40.0829 34.3467 39.4112C34.9678 38.5499 35.6209 37.4986 35.268 36.4969C35.1915 36.3629 35.0772 36.2544 34.9394 36.1851C34.8016 36.1158 34.6464 36.0886 34.4932 36.1071C34.34 36.1256 34.1957 36.1888 34.0783 36.2889C33.9609 36.389 33.8756 36.5216 33.8332 36.6699C33.6785 37.2107 34.0911 37.9011 33.6965 38.3019C33.5613 38.4107 33.3921 38.4686 33.2185 38.4654C33.0449 38.4621 32.8781 38.398 32.747 38.2841C32.4914 38.048 32.2967 37.7536 32.1796 37.426C31.7014 36.3634 31.2356 35.2942 30.7447 34.2375C30.5896 33.9034 30.4276 33.3313 29.9574 33.3877C29.5492 33.4366 29.3288 34.0314 29.343 34.3768C29.3636 34.8793 29.6413 35.3282 29.8536 35.7842C30.0659 36.2401 30.2143 36.7876 29.9812 37.2332C29.6861 37.7975 28.9388 37.9242 28.3023 37.9056C27.1026 37.8692 25.927 37.5591 24.8656 36.9988C24.8378 37.5884 24.8101 38.1781 24.7824 38.7677C23.9375 38.4141 23.0927 38.0605 22.2479 37.7069C22.0838 37.6382 21.9197 37.5696 21.7557 37.5009C21.043 37.2026 20.3295 36.904 19.5958 36.6618C19.1794 36.5243 18.7571 36.4053 18.3349 36.2863C18.0783 36.214 17.8217 36.1417 17.5651 36.0693C17.0588 35.8899 16.5217 35.8133 15.9854 35.844C15.4219 35.9147 14.9193 36.2174 14.3982 36.4436C13.2355 36.9483 11.7317 36.4406 10.4857 36.4316C9.99148 35.7101 9.32425 35.124 8.54502 34.7269C7.7658 34.3299 6.89946 34.1345 6.02524 34.1588C5.15102 34.183 4.29682 34.426 3.54078 34.8656C2.78474 35.3052 2.15098 35.9273 1.69747 36.6751C1.47841 37.054 1.28333 37.4462 1.11337 37.8495C0.944318 38.2284 0.775262 38.6072 0.606202 38.9861C0.358201 39.5419 0.10473 40.1274 0.153475 40.734C0.202221 41.3406 0.66727 41.9604 1.27583 41.9549C-0.159204 42.6045 -0.457816 44.8779 0.760763 45.8762C1.09819 46.1526 1.51197 46.3334 1.81562 46.6465C2.04512 46.8832 2.19866 47.1831 2.25653 47.5076C2.3144 47.8322 2.27397 48.1666 2.14042 48.4681C2.00687 48.7695 1.78629 49.0241 1.50699 49.1993C1.2277 49.3745 0.902436 49.4622 0.572938 49.4512C1.4231 49.7797 2.35956 49.8103 3.22933 49.5379C4.09911 49.2654 4.8508 48.7061 5.3616 47.9512C5.88259 47.1355 6.10902 46.1165 6.81775 45.4573C7.75634 44.5843 9.3067 44.6521 10.3892 45.3385C11.4718 46.0249 12.1566 47.1936 12.6277 48.3858C13.245 49.948 13.6401 51.7332 14.9552 52.7781C15.5911 53.2834 16.3964 53.5676 16.9585 54.1539C17.7589 54.9889 17.8974 56.2491 17.8793 57.4056C17.8613 58.5621 17.7367 59.762 18.158 60.8392C18.5793 61.9164 19.7871 62.8024 20.8701 62.3963C20.5598 63.3169 20.5694 64.3152 20.8971 65.2296C21.2249 66.144 21.8516 66.9211 22.676 67.435C22.4787 66.2111 22.2814 64.9873 22.0841 63.7634C23.0675 64.0403 23.7049 64.9942 24.073 65.9472C24.4411 66.9002 24.6356 67.9309 25.1692 68.8021C26.0094 70.1741 27.531 70.7652 29.0788 70.76C30.7509 70.7544 31.3857 69.9572 32.4876 68.7831C32.709 68.5828 32.877 68.3305 32.9765 68.049C33.0215 67.9071 33.0137 67.7537 32.9546 67.6171C32.8955 67.4805 32.7891 67.3698 32.6549 67.3055Z" fill="#E6E6E6"/>
<path d="M37.3895 67.2444C36.4549 67.0975 35.5203 66.9506 34.5857 66.8037C35.0756 67.0983 35.5656 67.3928 36.0555 67.6873C36.4641 67.9592 36.9083 68.1733 37.3756 68.3233C37.6099 68.397 37.8569 68.4218 38.1011 68.3961C38.3454 68.3703 38.5818 68.2947 38.7957 68.1738L38.6761 67.9451C38.4876 67.4686 37.8958 67.324 37.3895 67.2444Z" fill="#E6E6E6"/>
<path d="M36.7545 72.4397L36.761 72.4235C36.7044 72.3298 36.6212 72.2551 36.5219 72.2091C36.4226 72.163 36.3118 72.1477 36.2037 72.1652C35.9884 72.2037 35.7683 72.2072 35.5519 72.1758C35.4144 72.122 35.2918 72.0362 35.1943 71.9253C35.0968 71.8145 35.0272 71.682 34.9914 71.5388C34.8986 71.2593 34.8711 70.9602 34.7653 70.6854C34.6888 70.468 34.5539 70.2758 34.3753 70.1302C34.1968 69.9845 33.9815 69.8909 33.7531 69.8597C33.524 69.8414 33.2968 69.9139 33.1208 70.0617C32.9447 70.2094 32.8339 70.4206 32.8123 70.6494C32.8302 70.885 32.9051 71.1127 33.0304 71.3131C33.1312 71.507 33.232 71.7009 33.3329 71.8948C33.4178 72.0686 33.5155 72.2358 33.6252 72.3951C33.8037 72.641 34.037 72.8419 34.3067 72.9818C34.5764 73.1217 34.8749 73.1968 35.1787 73.2011C35.4825 73.2054 35.7831 73.1389 36.0566 73.0067C36.3301 72.8745 36.5691 72.6804 36.7545 72.4397Z" fill="#E6E6E6"/>
<path d="M31.2962 22.704C32.0079 23.1235 32.899 23.4127 33.2372 24.1665L33.4322 24.2295C33.2195 24.4939 33.0067 24.7583 32.7939 25.0227C32.5309 25.3494 32.2544 25.7135 32.2606 26.1328C32.2691 26.7104 32.8246 27.1461 33.386 27.2823C33.985 27.4055 34.6085 27.3018 35.1353 26.9913C35.6622 26.6807 36.0549 26.1855 36.2372 25.6017C36.3039 25.3583 36.3315 25.1057 36.39 24.8602C36.5606 24.2778 36.8182 23.7244 37.154 23.2189C39.0437 20.0396 40.9335 16.8604 42.8232 13.6811C43.0586 13.2852 43.3012 12.8115 43.1242 12.3863C43.0297 12.2064 42.8836 12.059 42.7046 11.9629C42.5256 11.8668 42.3219 11.8266 42.1198 11.8473C41.7165 11.8963 41.3274 12.0272 40.9765 12.2318C40.8206 11.958 40.6005 11.726 40.3352 11.5559C40.0699 11.3858 39.7673 11.2827 39.4533 11.2553C38.8255 11.2069 38.1941 11.2619 37.5841 11.4181C36.206 11.6261 34.8772 12.0825 33.6623 12.7654C32.9977 13.1014 32.2663 13.5163 32.0735 14.2356C31.8363 15.1205 32.6007 16.0223 33.4808 16.2766C34.3608 16.5309 35.3002 16.3173 36.191 16.1033C36.2916 16.5351 36.2497 16.9879 36.0714 17.3938C35.893 17.7998 35.588 18.137 35.2018 18.3549C34.8157 18.5729 34.3694 18.6598 33.9297 18.6027C33.49 18.5456 33.0807 18.3476 32.763 18.0383C32.1245 17.4166 31.8118 16.3373 30.9352 16.1769C30.0614 16.0169 29.3668 16.9489 29.1739 17.8161C28.9853 18.7501 29.0876 19.7195 29.4671 20.5935C29.8466 21.4675 30.485 22.2041 31.2962 22.704Z" fill="#E6E6E6"/>
<path d="M42.2564 38.0023C41.8356 36.8162 41.2825 35.6813 40.6076 34.619C40.0961 33.779 39.4648 33.0182 38.7335 32.3606C38.0653 31.7835 37.2971 31.3335 36.4669 31.0328C35.6611 30.7414 34.7639 30.5974 33.9492 30.8631C33.1346 31.1288 32.4415 31.8863 32.458 32.743C32.4763 33.6903 33.3051 34.4312 34.169 34.8204C35.0328 35.2097 35.9937 35.3791 36.8087 35.8623C37.3628 36.1984 37.8259 36.6654 38.1572 37.2224C38.4886 37.7793 38.678 38.4091 38.709 39.0565L38.9142 39.3959C38.4492 39.5499 38.0155 39.7861 37.6338 40.093C37.4447 40.2491 37.3002 40.4522 37.2148 40.682C37.1294 40.9118 37.1062 41.16 37.1475 41.4016C37.2899 41.9753 37.8756 42.3045 38.4052 42.5668C39.3839 43.0515 40.3625 43.5362 41.3411 44.0209C40.8428 42.535 42.4743 41.1524 42.5645 39.5878C42.568 39.0441 42.4632 38.5051 42.2564 38.0023Z" fill="#E6E6E6"/>
<path d="M17.6489 33.9906C18.2425 34.4516 19.1553 34.236 19.6992 33.7171C20.243 33.1983 20.5079 32.46 20.7549 31.75C20.6647 32.4527 20.6732 33.1645 20.7803 33.8648C20.836 34.215 20.9639 34.5498 21.1557 34.848C21.3476 35.1462 21.5993 35.4014 21.8948 35.5973C22.1632 35.7445 22.4525 35.8498 22.7526 35.9096C24.1481 36.2272 25.6065 36.123 26.9426 35.6102L26.9546 35.1533C26.2834 35.2299 25.7754 34.4937 25.7311 33.8196C25.6868 33.1455 25.9314 32.4844 25.953 31.8092C25.9745 31.1339 25.649 30.345 24.9842 30.2249C25.1006 30.4585 25.143 30.7221 25.1059 30.9805C25.0687 31.2389 24.9538 31.4799 24.7763 31.6714C24.5989 31.8628 24.3673 31.9957 24.1125 32.0523C23.8576 32.1089 23.5916 32.0866 23.3497 31.9883C22.5802 31.6754 22.3007 30.7379 21.706 30.1579C21.3386 29.8311 20.8827 29.6201 20.3957 29.5517C19.9088 29.4832 19.4124 29.5602 18.9691 29.773C18.5313 29.9963 18.1473 30.312 17.8436 30.6983C17.5398 31.0846 17.3236 31.5322 17.2098 32.0102C17.0292 32.7039 17.0828 33.551 17.6489 33.9906Z" fill="#E6E6E6"/>
<path d="M35.9707 29.1792L35.9982 29.1344C35.8325 28.6559 35.3188 28.3753 34.8174 28.304C34.3119 28.2707 33.8044 28.2875 33.3022 28.3541C32.7954 28.4197 32.2816 28.3065 31.8493 28.0341C31.5041 27.7761 31.3075 27.3701 31.0316 27.0391C30.7556 26.7081 30.309 26.4359 29.9082 26.5941C29.4743 26.7655 29.3585 27.3737 29.5691 27.7901C29.8172 28.1897 30.1914 28.4951 30.6326 28.6581C32.3033 29.425 34.1832 29.6085 35.9707 29.1792Z" fill="#E6E6E6"/>
<path d="M30.2678 30.6137C30.129 30.7153 30.0349 30.8667 30.0052 31.0362C29.9755 31.2057 30.0125 31.38 30.1084 31.5229C30.2043 31.6657 30.3517 31.7659 30.5198 31.8025C30.6879 31.8391 30.8637 31.8093 31.0103 31.7193L31.1567 31.8638C31.3514 31.5151 31.4317 31.048 31.1827 30.7358C31.072 30.6063 30.9174 30.5223 30.7486 30.4997C30.5798 30.4772 30.4086 30.5178 30.2678 30.6137Z" fill="#E6E6E6"/>
<path d="M28.5546 31.8648C28.5567 31.7402 28.5211 31.6179 28.4524 31.514C28.3837 31.41 28.2851 31.3293 28.1697 31.2824C28.0911 31.269 28.0106 31.2715 27.933 31.29C27.8554 31.3084 27.7824 31.3424 27.7183 31.3898C27.6542 31.4373 27.6004 31.4972 27.5601 31.566C27.5198 31.6347 27.4938 31.711 27.4837 31.7901C27.4716 31.9512 27.4928 32.1131 27.5459 32.2657C27.599 32.4183 27.6829 32.5584 27.7925 32.6772C27.8562 32.7729 27.9395 32.854 28.0368 32.9151C28.1341 32.9763 28.2434 33.0161 28.3572 33.032C28.5867 33.0395 28.8206 32.7996 28.7276 32.5897L28.3772 32.5829C28.4852 32.3583 28.5455 32.1138 28.5546 31.8648Z" fill="#E6E6E6"/>
<path d="M21.7034 28.2766C21.8321 28.3809 21.9608 28.4852 22.0894 28.5895C22.3123 28.7821 22.553 28.9531 22.8084 29.1C23.255 29.3474 23.7803 29.4117 24.2735 29.2793C24.5169 29.2099 24.739 29.0803 24.9192 28.9025C25.0994 28.7246 25.2319 28.5043 25.3046 28.2618C25.4584 27.6821 25.2075 27.0802 24.9619 26.533C24.9059 26.3765 24.8134 26.2355 24.6921 26.1217C24.63 26.0666 24.5507 26.0348 24.4678 26.0315C24.3848 26.0283 24.3033 26.0538 24.237 26.1038C24.189 26.1636 24.157 26.2348 24.1442 26.3104C24.1314 26.3861 24.1381 26.4638 24.1638 26.5361C24.2166 26.6803 24.2407 26.8333 24.2348 26.9867C24.2104 27.138 24.0516 27.281 23.9117 27.2185L23.8894 27.7335C23.2213 27.3953 22.868 26.4958 22.1246 26.4071C21.9577 26.3872 21.7886 26.4135 21.6356 26.4832C21.4827 26.5528 21.3518 26.6631 21.2573 26.802C21.1627 26.941 21.1082 27.1032 21.0995 27.271C21.0909 27.4388 21.1285 27.6058 21.2083 27.7537C21.3373 27.9589 21.5056 28.1366 21.7034 28.2766Z" fill="#E6E6E6"/>
<path d="M20.1123 26.0533C20.2668 25.9473 20.3891 25.8008 20.4657 25.6297C20.5422 25.4587 20.57 25.2699 20.546 25.084C20.5275 24.994 20.4894 24.9092 20.4344 24.8356C20.3794 24.762 20.3089 24.7014 20.2278 24.6581C20.1468 24.6149 20.0572 24.59 19.9654 24.5853C19.8736 24.5806 19.782 24.5962 19.6969 24.6309C19.506 24.7736 19.3719 24.9794 19.3185 25.2116C19.1424 25.7082 18.9664 26.2049 18.7903 26.7015L19.0862 26.4862C19.4523 26.4074 19.8004 26.2605 20.1123 26.0533Z" fill="#E6E6E6"/>
<path d="M23.5414 23.0055C23.5943 22.9388 23.6319 22.8614 23.6516 22.7786C23.6713 22.6958 23.6727 22.6097 23.6555 22.5264C23.6384 22.4431 23.6032 22.3645 23.5524 22.2962C23.5016 22.228 23.4365 22.1717 23.3616 22.1313L22.9916 22.0967C22.9074 22.118 22.8295 22.1587 22.7639 22.2156C22.6984 22.2725 22.6471 22.3439 22.6141 22.4242C22.5812 22.5045 22.5675 22.5914 22.5742 22.6779C22.5809 22.7644 22.6078 22.8482 22.6528 22.9224C22.6977 22.9967 22.7594 23.0594 22.8329 23.1054C22.9065 23.1515 22.9898 23.1798 23.0762 23.1878C23.1626 23.1959 23.2497 23.1836 23.3305 23.152C23.4113 23.1203 23.4835 23.0701 23.5414 23.0055Z" fill="#E6E6E6"/>
<path d="M26.9455 23.5765C27.2908 23.7417 27.7279 23.8991 28.0282 23.6619C28.1172 23.5813 28.1834 23.4788 28.2201 23.3645C28.2568 23.2503 28.2628 23.1284 28.2374 23.0111C28.1834 22.7771 28.0793 22.5577 27.932 22.368C27.4727 21.7085 26.8891 21.145 26.2139 20.709L26.0469 20.9259C25.8138 21.5314 25.5886 22.2382 25.9139 22.7996C26.1332 23.1781 26.5509 23.3877 26.9455 23.5765Z" fill="#E6E6E6"/>
<path d="M29.5177 24.1151L30.1634 24.4072C30.1001 24.2969 30.0036 24.2093 29.8877 24.1568C29.7718 24.1044 29.6424 24.0898 29.5177 24.1151Z" fill="#E6E6E6"/>
<path d="M27.7778 26.147L27.4727 26.2475C27.2133 26.6739 27.3258 27.219 27.4465 27.7032C27.5228 28.0094 27.6873 28.3861 28.0025 28.3721C28.3092 28.3586 28.4449 27.9867 28.5038 27.6854C28.5956 27.3581 28.6056 27.0132 28.5328 26.6812C28.4912 26.5168 28.3923 26.3727 28.2539 26.2747C28.1155 26.1768 27.9466 26.1315 27.7778 26.147Z" fill="#E6E6E6"/>
<path d="M22.9125 24.7119L23.1382 24.8028C23.1911 24.7953 23.2401 24.7705 23.2775 24.7323C23.3149 24.6941 23.3387 24.6446 23.3451 24.5915C23.3515 24.5384 23.3403 24.4847 23.3131 24.4387C23.2859 24.3927 23.2442 24.3569 23.1946 24.3369C23.145 24.317 23.0903 24.3139 23.0387 24.3282C22.9872 24.3426 22.9419 24.3735 22.9098 24.4162C22.8776 24.4589 22.8605 24.5111 22.8609 24.5645C22.8614 24.618 22.8795 24.6698 22.9125 24.7119Z" fill="#E6E6E6"/>
<path d="M34.2933 41.9739C34.184 41.9763 34.0768 42.0048 33.9807 42.0571C33.8846 42.1094 33.8024 42.1839 33.741 42.2744C33.6795 42.3649 33.6406 42.4688 33.6275 42.5773C33.6144 42.6859 33.6274 42.7961 33.6655 42.8986C33.8872 43.376 34.6506 43.3781 34.9899 42.9757C35.0768 42.8614 35.1391 42.7303 35.1728 42.5907C35.2065 42.4511 35.2109 42.3061 35.1857 42.1647C35.1606 42.0233 35.1063 41.8887 35.0265 41.7693C34.9467 41.65 34.843 41.5485 34.722 41.4712L34.2933 41.9739Z" fill="#E6E6E6"/>
<path d="M45.2895 53.2813C45.2008 53.305 45.1177 53.3462 45.0452 53.4025C44.9726 53.4589 44.9121 53.5292 44.8672 53.6093C44.8223 53.6894 44.794 53.7777 44.7838 53.869C44.7736 53.9602 44.7818 54.0526 44.808 54.1407L45.4418 54.1847C45.6564 54.077 45.871 53.9692 46.0857 53.8615C46.0727 53.7705 46.0416 53.6832 45.9943 53.6045C45.947 53.5258 45.8844 53.4573 45.8101 53.4033C45.7359 53.3492 45.6516 53.3105 45.5622 53.2896C45.4728 53.2686 45.3801 53.2658 45.2895 53.2813Z" fill="#E6E6E6"/>
<path d="M42.7132 54.0654C42.5319 54.1942 42.3863 54.3671 42.2903 54.5677C42.1942 54.7683 42.1508 54.99 42.1641 55.212C42.1848 55.4335 42.2753 55.6427 42.4227 55.8092C42.5702 55.9758 42.7668 56.0912 42.9841 56.1386C43.2035 56.173 43.4277 56.1228 43.6115 55.9982C43.7953 55.8735 43.9248 55.6837 43.974 55.4672C44.0812 54.8116 43.3766 54.3314 43.1234 53.7173L42.7132 54.0654Z" fill="#E6E6E6"/>
<path d="M67.3308 49.7357C67.3977 50.2278 66.9542 50.6589 66.9378 51.1554C66.9182 51.7444 67.5594 52.2026 68.1458 52.1448C68.4369 52.0944 68.7124 51.9771 68.9505 51.8022C69.1886 51.6273 69.3829 51.3996 69.5181 51.1369L69.5308 51.0816C69.2451 50.7588 68.9594 50.4359 68.6738 50.113C68.323 49.7165 67.9511 49.2652 67.9648 48.7359C67.9716 48.475 68.0744 48.2222 68.0686 47.9613C68.0549 47.7736 68.013 47.589 67.9444 47.4138C67.867 47.1829 67.7617 46.9228 67.5311 46.8449C67.2424 46.7474 66.951 47.0032 66.8132 47.275C66.6892 47.5257 66.629 47.8031 66.6378 48.0826C66.6465 48.3621 66.7241 48.6352 66.8635 48.8776C67.0303 49.1608 67.2865 49.4099 67.3308 49.7357Z" fill="#E6E6E6"/>
<path d="M64.6369 51.4673C64.6993 51.5011 64.7684 51.5209 64.8392 51.5254C64.9101 51.53 64.9811 51.5191 65.0473 51.4937C65.3019 51.4503 65.5465 51.3614 65.7695 51.2312C65.8803 51.1647 65.9714 51.0699 66.0334 50.9565C66.0955 50.8432 66.1263 50.7154 66.1228 50.5863C66.0842 50.4238 65.9983 50.2765 65.876 50.1629C65.7537 50.0494 65.6004 49.9746 65.4356 49.9481C65.3212 49.9079 65.1986 49.8964 65.0787 49.9147C64.9588 49.933 64.8453 49.9806 64.7481 50.0532C64.5352 50.2528 64.5607 50.5917 64.6024 50.8806L64.5575 50.9558C64.5175 51.1343 64.4918 51.3561 64.6369 51.4673Z" fill="#E6E6E6"/>
<path d="M109.601 72.501C109.539 72.3473 109.477 72.1937 109.415 72.04C109.331 72.2487 109.362 72.4622 109.601 72.501Z" fill="#E6E6E6"/>
<path d="M146.691 40.1825C145.898 39.3222 145.413 38.8263 144.912 37.76C144.639 37.1719 144.226 36.6604 143.707 36.2712C143.189 35.882 142.583 35.6271 141.942 35.5295C140.297 35.2585 138.616 35.6876 136.951 35.6016C134.284 35.4638 131.88 34.0335 129.326 33.2533C127.896 32.8527 126.44 32.5524 124.968 32.3546C124.12 32.2205 123.272 32.0864 122.424 31.9523C119.644 31.5126 116.847 31.0717 114.033 31.1301C113.221 31.147 112.091 30.9031 112.156 30.0942C112.237 29.0895 114.045 29.2214 114.392 28.2753C114.607 27.6901 114.092 27.0756 113.528 26.811C112.963 26.5463 112.312 26.4668 111.799 26.1115C111.287 25.7562 111.006 24.9326 111.477 24.5239C110.172 25.1931 108.867 25.8622 107.561 26.5313C106.476 27.0877 105.264 27.8114 105.072 29.0158C104.418 29.1886 103.846 29.5861 103.456 30.1387C102.721 30.1425 102.144 30.8474 102.023 31.5715C101.902 32.2957 102.122 33.0286 102.34 33.7299C102.074 33.2197 101.791 32.6901 101.321 32.3573C100.852 32.0244 100.137 31.961 99.7372 32.3745C99.3265 32.7988 99.4225 33.5108 99.7131 34.0249C100.004 34.539 100.45 34.9539 100.724 35.477C101.58 37.1105 100.029 39.4104 98.1935 39.2284C98.3166 37.5416 98.4396 35.8548 98.5628 34.1679C98.6408 33.6491 98.5971 33.1192 98.4353 32.6201C98.2351 32.1372 97.7225 31.7406 97.2123 31.8546C96.295 32.0597 96.3734 33.4033 96.755 34.2623C97.1366 35.1213 97.517 36.3158 96.738 36.8418C96.235 37.1815 95.553 36.9717 95.01 36.7006C94.467 36.4294 93.886 36.0953 93.2924 36.2219C92.6988 36.3486 92.3255 37.256 92.85 37.5616C91.9802 37.4104 91.1105 37.2593 90.2407 37.1081C90.1976 37.3641 90.1013 37.6083 89.958 37.8248C89.8147 38.0413 89.6276 38.2253 89.4087 38.3649C89.1898 38.5046 88.9441 38.5967 88.6873 38.6355C88.4306 38.6742 88.1686 38.6586 87.9183 38.5898C87.8329 38.236 87.7475 37.8821 87.6621 37.5282C87.5349 37.4928 87.4076 37.4574 87.2803 37.4219C87.6799 37.5332 87.0548 39.2181 86.4944 40.5051C85.7411 40.4168 84.6401 40.3998 84.5145 40.1839C83.913 39.1502 83.9844 36.6879 82.9393 36.1063C82.4152 35.8146 81.8777 35.5489 81.3269 35.309C81.0375 35.1713 80.7319 35.0709 80.4172 35.0103C79.7753 34.9092 79.1283 35.1082 78.5089 35.3049C77.7771 35.5373 77.0283 35.7785 76.4224 36.2501C75.905 36.6989 75.4614 37.2264 75.108 37.8131C73.9116 39.5837 72.7153 41.3544 71.5189 43.125C71.1625 43.5978 70.882 44.1234 70.6876 44.6827C70.5961 44.9609 70.5656 45.2555 70.5982 45.5465C70.6309 45.8375 70.726 46.118 70.877 46.3689C71.0362 46.6148 71.2734 46.8 71.5506 46.8948C71.8278 46.9895 72.1288 46.9882 72.4052 46.891C72.7519 46.7409 73.0992 46.4007 73.4428 46.5579C73.703 46.6769 73.7681 47.0189 73.7408 47.3037C73.6746 47.5826 73.6694 47.8725 73.7255 48.1536C73.882 48.597 74.4838 48.7513 74.9131 48.5594C75.3304 48.3317 75.6432 47.9509 75.7854 47.4973C76.1991 46.4365 76.1569 45.2628 76.2599 44.1289C76.3628 42.995 76.6728 41.7822 77.5668 41.0772C77.8344 40.8661 78.2275 40.714 78.503 40.9147C78.6061 41.0084 78.6774 41.132 78.7069 41.2682C78.7364 41.4045 78.7227 41.5465 78.6676 41.6745C78.5524 41.9278 78.4022 42.1637 78.2215 42.3753C77.916 42.805 77.7023 43.293 77.5935 43.8089C77.4848 44.3248 77.4834 44.8575 77.5894 45.3739L77.7722 45.487C78.4692 45.3062 79.4021 45.6299 80.3276 45.9404C79.6558 46.1401 79.0643 46.547 78.6375 47.1028C77.5678 48.6037 76.7936 50.024 74.6774 50.0062C74.1754 50.002 73.6777 49.9027 73.1757 49.9016C72.669 49.8703 72.1698 50.0365 71.783 50.3654C71.4024 50.7381 71.2848 51.3054 70.9592 51.727C70.5311 52.2813 69.8155 52.5067 69.1619 52.7585C68.6843 52.9424 68.1809 53.1906 67.9613 53.653C67.8234 54.0322 67.7916 54.4418 67.8693 54.8378C67.9429 55.538 68.0732 56.3344 68.6672 56.7124C68.8894 56.8283 69.1324 56.8988 69.382 56.9199C69.6317 56.9411 69.8831 56.9123 70.1215 56.8354C70.7394 56.6851 71.3438 56.402 71.9782 56.4443C72.9746 56.5107 73.795 57.4671 73.8051 58.4655C73.8102 58.9709 73.6627 59.5507 73.9977 59.9291C74.3125 60.2848 74.9369 60.2214 75.263 59.8761C75.4146 59.6924 75.5189 59.4744 75.5668 59.2411C75.6147 59.0078 75.6048 58.7664 75.5378 58.5378C75.3993 58.0825 75.1863 57.6534 74.9074 57.2678C75.239 57.1819 75.5901 57.2135 75.9011 57.3573C76.212 57.501 76.4635 57.748 76.6129 58.0563C76.8342 58.5479 76.7627 59.1152 76.8333 59.6497C76.9039 60.1843 77.2293 60.7783 77.7676 60.8091C77.9436 60.8141 78.1158 60.7572 78.2543 60.6485C78.3928 60.5398 78.4889 60.3861 78.5259 60.2139C78.5315 59.9426 78.5167 59.6713 78.4817 59.4023C78.5001 59.1375 78.6191 58.8897 78.8143 58.7098C79.0096 58.5299 79.2662 58.4315 79.5317 58.4348C79.368 58.7374 79.3147 59.0875 79.381 59.4251C79.4472 59.7627 79.6289 60.0668 79.8948 60.285C80.3045 60.602 80.8459 60.6729 81.3563 60.7615C81.8666 60.8501 82.4109 60.9901 82.7403 61.3899C83.2889 62.0558 82.6177 62.3557 82.5131 62.9196C82.3849 63.6119 82.9631 64.6342 83.1852 65.2965C84.2059 66.7244 85.2266 68.1523 86.2473 69.5802C86.4752 69.9274 86.7439 70.246 87.0478 70.5291C88.0553 71.3945 89.7164 71.3091 90.6827 70.3979C91.1511 69.9239 91.4553 69.3122 91.5505 68.6526C91.6458 67.9931 91.5271 67.3203 91.2119 66.7332C90.6147 65.6462 89.4316 64.973 88.8473 63.8791C89.8197 64.6841 91.0136 65.1751 92.2711 65.2871C94.4959 65.7393 96.6097 66.6257 98.4915 67.8959C98.5799 69.8619 99.3342 71.7393 100.631 73.22C100.864 71.5422 101.646 69.9888 102.855 68.8025C103.641 68.0356 104.716 67.4173 105.795 67.6235C106.874 67.8297 107.692 69.2055 107.04 70.089C107.586 70.1297 108.133 70.1704 108.68 70.211C108.925 70.8207 109.17 71.4303 109.415 72.04C109.459 71.9119 109.543 71.8011 109.654 71.7239C109.765 71.6467 109.898 71.6072 110.033 71.6111C110.545 71.6884 110.904 72.1646 111.391 72.3405C112.309 72.6719 113.29 71.7538 113.409 70.7852C113.527 69.8166 113.067 68.8815 112.619 68.0144C113.608 68.1976 114.629 68.0884 115.556 67.7003C116.484 67.3121 117.279 66.6619 117.843 65.8292C118.407 64.9965 118.715 64.0175 118.731 63.0119C118.748 62.0064 118.47 61.0179 117.933 60.1677C118.997 59.0501 120.249 58.1282 121.632 57.4441C122.912 56.8117 124.313 56.3776 125.431 55.4905C126.55 54.6034 127.335 53.063 126.797 51.7406C126.416 50.8064 125.463 50.1723 125.178 49.2049C124.765 47.8045 126.019 46.3561 127.437 46.0062C128.854 45.6563 130.335 46.0863 131.731 46.513C131.516 45.0762 133.182 43.7293 134.542 44.2395C135.112 44.0088 135.681 43.7782 136.251 43.5475C135.591 45.0034 134.16 45.9297 133.108 47.1333C132.055 48.3369 131.429 50.2969 132.528 51.4578C134.103 50.0299 135.679 48.602 137.254 47.1741C138.902 45.6805 140.55 44.1869 142.198 42.6933C142.119 42.4622 142.04 42.2311 141.962 41.9999C143.521 41.4077 145.2 40.9179 146.691 40.1825Z" fill="#E6E6E6"/>
<path d="M64.8629 59.3999C64.7993 59.4915 64.7654 59.6005 64.766 59.7121C64.7665 59.8237 64.8015 59.9324 64.8661 60.0234C64.9507 60.0953 65.0577 60.1354 65.1687 60.1369C65.2797 60.1384 65.3878 60.1012 65.4743 60.0316C65.6435 59.8871 65.7756 59.7042 65.8596 59.4982C65.9414 59.6565 66.07 59.7858 66.2279 59.8685C66.3858 59.9512 66.5653 59.9833 66.742 59.9604C67.095 59.9072 67.4294 59.7677 67.7156 59.5544C67.9427 59.4213 68.1431 59.2474 68.3069 59.0414C68.3879 58.9377 68.4435 58.8164 68.4693 58.6874C68.4951 58.5583 68.4903 58.425 68.4555 58.2981C68.3705 58.1035 68.2385 57.9331 68.0713 57.8021C67.6544 57.4171 67.2375 57.032 66.8207 56.6469L66.6794 56.6046C66.6059 56.5264 66.5173 56.4638 66.419 56.4207C66.3207 56.3775 66.2147 56.3547 66.1073 56.3536C66 56.3524 65.8935 56.373 65.7943 56.414C65.6951 56.455 65.6052 56.5157 65.53 56.5923C65.2712 56.8821 65.27 57.315 65.3096 57.7016C65.3492 58.0881 65.4107 58.4999 65.2386 58.8483C65.14 59.048 64.9728 59.2061 64.8629 59.3999Z" fill="#E6E6E6"/>
<path d="M89.0492 72.5534C87.4292 72.1927 85.9464 71.3759 84.7758 70.1994C83.6053 69.0228 82.796 67.5358 82.4437 65.914C82.2901 65.1486 82.2204 64.3124 81.7113 63.7207C81.2184 63.1479 80.4131 62.9411 79.6574 62.9412C78.9017 62.9413 78.1567 63.1152 77.4025 63.1622C76.0838 63.2444 74.6865 62.8961 73.7435 61.9706C73.2969 61.5324 72.9589 60.9758 72.4373 60.6301C71.7364 60.1656 70.8071 60.1659 70.0084 60.4291C69.1188 60.7223 68.4068 61.5246 67.4341 61.4142C66.4224 61.2993 65.25 60.9418 64.8534 62.2738C64.7392 62.6573 64.7781 63.078 64.6334 63.4512C64.4106 64.0262 63.8189 64.3504 63.3509 64.7521C62.4082 65.5613 61.9072 66.7905 61.7383 68.0213C61.5696 69.2521 61.7002 70.502 61.8309 71.7375C61.9014 72.4038 61.9942 73.1209 62.4519 73.6103C63.0899 74.2925 64.1606 74.2662 65.0915 74.1893C66.173 74.1 67.2545 74.0107 68.336 73.9214C68.919 73.8733 69.5832 73.8528 69.9983 74.2651C70.247 74.5121 70.3522 74.8695 70.5709 75.1434C70.7673 75.3765 71.0368 75.5362 71.3356 75.5964C71.6344 75.6566 71.9447 75.6139 72.2161 75.4751C71.9967 75.8669 71.8773 76.3067 71.8684 76.7556C71.8595 77.2045 71.9615 77.6487 72.1652 78.0488C72.3689 78.4489 72.6682 78.7927 73.0364 79.0495C73.4047 79.3064 73.8306 79.4686 74.2764 79.5216L74.3598 79.5742C73.6674 80.7599 72.949 82.0912 73.2361 83.4339C73.4823 84.5852 74.4358 85.5082 74.5917 86.6751C74.7347 87.7457 74.1761 88.8406 74.4232 89.8921C74.6735 90.957 75.7489 91.6993 76.8398 91.7786C77.9308 91.8578 79.0026 91.3739 79.8477 90.6793C80.6927 89.9848 81.3462 89.0903 81.99 88.206C82.3876 87.66 82.7953 87.0918 82.9318 86.4303C83.077 85.7264 82.9087 84.9464 83.2509 84.3144C83.6456 83.5856 84.5826 83.3125 85.0555 82.6318C85.6679 81.7504 85.3071 80.5501 85.4425 79.4854C85.7775 76.8505 89.1253 75.2084 89.0492 72.5534Z" fill="#E6E6E6"/>
<path d="M88.5657 81.5485C88.4741 81.9599 88.0889 82.2308 87.7219 82.4379C87.3548 82.6449 86.9511 82.8539 86.7641 83.2315C86.5725 83.6184 86.66 84.0794 86.7602 84.4993C86.9687 85.3728 87.2142 86.2363 87.4968 87.0898C88.0446 86.0548 88.5229 84.9844 88.9285 83.8858C89.1002 83.4768 89.2063 83.0433 89.2427 82.6012C89.2595 82.3799 89.2297 82.1575 89.1553 81.9484C89.0809 81.7393 88.9635 81.5482 88.8107 81.3872L88.5657 81.5485Z" fill="#E6E6E6"/>
<path d="M111.094 76.9663C110.634 76.4352 110.174 75.9042 109.714 75.3731C109.4 75.01 109.041 74.6221 108.564 74.5615L108.368 74.6869C108.767 75.6366 109.166 76.5863 109.565 77.536C109.706 77.9697 109.954 78.3606 110.287 78.6724C110.644 78.953 111.223 79.0069 111.521 78.6641C111.617 78.5356 111.677 78.3841 111.696 78.2248C111.715 78.0655 111.692 77.904 111.629 77.7565C111.499 77.4634 111.318 77.1958 111.094 76.9663Z" fill="#E6E6E6"/>
<path d="M115.552 77.9827C115.725 77.9223 115.885 77.8263 116.019 77.7008C116.154 77.5753 116.261 77.4231 116.333 77.2539C116.476 76.9149 116.57 76.5576 116.613 76.1924C116.692 75.7169 116.77 75.2414 116.849 74.7658L116.746 74.7394C116.646 74.6915 116.532 74.6814 116.426 74.711C116.319 74.7406 116.226 74.808 116.165 74.9005C116.05 75.0894 115.962 75.2941 115.905 75.5083C115.876 75.6153 115.823 75.7143 115.75 75.798C115.678 75.8817 115.587 75.9478 115.485 75.9915C115.116 76.1029 114.766 75.7116 114.381 75.7269C114.225 75.7467 114.08 75.8187 113.971 75.9311C113.861 76.0436 113.793 76.1898 113.777 76.346C113.755 76.6613 113.844 76.9744 114.03 77.2304C114.358 77.7406 114.968 78.1506 115.552 77.9827Z" fill="#E6E6E6"/>
<path d="M118.095 78.8844L119.155 76.0923C118.726 76.4038 118.396 76.834 118.208 77.33C118.02 77.8261 117.98 78.3663 118.095 78.8844Z" fill="#E6E6E6"/>
<path d="M123.505 76.6338L123.291 76.6429C123.195 76.8324 123.144 77.0414 123.142 77.2537C123.14 77.4661 123.187 77.676 123.279 77.8673C123.467 78.2487 123.741 78.5814 124.079 78.8395C124.603 79.2719 125.2 79.6057 125.843 79.8247C126.786 80.0997 127.761 80.2498 128.742 80.2712C129.304 80.308 129.865 80.3447 130.426 80.3814C130.693 80.3989 131.039 80.365 131.113 80.1076C131.175 79.8951 130.994 79.6953 130.825 79.5526C129.34 78.3031 127.54 77.4861 125.622 77.191C124.894 77.0804 124.122 77.0349 123.505 76.6338Z" fill="#E6E6E6"/>
<path d="M129.496 84.0436C129.092 83.6522 128.688 83.2608 128.285 82.8694C127.892 82.4888 127.304 82.0854 126.854 82.3962C126.596 82.5748 126.516 82.9232 126.297 83.1485C126.163 83.2681 126.002 83.3525 125.828 83.394C125.654 83.4355 125.472 83.4328 125.299 83.3862C124.954 83.2893 124.628 83.1349 124.335 82.9294L123.333 82.3079C122.988 82.0934 122.642 81.879 122.296 81.6646L121.517 82.4225C121.55 82.0495 121.053 81.8072 120.709 81.9546C120.545 82.0464 120.404 82.1739 120.297 82.3277C120.189 82.4814 120.118 82.6574 120.088 82.8426C120.03 83.2128 119.93 83.5751 119.79 83.9223C119.394 84.6804 118.432 84.905 117.586 85.0319C116.74 85.1589 115.782 85.3377 115.329 86.0634C114.952 86.6678 115.065 87.444 115.191 88.1451L115.668 90.7979C115.691 91.1193 115.819 91.424 116.034 91.664C116.453 92.0336 117.102 91.8089 117.613 91.5834C118.681 91.0696 119.828 90.7373 121.006 90.6002C122.194 90.4672 123.389 90.7734 124.367 91.4611C124.973 91.9226 125.435 92.5616 126.078 92.9715C126.52 93.2377 127.017 93.3993 127.532 93.4442C128.046 93.4891 128.564 93.416 129.046 93.2306C130.011 92.846 130.811 92.1332 131.303 91.2176C131.74 90.4102 131.959 89.503 131.939 88.5851C131.919 87.6673 131.661 86.7705 131.189 85.9829C130.707 85.2687 130.138 84.6172 129.496 84.0436Z" fill="#E6E6E6"/>
<path d="M128.306 94.8515C128.209 94.9691 128.152 95.1147 128.144 95.2668C128.136 95.4189 128.177 95.5697 128.26 95.6969C128.436 95.949 128.704 96.1215 129.006 96.1773C129.306 96.2308 129.611 96.2448 129.914 96.2188L129.923 95.9924C129.842 95.5953 129.659 95.2261 129.392 94.9216C129.099 94.6436 128.583 94.5583 128.306 94.8515Z" fill="#E6E6E6"/>
<path d="M138.699 95.0934L138.554 95.0405C138.21 95.5596 137.865 96.0787 137.521 96.5978C137.336 96.8771 137.142 97.2125 137.255 97.528C137.389 97.9014 137.884 98.0109 138.268 97.9122C138.561 97.8326 138.826 97.671 139.03 97.4464C139.235 97.2218 139.371 96.9435 139.423 96.6441C139.466 96.3433 139.42 96.0365 139.291 95.7613C139.163 95.486 138.957 95.254 138.699 95.0934Z" fill="#E6E6E6"/>
<path d="M141.324 93.4458L140.374 92.6899C140.361 93.0406 140.348 93.3913 140.335 93.7419L140.3 93.7425C140.519 93.9348 140.726 94.1406 140.92 94.3588C141.142 94.548 141.515 94.6346 141.706 94.4129C141.763 94.3335 141.795 94.2392 141.799 94.1416C141.802 94.044 141.777 93.9475 141.726 93.8641C141.622 93.6992 141.485 93.5569 141.324 93.4458Z" fill="#E6E6E6"/>
<path d="M124.147 60.5616C123.749 60.5491 123.307 60.5248 122.998 60.7773C122.896 60.8682 122.807 60.9722 122.733 61.0866L122.623 61.2392C122.46 61.4528 122.318 61.6815 122.199 61.9222C122.136 62.0351 122.099 62.16 122.089 62.2885C122.079 62.417 122.097 62.5462 122.141 62.6673C122.167 62.7252 122.204 62.7768 122.252 62.8183C122.3 62.8599 122.356 62.8905 122.417 62.908C122.478 62.9254 122.542 62.9293 122.604 62.9194C122.667 62.9094 122.726 62.8858 122.779 62.8503C122.949 62.6924 122.909 62.4059 123.038 62.2125C123.095 62.1396 123.168 62.081 123.251 62.0411C123.334 62.0013 123.426 61.9814 123.518 61.9829C123.702 61.9875 123.886 62.0083 124.066 62.0449C124.567 62.1134 125.076 62.0374 125.534 61.8257C125.992 61.6141 126.381 61.2757 126.653 60.8506C126.925 60.4254 127.07 59.9312 127.07 59.4264C127.07 58.9216 126.926 58.4272 126.655 58.0017L126.623 57.9037C126.346 57.8931 126.075 57.9798 125.856 58.1485C125.637 58.3173 125.485 58.5575 125.424 58.8274C125.335 59.2922 125.524 59.8322 125.243 60.2125C125.005 60.5332 124.546 60.5741 124.147 60.5616Z" fill="#E6E6E6"/>
<path d="M127.719 55.6337L127.658 55.6284C127.301 55.6936 126.959 55.8212 126.646 56.0054C126.544 56.053 126.462 56.136 126.416 56.2392C126.402 56.294 126.402 56.3512 126.416 56.4059C126.431 56.4605 126.458 56.5108 126.496 56.5522C126.574 56.6341 126.664 56.7023 126.765 56.7541C126.914 56.8536 127.078 56.9274 127.252 56.9722C127.339 56.9937 127.43 56.9932 127.517 56.9707C127.604 56.9483 127.684 56.9046 127.75 56.8436C127.812 56.7588 127.854 56.6615 127.874 56.5585C127.894 56.4556 127.892 56.3494 127.867 56.2476C127.838 56.0385 127.789 55.8328 127.719 55.6337Z" fill="#E6E6E6"/>
<path d="M121.57 60.6798C121.665 60.527 121.733 60.3587 121.77 60.1824C121.807 60.0456 121.844 59.9087 121.881 59.7719L121.484 59.5303C121.294 59.6292 121.119 59.7541 120.963 59.9014C120.886 59.9756 120.825 60.065 120.784 60.164C120.742 60.263 120.722 60.3694 120.724 60.4766C120.73 60.5837 120.771 60.6858 120.842 60.7662C120.913 60.8467 121.009 60.9008 121.115 60.9197C121.205 60.9224 121.294 60.9018 121.374 60.8597C121.453 60.8177 121.521 60.7557 121.57 60.6798Z" fill="#E6E6E6"/>
<path d="M78.2462 23.6984C78.0889 23.7964 78.1334 24.0334 78.1972 24.2074C78.2704 24.4071 78.3437 24.6069 78.4169 24.8066L78.5194 24.4189C78.6094 24.2685 78.6491 24.0933 78.6327 23.9188C78.5973 23.7484 78.3939 23.6063 78.2462 23.6984Z" fill="#E6E6E6"/>
<path d="M177.537 59.68H111.022C109.418 59.6782 107.881 59.0406 106.748 57.907C105.614 56.7733 104.977 55.2364 104.975 53.6332V6.04688C104.977 4.44371 105.614 2.90672 106.748 1.7731C107.881 0.639488 109.418 0.0018238 111.022 0H177.537C179.14 0.00182311 180.677 0.639488 181.811 1.7731C182.945 2.90672 183.582 4.44371 183.584 6.04688V53.6332C183.582 55.2364 182.945 56.7733 181.811 57.907C180.677 59.0406 179.14 59.6782 177.537 59.68Z" fill="white"/>
<path d="M177.537 59.68H111.022C109.418 59.6782 107.881 59.0406 106.748 57.907C105.614 56.7733 104.977 55.2364 104.975 53.6332V6.04688C104.977 4.44371 105.614 2.90672 106.748 1.7731C107.881 0.639488 109.418 0.0018238 111.022 0H177.537C179.14 0.00182311 180.677 0.639488 181.811 1.7731C182.945 2.90672 183.582 4.44371 183.584 6.04688V53.6332C183.582 55.2364 182.945 56.7733 181.811 57.907C180.677 59.0406 179.14 59.6782 177.537 59.68ZM111.022 0.525815C109.558 0.527457 108.154 1.10967 107.119 2.14471C106.084 3.17975 105.502 4.5831 105.501 6.04688V53.6332C105.502 55.0969 106.084 56.5003 107.119 57.5353C108.154 58.5704 109.558 59.1526 111.022 59.1542H177.537C179.001 59.1526 180.404 58.5704 181.439 57.5353C182.474 56.5003 183.057 55.0969 183.058 53.6332V6.04688C183.057 4.5831 182.474 3.17975 181.439 2.14471C180.404 1.10967 179.001 0.527457 177.537 0.525815H111.022Z" fill="#3F3D56"/>
<path d="M129.119 7.24535H118.602C118.324 7.24535 118.056 7.13456 117.859 6.93734C117.662 6.74012 117.551 6.47263 117.551 6.19372C117.551 5.91481 117.662 5.64732 117.859 5.4501C118.056 5.25289 118.324 5.14209 118.602 5.14209H129.119C129.398 5.14209 129.665 5.25289 129.862 5.4501C130.06 5.64732 130.17 5.91481 130.17 6.19372C130.17 6.47263 130.06 6.74012 129.862 6.93734C129.665 7.13456 129.398 7.24535 129.119 7.24535Z" fill="#CCCCCC"/>
<path d="M151.992 30.907H118.602C118.324 30.907 118.056 30.7962 117.859 30.599C117.662 30.4017 117.551 30.1343 117.551 29.8553C117.551 29.5764 117.662 29.3089 117.859 29.1117C118.056 28.9145 118.324 28.8037 118.602 28.8037H151.992C152.271 28.8037 152.538 28.9145 152.735 29.1117C152.933 29.3089 153.043 29.5764 153.043 29.8553C153.043 30.1343 152.933 30.4017 152.735 30.599C152.538 30.7962 152.271 30.907 151.992 30.907Z" fill="#CCCCCC"/>
<path d="M124.517 24.2683C128.411 24.2683 131.568 21.1115 131.568 17.2174C131.568 13.3233 128.411 10.1665 124.517 10.1665C120.623 10.1665 117.466 13.3233 117.466 17.2174C117.466 21.1115 120.623 24.2683 124.517 24.2683Z" fill="url(#paint0_linear_59_6805)"/>
<path d="M119.128 50.9902H117.551V51.516H119.128V50.9902Z" fill="#3F3D56"/>
<path d="M165.444 51.516H162.136V50.9902H165.444V51.516ZM158.828 51.516H155.519V50.9902H158.828V51.516ZM152.211 51.516H148.903V50.9902H152.211V51.516ZM145.595 51.516H142.286V50.9902H145.595L145.595 51.516ZM138.978 51.516H135.67V50.9902H138.978V51.516ZM132.361 51.516H129.053V50.9902H132.361L132.361 51.516ZM125.745 51.516H122.437V50.9902H125.745V51.516Z" fill="#3F3D56"/>
<path d="M170.33 50.9902H168.753V51.516H170.33V50.9902Z" fill="#3F3D56"/>
<path d="M144.325 41.6865H143.01V50.6254H144.325V41.6865Z" fill="url(#paint1_linear_59_6805)"/>
<path d="M157.733 41.6865H156.419V50.6254H157.733V41.6865Z" fill="url(#paint2_linear_59_6805)"/>
<path d="M164.306 46.6816H162.991V50.6253H164.306V46.6816Z" fill="url(#paint3_linear_59_6805)"/>
<path d="M150.898 37.7427H149.583V50.6252H150.898V37.7427Z" fill="url(#paint4_linear_59_6805)"/>
<path d="M23.6503 59.5641C24.5215 59.5641 25.2278 58.8578 25.2278 57.9866C25.2278 57.1154 24.5215 56.4092 23.6503 56.4092C22.7791 56.4092 22.0729 57.1154 22.0729 57.9866C22.0729 58.8578 22.7791 59.5641 23.6503 59.5641Z" fill="url(#paint5_linear_59_6805)"/>
<path d="M27.8568 51.9396C28.728 51.9396 29.4343 51.2333 29.4343 50.3621C29.4343 49.4909 28.728 48.7847 27.8568 48.7847C26.9857 48.7847 26.2794 49.4909 26.2794 50.3621C26.2794 51.2333 26.9857 51.9396 27.8568 51.9396Z" fill="url(#paint6_linear_59_6805)"/>
<path d="M74.1286 45.8927C74.9998 45.8927 75.706 45.1864 75.706 44.3152C75.706 43.444 74.9998 42.7378 74.1286 42.7378C73.2574 42.7378 72.5511 43.444 72.5511 44.3152C72.5511 45.1864 73.2574 45.8927 74.1286 45.8927Z" fill="url(#paint7_linear_59_6805)"/>
<path d="M37.9194 157.078L40.2988 157.078L41.4306 147.901L37.9189 147.901L37.9194 157.078Z" fill="#FFB6B6"/>
<path d="M37.8357 159.56L45.1522 159.56V159.468C45.1522 158.712 44.8521 157.988 44.3181 157.454C43.784 156.92 43.0597 156.62 42.3044 156.62L40.9678 155.606L38.4742 156.62L37.8355 156.62L37.8357 159.56Z" fill="#2F2E41"/>
<path d="M55.7972 157.078L58.1765 157.078L59.3083 147.901L55.7966 147.901L55.7972 157.078Z" fill="#FFB6B6"/>
<path d="M55.7134 159.56L63.03 159.56V159.468C63.0299 158.712 62.7299 157.988 62.1958 157.454C61.6617 156.92 60.9374 156.62 60.1821 156.62L58.8455 155.606L56.352 156.62L55.7133 156.62L55.7134 159.56Z" fill="#2F2E41"/>
<path d="M37.8269 82.4232L42.0494 81.8184C43.4775 84.2063 43.985 90.5622 43.985 90.5622L48.1173 100.384C48.391 100.57 48.6109 100.825 48.7548 101.123C48.8988 101.42 48.9617 101.751 48.9373 102.081C48.9129 102.411 48.802 102.728 48.6158 103.002C48.4296 103.275 48.1746 103.495 47.8766 103.638C47.5785 103.782 47.2479 103.845 46.918 103.82C46.5881 103.795 46.2706 103.684 45.9974 103.497C45.7241 103.311 45.5049 103.055 45.3616 102.757C45.2184 102.459 45.1563 102.128 45.1814 101.798L38.3965 90.3663L37.8269 82.4232Z" fill="#FFB6B6"/>
<path d="M40.1155 70.7007C39.4619 70.8019 38.8387 71.0459 38.2902 71.4154C37.7417 71.7848 37.2813 72.2706 36.9418 72.8382C36.6024 73.4058 36.3922 74.0412 36.3262 74.6993C36.2603 75.3573 36.3402 76.0218 36.5602 76.6455L37.4563 79.1853C37.4563 79.1853 36.3275 86.8325 38.1877 88.9911L43.8957 88.4744C43.8957 88.4744 42.8521 84.6163 43.6533 82.7496C44.144 81.6064 44.1168 77.6579 43.6333 74.4458C43.2641 71.9932 42.5666 70.3211 40.1155 70.7007Z" fill="#3F3D56"/>
<path d="M59.8001 93.7422C59.8001 93.7422 64.1999 98.0331 63.2603 99.0241C62.3207 100.015 60.1715 101.403 62.1663 101.629C64.1611 101.856 64.9886 102.346 63.2603 102.758C61.532 103.17 61.7991 104.229 61.7991 104.229C61.7991 104.229 64.401 116.615 62.4292 124.765C62.4292 124.765 61.3318 147.026 60.6432 148.76C59.9545 150.493 59.6916 149.442 59.9545 150.493C60.2174 151.545 60.7433 149.705 60.2174 151.545C59.9305 152.506 59.7033 153.485 59.5372 154.474L54.3941 153.685C54.3941 153.685 53.5661 151.075 54.3941 150.39C55.2222 149.705 55.965 150.127 55.0678 148.601C54.1706 147.076 53.9077 149.179 54.1706 147.076C54.4335 144.972 53.3359 133.597 55.0678 127.585L51.8673 110.716L46.7862 128.183C46.7862 128.183 44.0911 149.515 43.2154 150.267C42.3397 151.019 41.0252 149.705 42.3397 151.019C43.6543 152.334 43.6313 152.108 43.6543 152.334C43.8991 154.745 36.3721 152.108 36.3721 152.108C36.414 151.495 36.414 150.88 36.3721 150.267C36.2928 149.705 37.2402 149.525 36.3721 148.957C35.5041 148.39 36.7957 148.953 36.7957 148.953C36.7957 148.953 38.7367 133.215 40.2135 128.446L41.9224 105.222C41.9224 105.222 42.0309 105.685 41.9224 104.559C41.8139 103.433 41.0252 104.222 41.8139 103.433C42.6026 102.644 43.1284 102.242 42.6026 101.655C42.0768 101.067 40.6263 99.8777 41.483 99.1577C42.3397 98.4377 44.0257 93.7422 44.0257 93.7422L60.4574 93.8736" fill="#2F2E41"/>
<path d="M53.6221 67.6686L50.6592 64.3325L45.9776 64.8527L42.9803 69.0474C41.3849 69.4141 39.9907 70.3784 39.0846 71.7418C38.1785 73.1053 37.8294 74.7641 38.1091 76.3771C39.2723 83.0746 43.2251 89.5705 41.9199 92.8751C39.9386 97.8914 39.8177 99.9373 44.5603 99.234C49.3029 98.5307 65.1917 96.9094 62.1112 93.829C59.0307 90.7485 58.3541 85.6009 58.3541 85.6009L58.2306 73.8241C58.3616 73.1138 58.3441 72.3841 58.1794 71.6809C58.0146 70.9777 57.7061 70.3162 57.2732 69.738C56.8403 69.1598 56.2925 68.6775 55.6641 68.3213C55.0357 67.9652 54.3405 67.743 53.6221 67.6686Z" fill="#3F3D56"/>
<path d="M52.8127 80.5828L57.0351 79.978C58.4632 82.366 58.9707 88.7219 58.9707 88.7219L63.1031 98.5437C63.3767 98.7296 63.5966 98.9843 63.7405 99.2822C63.8845 99.58 63.9474 99.9106 63.923 100.24C63.8986 100.57 63.7877 100.888 63.6015 101.162C63.4153 101.435 63.1604 101.655 62.8623 101.798C62.5643 101.942 62.2337 102.004 61.9038 101.98C61.5739 101.955 61.2563 101.843 60.9831 101.657C60.7099 101.47 60.4906 101.215 60.3474 100.917C60.2041 100.619 60.142 100.288 60.1672 99.9582L53.3823 88.526L52.8127 80.5828Z" fill="#FFB6B6"/>
<path d="M55.1012 68.8604C54.4477 68.9616 53.8245 69.2056 53.2759 69.575C52.7274 69.9445 52.267 70.4303 51.9276 70.9979C51.5881 71.5655 51.378 72.2009 51.312 72.8589C51.246 73.517 51.3259 74.1815 51.5459 74.8052L52.442 77.3449C52.442 77.3449 51.3133 84.9922 53.1735 87.1508L58.8815 86.6341C58.8815 86.6341 57.8379 82.7759 58.6391 80.9092C59.1298 79.766 59.1025 75.8175 58.619 72.6055C58.2498 70.1529 57.5523 68.4808 55.1012 68.8604Z" fill="#3F3D56"/>
<path d="M47.0311 64.0452C50.1562 64.0452 52.6897 61.5118 52.6897 58.3866C52.6897 55.2615 50.1562 52.728 47.0311 52.728C43.9059 52.728 41.3725 55.2615 41.3725 58.3866C41.3725 61.5118 43.9059 64.0452 47.0311 64.0452Z" fill="#FFB6B6"/>
<path d="M45.9904 63.9261C47.5664 63.5312 47.62 63.0809 49.196 62.686C49.6978 62.5603 50.2792 62.3623 50.4279 61.8668C50.4633 61.6856 50.456 61.4986 50.4068 61.3207C50.3577 61.1427 50.2679 60.9786 50.1445 60.8412C49.8962 60.5693 49.6636 60.2834 49.4478 59.985C49.3049 59.7453 49.2225 59.4744 49.2077 59.1957C49.193 58.917 49.2463 58.6389 49.3631 58.3854C49.4799 58.132 49.6566 57.9108 49.8781 57.7409C50.0996 57.5711 50.359 57.4577 50.6341 57.4107C51.1216 57.3272 51.6243 57.4564 52.115 57.3939C52.7879 57.3082 53.7776 54.8116 53.3462 54.2881C52.9263 53.7786 52.2371 53.4745 52.0056 52.8562C51.8541 52.4518 51.9369 51.9995 51.8694 51.573C51.7694 50.9405 50.4896 52.6916 50.6599 52.0744C51.0778 50.5603 44.0074 50.3218 43.2713 52.2643C42.9962 52.9903 42.2514 53.1057 41.6786 53.6297C41.3031 53.9732 40.4051 55.0723 40.2749 55.6646C40.1671 56.2636 40.1879 56.8787 40.3358 57.4691C40.923 60.2364 41.8936 62.689 44.477 63.8419" fill="#2F2E41"/>
<path d="M1.36757 159.919L103.829 160C103.871 160 103.911 159.992 103.95 159.976C103.988 159.961 104.022 159.938 104.051 159.908C104.081 159.879 104.104 159.845 104.119 159.807C104.135 159.769 104.143 159.728 104.143 159.687C104.143 159.646 104.135 159.605 104.119 159.567C104.104 159.529 104.081 159.494 104.051 159.465C104.022 159.436 103.988 159.413 103.95 159.397C103.911 159.382 103.871 159.374 103.829 159.374L1.36757 159.293C1.32638 159.293 1.28558 159.301 1.24749 159.317C1.20941 159.332 1.17479 159.355 1.14563 159.384C1.11646 159.413 1.09333 159.448 1.07754 159.486C1.06175 159.524 1.05362 159.565 1.05362 159.606C1.05362 159.647 1.06175 159.688 1.07754 159.726C1.09333 159.764 1.11646 159.799 1.14563 159.828C1.17479 159.857 1.20941 159.88 1.24749 159.895C1.28558 159.911 1.32638 159.919 1.36757 159.919Z" fill="#CACACA"/>
</g>
<defs>
<linearGradient id="paint0_linear_59_6805" x1="124.517" y1="10.1665" x2="124.517" y2="24.2683" gradientUnits="userSpaceOnUse">
<stop stop-color="#22DCD9"/>
<stop offset="0.333333" stop-color="#5456AB"/>
<stop offset="0.666667" stop-color="#97238A"/>
<stop offset="1" stop-color="#F73E94"/>
</linearGradient>
<linearGradient id="paint1_linear_59_6805" x1="143.668" y1="41.6865" x2="143.668" y2="50.6254" gradientUnits="userSpaceOnUse">
<stop stop-color="#22DCD9"/>
<stop offset="0.333333" stop-color="#5456AB"/>
<stop offset="0.666667" stop-color="#97238A"/>
<stop offset="1" stop-color="#F73E94"/>
</linearGradient>
<linearGradient id="paint2_linear_59_6805" x1="157.076" y1="41.6865" x2="157.076" y2="50.6254" gradientUnits="userSpaceOnUse">
<stop stop-color="#22DCD9"/>
<stop offset="0.333333" stop-color="#5456AB"/>
<stop offset="0.666667" stop-color="#97238A"/>
<stop offset="1" stop-color="#F73E94"/>
</linearGradient>
<linearGradient id="paint3_linear_59_6805" x1="163.649" y1="46.6816" x2="163.649" y2="50.6253" gradientUnits="userSpaceOnUse">
<stop stop-color="#22DCD9"/>
<stop offset="0.333333" stop-color="#5456AB"/>
<stop offset="0.666667" stop-color="#97238A"/>
<stop offset="1" stop-color="#F73E94"/>
</linearGradient>
<linearGradient id="paint4_linear_59_6805" x1="150.24" y1="37.7427" x2="150.24" y2="50.6252" gradientUnits="userSpaceOnUse">
<stop stop-color="#22DCD9"/>
<stop offset="0.333333" stop-color="#5456AB"/>
<stop offset="0.666667" stop-color="#97238A"/>
<stop offset="1" stop-color="#F73E94"/>
</linearGradient>
<linearGradient id="paint5_linear_59_6805" x1="23.6503" y1="56.4092" x2="23.6503" y2="59.5641" gradientUnits="userSpaceOnUse">
<stop stop-color="#22DCD9"/>
<stop offset="0.333333" stop-color="#5456AB"/>
<stop offset="0.666667" stop-color="#97238A"/>
<stop offset="1" stop-color="#F73E94"/>
</linearGradient>
<linearGradient id="paint6_linear_59_6805" x1="27.8568" y1="48.7847" x2="27.8568" y2="51.9396" gradientUnits="userSpaceOnUse">
<stop stop-color="#22DCD9"/>
<stop offset="0.333333" stop-color="#5456AB"/>
<stop offset="0.666667" stop-color="#97238A"/>
<stop offset="1" stop-color="#F73E94"/>
</linearGradient>
<linearGradient id="paint7_linear_59_6805" x1="74.1286" y1="42.7378" x2="74.1286" y2="45.8927" gradientUnits="userSpaceOnUse">
<stop stop-color="#22DCD9"/>
<stop offset="0.333333" stop-color="#5456AB"/>
<stop offset="0.666667" stop-color="#97238A"/>
<stop offset="1" stop-color="#F73E94"/>
</linearGradient>
<clipPath id="clip0_59_6805">
<rect width="183.584" height="160" fill="white"/>
</clipPath>
</defs>
</svg>
