<svg width="238" height="160" viewBox="0 0 238 160" fill="none" xmlns="http://www.w3.org/2000/svg">
<g clip-path="url(#clip0_59_6898)">
<path d="M235.533 132.147H118.241C117.831 132.147 117.438 131.983 117.148 131.693C116.857 131.403 116.694 131.01 116.694 130.6V1.54739C116.694 1.13714 116.857 0.743828 117.148 0.453738C117.438 0.163648 117.831 0.000469339 118.241 0H235.533C235.944 0.000469339 236.337 0.163648 236.627 0.453738C236.917 0.743828 237.08 1.13714 237.081 1.54739V130.6C237.08 131.01 236.917 131.403 236.627 131.693C236.337 131.983 235.944 132.147 235.533 132.147ZM118.241 0.618955C117.995 0.619224 117.759 0.717127 117.585 0.891184C117.411 1.06524 117.313 1.30124 117.313 1.54739V130.6C117.313 130.846 117.411 131.082 117.585 131.256C117.759 131.43 117.995 131.528 118.241 131.528H235.533C235.779 131.528 236.015 131.43 236.189 131.256C236.364 131.082 236.461 130.846 236.462 130.6V1.54739C236.461 1.30124 236.364 1.06524 236.189 0.891184C236.015 0.717127 235.779 0.619224 235.533 0.618955H118.241Z" fill="#3F3D56"/>
<path d="M168.841 49.2072H139.75C139.34 49.2067 138.946 49.0435 138.656 48.7534C138.366 48.4633 138.203 48.07 138.203 47.6598V18.5689C138.203 18.1586 138.366 17.7653 138.656 17.4752C138.946 17.1851 139.34 17.022 139.75 17.0215H168.841C169.251 17.022 169.644 17.1851 169.934 17.4752C170.225 17.7653 170.388 18.1586 170.388 18.5689V47.6598C170.388 48.07 170.225 48.4633 169.934 48.7534C169.644 49.0435 169.251 49.2067 168.841 49.2072ZM139.75 17.6404C139.504 17.6407 139.268 17.7386 139.094 17.9127C138.92 18.0867 138.822 18.3227 138.821 18.5689V47.6598C138.822 47.9059 138.92 48.1419 139.094 48.316C139.268 48.49 139.504 48.5879 139.75 48.5882H168.841C169.087 48.5879 169.323 48.49 169.497 48.316C169.671 48.1419 169.769 47.9059 169.769 47.6598V18.5689C169.769 18.3227 169.671 18.0867 169.497 17.9127C169.323 17.7386 169.087 17.6407 168.841 17.6404H139.75Z" fill="#F2F2F2"/>
<path d="M160.485 52.7659H131.394C131.025 52.7654 130.671 52.6186 130.41 52.3575C130.149 52.0964 130.002 51.7424 130.001 51.3732V22.2823C130.002 21.9131 130.149 21.5591 130.41 21.298C130.671 21.0369 131.025 20.8901 131.394 20.8896H160.485C160.854 20.8901 161.208 21.0369 161.469 21.298C161.73 21.5591 161.877 21.9131 161.878 22.2823V51.3732C161.877 51.7424 161.73 52.0964 161.469 52.3575C161.208 52.6186 160.854 52.7654 160.485 52.7659Z" fill="url(#paint0_linear_59_6898)"/>
<path d="M222.38 67.0021H131.394C131.025 67.0021 130.67 66.8554 130.409 66.5942C130.148 66.333 130.001 65.9788 130.001 65.6094C130.001 65.2401 130.148 64.8859 130.409 64.6247C130.67 64.3635 131.025 64.2168 131.394 64.2168H222.38C222.75 64.2168 223.104 64.3635 223.365 64.6247C223.626 64.8859 223.773 65.2401 223.773 65.6094C223.773 65.9788 223.626 66.333 223.365 66.5942C223.104 66.8554 222.75 67.0021 222.38 67.0021Z" fill="#CCCCCC"/>
<path d="M200.408 76.5958H131.394C131.025 76.5958 130.67 76.4491 130.409 76.1879C130.148 75.9268 130.001 75.5726 130.001 75.2032C130.001 74.8338 130.148 74.4796 130.409 74.2184C130.67 73.9573 131.025 73.8105 131.394 73.8105H200.408C200.777 73.8105 201.131 73.9573 201.392 74.2184C201.653 74.4796 201.8 74.8338 201.8 75.2032C201.8 75.5726 201.653 75.9268 201.392 76.1879C201.131 76.4491 200.777 76.5958 200.408 76.5958Z" fill="#CCCCCC"/>
<path d="M222.071 31.7213H181.839C181.47 31.7213 181.115 31.5746 180.854 31.3134C180.593 31.0523 180.446 30.698 180.446 30.3287C180.446 29.9593 180.593 29.6051 180.854 29.3439C181.115 29.0828 181.47 28.936 181.839 28.936H222.071C222.44 28.936 222.795 29.0828 223.056 29.3439C223.317 29.6051 223.464 29.9593 223.464 30.3287C223.464 30.698 223.317 31.0523 223.056 31.3134C222.795 31.5746 222.44 31.7213 222.071 31.7213Z" fill="#CCCCCC"/>
<path d="M212.03 41.3151H181.839C181.47 41.3151 181.115 41.1684 180.854 40.9072C180.593 40.646 180.446 40.2918 180.446 39.9224C180.446 39.5531 180.593 39.1989 180.854 38.9377C181.115 38.6765 181.47 38.5298 181.839 38.5298H212.03C212.4 38.5298 212.754 38.6765 213.015 38.9377C213.276 39.1989 213.423 39.5531 213.423 39.9224C213.423 40.2918 213.276 40.646 213.015 40.9072C212.754 41.1684 212.4 41.3151 212.03 41.3151Z" fill="#CCCCCC"/>
<path d="M222.38 86.1896H131.394C131.025 86.1896 130.67 86.0429 130.409 85.7817C130.148 85.5205 130.001 85.1663 130.001 84.7969C130.001 84.4276 130.148 84.0734 130.409 83.8122C130.67 83.551 131.025 83.4043 131.394 83.4043H222.38C222.75 83.4043 223.104 83.551 223.365 83.8122C223.626 84.0734 223.773 84.4276 223.773 84.7969C223.773 85.1663 223.626 85.5205 223.365 85.7817C223.104 86.0429 222.75 86.1896 222.38 86.1896Z" fill="#CCCCCC"/>
<path d="M200.408 95.7833H131.394C131.025 95.7833 130.67 95.6366 130.409 95.3754C130.148 95.1143 130.001 94.7601 130.001 94.3907C130.001 94.0213 130.148 93.6671 130.409 93.4059C130.67 93.1448 131.025 92.998 131.394 92.998H200.408C200.777 92.998 201.131 93.1448 201.392 93.4059C201.653 93.6671 201.8 94.0213 201.8 94.3907C201.8 94.7601 201.653 95.1143 201.392 95.3754C201.131 95.6366 200.777 95.7833 200.408 95.7833Z" fill="#CCCCCC"/>
<path d="M222.38 105.377H131.394C131.025 105.377 130.67 105.23 130.409 104.969C130.148 104.708 130.001 104.354 130.001 103.984C130.001 103.615 130.148 103.261 130.409 103C130.67 102.739 131.025 102.592 131.394 102.592H222.38C222.75 102.592 223.104 102.739 223.365 103C223.626 103.261 223.773 103.615 223.773 103.984C223.773 104.354 223.626 104.708 223.365 104.969C223.104 105.23 222.75 105.377 222.38 105.377Z" fill="#CCCCCC"/>
<path d="M222.38 114.971H131.394C131.025 114.971 130.67 114.824 130.409 114.563C130.148 114.302 130.001 113.948 130.001 113.578C130.001 113.209 130.148 112.855 130.409 112.593C130.67 112.332 131.025 112.186 131.394 112.186H222.38C222.75 112.186 223.104 112.332 223.365 112.593C223.626 112.855 223.773 113.209 223.773 113.578C223.773 113.948 223.626 114.302 223.365 114.563C223.104 114.824 222.75 114.971 222.38 114.971Z" fill="#CCCCCC"/>
<path d="M149.012 120.174H82.4746C82.0644 120.173 81.671 120.01 81.381 119.72C81.0909 119.43 80.9277 119.037 80.9272 118.626V77.4658C80.9277 77.0556 81.0909 76.6623 81.381 76.3722C81.671 76.0821 82.0644 75.9189 82.4746 75.9185H149.012C149.423 75.9189 149.816 76.0821 150.106 76.3722C150.396 76.6623 150.559 77.0556 150.56 77.4658V118.626C150.559 119.037 150.396 119.43 150.106 119.72C149.816 120.01 149.423 120.173 149.012 120.174Z" fill="white"/>
<path d="M149.012 120.174H82.4746C82.0644 120.173 81.671 120.01 81.381 119.72C81.0909 119.43 80.9277 119.037 80.9272 118.626V77.4658C80.9277 77.0556 81.0909 76.6623 81.381 76.3722C81.671 76.0821 82.0644 75.9189 82.4746 75.9185H149.012C149.423 75.9189 149.816 76.0821 150.106 76.3722C150.396 76.6623 150.559 77.0556 150.56 77.4658V118.626C150.559 119.037 150.396 119.43 150.106 119.72C149.816 120.01 149.423 120.173 149.012 120.174ZM82.4746 76.5374C82.2285 76.5377 81.9925 76.6356 81.8184 76.8096C81.6443 76.9837 81.5464 77.2197 81.5462 77.4658V118.626C81.5464 118.873 81.6443 119.109 81.8184 119.283C81.9925 119.457 82.2285 119.555 82.4746 119.555H149.012C149.258 119.555 149.494 119.457 149.669 119.283C149.843 119.109 149.94 118.873 149.941 118.626V77.4658C149.94 77.2197 149.843 76.9837 149.669 76.8096C149.494 76.6356 149.258 76.5377 149.012 76.5374H82.4746Z" fill="#3F3D56"/>
<path d="M135.86 94.6417H95.6274C95.258 94.6417 94.9038 94.495 94.6426 94.2338C94.3815 93.9727 94.2347 93.6184 94.2347 93.2491C94.2347 92.8797 94.3815 92.5255 94.6426 92.2643C94.9038 92.0032 95.258 91.8564 95.6274 91.8564H135.86C136.229 91.8564 136.583 92.0032 136.844 92.2643C137.105 92.5255 137.252 92.8797 137.252 93.2491C137.252 93.6184 137.105 93.9727 136.844 94.2338C136.583 94.495 136.229 94.6417 135.86 94.6417Z" fill="#CCCCCC"/>
<path d="M135.86 104.235H95.6274C95.258 104.235 94.9038 104.089 94.6426 103.828C94.3815 103.566 94.2347 103.212 94.2347 102.843C94.2347 102.473 94.3815 102.119 94.6426 101.858C94.9038 101.597 95.258 101.45 95.6274 101.45H135.86C136.229 101.45 136.583 101.597 136.844 101.858C137.105 102.119 137.252 102.473 137.252 102.843C137.252 103.212 137.105 103.566 136.844 103.828C136.583 104.089 136.229 104.235 135.86 104.235Z" fill="#CCCCCC"/>
<path d="M71.2836 156.253H75.0777L76.8826 141.618L71.2829 141.618L71.2836 156.253Z" fill="#A0616A"/>
<path d="M70.3158 155.014L77.7878 155.014H77.7881C79.051 155.014 80.2621 155.515 81.1551 156.408C82.0481 157.301 82.5498 158.513 82.5499 159.775V159.93L70.316 159.931L70.3158 155.014Z" fill="#2F2E41"/>
<path d="M41.7411 154.61L45.4926 155.177L49.4651 140.977L44.5472 140.14L41.7411 154.61Z" fill="#A0616A"/>
<path d="M40.9693 153.241L48.3574 154.357L48.3577 154.357C49.6064 154.546 50.7289 155.223 51.4784 156.24C52.2278 157.256 52.5429 158.529 52.3542 159.777L52.331 159.93L40.2345 158.102L40.9693 153.241Z" fill="#2F2E41"/>
<path d="M53.4394 83.7271L57.6522 84.8308L57.3719 91.6608L57.3372 104.096C57.7522 104.383 58.0704 104.79 58.2495 105.261C58.4286 105.733 58.4602 106.248 58.3403 106.738C58.2203 107.228 57.9543 107.671 57.5776 108.006C57.2008 108.342 56.731 108.556 56.2303 108.618C55.7296 108.681 55.2216 108.591 54.7735 108.359C54.3254 108.127 53.9583 107.764 53.7207 107.319C53.4832 106.874 53.3865 106.367 53.4433 105.865C53.5001 105.364 53.7078 104.891 54.039 104.511L52.7444 92.0297L53.4394 83.7271Z" fill="#A0616A"/>
<path d="M52.7061 75.904C52.7294 75.2439 52.9422 74.6045 53.3192 74.0622C53.6962 73.5199 54.2214 73.0976 54.832 72.8458C55.4036 72.5901 56.0374 72.5068 56.6556 72.6062C57.2738 72.7057 57.8496 72.9835 58.3122 73.4055C58.6446 73.7026 58.9083 74.0686 59.0848 74.478C59.2613 74.8875 59.3463 75.3305 59.334 75.7762C59.3451 79.7773 58.4418 85.6093 58.4327 85.6677L58.4182 85.7605L52.2607 87.834L52.7061 75.904Z" fill="#3F3D56"/>
<path d="M63.7162 87.2617L73.1344 84.8237L77.488 99.486L77.6427 154.109L70.4406 154.064L67.4299 109.854L48.2423 150.705L40.5054 149.776L57.3719 105.985C57.3719 105.985 56.4435 98.2481 59.3835 94.3796L58.7646 90.3564L63.7162 87.2617Z" fill="#2F2E41"/>
<path d="M57.3657 90.9096C57.234 90.7496 57.1384 90.563 57.0852 90.3627C57.0321 90.1624 57.0227 89.953 57.0578 89.7487L52.7618 76.8607C52.5613 76.2582 52.54 75.6105 52.7005 74.9961C52.861 74.3818 53.1965 73.8273 53.6662 73.3999L55.5311 71.7047L56.7949 66.6494L64.0588 68.425L63.4603 70.8189L66.7478 70.2214L73.672 85.6433L59.1985 91.4285L58.4857 91.4397C58.2714 91.44 58.0596 91.3927 57.8659 91.301C57.6722 91.2093 57.5013 91.0756 57.3657 90.9096Z" fill="#3F3D56"/>
<path d="M67.4478 80.028L71.5981 78.709L75.0121 84.6311L81.6299 95.1594C82.1341 95.1802 82.6201 95.3535 83.0237 95.6565C83.4273 95.9595 83.7293 96.3778 83.8899 96.8562C84.0506 97.3346 84.0622 97.8505 83.9232 98.3357C83.7842 98.8208 83.5013 99.2523 83.1117 99.5731C82.7222 99.894 82.2444 100.089 81.7417 100.132C81.2389 100.176 80.7348 100.065 80.296 99.8161C79.8573 99.5668 79.5046 99.1901 79.2846 98.7359C79.0646 98.2818 78.9876 97.7715 79.0639 97.2727L71.2984 87.4165L67.4478 80.028Z" fill="#A0616A"/>
<path d="M62.6463 73.8081C62.3131 73.2379 62.1512 72.5837 62.18 71.9239C62.2087 71.2641 62.4268 70.6265 62.8083 70.0874C63.1548 69.5659 63.646 69.1569 64.2216 68.9105C64.7972 68.664 65.4322 68.591 66.0487 68.7002C66.4885 68.7736 66.907 68.942 67.275 69.1937C67.643 69.4454 67.9517 69.7743 68.1795 70.1575C70.3275 73.5331 72.6816 78.945 72.7051 78.9991L72.7424 79.0852L68.6467 84.1291L62.6463 73.8081Z" fill="#3F3D56"/>
<path d="M62.1692 65.7088C65.3567 65.7088 67.9407 63.1249 67.9407 59.9374C67.9407 56.75 65.3567 54.166 62.1692 54.166C58.9818 54.166 56.3978 56.75 56.3978 59.9374C56.3978 63.1249 58.9818 65.7088 62.1692 65.7088Z" fill="#A0616A"/>
<path d="M51.9699 57.503C55.0402 57.503 57.5292 55.014 57.5292 51.9436C57.5292 48.8733 55.0402 46.3843 51.9699 46.3843C48.8996 46.3843 46.4106 48.8733 46.4106 51.9436C46.4106 55.014 48.8996 57.503 51.9699 57.503Z" fill="#2F2E41"/>
<path d="M47.1747 56.5471C47.8942 57.0672 48.7279 57.4074 49.6058 57.5392C50.4838 57.671 51.3806 57.5907 52.2212 57.3049C53.0617 57.0191 53.8216 56.5361 54.4372 55.8964C55.0529 55.2567 55.5064 54.4789 55.7598 53.628C55.6639 54.3905 55.4109 55.1249 55.0169 55.7847C54.6229 56.4446 54.0964 57.0156 53.4705 57.4617C52.8447 57.9077 52.1332 58.2192 51.3809 58.3764C50.6286 58.5336 49.8519 58.5332 49.0998 58.3751C48.3477 58.217 47.6365 57.9046 47.0112 57.4578C46.3859 57.011 45.8601 56.4394 45.4668 55.7791C45.0736 55.1188 44.8215 54.3841 44.7265 53.6214C44.6315 52.8588 44.6957 52.0847 44.915 51.3481C44.7905 52.3378 44.9345 53.3426 45.3321 54.2574C45.7297 55.1721 46.3661 55.963 47.1747 56.5471Z" fill="#2F2E41"/>
<path d="M69.1143 56.5535C68.1438 54.816 67.7724 54.0902 66.5211 53.0336C65.4145 52.0992 64.0533 51.8248 62.9555 52.7102C61.6567 52.149 60.2116 52.0218 58.8347 52.3474C57.4579 52.6729 56.2228 53.4339 55.3129 54.5174C54.403 55.6008 53.8669 56.9488 53.7841 58.3612C53.7014 59.7736 54.0764 61.175 54.8536 62.3572C55.6307 63.5395 56.7685 64.4395 58.0979 64.9237C59.4273 65.4078 60.8774 65.4502 62.2328 65.0445C63.5882 64.6389 64.7766 63.8068 65.6215 62.672C66.4664 61.5372 66.9226 60.1601 66.9225 58.7453C66.9216 58.4968 66.9066 58.2486 66.8777 58.0018C67.8321 57.8678 68.16 56.6875 69.1143 56.5535Z" fill="#2F2E41"/>
<path d="M118.221 160H0.309478C0.227399 160 0.148682 159.967 0.0906437 159.909C0.0326054 159.851 0 159.772 0 159.69C0 159.608 0.0326054 159.53 0.0906437 159.472C0.148682 159.413 0.227399 159.381 0.309478 159.381H118.221C118.303 159.381 118.381 159.413 118.439 159.472C118.497 159.53 118.53 159.608 118.53 159.69C118.53 159.772 118.497 159.851 118.439 159.909C118.381 159.967 118.303 160 118.221 160Z" fill="#CCCCCC"/>
</g>
<defs>
<linearGradient id="paint0_linear_59_6898" x1="130" y1="21" x2="162" y2="53" gradientUnits="userSpaceOnUse">
<stop stop-color="#22DCD9"/>
<stop offset="0.333333" stop-color="#5456AB"/>
<stop offset="0.666667" stop-color="#97238A"/>
<stop offset="1" stop-color="#F73E94"/>
</linearGradient>
<clipPath id="clip0_59_6898">
<rect width="237.081" height="160" fill="white"/>
</clipPath>
</defs>
</svg>
