<svg width="218" height="160" viewBox="0 0 218 160" fill="none" xmlns="http://www.w3.org/2000/svg">
<g clip-path="url(#clip0_82_758)">
<path d="M101.859 126.658L105.299 125.119L100.99 110.794L95.9131 113.066L101.859 126.658Z" fill="#FFB6B6"/>
<path d="M99.3948 122.77L104.541 119.136L105.961 121.425L113.218 121.782C113.576 121.8 113.92 121.932 114.198 122.158C114.476 122.385 114.675 122.694 114.765 123.042C114.854 123.389 114.831 123.756 114.697 124.089C114.564 124.422 114.327 124.704 114.022 124.893L107.661 128.84L105.159 127.255L106.136 129.786L103.737 131.274L99.3948 122.77Z" fill="#2F2E41"/>
<path d="M190.221 99.545C190.221 98.1044 189.737 96.9352 189.143 96.9325H27.2067C26.61 96.9352 26.1289 98.1044 26.1262 99.545V158.849C26.1263 158.983 26.0765 159.112 25.9866 159.211C25.8968 159.31 25.7732 159.372 25.6401 159.385C25.2055 159.427 24.7708 159.466 24.3362 159.502C24.3254 159.502 24.3147 159.504 24.3039 159.504C24.0674 159.526 23.8309 159.542 23.5944 159.561H23.5917C23.47 159.336 23.3497 159.109 23.2309 158.88C23.1907 158.803 23.1697 158.717 23.1697 158.63V96.1557C23.1697 95.7579 23.1858 95.3575 23.2127 94.9624C23.251 94.4198 23.3183 93.8797 23.4143 93.3443C23.8685 90.8474 24.8952 89.1567 26.0617 89.1514H190.286C190.456 89.1525 190.624 89.1882 190.78 89.2562C191.009 89.3576 191.217 89.5028 191.39 89.6836C191.626 89.9286 191.828 90.2044 191.99 90.5033C192.565 91.5166 192.976 93.0272 193.121 94.785C193.121 94.8011 193.124 94.8172 193.124 94.8334C193.162 95.2688 193.18 95.7123 193.178 96.1557L193.215 101.916L193.239 105.351L193.312 116.129L193.339 119.956L193.457 159.252C193.457 159.394 193.401 159.531 193.3 159.632C193.199 159.732 193.062 159.789 192.92 159.789H190.759C190.616 159.789 190.479 159.732 190.379 159.632C190.278 159.531 190.221 159.394 190.221 159.252V99.545Z" fill="#E6E6E6"/>
<path d="M146.218 62.1992H128.769C128.522 62.1996 128.285 62.298 128.111 62.4728C127.937 62.6475 127.839 62.8844 127.839 63.1312V90.6954H147.15V63.1312C147.15 63.0088 147.126 62.8876 147.079 62.7745C147.032 62.6614 146.963 62.5586 146.877 62.472C146.79 62.3855 146.687 62.3168 146.574 62.27C146.461 62.2232 146.34 62.1992 146.218 62.1992ZM137.552 77.8609C137.006 77.8583 136.484 77.6404 136.098 77.2546C135.712 76.8687 135.494 76.3461 135.491 75.8004V72.6211C135.492 72.0751 135.709 71.5516 136.096 71.1657C136.482 70.7798 137.006 70.5631 137.552 70.5631C138.098 70.5631 138.622 70.7798 139.008 71.1657C139.394 71.5516 139.612 72.0751 139.612 72.6211V75.8004C139.61 76.3461 139.392 76.8687 139.006 77.2546C138.62 77.6404 138.098 77.8583 137.552 77.8609Z" fill="#2F2E41"/>
<path d="M127.779 89.8135V92.4729C127.78 92.6107 127.834 92.7428 127.932 92.8402C128.029 92.9376 128.161 92.9925 128.299 92.9928H146.69C146.827 92.9921 146.959 92.9371 147.057 92.8397C147.154 92.7424 147.209 92.6105 147.21 92.4729V89.8135H127.779Z" fill="#3F3D56"/>
<path d="M105.361 23.8139C105.16 24.3195 104.851 24.7749 104.455 25.148C104.059 25.5211 103.586 25.8029 103.069 25.9735C102.553 26.1441 102.005 26.1993 101.465 26.1354C100.925 26.0714 100.405 25.8898 99.9427 25.6033L75.3123 42.7618L74.6323 35.924L98.8498 20.2337C99.3826 19.4888 100.17 18.9652 101.063 18.7621C101.956 18.559 102.893 18.6906 103.695 19.1319C104.498 19.5732 105.111 20.2936 105.418 21.1565C105.725 22.0194 105.704 22.965 105.361 23.8139Z" fill="#FFB6B6"/>
<path d="M50.2148 34.6323C50.2148 34.6323 47.5479 38.573 51.7329 42.0604C55.918 45.5477 72.8807 44.8539 75.618 44.8239C78.3554 44.7939 90.915 31.8015 90.915 31.8015L90.8328 24.2979L75.6689 33.2955L50.2148 34.6323Z" fill="#1E1E1E"/>
<path d="M48.7048 60.7955L48.9735 65.9023C48.9735 65.9023 48.1802 70.426 48.8327 71.4022C49.4802 72.3735 67.2624 73.8185 67.2624 73.8185C67.2624 73.8185 66.7049 66.2023 67.7106 60.6934L48.7048 60.7955Z" fill="#FFB6B6"/>
<path d="M103.279 112.791L96.434 118.783L83.0184 91.346C69.715 93.6339 57.1645 94.3669 46.3089 91.5991C42.6334 90.6749 40.3867 86.8798 41.2908 83.1224C41.333 82.9468 41.3819 82.773 41.4374 82.6011C42.7366 78.6372 46.1374 75.8325 48.8169 71.4727L68.3885 71.7699L66.2025 79.3125L85.215 76.8522C89.0384 76.3575 92.5303 79.125 93.0143 83.0336C93.0398 83.24 93.0565 83.4473 93.0644 83.6553L103.279 112.791Z" fill="#2F2E41"/>
<path d="M56.3468 26.4286C60.736 26.4286 64.294 22.8705 64.294 18.4814C64.294 14.0923 60.736 10.5342 56.3468 10.5342C51.9577 10.5342 48.3997 14.0923 48.3997 18.4814C48.3997 22.8705 51.9577 26.4286 56.3468 26.4286Z" fill="#FFB6B6"/>
<path d="M51.6877 29.2979L58.9745 30.1551C59.2818 30.1913 59.5702 30.3224 59.7994 30.5302C60.0287 30.738 60.1874 31.0121 60.2534 31.3144L61.4123 36.6172L68.6361 45.1242C68.6361 45.1242 71.2302 49.988 70.2574 55.5003C69.672 58.8196 68.6593 62.0492 67.2445 65.1085C67.2445 65.1085 49.4793 72.3741 48.8308 71.4013C48.1823 70.4286 47.9718 66.01 47.9718 66.01L45.6863 40.583C45.5554 39.2432 45.7227 37.8912 46.176 36.6237C46.6294 35.3562 47.3576 34.2048 48.3084 33.2519C48.885 32.6847 49.4541 32.2877 49.9173 32.2877C50.9637 32.2524 50.8295 29.8974 51.6877 29.2979Z" fill="#1E1E1E"/>
<path d="M67.3235 137.312L70.705 138.969L78.8455 126.423L73.8545 123.979L67.3235 137.312Z" fill="#FFB6B6"/>
<path d="M75.4239 134.477L68.4768 131.839L78.0115 103.202C65.0581 99.4039 55.2873 93.2867 46.7562 86.0254C43.8621 83.5786 41.6916 80.4362 44.1564 77.4597C44.2717 77.3206 44.392 77.186 44.5174 77.056C47.428 74.0678 54.8148 74.6427 59.139 71.9062L68.8101 82.2316L68.2041 84.9976L86.3603 91.1522C90.0115 92.39 91.9299 96.4115 90.645 100.134C90.5771 100.331 90.5009 100.525 90.4165 100.715L75.4239 134.477Z" fill="#2F2E41"/>
<path d="M67.2081 135.313L73.0203 137.743L71.8351 140.162L75.3875 146.5C75.563 146.813 75.6339 147.174 75.5897 147.53C75.5456 147.887 75.3887 148.219 75.1421 148.48C74.8955 148.741 74.572 148.916 74.2188 148.979C73.8657 149.043 73.5014 148.993 73.1792 148.835L66.456 145.541L66.4696 142.58L64.8447 144.752L62.3098 143.51L67.2081 135.313Z" fill="#2F2E41"/>
<path d="M55.8423 91.4661C55.3865 91.1691 55.0014 90.7758 54.7141 90.3139C54.4267 89.852 54.2442 89.3327 54.1792 88.7926C54.1143 88.2525 54.1686 87.7047 54.3383 87.1878C54.5079 86.671 54.7889 86.1976 55.1613 85.8011L43.2197 58.2607L50.0569 58.9482L60.6409 85.7931C61.2656 86.4629 61.6229 87.3385 61.6451 88.2541C61.6673 89.1697 61.3529 90.0617 60.7614 90.761C60.1699 91.4603 59.3425 91.9183 58.4359 92.0482C57.5292 92.1782 56.6064 91.9711 55.8423 91.4661Z" fill="#FFB6B6"/>
<path d="M56.1576 35.2692C56.1576 35.2692 52.823 31.8747 48.576 35.2864C44.3291 38.698 41.6502 55.4622 41.1375 58.1513C40.6248 60.8404 50.873 75.724 50.873 75.724L58.2443 77.1293L52.4276 60.4839L56.1576 35.2692Z" fill="#1E1E1E"/>
<path d="M175.112 19.1826H100.524C99.8833 19.1836 99.269 19.4387 98.8159 19.8918C98.3627 20.3449 98.1077 20.9592 98.1067 21.6V71.9319C98.1073 72.5729 98.3622 73.1874 98.8154 73.6406C99.2686 74.0938 99.8832 74.3487 100.524 74.3493H175.112C175.752 74.3487 176.367 74.0938 176.82 73.6406C177.273 73.1874 177.528 72.5729 177.529 71.9319V21.6C177.528 20.9592 177.273 20.3449 176.82 19.8918C176.367 19.4387 175.752 19.1836 175.112 19.1826Z" fill="#3F3D56"/>
<path d="M174.489 20.9287H101.147C100.804 20.9295 100.475 21.0663 100.233 21.3091C99.9907 21.552 99.8545 21.8811 99.8545 22.2242V71.3086C99.8551 71.6513 99.9915 71.9798 100.234 72.2221C100.476 72.4644 100.805 72.6008 101.147 72.6014H174.489C174.832 72.6008 175.16 72.4644 175.402 72.2221C175.645 71.9798 175.781 71.6513 175.782 71.3086V22.2242C175.782 21.8811 175.646 21.552 175.403 21.3091C175.161 21.0663 174.832 20.9295 174.489 20.9287Z" fill="white"/>
<path d="M160.203 93.9186H116.569C116.45 93.9186 116.332 93.892 116.224 93.8406C116.116 93.7892 116.021 93.7144 115.946 93.6217C115.87 93.5289 115.817 93.4206 115.789 93.3045C115.761 93.1884 115.759 93.0675 115.784 92.9506L116.461 89.735C116.499 89.5551 116.598 89.3938 116.741 89.2778C116.884 89.1619 117.062 89.0983 117.246 89.0977H159.526C159.71 89.0983 159.889 89.1619 160.031 89.2778C160.174 89.3938 160.273 89.5551 160.312 89.735L160.989 92.9506C161.013 93.0675 161.012 93.1884 160.984 93.3045C160.955 93.4206 160.902 93.5289 160.827 93.6217C160.751 93.7144 160.656 93.7892 160.549 93.8406C160.441 93.892 160.323 93.9186 160.203 93.9186Z" fill="#2F2E41"/>
<path d="M118.769 89.6768H117.687C117.615 89.6768 117.556 89.7355 117.556 89.808V90.3519C117.556 90.4243 117.615 90.4831 117.687 90.4831H118.769C118.841 90.4831 118.9 90.4243 118.9 90.3519V89.808C118.9 89.7355 118.841 89.6768 118.769 89.6768Z" fill="#3F3D56"/>
<path d="M121.456 89.6768H120.375C120.302 89.6768 120.244 89.7355 120.244 89.808V90.3519C120.244 90.4243 120.302 90.4831 120.375 90.4831H121.456C121.529 90.4831 121.588 90.4243 121.588 90.3519V89.808C121.588 89.7355 121.529 89.6768 121.456 89.6768Z" fill="#3F3D56"/>
<path d="M124.144 89.6768H123.063C122.99 89.6768 122.931 89.7355 122.931 89.808V90.3519C122.931 90.4243 122.99 90.4831 123.063 90.4831H124.144C124.217 90.4831 124.275 90.4243 124.275 90.3519V89.808C124.275 89.7355 124.217 89.6768 124.144 89.6768Z" fill="#3F3D56"/>
<path d="M126.832 89.6768H125.75C125.678 89.6768 125.619 89.7355 125.619 89.808V90.3519C125.619 90.4243 125.678 90.4831 125.75 90.4831H126.832C126.904 90.4831 126.963 90.4243 126.963 90.3519V89.808C126.963 89.7355 126.904 89.6768 126.832 89.6768Z" fill="#3F3D56"/>
<path d="M129.52 89.6768H128.438C128.366 89.6768 128.307 89.7355 128.307 89.808V90.3519C128.307 90.4243 128.366 90.4831 128.438 90.4831H129.52C129.592 90.4831 129.651 90.4243 129.651 90.3519V89.808C129.651 89.7355 129.592 89.6768 129.52 89.6768Z" fill="#3F3D56"/>
<path d="M132.207 89.6768H131.126C131.053 89.6768 130.995 89.7355 130.995 89.808V90.3519C130.995 90.4243 131.053 90.4831 131.126 90.4831H132.207C132.28 90.4831 132.339 90.4243 132.339 90.3519V89.808C132.339 89.7355 132.28 89.6768 132.207 89.6768Z" fill="#3F3D56"/>
<path d="M134.895 89.6768H133.814C133.741 89.6768 133.682 89.7355 133.682 89.808V90.3519C133.682 90.4243 133.741 90.4831 133.814 90.4831H134.895C134.968 90.4831 135.026 90.4243 135.026 90.3519V89.808C135.026 89.7355 134.968 89.6768 134.895 89.6768Z" fill="#3F3D56"/>
<path d="M137.583 89.6768H136.502C136.429 89.6768 136.37 89.7355 136.37 89.808V90.3519C136.37 90.4243 136.429 90.4831 136.502 90.4831H137.583C137.656 90.4831 137.714 90.4243 137.714 90.3519V89.808C137.714 89.7355 137.656 89.6768 137.583 89.6768Z" fill="#3F3D56"/>
<path d="M140.271 89.6768H139.189C139.117 89.6768 139.058 89.7355 139.058 89.808V90.3519C139.058 90.4243 139.117 90.4831 139.189 90.4831H140.271C140.343 90.4831 140.402 90.4243 140.402 90.3519V89.808C140.402 89.7355 140.343 89.6768 140.271 89.6768Z" fill="#3F3D56"/>
<path d="M142.959 89.6768H141.877C141.805 89.6768 141.746 89.7355 141.746 89.808V90.3519C141.746 90.4243 141.805 90.4831 141.877 90.4831H142.959C143.031 90.4831 143.09 90.4243 143.09 90.3519V89.808C143.09 89.7355 143.031 89.6768 142.959 89.6768Z" fill="#3F3D56"/>
<path d="M145.646 89.6768H144.565C144.492 89.6768 144.434 89.7355 144.434 89.808V90.3519C144.434 90.4243 144.492 90.4831 144.565 90.4831H145.646C145.719 90.4831 145.778 90.4243 145.778 90.3519V89.808C145.778 89.7355 145.719 89.6768 145.646 89.6768Z" fill="#3F3D56"/>
<path d="M148.334 89.6768H147.253C147.18 89.6768 147.121 89.7355 147.121 89.808V90.3519C147.121 90.4243 147.18 90.4831 147.253 90.4831H148.334C148.407 90.4831 148.465 90.4243 148.465 90.3519V89.808C148.465 89.7355 148.407 89.6768 148.334 89.6768Z" fill="#3F3D56"/>
<path d="M151.022 89.6768H149.941C149.868 89.6768 149.809 89.7355 149.809 89.808V90.3519C149.809 90.4243 149.868 90.4831 149.941 90.4831H151.022C151.094 90.4831 151.153 90.4243 151.153 90.3519V89.808C151.153 89.7355 151.094 89.6768 151.022 89.6768Z" fill="#3F3D56"/>
<path d="M153.71 89.6768H152.628C152.556 89.6768 152.497 89.7355 152.497 89.808V90.3519C152.497 90.4243 152.556 90.4831 152.628 90.4831H153.71C153.782 90.4831 153.841 90.4243 153.841 90.3519V89.808C153.841 89.7355 153.782 89.6768 153.71 89.6768Z" fill="#3F3D56"/>
<path d="M156.397 89.6768H155.316C155.244 89.6768 155.185 89.7355 155.185 89.808V90.3519C155.185 90.4243 155.244 90.4831 155.316 90.4831H156.397C156.47 90.4831 156.529 90.4243 156.529 90.3519V89.808C156.529 89.7355 156.47 89.6768 156.397 89.6768Z" fill="#3F3D56"/>
<path d="M159.085 89.6768H158.004C157.931 89.6768 157.873 89.7355 157.873 89.808V90.3519C157.873 90.4243 157.931 90.4831 158.004 90.4831H159.085C159.158 90.4831 159.217 90.4243 159.217 90.3519V89.808C159.217 89.7355 159.158 89.6768 159.085 89.6768Z" fill="#3F3D56"/>
<path d="M118.737 91.0205H117.655C117.583 91.0205 117.524 91.0793 117.524 91.1517V91.6956C117.524 91.7681 117.583 91.8268 117.655 91.8268H118.737C118.809 91.8268 118.868 91.7681 118.868 91.6956V91.1517C118.868 91.0793 118.809 91.0205 118.737 91.0205Z" fill="#3F3D56"/>
<path d="M121.425 91.0205H120.343C120.271 91.0205 120.212 91.0793 120.212 91.1517V91.6956C120.212 91.7681 120.271 91.8268 120.343 91.8268H121.425C121.497 91.8268 121.556 91.7681 121.556 91.6956V91.1517C121.556 91.0793 121.497 91.0205 121.425 91.0205Z" fill="#3F3D56"/>
<path d="M124.112 91.0205H123.031C122.958 91.0205 122.9 91.0793 122.9 91.1517V91.6956C122.9 91.7681 122.958 91.8268 123.031 91.8268H124.112C124.185 91.8268 124.244 91.7681 124.244 91.6956V91.1517C124.244 91.0793 124.185 91.0205 124.112 91.0205Z" fill="#3F3D56"/>
<path d="M126.8 91.0205H125.719C125.646 91.0205 125.587 91.0793 125.587 91.1517V91.6956C125.587 91.7681 125.646 91.8268 125.719 91.8268H126.8C126.873 91.8268 126.931 91.7681 126.931 91.6956V91.1517C126.931 91.0793 126.873 91.0205 126.8 91.0205Z" fill="#3F3D56"/>
<path d="M129.488 91.0205H128.406C128.334 91.0205 128.275 91.0793 128.275 91.1517V91.6956C128.275 91.7681 128.334 91.8268 128.406 91.8268H129.488C129.56 91.8268 129.619 91.7681 129.619 91.6956V91.1517C129.619 91.0793 129.56 91.0205 129.488 91.0205Z" fill="#3F3D56"/>
<path d="M132.176 91.0205H131.094C131.022 91.0205 130.963 91.0793 130.963 91.1517V91.6956C130.963 91.7681 131.022 91.8268 131.094 91.8268H132.176C132.248 91.8268 132.307 91.7681 132.307 91.6956V91.1517C132.307 91.0793 132.248 91.0205 132.176 91.0205Z" fill="#3F3D56"/>
<path d="M134.863 91.0205H133.782C133.71 91.0205 133.651 91.0793 133.651 91.1517V91.6956C133.651 91.7681 133.71 91.8268 133.782 91.8268H134.863C134.936 91.8268 134.995 91.7681 134.995 91.6956V91.1517C134.995 91.0793 134.936 91.0205 134.863 91.0205Z" fill="#3F3D56"/>
<path d="M137.551 91.0205H136.47C136.397 91.0205 136.339 91.0793 136.339 91.1517V91.6956C136.339 91.7681 136.397 91.8268 136.47 91.8268H137.551C137.624 91.8268 137.683 91.7681 137.683 91.6956V91.1517C137.683 91.0793 137.624 91.0205 137.551 91.0205Z" fill="#3F3D56"/>
<path d="M140.239 91.0205H139.158C139.085 91.0205 139.026 91.0793 139.026 91.1517V91.6956C139.026 91.7681 139.085 91.8268 139.158 91.8268H140.239C140.312 91.8268 140.37 91.7681 140.37 91.6956V91.1517C140.37 91.0793 140.312 91.0205 140.239 91.0205Z" fill="#3F3D56"/>
<path d="M142.927 91.0205H141.845C141.773 91.0205 141.714 91.0793 141.714 91.1517V91.6956C141.714 91.7681 141.773 91.8268 141.845 91.8268H142.927C142.999 91.8268 143.058 91.7681 143.058 91.6956V91.1517C143.058 91.0793 142.999 91.0205 142.927 91.0205Z" fill="#3F3D56"/>
<path d="M145.615 91.0205H144.533C144.461 91.0205 144.402 91.0793 144.402 91.1517V91.6956C144.402 91.7681 144.461 91.8268 144.533 91.8268H145.615C145.687 91.8268 145.746 91.7681 145.746 91.6956V91.1517C145.746 91.0793 145.687 91.0205 145.615 91.0205Z" fill="#3F3D56"/>
<path d="M148.302 91.0205H147.221C147.148 91.0205 147.09 91.0793 147.09 91.1517V91.6956C147.09 91.7681 147.148 91.8268 147.221 91.8268H148.302C148.375 91.8268 148.434 91.7681 148.434 91.6956V91.1517C148.434 91.0793 148.375 91.0205 148.302 91.0205Z" fill="#3F3D56"/>
<path d="M150.99 91.0205H149.909C149.836 91.0205 149.777 91.0793 149.777 91.1517V91.6956C149.777 91.7681 149.836 91.8268 149.909 91.8268H150.99C151.063 91.8268 151.121 91.7681 151.121 91.6956V91.1517C151.121 91.0793 151.063 91.0205 150.99 91.0205Z" fill="#3F3D56"/>
<path d="M153.678 91.0205H152.597C152.524 91.0205 152.465 91.0793 152.465 91.1517V91.6956C152.465 91.7681 152.524 91.8268 152.597 91.8268H153.678C153.75 91.8268 153.809 91.7681 153.809 91.6956V91.1517C153.809 91.0793 153.75 91.0205 153.678 91.0205Z" fill="#3F3D56"/>
<path d="M156.366 91.0205H155.284C155.212 91.0205 155.153 91.0793 155.153 91.1517V91.6956C155.153 91.7681 155.212 91.8268 155.284 91.8268H156.366C156.438 91.8268 156.497 91.7681 156.497 91.6956V91.1517C156.497 91.0793 156.438 91.0205 156.366 91.0205Z" fill="#3F3D56"/>
<path d="M159.053 91.0205H157.972C157.9 91.0205 157.841 91.0793 157.841 91.1517V91.6956C157.841 91.7681 157.9 91.8268 157.972 91.8268H159.053C159.126 91.8268 159.185 91.7681 159.185 91.6956V91.1517C159.185 91.0793 159.126 91.0205 159.053 91.0205Z" fill="#3F3D56"/>
<path d="M141.045 92.6328H130.557C130.484 92.6328 130.425 92.6916 130.425 92.764V93.3079C130.425 93.3804 130.484 93.4391 130.557 93.4391H141.045C141.118 93.4391 141.177 93.3804 141.177 93.3079V92.764C141.177 92.6916 141.118 92.6328 141.045 92.6328Z" fill="#3F3D56"/>
<path d="M169.438 155.264L167.366 151.934L166.952 153.837C166.879 154.17 166.807 154.508 166.739 154.844C166.151 154.342 165.525 153.877 164.912 153.431C163.03 152.065 161.15 150.698 159.27 149.329L159.859 152.743C160.222 154.844 160.601 156.989 161.498 158.911C161.598 159.129 161.705 159.344 161.821 159.553H170.567C170.637 159.359 170.686 159.157 170.712 158.951C170.714 158.938 170.715 158.925 170.715 158.911C170.852 157.607 170.131 156.379 169.438 155.264Z" fill="#F0F0F0"/>
<path d="M51.1752 155.264L49.103 151.934L48.689 153.837C48.6165 154.17 48.5439 154.508 48.4767 154.844C47.8881 154.342 47.2618 153.877 46.6491 153.431C44.7676 152.065 42.887 150.698 41.0073 149.329L41.5959 152.743C41.9588 154.844 42.3378 156.989 43.2355 158.911C43.335 159.129 43.4425 159.344 43.5581 159.553H52.3042C52.3745 159.359 52.4232 159.157 52.4493 158.951C52.4515 158.938 52.4524 158.925 52.4519 158.911C52.5891 157.607 51.8687 156.379 51.1752 155.264Z" fill="#F0F0F0"/>
<path d="M217.426 159.917L143.31 160C143.226 160 143.144 159.966 143.085 159.906C143.025 159.846 142.991 159.765 142.991 159.68C142.991 159.595 143.025 159.514 143.085 159.454C143.144 159.394 143.226 159.36 143.31 159.36L217.426 159.277C217.511 159.278 217.592 159.311 217.652 159.371C217.712 159.431 217.745 159.513 217.745 159.597C217.745 159.682 217.712 159.763 217.652 159.823C217.592 159.883 217.511 159.917 217.426 159.917Z" fill="#CACACA"/>
<path d="M74.4358 159.917L0.320082 160C0.235365 160 0.154204 159.966 0.0943864 159.906C0.0345692 159.846 0.000976562 159.765 0.000976562 159.68C0.000976562 159.595 0.0345692 159.514 0.0943864 159.454C0.154204 159.394 0.235365 159.36 0.320082 159.36L74.4358 159.277C74.5206 159.278 74.6017 159.311 74.6615 159.371C74.7214 159.431 74.7549 159.513 74.7549 159.597C74.7549 159.682 74.7214 159.763 74.6615 159.823C74.6017 159.883 74.5206 159.917 74.4358 159.917Z" fill="#CACACA"/>
<path d="M47.9427 11.3976C46.6606 11.7792 45.4645 10.7068 44.5722 9.69084L44.8893 10.0671C42.7902 11.5454 41.535 13.9537 40.7206 16.3915C39.9062 18.8266 39.4519 21.3774 38.5327 23.7775C37.6135 26.175 36.1298 28.4946 33.8586 29.6907C30.8161 31.2926 27.0881 30.5642 23.852 29.4084C23.809 29.3923 23.7687 29.3789 23.7257 29.3628C25.0364 26.9145 25.839 24.2267 26.0856 21.4607C24.7543 24.0597 22.8344 26.3119 20.4788 28.0377C18.3643 27.0765 16.3311 25.9457 14.3991 24.6564C13.1492 23.8205 11.8322 22.74 11.6871 21.243C11.5393 19.7566 12.6493 18.3993 13.9583 17.6843C15.2672 16.9694 16.7724 16.7275 18.2023 16.2974C19.6295 15.8701 21.0863 15.1685 21.8362 13.8784C23.5644 10.9111 20.6562 6.72621 22.5108 3.83415C23.4247 2.41231 25.1986 1.84249 26.8435 1.44739C29.3542 0.84684 31.9027 0.416711 34.4715 0.159939C36.7265 -0.0658347 39.0568 -0.149155 41.2017 0.576547C43.3465 1.30225 45.2925 2.98749 45.7521 5.20761C47.0046 5.86611 48.3297 6.5945 49.0016 7.84432C49.6736 9.09145 49.3 10.9944 47.9427 11.3976Z" fill="#2F2E41"/>
<path d="M46.0288 10.8978C44.8011 12.4357 44.1328 14.0988 44.1328 15.0949C41.5825 19.7561 45.2295 23.7598 49.8908 26.3101C51.75 27.3327 53.8967 27.7069 55.9922 27.3738L56.1872 26.5414L56.4514 27.2912C56.4514 27.2912 59.4863 37.3148 60.4873 37.9028C60.1075 36.1189 59.6723 27.8594 59.4609 26.1185C59.1681 23.749 60.1886 20.2214 60.9248 18.0762C61.3813 16.7541 61.6156 15.3655 61.6181 13.9668V13.9056L62.3349 16.2081L64.9446 15.0949C64.4591 12.31 64.9446 9.14864 59.1239 9.42283C55.9758 7.25771 53.2035 6.92791 50.9262 7.54199C50.6323 7.08762 48.9377 7.93863 48.448 7.69938" fill="#2F2E41"/>
<path d="M175.782 22.2242V71.3086C175.781 71.6513 175.645 71.9798 175.403 72.2221C175.16 72.4644 174.832 72.6008 174.489 72.6014H148.627C145.766 69.9482 143.419 66.7901 141.703 63.2856C141.59 63.0598 141.483 62.8313 141.381 62.6002C139.818 59.2082 138.871 55.5649 138.586 51.841C138.567 51.6125 138.551 51.384 138.54 51.1529C138.505 50.5616 138.489 49.9622 138.489 49.3601C138.484 45.356 139.24 41.3873 140.717 37.6656C140.806 37.4344 140.9 37.206 140.996 36.9775C143.969 29.9927 149.341 24.3006 156.142 20.9287H174.489C174.832 20.9295 175.161 21.0663 175.403 21.3091C175.646 21.552 175.782 21.8811 175.782 22.2242Z" fill="url(#paint0_linear_82_758)"/>
<path d="M170.802 27.6913H102.177C102.105 27.6897 102.037 27.6603 101.988 27.6093C101.938 27.5583 101.91 27.4898 101.91 27.4184C101.91 27.3471 101.938 27.2785 101.988 27.2275C102.037 27.1765 102.105 27.1471 102.177 27.1455H170.802C170.873 27.1471 170.941 27.1765 170.991 27.2275C171.041 27.2785 171.069 27.3471 171.069 27.4184C171.069 27.4898 171.041 27.5583 170.991 27.6093C170.941 27.6603 170.873 27.6897 170.802 27.6913Z" fill="#CACACA"/>
<path d="M106.848 25.7524C107.731 25.7524 108.447 25.0204 108.447 24.1174C108.447 23.2144 107.731 22.4824 106.848 22.4824C105.965 22.4824 105.249 23.2144 105.249 24.1174C105.249 25.0204 105.965 25.7524 106.848 25.7524Z" fill="#3F3D56"/>
<path d="M112.373 25.7524C113.257 25.7524 113.973 25.0204 113.973 24.1174C113.973 23.2144 113.257 22.4824 112.373 22.4824C111.49 22.4824 110.774 23.2144 110.774 24.1174C110.774 25.0204 111.49 25.7524 112.373 25.7524Z" fill="#3F3D56"/>
<path d="M117.898 25.7524C118.781 25.7524 119.498 25.0204 119.498 24.1174C119.498 23.2144 118.781 22.4824 117.898 22.4824C117.015 22.4824 116.299 23.2144 116.299 24.1174C116.299 25.0204 117.015 25.7524 117.898 25.7524Z" fill="#3F3D56"/>
<path d="M167.476 22.8877H163.551C163.473 22.8892 163.399 22.9212 163.345 22.9768C163.29 23.0323 163.26 23.1071 163.26 23.1849C163.26 23.2627 163.29 23.3374 163.345 23.393C163.399 23.4485 163.473 23.4805 163.551 23.482H167.476C167.554 23.4805 167.628 23.4485 167.682 23.393C167.737 23.3374 167.767 23.2627 167.767 23.1849C167.767 23.1071 167.737 23.0323 167.682 22.9768C167.628 22.9212 167.554 22.8892 167.476 22.8877Z" fill="#3F3D56"/>
<path d="M167.476 24.0029H163.551C163.473 24.0045 163.399 24.0364 163.345 24.092C163.29 24.1476 163.26 24.2223 163.26 24.3001C163.26 24.3779 163.29 24.4526 163.345 24.5082C163.399 24.5637 163.473 24.5957 163.551 24.5973H167.476C167.554 24.5957 167.628 24.5637 167.682 24.5082C167.737 24.4526 167.767 24.3779 167.767 24.3001C167.767 24.2223 167.737 24.1476 167.682 24.092C167.628 24.0364 167.554 24.0045 167.476 24.0029Z" fill="#3F3D56"/>
<path d="M167.476 25.1172H163.551C163.473 25.1187 163.399 25.1507 163.345 25.2063C163.29 25.2618 163.26 25.3365 163.26 25.4144C163.26 25.4922 163.29 25.5669 163.345 25.6224C163.399 25.678 163.473 25.71 163.551 25.7115H167.476C167.554 25.71 167.628 25.678 167.682 25.6224C167.737 25.5669 167.767 25.4922 167.767 25.4144C167.767 25.3365 167.737 25.2618 167.682 25.2063C167.628 25.1507 167.554 25.1187 167.476 25.1172Z" fill="#3F3D56"/>
<path d="M122.678 43.6348H114.103C113.459 43.6348 112.937 44.1569 112.937 44.801V44.801C112.937 45.4451 113.459 45.9672 114.103 45.9672H122.678C123.322 45.9672 123.845 45.4451 123.845 44.801C123.845 44.1569 123.322 43.6348 122.678 43.6348Z" fill="url(#paint1_linear_82_758)"/>
<path d="M128.218 48.2998H108.564C107.92 48.2998 107.397 48.8219 107.397 49.466C107.397 50.1101 107.92 50.6323 108.564 50.6323H128.218C128.862 50.6323 129.384 50.1101 129.384 49.466C129.384 48.8219 128.862 48.2998 128.218 48.2998Z" fill="#E6E6E6"/>
<path d="M128.218 52.9648H108.564C107.92 52.9648 107.397 53.487 107.397 54.1311V54.1311C107.397 54.7752 107.92 55.2973 108.564 55.2973H128.218C128.862 55.2973 129.384 54.7752 129.384 54.1311C129.384 53.487 128.862 52.9648 128.218 52.9648Z" fill="#E6E6E6"/>
<path d="M109.192 69.787C109.193 70.7477 109.022 71.7009 108.687 72.6011H101.147C100.805 72.6005 100.476 72.4641 100.234 72.2218C99.9915 71.9795 99.8551 71.651 99.8545 71.3083V61.8258C100.276 61.7576 100.702 61.7235 101.129 61.7236C102.187 61.7236 103.236 61.9321 104.214 62.3373C105.193 62.7425 106.082 63.3364 106.83 64.0852C107.579 64.8339 108.173 65.7229 108.578 66.7012C108.983 67.6795 109.192 68.7281 109.192 69.787Z" fill="url(#paint2_linear_82_758)"/>
<path opacity="0.2" d="M175.849 37.6657V36.9776H164.316V29.0029H163.63V36.9776H150.412V29.0029H149.726V36.9776H140.996C140.9 37.2061 140.806 37.4345 140.717 37.6657H149.726V51.153H138.54C138.551 51.3841 138.567 51.6126 138.585 51.8411H149.726V62.6003H141.381C141.483 62.8314 141.59 63.0599 141.703 63.2857H149.726V72.3301H150.412V63.2857H163.63V72.3301H164.316V63.2857H175.849V62.6003H164.316V51.8411H175.849V51.153H164.316V37.6657H175.849ZM163.63 62.6003H150.412V51.8411H163.63V62.6003ZM163.63 51.153H150.412V37.6657H163.63V51.153Z" fill="black"/>
<path d="M166.563 67.5089C166.416 67.5156 166.27 67.477 166.146 67.3982C166.021 67.3195 165.924 67.2043 165.867 67.0685C165.811 66.9326 165.797 66.7825 165.828 66.6386C165.86 66.4947 165.934 66.3639 166.042 66.264L166.092 66.0683C166.085 66.0526 166.079 66.037 166.072 66.0213C165.924 65.6713 165.676 65.3728 165.358 65.1634C165.041 64.9541 164.669 64.8431 164.289 64.8445C163.909 64.8459 163.537 64.9596 163.222 65.1714C162.906 65.3831 162.66 65.6834 162.514 66.0346C161.932 67.4361 161.191 68.84 161.009 70.3219C160.929 70.9769 160.962 71.6409 161.109 72.2843C159.742 69.3029 159.033 66.0625 159.028 62.7827C159.028 61.9597 159.074 61.1373 159.165 60.3194C159.241 59.6489 159.346 58.9831 159.48 58.3221C160.212 54.7358 161.785 51.3743 164.069 48.5139C165.175 47.9107 166.069 46.9832 166.631 45.8563C166.834 45.4513 166.978 45.0189 167.058 44.5726C166.933 44.5889 166.806 44.5991 166.682 44.6073C166.643 44.6094 166.602 44.6114 166.563 44.6135L166.549 44.6141C166.411 44.6203 166.276 44.5867 166.157 44.5174C166.039 44.4481 165.943 44.346 165.881 44.2235C165.819 44.101 165.794 43.9633 165.809 43.8269C165.824 43.6905 165.878 43.5613 165.964 43.4547C166.018 43.3885 166.072 43.3223 166.126 43.2561C166.207 43.1538 166.291 43.0537 166.373 42.9515C166.382 42.9418 166.391 42.9315 166.4 42.9208C166.494 42.8043 166.588 42.6898 166.682 42.5733C166.51 42.3069 166.279 42.0837 166.007 41.9212C165.065 41.3692 163.765 41.7515 163.084 42.604C162.401 43.4564 162.272 44.6523 162.509 45.7173C162.743 46.6236 163.128 47.4835 163.65 48.2604C163.599 48.3258 163.546 48.3892 163.495 48.4546C162.561 49.6559 161.746 50.9458 161.064 52.306C161.23 50.7822 161.032 49.2408 160.486 47.8086C159.932 46.4738 158.895 45.3496 157.982 44.1957C156.885 42.8097 154.635 43.4146 154.442 45.1716C154.44 45.1886 154.438 45.2056 154.437 45.2226C154.572 45.2991 154.705 45.3804 154.835 45.4663C154.998 45.5753 155.125 45.7312 155.198 45.9133C155.271 46.0955 155.287 46.2955 155.245 46.4871C155.203 46.6788 155.103 46.8531 154.96 46.9873C154.817 47.1215 154.636 47.2094 154.442 47.2393L154.422 47.2423C154.471 47.7312 154.556 48.2158 154.678 48.6917C155.031 50.0204 155.654 51.2619 156.51 52.3383C157.365 53.4147 158.433 54.3029 159.647 54.9471C159.727 54.988 159.805 55.0289 159.885 55.0677C159.199 57.0112 158.769 59.0356 158.605 61.09C158.512 62.3021 158.518 63.5197 158.621 64.7309L158.615 64.6879C158.353 63.3411 157.635 62.1259 156.581 61.2475C155.016 59.9616 152.804 59.4881 151.116 58.4546C150.936 58.3393 150.728 58.2778 150.514 58.2773C150.301 58.2768 150.092 58.3373 149.912 58.4516C149.732 58.566 149.588 58.7294 149.498 58.9227C149.408 59.116 149.375 59.331 149.403 59.5424C149.405 59.5575 149.408 59.5725 149.41 59.5875C149.662 59.6901 149.907 59.8082 150.144 59.9412C150.279 60.0177 150.412 60.099 150.542 60.1849C150.705 60.2939 150.832 60.4497 150.905 60.6319C150.978 60.814 150.995 61.014 150.952 61.2057C150.91 61.3973 150.81 61.5717 150.667 61.7059C150.524 61.8401 150.343 61.9279 150.149 61.9578L150.129 61.9609C150.115 61.9629 150.103 61.965 150.089 61.967C150.519 62.994 151.122 63.9393 151.873 64.7615C152.801 65.7568 153.922 66.5521 155.168 67.0987C156.413 67.6453 157.758 67.9317 159.118 67.9403H159.12C159.489 69.5451 160.024 71.1071 160.717 72.6012H166.42C166.441 72.5378 166.459 72.4724 166.477 72.409C165.949 72.4422 165.419 72.4106 164.899 72.315C165.322 71.7958 165.745 71.2724 166.169 70.7532C166.178 70.7435 166.187 70.7332 166.195 70.7225C166.41 70.4568 166.627 70.1931 166.841 69.9273L166.841 69.927C166.853 69.1124 166.759 68.2996 166.563 67.5089ZM160.032 54.6609L160.035 54.6569L160.032 54.665V54.6609ZM158.768 66.0494L158.719 65.939C158.721 65.8593 158.721 65.7796 158.719 65.6978C158.719 65.6753 158.715 65.6528 158.715 65.6303C158.734 65.7714 158.75 65.9125 158.77 66.0535L158.768 66.0494Z" fill="#2F2E41"/>
</g>
<defs>
<linearGradient id="paint0_linear_82_758" x1="157.135" y1="20.9287" x2="157.135" y2="72.6014" gradientUnits="userSpaceOnUse">
<stop stop-color="#22DCD9"/>
<stop offset="0.333333" stop-color="#5456AB"/>
<stop offset="0.666667" stop-color="#97238A"/>
<stop offset="1" stop-color="#F73E94"/>
</linearGradient>
<linearGradient id="paint1_linear_82_758" x1="112.937" y1="44.801" x2="123.845" y2="44.801" gradientUnits="userSpaceOnUse">
<stop stop-color="#F73E94"/>
<stop offset="0.333333" stop-color="#97238A"/>
<stop offset="0.666667" stop-color="#5456AB"/>
<stop offset="1" stop-color="#22DCD9"/>
</linearGradient>
<linearGradient id="paint2_linear_82_758" x1="109" y1="64" x2="101.5" y2="73" gradientUnits="userSpaceOnUse">
<stop stop-color="#F73E94"/>
<stop offset="1" stop-color="#B074AC"/>
</linearGradient>
<clipPath id="clip0_82_758">
<rect width="217.746" height="160" fill="white"/>
</clipPath>
</defs>
</svg>
