<svg width="30" height="30" viewBox="0 0 30 30" fill="none" xmlns="http://www.w3.org/2000/svg">
<path d="M19.8 14.8439C19.8 15.7834 19.5185 16.7018 18.9911 17.4829C18.4636 18.2641 17.714 18.8729 16.8369 19.2324C15.9598 19.5919 14.9947 19.686 14.0636 19.5027C13.1325 19.3194 12.2772 18.867 11.6059 18.2027C10.9346 17.5384 10.4774 16.692 10.2922 15.7706C10.107 14.8492 10.2021 13.8941 10.5654 13.0262C10.9287 12.1582 11.5439 11.4164 12.3333 10.8944C13.1226 10.3725 14.0506 10.0939 15 10.0939C16.2718 10.0978 17.4904 10.5995 18.3897 11.4895C19.2891 12.3794 19.796 13.5853 19.8 14.8439ZM30 8.3126V21.3753C30 23.5799 29.115 25.6943 27.5397 27.2532C25.9644 28.8121 23.8278 29.6879 21.6 29.6879H8.4C6.17218 29.6879 4.03561 28.8121 2.4603 27.2532C0.884997 25.6943 0 23.5799 0 21.3753V8.3126C0 6.10797 0.884997 3.99362 2.4603 2.43471C4.03561 0.87579 6.17218 0 8.4 0H21.6C23.8278 0 25.9644 0.87579 27.5397 2.43471C29.115 3.99362 30 6.10797 30 8.3126ZM22.2 14.8439C22.2 13.4347 21.7777 12.0572 20.9866 10.8855C20.1954 9.71373 19.0709 8.80049 17.7553 8.26121C16.4397 7.72193 14.992 7.58083 13.5953 7.85575C12.1987 8.13068 10.9158 8.80928 9.90883 9.80574C8.90189 10.8022 8.21616 12.0718 7.93835 13.4539C7.66053 14.836 7.80312 16.2687 8.34807 17.5706C8.89302 18.8725 9.81586 19.9853 10.9999 20.7682C12.1839 21.5511 13.576 21.969 15 21.969C16.9096 21.969 18.7409 21.2184 20.0912 19.8821C21.4414 18.5459 22.2 16.7336 22.2 14.8439ZM24.6 7.12509C24.6 6.77279 24.4944 6.4284 24.2966 6.13547C24.0989 5.84254 23.8177 5.61423 23.4888 5.47941C23.1599 5.34459 22.798 5.30931 22.4488 5.37804C22.0997 5.44677 21.7789 5.61642 21.5272 5.86554C21.2755 6.11466 21.104 6.43205 21.0346 6.77758C20.9651 7.12311 21.0008 7.48127 21.137 7.80675C21.2733 8.13224 21.504 8.41044 21.8 8.60616C22.096 8.80189 22.444 8.90636 22.8 8.90636C23.2774 8.90636 23.7352 8.71869 24.0728 8.38464C24.4104 8.05059 24.6 7.59751 24.6 7.12509Z" fill="black"/>
</svg>
