<svg width="30" height="30" viewBox="0 0 30 30" fill="none" xmlns="http://www.w3.org/2000/svg">
<path d="M0 15V27C0 28.6569 1.34315 30 3 30H15H27C28.6569 30 30 28.6569 30 27V15V3C30 1.34315 28.6569 0 27 0H15H3C1.34315 0 0 1.34315 0 3V15ZM20.1486 5.6732C21.3526 5.94118 22.0776 6.31372 22.8492 7.08497C23.6208 7.85621 24.0599 8.73203 24.2594 9.9281C24.3925 10.732 24.4656 16.8105 24.3526 18.4379C24.2195 20.5098 23.8004 21.5359 22.6696 22.5817C21.8049 23.3856 20.8004 23.7778 19.2971 23.9216C17.082 24.1242 10.9623 24.0523 9.74501 23.7974C8.61419 23.5686 7.72949 23.0915 6.99778 22.3268C6.09978 21.3791 5.69401 20.2745 5.59423 18.4641C5.52772 17.2484 5.52772 12.1569 5.59423 11.0523C5.71397 9.0915 6.13304 8.01961 7.18404 6.99346C8.05543 6.14379 9.21286 5.6732 10.7428 5.56209C11.1486 5.52941 13.2838 5.5098 15.4989 5.51634C19.3237 5.53595 19.5565 5.54248 20.1486 5.6732Z" fill="black"/>
<path d="M13.6027 7.19612C10.6959 7.2288 10.4431 7.24187 9.96415 7.37259C9.26571 7.56214 8.82003 7.79743 8.37435 8.2092C7.69586 8.84972 7.42313 9.58828 7.3167 11.0785C7.23688 12.2484 7.23688 17.4249 7.3167 18.4968C7.42313 19.8693 7.66925 20.5425 8.31449 21.2027C9.07945 21.987 9.72469 22.1896 11.7069 22.2942C13.2169 22.3661 16.9087 22.3595 18.4919 22.2811C19.0972 22.2484 19.769 22.1831 19.9885 22.1242C21.2391 21.804 21.9908 21.1242 22.3832 19.9804C22.6493 19.1896 22.6959 18.1831 22.6626 14.0654C22.6293 10.2419 22.616 10.0458 22.3101 9.27455C21.9708 8.42488 21.1659 7.70593 20.2613 7.43795C19.4298 7.19612 17.9331 7.14384 13.6027 7.19612ZM20.6072 8.86279C21.3389 9.28763 21.3123 10.3726 20.554 10.7648C20.0418 11.0327 19.4098 10.8955 19.0772 10.451C18.8112 10.0981 18.8378 9.42488 19.1371 9.07848C19.4963 8.66018 20.1016 8.56867 20.6072 8.86279ZM16.5429 10.2419C17.248 10.4902 17.7469 10.7909 18.279 11.2746C20.2014 13.0197 20.3411 16.0393 18.5783 17.9085C17.8732 18.6536 17.1748 19.085 16.2302 19.3464C15.5451 19.536 14.401 19.536 13.7158 19.3464C11.7735 18.817 10.4231 17.2615 10.1637 15.2615C10.0373 14.2549 10.2701 13.1896 10.8289 12.3007C11.514 11.1896 12.4919 10.4706 13.769 10.1308C14.1814 10.0197 14.4143 10.0066 15.1327 10.0262C15.8843 10.0458 16.0706 10.0719 16.5429 10.2419Z" fill="black"/>
<path d="M14.6672 11.6861C13.3767 11.8102 12.2792 12.758 11.9399 14.0325C11.5807 15.3854 12.2858 16.8495 13.5963 17.4835C15.6916 18.5031 18.0929 17.0325 18.0929 14.7318C18.0929 13.4181 17.1949 12.2089 15.9311 11.8168C15.6783 11.7384 14.9333 11.6599 14.6672 11.6861Z" fill="black"/>
</svg>
