<svg width="114" height="26" viewBox="0 0 114 26" fill="none" xmlns="http://www.w3.org/2000/svg">
<rect y="0.0759277" width="90" height="25" rx="12.5" fill="url(#paint0_linear_1_24)"/>
<path d="M32.464 16.0759V7.67593H33.076V16.0759H32.464ZM35.8111 16.0759V9.81193H36.3871V11.5279L36.3271 11.3359C36.5031 10.8319 36.7991 10.4439 37.2151 10.1719C37.6311 9.89993 38.1511 9.76393 38.7751 9.76393V10.3519C38.7511 10.3519 38.7271 10.3519 38.7031 10.3519C38.6791 10.3439 38.6551 10.3399 38.6311 10.3399C37.9351 10.3399 37.3911 10.5599 36.9991 10.9999C36.6071 11.4319 36.4111 12.0359 36.4111 12.8119V16.0759H35.8111ZM40.4283 16.0759V9.81193H41.0283V16.0759H40.4283ZM40.7283 8.28793C40.5923 8.28793 40.4763 8.23993 40.3803 8.14393C40.2843 8.04793 40.2363 7.93593 40.2363 7.80793C40.2363 7.67193 40.2843 7.55593 40.3803 7.45993C40.4763 7.36393 40.5923 7.31593 40.7283 7.31593C40.8723 7.31593 40.9883 7.36393 41.0763 7.45993C41.1723 7.54793 41.2203 7.65993 41.2203 7.79593C41.2203 7.93193 41.1723 8.04793 41.0763 8.14393C40.9883 8.23993 40.8723 8.28793 40.7283 8.28793ZM46.6172 9.76393C47.1292 9.76393 47.5732 9.86393 47.9492 10.0639C48.3332 10.2559 48.6292 10.5519 48.8372 10.9519C49.0532 11.3439 49.1612 11.8319 49.1612 12.4159V16.0759H48.5612V12.4639C48.5612 11.7599 48.3812 11.2239 48.0212 10.8559C47.6692 10.4879 47.1732 10.3039 46.5332 10.3039C46.0452 10.3039 45.6212 10.4039 45.2612 10.6039C44.9012 10.8039 44.6252 11.0839 44.4332 11.4439C44.2492 11.8039 44.1572 12.2359 44.1572 12.7399V16.0759H43.5572V9.81193H44.1332V11.5519L44.0492 11.3599C44.2412 10.8639 44.5572 10.4759 44.9972 10.1959C45.4372 9.90793 45.9772 9.76393 46.6172 9.76393ZM55.5794 16.0759V14.6479L55.5554 14.4319V12.0799C55.5554 11.4959 55.3954 11.0519 55.0754 10.7479C54.7634 10.4439 54.3034 10.2919 53.6954 10.2919C53.2634 10.2919 52.8594 10.3679 52.4834 10.5199C52.1154 10.6639 51.7994 10.8519 51.5354 11.0839L51.2354 10.6519C51.5474 10.3719 51.9234 10.1559 52.3634 10.0039C52.8034 9.84393 53.2634 9.76393 53.7434 9.76393C54.5194 9.76393 55.1154 9.95993 55.5314 10.3519C55.9474 10.7439 56.1554 11.3279 56.1554 12.1039V16.0759H55.5794ZM53.3234 16.1239C52.8594 16.1239 52.4554 16.0519 52.1114 15.9079C51.7754 15.7559 51.5154 15.5439 51.3314 15.2719C51.1554 14.9999 51.0674 14.6879 51.0674 14.3359C51.0674 14.0159 51.1394 13.7279 51.2834 13.4719C51.4354 13.2079 51.6834 12.9959 52.0274 12.8359C52.3714 12.6679 52.8314 12.5839 53.4074 12.5839H55.7114V13.0519H53.4194C52.7714 13.0519 52.3154 13.1719 52.0514 13.4119C51.7954 13.6519 51.6674 13.9519 51.6674 14.3119C51.6674 14.7119 51.8194 15.0319 52.1234 15.2719C52.4274 15.5119 52.8554 15.6319 53.4074 15.6319C53.9354 15.6319 54.3794 15.5119 54.7394 15.2719C55.1074 15.0319 55.3794 14.6839 55.5554 14.2279L55.7234 14.6359C55.5554 15.0919 55.2674 15.4559 54.8594 15.7279C54.4594 15.9919 53.9474 16.1239 53.3234 16.1239Z" fill="white"/>
<path d="M100 8.07599H109.029V18.8773H100V8.07599Z" fill="#F13F95"/>
<path d="M113.366 14.255C113.713 13.8755 113.715 13.295 113.372 12.9125L109.029 8.07587L108.982 19.0549L113.366 14.255Z" fill="#F13F95"/>
<defs>
<linearGradient id="paint0_linear_1_24" x1="7" y1="1.57592" x2="90" y2="13.0759" gradientUnits="userSpaceOnUse">
<stop stop-color="#5456AB"/>
<stop offset="0.5" stop-color="#97238A"/>
<stop offset="1" stop-color="#F73E94"/>
</linearGradient>
</defs>
</svg>
