<svg width="14" height="16" viewBox="0 0 14 16" fill="none" xmlns="http://www.w3.org/2000/svg">
<path d="M6.94266 0.213074C6.93141 0.362227 6.89201 0.640835 6.85542 0.832201C6.64436 1.8622 6.18283 2.60515 5.57214 2.88658C5.33575 2.99633 4.96709 3.02447 4.71099 2.94849C4.35359 2.84718 3.93708 2.53199 3.63596 2.13237C3.56561 2.0395 3.49807 1.95226 3.484 1.93819C3.47274 1.9213 3.50651 2.0198 3.55998 2.15207C3.71476 2.52917 3.77386 2.79652 3.77386 3.11734C3.77386 3.71395 3.53465 4.11076 3.02528 4.3556C2.72416 4.50193 2.42867 4.54978 1.96995 4.53008C1.40711 4.50475 0.852706 4.36122 0.23358 4.07136C-0.0703553 3.93065 -0.0731695 3.93346 0.211066 4.13046C1.17353 4.79743 1.79265 5.65858 1.84894 6.40997C1.89959 7.11352 1.47746 7.63697 0.66134 7.87336C0.523444 7.91276 0.318006 7.95216 0.205438 7.96342C0.092869 7.97186 0 7.98874 0 8C0 8.01126 0.092869 8.02814 0.205438 8.03658C0.68104 8.0788 1.19323 8.29268 1.48028 8.57691C1.7617 8.85271 1.87708 9.17634 1.84894 9.59003C1.79265 10.3414 1.17353 11.2026 0.211066 11.8695C-0.0703553 12.0637 -0.0703553 12.0694 0.211066 11.9371C0.861149 11.636 1.39866 11.4953 1.96995 11.4699C2.42867 11.4502 2.72416 11.5009 3.02528 11.6444C3.53465 11.8892 3.77386 12.286 3.77386 12.8827C3.77386 13.2035 3.71476 13.4708 3.55998 13.8479C3.50651 13.9802 3.47274 14.0787 3.484 14.0618C3.49807 14.0477 3.56561 13.9605 3.63596 13.8676C3.93708 13.468 4.35359 13.1528 4.71099 13.0515C4.96709 12.9755 5.33575 13.0037 5.57214 13.1134C6.18283 13.3948 6.64436 14.1378 6.85542 15.1678C6.89201 15.3592 6.93141 15.6378 6.94266 15.7869C6.96236 16.0937 6.9905 16.0683 7.01865 15.7166C7.11714 14.5008 7.6434 13.4793 8.3554 13.1275C8.53832 13.0374 8.59179 13.0234 8.82537 13.0149C9.03362 13.0037 9.12649 13.0149 9.27846 13.06C9.62742 13.1669 10.0355 13.4849 10.3338 13.8873C10.4126 13.9943 10.4801 14.0787 10.4886 14.0787C10.4942 14.0787 10.4745 14.0309 10.4435 13.9746C10.345 13.7748 10.2184 13.3498 10.1846 13.0994C10.0805 12.2804 10.5252 11.6725 11.3553 11.5009C11.5298 11.4643 11.6677 11.4587 11.9745 11.4699C12.5486 11.4924 13.0185 11.6135 13.6743 11.9089C13.8459 11.9849 13.9866 12.044 13.9866 12.0384C13.9866 12.0328 13.9191 11.9877 13.8403 11.9371C13.5758 11.7682 13.1536 11.4136 12.9116 11.1547C12.163 10.3611 11.9154 9.51123 12.2418 8.87241C12.3347 8.68667 12.6189 8.42213 12.8469 8.30394C13.0945 8.17448 13.4857 8.0591 13.7531 8.03658C13.8656 8.02814 13.9585 8.01126 13.9585 8C13.9585 7.98874 13.8656 7.97186 13.7531 7.96342C13.4857 7.9409 13.0945 7.82552 12.8469 7.69606C12.6189 7.57787 12.3347 7.31333 12.2418 7.12759C11.9154 6.48877 12.163 5.63888 12.9116 4.84527C13.1536 4.58636 13.5758 4.23177 13.8403 4.06292C13.9191 4.01226 13.9866 3.96723 13.9866 3.96161C13.9866 3.95598 13.8459 4.01508 13.6743 4.09106C13.0101 4.38937 12.5486 4.50756 11.9604 4.53008C11.6058 4.54415 11.5186 4.5357 11.3019 4.48505C10.497 4.29087 10.0833 3.70551 10.1846 2.90065C10.2184 2.65018 10.345 2.22524 10.4435 2.02543C10.4745 1.96914 10.4942 1.9213 10.4886 1.9213C10.4801 1.9213 10.4126 2.00573 10.3338 2.10985C10.0355 2.5151 9.62742 2.83311 9.27846 2.94005C9.12649 2.98507 9.03362 2.99633 8.82537 2.98507C8.59179 2.97663 8.53832 2.96256 8.3554 2.87251C7.6434 2.52073 7.11714 1.49917 7.01865 0.283429C6.9905 -0.0683479 6.96236 -0.0936756 6.94266 0.213074ZM7.5843 4.10232C7.98111 4.16423 8.31318 4.27117 8.68185 4.45128C9.50922 4.85653 10.1312 5.47847 10.528 6.2974C10.8094 6.87713 10.9191 7.3668 10.9191 8.02814C10.9191 8.6923 10.8066 9.18478 10.528 9.75888C9.97638 10.8846 8.97452 11.6641 7.73346 11.9315C7.39857 12.0046 6.50083 12.0018 6.16313 11.9286C5.88733 11.8695 5.4258 11.7119 5.22318 11.6106C4.28042 11.1378 3.54872 10.3245 3.2082 9.36489C3.06468 8.95402 3.00839 8.65008 2.99151 8.16885C2.97181 7.62852 3.02246 7.25986 3.18287 6.77582C3.39113 6.15388 3.66411 5.71205 4.15096 5.228C4.7729 4.60325 5.45957 4.24303 6.30384 4.10232C6.59933 4.05166 7.27755 4.05166 7.5843 4.10232Z" fill="url(#paint0_linear_49_7104)"/>
<defs>
<linearGradient id="paint0_linear_49_7104" x1="14.4237" y1="13.9866" x2="1.31125" y2="1.7483" gradientUnits="userSpaceOnUse">
<stop stop-color="#22DCD9"/>
<stop offset="0.333333" stop-color="#5456AB"/>
<stop offset="0.666667" stop-color="#97238A"/>
<stop offset="1" stop-color="#F73E94"/>
</linearGradient>
</defs>
</svg>
