<svg width="31" height="30" viewBox="0 0 31 30" fill="none" xmlns="http://www.w3.org/2000/svg">
<path fill-rule="evenodd" clip-rule="evenodd" d="M0.601074 2.96879C0.601074 2.18142 0.917145 1.42629 1.47975 0.869538C2.04236 0.312782 2.80542 0 3.60107 0L27.6011 0C28.3967 0 29.1598 0.312782 29.7224 0.869538C30.285 1.42629 30.6011 2.18142 30.6011 2.96879V26.7191C30.6011 27.5065 30.285 28.2616 29.7224 28.8183C29.1598 29.3751 28.3967 29.6879 27.6011 29.6879H3.60107C2.80542 29.6879 2.04236 29.3751 1.47975 28.8183C0.917145 28.2616 0.601074 27.5065 0.601074 26.7191L0.601074 2.96879ZM10.6011 8.90636C10.6011 9.4529 10.158 9.89596 9.61148 9.89596H9.59067C9.04413 9.89596 8.60107 9.4529 8.60107 8.90636C8.60107 8.35982 9.04413 7.91677 9.59067 7.91677H9.61148C10.158 7.91677 10.6011 8.35982 10.6011 8.90636ZM9.60107 21.7711C9.04879 21.7711 8.60107 21.3234 8.60107 20.7711V12.8752C8.60107 12.3229 9.04879 11.8752 9.60107 11.8752C10.1534 11.8752 10.6011 12.3229 10.6011 12.8752V20.7711C10.6011 21.3234 10.1534 21.7711 9.60107 21.7711ZM17.6011 13.8543C16.8054 13.8543 16.0424 14.1671 15.4798 14.7239C14.9171 15.2806 14.6011 16.0358 14.6011 16.8231V20.7711C14.6011 21.3234 14.1534 21.7711 13.6011 21.7711C13.0488 21.7711 12.6011 21.3234 12.6011 20.7711V12.8752C12.6011 12.3229 13.0488 11.8752 13.6011 11.8752H14.2698C14.4528 11.8752 14.6011 12.0235 14.6011 12.2064C14.6011 12.4786 14.916 12.6404 15.154 12.5082C15.7667 12.1679 16.4473 11.958 17.152 11.8951C18.0769 11.8126 19.0066 11.9866 19.8371 12.3975C20.6677 12.8085 21.3662 13.4402 21.8543 14.2218C22.3425 15.0035 22.6011 15.9042 22.6011 16.8231V20.7711C22.6011 21.3234 22.1534 21.7711 21.6011 21.7711C21.0488 21.7711 20.6011 21.3234 20.6011 20.7711V16.8231C20.6011 16.0358 20.285 15.2806 19.7224 14.7239C19.1598 14.1671 18.3967 13.8543 17.6011 13.8543Z" fill="#DEDEDE"/>
</svg>
