<svg width="230" height="12" viewBox="0 0 230 12" fill="none" xmlns="http://www.w3.org/2000/svg">
<path fill-rule="evenodd" clip-rule="evenodd" d="M5.66229 0.333496H6.21292C9.34012 0.333496 11.8752 2.53057 11.8752 5.24081V5.93764C11.8752 8.64788 9.34012 10.845 6.21292 10.845H5.66229C2.53509 10.845 0 8.64788 0 5.93764V5.24081C0 2.53057 2.53509 0.333496 5.66229 0.333496ZM21.2707 0.333496H30.8313C34.0258 0.333496 36.6154 2.57784 36.6154 5.34639V5.83206C36.6154 8.60061 34.0258 10.845 30.8313 10.845H21.2707C18.0762 10.845 15.4866 8.60061 15.4866 5.83206V5.34639C15.4866 2.57784 18.0762 0.333496 21.2707 0.333496ZM42.7209 0.333496H42.4968C41.2427 0.333496 40.226 1.21459 40.226 2.30148V8.87695C40.226 9.96384 41.2427 10.845 42.4968 10.845H42.7209C43.975 10.845 44.9917 9.96384 44.9917 8.87695V2.30148C44.9917 1.21459 43.975 0.333496 42.7209 0.333496ZM52.3155 0.333496H52.6956C54.8835 0.333496 56.6572 1.8707 56.6572 3.76693V7.41152C56.6572 9.30776 54.8835 10.845 52.6956 10.845H52.3155C50.1275 10.845 48.3538 9.30776 48.3538 7.41152V3.76693C48.3538 1.8707 50.1275 0.333496 52.3155 0.333496Z" fill="url(#paint0_linear_49_7075)"/>
<path d="M71.3676 11.1303C70.5379 11.1303 69.7458 10.9954 68.9915 10.7256C68.248 10.4454 67.6661 10.0874 67.2458 9.6515L67.6176 9.05999C68.0163 9.46471 68.5497 9.79678 69.2178 10.0562C69.8967 10.3053 70.6079 10.4298 71.3515 10.4298C72.4291 10.4298 73.2427 10.2326 73.7922 9.83829C74.3418 9.44395 74.6166 8.93027 74.6166 8.29725C74.6166 7.80951 74.4711 7.42035 74.1802 7.12978C73.8892 6.83922 73.5282 6.6161 73.0972 6.46044C72.6661 6.30478 72.0842 6.14393 71.3515 5.97789C70.5217 5.78072 69.8536 5.58874 69.3471 5.40194C68.8514 5.21515 68.4258 4.92977 68.0702 4.5458C67.7253 4.15146 67.5529 3.6274 67.5529 2.97362C67.5529 2.44437 67.6984 1.96182 67.9893 1.52597C68.2803 1.07974 68.7221 0.726909 69.3148 0.467473C69.9182 0.208037 70.6672 0.0783189 71.5616 0.0783189C72.1866 0.0783189 72.8008 0.166527 73.4043 0.342944C74.0078 0.51936 74.5304 0.758041 74.9722 1.05899L74.6651 1.6972C74.2125 1.39625 73.7114 1.16795 73.1618 1.01229C72.623 0.856626 72.0896 0.778796 71.5616 0.778796C70.5163 0.778796 69.7243 0.981156 69.1855 1.38588C68.6467 1.7906 68.3773 2.31466 68.3773 2.95806C68.3773 3.4458 68.5227 3.83495 68.8137 4.12552C69.1047 4.41609 69.4657 4.6392 69.8967 4.79486C70.3277 4.95052 70.915 5.11656 71.6586 5.29298C72.4883 5.49015 73.1511 5.68213 73.6468 5.86893C74.1425 6.05572 74.5627 6.3411 74.9076 6.72506C75.2632 7.09865 75.441 7.60715 75.441 8.25055C75.441 8.7798 75.2901 9.26235 74.9884 9.6982C74.6974 10.1341 74.2448 10.4817 73.6306 10.7411C73.0164 11.0006 72.262 11.1303 71.3676 11.1303Z" fill="black"/>
<path d="M84.806 0.15615C86.2285 0.15615 87.3438 0.483039 88.152 1.13682C88.9602 1.78022 89.3643 2.67787 89.3643 3.82976C89.3643 4.97128 88.9602 5.86893 88.152 6.5227C87.3438 7.1661 86.2285 7.4878 84.806 7.4878H81.5732V11.0525H80.7488V0.15615H84.806ZM84.806 6.77176C86.0129 6.77176 86.9343 6.51752 87.5701 6.00902C88.2059 5.50053 88.5237 4.77411 88.5237 3.82976C88.5237 2.88541 88.2059 2.15899 87.5701 1.6505C86.9343 1.13163 86.0129 0.872192 84.806 0.872192H81.5732V6.77176H84.806Z" fill="black"/>
<path d="M102.458 10.3364V11.0525H94.6512V0.15615H102.216V0.872192H95.4756V5.16845H101.505V5.86893H95.4756V10.3364H102.458Z" fill="black"/>
<path d="M112.691 11.1303C111.581 11.1303 110.579 10.8916 109.684 10.4142C108.801 9.93688 108.1 9.27791 107.583 8.43734C107.077 7.59677 106.823 6.65242 106.823 5.6043C106.823 4.55618 107.077 3.61183 107.583 2.77126C108.1 1.93069 108.801 1.27172 109.684 0.794362C110.579 0.317 111.581 0.0783189 112.691 0.0783189C113.51 0.0783189 114.264 0.208037 114.954 0.467473C115.644 0.716531 116.231 1.09012 116.716 1.58824L116.199 2.10192C115.293 1.24059 114.135 0.809928 112.723 0.809928C111.775 0.809928 110.913 1.01748 110.137 1.43257C109.361 1.84767 108.752 2.42362 108.31 3.16042C107.869 3.88684 107.648 4.70147 107.648 5.6043C107.648 6.50714 107.869 7.32695 108.31 8.06375C108.752 8.79017 109.361 9.36093 110.137 9.77603C110.913 10.1911 111.775 10.3987 112.723 10.3987C114.124 10.3987 115.283 9.96282 116.199 9.09112L116.716 9.6048C116.231 10.1029 115.638 10.4817 114.938 10.7411C114.248 11.0006 113.499 11.1303 112.691 11.1303Z" fill="black"/>
<path d="M124.006 0.872192H119.933V0.15615H128.904V0.872192H124.831V11.0525H124.006V0.872192Z" fill="black"/>
<path d="M141.31 11.0525L138.61 7.40997C138.211 7.46186 137.845 7.4878 137.511 7.4878H134.278V11.0525H133.454V0.15615H137.511C138.933 0.15615 140.049 0.483039 140.857 1.13682C141.665 1.78022 142.069 2.67787 142.069 3.82976C142.069 4.69109 141.838 5.41751 141.374 6.00902C140.922 6.59016 140.27 7.00007 139.418 7.23875L142.247 11.0525H141.31ZM137.511 6.78733C138.718 6.78733 139.639 6.53308 140.275 6.02459C140.911 5.50572 141.229 4.77411 141.229 3.82976C141.229 2.88541 140.911 2.15899 140.275 1.6505C139.639 1.13163 138.718 0.872192 137.511 0.872192H134.278V6.78733H137.511Z" fill="black"/>
<path d="M152.022 11.1303C150.589 11.1303 149.473 10.7308 148.676 9.93169C147.889 9.13263 147.496 7.96517 147.496 6.42931V0.15615H148.32V6.39817C148.32 7.73686 148.638 8.73829 149.274 9.40244C149.91 10.0666 150.831 10.3987 152.038 10.3987C153.234 10.3987 154.15 10.0666 154.786 9.40244C155.422 8.73829 155.74 7.73686 155.74 6.39817V0.15615H156.564V6.42931C156.564 7.96517 156.165 9.13263 155.368 9.93169C154.57 10.7308 153.455 11.1303 152.022 11.1303Z" fill="black"/>
<path d="M173.617 11.0525L173.6 1.72833L168.864 9.6048H168.46L163.724 1.75946V11.0525H162.916V0.15615H163.611L168.67 8.57744L173.73 0.15615H174.409L174.425 11.0525H173.617Z" fill="black"/>
<path d="M196.958 0.15615L193.208 11.0525H190.978L188.181 2.98919L185.336 11.0525H183.09L179.339 0.15615H181.522L184.334 8.43734L187.26 0.15615H189.2L192.061 8.48404L194.954 0.15615H196.958Z" fill="black"/>
<path d="M201.176 0.15615H203.277V11.0525H201.176V0.15615Z" fill="black"/>
<path d="M212.35 11.2081C211.478 11.2081 210.632 11.0888 209.813 10.8501C209.004 10.6114 208.363 10.2949 207.889 9.90056L208.617 8.32838C209.08 8.68121 209.646 8.97178 210.314 9.20008C210.993 9.41801 211.672 9.52697 212.35 9.52697C213.191 9.52697 213.816 9.39725 214.225 9.13782C214.646 8.87838 214.856 8.53593 214.856 8.11045C214.856 7.79913 214.737 7.54488 214.5 7.34771C214.274 7.14016 213.983 6.97931 213.627 6.86516C213.272 6.75101 212.787 6.62129 212.173 6.47601C211.311 6.27883 210.61 6.08166 210.071 5.88449C209.543 5.68732 209.085 5.38119 208.697 4.96609C208.32 4.54061 208.132 3.96986 208.132 3.25381C208.132 2.65192 208.299 2.10711 208.633 1.61937C208.977 1.12125 209.489 0.726908 210.168 0.43634C210.858 0.145772 211.698 0.000488281 212.69 0.000488281C213.38 0.000488281 214.058 0.0835079 214.727 0.249547C215.395 0.415586 215.971 0.654267 216.456 0.96559L215.793 2.53777C215.298 2.25758 214.78 2.04484 214.242 1.89956C213.703 1.75427 213.18 1.68163 212.674 1.68163C211.844 1.68163 211.224 1.81654 210.815 2.08635C210.416 2.35617 210.217 2.71419 210.217 3.16042C210.217 3.47174 210.33 3.72599 210.556 3.92316C210.793 4.12033 211.09 4.27599 211.445 4.39014C211.801 4.50429 212.286 4.63401 212.9 4.7793C213.741 4.96609 214.43 5.16326 214.969 5.37081C215.508 5.56798 215.966 5.87411 216.343 6.28921C216.731 6.70431 216.925 7.26469 216.925 7.97036C216.925 8.57225 216.752 9.11706 216.408 9.6048C216.074 10.0925 215.562 10.4817 214.872 10.7723C214.182 11.0628 213.342 11.2081 212.35 11.2081Z" fill="black"/>
<path d="M230 9.35574V11.0525H221.514V0.15615H229.774V1.85286H223.615V4.6859H229.079V6.35148H223.615V9.35574H230Z" fill="black"/>
<defs>
<linearGradient id="paint0_linear_49_7075" x1="0" y1="0.333496" x2="55.7061" y2="14.1861" gradientUnits="userSpaceOnUse">
<stop stop-color="#22DCD9"/>
<stop offset="0.333333" stop-color="#5456AB"/>
<stop offset="0.666667" stop-color="#97238A"/>
<stop offset="1" stop-color="#F73E94"/>
</linearGradient>
</defs>
</svg>
