<svg width="170" height="120" viewBox="0 0 170 120" fill="none" xmlns="http://www.w3.org/2000/svg">
<path fill-rule="evenodd" clip-rule="evenodd" d="M16.9087 88.4902H18.553C27.8915 88.4902 35.4617 95.0511 35.4617 103.144V105.225C35.4617 113.319 27.8915 119.88 18.553 119.88H16.9087C7.57028 119.88 0 113.319 0 105.225V103.144C0 95.0511 7.57028 88.4902 16.9087 88.4902ZM63.5189 88.4904H92.0688C101.608 88.4904 109.341 95.1925 109.341 103.46V104.91C109.341 113.178 101.608 119.88 92.0688 119.88H63.5189C53.9796 119.88 46.2464 113.178 46.2464 104.91V103.46C46.2464 95.1925 53.9796 88.4904 63.5189 88.4904ZM127.573 88.4904H126.903C123.158 88.4904 120.122 91.1215 120.122 94.3672V114.003C120.122 117.249 123.158 119.88 126.903 119.88H127.573C131.318 119.88 134.354 117.249 134.354 114.003V94.3672C134.354 91.1215 131.318 88.4904 127.573 88.4904ZM156.224 88.4904H157.359C163.893 88.4904 169.189 93.0808 169.189 98.7433V109.627C169.189 115.289 163.893 119.88 157.359 119.88H156.224C149.69 119.88 144.394 115.289 144.394 109.627V98.7433C144.394 93.0808 149.69 88.4904 156.224 88.4904Z" fill="url(#paint0_linear_59_6053)"/>
<path d="M39.866 52.5289C36.0682 52.5289 32.4429 51.8877 28.9903 50.6053C25.587 49.2736 22.9236 47.572 21 45.5004L22.7016 42.689C24.5266 44.6126 26.9681 46.1909 30.0261 47.424C33.1334 48.6078 36.3888 49.1996 39.792 49.1996C44.7243 49.1996 48.4482 48.2625 50.9637 46.3882C53.4792 44.514 54.7369 42.0725 54.7369 39.0638C54.7369 36.7456 54.071 34.896 52.7393 33.5149C51.4076 32.1339 49.7553 31.0735 47.7824 30.3336C45.8094 29.5938 43.146 28.8293 39.792 28.0401C35.9942 27.103 32.9362 26.1905 30.618 25.3027C28.3491 24.4149 26.4009 23.0585 24.7732 21.2335C23.1949 19.3593 22.4057 16.8685 22.4057 13.7611C22.4057 11.2456 23.0716 8.95212 24.4033 6.88055C25.735 4.75967 27.7572 3.08269 30.47 1.84961C33.2321 0.616538 36.66 0 40.7538 0C43.6146 0 46.426 0.419246 49.1881 1.25774C51.9502 2.09623 54.3423 3.23066 56.3646 4.66102L54.9589 7.69438C52.8873 6.26401 50.5938 5.17891 48.0783 4.43907C45.6122 3.69922 43.1707 3.3293 40.7538 3.3293C35.9695 3.3293 32.3443 4.2911 29.8781 6.21469C27.412 8.13829 26.1789 10.6291 26.1789 13.6871C26.1789 16.0053 26.8448 17.8549 28.1765 19.236C29.5082 20.617 31.1605 21.6774 33.1334 22.4173C35.1064 23.1571 37.7945 23.9463 41.1978 24.7848C44.9956 25.7219 48.029 26.6344 50.2978 27.5222C52.5667 28.41 54.4903 29.7664 56.0686 31.5914C57.6963 33.367 58.5101 35.7838 58.5101 38.8418C58.5101 41.3573 57.8196 43.6508 56.4385 45.7224C55.1068 47.7939 53.0353 49.4463 50.2239 50.6793C47.4124 51.9124 43.9598 52.5289 39.866 52.5289Z" fill="white"/>
<path d="M147.319 0.369922L130.007 52.159H122.238L108.107 10.8017L93.9764 52.159H86.0601L68.7477 0.369922H76.3681L90.3512 42.4671L104.926 0.369922H111.733L126.012 42.689L140.291 0.369922H147.319Z" fill="white"/>
<defs>
<linearGradient id="paint0_linear_59_6053" x1="0" y1="88.4902" x2="166.349" y2="129.857" gradientUnits="userSpaceOnUse">
<stop stop-color="#22DCD9"/>
<stop offset="0.333333" stop-color="#5456AB"/>
<stop offset="0.666667" stop-color="#97238A"/>
<stop offset="1" stop-color="#F73E94"/>
</linearGradient>
</defs>
</svg>
