<svg width="333" height="295" viewBox="0 0 333 295" fill="none" xmlns="http://www.w3.org/2000/svg">
<g clip-path="url(#clip0_49_6797)">
<path d="M211.29 288.637L211.287 288.607C210.909 280.282 209.368 272.05 206.709 264.145L206.706 264.132C206.551 263.32 206.596 262.483 206.838 261.692C207.58 259.425 209.883 258.037 212.255 258.428C214.704 258.884 217.238 258.455 219.396 257.219C220.767 256.431 222.43 256.321 223.893 256.924C225.273 257.481 226.305 258.654 226.676 260.085C226.705 260.197 226.731 260.311 226.753 260.427C226.83 268.79 228.38 277.076 231.331 284.912L231.333 284.922C231.642 286.54 231.149 288.207 230.009 289.404C229 290.418 227.587 290.933 226.156 290.807C223.588 290.633 220.946 291.15 218.08 292.387C217.079 292.829 215.953 292.907 214.899 292.608C213.036 292.067 211.64 290.531 211.29 288.637Z" fill="#CACDCD"/>
<path d="M129.174 174.283V283.601H206.417V174.283C206.42 172.669 205.36 171.243 203.805 170.766C203.448 170.649 203.073 170.591 202.697 170.596H132.904C130.848 170.592 129.178 172.241 129.174 174.28V174.283ZM159.319 211.845C159.36 207.33 163.086 203.704 167.64 203.745C172.135 203.786 175.769 207.389 175.81 211.845V224.529C175.789 229.045 172.079 232.688 167.525 232.666C163.002 232.645 159.34 229.014 159.319 224.529V211.845Z" fill="#F2F2F2"/>
<path d="M128.937 280.105V290.647C128.941 291.783 129.866 292.705 131.012 292.714H204.579C205.727 292.709 206.654 291.785 206.654 290.647V280.105H128.937Z" fill="#E6E6E6"/>
<path d="M7.65945 9.58239V209.181C7.66368 214.477 11.9931 218.769 17.335 218.774H315.665C321.007 218.769 325.336 214.477 325.341 209.181V9.58239C325.328 4.29125 321.002 0.00671201 315.665 0H17.335C11.9984 0.00673838 7.67216 4.29127 7.65945 9.58239Z" fill="#E6E6E6"/>
<path d="M313.176 6.92828H19.8238C16.9663 6.93445 14.653 9.23275 14.6527 12.0659V206.719C14.6577 209.548 16.9699 211.841 19.8238 211.845H313.176C316.03 211.841 318.342 209.548 318.347 206.719V12.0659C318.347 9.23274 316.034 6.93445 313.176 6.92828ZM239.177 145.22C238.3 146.938 236.522 148.019 234.58 148.014L234.55 148.012C231.737 147.624 228.915 147.367 226.082 147.243C226.522 147.556 226.909 147.935 227.229 148.368C228.051 149.536 228.303 151.007 227.917 152.379C227.277 154.852 227.307 157.521 228.011 160.541C228.266 161.597 228.139 162.709 227.65 163.682C226.773 165.399 224.995 166.48 223.054 166.475L223.023 166.473C216.307 165.546 209.507 165.366 202.751 165.938C202.724 166.107 202.691 166.276 202.647 166.445C202.006 168.917 202.037 171.587 202.741 174.607C202.996 175.663 202.868 176.775 202.38 177.747C201.503 179.465 199.725 180.546 197.783 180.541L197.753 180.539C190.855 179.587 183.87 179.424 176.935 180.053C176.883 181.77 177.063 183.486 177.47 185.156C177.726 186.213 177.598 187.324 177.11 188.297C176.233 190.014 174.455 191.095 172.513 191.091L172.482 191.088C164.158 189.938 155.713 189.938 147.389 191.088H147.375C146.542 191.092 145.72 190.895 144.98 190.515C142.867 189.378 141.911 186.88 142.731 184.639C142.982 183.934 143.169 183.208 143.289 182.469C135.661 181.597 127.951 181.687 120.345 182.737H120.332C119.498 182.74 118.676 182.543 117.936 182.164C115.824 181.026 114.868 178.528 115.687 176.288C116.587 173.983 116.624 171.435 115.791 169.106C115.399 168.014 115.399 166.82 115.791 165.728C110.057 165.438 104.308 165.688 98.6214 166.473H98.6079C97.7745 166.476 96.9527 166.28 96.2124 165.9C94.1 164.763 93.144 162.265 93.9637 160.024C94.8632 157.719 94.9 155.172 94.0676 152.842C93.5359 151.362 93.7311 149.721 94.5954 148.404C95.4001 147.161 96.751 146.368 98.2378 146.268C98.3547 146.26 98.472 146.256 98.5906 146.256C101.504 146.761 104.446 147.09 107.399 147.243C105.515 146.015 104.726 143.666 105.491 141.563C106.39 139.258 106.427 136.71 105.594 134.381C105.063 132.901 105.258 131.26 106.122 129.943C106.16 129.886 106.203 129.836 106.243 129.781C104.141 129.925 102.044 130.141 99.9514 130.43H99.938C99.1045 130.433 98.2827 130.236 97.5424 129.857C95.43 128.719 94.474 126.221 95.2937 123.981C96.1932 121.676 96.23 119.128 95.3976 116.799C94.8659 115.319 95.0611 113.678 95.9254 112.361C96.7302 111.117 98.0811 110.325 99.5678 110.224C99.6847 110.216 99.802 110.212 99.9206 110.212C103.424 110.82 106.967 111.174 110.523 111.271C109.616 109.975 109.393 108.325 109.924 106.838C110.823 104.533 110.86 101.985 110.028 99.656C109.496 98.176 109.691 96.5349 110.556 95.2181C111.36 93.9747 112.711 93.1822 114.198 93.0815C114.315 93.0738 114.432 93.0697 114.551 93.0697C117.515 93.5838 120.509 93.9161 123.515 94.0647C122.869 92.8524 122.764 91.4277 123.224 90.1349C124.124 87.8302 124.16 85.2822 123.328 82.9529C122.796 81.4729 122.991 79.8318 123.856 78.515C124.661 77.2716 126.011 76.4791 127.498 76.3784C127.615 76.3707 127.732 76.3666 127.851 76.3666C131.339 76.972 134.868 77.3252 138.408 77.4233C137.926 76.2943 137.886 75.0276 138.298 73.8714C139.197 71.5667 139.234 69.0187 138.401 66.6893C137.87 65.2094 138.065 63.5682 138.929 62.2515C139.734 61.008 141.085 60.2156 142.572 60.1149C142.689 60.1071 142.806 60.1031 142.924 60.1031C151.233 61.553 159.733 61.5541 168.042 60.1063H168.052C168.693 60.2373 169.355 60.2373 169.996 60.1063H170.006C178.315 61.5541 186.815 61.553 195.123 60.1031C195.242 60.1031 195.359 60.1071 195.476 60.1149C196.963 60.2156 198.314 61.008 199.119 62.2515C199.983 63.5682 200.178 65.2094 199.646 66.6893C198.814 69.0187 198.851 71.5667 199.75 73.8714C200.161 75.0276 200.122 76.2943 199.64 77.4233C203.18 77.3252 206.708 76.972 210.197 76.3666C210.315 76.3666 210.433 76.3707 210.55 76.3784C212.036 76.4791 213.387 77.2716 214.192 78.515C215.056 79.8318 215.252 81.4729 214.72 82.9529C213.887 85.2822 213.924 87.8302 214.824 90.1349C215.284 91.4277 215.178 92.8524 214.533 94.0647C217.539 93.9161 220.532 93.5838 223.497 93.0697C223.616 93.0697 223.733 93.0738 223.85 93.0815C225.337 93.1822 226.687 93.9747 227.492 95.2181C228.357 96.5349 228.552 98.176 228.02 99.656C227.188 101.985 227.224 104.533 228.124 106.838C228.657 108.329 228.431 109.983 227.519 111.28C227.915 111.576 228.265 111.928 228.559 112.325C229.381 113.493 229.633 114.964 229.247 116.336C228.607 118.808 228.637 121.478 229.341 124.497C229.596 125.554 229.469 126.666 228.98 127.638C228.802 127.984 228.584 128.309 228.332 128.607C230.407 128.426 232.477 128.157 234.542 127.798H234.553C236.214 127.792 237.777 128.576 238.755 129.907C239.578 131.075 239.83 132.546 239.444 133.918C238.803 136.39 238.834 139.06 239.538 142.08C239.793 143.136 239.665 144.248 239.177 145.22Z" fill="white"/>
<path d="M303.661 33.7426H29.1727C28.5698 33.7294 28.0919 33.2342 28.1052 32.6365C28.118 32.0573 28.5885 31.5908 29.1727 31.5781H303.661C304.264 31.5912 304.742 32.0864 304.729 32.6841C304.716 33.2633 304.246 33.7298 303.661 33.7426Z" fill="#E6E6E6"/>
<path d="M169.733 185.905L169.702 185.903C161.378 184.753 152.933 184.753 144.609 185.903H144.595C143.762 185.906 142.94 185.71 142.2 185.33C140.087 184.193 139.131 181.695 139.951 179.454C140.851 177.149 140.887 174.602 140.055 172.272C139.523 170.792 139.719 169.151 140.583 167.834C141.388 166.591 142.739 165.798 144.225 165.698C144.342 165.69 144.459 165.686 144.578 165.686C152.887 167.136 161.386 167.137 169.695 165.689H169.706C171.366 165.683 172.929 166.468 173.908 167.798C174.73 168.966 174.983 170.437 174.597 171.809C173.956 174.282 173.987 176.951 174.69 179.971C174.946 181.027 174.818 182.139 174.33 183.112C173.453 184.829 171.675 185.91 169.733 185.905Z" fill="url(#paint0_linear_49_6797)"/>
<path d="M195.333 142.808L188.636 137.314C183.614 139.924 175.972 150.343 175.972 150.343L158.343 162.914C156.226 163.014 154.592 164.796 154.693 166.895C154.793 168.994 156.591 170.615 158.709 170.515C160.083 170.45 161.316 169.661 161.943 168.447L185.895 155.898L195.333 142.808Z" fill="#FFB8B8"/>
<path d="M206.631 121.896C210.497 125.142 210.976 130.879 207.703 134.712C207.336 135.141 206.93 135.536 206.489 135.891L202.231 139.323C202.231 139.323 191.608 154.485 186.079 156.244L171.883 163.597L165.483 157.234L178.348 146.839C178.348 146.839 184.265 141.29 184.858 137.227C185.22 134.74 189.467 127.963 193.723 122.937C196.99 119.116 202.763 118.645 206.617 121.884L206.631 121.896Z" fill="#3F3D56"/>
<path d="M192.869 286.446L186.818 286.445L183.94 263.307L192.87 263.308L192.869 286.446Z" fill="#FFB6B6"/>
<path d="M193.082 292.704L174.476 292.703V292.47C174.476 288.504 177.719 285.29 181.718 285.29L185.117 282.733L191.458 285.29L193.082 285.29L193.082 292.704Z" fill="#2F2E41"/>
<path d="M238.969 254.873L236.103 260.156L214.186 251.713L218.415 243.915L238.969 254.873Z" fill="#FFB6B6"/>
<path d="M244.629 257.65L235.818 273.897L235.611 273.786C232.088 271.908 230.768 267.555 232.662 264.062L232.662 264.062L232 259.884L237.274 255.557L238.043 254.139L244.629 257.65Z" fill="#2F2E41"/>
<path d="M181.43 180.486L176.09 222.841L178.76 237.041L226.82 257.917L229.49 249.313C217.205 241.86 204.073 230.581 195.798 229.752C195.798 229.752 195.112 222.235 201.04 217.596C202.236 216.661 201.974 215.394 202.458 214.247C202.79 213.457 204.113 212.635 204.452 211.825C204.891 210.776 204.348 209.733 204.79 208.667C205.038 208.068 205.979 208.03 206.226 207.43C206.647 206.406 206.371 204.822 206.781 203.81C207.657 201.65 208.5 199.536 209.269 197.556C211.664 191.39 213.349 186.504 213.136 185.45C212.468 182.14 181.43 180.486 181.43 180.486Z" fill="#2F2E41"/>
<path d="M180.51 222.719L177.716 240.606L184.767 277.109H194.112C197.47 264.844 197.643 248.723 194.446 235.085L180.51 222.719Z" fill="#2F2E41"/>
<path d="M186.514 128.736L190.822 121.294L195.447 117.615L204.125 116.291L206.535 118.129C215.212 131.276 218.447 147.231 215.57 162.682L214.893 166.318L214.463 168.627L214.649 171.386L213.201 175.403L213.4 178.345L213.506 179.916L213.613 181.493L213.762 183.694C214.029 184.95 212.686 184.784 212.876 185.892C213.209 187.836 214.706 190.717 212.432 190.727L188.935 185.892C182.966 185.916 177.408 178.859 183.172 173.144L186.514 128.736Z" fill="#3F3D56"/>
<path d="M197.512 114.218C203.814 114.218 208.922 109.153 208.922 102.905C208.922 96.6573 203.814 91.5925 197.512 91.5925C191.211 91.5925 186.102 96.6573 186.102 102.905C186.102 109.153 191.211 114.218 197.512 114.218Z" fill="#FFB8B8"/>
<path d="M197.706 113.896C199.375 113.922 201.044 113.807 202.693 113.551C204.328 113.221 207.986 110.563 209.006 108.964C209.764 107.776 210.248 105.92 210.521 104.573C211.265 100.968 210.432 97.2184 208.229 94.2565C207.81 93.6439 207.232 93.1549 206.556 92.8412C206.496 92.818 206.435 92.7974 206.373 92.7798C205.387 92.5228 204.502 91.9798 203.831 91.2205C203.701 91.067 203.56 90.9229 203.408 90.7894C202.649 90.1544 201.75 89.7065 200.783 89.4823C199.222 89.0681 196.963 89.4792 194.069 90.7054C192.615 91.3214 191.025 91.0985 189.802 90.8354C189.662 90.8087 189.519 90.8574 189.425 90.9634C188.904 91.4478 188.218 91.719 187.504 91.7224C187.067 91.7414 186.608 92.3417 186.054 93.1244C185.928 93.302 185.781 93.5094 185.676 93.6355L185.661 93.3932L185.414 93.6636C184.142 95.0541 184.247 97.2039 185.65 98.4654C186.027 98.8045 186.475 99.0561 186.962 99.202C187.402 99.318 187.852 99.3892 188.307 99.4144C188.582 99.439 188.867 99.4644 189.14 99.5113C190.921 99.873 192.38 101.136 192.981 102.837C193.233 103.534 194.007 103.896 194.71 103.647C194.82 103.607 194.925 103.554 195.022 103.488C195.598 103.043 196.359 102.905 197.057 103.121C197.354 103.284 197.585 103.545 197.712 103.858C197.866 104.206 198.121 104.502 198.445 104.706C199.554 105.272 199.63 107.781 199.232 109.873C198.848 111.889 198.09 113.348 197.388 113.42C196.847 113.476 196.786 113.514 196.746 113.608L196.711 113.693L196.772 113.773C197.071 113.88 197.389 113.922 197.706 113.896Z" fill="#2F2E41"/>
<path d="M174.61 107.225L174.579 107.223C166.255 106.073 157.81 106.073 149.486 107.223H149.472C148.639 107.226 147.817 107.029 147.077 106.65C144.964 105.512 144.008 103.014 144.828 100.774C145.727 98.4691 145.764 95.9212 144.932 93.5918C144.4 92.1119 144.595 90.4707 145.46 89.154C146.264 87.9105 147.615 87.118 149.102 87.0174C149.219 87.0096 149.336 87.0056 149.455 87.0056C157.763 88.4554 166.263 88.4566 174.572 87.0088H174.582C176.243 87.003 177.806 87.7873 178.785 89.1177C179.607 90.2857 179.86 91.7569 179.474 93.1289C178.833 95.6013 178.863 98.2711 179.567 101.291C179.823 102.347 179.695 103.459 179.207 104.431C178.33 106.149 176.551 107.23 174.61 107.225Z" fill="url(#paint1_linear_49_6797)"/>
<path d="M185.28 133.869L190.001 126.633C186.8 121.993 175.47 115.686 175.47 115.686L160.818 99.7962C160.47 97.7232 158.494 96.322 156.403 96.6666C154.312 97.0112 152.899 98.971 153.246 101.044C153.472 102.389 154.406 103.512 155.696 103.987L171.065 126.106L185.28 133.869Z" fill="#FFB8B8"/>
<path d="M207.548 142.551C204.749 146.736 199.057 147.879 194.836 145.103C194.363 144.792 193.92 144.438 193.513 144.046L189.577 140.254C189.577 140.254 173.078 131.712 170.67 126.474L159.86 111.271L167.108 104.788L179.707 116.143C179.707 116.143 185.508 122.794 189.646 122.902C192.18 122.969 199.465 126.358 204.997 129.962C209.206 132.732 210.353 138.361 207.559 142.535L207.548 142.551Z" fill="#3F3D56"/>
<path d="M97.6401 292.638L97.6094 292.636C89.285 291.486 80.84 291.486 72.5157 292.636H72.5023C71.6689 292.639 70.847 292.442 70.1068 292.063C67.9943 290.925 67.0383 288.427 67.858 286.187C68.7575 283.882 68.7943 281.334 67.9619 279.005C67.4302 277.525 67.6254 275.883 68.4897 274.567C69.2945 273.323 70.6454 272.531 72.1321 272.43C72.249 272.422 72.3663 272.418 72.485 272.418C80.7933 273.868 89.2932 273.869 97.602 272.421H97.6124C99.2733 272.416 100.836 273.2 101.815 274.53C102.637 275.698 102.89 277.17 102.504 278.542C101.863 281.014 101.893 283.684 102.597 286.703C102.853 287.76 102.725 288.872 102.237 289.844C101.36 291.562 99.5816 292.642 97.6401 292.638Z" fill="#CACDCD"/>
<path d="M42.6604 279.209L42.6794 279.185C48.3044 272.993 53.0363 266.058 56.7399 258.578L56.7475 258.567C57.2118 257.881 57.8365 257.316 58.5684 256.921C60.7023 255.823 63.3249 256.438 64.7373 258.367C66.1587 260.397 68.2666 261.855 70.679 262.476C72.2133 262.869 73.475 263.949 74.0907 265.396C74.6785 266.754 74.5836 268.307 73.8347 269.585C73.7757 269.685 73.7133 269.784 73.6468 269.881C67.7802 275.891 63.0167 282.871 59.5705 290.505L59.5647 290.514C58.6389 291.881 57.108 292.725 55.4481 292.784C54.0117 292.804 52.641 292.187 51.7112 291.102C50.0047 289.19 47.7574 287.719 44.8404 286.605C43.8148 286.223 42.9575 285.495 42.4188 284.549C41.4752 282.867 41.5687 280.801 42.6604 279.209Z" fill="#E6E6E6"/>
<path d="M332.475 293.308L0.525124 293.443C0.233589 293.442 -0.00151771 293.206 7.37788e-06 292.917C0.00151473 292.63 0.235739 292.398 0.525124 292.397L332.475 292.261C332.766 292.263 333.002 292.499 333 292.788C332.999 293.074 332.764 293.307 332.475 293.308Z" fill="#CACACA"/>
<path d="M71.0456 23.6956C73.1162 23.6956 74.7948 21.9943 74.7948 19.8956C74.7948 17.7969 73.1162 16.0956 71.0456 16.0956C68.9751 16.0956 67.2965 17.7969 67.2965 19.8956C67.2965 21.9943 68.9751 23.6956 71.0456 23.6956Z" fill="#030335"/>
<path d="M83.9972 23.6956C86.0678 23.6956 87.7464 21.9943 87.7464 19.8956C87.7464 17.7969 86.0678 16.0956 83.9972 16.0956C81.9266 16.0956 80.2481 17.7969 80.2481 19.8956C80.2481 21.9943 81.9266 23.6956 83.9972 23.6956Z" fill="#030335"/>
<path d="M96.9488 23.6956C99.0194 23.6956 100.698 21.9943 100.698 19.8956C100.698 17.7969 99.0194 16.0956 96.9488 16.0956C94.8782 16.0956 93.1997 17.7969 93.1997 19.8956C93.1997 21.9943 94.8782 23.6956 96.9488 23.6956Z" fill="#030335"/>
<path d="M111.717 22.899C111.602 22.899 111.487 22.8548 111.4 22.7668L108.87 20.2029C108.702 20.032 108.702 19.759 108.87 19.5882L111.4 17.0245C111.572 16.851 111.853 16.8482 112.027 17.0176C112.202 17.1874 112.205 17.4657 112.034 17.6391L109.808 19.8955L112.034 22.1521C112.205 22.3255 112.202 22.6039 112.027 22.7737C111.941 22.8574 111.829 22.899 111.717 22.899Z" fill="#030335"/>
<path d="M115.968 22.899C115.856 22.899 115.744 22.8573 115.658 22.7736C115.483 22.6039 115.48 22.3257 115.651 22.1521L117.877 19.8955L115.651 17.6391C115.48 17.4657 115.483 17.1873 115.658 17.0176C115.833 16.8476 116.114 16.8508 116.285 17.0244L118.814 19.5882C118.983 19.759 118.983 20.032 118.814 20.2028L116.285 22.7668C116.198 22.8548 116.083 22.899 115.968 22.899Z" fill="#030335"/>
<path d="M248.309 16.5356H243.605C243.069 16.5356 242.634 16.9663 242.634 17.4982V22.1663C242.634 22.6981 243.069 23.1289 243.605 23.1289H248.309C248.845 23.1289 249.284 22.6981 249.284 22.1663V17.4982C249.284 16.9663 248.845 16.5356 248.309 16.5356Z" fill="#030335"/>
<path d="M236.782 16.5356H232.078C231.542 16.5356 231.107 16.9663 231.107 17.4982V22.1663C231.107 22.6981 231.542 23.1289 232.078 23.1289H236.782C237.319 23.1289 237.757 22.6981 237.757 22.1663V17.4982C237.757 16.9663 237.319 16.5356 236.782 16.5356Z" fill="#030335"/>
<path d="M259.171 16.7553H254.467C253.93 16.7553 253.496 17.1861 253.496 17.718V22.386C253.496 22.9179 253.93 23.3487 254.467 23.3487H259.171C259.707 23.3487 260.146 22.9179 260.146 22.386V17.718C260.146 17.1861 259.707 16.7553 259.171 16.7553Z" fill="#030335"/>
<path d="M188.271 18.5311H150.672C150.016 18.5311 149.488 19.0586 149.488 19.7048C149.488 20.3509 150.016 20.8784 150.672 20.8784H188.271C188.923 20.8784 189.455 20.3509 189.455 19.7048C189.455 19.0586 188.923 18.5311 188.271 18.5311Z" fill="#030335"/>
</g>
<defs>
<linearGradient id="paint0_linear_49_6797" x1="139.792" y1="180.404" x2="171.615" y2="179.833" gradientUnits="userSpaceOnUse">
<stop offset="0.0286796" stop-color="#F73E94"/>
<stop offset="1" stop-color="#97238A"/>
</linearGradient>
<linearGradient id="paint1_linear_49_6797" x1="148.316" y1="107.451" x2="179.571" y2="107.451" gradientUnits="userSpaceOnUse">
<stop stop-color="#22DCD9"/>
<stop offset="1" stop-color="#5456AB"/>
</linearGradient>
<clipPath id="clip0_49_6797">
<rect width="333" height="294.076" fill="white"/>
</clipPath>
</defs>
</svg>
