<svg width="351" height="295" viewBox="0 0 351 295" fill="none" xmlns="http://www.w3.org/2000/svg">
<path d="M70.0823 223.459C71.4603 212.009 78.3274 200.726 88.8949 197C84.7274 208.786 84.7283 221.715 88.8974 233.501C90.5212 238.04 92.7847 242.913 91.2572 247.488C90.3069 250.335 87.982 252.512 85.3833 253.874C82.7844 255.236 79.9002 255.885 77.052 256.521L76.4915 257C71.9701 246.45 68.7043 234.91 70.0823 223.459Z" fill="#F0F0F0"/>
<path d="M88.6952 197.46C82.4585 204.595 78.5822 213.554 77.6169 223.067C77.3735 225.111 77.4471 227.181 77.8352 229.201C78.2755 231.157 79.2207 232.957 80.5726 234.414C81.8065 235.798 83.2255 237.068 84.1083 238.734C84.5478 239.594 84.8044 240.539 84.8611 241.507C84.9178 242.475 84.7735 243.444 84.4376 244.351C83.6582 246.634 82.1219 248.494 80.5577 250.26C78.8209 252.221 76.9865 254.23 76.2483 256.829C76.1588 257.144 75.6854 256.984 75.7747 256.669C77.0592 252.147 81.3593 249.578 83.4101 245.504C84.367 243.603 84.7686 241.396 83.8715 239.39C83.0871 237.635 81.6248 236.324 80.3637 234.934C79.0244 233.533 78.0416 231.818 77.501 229.939C77.0135 227.946 76.8618 225.882 77.0525 223.836C77.4099 219.223 78.4754 214.696 80.2101 210.421C82.1633 205.531 84.9214 201.018 88.3652 197.078C88.5784 196.834 88.907 197.218 88.6952 197.46Z" fill="white"/>
<path d="M78.4036 219.992C76.7022 219.631 75.2029 218.751 74.1736 217.511C73.1444 216.27 72.6521 214.749 72.7848 213.22C72.8128 212.911 73.363 212.935 73.3349 213.245C73.2083 214.668 73.667 216.084 74.6282 217.238C75.5893 218.391 76.9896 219.206 78.5763 219.535C78.921 219.606 78.7464 220.064 78.4036 219.992Z" fill="white"/>
<path d="M79.9018 233.523C82.9628 231.876 85.2224 229.248 86.2302 226.166C86.3297 225.86 86.8505 226.016 86.751 226.321C85.6957 229.527 83.338 232.256 80.1484 233.965C79.8443 234.127 79.5993 233.685 79.9018 233.523Z" fill="white"/>
<path d="M83.0692 206.202C83.6007 206.449 84.1866 206.563 84.7744 206.534C85.3621 206.505 85.9332 206.333 86.4364 206.034C86.694 205.88 86.9029 206.291 86.647 206.444C86.0895 206.772 85.4585 206.961 84.8092 206.995C84.16 207.028 83.5121 206.906 82.9224 206.637C82.8646 206.617 82.8171 206.575 82.7894 206.521C82.7617 206.467 82.756 206.405 82.7734 206.347C82.7932 206.29 82.8353 206.242 82.8907 206.215C82.9461 206.188 83.0102 206.183 83.0692 206.202Z" fill="white"/>
<path d="M122.764 218.205C122.59 218.315 122.415 218.426 122.241 218.54C119.909 220.037 117.706 221.716 115.653 223.56C115.492 223.7 115.331 223.845 115.174 223.989C110.276 228.485 106.275 233.829 103.376 239.75C102.225 242.107 101.259 244.547 100.486 247.047C99.4202 250.5 98.5455 254.326 96.4349 257.151C96.218 257.448 95.9826 257.731 95.7298 258H76.6556C76.6122 257.979 76.5687 257.962 76.5251 257.941L75.7635 257.975C75.7942 257.843 75.8288 257.707 75.8594 257.575C75.8768 257.499 75.8985 257.422 75.9159 257.346C75.9289 257.295 75.942 257.244 75.9508 257.197C75.955 257.18 75.9594 257.163 75.9637 257.151C75.9724 257.104 75.9856 257.061 75.9943 257.019C76.1858 256.259 76.383 255.498 76.5861 254.738C76.5861 254.734 76.5861 254.734 76.5904 254.73C78.1528 248.941 80.2242 243.229 83.1181 238.005C83.2053 237.848 83.2922 237.686 83.388 237.529C84.7058 235.181 86.2181 232.943 87.9096 230.836C88.8397 229.685 89.8288 228.58 90.8733 227.527C93.5773 224.811 96.7024 222.526 100.134 220.757C106.975 217.232 114.895 215.882 122.207 218.035C122.394 218.09 122.577 218.145 122.764 218.205Z" fill="#F0F0F0"/>
<path d="M122.54 217.522C113.061 219.417 104.415 224.269 97.8321 231.389C96.3878 232.896 95.1888 234.623 94.279 236.507C93.4517 238.37 93.1353 240.422 93.3628 242.45C93.5372 244.345 93.9336 246.264 93.6471 248.168C93.4861 249.141 93.1225 250.069 92.5802 250.89C92.0379 251.712 91.3292 252.409 90.5004 252.935C88.4694 254.302 86.0717 254.852 83.7084 255.308C81.0844 255.814 78.3509 256.299 76.1608 257.948C75.8955 258.148 75.6029 257.722 75.8678 257.522C79.6781 254.653 84.7841 255.255 88.9523 253.229C90.8973 252.284 92.571 250.743 93.0528 248.553C93.4742 246.638 93.067 244.659 92.874 242.742C92.6233 240.767 92.857 238.76 93.5546 236.897C94.3662 234.973 95.4972 233.202 96.8991 231.661C100 228.138 103.633 225.129 107.663 222.742C112.247 219.993 117.266 218.052 122.501 217.006C122.825 216.941 122.862 217.458 122.54 217.522Z" fill="white"/>
<path d="M100.197 228.904C99.2457 227.654 98.738 226.082 98.7645 224.466C98.7911 222.851 99.3502 221.299 100.342 220.087C100.544 219.842 100.906 220.168 100.704 220.413C99.7789 221.54 99.2582 222.986 99.2363 224.49C99.2144 225.994 99.6928 227.457 100.585 228.614C100.779 228.866 100.39 229.154 100.197 228.904Z" fill="white"/>
<path d="M93.0596 241.444C96.3698 241.783 99.6934 240.928 102.368 239.048C102.632 238.862 102.924 239.261 102.659 239.447C99.8726 241.398 96.4119 242.282 92.9681 241.921C92.6399 241.887 92.7332 241.409 93.0596 241.444Z" fill="white"/>
<path d="M112.262 221.123C112.582 221.761 113.049 222.306 113.622 222.71C114.195 223.113 114.855 223.362 115.544 223.435C115.897 223.471 115.796 224.034 115.445 223.998C114.685 223.914 113.956 223.638 113.322 223.194C112.689 222.749 112.169 222.15 111.809 221.449C111.77 221.386 111.755 221.309 111.768 221.235C111.781 221.161 111.821 221.095 111.879 221.05C111.939 221.008 112.013 220.991 112.084 221.005C112.156 221.018 112.22 221.061 112.262 221.123Z" fill="white"/>
<path d="M134.762 3.25293C133.852 3.25395 132.98 3.61616 132.337 4.26008C131.694 4.90401 131.332 5.77707 131.331 6.68771V151.93C131.332 152.841 131.694 153.714 132.337 154.358C132.98 155.001 133.852 155.364 134.762 155.365H347.509C348.418 155.364 349.29 155.001 349.934 154.357C350.577 153.714 350.939 152.841 350.94 151.93V6.68771C350.939 5.77708 350.577 4.90405 349.934 4.26013C349.291 3.61621 348.418 3.25399 347.509 3.25293H134.762Z" fill="#E6E6E6"/>
<path d="M139.664 8.15979C138.754 8.16081 137.882 8.52302 137.239 9.16694C136.596 9.81087 136.234 10.6839 136.233 11.5946V147.023C136.234 147.934 136.596 148.807 137.239 149.451C137.882 150.095 138.754 150.457 139.664 150.458H342.607C343.516 150.457 344.388 150.095 345.032 149.451C345.675 148.807 346.037 147.934 346.038 147.023V11.5946C346.037 10.6839 345.675 9.81091 345.032 9.16699C344.388 8.52307 343.516 8.16085 342.607 8.15979H139.664Z" fill="white"/>
<path opacity="0.1" d="M326.913 37.7745C322.247 35.9506 317.214 40.5248 316.121 45.4188C315.028 50.3128 316.427 55.3742 316.735 60.3796C317.043 65.385 315.732 71.1974 311.271 73.4792C306.141 76.1031 300.123 72.6919 294.386 72.1723C291.522 71.9446 288.647 72.4477 286.029 73.6345C283.412 74.8212 281.139 76.6529 279.421 78.9583C274.689 85.4564 274.93 94.892 269.33 100.658C264.465 105.667 256.537 106.32 249.731 104.771C242.925 103.221 236.669 99.8559 229.976 97.8718C223.284 95.8877 215.538 95.4734 209.802 99.4556C203.815 103.613 201.151 111.761 194.579 114.91C189.931 117.137 184.43 116.287 179.457 114.939C174.484 113.591 169.469 111.772 164.335 112.205C159.201 112.638 153.848 116.184 153.442 121.325L329.649 120.832C330.45 97.5513 331.25 74.2704 332.051 50.9895C332.224 45.932 331.623 39.6149 326.913 37.7745Z" fill="#786F77"/>
<path d="M70.0993 142.552C69.8317 141.832 69.7219 141.062 69.7777 140.294C69.8335 139.526 70.0536 138.78 70.4225 138.109C70.7913 137.437 71.3 136.856 71.9126 136.407C72.5252 135.958 73.2268 135.651 73.9681 135.509L76.6682 117L83.7636 123.49L80.1117 140.072C80.2637 141.359 79.948 142.658 79.2243 143.723C78.5006 144.788 77.4192 145.545 76.1851 145.851C74.9509 146.156 73.6497 145.989 72.5281 145.382C71.4064 144.774 70.5423 143.767 70.0993 142.552Z" fill="#FFB6B6"/>
<path d="M20.7293 144.948C21.1728 144.349 21.4849 143.656 21.6435 142.917C21.8022 142.179 21.8036 141.413 21.6476 140.674C21.4916 139.935 21.1821 139.241 20.7408 138.64C20.2995 138.039 19.7371 137.546 19.0934 137.197L21.6714 119L13.3602 123.04L12.1862 139.7C11.694 140.867 11.6294 142.18 12.0045 143.393C12.3796 144.605 13.1684 145.632 14.2214 146.279C15.2745 146.926 16.5186 147.148 17.7181 146.903C18.9175 146.657 19.9889 145.962 20.7293 144.948Z" fill="#FFB6B6"/>
<path d="M58.7649 250L66.8955 250L70.7635 219L58.7635 219.001L58.7649 250Z" fill="#FFB6B6"/>
<path d="M56.7635 247.001L72.6432 247H72.6438C75.3277 247 77.9015 248.123 79.7993 250.12C81.6971 252.118 82.7634 254.828 82.7635 257.653V257.999L56.764 258L56.7635 247.001Z" fill="#2F2E41"/>
<path d="M15.7649 250L23.8955 250L27.7635 219L15.7635 219.001L15.7649 250Z" fill="#FFB6B6"/>
<path d="M13.7635 247.001L29.6432 247H29.6438C32.3277 247 34.9015 248.123 36.7993 250.12C38.6971 252.118 39.7634 254.828 39.7635 257.653V257.999L13.764 258L13.7635 247.001Z" fill="#2F2E41"/>
<path d="M53.2636 38C61.2717 38 67.7635 31.5081 67.7635 23.5C67.7635 15.4919 61.2717 9 53.2636 9C45.2554 9 38.7635 15.4919 38.7635 23.5C38.7635 31.5081 45.2554 38 53.2636 38Z" fill="#FFB6B6"/>
<path d="M19.2688 128.552C19.2688 128.552 19.4811 193.36 18.4508 194.395C17.4206 195.429 13.7635 234.188 13.7635 234.188H26.5471C27.3993 234.188 49.1454 149.759 49.1454 149.759C49.1454 149.759 58.4174 195.276 56.872 197.863C55.3267 200.449 56.5313 234.352 57.3871 237.173C57.3871 237.173 68.1286 240.625 69.1588 238.039C70.189 235.453 71.7155 200.385 71.7155 200.385L74.6984 142.193L74.7636 127L19.2688 128.552Z" fill="#2F2E41"/>
<path d="M78.8151 54H84.8845C85.3304 53.9998 85.7632 54.1434 86.1115 54.4072C86.4599 54.671 86.7031 55.0393 86.8011 55.4515C87.7377 59.3807 90.1511 70.5187 89.7103 79.2903C89.1655 90.129 88.076 107.161 88.076 108.71C88.076 110.258 82.6285 134 82.6285 134C82.6285 134 78.8833 128.168 74.7635 129.278L75.5466 108.194L76.6361 99.4194L75.0019 83.9355L78.8151 54Z" fill="#3F3D56"/>
<path d="M42.4681 44C42.4681 44 24.0485 50.1253 21.973 55.3124C19.8976 60.4994 29.9739 98.1031 29.9739 98.1031C29.9739 98.1031 26.1109 115.267 20.9353 131.562C18.5799 138.977 41.0577 132.628 51.4349 128.997C57.8652 126.768 69.7587 130.192 76.4537 128.968C76.4537 128.968 77.4914 114.963 76.4537 112.37C75.416 109.776 72.8216 111.332 74.3782 107.701C75.9348 104.07 75.416 103.552 74.8971 101.996C74.3782 100.439 75.9349 98.3646 75.9349 96.2899C75.9349 94.2151 75.416 89.5467 75.416 89.5467C75.416 89.5467 89.4253 56.8685 86.3121 53.7563C83.1989 50.644 67.3521 44.6473 67.3521 44.6473C67.3521 44.6473 67.7453 44.8963 42.4681 44Z" fill="#3F3D56"/>
<path d="M25.0969 54L23.2756 54.9165C22.5667 55.2733 21.9494 55.7903 21.4721 56.4272C20.9948 57.0641 20.6704 57.8035 20.5243 58.5875L13.302 97.3548L11.7635 134C11.7635 134 20.4815 131.419 23.0456 134C23.0456 134 20.4815 126.258 22.02 123.677C23.5584 121.097 23.5584 117.484 23.5584 117.484C23.5584 117.484 22.5328 117.484 25.0969 114.903C27.661 112.323 28.1738 111.29 27.661 110.774C27.1482 110.258 26.6353 105.613 26.6353 105.097C26.6353 104.581 31.7635 70 31.7635 70L25.0969 54Z" fill="#3F3D56"/>
<path d="M152.599 120.752C152.339 120.752 152.09 120.649 151.906 120.465C151.722 120.28 151.619 120.031 151.619 119.771C151.619 119.51 151.722 119.261 151.906 119.077C152.09 118.893 152.339 118.789 152.599 118.789C197.901 118.789 241.104 109.71 274.252 93.2229C305.334 77.763 325.141 56.7987 328.593 35.7051C328.614 35.5777 328.659 35.4556 328.727 35.3458C328.794 35.236 328.883 35.1406 328.987 35.0651C329.092 34.9896 329.21 34.9355 329.336 34.9058C329.461 34.8761 329.591 34.8715 329.718 34.8921C329.846 34.9128 329.967 34.9584 330.077 35.0262C330.187 35.0941 330.282 35.1829 330.357 35.2877C330.432 35.3924 330.486 35.5109 330.516 35.6365C330.545 35.7621 330.55 35.8923 330.529 36.0196L330.528 36.0223C328.735 46.9796 322.913 57.7279 313.226 67.969C303.672 78.0694 290.853 87.1577 275.124 94.9805C241.711 111.6 198.198 120.752 152.599 120.752Z" fill="url(#paint0_linear_50_7212)"/>
<path d="M338.685 120.95H151.429V28.3444H152.41V119.969H338.685V120.95Z" fill="#E6E6E6"/>
<path d="M40.249 28C39.5816 26.3924 39.4743 24.6135 39.9437 22.9399C41.1363 26.0444 43.5059 25.0968 44.7133 23.6408C46.2276 21.8151 45.7916 17.5986 48.1824 17.4099C50.5732 17.2212 52.9639 17.6653 55.3197 18.1073C54.9294 17.4514 54.539 16.7954 54.1488 16.1395C55.8529 16.2433 57.557 16.3471 59.2613 16.4509C58.754 15.6315 58.2465 14.8122 57.739 13.9929C60.0557 14.7919 62.1749 16.0609 63.9584 17.7174C65.742 19.3738 67.1499 21.3805 68.0904 23.6067C68.9743 22.2025 69.525 20.6211 69.7016 18.9798C69.8782 17.3384 69.6762 15.679 69.1106 14.1247C68.545 12.5703 67.6303 11.1607 66.4343 10.0004C65.2382 8.84009 63.7915 7.95875 62.2012 7.42168C62.8735 6.55607 63.5457 5.69048 64.2178 4.8249L50.5343 3.49974C50.5002 2.85246 50.6274 2.20678 50.9049 1.61861C51.1823 1.03044 51.6017 0.517512 52.1266 0.124228C50.3348 -0.272875 48.4342 0.322818 46.9116 1.33123C45.389 2.33965 44.1781 3.73025 42.9874 5.10294C41.1846 7.18139 39.36 9.2924 38.1799 11.7639C36.9694 14.3951 36.5221 17.303 36.8872 20.1676C37.2522 23.0322 38.4155 25.7425 40.249 28ZM40.4144 21.6942L40.4146 21.6934L40.4283 21.691L40.4144 21.6942Z" fill="#2F2E41"/>
<path d="M329.885 260.169H12.582C12.4275 260.168 12.2795 260.106 12.1704 259.997C12.0613 259.887 12 259.739 12 259.584C12 259.43 12.0613 259.281 12.1704 259.172C12.2795 259.062 12.4275 259 12.582 259H329.885C330.039 259 330.187 259.062 330.297 259.172C330.406 259.281 330.467 259.43 330.467 259.584C330.467 259.739 330.406 259.887 330.297 259.997C330.187 260.106 330.039 260.168 329.885 260.169Z" fill="#CACACA"/>
<defs>
<linearGradient id="paint0_linear_50_7212" x1="330.88" y1="46.02" x2="151.52" y2="131.57" gradientUnits="userSpaceOnUse">
<stop stop-color="#22DCD9"/>
<stop offset="0.29" stop-color="#5456AB"/>
<stop offset="0.63" stop-color="#97238A"/>
<stop offset="1" stop-color="#F73E94"/>
</linearGradient>
</defs>
</svg>
