<svg width="381" height="250" viewBox="0 0 381 250" fill="none" xmlns="http://www.w3.org/2000/svg">
<g clip-path="url(#clip0_50_7283)">
<path d="M136.424 216.623C137.802 205.529 144.67 194.599 155.24 190.989C151.072 202.407 151.072 214.933 155.242 226.351C156.867 230.749 159.13 235.471 157.603 239.903C156.652 242.66 154.327 244.77 151.728 246.09C149.128 247.409 146.243 248.038 143.395 248.654L142.834 249.118C138.312 238.897 135.045 227.717 136.424 216.623Z" fill="#F0F0F0"/>
<path d="M155.345 191.198C149.19 198.102 145.364 206.771 144.411 215.975C144.171 217.953 144.244 219.956 144.627 221.911C145.061 223.804 145.994 225.545 147.328 226.955C148.546 228.294 149.947 229.522 150.818 231.135C151.252 231.967 151.505 232.881 151.561 233.818C151.617 234.754 151.474 235.692 151.143 236.57C150.374 238.778 148.857 240.579 147.314 242.287C145.6 244.185 143.789 246.128 143.061 248.644C142.972 248.948 142.505 248.793 142.593 248.489C143.861 244.113 148.105 241.627 150.129 237.685C151.073 235.846 151.47 233.711 150.584 231.769C149.81 230.072 148.367 228.803 147.122 227.458C145.8 226.102 144.83 224.443 144.297 222.625C143.816 220.696 143.666 218.699 143.854 216.719C144.207 212.256 145.259 207.876 146.971 203.74C148.898 199.008 151.62 194.642 155.019 190.829C155.23 190.593 155.554 190.964 155.345 191.198Z" fill="white"/>
<path d="M144.544 212.993C143.023 212.624 141.683 211.725 140.763 210.458C139.843 209.19 139.402 207.637 139.521 206.074C139.546 205.758 140.038 205.783 140.013 206.099C139.9 207.554 140.31 209.001 141.169 210.179C142.028 211.358 143.28 212.19 144.698 212.526C145.006 212.599 144.85 213.066 144.544 212.993Z" fill="white"/>
<path d="M146.622 226.357C149.369 224.715 151.397 222.097 152.301 219.025C152.39 218.721 152.858 218.875 152.768 219.179C151.821 222.375 149.705 225.095 146.843 226.797C146.57 226.959 146.35 226.518 146.622 226.357Z" fill="white"/>
<path d="M149.355 199.475C149.914 199.741 150.53 199.863 151.147 199.832C151.765 199.801 152.366 199.616 152.895 199.295C153.165 199.13 153.385 199.571 153.116 199.735C152.53 200.087 151.867 200.29 151.184 200.326C150.502 200.362 149.821 200.231 149.201 199.943C149.14 199.921 149.09 199.876 149.061 199.818C149.032 199.76 149.026 199.694 149.044 199.632C149.065 199.57 149.109 199.519 149.167 199.489C149.226 199.46 149.293 199.455 149.355 199.475Z" fill="white"/>
<path d="M187.457 210.803C187.291 210.911 187.125 211.019 186.959 211.132C184.733 212.597 182.63 214.241 180.67 216.047C180.516 216.184 180.362 216.325 180.213 216.467C175.537 220.869 171.718 226.101 168.95 231.898C167.851 234.206 166.929 236.595 166.192 239.042C165.174 242.423 164.339 246.17 162.324 248.935C162.117 249.226 161.893 249.504 161.651 249.767H143.443C143.402 249.746 143.36 249.729 143.319 249.709L142.592 249.742C142.621 249.613 142.654 249.48 142.683 249.351C142.7 249.276 142.721 249.201 142.737 249.126C142.75 249.077 142.762 249.027 142.771 248.981C142.775 248.964 142.779 248.948 142.783 248.935C142.791 248.889 142.804 248.848 142.812 248.806C142.995 248.062 143.183 247.318 143.377 246.573C143.377 246.569 143.377 246.569 143.381 246.565C144.873 240.897 146.85 235.304 149.612 230.189C149.696 230.036 149.779 229.877 149.87 229.724C151.128 227.425 152.572 225.233 154.186 223.17C155.074 222.043 156.018 220.962 157.015 219.931C159.597 217.271 162.58 215.034 165.855 213.302C172.386 209.851 179.947 208.529 186.926 210.637C187.104 210.691 187.279 210.745 187.457 210.803Z" fill="#F0F0F0"/>
<path d="M187.417 211.034C178.35 212.837 170.081 217.454 163.784 224.228C162.403 225.662 161.256 227.306 160.386 229.098C159.594 230.87 159.292 232.823 159.509 234.753C159.676 236.556 160.055 238.381 159.781 240.193C159.627 241.119 159.28 242.001 158.761 242.783C158.242 243.565 157.564 244.228 156.772 244.729C154.829 246.029 152.536 246.552 150.275 246.986C147.766 247.468 145.151 247.929 143.056 249.498C142.803 249.688 142.523 249.283 142.776 249.093C146.42 246.363 151.304 246.936 155.291 245.008C157.151 244.109 158.752 242.643 159.213 240.559C159.616 238.737 159.227 236.855 159.042 235.03C158.802 233.151 159.026 231.242 159.693 229.469C160.469 227.639 161.551 225.954 162.892 224.487C165.858 221.136 169.332 218.272 173.187 216.001C177.572 213.385 182.372 211.539 187.379 210.543C187.689 210.482 187.724 210.973 187.417 211.034Z" fill="white"/>
<path d="M165.683 221.927C164.691 220.716 164.162 219.19 164.189 217.624C164.217 216.057 164.8 214.552 165.834 213.376C166.045 213.139 166.423 213.454 166.212 213.692C165.247 214.785 164.704 216.188 164.681 217.646C164.659 219.105 165.157 220.524 166.088 221.647C166.29 221.891 165.884 222.17 165.683 221.927Z" fill="white"/>
<path d="M159.305 233.85C162.485 234.194 165.679 233.326 168.249 231.418C168.504 231.229 168.784 231.634 168.529 231.823C165.851 233.804 162.526 234.7 159.217 234.334C158.901 234.299 158.991 233.815 159.305 233.85Z" fill="white"/>
<path d="M177.656 214.033C177.942 214.582 178.36 215.051 178.872 215.398C179.384 215.746 179.975 215.96 180.59 216.023C180.906 216.054 180.816 216.538 180.502 216.507C179.823 216.435 179.171 216.198 178.604 215.815C178.037 215.433 177.573 214.917 177.251 214.314C177.216 214.259 177.203 214.194 177.215 214.13C177.226 214.066 177.261 214.009 177.313 213.971C177.367 213.934 177.433 213.92 177.497 213.931C177.562 213.943 177.618 213.98 177.656 214.033Z" fill="white"/>
<path d="M197.798 2.75671C197.027 2.75758 196.288 3.06453 195.743 3.61023C195.198 4.15593 194.891 4.89581 194.891 5.66755V128.754C194.891 129.526 195.198 130.266 195.743 130.811C196.288 131.357 197.028 131.664 197.798 131.665H378.092C378.863 131.664 379.602 131.357 380.147 130.811C380.692 130.266 380.999 129.526 381 128.754V5.66755C380.999 4.89582 380.692 4.15596 380.147 3.61027C379.602 3.06458 378.863 2.75761 378.092 2.75671H197.798Z" fill="#E6E6E6"/>
<path d="M201.953 6.91504C201.182 6.91591 200.443 7.22286 199.897 7.76856C199.352 8.31426 199.046 9.05414 199.045 9.82587V124.596C199.046 125.367 199.352 126.107 199.897 126.653C200.443 127.199 201.182 127.506 201.953 127.507H373.938C374.709 127.506 375.448 127.199 375.993 126.653C376.538 126.107 376.845 125.367 376.846 124.596V9.82587C376.845 9.05415 376.538 8.31429 375.993 7.7686C375.448 7.2229 374.709 6.91594 373.938 6.91504H201.953Z" fill="white"/>
<path opacity="0.1" d="M360.638 32.0123C356.684 30.4666 352.419 34.343 351.492 38.4905C350.566 42.638 351.752 46.9273 352.013 51.1692C352.274 55.4111 351.163 60.3368 347.382 62.2705C343.035 64.4942 337.935 61.6033 333.073 61.163C330.645 60.9701 328.209 61.3964 325.991 62.4021C323.773 63.4079 321.846 64.9601 320.391 66.9138C316.381 72.4207 316.584 80.417 311.839 85.3032C307.716 89.5487 300.997 90.1014 295.229 88.7886C289.462 87.4757 284.16 84.6236 278.488 82.9422C272.817 81.2608 266.252 80.9097 261.392 84.2844C256.318 87.8075 254.06 94.7132 248.49 97.3815C244.552 99.2683 239.89 98.5485 235.675 97.4061C231.461 96.2636 227.211 94.7223 222.86 95.0889C218.509 95.4556 213.973 98.4606 213.628 102.818L362.957 102.4C363.635 82.6706 364.314 62.941 364.992 43.2114C365.139 38.9255 364.629 33.572 360.638 32.0123Z" fill="#786F77"/>
<path d="M137.153 137.877C136.892 137.191 136.786 136.456 136.84 135.725C136.894 134.993 137.108 134.282 137.466 133.642C137.825 133.003 138.319 132.449 138.914 132.021C139.509 131.593 140.191 131.301 140.911 131.165L143.534 113.528L150.428 119.713L146.88 135.513C147.028 136.739 146.721 137.977 146.018 138.992C145.315 140.007 144.264 140.728 143.065 141.02C141.866 141.311 140.602 141.152 139.512 140.573C138.422 139.993 137.583 139.034 137.153 137.877Z" fill="#FFB6B6"/>
<path d="M89.0494 140.554C89.4971 139.973 89.8121 139.301 89.9723 138.585C90.1324 137.87 90.1338 137.127 89.9764 136.411C89.8189 135.694 89.5065 135.021 89.061 134.439C88.6155 133.856 88.0479 133.379 87.3981 133.039L90.0004 115.399L81.6108 119.316L80.4258 135.467C79.929 136.597 79.8637 137.871 80.2423 139.046C80.621 140.222 81.4172 141.217 82.4802 141.845C83.5432 142.472 84.799 142.687 86.0098 142.449C87.2205 142.211 88.3021 141.537 89.0494 140.554Z" fill="#FFB6B6"/>
<path d="M125.926 241.98L133.71 241.979L137.413 211.926L125.925 211.927L125.926 241.98Z" fill="#FFB6B6"/>
<path d="M123.94 239.436L139.27 239.435H139.27C141.861 239.435 144.346 240.466 146.178 242.3C148.01 244.133 149.039 246.62 149.04 249.214V249.532L123.941 249.533L123.94 239.436Z" fill="#2F2E41"/>
<path d="M84.3836 241.98L92.1674 241.979L95.8704 211.926L84.3823 211.927L84.3836 241.98Z" fill="#FFB6B6"/>
<path d="M82.3981 239.436L97.7275 239.435H97.7281C100.319 239.435 102.804 240.466 104.636 242.3C106.468 244.133 107.497 246.62 107.497 249.214V249.532L82.3985 249.533L82.3981 239.436Z" fill="#2F2E41"/>
<path d="M121.015 36.8363C128.781 36.8363 135.076 30.5347 135.076 22.7612C135.076 14.9878 128.781 8.68616 121.015 8.68616C113.25 8.68616 106.954 14.9878 106.954 22.7612C106.954 30.5347 113.25 36.8363 121.015 36.8363Z" fill="#FFB6B6"/>
<path d="M87.73 124.234C87.73 124.234 87.937 187.218 86.9326 188.223C85.9282 189.229 82.3629 226.896 82.3629 226.896H94.8256C95.6565 226.896 116.857 144.844 116.857 144.844C116.857 144.844 125.896 189.08 124.389 191.593C122.883 194.107 124.057 227.055 124.892 229.797C124.892 229.797 135.364 233.152 136.368 230.638C137.372 228.125 138.86 194.045 138.86 194.045L141.768 137.492L141.832 122.726L87.73 124.234Z" fill="#2F2E41"/>
<path d="M145.481 51.8483H151.076C151.487 51.8481 151.886 51.9879 152.207 52.2449C152.529 52.5018 152.753 52.8605 152.843 53.262C153.707 57.0888 155.931 67.9365 155.525 76.4796C155.023 87.0359 154.018 103.624 154.018 105.132C154.018 106.64 148.997 129.764 148.997 129.764C148.997 129.764 145.544 124.084 141.746 125.164L142.468 104.63L143.473 96.0842L141.966 81.0038L145.481 51.8483Z" fill="#3F3D56"/>
<path d="M109.826 42.6448C109.826 42.6448 91.9987 48.5809 89.9899 53.6077C87.9812 58.6345 97.7336 95.0768 97.7336 95.0768C97.7336 95.0768 93.9948 111.71 88.9855 127.502C86.7059 134.688 108.461 128.536 118.505 125.017C124.728 122.856 136.239 126.174 142.719 124.988C142.719 124.988 143.724 111.416 142.719 108.903C141.715 106.389 139.204 107.897 140.711 104.378C142.217 100.86 141.715 100.357 141.213 98.849C140.711 97.341 142.217 95.3302 142.217 93.3195C142.217 91.3088 141.715 86.7847 141.715 86.7847C141.715 86.7847 155.274 55.1158 152.261 52.0997C149.248 49.0836 133.91 43.2721 133.91 43.2721C133.91 43.2721 134.291 43.5134 109.826 42.6448Z" fill="#3F3D56"/>
<path d="M93.2541 51.8483L91.4706 52.7409C90.7763 53.0884 90.1718 53.5919 89.7044 54.2122C89.237 54.8325 88.9194 55.5526 88.7763 56.3163L81.7038 94.0735L80.1973 129.764C80.1973 129.764 88.7344 127.25 91.2453 129.764C91.2453 129.764 88.7344 122.224 90.241 119.71C91.7475 117.197 91.7475 113.678 91.7475 113.678C91.7475 113.678 90.7431 113.678 93.2541 111.165C95.765 108.651 96.2672 107.646 95.765 107.143C95.2628 106.641 94.7606 102.116 94.7606 101.614C94.7606 101.111 99.7825 67.4314 99.7825 67.4314L93.2541 51.8483Z" fill="#3F3D56"/>
<path d="M212.914 102.332C212.694 102.332 212.483 102.245 212.327 102.089C212.171 101.933 212.083 101.721 212.083 101.5C212.083 101.28 212.171 101.068 212.327 100.912C212.483 100.756 212.694 100.669 212.914 100.669C251.306 100.669 287.919 92.9743 316.01 79.0024C342.351 65.9008 359.136 48.1345 362.062 30.2585C362.079 30.1506 362.118 30.0471 362.175 29.9541C362.233 29.861 362.308 29.7802 362.396 29.7162C362.485 29.6522 362.585 29.6063 362.691 29.5812C362.798 29.556 362.908 29.5521 363.016 29.5696C363.123 29.5871 363.227 29.6257 363.32 29.6832C363.412 29.7408 363.493 29.816 363.557 29.9048C363.621 29.9935 363.666 30.094 363.691 30.2004C363.716 30.3068 363.72 30.4171 363.702 30.525L363.702 30.5274C362.182 39.8132 357.249 48.9219 349.039 57.6008C340.943 66.1605 330.079 73.8624 316.749 80.492C288.433 94.5759 251.557 102.332 212.914 102.332Z" fill="url(#paint0_linear_50_7283)"/>
<path d="M370.615 102.5H211.923V24.0206H212.754V101.668H370.615V102.5Z" fill="#E6E6E6"/>
<path d="M107.762 27.5028C107.119 25.9238 107.016 24.1764 107.468 22.5325C108.617 25.582 110.899 24.6511 112.061 23.2211C113.52 21.4277 113.1 17.2861 115.402 17.1008C117.705 16.9154 120.007 17.3516 122.276 17.7858C121.9 17.1415 121.524 16.4972 121.148 15.8529C122.789 15.9549 124.43 16.0568 126.071 16.1587C125.583 15.354 125.094 14.5492 124.605 13.7444C126.836 14.5292 128.877 15.7757 130.595 17.4028C132.313 19.0298 133.668 21.0008 134.574 23.1875C135.425 21.8082 135.956 20.255 136.126 18.6427C136.296 17.0305 136.101 15.4006 135.557 13.8739C135.012 12.3471 134.131 10.9626 132.979 9.82284C131.827 8.68312 130.434 7.81743 128.903 7.2899C129.55 6.43966 130.197 5.58943 130.845 4.73922L117.667 3.43759C117.634 2.8018 117.757 2.16759 118.024 1.58987C118.291 1.01215 118.695 0.508322 119.201 0.122022C117.475 -0.268029 115.645 0.317085 114.178 1.30759C112.712 2.2981 111.546 3.66401 110.399 5.01233C108.663 7.05387 106.906 9.12739 105.769 11.5551C104.604 14.1395 104.173 16.9958 104.525 19.8095C104.876 22.6233 105.996 25.2854 107.762 27.5028ZM107.921 21.309L107.922 21.3082L107.935 21.3059L107.921 21.309Z" fill="#2F2E41"/>
<path d="M269.395 250H0.494672C0.363734 250 0.238292 249.947 0.145839 249.855C0.0533854 249.762 0.00146484 249.636 0.00146484 249.505C0.00146484 249.374 0.0533854 249.248 0.145839 249.155C0.238292 249.062 0.363734 249.01 0.494672 249.01H269.395C269.526 249.01 269.652 249.062 269.744 249.155C269.837 249.248 269.889 249.374 269.889 249.505C269.889 249.636 269.837 249.762 269.744 249.855C269.652 249.947 269.526 250 269.395 250Z" fill="#CACACA"/>
</g>
<defs>
<linearGradient id="paint0_linear_50_7283" x1="364" y1="30" x2="212" y2="102" gradientUnits="userSpaceOnUse">
<stop stop-color="#F73E94"/>
<stop offset="0.333333" stop-color="#97238A"/>
<stop offset="0.666667" stop-color="#5456AB"/>
<stop offset="1" stop-color="#22DCD9"/>
</linearGradient>
<clipPath id="clip0_50_7283">
<rect width="381" height="250" fill="white"/>
</clipPath>
</defs>
</svg>
