<svg width="426" height="241" viewBox="0 0 426 241" fill="none" xmlns="http://www.w3.org/2000/svg">
<g clip-path="url(#clip0_50_13412)">
<path d="M393.949 240.879L394.398 240.047C388.386 236.782 380.905 232.719 376.998 226.051C373.146 219.478 373.059 210.553 376.772 202.758C379.932 196.123 385.736 190.18 393.557 185.569C395.1 184.66 396.719 183.798 398.285 182.964C402.071 180.949 405.985 178.866 409.213 175.91C413.658 171.839 417.022 165.007 414.515 158.921C413.691 156.979 412.34 155.308 410.617 154.097C408.895 152.887 406.868 152.185 404.769 152.073L404.716 153.019C406.639 153.121 408.496 153.763 410.074 154.871C411.653 155.98 412.89 157.51 413.647 159.289C415.976 164.945 412.78 171.362 408.578 175.211C405.438 178.086 401.577 180.14 397.844 182.128C396.269 182.966 394.64 183.833 393.08 184.753C385.096 189.459 379.163 195.544 375.922 202.349C372.075 210.424 372.176 219.691 376.185 226.532C380.226 233.426 387.835 237.559 393.949 240.879Z" fill="#F1F1F1"/>
<path d="M398.794 157.063C394.239 157.063 390.546 155.262 390.546 153.04C390.546 150.818 394.239 149.017 398.794 149.017C403.35 149.017 407.043 150.818 407.043 153.04C407.043 155.262 403.35 157.063 398.794 157.063Z" fill="#F1F1F1"/>
<path d="M392.196 183.57C387.64 183.57 383.947 181.769 383.947 179.547C383.947 177.325 387.64 175.523 392.196 175.523C396.751 175.523 400.444 177.325 400.444 179.547C400.444 181.769 396.751 183.57 392.196 183.57Z" fill="#F1F1F1"/>
<path d="M407.278 187.83C402.723 187.83 399.03 186.029 399.03 183.807C399.03 181.585 402.723 179.783 407.278 179.783C411.834 179.783 415.527 181.585 415.527 183.807C415.527 186.029 411.834 187.83 407.278 187.83Z" fill="#F1F1F1"/>
<path d="M383.711 210.077C379.156 210.077 375.463 208.276 375.463 206.054C375.463 203.832 379.156 202.03 383.711 202.03C388.267 202.03 391.96 203.832 391.96 206.054C391.96 208.276 388.267 210.077 383.711 210.077Z" fill="#F1F1F1"/>
<path d="M367.215 210.077C362.659 210.077 358.966 208.276 358.966 206.054C358.966 203.832 362.659 202.03 367.215 202.03C371.77 202.03 375.463 203.832 375.463 206.054C375.463 208.276 371.77 210.077 367.215 210.077Z" fill="#F1F1F1"/>
<path d="M-3.05176e-05 7.30371H265.268V133.713H-3.05176e-05V7.30371Z" fill="#E6E6E6"/>
<path d="M7.58507 18.1436H257.683V123.611H7.58507V18.1436Z" fill="white"/>
<path d="M0.113037 0H265.381V11.3173H0.113037V0Z" fill="url(#paint0_linear_50_13412)"/>
<path d="M257.007 7.33194C255.853 7.33194 254.918 6.39281 254.918 5.23433C254.918 4.07585 255.853 3.13672 257.007 3.13672C258.16 3.13672 259.095 4.07585 259.095 5.23433C259.095 6.39281 258.16 7.33194 257.007 7.33194Z" fill="white"/>
<path d="M249.078 7.33194C247.925 7.33194 246.99 6.39281 246.99 5.23433C246.99 4.07585 247.925 3.13672 249.078 3.13672C250.232 3.13672 251.167 4.07585 251.167 5.23433C251.167 6.39281 250.232 7.33194 249.078 7.33194Z" fill="white"/>
<path d="M241.15 7.33194C239.996 7.33194 239.061 6.39281 239.061 5.23433C239.061 4.07585 239.996 3.13672 241.15 3.13672C242.303 3.13672 243.239 4.07585 243.239 5.23433C243.239 6.39281 242.303 7.33194 241.15 7.33194Z" fill="white"/>
<path d="M145.821 43.1729C146.089 43.1729 146.346 43.2799 146.536 43.4705C146.726 43.6611 146.832 43.9195 146.832 44.1891C146.832 44.4586 146.726 44.7171 146.536 44.9076C146.346 45.0982 146.089 45.2053 145.821 45.2053H90.2949C90.0265 45.2053 89.7691 45.0982 89.5793 44.9076C89.3896 44.7171 89.283 44.4586 89.283 44.1891C89.283 43.9195 89.3896 43.6611 89.5793 43.4705C89.7691 43.2799 90.0265 43.1729 90.2949 43.1729H145.821Z" fill="#E6E6E6"/>
<path d="M145.82 49.2705C146.088 49.2711 146.345 49.3784 146.535 49.5689C146.724 49.7594 146.83 50.0176 146.83 50.2867C146.83 50.5559 146.724 50.814 146.535 51.0045C146.345 51.195 146.088 51.3023 145.82 51.3029H117.474C117.206 51.3023 116.949 51.195 116.759 51.0045C116.57 50.814 116.464 50.5559 116.464 50.2867C116.464 50.0176 116.57 49.7594 116.759 49.5689C116.949 49.3784 117.206 49.2711 117.474 49.2705H145.82Z" fill="#E6E6E6"/>
<path d="M147.218 78.7852C147.486 78.7852 147.743 78.8922 147.933 79.0828C148.123 79.2734 148.23 79.5319 148.23 79.8014C148.23 80.0709 148.123 80.3294 147.933 80.5199C147.743 80.7105 147.486 80.8176 147.218 80.8176H43.1069C42.8385 80.8176 42.5811 80.7105 42.3913 80.5199C42.2016 80.3294 42.095 80.0709 42.095 79.8014C42.095 79.5319 42.2016 79.2734 42.3913 79.0828C42.5811 78.8922 42.8385 78.7852 43.1069 78.7852H147.218Z" fill="#E6E6E6"/>
<path d="M147.218 84.8828C147.486 84.8834 147.743 84.9907 147.932 85.1812C148.121 85.3717 148.227 85.6299 148.227 85.899C148.227 86.1682 148.121 86.4263 147.932 86.6168C147.743 86.8073 147.486 86.9147 147.218 86.9152H70.2856C70.0176 86.9147 69.7607 86.8073 69.5714 86.6168C69.3821 86.4263 69.2758 86.1682 69.2758 85.899C69.2758 85.6299 69.3821 85.3717 69.5714 85.1812C69.7607 84.9907 70.0176 84.8834 70.2856 84.8828H147.218Z" fill="#E6E6E6"/>
<path d="M147.218 90.8428C147.486 90.8434 147.743 90.9507 147.932 91.1412C148.121 91.3317 148.227 91.5898 148.227 91.859C148.227 92.1281 148.121 92.3863 147.932 92.5768C147.743 92.7673 147.486 92.8746 147.218 92.8752H43.1069C42.8389 92.8746 42.5821 92.7673 42.3928 92.5768C42.2035 92.3863 42.0972 92.1281 42.0972 91.859C42.0972 91.5898 42.2035 91.3317 42.3928 91.1412C42.5821 90.9507 42.8389 90.8434 43.1069 90.8428H147.218Z" fill="#E6E6E6"/>
<path d="M147.218 96.9404C147.486 96.941 147.743 97.0483 147.932 97.2388C148.121 97.4294 148.227 97.6875 148.227 97.9566C148.227 98.2258 148.121 98.4839 147.932 98.6744C147.743 98.865 147.486 98.9723 147.218 98.9728H70.2856C70.0176 98.9723 69.7607 98.865 69.5714 98.6744C69.3821 98.4839 69.2758 98.2258 69.2758 97.9566C69.2758 97.6875 69.3821 97.4294 69.5714 97.2388C69.7607 97.0483 70.0176 96.941 70.2856 96.9404H147.218Z" fill="#E6E6E6"/>
<path d="M201.648 82.9095C196.781 82.9095 192.836 78.9478 192.836 74.0607C192.836 69.1737 196.781 65.2119 201.648 65.2119C206.514 65.2119 210.459 69.1737 210.459 74.0607C210.459 78.9478 206.514 82.9095 201.648 82.9095Z" fill="#A0616A"/>
<path d="M204.438 66.9809C204.438 66.9809 200.326 68.087 198.196 68.5294C196.067 68.9719 196.287 67.7183 196.287 67.7183C196.287 67.7183 193.497 68.087 193.644 67.792C193.791 67.4971 192.469 65.9485 194.011 64.1788C195.553 62.409 195.113 61.0817 195.113 61.0817H196.434L196.801 60.5655H198.857C198.857 60.5655 201.13 58.5638 205.169 59.1537C209.208 59.7436 213.984 61.3029 214.424 63.7363C214.484 64.0664 214.563 64.4331 214.654 64.8204C215.758 69.5024 213.412 73.8832 210.978 78.0279C210.38 79.0465 207.487 81.2676 207.561 79.7437C207.635 78.2198 210.165 74.7973 208.403 74.5761C206.641 74.3549 203.63 69.8567 204.438 66.9809Z" fill="#2F2E41"/>
<path d="M206.646 102.667C208.347 102.53 210.034 102.252 211.689 101.835L211.596 100.07L210.825 86.0393L210.818 85.9316H195.296L192.86 98.8506L192.532 100.594C193.175 100.845 193.825 101.082 194.489 101.29C194.496 101.29 194.496 101.297 194.503 101.297C195.425 101.584 196.36 101.835 197.304 102.043C198.557 102.314 199.826 102.511 201.103 102.631C202.091 102.729 203.082 102.777 204.075 102.774C204.932 102.774 205.796 102.739 206.646 102.667Z" fill="url(#paint1_linear_50_13412)"/>
<path d="M216.625 100.171C217.268 99.8911 217.889 99.5898 218.503 99.2742L218.768 99.1379C218.946 99.0447 219.132 98.9442 219.31 98.8438C219.554 98.7075 219.789 98.5713 220.018 98.435C220.239 98.3058 220.468 98.1695 220.689 98.0332C220.703 98.0261 220.71 98.0189 220.725 98.0189C221.496 97.5239 222.253 97.0146 222.982 96.4623C223.103 96.369 223.225 96.2758 223.346 96.1826L223.475 94.1167L223.289 94.0019L210.825 86.0396L210.654 85.9319L210.639 85.9248L208.882 85.9319V92.5027C207.889 93.9445 207.218 96.9644 206.803 100.917C206.746 101.484 206.696 102.065 206.646 102.667C208.347 102.53 210.034 102.252 211.689 101.835C211.868 101.799 212.039 101.756 212.218 101.706C213.259 101.432 214.284 101.102 215.289 100.716C215.596 100.601 215.896 100.479 216.196 100.357L216.225 100.343C216.354 100.286 216.496 100.228 216.625 100.171Z" fill="#2F2E41"/>
<path d="M219.31 98.8433C219.554 98.7071 219.789 98.5708 220.018 98.4345C220.239 98.3053 220.468 98.1691 220.689 98.0328C220.703 98.0256 220.71 98.0184 220.725 98.0184C221.496 97.5235 222.253 97.0142 222.982 96.4618C223.103 96.3686 223.225 96.2753 223.346 96.1821C223.403 96.1319 223.46 96.0889 223.525 96.0386C223.982 95.6871 224.425 95.3213 224.853 94.934C224.875 94.9196 224.889 94.8981 224.911 94.8837C224.478 94.5495 223.993 94.2901 223.475 94.1162L222.968 94.2669L219.353 95.3572L219.332 96.8277L219.31 98.8433Z" fill="#2F2E41"/>
<path d="M188.875 98.865C189.089 98.9797 189.303 99.0945 189.518 99.2021C189.568 99.2308 189.61 99.2523 189.653 99.2738C189.939 99.4173 190.218 99.5607 190.503 99.697C190.51 99.7042 190.525 99.7042 190.525 99.7114C190.539 99.7186 190.56 99.7258 190.575 99.7329C191.217 100.041 191.868 100.328 192.532 100.594C193.175 100.845 193.825 101.082 194.489 101.29C194.496 101.29 194.496 101.297 194.503 101.297C195.425 101.584 196.36 101.835 197.304 102.043C197.314 101.453 197.237 100.866 197.075 100.3L197.068 100.199L196.453 90.214L197.275 85.9316L194.918 85.5801L181.953 92.5884C181.953 92.5884 183.382 94.023 189.246 97.0788C189.765 97.349 189.003 98.2481 188.875 98.865Z" fill="#2F2E41"/>
<path d="M201.26 100.91C202.189 100.996 203.132 101.039 204.075 101.039C204.989 101.039 205.896 101.003 206.803 100.917C206.746 101.484 206.696 102.065 206.646 102.667C205.796 102.739 204.932 102.775 204.075 102.775C203.082 102.777 202.091 102.73 201.103 102.631C199.826 102.511 198.557 102.315 197.304 102.043C197.314 101.454 197.237 100.866 197.075 100.3L197.068 100.199C198.447 100.536 199.848 100.774 201.26 100.91ZM174.268 60.6534C175.777 56.2992 178.214 52.328 181.409 49.0168C184.603 45.7055 188.479 43.134 192.765 41.4814C197.051 39.8288 201.644 39.135 206.225 39.4483C210.805 39.7616 215.262 41.0745 219.285 43.2955C223.309 45.5164 226.801 48.592 229.519 52.3076C232.237 56.0233 234.116 60.2897 235.023 64.8092C235.931 69.3288 235.846 73.9927 234.774 78.4759C233.702 82.959 231.669 87.1535 228.818 90.7667C228.532 91.1253 228.239 91.484 227.939 91.8283C227.911 91.857 227.896 91.8785 227.875 91.9C227.138 92.7541 226.353 93.566 225.525 94.3318C225.325 94.5183 225.118 94.7048 224.911 94.8841C224.889 94.8984 224.875 94.92 224.854 94.9343C224.425 95.3217 223.982 95.6875 223.525 96.039C223.461 96.0892 223.403 96.1322 223.346 96.1825C223.225 96.2757 223.103 96.369 222.982 96.4622C222.253 97.0145 221.496 97.5238 220.725 98.0188C220.71 98.0188 220.703 98.026 220.689 98.0332C220.468 98.1694 220.239 98.3057 220.018 98.4348C219.789 98.5711 219.553 98.7074 219.31 98.8437C219.132 98.9441 218.946 99.0446 218.768 99.1378L218.503 99.2741C217.889 99.5897 217.268 99.891 216.625 100.171C216.496 100.228 216.354 100.286 216.225 100.343L216.196 100.357C215.896 100.479 215.596 100.601 215.289 100.716C214.284 101.102 213.259 101.432 212.218 101.706C212.039 101.756 211.868 101.799 211.689 101.835C210.034 102.252 208.347 102.53 206.646 102.667C205.796 102.739 204.932 102.775 204.075 102.775C203.082 102.777 202.091 102.73 201.103 102.631C199.826 102.511 198.557 102.315 197.304 102.043C196.36 101.835 195.425 101.584 194.503 101.297C194.496 101.297 194.496 101.29 194.489 101.29C193.825 101.082 193.175 100.845 192.532 100.594C191.868 100.329 191.217 100.042 190.575 99.7332C190.56 99.726 190.539 99.7189 190.525 99.7117C190.525 99.7045 190.511 99.7045 190.503 99.6973C190.218 99.561 189.939 99.4176 189.653 99.2741C189.61 99.2526 189.568 99.2311 189.518 99.2024C189.303 99.0948 189.089 98.98 188.875 98.8653C188.86 98.8581 188.853 98.8509 188.839 98.8437C188.275 98.5281 187.718 98.1981 187.168 97.8467C187.018 97.7534 186.868 97.6602 186.718 97.5525C186.496 97.4162 186.282 97.2656 186.075 97.115C185.796 96.9213 185.518 96.7205 185.246 96.5124C185.156 96.4542 185.07 96.3895 184.989 96.3188C184.325 95.8166 183.682 95.2858 183.068 94.7263C178.409 90.5579 175.087 85.0956 173.52 79.0305C171.954 72.9655 172.214 66.57 174.268 60.6534ZM183.603 92.8756C184.377 93.6062 185.187 94.2957 186.032 94.9415C186.217 95.0849 186.411 95.2284 186.603 95.3575C186.789 95.501 186.975 95.6373 187.167 95.7664C187.332 95.8812 187.496 95.996 187.668 96.1036C187.682 96.1179 187.703 96.1251 187.717 96.1394C187.839 96.2255 187.968 96.3044 188.089 96.3833C188.468 96.62 188.86 96.8568 189.246 97.0791C189.339 97.1293 189.425 97.1867 189.517 97.2369C189.568 97.2656 189.618 97.2943 189.675 97.323C189.889 97.445 190.103 97.5526 190.318 97.6673C190.346 97.6888 190.382 97.696 190.41 97.7175C190.421 97.7192 190.431 97.7242 190.439 97.7319C190.589 97.8108 190.739 97.8825 190.889 97.9542C191.018 98.0188 191.139 98.0833 191.268 98.1407C191.789 98.3918 192.325 98.6285 192.86 98.8509C193.425 99.0804 193.996 99.2885 194.575 99.4821C194.718 99.5323 194.868 99.5897 195.018 99.6328C195.696 99.8479 196.375 100.042 197.068 100.199C198.447 100.536 199.848 100.774 201.26 100.91C202.189 100.996 203.132 101.039 204.075 101.039C204.989 101.039 205.896 101.003 206.803 100.917C208.422 100.768 210.025 100.485 211.596 100.07C211.653 100.056 211.718 100.042 211.775 100.027C213.064 99.6897 214.327 99.2582 215.553 98.7361C215.618 98.7074 215.689 98.6859 215.746 98.6572C215.818 98.6285 215.882 98.607 215.939 98.5783C216.011 98.5496 216.075 98.5209 216.139 98.4922C216.675 98.2555 217.196 97.9972 217.718 97.7318L217.961 97.6027C218.425 97.3589 218.882 97.1078 219.332 96.828C219.489 96.7419 219.653 96.6415 219.811 96.5411C219.989 96.4335 220.168 96.3187 220.339 96.2039C220.382 96.1753 220.425 96.1466 220.468 96.1179C220.868 95.8453 221.275 95.5727 221.66 95.2786C221.932 95.0778 222.196 94.8841 222.461 94.6761C222.632 94.5469 222.803 94.4107 222.968 94.2672C223.075 94.1883 223.182 94.095 223.289 94.0018C223.432 93.8798 223.575 93.7579 223.718 93.6288C223.939 93.4494 224.146 93.2486 224.346 93.0621C225.151 92.3178 225.911 91.5274 226.625 90.6949C226.868 90.4223 227.096 90.1497 227.318 89.8628C227.369 89.8063 227.417 89.7464 227.461 89.6835C231.057 85.1246 233.254 79.6133 233.784 73.8218C234.314 68.0303 233.154 62.209 230.446 57.0682C227.738 51.9274 223.598 47.6892 218.533 44.8707C213.467 42.0522 207.694 40.7753 201.917 41.1957C196.141 41.6161 190.612 43.7157 186.004 47.2383C181.395 50.7609 177.908 55.5542 175.966 61.0335C174.024 66.5127 173.713 72.4411 175.069 78.0953C176.425 83.7495 179.39 88.8851 183.603 92.8756Z" fill="#3F3D56"/>
<path d="M348.966 235.108L343.188 235.108L340.439 212.725L348.967 212.725L348.966 235.108Z" fill="#A0616A"/>
<path d="M350.44 233.213L339.06 233.213H339.06C337.136 233.213 335.292 233.98 333.932 235.346C332.572 236.712 331.807 238.564 331.807 240.496V240.733L350.44 240.733L350.44 233.213Z" fill="#2F2E41"/>
<path d="M327.285 235.108L321.506 235.108L318.757 212.725L327.285 212.725L327.285 235.108Z" fill="#A0616A"/>
<path d="M328.758 233.213L317.378 233.213H317.378C315.455 233.213 313.61 233.98 312.25 235.346C310.89 236.712 310.126 238.564 310.126 240.496V240.733L328.758 240.733L328.758 233.213Z" fill="#2F2E41"/>
<path d="M366.5 146.66C366.027 146.152 365.671 145.545 365.456 144.884C365.242 144.222 365.175 143.521 365.26 142.83C365.344 142.14 365.579 141.476 365.946 140.886C366.314 140.296 366.806 139.795 367.387 139.417L363.372 122.989L371.617 125.94L374.166 141.087C374.734 142.11 374.908 143.307 374.656 144.451C374.404 145.595 373.743 146.606 372.798 147.293C371.853 147.98 370.69 148.295 369.529 148.179C368.368 148.062 367.29 147.522 366.5 146.66Z" fill="#9E616A"/>
<path d="M305.159 145.241C305.632 144.732 305.988 144.125 306.202 143.464C306.417 142.802 306.484 142.101 306.399 141.41C306.315 140.72 306.08 140.056 305.713 139.466C305.345 138.877 304.853 138.375 304.271 137.997L308.286 121.569L300.042 124.52L297.493 139.667C296.925 140.69 296.75 141.887 297.003 143.031C297.255 144.175 297.916 145.186 298.861 145.873C299.806 146.56 300.969 146.875 302.13 146.759C303.291 146.642 304.368 146.102 305.159 145.241Z" fill="#9E616A"/>
<path d="M358.897 135.145L350.887 229.371L339.168 228.298L334.478 155.474L330.303 184.309L329.466 230.113L318.861 229.403L312.972 180.128L314.417 132.407L354.677 128.312L358.897 135.145Z" fill="#2F2E41"/>
<path d="M336.864 49.4022C330.152 49.4022 324.71 43.9376 324.71 37.1967C324.71 30.4558 330.152 24.9912 336.864 24.9912C343.576 24.9912 349.018 30.4558 349.018 37.1967C349.018 43.9376 343.576 49.4022 336.864 49.4022Z" fill="#A0616A"/>
<path d="M340.713 27.4317C340.713 27.4317 335.041 28.9574 332.104 29.5677C329.167 30.1779 329.47 28.4488 329.47 28.4488C329.47 28.4488 325.622 28.9574 325.824 28.5505C326.027 28.1437 324.204 26.0077 326.331 23.5666C328.458 21.1255 327.85 19.2947 327.85 19.2947H329.673L330.179 18.5827H333.015C333.015 18.5827 336.151 15.8217 341.721 16.6354C347.292 17.4491 353.879 19.5998 354.487 22.9564C354.57 23.4116 354.678 23.9174 354.804 24.4516C356.327 30.9098 353.091 36.9523 349.734 42.6692C348.909 44.0742 344.918 47.1379 345.021 45.0359C345.123 42.9339 348.613 38.2132 346.182 37.9081C343.751 37.6029 339.599 31.3985 340.713 27.4317Z" fill="#2F2E41"/>
<path d="M349.511 53.5713H328.107L312.972 133.838C312.972 133.838 326.167 134.971 333.708 137.811C341.25 140.651 353.787 131.324 353.787 131.324L349.511 53.5713Z" fill="url(#paint2_linear_50_13412)"/>
<path d="M346.839 62.6359V53.5715L349.263 53.5566L366.969 64.8624L363.127 126.805C363.127 126.805 358.58 147.47 351.682 147.256C344.785 147.042 339.467 73.3718 346.839 62.6359Z" fill="#2F2E41"/>
<path d="M361.282 66.5734L366.969 64.8623C366.969 64.8623 371.18 66.1001 371.18 70.3602C371.18 74.6203 374.808 135.146 374.808 135.146L363.283 136.168L360.81 105.388L361.282 66.5734Z" fill="#2F2E41"/>
<path d="M329.702 59.4731L330.836 53.5712L327.581 53.083L315.797 57.8164C315.797 57.8164 305.192 135.681 309.906 138.048C314.619 140.415 317.802 138.581 317.802 138.581C317.802 138.581 333.305 81.1522 330.561 73.3894L329.702 59.4731Z" fill="#2F2E41"/>
<path d="M324.046 58.9999L322.035 58.1209C322.035 58.1209 316.132 55.1834 312.783 61.1151C309.434 67.0467 297.651 133.315 297.651 133.315L307.347 135.146L314.595 111.297L324.046 58.9999Z" fill="#2F2E41"/>
<path d="M245.948 241H425.529C425.654 241 425.774 240.951 425.862 240.862C425.95 240.773 426 240.653 426 240.527C426 240.402 425.95 240.281 425.862 240.192C425.774 240.104 425.654 240.054 425.529 240.054H245.948C245.823 240.054 245.703 240.104 245.615 240.192C245.527 240.281 245.477 240.402 245.477 240.527C245.477 240.653 245.527 240.773 245.615 240.862C245.703 240.951 245.823 241 245.948 241Z" fill="#CACACA"/>
</g>
<defs>
<linearGradient id="paint0_linear_50_13412" x1="0.113037" y1="5.65863" x2="265.381" y2="5.65863" gradientUnits="userSpaceOnUse">
<stop stop-color="#22DCD9"/>
<stop offset="0.333333" stop-color="#5456AB"/>
<stop offset="0.666667" stop-color="#97238A"/>
<stop offset="1" stop-color="#F73E94"/>
</linearGradient>
<linearGradient id="paint1_linear_50_13412" x1="202.11" y1="102.775" x2="202.11" y2="85.9316" gradientUnits="userSpaceOnUse">
<stop stop-color="#22DCD9"/>
<stop offset="1" stop-color="#5456AB"/>
</linearGradient>
<linearGradient id="paint2_linear_50_13412" x1="333.38" y1="138.349" x2="333.38" y2="53.5713" gradientUnits="userSpaceOnUse">
<stop stop-color="#22DCD9"/>
<stop offset="1" stop-color="#5456AB"/>
</linearGradient>
<clipPath id="clip0_50_13412">
<rect width="426" height="241" fill="white" transform="matrix(-1 0 0 1 426 0)"/>
</clipPath>
</defs>
</svg>
