<svg width="402" height="345" viewBox="0 0 402 345" fill="none" xmlns="http://www.w3.org/2000/svg">
<g clip-path="url(#clip0_50_13453)">
<path d="M368.919 82.3535H181.777V143.882H188.866V159.973L204.933 143.882H368.919V82.3535Z" fill="#E6E6E6"/>
<path d="M186.975 88.3447H363.721V137.567H186.975V88.3447Z" fill="white"/>
<path d="M264.409 102.716H349.508V105.302H264.409V102.716Z" fill="url(#paint0_linear_50_13453)"/>
<path d="M201.188 111.663H349.508V114.25H201.188V111.663Z" fill="#E6E6E6"/>
<path d="M201.334 120.61H349.508V123.197H201.334V120.61Z" fill="#E6E6E6"/>
<path d="M214.858 164.706H402V226.235H394.911V242.326L378.844 226.235H214.858V164.706Z" fill="#E6E6E6"/>
<path d="M220.056 170.698H396.802V219.921H220.056V170.698Z" fill="white"/>
<path d="M296.072 185.542H381.171V188.128H296.072V185.542Z" fill="url(#paint1_linear_50_13453)"/>
<path d="M232.851 194.489H381.171V197.076H232.851V194.489Z" fill="#E6E6E6"/>
<path d="M232.997 203.437H381.171V206.023H232.997V203.437Z" fill="#E6E6E6"/>
<path d="M214.858 0H402V61.528H394.911V77.6203L378.844 61.528H214.858V0Z" fill="#E6E6E6"/>
<path d="M220.056 5.99219H396.802V55.2147H220.056V5.99219Z" fill="white"/>
<path d="M296.072 20.8359H381.171V23.4224H296.072V20.8359Z" fill="url(#paint2_linear_50_13453)"/>
<path d="M232.851 29.7832H381.171V32.3696H232.851V29.7832Z" fill="#E6E6E6"/>
<path d="M232.997 38.7305H381.171V41.3169H232.997V38.7305Z" fill="#E6E6E6"/>
<path d="M73.2074 337.139L80.9094 337.138L84.5738 307.384L73.2059 307.385L73.2074 337.139Z" fill="#FFB8B8"/>
<path d="M71.2428 344.616L96.0787 344.615V344.3C96.0785 341.733 95.06 339.27 93.2472 337.455C91.4343 335.639 88.9756 334.619 86.4119 334.619H86.4113L71.2423 334.62L71.2428 344.616Z" fill="#2F2E41"/>
<path d="M84.037 314.768L91.2042 317.592L105.494 291.249L94.9151 287.08L84.037 314.768Z" fill="#FFB8B8"/>
<path d="M79.4749 321.005L102.586 330.113L102.701 329.82C103.64 327.431 103.592 324.766 102.569 322.412C101.546 320.057 99.6311 318.206 97.2455 317.266L97.2449 317.266L83.1295 311.703L79.4749 321.005Z" fill="#2F2E41"/>
<path d="M86.3844 327.471L83.9318 237.201L94.8454 275.899L86.9599 302.75L100.042 313.887L113.378 271.276L113.401 271.201L100.147 201.036L60.9468 199.137L60.6664 199.123L60.6215 199.401C60.5837 199.634 56.8791 222.931 59.9944 239.778C63.0976 256.561 70.5961 327.756 70.6715 328.473L70.7037 328.779L86.3844 327.471Z" fill="#2F2E41"/>
<path d="M98.1161 206.665L98.3375 206.576L91.0628 139.739L90.8505 139.686C83.4573 137.834 73.4962 137.996 68.2162 138.257C67.4158 138.298 66.6542 138.615 66.0593 139.152C65.4645 139.69 65.0728 140.417 64.9501 141.21L56.2042 198.9L56.2763 199.003C62.3228 207.653 71.562 210.005 79.8228 210.005C86.0642 209.925 92.248 208.796 98.1161 206.665Z" fill="#AEAEAE"/>
<path d="M63.473 226.192L63.7359 226.168L68.3821 138.084L54.2634 141.278C52.7211 141.632 51.3653 142.547 50.4595 143.846C49.5538 145.146 49.1628 146.736 49.3625 148.308L51.1935 162.95L50.5662 188.708C50.1291 190.29 42.9802 216.5 46.952 223.33C47.1526 223.717 47.4307 224.058 47.769 224.333C48.1074 224.607 48.4985 224.809 48.9182 224.925C52.7315 225.843 56.6406 226.301 60.5623 226.29C62.3447 226.289 63.4457 226.194 63.473 226.192Z" fill="#3F3D56"/>
<path d="M105.051 226.788C105.737 226.48 106.345 226.021 106.83 225.445C107.314 224.868 107.662 224.19 107.848 223.46C108.768 219.75 105.663 215.085 105.214 214.438L101.458 178.696L107.045 145.679C107.141 145.114 107.12 144.536 106.985 143.979C106.85 143.423 106.602 142.9 106.258 142.443C105.914 141.985 105.48 141.603 104.983 141.319C104.486 141.036 103.937 140.857 103.368 140.793L87.4523 139.016L88.2602 172.982C81.429 196.106 96.3056 229.448 96.4567 229.783L96.5403 229.968H96.7429C96.8229 229.968 98.774 229.931 105.051 226.788Z" fill="#3F3D56"/>
<path d="M72.3459 130.339C64.868 126.245 62.1198 116.855 66.2076 109.366C70.2954 101.877 79.6712 99.1242 87.1491 103.218C94.627 107.312 97.3752 116.702 93.2874 124.191C89.1996 131.68 79.8238 134.433 72.3459 130.339Z" fill="#FFB8B8"/>
<path d="M62.0782 210.251C62.2169 209.4 62.1677 208.528 61.9338 207.698C61.6999 206.868 61.2871 206.099 60.7245 205.446C60.1619 204.793 59.4632 204.271 58.6775 203.918C57.8919 203.565 57.0384 203.388 56.1772 203.401L50.8361 191.024L42.5347 192.441L50.3225 209.812C50.4397 211.26 51.083 212.614 52.1305 213.618C53.1779 214.622 54.5568 215.207 56.0059 215.261C57.4549 215.315 58.8734 214.835 59.9926 213.911C61.1117 212.988 61.8538 211.686 62.0782 210.251Z" fill="#FFB8B8"/>
<path d="M54.5577 198.91L50.1471 172.406L57.6809 159.83L55.7616 141.889L55.3343 141.782C53.9056 141.429 52.3991 141.578 51.0674 142.205C49.7356 142.832 48.6597 143.899 48.0201 145.226L35.713 170.949L35.6638 171.052L44.6025 206.221L54.5577 198.91Z" fill="#3F3D56"/>
<path d="M69.6337 129.241C69.281 129.343 67.8001 127.668 66.1785 125.66C64.475 123.567 63.2456 121.128 62.5755 118.513C61.9053 115.897 61.8103 113.167 62.2969 110.511C62.3194 110.391 62.3419 110.278 62.3643 110.171C62.9014 107.612 65.3392 105.254 67.8941 105.796C67.7011 103.529 69.2262 101.393 71.1588 100.196C73.0915 98.999 75.3816 98.5553 77.6145 98.1333C80.1619 97.6519 82.7415 97.1683 85.3286 97.3325C87.8235 97.4862 90.2409 98.2596 92.3627 99.5828C94.9401 101.281 96.9255 103.74 98.0432 106.62C99.161 109.5 99.3555 112.656 98.5999 115.652C95.3485 111.954 91.4957 107.932 85.9271 109.535C84.6661 109.911 83.4895 110.527 82.462 111.35C79.0775 114.012 77.3759 117.933 75.7299 121.764C74.9078 119.667 71.8578 118.878 70.125 120.314C69.0127 121.236 68.5547 122.768 68.5968 124.213C68.7125 125.656 69.0457 127.074 69.5849 128.418" fill="#2F2E41"/>
<path d="M71.6235 186.976H72.3495V184.116C72.3504 183.268 72.6872 182.455 73.286 181.855C73.8847 181.255 74.6965 180.918 75.5433 180.917H84.6439C85.4907 180.918 86.3025 181.255 86.9012 181.855C87.5 182.455 87.8368 183.268 87.8377 184.116V203.894C87.8368 204.742 87.5 205.555 86.9012 206.155C86.3025 206.755 85.4907 207.092 84.6439 207.093H75.5433C74.6965 207.092 73.8847 206.755 73.286 206.155C72.6872 205.555 72.3504 204.742 72.3495 203.894V190.369H71.6235V186.976Z" fill="#2F2E41"/>
<path d="M79.8516 192.309C78.7824 192.309 77.9156 191.44 77.9156 190.37C77.9156 189.299 78.7824 188.431 79.8516 188.431C80.9208 188.431 81.7876 189.299 81.7876 190.37C81.7876 191.44 80.9208 192.309 79.8516 192.309Z" fill="white"/>
<path d="M78.2717 198.095C78.64 197.316 79.1745 196.626 79.8376 196.076C80.5007 195.525 81.2762 195.127 82.1095 194.909C82.9429 194.691 83.8138 194.659 84.6609 194.815C85.508 194.971 86.3107 195.311 87.0125 195.811L98.4246 188.658L104.456 194.544L88.1982 204.418C87.2813 205.543 85.9842 206.292 84.5527 206.523C83.1211 206.754 81.6546 206.451 80.4311 205.672C79.2075 204.893 78.3119 203.691 77.9139 202.295C77.5159 200.898 77.6432 199.404 78.2717 198.095Z" fill="#FFB8B8"/>
<path d="M119.089 184.47L108.646 144.961C108.372 143.94 107.725 143.06 106.834 142.493C105.943 141.926 104.872 141.713 103.833 141.898L100.242 142.551L96.4166 163.624L104.197 181.387L90.123 189.849L92.1022 205.705L119.089 184.47Z" fill="#3F3D56"/>
<path d="M0.484009 345H184.891C185.019 345 185.142 344.949 185.233 344.858C185.324 344.767 185.375 344.644 185.375 344.515C185.375 344.386 185.324 344.263 185.233 344.172C185.142 344.081 185.019 344.03 184.891 344.03H0.484009C0.355637 344.03 0.232544 344.081 0.141769 344.172C0.0509949 344.263 0 344.386 0 344.515C0 344.644 0.0509949 344.767 0.141769 344.858C0.232544 344.949 0.355637 345 0.484009 345Z" fill="#3F3D56"/>
</g>
<defs>
<linearGradient id="paint0_linear_50_13453" x1="264.409" y1="104.009" x2="349.508" y2="104.009" gradientUnits="userSpaceOnUse">
<stop stop-color="#97238A"/>
<stop offset="1" stop-color="#5456AB"/>
</linearGradient>
<linearGradient id="paint1_linear_50_13453" x1="296.072" y1="186.835" x2="381.171" y2="186.835" gradientUnits="userSpaceOnUse">
<stop stop-color="#F73E94"/>
<stop offset="1" stop-color="#97238A"/>
</linearGradient>
<linearGradient id="paint2_linear_50_13453" x1="296.072" y1="22.1291" x2="381.171" y2="22.1291" gradientUnits="userSpaceOnUse">
<stop stop-color="#5456AB"/>
<stop offset="1" stop-color="#22DCD9"/>
</linearGradient>
<clipPath id="clip0_50_13453">
<rect width="402" height="345" fill="white" transform="matrix(-1 0 0 1 402 0)"/>
</clipPath>
</defs>
</svg>
