<svg width="274" height="291" viewBox="0 0 274 291" fill="none" xmlns="http://www.w3.org/2000/svg">
<path d="M194.46 149.023C184.769 125.778 178.659 102.532 174.328 77.6717C173.696 74.0433 170.583 71.3747 166.908 71.3747H105.973C102.556 71.3747 99.5124 73.6688 98.6931 76.9929C91.3192 106.395 88.393 135.61 70.8829 161.172C70.6957 161.453 70.485 161.711 70.2509 161.945C69.1975 163.045 68.2845 164.286 67.3247 165.48C64.7497 168.757 66.1309 173.532 69.9934 175.054C94.1517 184.582 123.249 216.325 133.198 261.855V186.876C133.198 181.913 130.413 177.489 126.152 174.937C120.089 171.332 116.016 164.731 115.993 157.146C115.993 146.12 125.052 136.757 136.078 136.405C147.829 136.054 157.45 145.465 157.45 157.123C157.45 164.801 153.283 171.472 147.08 175.054C142.866 177.489 140.244 181.983 140.244 186.852V263.822C150.685 218.291 182.147 186.173 204.152 175.733C208.108 173.86 208.88 168.593 205.65 165.644C200.781 161.243 196.895 155.133 194.46 149.023Z" fill="#2F2E41"/>
<path d="M166.135 64.2817H107.565C102.837 64.2817 98.9742 60.4192 98.9742 55.6905V44.2902C98.9742 39.5616 102.837 35.6991 107.565 35.6991H166.135C170.864 35.6991 174.726 39.5616 174.726 44.2902V55.6905C174.726 60.3958 170.864 64.2817 166.135 64.2817Z" fill="#3F3D56"/>
<path d="M166.135 28.5827H107.565C102.837 28.5827 98.9742 24.7201 98.9742 19.9915V8.59119C98.9742 3.86253 102.837 0 107.565 0H166.135C170.864 0 174.726 3.86253 174.726 8.59119V19.9915C174.726 24.6967 170.864 28.5827 166.135 28.5827Z" fill="#3F3D56"/>
<path d="M10.5342 280.348H263.166" stroke="#786F77" stroke-width="1.1595" stroke-miterlimit="10"/>
<path d="M9.73823 290.086C15.1165 290.086 19.4765 285.726 19.4765 280.348C19.4765 274.969 15.1165 270.609 9.73823 270.609C4.35995 270.609 0 274.969 0 280.348C0 285.726 4.35995 290.086 9.73823 290.086Z" fill="#606060"/>
<path d="M263.962 270.587C258.578 270.587 254.224 274.941 254.224 280.325C254.224 285.709 258.578 290.063 263.962 290.063C269.347 290.063 273.701 285.709 273.701 280.325C273.701 274.941 269.323 270.587 263.962 270.587Z" fill="#606060"/>
<path d="M254.154 163.045C254.154 227.842 201.624 280.349 136.85 280.349C72.0537 280.349 19.5469 227.818 19.5469 163.045" stroke="url(#paint0_linear_50_7160)" stroke-width="4.638" stroke-miterlimit="10"/>
<path d="M259.491 172.759H249.753C247.084 172.759 244.883 170.559 244.883 167.89V160.072C244.883 157.403 247.084 155.203 249.753 155.203H259.491C262.159 155.203 264.36 157.403 264.36 160.072V167.89C264.36 170.559 262.183 172.759 259.491 172.759Z" fill="#606060"/>
<path d="M23.9242 172.76H14.186C11.5173 172.76 9.31689 170.559 9.31689 167.89V160.072C9.31689 157.403 11.5173 155.203 14.186 155.203H23.9242C26.5929 155.203 28.7934 157.403 28.7934 160.072V167.89C28.8168 170.559 26.6163 172.76 23.9242 172.76Z" fill="#606060"/>
<path d="M141.719 291H131.981C129.313 291 127.112 288.8 127.112 286.131V278.312C127.112 275.644 129.313 273.443 131.981 273.443H141.719C144.388 273.443 146.589 275.644 146.589 278.312V286.131C146.589 288.823 144.388 291 141.719 291Z" fill="#606060"/>
<defs>
<linearGradient id="paint0_linear_50_7160" x1="14.1045" y1="224.402" x2="259.577" y2="224.402" gradientUnits="userSpaceOnUse">
<stop stop-color="#22DCD9"/>
<stop offset="0.333333" stop-color="#5456AB"/>
<stop offset="0.666667" stop-color="#97238A"/>
<stop offset="1" stop-color="#F73E94"/>
</linearGradient>
</defs>
</svg>
