<svg width="606" height="595" viewBox="0 0 606 595" fill="none" xmlns="http://www.w3.org/2000/svg">
<g filter="url(#filter0_ddi_59_5682)">
<circle cx="299" cy="289" r="200" fill="url(#paint0_linear_59_5682)"/>
</g>
<g filter="url(#filter1_dii_59_5682)">
<circle cx="298.615" cy="289.385" r="147.308" fill="#070726"/>
</g>
<g filter="url(#filter2_d_59_5682)">
<path fill-rule="evenodd" clip-rule="evenodd" d="M203.381 145.381C203.381 146.319 203.226 147.222 202.942 148.064L407.74 418.926C407.935 418.912 408.133 418.905 408.332 418.905C412.961 418.905 416.713 422.657 416.713 427.286C416.713 431.915 412.961 435.667 408.332 435.667C403.703 435.667 399.951 431.915 399.951 427.286C399.951 425.442 400.546 423.737 401.555 422.353L198.043 153.192C197.1 153.56 196.073 153.762 195 153.762C190.371 153.762 186.619 150.01 186.619 145.381C186.619 140.752 190.371 137 195 137C199.628 137 203.381 140.752 203.381 145.381Z" fill="white"/>
</g>
<g filter="url(#filter3_d_59_5682)">
<rect x="206.693" y="120.538" width="81.5385" height="21.5385" rx="10.7692" fill="white"/>
</g>
<path d="M229.668 134.077L230.528 127.077H230.928L230.068 134.077H229.668ZM225.868 132.097V131.697H231.808V132.097H225.868ZM227.068 134.077L227.928 127.077H228.338L227.468 134.077H227.068ZM226.178 129.457V129.057H232.128V129.457H226.178ZM234.122 130.527H237.912V130.987H234.122V130.527ZM234.182 134.077H233.672V127.077H238.352V127.537H234.182V134.077ZM240.648 134.077L243.728 127.317L243.908 127.537H239.438L239.698 127.297V128.877H239.198V127.077H244.218V127.437L241.208 134.077H240.648ZM247.181 134.127C246.668 134.127 246.188 134.04 245.741 133.867C245.301 133.693 244.958 133.467 244.711 133.187L244.971 132.797C245.184 133.043 245.484 133.25 245.871 133.417C246.264 133.577 246.701 133.657 247.181 133.657C247.808 133.657 248.284 133.517 248.611 133.237C248.944 132.957 249.111 132.58 249.111 132.107C249.111 131.64 248.944 131.267 248.611 130.987C248.284 130.7 247.771 130.557 247.071 130.557H246.631V130.187L248.861 127.337L248.931 127.537H244.971V127.077H249.361V127.437L247.141 130.287L246.921 130.127H247.141C247.974 130.127 248.598 130.31 249.011 130.677C249.424 131.043 249.631 131.52 249.631 132.107C249.631 132.493 249.538 132.84 249.351 133.147C249.171 133.453 248.898 133.693 248.531 133.867C248.171 134.04 247.721 134.127 247.181 134.127ZM251.827 130.297H255.617V130.747H251.827V130.297ZM251.887 133.617H256.207V134.077H251.377V127.077H256.057V127.537H251.887V133.617ZM259.477 127.027C260.091 127.027 260.604 127.167 261.017 127.447C261.437 127.727 261.754 128.13 261.967 128.657C262.181 129.177 262.287 129.803 262.287 130.537C262.287 131.323 262.157 131.983 261.897 132.517C261.637 133.05 261.274 133.453 260.807 133.727C260.341 133.993 259.797 134.127 259.177 134.127C258.877 134.127 258.591 134.1 258.317 134.047C258.051 133.993 257.807 133.9 257.587 133.767L257.797 133.357C257.977 133.47 258.187 133.553 258.427 133.607C258.667 133.653 258.917 133.677 259.177 133.677C259.964 133.677 260.594 133.423 261.067 132.917C261.541 132.403 261.777 131.637 261.777 130.617C261.777 130.457 261.767 130.26 261.747 130.027C261.727 129.793 261.684 129.563 261.617 129.337L261.797 129.387C261.751 129.773 261.621 130.103 261.407 130.377C261.194 130.643 260.921 130.85 260.587 130.997C260.261 131.143 259.894 131.217 259.487 131.217C259.021 131.217 258.611 131.133 258.257 130.967C257.911 130.793 257.637 130.55 257.437 130.237C257.244 129.923 257.147 129.557 257.147 129.137C257.147 128.71 257.247 128.34 257.447 128.027C257.654 127.707 257.931 127.46 258.277 127.287C258.631 127.113 259.031 127.027 259.477 127.027ZM259.497 127.467C259.131 127.467 258.811 127.537 258.537 127.677C258.264 127.81 258.047 128 257.887 128.247C257.734 128.493 257.657 128.787 257.657 129.127C257.657 129.627 257.827 130.027 258.167 130.327C258.507 130.627 258.971 130.777 259.557 130.777C259.937 130.777 260.274 130.703 260.567 130.557C260.861 130.41 261.087 130.21 261.247 129.957C261.414 129.703 261.497 129.42 261.497 129.107C261.497 128.833 261.421 128.573 261.267 128.327C261.114 128.073 260.891 127.867 260.597 127.707C260.304 127.547 259.937 127.467 259.497 127.467ZM263.263 132.137V131.767L267.063 127.077H267.633L263.843 131.767L263.563 131.687H269.223V132.137H263.263ZM267.253 134.077V132.137L267.263 131.687V129.977H267.753V134.077H267.253Z" fill="black"/>
<defs>
<filter id="filter0_ddi_59_5682" x="0" y="0" width="606" height="595" filterUnits="userSpaceOnUse" color-interpolation-filters="sRGB">
<feFlood flood-opacity="0" result="BackgroundImageFix"/>
<feColorMatrix in="SourceAlpha" type="matrix" values="0 0 0 0 0 0 0 0 0 0 0 0 0 0 0 0 0 0 127 0" result="hardAlpha"/>
<feOffset dx="-41" dy="-31"/>
<feGaussianBlur stdDeviation="29"/>
<feComposite in2="hardAlpha" operator="out"/>
<feColorMatrix type="matrix" values="0 0 0 0 0.882353 0 0 0 0 0.14902 0 0 0 0 0.505882 0 0 0 0.1 0"/>
<feBlend mode="normal" in2="BackgroundImageFix" result="effect1_dropShadow_59_5682"/>
<feColorMatrix in="SourceAlpha" type="matrix" values="0 0 0 0 0 0 0 0 0 0 0 0 0 0 0 0 0 0 127 0" result="hardAlpha"/>
<feOffset dx="38" dy="37"/>
<feGaussianBlur stdDeviation="34.5"/>
<feComposite in2="hardAlpha" operator="out"/>
<feColorMatrix type="matrix" values="0 0 0 0 0.0745098 0 0 0 0 0.905882 0 0 0 0 0.862745 0 0 0 0.14 0"/>
<feBlend mode="normal" in2="effect1_dropShadow_59_5682" result="effect2_dropShadow_59_5682"/>
<feBlend mode="normal" in="SourceGraphic" in2="effect2_dropShadow_59_5682" result="shape"/>
<feColorMatrix in="SourceAlpha" type="matrix" values="0 0 0 0 0 0 0 0 0 0 0 0 0 0 0 0 0 0 127 0" result="hardAlpha"/>
<feOffset dx="-7" dy="-9"/>
<feGaussianBlur stdDeviation="13.5"/>
<feComposite in2="hardAlpha" operator="arithmetic" k2="-1" k3="1"/>
<feColorMatrix type="matrix" values="0 0 0 0 0 0 0 0 0 0 0 0 0 0 0 0 0 0 0.29 0"/>
<feBlend mode="normal" in2="shape" result="effect3_innerShadow_59_5682"/>
</filter>
<filter id="filter1_dii_59_5682" x="122.307" y="119.077" width="338.615" height="332.615" filterUnits="userSpaceOnUse" color-interpolation-filters="sRGB">
<feFlood flood-opacity="0" result="BackgroundImageFix"/>
<feColorMatrix in="SourceAlpha" type="matrix" values="0 0 0 0 0 0 0 0 0 0 0 0 0 0 0 0 0 0 127 0" result="hardAlpha"/>
<feOffset dx="-4" dy="-4"/>
<feGaussianBlur stdDeviation="9.5"/>
<feComposite in2="hardAlpha" operator="out"/>
<feColorMatrix type="matrix" values="0 0 0 0 0 0 0 0 0 0 0 0 0 0 0 0 0 0 0.24 0"/>
<feBlend mode="normal" in2="BackgroundImageFix" result="effect1_dropShadow_59_5682"/>
<feBlend mode="normal" in="SourceGraphic" in2="effect1_dropShadow_59_5682" result="shape"/>
<feColorMatrix in="SourceAlpha" type="matrix" values="0 0 0 0 0 0 0 0 0 0 0 0 0 0 0 0 0 0 127 0" result="hardAlpha"/>
<feOffset dx="-29" dy="-11"/>
<feGaussianBlur stdDeviation="35.5"/>
<feComposite in2="hardAlpha" operator="arithmetic" k2="-1" k3="1"/>
<feColorMatrix type="matrix" values="0 0 0 0 0.0784314 0 0 0 0 0.905882 0 0 0 0 0.866667 0 0 0 0.19 0"/>
<feBlend mode="normal" in2="shape" result="effect2_innerShadow_59_5682"/>
<feColorMatrix in="SourceAlpha" type="matrix" values="0 0 0 0 0 0 0 0 0 0 0 0 0 0 0 0 0 0 127 0" result="hardAlpha"/>
<feOffset dx="13" dy="15"/>
<feGaussianBlur stdDeviation="18"/>
<feComposite in2="hardAlpha" operator="arithmetic" k2="-1" k3="1"/>
<feColorMatrix type="matrix" values="0 0 0 0 0.886275 0 0 0 0 0.160784 0 0 0 0 0.517647 0 0 0 0.19 0"/>
<feBlend mode="normal" in2="effect2_innerShadow_59_5682" result="effect3_innerShadow_59_5682"/>
</filter>
<filter id="filter2_d_59_5682" x="182.619" y="137" width="238.094" height="306.667" filterUnits="userSpaceOnUse" color-interpolation-filters="sRGB">
<feFlood flood-opacity="0" result="BackgroundImageFix"/>
<feColorMatrix in="SourceAlpha" type="matrix" values="0 0 0 0 0 0 0 0 0 0 0 0 0 0 0 0 0 0 127 0" result="hardAlpha"/>
<feOffset dy="4"/>
<feGaussianBlur stdDeviation="2"/>
<feComposite in2="hardAlpha" operator="out"/>
<feColorMatrix type="matrix" values="0 0 0 0 0 0 0 0 0 0 0 0 0 0 0 0 0 0 0.08 0"/>
<feBlend mode="normal" in2="BackgroundImageFix" result="effect1_dropShadow_59_5682"/>
<feBlend mode="normal" in="SourceGraphic" in2="effect1_dropShadow_59_5682" result="shape"/>
</filter>
<filter id="filter3_d_59_5682" x="202.693" y="120.538" width="89.5386" height="29.5385" filterUnits="userSpaceOnUse" color-interpolation-filters="sRGB">
<feFlood flood-opacity="0" result="BackgroundImageFix"/>
<feColorMatrix in="SourceAlpha" type="matrix" values="0 0 0 0 0 0 0 0 0 0 0 0 0 0 0 0 0 0 127 0" result="hardAlpha"/>
<feOffset dy="4"/>
<feGaussianBlur stdDeviation="2"/>
<feComposite in2="hardAlpha" operator="out"/>
<feColorMatrix type="matrix" values="0 0 0 0 0 0 0 0 0 0 0 0 0 0 0 0 0 0 0.25 0"/>
<feBlend mode="normal" in2="BackgroundImageFix" result="effect1_dropShadow_59_5682"/>
<feBlend mode="normal" in="SourceGraphic" in2="effect1_dropShadow_59_5682" result="shape"/>
</filter>
<linearGradient id="paint0_linear_59_5682" x1="158.429" y1="121.762" x2="386.238" y2="461.952" gradientUnits="userSpaceOnUse">
<stop stop-color="#F73E94"/>
<stop offset="0.333333" stop-color="#97238A"/>
<stop offset="0.666667" stop-color="#5456AB"/>
<stop offset="1" stop-color="#22DCD9"/>
</linearGradient>
</defs>
</svg>
