<svg width="30" height="30" viewBox="0 0 30 30" fill="none" xmlns="http://www.w3.org/2000/svg">
<path d="M13.654 6.70308C10.9686 7.18304 8.71912 8.83866 7.51767 11.2285C6.96215 12.3414 6.69592 13.3697 6.64542 14.6467C6.58307 16.2849 6.95155 17.7596 7.80135 19.2455C7.99962 19.5843 8.15861 19.8896 8.15861 19.9231C8.15861 19.9567 8.00585 20.5504 7.81881 21.2449C7.62615 21.9456 7.47901 22.5331 7.49024 22.5554C7.50146 22.5778 8.13616 22.4479 8.90678 22.2676L10.3003 21.9344L10.776 22.1998C11.3876 22.5387 11.8184 22.7308 12.3796 22.9117C16.3231 24.1999 20.6008 22.4541 22.4818 18.7873C23.0878 17.601 23.3372 16.6293 23.3827 15.2678C23.4052 14.5391 23.394 14.1997 23.3148 13.7197C23.0261 11.8608 22.2723 10.3979 20.9125 9.05315C19.7117 7.86133 18.6007 7.23962 16.9123 6.81002C16.4191 6.68568 16.204 6.6633 15.2127 6.64589C14.4364 6.6347 13.9433 6.65148 13.6546 6.70246L13.654 6.70308ZM12.1981 10.3078C12.3908 10.5222 13.2574 12.5509 13.2574 12.7996C13.2574 13.0197 13.1383 13.2236 12.7474 13.6923C12.5548 13.918 12.4076 14.1499 12.4076 14.2233C12.4076 14.4888 13.263 15.6302 13.8921 16.2009C14.3678 16.6306 15.0593 17.0825 15.6597 17.3592C16.3455 17.6756 16.4079 17.6701 16.81 17.2013C16.9915 16.9924 17.2234 16.7039 17.3312 16.5572C17.5576 16.2407 17.6598 16.1954 17.9485 16.2917C18.3051 16.4049 20.1924 17.3312 20.2772 17.4332C20.3794 17.5575 20.3283 18.2296 20.1924 18.6306C19.9829 19.2293 19.082 19.851 18.249 19.9642C17.6879 20.0431 17.161 19.9586 16.1242 19.6141C14.6796 19.1342 13.8466 18.6648 12.8042 17.7384C11.8521 16.891 10.6793 15.3996 10.1693 14.3936C9.42739 12.9133 9.55209 11.5686 10.526 10.5577C10.8714 10.2021 11.0416 10.1337 11.5796 10.1281C12.0105 10.1281 12.0329 10.1337 12.1975 10.309L12.1981 10.3078Z" fill="white"/>
<path d="M3.03815 0C1.38295 0 0.0404968 1.34056 0.0381509 2.99575L0.00424569 26.9191C0.00189988 28.5743 1.34054 29.9186 2.99573 29.9233L26.9915 29.9915C28.6517 29.9962 30 28.6517 30 26.9915V3C30 1.34315 28.6569 0 27 0H3.03815ZM24.2765 19.8388C23.8238 20.7148 23.3032 21.4378 22.5899 22.172C21.6217 23.178 20.7899 23.7935 19.6128 24.3698C17.9993 25.155 16.4144 25.4889 14.5751 25.4205C13.143 25.3645 11.8524 25.0537 10.5393 24.4432C10.1614 24.2711 9.73705 24.2293 9.33285 24.3245L7.26791 24.8106C5.78465 25.1606 4.56201 25.4323 4.54517 25.4149C4.52834 25.3981 4.82262 24.2231 5.20731 22.8105L5.71243 20.9419C5.83584 20.4853 5.79111 19.9996 5.58638 19.5733C4.87312 18.0762 4.59567 16.9292 4.54517 15.2966C4.51088 14.0817 4.58445 13.3755 4.86751 12.3024C6.14689 7.39835 10.8729 4.07655 15.905 4.53973C19.5954 4.87296 22.7371 7.00854 24.4011 10.308C25.1312 11.7596 25.471 13.2232 25.4767 14.9291C25.4823 16.7713 25.1312 18.195 24.2765 19.8388Z" fill="white"/>
</svg>
